<?xml version="1.0" standalone="no"?>
<!DOCTYPE svg PUBLIC "-//W3C//DTD SVG 1.1//EN" "http://www.w3.org/Graphics/SVG/1.1/DTD/svg11.dtd" >
<svg xmlns="http://www.w3.org/2000/svg" xmlns:xlink="http://www.w3.org/1999/xlink" version="1.1">
<metadata>
Created by FontForge 20201107 at Tue Feb 27 15:00:09 2024
 By 
Copyright (c) 2022 Inigo Jerez. All rights reserved.
</metadata>
<defs>
<font id="FCBARCELONACONDENSEDPRO-Regular" horiz-adv-x="0" >
  <font-face 
    font-family="FC BARCELONA CONDENSED PRO"
    font-weight="400"
    font-stretch="condensed"
    units-per-em="2048"
    panose-1="2 11 5 6 5 9 2 5 2 4"
    ascent="1618"
    descent="-430"
    x-height="1085"
    cap-height="1393"
    bbox="-38 -426 1965 1847"
    underline-thickness="102"
    underline-position="-420"
    unicode-range="U+0020-FB02"
  />
<missing-glyph horiz-adv-x="1024" 
d="M1024 1475v-1475h-1024v1475h1024zM471 738l-410 622v-1245zM918 61l-406 615l-406 -615h812zM512 799l405 614h-810zM963 115v1245l-410 -622z" />
    <glyph glyph-name="fi" unicode="fi" horiz-adv-x="784" 
d="M178 1416q35 46 96 59h107v-105h-57q-28 0 -47 -17.5t-19 -68.5v-199h397v-1085h-114v981h-283v-981h-115v981h-118v104h118v213q0 72 35 118zM544 1414q19 16 54 16t54 -16t22 -42v-53q-3 -26 -22 -41.5t-54 -15.5t-54 15.5t-22 41.5v53q3 26 22 42z" />
    <glyph glyph-name="fl" unicode="fl" horiz-adv-x="786" 
d="M178 1416q35 46 96 59h107v-105h-57q-28 0 -47 -17.5t-19 -68.5v-199h283v390h114v-1334q0 -17 8 -27t19 -10h27v-104h-99q-31 8 -50 38.5t-19 80.5v862h-283v-981h-115v981h-118v104h118v213q0 72 35 118z" />
    <glyph glyph-name="f_f" unicode="ff" horiz-adv-x="834" 
d="M178 1416q35 46 96 59h107v-105h-57q-28 0 -47 -17.5t-19 -68.5v-199h283v213q0 72 34.5 118t96.5 59h106v-105h-57q-28 0 -47 -17.5t-19 -68.5v-199h121v-104h-121v-981h-114v981h-283v-981h-115v981h-118v104h118v213q0 72 35 118z" />
    <glyph glyph-name="f_f_i" unicode="ffi" horiz-adv-x="1182" 
d="M143 1298q0 72 35 118t96 59h107v-105h-57q-28 0 -47 -17.5t-19 -68.5v-199h283v213q0 72 34.5 118t96.5 59h106v-105h-57q-28 0 -47 -17.5t-19 -68.5v-199h398v-1085h-115v981h-283v-981h-114v981h-283v-981h-115v981h-118v104h118v213zM941.5 1414q18.5 16 53.5 16
t54 -16t22 -42v-53q-3 -26 -22 -41.5t-54 -15.5t-53.5 15.5t-21.5 41.5v53q3 26 21.5 42z" />
    <glyph glyph-name="f_f_l" unicode="ffl" horiz-adv-x="1184" 
d="M143 1298q0 72 35 118t96 59h107v-105h-57q-28 0 -47 -17.5t-19 -68.5v-199h283v213q0 72 34.5 118t96.5 59h106v-105h-57q-28 0 -47 -17.5t-19 -68.5v-199h283v390h115v-1334q0 -17 7.5 -27t18.5 -10h27v-104h-98q-31 8 -50.5 38.5t-19.5 80.5v862h-283v-981h-114v981
h-283v-981h-115v981h-118v104h118v213z" />
    <glyph glyph-name=".notdef" horiz-adv-x="1024" 
d="M1024 1475v-1475h-1024v1475h1024zM471 738l-410 622v-1245zM918 61l-406 615l-406 -615h812zM512 799l405 614h-810zM963 115v1245l-410 -622z" />
    <glyph glyph-name=".null" 
 />
    <glyph glyph-name="nonmarkingreturn" horiz-adv-x="682" 
 />
    <glyph glyph-name="space" unicode=" " horiz-adv-x="305" 
 />
    <glyph glyph-name="exclam" unicode="!" horiz-adv-x="397" 
d="M262 709l-22 -461h-82l-23 461v684h127v-684zM143 5.5q-21 15.5 -24 43.5v57q3 28 24 44t56 16t55.5 -16t24.5 -44v-57q-4 -28 -24.5 -43.5t-55.5 -15.5t-56 15.5z" />
    <glyph glyph-name="quotedbl" unicode="&#x22;" horiz-adv-x="476" 
d="M68 1393h102v-547h-102v547zM306 1393h102v-547h-102v547z" />
    <glyph glyph-name="numbersign" unicode="#" horiz-adv-x="752" 
d="M666 1393v-86l-54 -338h95v-92h-110l-57 -361h167v-92h-182l-68 -424h-86v86l54 338h-185l-68 -424h-86v86l54 338h-95v92h110l57 361h-167v92h182l68 424h86v-86l-54 -338h185l68 424h86zM440 516l57 361h-185l-57 -361h185z" />
    <glyph glyph-name="dollar" unicode="$" horiz-adv-x="733" 
d="M82 397h117v-180q45 -45 155 -45h4q79 0 123.5 28t53.5 68v168q0 54 -12 89.5t-42.5 62.5t-87.5 55l-112 55q-90 45 -138.5 110t-48.5 159v188q14 59 65.5 108.5t155.5 60.5v220h115v-220q74 -8 126 -34.5t83 -64.5v-226h-119v170q-17 23 -55.5 38.5t-93.5 15.5h-4
q-69 0 -108 -23.5t-46 -56.5v-162q0 -65 27.5 -106t103.5 -80l105 -54q64 -32 106 -66t69 -91t27 -144v-188q-14 -59 -63.5 -110.5t-153.5 -68.5v-235h-115v229q-80 4 -141.5 31t-95.5 66v233z" />
    <glyph glyph-name="percent" unicode="%" horiz-adv-x="1439" 
d="M136.5 1358q49.5 51 162.5 51h4q113 0 162.5 -51t60.5 -111v-536q-11 -61 -60.5 -111.5t-162.5 -50.5h-4q-113 0 -162.5 50.5t-60.5 111.5v536q11 60 60.5 111zM213.5 666q27.5 -25 85.5 -25h4q58 0 85.5 25t33.5 57v512q-6 32 -33.5 57t-85.5 25h-4q-58 0 -85.5 -25
t-33.5 -57v-512q6 -32 33.5 -57zM1112 1393v-60l-709 -1333h-76v59l709 1334h76zM973.5 793q49.5 51 162.5 51h4q113 0 162.5 -51t60.5 -111v-536q-11 -61 -60.5 -111.5t-162.5 -50.5h-4q-113 0 -162.5 50.5t-60.5 111.5v536q11 60 60.5 111zM1050.5 101q27.5 -25 85.5 -25
h4q58 0 85.5 25t33.5 57v512q-6 32 -33.5 57t-85.5 25h-4q-58 0 -85.5 -25t-33.5 -57v-512q6 -32 33.5 -57z" />
    <glyph glyph-name="ampersand" unicode="&#x26;" horiz-adv-x="840" 
d="M116 537.5q22 47.5 60 86.5t99 86q-68 92 -103 161t-35 147v188q13 82 75 142.5t204 60.5h8q142 0 204 -60.5t74 -142.5v-143q0 -67 -23 -120t-63.5 -96.5t-105.5 -94.5h285l-19 -109h-63v-453q-13 -82 -82 -144t-225 -62h-5q-157 0 -226 62.5t-81 143.5v240
q0 60 22 107.5zM234.5 154q17.5 -27 58.5 -46.5t108 -19.5h5q67 0 108 19.5t58.5 46.5t19.5 53v436h-84v108l-10 -8l-123 -94q-69 -53 -100.5 -84t-45.5 -68t-14 -96v-194q2 -26 19.5 -53zM281.5 912q23.5 -57 80.5 -134l70 53q64 49 95 84.5t43 76t12 104.5v98
q0 24 -15 49.5t-50.5 43.5t-92.5 18h-8q-57 0 -92.5 -18t-50.5 -43.5t-15 -49.5v-147q0 -78 23.5 -135z" />
    <glyph glyph-name="quotesingle" unicode="'" horiz-adv-x="238" 
d="M68 1393h102v-547h-102v547z" />
    <glyph glyph-name="parenleft" unicode="(" horiz-adv-x="348" 
d="M110.5 1319q41.5 52 102.5 74h125v-105h-68q-39 -6 -63.5 -39t-24.5 -80v-1251q0 -47 24.5 -80t63.5 -39h68v-104h-125q-61 21 -102.5 73t-49.5 134v1284q8 81 49.5 133z" />
    <glyph glyph-name="parenright" unicode=")" horiz-adv-x="348" 
d="M237.5 -232q-41.5 -52 -102.5 -73h-125v104h68q39 6 63.5 39t24.5 80v1251q0 47 -24.5 80t-63.5 39h-68v105h125q61 -22 102.5 -74t49.5 -133v-1284q-8 -82 -49.5 -134z" />
    <glyph glyph-name="asterisk" unicode="*" horiz-adv-x="596" 
d="M352 1475v-66q0 -41 -6 -90t-8 -64l4 -2q20 16 54 41.5t71 46.5l59 33l54 -94l-58 -31q-36 -19 -81.5 -39t-59.5 -26v-4q14 -6 59.5 -26.5t81.5 -39.5l58 -31l-54 -94l-59 33q-37 21 -71 46.5t-54 41.5l-4 -2q2 -15 8 -64t6 -90v-65h-108v65q0 41 6 90t8 64l-4 2
q-20 -16 -54 -41.5t-71 -46.5l-59 -33l-54 94l58 31q36 19 81.5 39.5t59.5 26.5v4q-14 6 -59.5 26t-81.5 39l-58 31l54 94l59 -33q37 -21 71 -46.5t54 -41.5l4 2q-2 15 -8 64t-6 90v66h108z" />
    <glyph glyph-name="plus" unicode="+" horiz-adv-x="901" 
d="M401 594v307h103v-307h309v-102h-309v-312h-103v312h-313v102h313z" />
    <glyph glyph-name="comma" unicode="," horiz-adv-x="264" 
d="M64.5 -76q13.5 105 13.5 232h112v-119q-18 -160 -67 -279h-94q22 61 35.5 166z" />
    <glyph glyph-name="hyphen" unicode="-" horiz-adv-x="580" 
d="M514 594v-102h-448v102h448z" />
    <glyph glyph-name="period" unicode="." horiz-adv-x="262" 
d="M75 5.5q-21 15.5 -24 43.5v57q3 28 24 44t56 16t56 -16t24 -44v-57q-3 -28 -24 -43.5t-56 -15.5t-56 15.5z" />
    <glyph glyph-name="slash" unicode="/" horiz-adv-x="532" 
d="M522 1393v-86l-422 -1307h-90v86l422 1307h90z" />
    <glyph glyph-name="zero" unicode="0" horiz-adv-x="836" 
d="M195 1340.5q68 68.5 221 68.5h4q153 0 221 -68.5t84 -150.5v-987q-16 -82 -84 -150.5t-221 -68.5h-4q-153 0 -221 68.5t-84 150.5v987q16 82 84 150.5zM284.5 124q41.5 -38 131.5 -38h4q90 0 131.5 38.5t52.5 86.5v971q-11 48 -52.5 86.5t-131.5 38.5h-4
q-90 0 -131.5 -38t-53.5 -87v-971q12 -49 53.5 -87z" />
    <glyph glyph-name="one" unicode="1" horiz-adv-x="399" 
d="M16 1333l164 60h88v-1393h-123v1264h-129v69z" />
    <glyph glyph-name="two" unicode="2" horiz-adv-x="741" 
d="M117.5 1305.5q28.5 42.5 89 73t155.5 30.5h5q146 0 207.5 -58t74.5 -134v-209q0 -94 -22 -172.5t-55 -141t-91 -155.5l-272 -430v-5q37 2 88 2h360v-106h-571v125l303 481q47 74 75 130t46 123.5t18 148.5v192q-4 41 -41 74t-120 33h-5q-80 0 -116 -27.5t-47 -71.5v-225
h-117v238q7 42 35.5 84.5z" />
    <glyph glyph-name="three" unicode="3" horiz-adv-x="762" 
d="M82 350h121v-164q3 -22 22.5 -44.5t56 -38t89.5 -15.5h4q77 0 119.5 29t52.5 73v461q-7 44 -47 64t-101 20h-4q-42 0 -79 -15t-60 -38v-29h-119v121l400 510v4q-35 -2 -88 -2h-343v107h547v-136l-211 -268q-56 -70 -103 -128t-63 -77l3 -2q28 24 69.5 40t91.5 16h4
q93 0 151 -45t73 -121v-498q-17 -74 -84.5 -132t-208.5 -58h-4q-99 0 -162 31.5t-91.5 72.5t-35.5 76v186z" />
    <glyph glyph-name="four" unicode="4" horiz-adv-x="737" 
d="M719 203h-127v-203h-121v203h-434v100l305 1090h250v-1084h127v-106zM471 309v533q0 99 3.5 249t4.5 197h-57q-9 -33 -36.5 -133.5t-61.5 -230.5l-162 -615h309z" />
    <glyph glyph-name="five" unicode="5" horiz-adv-x="739" 
d="M637 1393v-107h-289q-74 0 -110 2l-9 -239q-2 -69 -5.5 -123.5t-4.5 -69.5h2q34 30 83.5 47t105.5 17h4q113 0 172 -55.5t69 -135.5v-534q-7 -52 -36.5 -99.5t-91 -79.5t-156.5 -32h-4q-146 0 -207.5 57t-75.5 125v184h121v-164q8 -41 42.5 -69.5t119.5 -28.5h4
q75 0 116 31.5t48 79.5v510q-8 48 -42 79t-100 31h-2q-52 0 -94.5 -19t-65.5 -55v-96h-120v180l22 564h504z" />
    <glyph glyph-name="six" unicode="6" horiz-adv-x="813" 
d="M154.5 1301.5q32.5 45.5 98.5 76.5t167 31h4q89 0 150.5 -28t94.5 -69t44 -85v-187h-121v170q-12 40 -56.5 68.5t-115.5 28.5h-4q-90 0 -130.5 -30t-54.5 -79v-440h2q30 42 89 69t137 27h4q84 0 140 -31t84.5 -76t35.5 -90v-467q-8 -48 -39 -94.5t-96.5 -79t-167.5 -32.5
h-4q-149 0 -219 62t-86 142v1020q11 48 43.5 93.5zM285 118q46 -32 131 -32h4q84 0 129.5 32.5t54.5 76.5v452q-9 42 -50 72.5t-118 30.5h-4q-71 0 -124 -28t-77 -77v-450q8 -45 54 -77z" />
    <glyph glyph-name="seven" unicode="7" horiz-adv-x="645" 
d="M598 1393v-113l-262 -1133v-147h-121v127l217 940l49 215v4h-450v107h567z" />
    <glyph glyph-name="eight" unicode="8" horiz-adv-x="815" 
d="M125 626.5q31 51.5 80 78.5v4q-44 27 -73.5 72t-29.5 104v319q16 75 81.5 140t219.5 65h9q154 0 219.5 -65t81.5 -140v-319q0 -59 -29 -104.5t-74 -71.5v-4q49 -27 80 -78.5t31 -112.5v-319q-16 -87 -84.5 -149t-224.5 -62h-9q-156 0 -224 62t-85 149v319q0 61 31 112.5z
M241 824q18 -33 43 -49.5t48 -18.5h151q23 2 48 18.5t43 49.5t18 83v285q-21 113 -180 113h-9q-159 0 -180 -113v-285q0 -50 18 -83zM403 88h9q169 0 188 121v303q0 67 -36.5 100t-82.5 39h-147q-46 -6 -82.5 -39t-36.5 -100v-303q19 -121 188 -121z" />
    <glyph glyph-name="nine" unicode="9" horiz-adv-x="813" 
d="M658.5 91q-32.5 -45 -98.5 -76t-167 -31h-4q-89 0 -150.5 28t-94.5 69t-44 85v186h121v-170q13 -40 57 -68t115 -28h4q90 0 130.5 30t54.5 79v440h-2q-30 -42 -89 -69t-137 -27h-4q-84 0 -140 31t-84.5 75.5t-35.5 89.5v467q8 49 39 95.5t96.5 79t167.5 32.5h4
q149 0 219 -62.5t86 -142.5v-1020q-11 -48 -43.5 -93zM259 673q41 -30 118 -30h4q71 0 124 28t77 77v450q-8 44 -54 76.5t-131 32.5h-4q-84 0 -129.5 -32.5t-54.5 -76.5v-453q9 -42 50 -72z" />
    <glyph glyph-name="colon" unicode=":" horiz-adv-x="262" 
d="M75 5.5q-21 15.5 -24 43.5v57q3 28 24 44t56 16t56 -16t24 -44v-57q-3 -28 -24 -43.5t-56 -15.5t-56 15.5zM75 780.5q-21 15.5 -24 43.5v57q3 28 24 44t56 16t56 -16t24 -44v-57q-3 -28 -24 -43.5t-56 -15.5t-56 15.5z" />
    <glyph glyph-name="semicolon" unicode=";" horiz-adv-x="262" 
d="M64.5 -76q13.5 105 13.5 232h112v-119q-18 -160 -67 -279h-94q22 61 35.5 166zM75 779.5q-21 15.5 -24 43.5v57q3 28 24 44t56 16t56 -16t24 -44v-57q-3 -28 -24 -43.5t-56 -15.5t-56 15.5z" />
    <glyph glyph-name="less" unicode="&#x3c;" horiz-adv-x="901" 
d="M739 913h74v-88l-242 -110l-364 -168v-8q23 -11 114 -53.5t250 -114.5l242 -111v-88h-74l-651 315v111z" />
    <glyph glyph-name="equal" unicode="=" horiz-adv-x="901" 
d="M813 754v-103h-725v103h725zM813 434v-102h-725v102h725z" />
    <glyph glyph-name="greater" unicode="&#x3e;" horiz-adv-x="901" 
d="M813 487l-651 -315h-74v88l242 111q159 72 250 114.5t114 53.5v8l-364 168l-242 110v88h74l651 -315v-111z" />
    <glyph glyph-name="question" unicode="?" horiz-adv-x="621" 
d="M152 1381q66 28 149 28h4q135 0 196 -49.5t74 -118.5v-207q0 -68 -11.5 -124t-31.5 -108t-59 -138l-117 -258v-158h-120v182l135 289q48 102 66 168.5t18 163.5v178q-10 33 -45 55.5t-105 22.5h-4q-51 0 -85.5 -14.5t-49.5 -35.5v-217h-121v263q41 50 107 78zM243 5.5
q-21 15.5 -24 43.5v57q3 28 24 44t56 16t56 -16t24 -44v-57q-3 -28 -24 -43.5t-56 -15.5t-56 15.5z" />
    <glyph glyph-name="at" unicode="@" horiz-adv-x="1411" 
d="M529 92.5q-46 37.5 -62 100.5v700q0 67 47.5 109t136.5 42h4q51 0 92.5 -21t69.5 -56h4l35 53h76v-729q0 -59 30 -87t93 -28q60 0 85.5 28t30.5 60v703q-18 92 -77.5 161.5t-159.5 108.5t-236 39h-4q-135 0 -231.5 -41.5t-151 -111t-71.5 -156.5v-856q18 -93 77.5 -161.5
t156.5 -105.5t226 -37h5q124 0 230.5 41t178.5 105h78v-74q-89 -79 -216.5 -124.5t-270.5 -45.5h-5q-169 0 -291.5 49t-193 136t-90.5 202v885q21 124 95 212.5t194.5 135.5t279.5 47h4q166 0 291 -47t200 -135.5t97 -210.5v-723q-5 -38 -29.5 -80.5t-76.5 -73t-131 -30.5
q-69 0 -116 22.5t-71 59.5h-2q-40 -45 -94.5 -74t-114.5 -29h-4q-72 0 -118 37.5zM752.5 175.5q38.5 21.5 64.5 57.5v635q-28 33 -65.5 54.5t-81.5 21.5h-4q-36 0 -57.5 -20t-26.5 -54v-653q23 -63 82 -63h4q46 0 84.5 21.5z" />
    <glyph glyph-name="A" unicode="A" horiz-adv-x="817" 
d="M72 127l215 1266h243l215 -1266v-127h-120v109l-33 208q-90 -18 -186 -18t-185 18l-33 -208v-109h-116v127zM406 410q89 0 168 18l-80 500q-18 115 -33.5 221t-20.5 143h-65l-56 -364l-80 -501q82 -17 167 -17z" />
    <glyph glyph-name="B" unicode="B" horiz-adv-x="852" 
d="M131 1393h307q140 0 219 -61t91 -163v-221q0 -74 -34 -135.5t-87 -101.5v-6q61 -43 95 -108.5t34 -143.5v-222q-12 -106 -90 -168.5t-217 -62.5h-318v1393zM442 104q88 0 137 41t56 103v203q0 71 -29.5 124t-79.5 78h-276v-549h192zM526 758q48 32 74.5 83.5t26.5 112.5
v199q-7 59 -53 97t-134 38h-190v-530h276z" />
    <glyph glyph-name="C" unicode="C" horiz-adv-x="817" 
d="M743 985h-116v191q-17 51 -61 91t-134 40h-4q-90 0 -136 -42.5t-56 -93.5v-950q6 -30 26.5 -60.5t62 -52.5t103.5 -22h4q90 0 134 40t61 91v191h116v-211q-22 -79 -91 -146t-220 -67h-4q-106 0 -173.5 38.5t-99 90t-40.5 100.5v967q9 48 40.5 100t99 90.5t173.5 38.5h4
q151 0 220 -67t91 -146v-211z" />
    <glyph glyph-name="D" unicode="D" horiz-adv-x="883" 
d="M685.5 1321.5q66.5 -71.5 82.5 -168.5v-913q-16 -97 -82.5 -168.5t-239.5 -71.5h-315v1393h315q173 0 239.5 -71.5zM451 1286h-199v-1180h199q175 0 196 144v893q-21 143 -196 143z" />
    <glyph glyph-name="E" unicode="E" horiz-adv-x="717" 
d="M131 1393h528l-18 -107h-389v-528h338v-107h-338v-545h395v-106h-516v1393z" />
    <glyph glyph-name="F" unicode="F" horiz-adv-x="676" 
d="M131 1393h512l-18 -107h-373v-528h321v-107h-321v-651h-121v1393z" />
    <glyph glyph-name="G" unicode="G" horiz-adv-x="855" 
d="M743 985h-116v191q-17 51 -61 91t-134 40h-4q-90 0 -136 -42.5t-56 -93.5v-954q10 -47 55.5 -87t132.5 -40q50 0 102.5 24.5t98.5 67.5v471h-211v105h329v-758h-92l-22 72h-4q-43 -40 -100.5 -62t-121.5 -22q-98 0 -160 37t-91 87t-37 97v971q9 48 40.5 100t99 90.5
t173.5 38.5h4q151 0 220 -67t91 -146v-211z" />
    <glyph glyph-name="H" unicode="H" horiz-adv-x="889" 
d="M758 0h-121v645h-385v-645h-121v1393h121v-641h385v641h121v-1393z" />
    <glyph glyph-name="I" unicode="I" horiz-adv-x="383" 
d="M252 1393v-1393h-121v1393h121z" />
    <glyph glyph-name="J" unicode="J" horiz-adv-x="772" 
d="M647 1393v-1211q-8 -41 -36 -86t-87.5 -78.5t-152.5 -33.5h-4q-131 0 -190 58t-81 128v451h119v-431q14 -41 48 -72.5t104 -31.5h8q70 0 106.5 33t44.5 71v1098h-311v-192h-119v297h551z" />
    <glyph glyph-name="K" unicode="K" horiz-adv-x="784" 
d="M252 0h-121v1393h121v-416q0 -82 -1 -141.5t-1 -77.5h156l243 635h94v-68l-239 -616v-4l256 -637v-68h-103l-256 653h-149v-653z" />
    <glyph glyph-name="L" unicode="L" horiz-adv-x="653" 
d="M131 1393h121v-1287h375l-17 -106h-479v1393z" />
    <glyph glyph-name="M" unicode="M" horiz-adv-x="1159" 
d="M242 1315h-11q2 -67 7.5 -264.5t5.5 -276.5v-774h-113v1393h201l186 -983q18 -92 34 -196.5t21 -135.5h13q5 31 21.5 135.5t33.5 196.5l186 983h201v-1393h-113v774q0 79 5.5 276.5t7.5 264.5h-10l-99 -510l-153 -805h-172l-154 805z" />
    <glyph glyph-name="N" unicode="N" horiz-adv-x="889" 
d="M131 1393h182l254 -789q31 -97 56 -191.5t39 -150.5h4q-2 34 -8.5 163.5t-12.5 330.5t-6 409v228h119v-1393h-121v55l-399 1241h-2q4 -82 9 -220t5 -294v-782h-119v1393z" />
    <glyph glyph-name="O" unicode="O" horiz-adv-x="905" 
d="M159 1280.5q34 51.5 106 90t186 38.5h4q113 0 185 -38.5t106 -90t45 -100.5v-967q-11 -50 -45 -101t-106 -89.5t-185 -38.5h-4q-114 0 -186 38.5t-106 90t-44 100.5v967q10 49 44 100.5zM299 128.5q51 -42.5 152 -42.5h4q100 0 151 42t64 93v950q-13 51 -64 93.5
t-151 42.5h-4q-101 0 -152 -42.5t-63 -93.5v-950q12 -50 63 -92.5z" />
    <glyph glyph-name="P" unicode="P" horiz-adv-x="784" 
d="M131 1393h285q145 0 214 -60.5t85 -146.5v-445q-11 -103 -75.5 -164.5t-152.5 -78.5h-235v-498h-121v1393zM552.5 651.5q33.5 31.5 41.5 104.5v413q-23 117 -176 117h-166v-682h211q56 16 89.5 47.5z" />
    <glyph glyph-name="Q" unicode="Q" horiz-adv-x="905" 
d="M529 -11q-38 -5 -74 -5h-4q-114 0 -186 38.5t-106 90t-44 100.5v967q10 49 44 100.5t106 90t186 38.5h4q113 0 185 -38.5t106 -90t45 -100.5v-967q-12 -52 -47.5 -105t-104.5 -86l135 -215v-73h-88zM299 128.5q51 -42.5 152 -42.5h4q100 0 151 42t64 93v950
q-13 51 -64 93.5t-151 42.5h-4q-101 0 -152 -42.5t-63 -93.5v-950q12 -50 63 -92.5z" />
    <glyph glyph-name="R" unicode="R" horiz-adv-x="813" 
d="M131 1393h299q146 0 216.5 -60t82.5 -149v-324q0 -75 -48 -136.5t-114 -102.5l193 -547v-74h-111l-203 608h-194v-608h-121v1393zM569.5 773.5q32.5 43.5 38.5 88.5v305q-13 119 -176 119h-180v-571h246q39 15 71.5 58.5z" />
    <glyph glyph-name="S" unicode="S" horiz-adv-x="795" 
d="M94 352h121v-200q25 -27 64.5 -44.5t105.5 -17.5h4q57 0 99 16t65.5 40.5t28.5 52.5v211q0 59 -14.5 97.5t-48.5 68.5t-97 61l-123 61q-90 45 -139 118t-49 153v266q8 41 40 80t94.5 65.5t153.5 26.5h4q199 0 283 -121v-235h-121v186q-16 27 -57.5 46.5t-104.5 19.5h-4
q-46 0 -82 -12t-58 -30.5t-28 -37.5v-213q0 -48 9 -83t38 -68t87 -62l122 -62q70 -36 115.5 -74.5t72.5 -102t27 -159.5v-219q-19 -75 -91.5 -134.5t-229.5 -59.5h-4q-102 0 -177 37t-106 88v241z" />
    <glyph glyph-name="T" unicode="T" horiz-adv-x="616" 
d="M369 1286v-1286h-121v1286h-232v107h590l-18 -107h-219z" />
    <glyph glyph-name="U" unicode="U" horiz-adv-x="889" 
d="M248 1393v-1190q13 -47 60 -82t134 -35h4q87 0 134.5 35t60.5 82v1190h121v-1200q-18 -78 -90.5 -143.5t-225.5 -65.5h-4q-106 0 -173.5 34.5t-99.5 81.5t-42 93v1200h121z" />
    <glyph glyph-name="V" unicode="V" horiz-adv-x="776" 
d="M160 1393l145 -832q34 -193 50.5 -306t25.5 -175h16q9 62 25.5 175t50.5 306l145 832h103v-84l-229 -1309h-207l-230 1309v84h105z" />
    <glyph glyph-name="W" unicode="W" horiz-adv-x="1163" 
d="M178 1393l80 -709q18 -156 36.5 -350.5t24.5 -253.5h19q5 59 24 253.5t37 350.5l82 709h201l82 -709q18 -156 37 -350.5t24 -253.5h19q6 59 25 253.5t36 350.5l80 709h105v-84l-150 -1309h-211l-84 786q-21 203 -36 347t-19 188h-17q-4 -44 -19 -188t-36 -347l-84 -786
h-211l-149 1309v84h104z" />
    <glyph glyph-name="X" unicode="X" horiz-adv-x="750" 
d="M57 78l181 624v11l-179 604v76h99l73 -252l111 -385h66l112 385l74 252h96v-76l-178 -604v-11l180 -624v-78h-98l-88 307l-98 342h-66q-8 -27 -34.5 -116.5t-63.5 -221.5l-88 -311h-99v78z" />
    <glyph glyph-name="Y" unicode="Y" horiz-adv-x="750" 
d="M147 1393l121 -510q33 -140 57 -245t31 -138h37q7 33 31 136.5t57 242.5l121 514h98v-80l-221 -934h-43v-379h-123v379h-43l-221 934v80h98z" />
    <glyph glyph-name="Z" unicode="Z" horiz-adv-x="656" 
d="M35 131l461 1151v6l-164 -2h-281v107h565v-129l-460 -1153v-7l161 2h299v-106h-581v131z" />
    <glyph glyph-name="bracketleft" unicode="[" horiz-adv-x="391" 
d="M358 1393v-105h-122v-1489h122v-104h-243v1698h243z" />
    <glyph glyph-name="backslash" unicode="\" horiz-adv-x="532" 
d="M522 86v-86h-90l-422 1307v86h90z" />
    <glyph glyph-name="bracketright" unicode="]" horiz-adv-x="391" 
d="M276 -305h-243v104h123v1489h-123v105h243v-1698z" />
    <glyph glyph-name="asciicircum" unicode="^" horiz-adv-x="901" 
d="M520 1393l285 -670v-84h-84l-105 244q-65 152 -102.5 250t-58.5 153h-9q-21 -55 -58.5 -153t-102.5 -250l-105 -244h-84v84l285 670h139z" />
    <glyph glyph-name="underscore" unicode="_" horiz-adv-x="819" 
d="M819 -152v-102h-819v102h819z" />
    <glyph glyph-name="grave" unicode="`" horiz-adv-x="387" 
d="M326 1214h-107l-158 175v86h97z" />
    <glyph glyph-name="a" unicode="a" horiz-adv-x="766" 
d="M429.5 9q-60.5 -25 -122.5 -25h-4q-66 0 -112 21.5t-70 54t-31 67.5v291q0 92 66 138t176 46h196v332q-6 25 -41.5 45t-103.5 20h-4q-62 0 -99 -13.5t-53 -31.5v-143h-114v190q29 38 98.5 69.5t171.5 31.5h4q125 0 183 -42t73 -95v-965h-86l-16 78h-6q-45 -44 -105.5 -69
zM326 88h4q54 0 105.5 23t92.5 61v326h-213q-108 0 -108 -95v-241q10 -74 119 -74z" />
    <glyph glyph-name="b" unicode="b" horiz-adv-x="813" 
d="M129 1475h115v-312l-2 -159h4q42 38 101.5 63t125.5 25h4q72 0 122 -25.5t76 -63t30 -71.5v-780q-4 -35 -30 -72t-75.5 -62.5t-120.5 -25.5h-4q-66 0 -126.5 24.5t-102.5 63.5h-4l-33 -80h-80v1475zM336.5 117q51.5 -25 107.5 -25h5q51 0 82 14.5t44.5 33t14.5 32.5v739
q-1 14 -14.5 32.5t-46 33t-85.5 14.5h-4q-56 0 -107.5 -26.5t-88.5 -67.5v-711q41 -44 92.5 -69z" />
    <glyph glyph-name="c" unicode="c" horiz-adv-x="723" 
d="M647 811h-115v137q-12 21 -49 37t-94 16h-4q-144 0 -162 -112v-692q18 -113 162 -113h4q56 0 93.5 16t49.5 37v137h115v-182q-29 -48 -95.5 -78t-154.5 -30h-4q-100 0 -162 33t-89.5 77.5t-32.5 85.5v725q5 42 32.5 86.5t89.5 77.5t162 33h4q88 0 154.5 -30.5t95.5 -78.5
v-182z" />
    <glyph glyph-name="d" unicode="d" horiz-adv-x="813" 
d="M465.5 1067q59.5 -25 101.5 -63h4l-2 159v312h115v-1475h-80l-33 80h-4q-42 -39 -102.5 -63.5t-126.5 -24.5h-4q-71 0 -120.5 25.5t-75.5 62.5t-29 72v780q3 34 29 71t76 63t122 26h4q66 0 125.5 -25zM237.5 139.5q13.5 -18.5 45 -33t82.5 -14.5h4q56 0 107.5 25t92.5 69
v711q-37 41 -88.5 67.5t-107.5 26.5h-4q-53 0 -85.5 -14.5t-46 -33t-14.5 -32.5v-739q1 -14 14.5 -32.5z" />
    <glyph glyph-name="e" unicode="e" horiz-adv-x="768" 
d="M109 897q6 44 33.5 90t88 80.5t158.5 34.5h4q99 0 160 -34.5t88.5 -81t32.5 -89.5v-403h-451v-291q7 -45 43 -82t125 -37h4q62 0 100 17.5t52 39.5v119h115v-160q-29 -51 -100 -83.5t-167 -32.5h-4q-99 0 -160 34.5t-88.5 80.5t-33.5 89v709zM559 598v285q-7 44 -43 81
t-123 37h-4q-87 0 -123 -37t-43 -81v-285h336z" />
    <glyph glyph-name="f" unicode="f" horiz-adv-x="436" 
d="M178 1416q35 46 96 59h107v-105h-57q-28 0 -47 -17.5t-19 -68.5v-199h121v-104h-121v-981h-115v981h-118v104h118v213q0 72 35 118z" />
    <glyph glyph-name="g" unicode="g" horiz-adv-x="743" 
d="M639 483q-6 -40 -33 -82t-84 -72t-145 -30h-115q-36 0 -65 -21t-29 -57v-4q0 -37 19.5 -57.5t74.5 -20.5h215q112 0 164.5 -45.5t52.5 -124.5v-75q0 -56 -30.5 -101t-93.5 -71.5t-156 -26.5h-97q-128 0 -186.5 45t-58.5 125v55q4 50 32 85t72 50v2q-49 12 -78 43.5
t-32 83.5v41q4 63 43 94t84 37v4q-70 40 -82 123v435q6 41 32 82.5t82.5 71.5t147.5 30h4q43 0 89 -15t73 -36h4v8q0 39 19.5 66.5t53.5 39.5h86v-106h-10q-29 0 -41 -12.5t-12 -42.5v-521zM266 427q33 -28 107 -28h4q73 0 106 28t41 67v413q-8 38 -41.5 66t-105.5 28h-4
q-74 0 -107 -28t-41 -66v-413q8 -39 41 -67zM562.5 9q-14.5 17 -40 22.5t-69.5 5.5h-146q-58 0 -93.5 -32.5t-35.5 -90.5v-14q0 -63 39 -85t119 -22h70q93 0 133.5 25.5t40.5 81.5v57q-3 35 -17.5 52z" />
    <glyph glyph-name="h" unicode="h" horiz-adv-x="813" 
d="M129 1475h115v-318q0 -72 -8 -158h4q43 46 104 73.5t129 27.5h4q104 0 151.5 -41t61.5 -90v-969h-115v934q-21 63 -124 63h-5q-62 0 -114.5 -29.5t-87.5 -74.5v-893h-115v1475z" />
    <glyph glyph-name="i" unicode="i" horiz-adv-x="373" 
d="M129 1085h115v-1085h-115v1085zM132.5 1414q18.5 16 53.5 16q36 0 54.5 -15.5t21.5 -42.5v-53q-3 -26 -21.5 -41.5t-54.5 -15.5q-35 0 -53.5 15.5t-21.5 41.5v53q3 26 21.5 42z" />
    <glyph glyph-name="j" unicode="j" horiz-adv-x="373" 
d="M244 1085v-1181q0 -80 -32.5 -136t-102.5 -73h-105v104h41q33 0 51 8t25.5 29.5t7.5 61.5v1187h115zM132.5 1414q18.5 16 53.5 16q36 0 54.5 -15.5t21.5 -42.5v-53q-3 -26 -21.5 -41.5t-54.5 -15.5q-35 0 -53.5 15.5t-21.5 41.5v53q3 26 21.5 42z" />
    <glyph glyph-name="k" unicode="k" horiz-adv-x="721" 
d="M377 504h-133v-504h-115v1475h115v-635l-2 -232h133l217 477h82v-77l-205 -447v-4l209 -481v-76h-84z" />
    <glyph glyph-name="l" unicode="l" horiz-adv-x="375" 
d="M148.5 38.5q-19.5 30.5 -19.5 80.5v1356h115v-1334q0 -17 7.5 -27t18.5 -10h27v-104h-98q-31 8 -50.5 38.5z" />
    <glyph glyph-name="m" unicode="m" horiz-adv-x="1243" 
d="M129 1085h82l22 -86h7q43 46 103 73.5t126 27.5h4q145 0 197 -101h8q43 46 103 73.5t126 27.5h4q101 0 148 -41t61 -90v-969h-114v934q-10 26 -36 44.5t-85 18.5h-4q-61 0 -113.5 -29.5t-85.5 -74.5v-893h-115v934q-21 63 -121 63h-4q-61 0 -112.5 -29.5t-85.5 -74.5
v-893h-115v1085z" />
    <glyph glyph-name="n" unicode="n" horiz-adv-x="813" 
d="M129 1085h82l22 -86h7q43 46 104 73.5t129 27.5h4q104 0 151.5 -41t61.5 -90v-969h-115v934q-21 63 -124 63h-5q-62 0 -114.5 -29.5t-87.5 -74.5v-893h-115v1085z" />
    <glyph glyph-name="o" unicode="o" horiz-adv-x="803" 
d="M143.5 987q28.5 46 91.5 80.5t164 34.5h4q102 0 165 -34.5t91.5 -80.5t34.5 -90v-709q-6 -43 -34.5 -89t-91.5 -80.5t-165 -34.5h-4q-101 0 -164 34.5t-91.5 80.5t-34.5 89v709q6 44 34.5 90zM268.5 121.5q38.5 -37.5 130.5 -37.5h4q93 0 131 37.5t46 81.5v680
q-8 44 -46 81t-131 37h-4q-92 0 -130.5 -37.5t-45.5 -80.5v-680q7 -44 45.5 -81.5z" />
    <glyph glyph-name="p" unicode="p" horiz-adv-x="813" 
d="M347.5 19q-59.5 25 -101.5 63h-4l2 -160v-227h-115v1390h80l33 -79h4q42 39 102.5 63.5t126.5 24.5h4q71 0 120.5 -25.5t75.5 -63t30 -71.5v-780q-4 -35 -30 -72t-76 -62.5t-122 -25.5h-4q-66 0 -125.5 25zM332.5 120.5q51.5 -26.5 107.5 -26.5h4q53 0 85.5 14.5t46 33
t14.5 32.5v739q-1 14 -14.5 32.5t-44.5 33t-82 14.5h-5q-56 0 -107.5 -25t-92.5 -69v-711q37 -41 88.5 -67.5z" />
    <glyph glyph-name="q" unicode="q" horiz-adv-x="813" 
d="M214 19.5q-50 25.5 -76 62.5t-29 72v780q3 34 29 71t75.5 63t120.5 26h4q66 0 126.5 -24.5t102.5 -63.5h4l33 79h80v-1390h-115v227l2 160h-4q-42 -38 -101.5 -63t-125.5 -25h-4q-72 0 -122 25.5zM237.5 141.5q13.5 -18.5 46 -33t85.5 -14.5h4q56 0 107.5 26.5t88.5 67.5
v711q-41 44 -92.5 69t-107.5 25h-4q-51 0 -82.5 -14.5t-45 -33t-14.5 -32.5v-739q1 -14 14.5 -32.5z" />
    <glyph glyph-name="r" unicode="r" horiz-adv-x="492" 
d="M461 969h-74q-70 0 -102.5 -32.5t-40.5 -64.5v-872h-115v1085h84l20 -94h5q63 94 190 94h33v-116z" />
    <glyph glyph-name="s" unicode="s" horiz-adv-x="698" 
d="M82 283h115v-160q13 -14 48 -23.5t91 -9.5h4q74 0 114 25t48 61v129q0 51 -9 83.5t-35.5 58t-78.5 49.5l-105 49q-58 27 -97 59.5t-62 83t-23 123.5v119q13 65 72 118.5t188 53.5h4q86 0 150 -22.5t100 -61.5v-217h-114v157q-19 18 -55.5 28.5t-84.5 10.5h-4
q-68 0 -101 -22.5t-40 -56.5v-115q0 -61 29 -95.5t100 -68.5l90 -43q56 -27 96 -57.5t67 -83t27 -129.5v-162q-15 -69 -80 -124.5t-208 -55.5h-4q-79 0 -140.5 19.5t-101.5 53.5v226z" />
    <glyph glyph-name="t" unicode="t" horiz-adv-x="485" 
d="M295 1288v-203h123v-104h-123v-799q0 -78 65 -78h48v-104h-109q-54 16 -87.5 56t-33.5 102v823h-119v104h119v203h117z" />
    <glyph glyph-name="u" unicode="u" horiz-adv-x="809" 
d="M360 88h5q62 0 113 29.5t87 75.5v892h115v-1085h-82l-23 86h-6q-44 -45 -104 -72.5t-127 -27.5h-4q-102 0 -149.5 41t-61.5 90v968h115v-933q20 -64 122 -64z" />
    <glyph glyph-name="v" unicode="v" horiz-adv-x="723" 
d="M156 1085l114 -577q33 -169 53 -283t25 -143h27q5 29 25 143t53 283l114 577h99v-79l-205 -1006h-199l-205 1006v79h99z" />
    <glyph glyph-name="w" unicode="w" horiz-adv-x="1087" 
d="M156 1085l84 -577q18 -121 29 -215.5t15 -146t5 -64.5h26q1 13 5.5 64.5t15.5 146t29 215.5l84 577h190l84 -577q18 -121 29 -215.5t15 -146t5 -64.5h27q1 13 6 64.5t16.5 146t28.5 215.5l82 577h98v-79l-145 -1006h-199l-74 553l-59 453h-18l-60 -447l-74 -559h-198
l-146 1006v79h99z" />
    <glyph glyph-name="x" unicode="x" horiz-adv-x="702" 
d="M162 1085l65 -219l78 -262h92q5 16 24 81.5t54 178.5l68 221h94v-75l-152 -459v-8l158 -465v-78h-94l-80 254l-74 242h-88l-74 -240l-81 -256h-93v78l158 465v8l-151 459v75h96z" />
    <glyph glyph-name="y" unicode="y" horiz-adv-x="723" 
d="M156 1085l108 -577q34 -180 53.5 -288.5t24.5 -137.5h39q5 29 24.5 137.5t53.5 288.5l108 577h99v-79l-195 -1006l-10 -117q-14 -158 -150 -188h-147v104h102q29 3 47 12.5t29 32.5t14 66l6 90h-110l-195 1006v79h99z" />
    <glyph glyph-name="z" unicode="z" horiz-adv-x="596" 
d="M49 0v113l369 862v8q-11 0 -45.5 -1t-81.5 -1h-232v104h482v-116l-369 -863v-6q11 1 50.5 2.5t80.5 1.5h246v-104h-500z" />
    <glyph glyph-name="braceleft" unicode="{" horiz-adv-x="360" 
d="M87.5 608.5q21.5 14.5 29.5 41.5t8 73v471q6 67 40 121t89 78h78v-101q-34 -8 -58 -38.5t-30 -82.5v-454q0 -67 -24.5 -108.5t-76.5 -59.5v-10q52 -19 76.5 -60t24.5 -108v-455q6 -52 30 -82.5t58 -38.5v-100h-78q-55 24 -89 77.5t-40 121.5v471q0 46 -8 73t-29.5 41.5
t-62.5 16.5v96q41 2 62.5 16.5z" />
    <glyph glyph-name="bar" unicode="|" horiz-adv-x="365" 
d="M236 1698v-2003h-107v2003h107z" />
    <glyph glyph-name="braceright" unicode="}" horiz-adv-x="360" 
d="M273.5 479.5q-21.5 -14.5 -29.5 -41.5t-8 -73v-471q-7 -68 -41 -121.5t-89 -77.5h-77v100q34 8 58 38.5t30 82.5v455q0 67 24 108t76 60v10q-52 18 -76 59.5t-24 108.5v454q-6 52 -30 82.5t-58 38.5v101h77q55 -24 89 -78t41 -121v-471q0 -46 8 -73t29.5 -41.5
t62.5 -16.5v-96q-41 -2 -62.5 -16.5z" />
    <glyph glyph-name="asciitilde" unicode="~" horiz-adv-x="899" 
d="M694 719h111v-80q-19 -55 -66.5 -87t-117.5 -32h-3q-48 0 -90 12.5t-99 36.5q-48 20 -78 29.5t-60 9.5h-2q-34 0 -54.5 -13.5t-29.5 -33.5v-41h-111v80q19 55 67 87t118 32h2q48 0 90 -12.5t99 -36.5q48 -20 78 -29.5t60 -9.5h2q34 0 54.5 13.5t29.5 33.5v41z" />
    <glyph glyph-name="uni00A0" unicode="&#xa0;" horiz-adv-x="305" 
 />
    <glyph glyph-name="exclamdown" unicode="&#xa1;" horiz-adv-x="397" 
d="M135 -305v684l23 461h82l22 -461v-684h-127zM254.5 1082q20.5 -16 24.5 -44v-57q-4 -28 -24.5 -43.5t-55.5 -15.5t-56 15.5t-24 43.5v57q3 28 24 44t56 16t55.5 -16z" />
    <glyph glyph-name="cent" unicode="&#xa2;" horiz-adv-x="723" 
d="M451 1544v-292q69 -9 120.5 -37t75.5 -68v-182h-115v137q-12 21 -49.5 37t-93.5 16h-4q-144 0 -162 -113v-692q18 -112 162 -112h4q57 0 94 16t49 37v137h115v-182q-24 -40 -75.5 -68.5t-120.5 -37.5v-302h-115v302q-79 10 -128.5 43t-72 73.5t-26.5 77.5v725
q4 36 26.5 76.5t72 73.5t128.5 43v292h115z" />
    <glyph glyph-name="sterling" unicode="&#xa3;" horiz-adv-x="780" 
d="M408 512q12 -64 12 -164q0 -64 -23 -129t-63 -115h352v-104h-582v104h95q46 41 74 106t28 142q0 55 -2.5 90t-12.5 70h-184v104h140l-49 91q-40 74 -54 134t-14 154v222q13 76 74.5 134t208.5 58h4q95 0 155.5 -30.5t89 -73t35.5 -84.5v-238h-117v225q-11 44 -47 71.5
t-116 27.5h-4q-83 0 -120.5 -33t-41.5 -74v-199q0 -77 13 -133t50 -125l51 -94l16 -33h173v-104h-141z" />
    <glyph glyph-name="currency" unicode="&#xa4;" horiz-adv-x="897" 
d="M590 319q-63 -36 -141 -36q-80 0 -142 37l-143 -142l-82 80l142 144q-38 62 -38 141q0 78 38 141l-142 143l82 80l143 -141q62 37 142 37q79 0 141 -37l143 141l82 -80l-142 -143q38 -63 38 -141q0 -79 -38 -141l142 -144l-82 -80zM342.5 433.5q39.5 -42.5 106.5 -42.5
q66 0 105.5 42.5t39.5 109.5t-39 109t-106 42t-106.5 -42t-39.5 -109t39.5 -109.5z" />
    <glyph glyph-name="yen" unicode="&#xa5;" horiz-adv-x="711" 
d="M152 1393l96 -396l92 -387h31q8 37 34 146t58 241l98 396h96v-86l-178 -697h152v-104h-215v-141h215v-105h-215v-260h-119v260h-217v105h217v141h-217v104h151l-178 697v86h99z" />
    <glyph glyph-name="brokenbar" unicode="&#xa6;" horiz-adv-x="365" 
d="M236 1698v-864h-107v864h107zM236 559v-864h-107v864h107z" />
    <glyph glyph-name="section" unicode="&#xa7;" horiz-adv-x="801" 
d="M501.5 1285.5q-42.5 19.5 -104.5 19.5h-4q-46 0 -82 -12t-58 -30.5t-28 -37.5v-125q0 -48 8.5 -83t37.5 -68t87 -62l123 -62q71 -36 116 -74.5t72 -101.5t27 -160v-161q-20 -73 -71 -118q35 -40 53 -87t18 -94v-179q-8 -40 -40 -79.5t-94.5 -66t-153.5 -26.5h-5
q-197 0 -282 121v209h121v-160q16 -26 57.5 -45.5t103.5 -19.5h5q46 0 82 12t58 30.5t27 37.5v125q0 49 -8.5 83.5t-37.5 67.5t-87 62l-123 61q-70 35 -115.5 74t-72.5 102t-27 160v162q21 72 72 117q-35 41 -53.5 88t-18.5 94v178q9 41 41 80t94.5 65.5t153.5 26.5h4
q199 0 283 -121v-209h-121v160q-15 27 -57.5 46.5zM239.5 490q14.5 -39 48.5 -69t97 -61l123 -61l28 -15q32 25 39 62v154q0 59 -14 97.5t-48 68.5t-97 61l-123 61l-28 16q-34 -28 -40 -63v-153q0 -59 14.5 -98z" />
    <glyph glyph-name="dieresis" unicode="&#xa8;" horiz-adv-x="508" 
d="M61 1317v53q9 57 76 57q35 0 54 -15.5t22 -41.5v-53q-3 -26 -22 -41.5t-54 -15.5q-67 0 -76 57zM317 1275.5q-19 15.5 -22 41.5v53q3 26 22 41.5t54 15.5t53.5 -15.5t21.5 -41.5v-53q-3 -26 -21.5 -41.5t-53.5 -15.5t-54 15.5z" />
    <glyph glyph-name="copyright" unicode="&#xa9;" horiz-adv-x="1223" 
d="M176 1234q51 73 158.5 124t273.5 51h6q166 0 274 -51t159 -124t59 -144v-787q-8 -72 -59 -144.5t-159 -123.5t-274 -51h-6q-166 0 -273.5 51t-158.5 123.5t-59 144.5v787q8 71 59 144zM282.5 207.5q41.5 -52.5 123 -87t202.5 -34.5h6q121 0 203 34.5t123 87.5t49 109v758
q-8 57 -49 110t-123 87.5t-203 34.5h-6q-121 0 -202.5 -34.5t-123 -87.5t-49.5 -110v-758q8 -57 49.5 -109.5zM410 1062.5q26 37.5 79.5 63t133.5 25.5h4q63 0 123 -26.5t88 -71.5v-193h-117v146q-8 16 -34 29.5t-69 13.5h-4q-108 0 -120 -80v-545q12 -80 120 -80h4
q43 0 69 13.5t34 29.5v145h117v-192q-28 -45 -88 -71.5t-123 -26.5h-4q-80 0 -133.5 25.5t-79.5 63t-31 75.5v581q5 38 31 75.5z" />
    <glyph glyph-name="ordfeminine" unicode="&#xaa;" horiz-adv-x="633" 
d="M135 1052q49 35 133 35h160v179q-8 19 -33.5 31t-66.5 12h-4q-38 0 -66.5 -7.5t-42.5 -19.5v-86h-111v135q36 36 92.5 57t127.5 21h4q90 0 144 -34t67 -89v-618h-86l-13 63h-6q-37 -35 -85 -56.5t-97 -21.5h-4q-82 0 -118.5 38t-43.5 83v187q0 56 49 91zM219.5 763.5
q17.5 -13.5 54.5 -13.5h5q38 0 76.5 16.5t72.5 46.5v174h-162q-40 0 -54.5 -13.5t-14.5 -39.5v-129q5 -28 22.5 -41.5z" />
    <glyph glyph-name="guillemotleft" unicode="&#xab;" horiz-adv-x="729" 
d="M274 889h74v-76l-180 -266v-8l180 -267v-75h-74l-208 305v82zM589 889h74v-76l-180 -266v-8l180 -267v-75h-74l-208 305v82z" />
    <glyph glyph-name="logicalnot" unicode="&#xac;" horiz-adv-x="901" 
d="M813 594v-414h-102v312h-623v102h725z" />
    <glyph glyph-name="uni00AD" unicode="&#xad;" horiz-adv-x="580" 
d="M514 594v-102h-448v102h448z" />
    <glyph glyph-name="registered" unicode="&#xae;" horiz-adv-x="1024" 
d="M125 1236q35 65 128 119t255 54h8q162 0 255 -54t128 -119t43 -122v-504q-8 -56 -43 -121.5t-128 -119.5t-255 -54h-8q-162 0 -255 54t-128 119.5t-43 121.5v504q8 57 43 122zM270 482q67 -66 238 -66h8q171 0 238 66t77 141v479q-10 75 -77 141t-238 66h-8
q-171 0 -238 -66t-77 -141v-479q10 -75 77 -141zM356 571v586h181q74 0 116.5 -30t48.5 -85v-102q-4 -43 -25 -71t-50 -40l78 -194v-64h-87l-86 242h-75v-242h-101zM588 912.5q14 13.5 14 37.5v80q-3 20 -19.5 31.5t-47.5 11.5h-78v-178h100q17 4 31 17.5z" />
    <glyph glyph-name="macron" unicode="&#xaf;" horiz-adv-x="520" 
d="M459 1395v-105h-398v105h398z" />
    <glyph glyph-name="degree" unicode="&#xb0;" horiz-adv-x="500" 
d="M116 1366.5q42 42.5 130 42.5h8q88 0 130 -42.5t48 -94.5v-305q-6 -52 -48 -95t-130 -43h-8q-88 0 -130 43t-48 95v305q6 52 48 94.5zM188 930q18 -19 58 -19h8q40 0 58 19t18 41v297q-2 22 -19.5 40.5t-56.5 18.5h-8q-40 0 -57 -18t-19 -41v-297q0 -22 18 -41z" />
    <glyph glyph-name="plusminus" unicode="&#xb1;" horiz-adv-x="901" 
d="M401 594v235h103v-235h309v-102h-309v-240h-103v240h-313v102h313zM813 174v-102h-725v102h725z" />
    <glyph glyph-name="uni00B2" unicode="&#xb2;" horiz-adv-x="586" 
d="M161 1794q60 25 132 25q100 0 157 -39t68 -102v-121q0 -63 -21 -115t-55 -96t-98 -113l-151 -164v-4q5 0 28 1t64 1h235v-92h-454v105l155 166q80 86 117 131t56.5 89.5t19.5 98.5v94q-5 31 -37 49.5t-88 18.5q-39 0 -70 -11t-49 -30v-129h-104v166q35 46 95 71z" />
    <glyph glyph-name="uni00B3" unicode="&#xb3;" horiz-adv-x="569" 
d="M57 1186h103v-90q10 -19 41 -32t80 -13q54 0 84 20.5t38 51.5v211q-9 25 -37.5 41t-70.5 16q-28 0 -53 -9t-39 -22v-16h-99v96l289 270v3q-14 -1 -56 -2t-91 -1h-183v93h431v-109l-277 -258v-2q56 37 113 37q72 0 117.5 -33.5t58.5 -93.5v-215q-8 -74 -67.5 -122
t-168.5 -48q-83 0 -137 30.5t-76 79.5v117z" />
    <glyph glyph-name="acute" unicode="&#xb4;" horiz-adv-x="387" 
d="M326 1475v-86l-158 -175h-107l168 261h97z" />
    <glyph glyph-name="uni00B5" unicode="&#xb5;" horiz-adv-x="809" 
d="M238 1085v-933q20 -64 122 -64h5q62 0 113 29.5t87 75.5v892h115v-1085h-82l-23 86h-6q-44 -45 -104 -72.5t-127 -27.5h-4q-66 0 -113 21q17 -143 17 -232v-80h-115v1390h115z" />
    <glyph glyph-name="paragraph" unicode="&#xb6;" horiz-adv-x="825" 
d="M163.5 517q-52.5 46 -63.5 130v561q11 83 67.5 134t184.5 51h342v-1698h-121v1593h-112v-1593h-121v776h-6q-118 0 -170.5 46z" />
    <glyph glyph-name="periodcentered" unicode="&#xb7;" horiz-adv-x="262" 
d="M75 470.5q-21 15.5 -24 43.5v57q3 28 24 44t56 16t56 -16t24 -44v-57q-3 -28 -24 -43.5t-56 -15.5t-56 15.5z" />
    <glyph glyph-name="cedilla" unicode="&#xb8;" horiz-adv-x="297" 
d="M61 -281v78q27 38 43.5 89t16.5 104v63h115v-51q0 -81 -23 -154t-63 -129h-89z" />
    <glyph glyph-name="uni00B9" unicode="&#xb9;" horiz-adv-x="375" 
d="M33 1743l137 60h68v-729l104 -19v-80h-307v80l104 19v612h-106v57z" />
    <glyph glyph-name="ordmasculine" unicode="&#xba;" horiz-adv-x="659" 
d="M122 1315.5q23 37.5 73.5 65.5t132.5 28h4q82 0 132.5 -28t73 -65.5t27.5 -72.5v-426q-5 -35 -27.5 -72.5t-73 -65.5t-132.5 -28h-4q-82 0 -132.5 28t-73.5 65.5t-28 72.5v426q5 35 28 72.5zM237 776q27 -26 91 -26h4q64 0 91 26t32 55v398q-5 29 -32 55.5t-91 26.5h-4
q-64 0 -91 -26.5t-32 -55.5v-398q5 -29 32 -55z" />
    <glyph glyph-name="guillemotright" unicode="&#xbb;" horiz-adv-x="729" 
d="M664 502l-209 -305h-74v75l180 267v8l-180 266v76h74l209 -305v-82zM348 502l-209 -305h-73v75l180 267v8l-180 266v76h73l209 -305v-82z" />
    <glyph glyph-name="onequarter" unicode="&#xbc;" horiz-adv-x="1161" 
d="M33 1333l137 60h68v-729l104 -19v-80h-307v80l104 19v612h-106v57zM932 1393v-60l-709 -1333h-76v59l709 1334h76zM942 144h-324v86l246 598h182v-592h90v-92h-90v-144h-104v144zM942 236v223l2 289h-21q-9 -25 -44.5 -117t-82.5 -209l-75 -186h221z" />
    <glyph glyph-name="onehalf" unicode="&#xbd;" horiz-adv-x="1215" 
d="M33 1333l137 60h68v-729l104 -19v-80h-307v80l104 19v612h-106v57zM932 1393v-60l-709 -1333h-76v59l709 1334h76zM790 819q60 25 132 25q100 0 157 -39t68 -102v-121q0 -63 -21 -115t-55 -96t-98 -113l-151 -164v-4q5 0 28 1t64 1h235v-92h-454v105l155 166
q80 86 117 131t56.5 89.5t19.5 98.5v94q-5 31 -37 49.5t-88 18.5q-39 0 -70 -11t-49 -30v-129h-104v166q35 46 95 71z" />
    <glyph glyph-name="threequarters" unicode="&#xbe;" horiz-adv-x="1339" 
d="M57 776h103v-90q10 -19 41 -32t80 -13q54 0 84 20.5t38 51.5v211q-9 25 -37.5 41t-70.5 16q-28 0 -53 -9t-39 -22v-16h-99v96l289 270v3q-14 -1 -56 -2t-91 -1h-183v93h431v-109l-277 -258v-2q56 37 113 37q72 0 117.5 -33.5t58.5 -93.5v-215q-8 -74 -67.5 -122
t-168.5 -48q-83 0 -137 30.5t-76 79.5v117zM1110 1393v-60l-709 -1333h-76v59l709 1334h76zM1120 144h-324v86l246 598h182v-592h90v-92h-90v-144h-104v144zM1120 236v223l2 289h-21q-9 -25 -44.5 -117t-82.5 -209l-75 -186h221z" />
    <glyph glyph-name="questiondown" unicode="&#xbf;" horiz-adv-x="621" 
d="M468 -293.5q-66 -28.5 -149 -28.5h-4q-134 0 -195 49.5t-75 118.5v207q0 68 11.5 124.5t31.5 108.5t59 138l117 258v158h121v-183l-135 -288q-47 -101 -65.5 -168t-18.5 -164v-178q9 -33 44 -55.5t105 -22.5h4q52 0 86 14t50 35v217h120v-262q-41 -50 -107 -78.5z
M377.5 1082q20.5 -16 23.5 -44v-57q-3 -28 -23.5 -43.5t-55.5 -15.5q-36 0 -56.5 15.5t-23.5 43.5v57q3 28 23.5 44t56.5 16q35 0 55.5 -16z" />
    <glyph glyph-name="Agrave" unicode="&#xc0;" horiz-adv-x="817" 
d="M72 127l215 1266h243l215 -1266v-127h-120v109l-33 208q-90 -18 -186 -18t-185 18l-33 -208v-109h-116v127zM406 410q89 0 168 18l-80 500q-18 115 -33.5 221t-20.5 143h-65l-56 -364l-80 -501q82 -17 167 -17zM468 1495h-107l-158 145v89h99z" />
    <glyph glyph-name="Aacute" unicode="&#xc1;" horiz-adv-x="817" 
d="M72 127l215 1266h243l215 -1266v-127h-120v109l-33 208q-90 -18 -186 -18t-185 18l-33 -208v-109h-116v127zM406 410q89 0 168 18l-80 500q-18 115 -33.5 221t-20.5 143h-65l-56 -364l-80 -501q82 -17 167 -17zM613 1729v-89l-158 -145h-107l166 234h99z" />
    <glyph glyph-name="Acircumflex" unicode="&#xc2;" horiz-adv-x="817" 
d="M72 127l215 1266h243l215 -1266v-127h-120v109l-33 208q-90 -18 -186 -18t-185 18l-33 -208v-109h-116v127zM406 410q89 0 168 18l-80 500q-18 115 -33.5 221t-20.5 143h-65l-56 -364l-80 -501q82 -17 167 -17zM209 1571l148 158h102l148 -158v-76h-68l-53 59l-76 86h-4
l-76 -86l-53 -59h-68v76z" />
    <glyph glyph-name="Atilde" unicode="&#xc3;" horiz-adv-x="817" 
d="M72 127l215 1266h243l215 -1266v-127h-120v109l-33 208q-90 -18 -186 -18t-185 18l-33 -208v-109h-116v127zM406 410q89 0 168 18l-80 500q-18 115 -33.5 221t-20.5 143h-65l-56 -364l-80 -501q82 -17 167 -17zM225.5 1667.5q30.5 18.5 73.5 18.5q28 0 51.5 -6t67.5 -21
q34 -12 52 -16.5t34 -4.5q30 0 37 23v20h94v-77q-14 -31 -45 -49.5t-74 -18.5q-28 0 -52.5 6t-65.5 21q-36 12 -53.5 16t-32.5 4q-31 0 -37 -22v-21h-95v78q15 31 45.5 49.5z" />
    <glyph glyph-name="Adieresis" unicode="&#xc4;" horiz-adv-x="817" 
d="M72 127l215 1266h243l215 -1266v-127h-120v109l-33 208q-90 -18 -186 -18t-185 18l-33 -208v-109h-116v127zM406 410q89 0 168 18l-80 500q-18 115 -33.5 221t-20.5 143h-65l-56 -364l-80 -501q82 -17 167 -17zM215 1585v53q4 27 22.5 42.5t53.5 15.5t54 -16t22 -42v-53
q-3 -26 -22 -41.5t-54 -15.5q-67 0 -76 57zM471 1543.5q-19 15.5 -22 41.5v53q3 26 22 42t54 16t53.5 -16t21.5 -42v-53q-3 -26 -21.5 -41.5t-53.5 -15.5t-54 15.5z" />
    <glyph glyph-name="Aring" unicode="&#xc5;" horiz-adv-x="817" 
d="M72 127l207 1221q-21 19 -32.5 42.5t-15.5 43.5v94q5 27 22.5 56t55 51t97.5 22h4q59 0 97 -22t55.5 -51.5t21.5 -55.5v-94q-3 -19 -14 -42.5t-32 -42.5l207 -1222v-127h-120v109l-33 208q-90 -18 -186 -18t-185 18l-33 -208v-109h-116v127zM406 1393h4q42 0 59 18t23 43
v53q-6 25 -23 43.5t-59 18.5h-4q-70 0 -82 -62v-53q12 -61 82 -61zM406 410q89 0 168 18l-80 500q-18 115 -33.5 221t-20.5 143h-65l-56 -364l-80 -501q82 -17 167 -17z" />
    <glyph glyph-name="AE" unicode="&#xc6;" horiz-adv-x="1100" 
d="M72 127l215 1266h755l-18 -107h-389v-528h338v-107h-338v-545h395v-106h-516v305q-54 -6 -108 -6q-96 0 -185 18l-33 -208v-109h-116v127zM406 410q47 0 108 7v871h-139l-56 -360l-80 -501q82 -17 167 -17z" />
    <glyph glyph-name="Ccedilla" unicode="&#xc7;" horiz-adv-x="817" 
d="M743 985h-116v191q-17 51 -61 91t-134 40h-4q-90 0 -136 -42.5t-56 -93.5v-950q6 -30 26.5 -60.5t62 -52.5t103.5 -22h4q90 0 134 40t61 91v191h116v-211q-19 -68 -74 -130.5t-173 -78.5q-2 -77 -25 -146t-61 -123h-89v78q26 37 42.5 87.5t17.5 101.5q-89 9 -146 47.5
t-84.5 86.5t-35.5 93v967q9 48 40.5 100t99 90.5t173.5 38.5h4q151 0 220 -67t91 -146v-211z" />
    <glyph glyph-name="Egrave" unicode="&#xc8;" horiz-adv-x="717" 
d="M131 1393h528l-18 -107h-389v-528h338v-107h-338v-545h395v-106h-516v1393zM453 1495h-107l-158 145v89h99z" />
    <glyph glyph-name="Eacute" unicode="&#xc9;" horiz-adv-x="717" 
d="M131 1393h528l-18 -107h-389v-528h338v-107h-338v-545h395v-106h-516v1393zM598 1729v-89l-158 -145h-107l166 234h99z" />
    <glyph glyph-name="Ecircumflex" unicode="&#xca;" horiz-adv-x="717" 
d="M131 1393h528l-18 -107h-389v-528h338v-107h-338v-545h395v-106h-516v1393zM194 1571l148 158h102l148 -158v-76h-68l-53 59l-76 86h-4l-76 -86l-53 -59h-68v76z" />
    <glyph glyph-name="Edieresis" unicode="&#xcb;" horiz-adv-x="717" 
d="M131 1393h528l-18 -107h-389v-528h338v-107h-338v-545h395v-106h-516v1393zM200 1585v53q4 27 22.5 42.5t53.5 15.5t54 -16t22 -42v-53q-3 -26 -22 -41.5t-54 -15.5q-67 0 -76 57zM456 1543.5q-19 15.5 -22 41.5v53q3 26 22 42t54 16t53.5 -16t21.5 -42v-53
q-3 -26 -21.5 -41.5t-53.5 -15.5t-54 15.5z" />
    <glyph glyph-name="Igrave" unicode="&#xcc;" horiz-adv-x="383" 
d="M252 1393v-1393h-121v1393h121zM250 1495h-107l-158 145v89h99z" />
    <glyph glyph-name="Iacute" unicode="&#xcd;" horiz-adv-x="383" 
d="M252 1393v-1393h-121v1393h121zM395 1729v-89l-158 -145h-107l166 234h99z" />
    <glyph glyph-name="Icircumflex" unicode="&#xce;" horiz-adv-x="383" 
d="M252 1393v-1393h-121v1393h121zM-9 1571l148 158h102l148 -158v-76h-68l-53 59l-76 86h-4l-76 -86l-53 -59h-68v76z" />
    <glyph glyph-name="Idieresis" unicode="&#xcf;" horiz-adv-x="383" 
d="M252 1393v-1393h-121v1393h121zM-3 1585v53q4 27 22.5 42.5t53.5 15.5t54 -16t22 -42v-53q-3 -26 -22 -41.5t-54 -15.5q-67 0 -76 57zM253 1543.5q-19 15.5 -22 41.5v53q3 26 22 42t54 16t53.5 -16t21.5 -42v-53q-3 -26 -21.5 -41.5t-53.5 -15.5t-54 15.5z" />
    <glyph glyph-name="Eth" unicode="&#xd0;" horiz-adv-x="883" 
d="M685.5 1321.5q66.5 -71.5 82.5 -168.5v-913q-16 -97 -82.5 -168.5t-239.5 -71.5h-315v643h-101v107h101v643h315q173 0 239.5 -71.5zM451 1286h-199v-536h157v-107h-157v-537h199q175 0 196 144v893q-21 143 -196 143z" />
    <glyph glyph-name="Ntilde" unicode="&#xd1;" horiz-adv-x="889" 
d="M131 1393h182l254 -789q31 -97 56 -191.5t39 -150.5h4q-2 34 -8.5 163.5t-12.5 330.5t-6 409v228h119v-1393h-121v55l-399 1241h-2q4 -82 9 -220t5 -294v-782h-119v1393zM261.5 1667.5q30.5 18.5 73.5 18.5q28 0 51.5 -6t67.5 -21q34 -12 52 -16.5t34 -4.5q30 0 37 23v20
h94v-77q-14 -31 -45 -49.5t-74 -18.5q-28 0 -52.5 6t-65.5 21q-36 12 -53.5 16t-32.5 4q-31 0 -37 -22v-21h-95v78q15 31 45.5 49.5z" />
    <glyph glyph-name="Ograve" unicode="&#xd2;" horiz-adv-x="905" 
d="M159 1280.5q34 51.5 106 90t186 38.5h4q113 0 185 -38.5t106 -90t45 -100.5v-967q-11 -50 -45 -101t-106 -89.5t-185 -38.5h-4q-114 0 -186 38.5t-106 90t-44 100.5v967q10 49 44 100.5zM299 128.5q51 -42.5 152 -42.5h4q100 0 151 42t64 93v950q-13 51 -64 93.5
t-151 42.5h-4q-101 0 -152 -42.5t-63 -93.5v-950q12 -50 63 -92.5zM513 1495h-107l-158 145v89h99z" />
    <glyph glyph-name="Oacute" unicode="&#xd3;" horiz-adv-x="905" 
d="M159 1280.5q34 51.5 106 90t186 38.5h4q113 0 185 -38.5t106 -90t45 -100.5v-967q-11 -50 -45 -101t-106 -89.5t-185 -38.5h-4q-114 0 -186 38.5t-106 90t-44 100.5v967q10 49 44 100.5zM299 128.5q51 -42.5 152 -42.5h4q100 0 151 42t64 93v950q-13 51 -64 93.5
t-151 42.5h-4q-101 0 -152 -42.5t-63 -93.5v-950q12 -50 63 -92.5zM658 1729v-89l-158 -145h-107l166 234h99z" />
    <glyph glyph-name="Ocircumflex" unicode="&#xd4;" horiz-adv-x="905" 
d="M159 1280.5q34 51.5 106 90t186 38.5h4q113 0 185 -38.5t106 -90t45 -100.5v-967q-11 -50 -45 -101t-106 -89.5t-185 -38.5h-4q-114 0 -186 38.5t-106 90t-44 100.5v967q10 49 44 100.5zM299 128.5q51 -42.5 152 -42.5h4q100 0 151 42t64 93v950q-13 51 -64 93.5
t-151 42.5h-4q-101 0 -152 -42.5t-63 -93.5v-950q12 -50 63 -92.5zM254 1571l148 158h102l148 -158v-76h-68l-53 59l-76 86h-4l-76 -86l-53 -59h-68v76z" />
    <glyph glyph-name="Otilde" unicode="&#xd5;" horiz-adv-x="905" 
d="M159 1280.5q34 51.5 106 90t186 38.5h4q113 0 185 -38.5t106 -90t45 -100.5v-967q-11 -50 -45 -101t-106 -89.5t-185 -38.5h-4q-114 0 -186 38.5t-106 90t-44 100.5v967q10 49 44 100.5zM299 128.5q51 -42.5 152 -42.5h4q100 0 151 42t64 93v950q-13 51 -64 93.5
t-151 42.5h-4q-101 0 -152 -42.5t-63 -93.5v-950q12 -50 63 -92.5zM270.5 1667.5q30.5 18.5 73.5 18.5q28 0 51.5 -6t67.5 -21q34 -12 52 -16.5t34 -4.5q30 0 37 23v20h94v-77q-14 -31 -45 -49.5t-74 -18.5q-28 0 -52.5 6t-65.5 21q-36 12 -53.5 16t-32.5 4q-31 0 -37 -22
v-21h-95v78q15 31 45.5 49.5z" />
    <glyph glyph-name="Odieresis" unicode="&#xd6;" horiz-adv-x="905" 
d="M159 1280.5q34 51.5 106 90t186 38.5h4q113 0 185 -38.5t106 -90t45 -100.5v-967q-11 -50 -45 -101t-106 -89.5t-185 -38.5h-4q-114 0 -186 38.5t-106 90t-44 100.5v967q10 49 44 100.5zM299 128.5q51 -42.5 152 -42.5h4q100 0 151 42t64 93v950q-13 51 -64 93.5
t-151 42.5h-4q-101 0 -152 -42.5t-63 -93.5v-950q12 -50 63 -92.5zM260 1585v53q4 27 22.5 42.5t53.5 15.5t54 -16t22 -42v-53q-3 -26 -22 -41.5t-54 -15.5q-67 0 -76 57zM516 1543.5q-19 15.5 -22 41.5v53q3 26 22 42t54 16t53.5 -16t21.5 -42v-53q-3 -26 -21.5 -41.5
t-53.5 -15.5t-54 15.5z" />
    <glyph glyph-name="multiply" unicode="&#xd7;" horiz-adv-x="901" 
d="M377 543l-240 239l72 74l242 -241l241 241l72 -74l-240 -239l240 -240l-72 -74l-241 241l-242 -241l-72 74z" />
    <glyph glyph-name="Oslash" unicode="&#xd8;" horiz-adv-x="905" 
d="M791 1497v-78l-54 -126q39 -51 54 -113v-967q-11 -50 -45 -101t-106 -89.5t-185 -38.5h-4q-116 0 -197 44l-55 -132h-84v77l53 127q-41 53 -53 113v967q10 49 44 100.5t106 90t186 38.5h4q115 0 196 -44l56 132h84zM610 1262q-61 45 -155 45h-4q-101 0 -152 -42.5
t-63 -93.5v-909zM451 86h4q100 0 151 42t64 93v912l-374 -1002q59 -45 155 -45z" />
    <glyph glyph-name="Ugrave" unicode="&#xd9;" horiz-adv-x="889" 
d="M248 1393v-1190q13 -47 60 -82t134 -35h4q87 0 134.5 35t60.5 82v1190h121v-1200q-18 -78 -90.5 -143.5t-225.5 -65.5h-4q-106 0 -173.5 34.5t-99.5 81.5t-42 93v1200h121zM504 1495h-107l-158 145v89h99z" />
    <glyph glyph-name="Uacute" unicode="&#xda;" horiz-adv-x="889" 
d="M248 1393v-1190q13 -47 60 -82t134 -35h4q87 0 134.5 35t60.5 82v1190h121v-1200q-18 -78 -90.5 -143.5t-225.5 -65.5h-4q-106 0 -173.5 34.5t-99.5 81.5t-42 93v1200h121zM649 1729v-89l-158 -145h-107l166 234h99z" />
    <glyph glyph-name="Ucircumflex" unicode="&#xdb;" horiz-adv-x="889" 
d="M248 1393v-1190q13 -47 60 -82t134 -35h4q87 0 134.5 35t60.5 82v1190h121v-1200q-18 -78 -90.5 -143.5t-225.5 -65.5h-4q-106 0 -173.5 34.5t-99.5 81.5t-42 93v1200h121zM245 1571l148 158h102l148 -158v-76h-68l-53 59l-76 86h-4l-76 -86l-53 -59h-68v76z" />
    <glyph glyph-name="Udieresis" unicode="&#xdc;" horiz-adv-x="889" 
d="M248 1393v-1190q13 -47 60 -82t134 -35h4q87 0 134.5 35t60.5 82v1190h121v-1200q-18 -78 -90.5 -143.5t-225.5 -65.5h-4q-106 0 -173.5 34.5t-99.5 81.5t-42 93v1200h121zM251 1585v53q4 27 22.5 42.5t53.5 15.5t54 -16t22 -42v-53q-3 -26 -22 -41.5t-54 -15.5
q-67 0 -76 57zM507 1543.5q-19 15.5 -22 41.5v53q3 26 22 42t54 16t53.5 -16t21.5 -42v-53q-3 -26 -21.5 -41.5t-53.5 -15.5t-54 15.5z" />
    <glyph glyph-name="Yacute" unicode="&#xdd;" horiz-adv-x="750" 
d="M147 1393l121 -510q33 -140 57 -245t31 -138h37q7 33 31 136.5t57 242.5l121 514h98v-80l-221 -934h-43v-379h-123v379h-43l-221 934v80h98zM580 1729v-89l-158 -145h-107l166 234h99z" />
    <glyph glyph-name="Thorn" unicode="&#xde;" horiz-adv-x="784" 
d="M252 1393v-219h164q145 0 214 -60.5t85 -146.5v-445q-11 -103 -75.5 -164.5t-152.5 -78.5h-235v-279h-121v1393h121zM252 385h211q55 15 89 46.5t42 105.5v413q-23 117 -176 117h-166v-682z" />
    <glyph glyph-name="germandbls" unicode="&#xdf;" horiz-adv-x="823" 
d="M163 1376q28 46 90.5 80.5t162.5 34.5t162 -34.5t90 -81t34 -89.5v-291q0 -104 -47.5 -160.5t-124.5 -66.5v-8q84 -12 134.5 -70.5t50.5 -159.5v-313q-12 -101 -87 -159t-206 -58h-80v104h80q84 0 130 35.5t46 93.5v279q0 66 -19 106t-53.5 61t-89.5 32h-98v104h98
q67 13 109.5 60.5t42.5 134.5v262q-7 44 -44 81.5t-128 37.5q-92 0 -128.5 -37.5t-43.5 -83.5v-1575h-115v1591q6 44 34 90z" />
    <glyph glyph-name="agrave" unicode="&#xe0;" horiz-adv-x="766" 
d="M429.5 9q-60.5 -25 -122.5 -25h-4q-66 0 -112 21.5t-70 54t-31 67.5v291q0 92 66 138t176 46h196v332q-6 25 -41.5 45t-103.5 20h-4q-62 0 -99 -13.5t-53 -31.5v-143h-114v190q29 38 98.5 69.5t171.5 31.5h4q125 0 183 -42t73 -95v-965h-86l-16 78h-6q-45 -44 -105.5 -69
zM326 88h4q54 0 105.5 23t92.5 61v326h-213q-108 0 -108 -95v-241q10 -74 119 -74zM463 1214h-107l-158 175v86h97z" />
    <glyph glyph-name="aacute" unicode="&#xe1;" horiz-adv-x="766" 
d="M429.5 9q-60.5 -25 -122.5 -25h-4q-66 0 -112 21.5t-70 54t-31 67.5v291q0 92 66 138t176 46h196v332q-6 25 -41.5 45t-103.5 20h-4q-62 0 -99 -13.5t-53 -31.5v-143h-114v190q29 38 98.5 69.5t171.5 31.5h4q125 0 183 -42t73 -95v-965h-86l-16 78h-6q-45 -44 -105.5 -69
zM326 88h4q54 0 105.5 23t92.5 61v326h-213q-108 0 -108 -95v-241q10 -74 119 -74zM572 1475v-86l-158 -175h-107l168 261h97z" />
    <glyph glyph-name="acircumflex" unicode="&#xe2;" horiz-adv-x="766" 
d="M429.5 9q-60.5 -25 -122.5 -25h-4q-66 0 -112 21.5t-70 54t-31 67.5v291q0 92 66 138t176 46h196v332q-6 25 -41.5 45t-103.5 20h-4q-62 0 -99 -13.5t-53 -31.5v-143h-114v190q29 38 98.5 69.5t171.5 31.5h4q125 0 183 -42t73 -95v-965h-86l-16 78h-6q-45 -44 -105.5 -69
zM326 88h4q54 0 105.5 23t92.5 61v326h-213q-108 0 -108 -95v-241q10 -74 119 -74zM186 1272l148 203h102l148 -203v-58h-76l-61 82q-17 23 -34.5 48t-23.5 34h-8l-57 -82l-62 -82h-76v58z" />
    <glyph glyph-name="atilde" unicode="&#xe3;" horiz-adv-x="766" 
d="M429.5 9q-60.5 -25 -122.5 -25h-4q-66 0 -112 21.5t-70 54t-31 67.5v291q0 92 66 138t176 46h196v332q-6 25 -41.5 45t-103.5 20h-4q-62 0 -99 -13.5t-53 -31.5v-143h-114v190q29 38 98.5 69.5t171.5 31.5h4q125 0 183 -42t73 -95v-965h-86l-16 78h-6q-45 -44 -105.5 -69
zM326 88h4q54 0 105.5 23t92.5 61v326h-213q-108 0 -108 -95v-241q10 -74 119 -74zM202.5 1399q30.5 18 73.5 18q28 0 52.5 -6t66.5 -20q34 -12 52 -16.5t34 -4.5q31 0 37 23v20h94v-78q-14 -31 -45 -49t-74 -18q-28 0 -52 6t-66 20q-35 12 -53 16.5t-33 4.5q-31 0 -37 -23
v-20h-95v78q15 31 45.5 49z" />
    <glyph glyph-name="adieresis" unicode="&#xe4;" horiz-adv-x="766" 
d="M429.5 9q-60.5 -25 -122.5 -25h-4q-66 0 -112 21.5t-70 54t-31 67.5v291q0 92 66 138t176 46h196v332q-6 25 -41.5 45t-103.5 20h-4q-62 0 -99 -13.5t-53 -31.5v-143h-114v190q29 38 98.5 69.5t171.5 31.5h4q125 0 183 -42t73 -95v-965h-86l-16 78h-6q-45 -44 -105.5 -69
zM326 88h4q54 0 105.5 23t92.5 61v326h-213q-108 0 -108 -95v-241q10 -74 119 -74zM192 1317v53q9 57 76 57q35 0 54 -15.5t22 -41.5v-53q-3 -26 -22 -41.5t-54 -15.5q-67 0 -76 57zM448 1275.5q-19 15.5 -22 41.5v53q3 26 22 41.5t54 15.5t53.5 -15.5t21.5 -41.5v-53
q-3 -26 -21.5 -41.5t-53.5 -15.5t-54 15.5z" />
    <glyph glyph-name="aring" unicode="&#xe5;" horiz-adv-x="766" 
d="M429.5 9q-60.5 -25 -122.5 -25h-4q-66 0 -112 21.5t-70 54t-31 67.5v291q0 92 66 138t176 46h196v332q-6 25 -41.5 45t-103.5 20h-4q-62 0 -99 -13.5t-53 -31.5v-143h-114v190q29 38 98.5 69.5t171.5 31.5h4q125 0 183 -42t73 -95v-965h-86l-16 78h-6q-45 -44 -105.5 -69
zM326 88h4q54 0 105.5 23t92.5 61v326h-213q-108 0 -108 -95v-241q10 -74 119 -74zM230.5 1485.5q17.5 29.5 55.5 51.5t97 22h4q59 0 97 -22t55.5 -51.5t21.5 -55.5v-95q-4 -26 -21.5 -55.5t-55.5 -51.5t-97 -22h-4q-60 0 -97.5 22t-55 51t-22.5 56v95q5 26 22.5 55.5z
M383 1294h4q42 0 59 18.5t23 43.5v53q-6 25 -23 43t-59 18h-4q-70 0 -82 -61v-53q12 -62 82 -62z" />
    <glyph glyph-name="ae" unicode="&#xe6;" horiz-adv-x="1188" 
d="M211.5 1070.5q69.5 31.5 171.5 31.5h4q147 0 215 -68q77 68 207 68h4q99 0 160 -34.5t88 -81t33 -89.5v-403h-451v-291q7 -45 43 -82t125 -37h4q62 0 100 17.5t52 39.5v119h114v-160q-29 -51 -99.5 -83.5t-166.5 -32.5h-4q-174 0 -249 115q-55 -55 -122.5 -85t-132.5 -30
h-4q-66 0 -112 21.5t-70 54t-31 67.5v287q0 92 66 138t176 46h196v336q-6 25 -41.5 45t-103.5 20h-4q-62 0 -99 -13.5t-53 -31.5v-143h-114v190q29 38 98.5 69.5zM326 88h4q51 0 103 27.5t95 73.5v305h-213q-108 0 -108 -95v-237q10 -74 119 -74zM979 598v285q-7 44 -43 81
t-123 37h-4q-87 0 -123 -37t-43 -81v-285h336z" />
    <glyph glyph-name="ccedilla" unicode="&#xe7;" horiz-adv-x="723" 
d="M647 811h-115v137q-12 21 -49 37t-94 16h-4q-144 0 -162 -112v-692q18 -113 162 -113h4q56 0 93.5 16t49.5 37v137h115v-182q-23 -38 -72 -65.5t-114 -37.5q-2 -77 -25 -146.5t-61 -123.5h-89v78q26 37 42.5 87t17.5 102q-82 8 -134 41.5t-75.5 74.5t-27.5 78v725
q5 42 32.5 86.5t89.5 77.5t162 33h4q88 0 154.5 -30.5t95.5 -78.5v-182z" />
    <glyph glyph-name="egrave" unicode="&#xe8;" horiz-adv-x="768" 
d="M109 897q6 44 33.5 90t88 80.5t158.5 34.5h4q99 0 160 -34.5t88.5 -81t32.5 -89.5v-403h-451v-291q7 -45 43 -82t125 -37h4q62 0 100 17.5t52 39.5v119h115v-160q-29 -51 -100 -83.5t-167 -32.5h-4q-99 0 -160 34.5t-88.5 80.5t-33.5 89v709zM559 598v285q-7 44 -43 81
t-123 37h-4q-87 0 -123 -37t-43 -81v-285h336zM469 1214h-107l-158 175v86h97z" />
    <glyph glyph-name="eacute" unicode="&#xe9;" horiz-adv-x="768" 
d="M109 897q6 44 33.5 90t88 80.5t158.5 34.5h4q99 0 160 -34.5t88.5 -81t32.5 -89.5v-403h-451v-291q7 -45 43 -82t125 -37h4q62 0 100 17.5t52 39.5v119h115v-160q-29 -51 -100 -83.5t-167 -32.5h-4q-99 0 -160 34.5t-88.5 80.5t-33.5 89v709zM559 598v285q-7 44 -43 81
t-123 37h-4q-87 0 -123 -37t-43 -81v-285h336zM578 1475v-86l-158 -175h-107l168 261h97z" />
    <glyph glyph-name="ecircumflex" unicode="&#xea;" horiz-adv-x="768" 
d="M109 897q6 44 33.5 90t88 80.5t158.5 34.5h4q99 0 160 -34.5t88.5 -81t32.5 -89.5v-403h-451v-291q7 -45 43 -82t125 -37h4q62 0 100 17.5t52 39.5v119h115v-160q-29 -51 -100 -83.5t-167 -32.5h-4q-99 0 -160 34.5t-88.5 80.5t-33.5 89v709zM559 598v285q-7 44 -43 81
t-123 37h-4q-87 0 -123 -37t-43 -81v-285h336zM192 1272l148 203h102l148 -203v-58h-76l-61 82q-17 23 -34.5 48t-23.5 34h-8l-57 -82l-62 -82h-76v58z" />
    <glyph glyph-name="edieresis" unicode="&#xeb;" horiz-adv-x="768" 
d="M109 897q6 44 33.5 90t88 80.5t158.5 34.5h4q99 0 160 -34.5t88.5 -81t32.5 -89.5v-403h-451v-291q7 -45 43 -82t125 -37h4q62 0 100 17.5t52 39.5v119h115v-160q-29 -51 -100 -83.5t-167 -32.5h-4q-99 0 -160 34.5t-88.5 80.5t-33.5 89v709zM559 598v285q-7 44 -43 81
t-123 37h-4q-87 0 -123 -37t-43 -81v-285h336zM198 1317v53q9 57 76 57q35 0 54 -15.5t22 -41.5v-53q-3 -26 -22 -41.5t-54 -15.5q-67 0 -76 57zM454 1275.5q-19 15.5 -22 41.5v53q3 26 22 41.5t54 15.5t53.5 -15.5t21.5 -41.5v-53q-3 -26 -21.5 -41.5t-53.5 -15.5t-54 15.5
z" />
    <glyph glyph-name="igrave" unicode="&#xec;" horiz-adv-x="373" 
d="M129 1085h115v-1085h-115v1085zM250 1214h-107l-127 175v86h97z" />
    <glyph glyph-name="iacute" unicode="&#xed;" horiz-adv-x="373" 
d="M129 1085h115v-1085h-115v1085zM356 1475v-86l-127 -175h-107l138 261h96z" />
    <glyph glyph-name="icircumflex" unicode="&#xee;" horiz-adv-x="373" 
d="M129 1085h115v-1085h-115v1085zM-3 1272l138 203h102l137 -203v-58h-76l-108 164h-8l-109 -164h-76v58z" />
    <glyph glyph-name="idieresis" unicode="&#xef;" horiz-adv-x="373" 
d="M129 1085h115v-1085h-115v1085zM1 1317v53q9 57 76 57q35 0 54 -15.5t22 -41.5v-53q-3 -26 -22 -41.5t-54 -15.5q-67 0 -76 57zM240.5 1275.5q-18.5 15.5 -21.5 41.5v53q3 26 21.5 41.5t53.5 15.5t54 -15.5t22 -41.5v-53q-3 -26 -22 -41.5t-54 -15.5t-53.5 15.5z" />
    <glyph glyph-name="eth" unicode="&#xf0;" horiz-adv-x="803" 
d="M309 1194v78l126 80q-27 27 -54 45v78h76q31 -24 68 -65l102 65h67v-80l-107 -68q50 -79 78.5 -175t28.5 -206v-758q-6 -43 -34.5 -89t-91.5 -80.5t-165 -34.5h-4q-101 0 -164 34.5t-91.5 80.5t-34.5 89v693q6 42 35 88.5t89 81t152 34.5h4q66 0 116.5 -20t76.5 -57h4
q-18 153 -87 263l-122 -77h-68zM268.5 121.5q38.5 -37.5 130.5 -37.5h4q93 0 131 37.5t46 81.5v661q-8 46 -46 83.5t-131 37.5h-4q-92 0 -130.5 -37.5t-45.5 -81.5v-663q7 -44 45.5 -81.5z" />
    <glyph glyph-name="ntilde" unicode="&#xf1;" horiz-adv-x="813" 
d="M129 1085h82l22 -86h7q43 46 104 73.5t129 27.5h4q104 0 151.5 -41t61.5 -90v-969h-115v934q-21 63 -124 63h-5q-62 0 -114.5 -29.5t-87.5 -74.5v-893h-115v1085zM227.5 1399q30.5 18 73.5 18q28 0 52.5 -6t66.5 -20q34 -12 52 -16.5t34 -4.5q31 0 37 23v20h94v-78
q-14 -31 -45 -49t-74 -18q-28 0 -52 6t-66 20q-35 12 -53 16.5t-33 4.5q-31 0 -37 -23v-20h-95v78q15 31 45.5 49z" />
    <glyph glyph-name="ograve" unicode="&#xf2;" horiz-adv-x="803" 
d="M143.5 987q28.5 46 91.5 80.5t164 34.5h4q102 0 165 -34.5t91.5 -80.5t34.5 -90v-709q-6 -43 -34.5 -89t-91.5 -80.5t-165 -34.5h-4q-101 0 -164 34.5t-91.5 80.5t-34.5 89v709q6 44 34.5 90zM268.5 121.5q38.5 -37.5 130.5 -37.5h4q93 0 131 37.5t46 81.5v680
q-8 44 -46 81t-131 37h-4q-92 0 -130.5 -37.5t-45.5 -80.5v-680q7 -44 45.5 -81.5zM479 1214h-107l-158 175v86h97z" />
    <glyph glyph-name="oacute" unicode="&#xf3;" horiz-adv-x="803" 
d="M143.5 987q28.5 46 91.5 80.5t164 34.5h4q102 0 165 -34.5t91.5 -80.5t34.5 -90v-709q-6 -43 -34.5 -89t-91.5 -80.5t-165 -34.5h-4q-101 0 -164 34.5t-91.5 80.5t-34.5 89v709q6 44 34.5 90zM268.5 121.5q38.5 -37.5 130.5 -37.5h4q93 0 131 37.5t46 81.5v680
q-8 44 -46 81t-131 37h-4q-92 0 -130.5 -37.5t-45.5 -80.5v-680q7 -44 45.5 -81.5zM588 1475v-86l-158 -175h-107l168 261h97z" />
    <glyph glyph-name="ocircumflex" unicode="&#xf4;" horiz-adv-x="803" 
d="M143.5 987q28.5 46 91.5 80.5t164 34.5h4q102 0 165 -34.5t91.5 -80.5t34.5 -90v-709q-6 -43 -34.5 -89t-91.5 -80.5t-165 -34.5h-4q-101 0 -164 34.5t-91.5 80.5t-34.5 89v709q6 44 34.5 90zM268.5 121.5q38.5 -37.5 130.5 -37.5h4q93 0 131 37.5t46 81.5v680
q-8 44 -46 81t-131 37h-4q-92 0 -130.5 -37.5t-45.5 -80.5v-680q7 -44 45.5 -81.5zM202 1272l148 203h102l148 -203v-58h-76l-61 82q-17 23 -34.5 48t-23.5 34h-8l-57 -82l-62 -82h-76v58z" />
    <glyph glyph-name="otilde" unicode="&#xf5;" horiz-adv-x="803" 
d="M143.5 987q28.5 46 91.5 80.5t164 34.5h4q102 0 165 -34.5t91.5 -80.5t34.5 -90v-709q-6 -43 -34.5 -89t-91.5 -80.5t-165 -34.5h-4q-101 0 -164 34.5t-91.5 80.5t-34.5 89v709q6 44 34.5 90zM268.5 121.5q38.5 -37.5 130.5 -37.5h4q93 0 131 37.5t46 81.5v680
q-8 44 -46 81t-131 37h-4q-92 0 -130.5 -37.5t-45.5 -80.5v-680q7 -44 45.5 -81.5zM218.5 1399q30.5 18 73.5 18q28 0 52.5 -6t66.5 -20q34 -12 52 -16.5t34 -4.5q31 0 37 23v20h94v-78q-14 -31 -45 -49t-74 -18q-28 0 -52 6t-66 20q-35 12 -53 16.5t-33 4.5q-31 0 -37 -23
v-20h-95v78q15 31 45.5 49z" />
    <glyph glyph-name="odieresis" unicode="&#xf6;" horiz-adv-x="803" 
d="M143.5 987q28.5 46 91.5 80.5t164 34.5h4q102 0 165 -34.5t91.5 -80.5t34.5 -90v-709q-6 -43 -34.5 -89t-91.5 -80.5t-165 -34.5h-4q-101 0 -164 34.5t-91.5 80.5t-34.5 89v709q6 44 34.5 90zM268.5 121.5q38.5 -37.5 130.5 -37.5h4q93 0 131 37.5t46 81.5v680
q-8 44 -46 81t-131 37h-4q-92 0 -130.5 -37.5t-45.5 -80.5v-680q7 -44 45.5 -81.5zM208 1317v53q9 57 76 57q35 0 54 -15.5t22 -41.5v-53q-3 -26 -22 -41.5t-54 -15.5q-67 0 -76 57zM464 1275.5q-19 15.5 -22 41.5v53q3 26 22 41.5t54 15.5t53.5 -15.5t21.5 -41.5v-53
q-3 -26 -21.5 -41.5t-53.5 -15.5t-54 15.5z" />
    <glyph glyph-name="divide" unicode="&#xf7;" horiz-adv-x="901" 
d="M394.5 708q-20.5 16 -23.5 44v57q3 28 23.5 43.5t56.5 15.5q35 0 55.5 -15.5t23.5 -43.5v-57q-3 -28 -23.5 -44t-55.5 -16q-36 0 -56.5 16zM395 233q-21 16 -24 43v58q3 28 23.5 43.5t56.5 15.5q35 0 55.5 -15.5t23.5 -43.5v-58q-3 -27 -23.5 -43t-55.5 -16t-56 16z
M813 594v-102h-725v102h725z" />
    <glyph glyph-name="oslash" unicode="&#xf8;" horiz-adv-x="803" 
d="M694 1190v-78l-46 -109q20 -25 31.5 -53.5t14.5 -52.5v-709q-6 -43 -34.5 -89t-91.5 -80.5t-165 -34.5h-4q-97 0 -165 35l-52 -123h-73v77l46 110q-38 48 -46 105v709q6 44 34.5 90t91.5 80.5t164 34.5h4q98 0 166 -35l52 123h73zM525 970q-45 31 -122 31h-4
q-92 0 -130.5 -37.5t-45.5 -80.5v-655zM399 84h4q93 0 131 37.5t46 81.5v654l-302 -742q45 -31 121 -31z" />
    <glyph glyph-name="ugrave" unicode="&#xf9;" horiz-adv-x="809" 
d="M360 88h5q62 0 113 29.5t87 75.5v892h115v-1085h-82l-23 86h-6q-44 -45 -104 -72.5t-127 -27.5h-4q-102 0 -149.5 41t-61.5 90v968h115v-933q20 -64 122 -64zM479 1214h-107l-158 175v86h97z" />
    <glyph glyph-name="uacute" unicode="&#xfa;" horiz-adv-x="809" 
d="M360 88h5q62 0 113 29.5t87 75.5v892h115v-1085h-82l-23 86h-6q-44 -45 -104 -72.5t-127 -27.5h-4q-102 0 -149.5 41t-61.5 90v968h115v-933q20 -64 122 -64zM588 1475v-86l-158 -175h-107l168 261h97z" />
    <glyph glyph-name="ucircumflex" unicode="&#xfb;" horiz-adv-x="809" 
d="M360 88h5q62 0 113 29.5t87 75.5v892h115v-1085h-82l-23 86h-6q-44 -45 -104 -72.5t-127 -27.5h-4q-102 0 -149.5 41t-61.5 90v968h115v-933q20 -64 122 -64zM202 1272l148 203h102l148 -203v-58h-76l-61 82q-17 23 -34.5 48t-23.5 34h-8l-57 -82l-62 -82h-76v58z" />
    <glyph glyph-name="udieresis" unicode="&#xfc;" horiz-adv-x="809" 
d="M360 88h5q62 0 113 29.5t87 75.5v892h115v-1085h-82l-23 86h-6q-44 -45 -104 -72.5t-127 -27.5h-4q-102 0 -149.5 41t-61.5 90v968h115v-933q20 -64 122 -64zM208 1317v53q9 57 76 57q35 0 54 -15.5t22 -41.5v-53q-3 -26 -22 -41.5t-54 -15.5q-67 0 -76 57zM464 1275.5
q-19 15.5 -22 41.5v53q3 26 22 41.5t54 15.5t53.5 -15.5t21.5 -41.5v-53q-3 -26 -21.5 -41.5t-53.5 -15.5t-54 15.5z" />
    <glyph glyph-name="yacute" unicode="&#xfd;" horiz-adv-x="723" 
d="M156 1085l108 -577q34 -180 53.5 -288.5t24.5 -137.5h39q5 29 24.5 137.5t53.5 288.5l108 577h99v-79l-195 -1006l-10 -117q-14 -158 -150 -188h-147v104h102q29 3 47 12.5t29 32.5t14 66l6 90h-110l-195 1006v79h99zM547 1475v-86l-158 -175h-107l168 261h97z" />
    <glyph glyph-name="thorn" unicode="&#xfe;" horiz-adv-x="813" 
d="M347.5 19q-59.5 25 -101.5 63h-4l2 -160v-227h-115v1780h115v-310l-2 -159h4q42 39 102.5 63.5t126.5 24.5h4q71 0 120.5 -25.5t75.5 -63t30 -71.5v-780q-4 -35 -30 -72t-76 -62.5t-122 -25.5h-4q-66 0 -125.5 25zM332.5 120.5q51.5 -26.5 107.5 -26.5h4q53 0 85.5 14.5
t46 33t14.5 32.5v739q-1 14 -14.5 32.5t-44.5 33t-82 14.5h-5q-56 0 -107.5 -25t-92.5 -69v-711q37 -41 88.5 -67.5z" />
    <glyph glyph-name="ydieresis" unicode="&#xff;" horiz-adv-x="723" 
d="M156 1085l108 -577q34 -180 53.5 -288.5t24.5 -137.5h39q5 29 24.5 137.5t53.5 288.5l108 577h99v-79l-195 -1006l-10 -117q-14 -158 -150 -188h-147v104h102q29 3 47 12.5t29 32.5t14 66l6 90h-110l-195 1006v79h99zM167 1317v53q9 57 76 57q35 0 54 -15.5t22 -41.5v-53
q-3 -26 -22 -41.5t-54 -15.5q-67 0 -76 57zM423 1275.5q-19 15.5 -22 41.5v53q3 26 22 41.5t54 15.5t53.5 -15.5t21.5 -41.5v-53q-3 -26 -21.5 -41.5t-53.5 -15.5t-54 15.5z" />
    <glyph glyph-name="Amacron" unicode="&#x100;" horiz-adv-x="817" 
d="M72 127l215 1266h243l215 -1266v-127h-120v109l-33 208q-90 -18 -186 -18t-185 18l-33 -208v-109h-116v127zM406 410q89 0 168 18l-80 500q-18 115 -33.5 221t-20.5 143h-65l-56 -364l-80 -501q82 -17 167 -17zM607 1663v-104h-398v104h398z" />
    <glyph glyph-name="amacron" unicode="&#x101;" horiz-adv-x="766" 
d="M429.5 9q-60.5 -25 -122.5 -25h-4q-66 0 -112 21.5t-70 54t-31 67.5v291q0 92 66 138t176 46h196v332q-6 25 -41.5 45t-103.5 20h-4q-62 0 -99 -13.5t-53 -31.5v-143h-114v190q29 38 98.5 69.5t171.5 31.5h4q125 0 183 -42t73 -95v-965h-86l-16 78h-6q-45 -44 -105.5 -69
zM326 88h4q54 0 105.5 23t92.5 61v326h-213q-108 0 -108 -95v-241q10 -74 119 -74zM584 1395v-105h-398v105h398z" />
    <glyph glyph-name="Abreve" unicode="&#x102;" horiz-adv-x="817" 
d="M72 127l215 1266h243l215 -1266v-127h-120v109l-33 208q-90 -18 -186 -18t-185 18l-33 -208v-109h-116v127zM406 410q89 0 168 18l-80 500q-18 115 -33.5 221t-20.5 143h-65l-56 -364l-80 -501q82 -17 167 -17zM300 1729v-62q5 -29 27.5 -52.5t78.5 -23.5h4q56 0 79 23.5
t28 52.5v62h102v-87q-4 -31 -25 -65.5t-66.5 -60t-117.5 -25.5h-4q-71 0 -116.5 25.5t-67 60t-25.5 65.5v87h103z" />
    <glyph glyph-name="abreve" unicode="&#x103;" horiz-adv-x="766" 
d="M429.5 9q-60.5 -25 -122.5 -25h-4q-66 0 -112 21.5t-70 54t-31 67.5v291q0 92 66 138t176 46h196v332q-6 25 -41.5 45t-103.5 20h-4q-62 0 -99 -13.5t-53 -31.5v-143h-114v190q29 38 98.5 69.5t171.5 31.5h4q125 0 183 -42t73 -95v-965h-86l-16 78h-6q-45 -44 -105.5 -69
zM326 88h4q54 0 105.5 23t92.5 61v326h-213q-108 0 -108 -95v-241q10 -74 119 -74zM277 1458v-67q5 -29 27.5 -52.5t78.5 -23.5h4q56 0 79 23.5t28 52.5v67h102v-92q-4 -31 -25 -65.5t-66.5 -60.5t-117.5 -26h-4q-72 0 -117.5 26t-66.5 60.5t-25 65.5v92h103z" />
    <glyph glyph-name="Aogonek" unicode="&#x104;" horiz-adv-x="817" 
d="M72 127l215 1266h243l215 -1266v-127l-51 -41q-38 -30 -54 -56t-16 -53q0 -26 8.5 -41.5t28.5 -21.5h55v-92h-102q-42 11 -68.5 49.5t-26.5 95.5q0 55 28 100.5t78 87.5v81l-33 208q-90 -18 -186 -18t-185 18l-33 -208v-109h-116v127zM406 410q89 0 168 18l-80 500
q-18 115 -33.5 221t-20.5 143h-65l-56 -364l-80 -501q82 -17 167 -17z" />
    <glyph glyph-name="aogonek" unicode="&#x105;" horiz-adv-x="766" 
d="M429.5 9q-60.5 -25 -122.5 -25h-4q-66 0 -112 21.5t-70 54t-31 67.5v291q0 92 66 138t176 46h196v332q-6 25 -41.5 45t-103.5 20h-4q-62 0 -99 -13.5t-53 -31.5v-143h-114v190q29 38 98.5 69.5t171.5 31.5h4q125 0 183 -42t73 -95v-965l-51 -41q-38 -30 -54 -56t-16 -53
q0 -26 8.5 -41.5t28.5 -21.5h55v-92h-102q-42 11 -68.5 49.5t-26.5 95.5q0 56 29 102t80 89l21 18l-6 29h-6q-45 -44 -105.5 -69zM326 88h4q54 0 105.5 23t92.5 61v326h-213q-108 0 -108 -95v-241q10 -74 119 -74z" />
    <glyph glyph-name="Cacute" unicode="&#x106;" horiz-adv-x="817" 
d="M743 985h-116v191q-17 51 -61 91t-134 40h-4q-90 0 -136 -42.5t-56 -93.5v-950q6 -30 26.5 -60.5t62 -52.5t103.5 -22h4q90 0 134 40t61 91v191h116v-211q-22 -79 -91 -146t-220 -67h-4q-106 0 -173.5 38.5t-99 90t-40.5 100.5v967q9 48 40.5 100t99 90.5t173.5 38.5h4
q151 0 220 -67t91 -146v-211zM635 1729v-89l-158 -145h-107l166 234h99z" />
    <glyph glyph-name="cacute" unicode="&#x107;" horiz-adv-x="723" 
d="M647 811h-115v137q-12 21 -49 37t-94 16h-4q-144 0 -162 -112v-692q18 -113 162 -113h4q56 0 93.5 16t49.5 37v137h115v-182q-29 -48 -95.5 -78t-154.5 -30h-4q-100 0 -162 33t-89.5 77.5t-32.5 85.5v725q5 42 32.5 86.5t89.5 77.5t162 33h4q88 0 154.5 -30.5t95.5 -78.5
v-182zM582 1475v-86l-158 -175h-107l168 261h97z" />
    <glyph glyph-name="Ccircumflex" unicode="&#x108;" horiz-adv-x="817" 
d="M743 985h-116v191q-17 51 -61 91t-134 40h-4q-90 0 -136 -42.5t-56 -93.5v-950q6 -30 26.5 -60.5t62 -52.5t103.5 -22h4q90 0 134 40t61 91v191h116v-211q-22 -79 -91 -146t-220 -67h-4q-106 0 -173.5 38.5t-99 90t-40.5 100.5v967q9 48 40.5 100t99 90.5t173.5 38.5h4
q151 0 220 -67t91 -146v-211zM231 1571l148 158h102l148 -158v-76h-68l-53 59l-76 86h-4l-76 -86l-53 -59h-68v76z" />
    <glyph glyph-name="ccircumflex" unicode="&#x109;" horiz-adv-x="723" 
d="M647 811h-115v137q-12 21 -49 37t-94 16h-4q-144 0 -162 -112v-692q18 -113 162 -113h4q56 0 93.5 16t49.5 37v137h115v-182q-29 -48 -95.5 -78t-154.5 -30h-4q-100 0 -162 33t-89.5 77.5t-32.5 85.5v725q5 42 32.5 86.5t89.5 77.5t162 33h4q88 0 154.5 -30.5t95.5 -78.5
v-182zM196 1272l148 203h102l148 -203v-58h-76l-61 82q-17 23 -34.5 48t-23.5 34h-8l-57 -82l-62 -82h-76v58z" />
    <glyph glyph-name="Cdotaccent" unicode="&#x10a;" horiz-adv-x="817" 
d="M743 985h-116v191q-17 51 -61 91t-134 40h-4q-90 0 -136 -42.5t-56 -93.5v-950q6 -30 26.5 -60.5t62 -52.5t103.5 -22h4q90 0 134 40t61 91v191h116v-211q-22 -79 -91 -146t-220 -67h-4q-106 0 -173.5 38.5t-99 90t-40.5 100.5v967q9 48 40.5 100t99 90.5t173.5 38.5h4
q151 0 220 -67t91 -146v-211zM354 1585v53q4 27 22.5 42.5t53.5 15.5t54 -16t22 -42v-53q-3 -26 -22 -41.5t-54 -15.5q-67 0 -76 57z" />
    <glyph glyph-name="cdotaccent" unicode="&#x10b;" horiz-adv-x="723" 
d="M647 811h-115v137q-12 21 -49 37t-94 16h-4q-144 0 -162 -112v-692q18 -113 162 -113h4q56 0 93.5 16t49.5 37v137h115v-182q-29 -48 -95.5 -78t-154.5 -30h-4q-100 0 -162 33t-89.5 77.5t-32.5 85.5v725q5 42 32.5 86.5t89.5 77.5t162 33h4q88 0 154.5 -30.5t95.5 -78.5
v-182zM319 1317v53q9 57 76 57q35 0 54 -15.5t22 -41.5v-53q-3 -26 -22 -41.5t-54 -15.5q-67 0 -76 57z" />
    <glyph glyph-name="Ccaron" unicode="&#x10c;" horiz-adv-x="817" 
d="M743 985h-116v191q-17 51 -61 91t-134 40h-4q-90 0 -136 -42.5t-56 -93.5v-950q6 -30 26.5 -60.5t62 -52.5t103.5 -22h4q90 0 134 40t61 91v191h116v-211q-22 -79 -91 -146t-220 -67h-4q-106 0 -173.5 38.5t-99 90t-40.5 100.5v967q9 48 40.5 100t99 90.5t173.5 38.5h4
q151 0 220 -67t91 -146v-211zM299 1729l53 -60l76 -86h4l76 86l53 60h68v-76l-148 -158h-102l-148 158v76h68z" />
    <glyph glyph-name="ccaron" unicode="&#x10d;" horiz-adv-x="723" 
d="M647 811h-115v137q-12 21 -49 37t-94 16h-4q-144 0 -162 -112v-692q18 -113 162 -113h4q56 0 93.5 16t49.5 37v137h115v-182q-29 -48 -95.5 -78t-154.5 -30h-4q-100 0 -162 33t-89.5 77.5t-32.5 85.5v725q5 42 32.5 86.5t89.5 77.5t162 33h4q88 0 154.5 -30.5t95.5 -78.5
v-182zM594 1417l-148 -203h-102l-148 203v58h76l62 -82l57 -82h8q6 9 23.5 34t34.5 48l61 82h76v-58z" />
    <glyph glyph-name="Dcaron" unicode="&#x10e;" horiz-adv-x="883" 
d="M685.5 1321.5q66.5 -71.5 82.5 -168.5v-913q-16 -97 -82.5 -168.5t-239.5 -71.5h-315v1393h315q173 0 239.5 -71.5zM451 1286h-199v-1180h199q175 0 196 144v893q-21 143 -196 143zM305 1729l53 -60l76 -86h4l76 86l53 60h68v-76l-148 -158h-102l-148 158v76h68z" />
    <glyph glyph-name="dcaron" unicode="&#x10f;" horiz-adv-x="965" 
d="M465.5 1067q59.5 -25 101.5 -63h4l-2 159v312h115v-1475h-80l-33 80h-4q-42 -39 -102.5 -63.5t-126.5 -24.5h-4q-71 0 -120.5 25.5t-75.5 62.5t-29 72v780q3 34 29 71t76 63t122 26h4q66 0 125.5 -25zM237.5 139.5q13.5 -18.5 45 -33t82.5 -14.5h4q56 0 107.5 25t92.5 69
v711q-37 41 -88.5 67.5t-107.5 26.5h-4q-53 0 -85.5 -14.5t-46 -33t-14.5 -32.5v-739q1 -14 14.5 -32.5zM839 1300q13 85 13 175h111v-91q-15 -73 -36.5 -135t-43.5 -98h-78q21 64 34 149z" />
    <glyph glyph-name="Dcroat" unicode="&#x110;" horiz-adv-x="883" 
d="M685.5 1321.5q66.5 -71.5 82.5 -168.5v-913q-16 -97 -82.5 -168.5t-239.5 -71.5h-315v643h-101v107h101v643h315q173 0 239.5 -71.5zM451 1286h-199v-536h157v-107h-157v-537h199q175 0 196 144v893q-21 143 -196 143z" />
    <glyph glyph-name="dcroat" unicode="&#x111;" horiz-adv-x="813" 
d="M465.5 1067q59.5 -25 101.5 -63h4l-2 159v33h-196v98h196v181h115v-181h103v-98h-103v-1196h-80l-33 80h-4q-42 -39 -102.5 -63.5t-126.5 -24.5h-4q-71 0 -120.5 25.5t-75.5 62.5t-29 72v780q3 34 29 71t76 63t122 26h4q66 0 125.5 -25zM237.5 139.5q13.5 -18.5 45 -33
t82.5 -14.5h4q56 0 107.5 25t92.5 69v711q-37 41 -88.5 67.5t-107.5 26.5h-4q-53 0 -85.5 -14.5t-46 -33t-14.5 -32.5v-739q1 -14 14.5 -32.5z" />
    <glyph glyph-name="Emacron" unicode="&#x112;" horiz-adv-x="717" 
d="M131 1393h528l-18 -107h-389v-528h338v-107h-338v-545h395v-106h-516v1393zM592 1663v-104h-398v104h398z" />
    <glyph glyph-name="emacron" unicode="&#x113;" horiz-adv-x="768" 
d="M109 897q6 44 33.5 90t88 80.5t158.5 34.5h4q99 0 160 -34.5t88.5 -81t32.5 -89.5v-403h-451v-291q7 -45 43 -82t125 -37h4q62 0 100 17.5t52 39.5v119h115v-160q-29 -51 -100 -83.5t-167 -32.5h-4q-99 0 -160 34.5t-88.5 80.5t-33.5 89v709zM559 598v285q-7 44 -43 81
t-123 37h-4q-87 0 -123 -37t-43 -81v-285h336zM590 1395v-105h-398v105h398z" />
    <glyph glyph-name="Ebreve" unicode="&#x114;" horiz-adv-x="717" 
d="M131 1393h528l-18 -107h-389v-528h338v-107h-338v-545h395v-106h-516v1393zM285 1729v-62q5 -29 27.5 -52.5t78.5 -23.5h4q56 0 79 23.5t28 52.5v62h102v-87q-4 -31 -25 -65.5t-66.5 -60t-117.5 -25.5h-4q-71 0 -116.5 25.5t-67 60t-25.5 65.5v87h103z" />
    <glyph glyph-name="ebreve" unicode="&#x115;" horiz-adv-x="768" 
d="M109 897q6 44 33.5 90t88 80.5t158.5 34.5h4q99 0 160 -34.5t88.5 -81t32.5 -89.5v-403h-451v-291q7 -45 43 -82t125 -37h4q62 0 100 17.5t52 39.5v119h115v-160q-29 -51 -100 -83.5t-167 -32.5h-4q-99 0 -160 34.5t-88.5 80.5t-33.5 89v709zM559 598v285q-7 44 -43 81
t-123 37h-4q-87 0 -123 -37t-43 -81v-285h336zM283 1458v-67q5 -29 27.5 -52.5t78.5 -23.5h4q56 0 79 23.5t28 52.5v67h102v-92q-4 -31 -25 -65.5t-66.5 -60.5t-117.5 -26h-4q-72 0 -117.5 26t-66.5 60.5t-25 65.5v92h103z" />
    <glyph glyph-name="Edotaccent" unicode="&#x116;" horiz-adv-x="717" 
d="M131 1393h528l-18 -107h-389v-528h338v-107h-338v-545h395v-106h-516v1393zM317 1585v53q4 27 22.5 42.5t53.5 15.5t54 -16t22 -42v-53q-3 -26 -22 -41.5t-54 -15.5q-67 0 -76 57z" />
    <glyph glyph-name="edotaccent" unicode="&#x117;" horiz-adv-x="768" 
d="M109 897q6 44 33.5 90t88 80.5t158.5 34.5h4q99 0 160 -34.5t88.5 -81t32.5 -89.5v-403h-451v-291q7 -45 43 -82t125 -37h4q62 0 100 17.5t52 39.5v119h115v-160q-29 -51 -100 -83.5t-167 -32.5h-4q-99 0 -160 34.5t-88.5 80.5t-33.5 89v709zM559 598v285q-7 44 -43 81
t-123 37h-4q-87 0 -123 -37t-43 -81v-285h336zM315 1317v53q9 57 76 57q35 0 54 -15.5t22 -41.5v-53q-3 -26 -22 -41.5t-54 -15.5q-67 0 -76 57z" />
    <glyph glyph-name="Eogonek" unicode="&#x118;" horiz-adv-x="717" 
d="M131 1393h528l-18 -107h-389v-528h338v-107h-338v-545h395v-106l-51 -41q-38 -30 -54 -56t-16 -53q0 -26 8.5 -41.5t28.5 -21.5h55v-92h-102q-42 11 -68.5 49.5t-26.5 95.5q0 85 75 160h-365v1393z" />
    <glyph glyph-name="eogonek" unicode="&#x119;" horiz-adv-x="768" 
d="M411 -97q-16 -26 -16 -53q0 -26 8.5 -41.5t28.5 -21.5h55v-92h-102q-42 11 -68.5 49.5t-26.5 95.5q0 77 61 146q-84 7 -136.5 41.5t-76 77.5t-29.5 83v709q6 44 33.5 90t88 80.5t158.5 34.5h4q99 0 160 -34.5t88.5 -81t32.5 -89.5v-403h-451v-291q7 -45 43 -82t125 -37h4
q62 0 100 17.5t52 39.5v119h115v-160q-19 -33 -56.5 -59t-89.5 -41l-51 -41q-38 -30 -54 -56zM559 598v285q-7 44 -43 81t-123 37h-4q-87 0 -123 -37t-43 -81v-285h336z" />
    <glyph glyph-name="Ecaron" unicode="&#x11a;" horiz-adv-x="717" 
d="M131 1393h528l-18 -107h-389v-528h338v-107h-338v-545h395v-106h-516v1393zM262 1729l53 -60l76 -86h4l76 86l53 60h68v-76l-148 -158h-102l-148 158v76h68z" />
    <glyph glyph-name="ecaron" unicode="&#x11b;" horiz-adv-x="768" 
d="M109 897q6 44 33.5 90t88 80.5t158.5 34.5h4q99 0 160 -34.5t88.5 -81t32.5 -89.5v-403h-451v-291q7 -45 43 -82t125 -37h4q62 0 100 17.5t52 39.5v119h115v-160q-29 -51 -100 -83.5t-167 -32.5h-4q-99 0 -160 34.5t-88.5 80.5t-33.5 89v709zM559 598v285q-7 44 -43 81
t-123 37h-4q-87 0 -123 -37t-43 -81v-285h336zM590 1417l-148 -203h-102l-148 203v58h76l62 -82l57 -82h8q6 9 23.5 34t34.5 48l61 82h76v-58z" />
    <glyph glyph-name="Gcircumflex" unicode="&#x11c;" horiz-adv-x="855" 
d="M743 985h-116v191q-17 51 -61 91t-134 40h-4q-90 0 -136 -42.5t-56 -93.5v-954q10 -47 55.5 -87t132.5 -40q50 0 102.5 24.5t98.5 67.5v471h-211v105h329v-758h-92l-22 72h-4q-43 -40 -100.5 -62t-121.5 -22q-98 0 -160 37t-91 87t-37 97v971q9 48 40.5 100t99 90.5
t173.5 38.5h4q151 0 220 -67t91 -146v-211zM230 1571l148 158h102l148 -158v-76h-68l-53 59l-76 86h-4l-76 -86l-53 -59h-68v76z" />
    <glyph glyph-name="gcircumflex" unicode="&#x11d;" horiz-adv-x="743" 
d="M639 483q-6 -40 -33 -82t-84 -72t-145 -30h-115q-36 0 -65 -21t-29 -57v-4q0 -37 19.5 -57.5t74.5 -20.5h215q112 0 164.5 -45.5t52.5 -124.5v-75q0 -56 -30.5 -101t-93.5 -71.5t-156 -26.5h-97q-128 0 -186.5 45t-58.5 125v55q4 50 32 85t72 50v2q-49 12 -78 43.5
t-32 83.5v41q4 63 43 94t84 37v4q-70 40 -82 123v435q6 41 32 82.5t82.5 71.5t147.5 30h4q43 0 89 -15t73 -36h4v8q0 39 19.5 66.5t53.5 39.5h86v-106h-10q-29 0 -41 -12.5t-12 -42.5v-521zM266 427q33 -28 107 -28h4q73 0 106 28t41 67v413q-8 38 -41.5 66t-105.5 28h-4
q-74 0 -107 -28t-41 -66v-413q8 -39 41 -67zM562.5 9q-14.5 17 -40 22.5t-69.5 5.5h-146q-58 0 -93.5 -32.5t-35.5 -90.5v-14q0 -63 39 -85t119 -22h70q93 0 133.5 25.5t40.5 81.5v57q-3 35 -17.5 52zM176 1272l148 203h102l148 -203v-58h-76l-61 82q-17 23 -34.5 48
t-23.5 34h-8l-57 -82l-62 -82h-76v58z" />
    <glyph glyph-name="Gbreve" unicode="&#x11e;" horiz-adv-x="855" 
d="M743 985h-116v191q-17 51 -61 91t-134 40h-4q-90 0 -136 -42.5t-56 -93.5v-954q10 -47 55.5 -87t132.5 -40q50 0 102.5 24.5t98.5 67.5v471h-211v105h329v-758h-92l-22 72h-4q-43 -40 -100.5 -62t-121.5 -22q-98 0 -160 37t-91 87t-37 97v971q9 48 40.5 100t99 90.5
t173.5 38.5h4q151 0 220 -67t91 -146v-211zM321 1729v-62q5 -29 27.5 -52.5t78.5 -23.5h4q56 0 79 23.5t28 52.5v62h102v-87q-4 -31 -25 -65.5t-66.5 -60t-117.5 -25.5h-4q-71 0 -116.5 25.5t-67 60t-25.5 65.5v87h103z" />
    <glyph glyph-name="gbreve" unicode="&#x11f;" horiz-adv-x="743" 
d="M639 483q-6 -40 -33 -82t-84 -72t-145 -30h-115q-36 0 -65 -21t-29 -57v-4q0 -37 19.5 -57.5t74.5 -20.5h215q112 0 164.5 -45.5t52.5 -124.5v-75q0 -56 -30.5 -101t-93.5 -71.5t-156 -26.5h-97q-128 0 -186.5 45t-58.5 125v55q4 50 32 85t72 50v2q-49 12 -78 43.5
t-32 83.5v41q4 63 43 94t84 37v4q-70 40 -82 123v435q6 41 32 82.5t82.5 71.5t147.5 30h4q43 0 89 -15t73 -36h4v8q0 39 19.5 66.5t53.5 39.5h86v-106h-10q-29 0 -41 -12.5t-12 -42.5v-521zM266 427q33 -28 107 -28h4q73 0 106 28t41 67v413q-8 38 -41.5 66t-105.5 28h-4
q-74 0 -107 -28t-41 -66v-413q8 -39 41 -67zM562.5 9q-14.5 17 -40 22.5t-69.5 5.5h-146q-58 0 -93.5 -32.5t-35.5 -90.5v-14q0 -63 39 -85t119 -22h70q93 0 133.5 25.5t40.5 81.5v57q-3 35 -17.5 52zM267 1458v-67q5 -29 27.5 -52.5t78.5 -23.5h4q56 0 79 23.5t28 52.5v67
h102v-92q-4 -31 -25 -65.5t-66.5 -60.5t-117.5 -26h-4q-72 0 -117.5 26t-66.5 60.5t-25 65.5v92h103z" />
    <glyph glyph-name="Gdotaccent" unicode="&#x120;" horiz-adv-x="855" 
d="M743 985h-116v191q-17 51 -61 91t-134 40h-4q-90 0 -136 -42.5t-56 -93.5v-954q10 -47 55.5 -87t132.5 -40q50 0 102.5 24.5t98.5 67.5v471h-211v105h329v-758h-92l-22 72h-4q-43 -40 -100.5 -62t-121.5 -22q-98 0 -160 37t-91 87t-37 97v971q9 48 40.5 100t99 90.5
t173.5 38.5h4q151 0 220 -67t91 -146v-211zM353 1585v53q4 27 22.5 42.5t53.5 15.5t54 -16t22 -42v-53q-3 -26 -22 -41.5t-54 -15.5q-67 0 -76 57z" />
    <glyph glyph-name="gdotaccent" unicode="&#x121;" horiz-adv-x="743" 
d="M639 483q-6 -40 -33 -82t-84 -72t-145 -30h-115q-36 0 -65 -21t-29 -57v-4q0 -37 19.5 -57.5t74.5 -20.5h215q112 0 164.5 -45.5t52.5 -124.5v-75q0 -56 -30.5 -101t-93.5 -71.5t-156 -26.5h-97q-128 0 -186.5 45t-58.5 125v55q4 50 32 85t72 50v2q-49 12 -78 43.5
t-32 83.5v41q4 63 43 94t84 37v4q-70 40 -82 123v435q6 41 32 82.5t82.5 71.5t147.5 30h4q43 0 89 -15t73 -36h4v8q0 39 19.5 66.5t53.5 39.5h86v-106h-10q-29 0 -41 -12.5t-12 -42.5v-521zM266 427q33 -28 107 -28h4q73 0 106 28t41 67v413q-8 38 -41.5 66t-105.5 28h-4
q-74 0 -107 -28t-41 -66v-413q8 -39 41 -67zM562.5 9q-14.5 17 -40 22.5t-69.5 5.5h-146q-58 0 -93.5 -32.5t-35.5 -90.5v-14q0 -63 39 -85t119 -22h70q93 0 133.5 25.5t40.5 81.5v57q-3 35 -17.5 52zM299 1317v53q9 57 76 57q35 0 54 -15.5t22 -41.5v-53q-3 -26 -22 -41.5
t-54 -15.5q-67 0 -76 57z" />
    <glyph glyph-name="uni0122" unicode="&#x122;" horiz-adv-x="855" 
d="M743 985h-116v191q-17 51 -61 91t-134 40h-4q-90 0 -136 -42.5t-56 -93.5v-954q10 -47 55.5 -87t132.5 -40q50 0 102.5 24.5t98.5 67.5v471h-211v105h329v-758h-92l-22 72h-4q-43 -40 -100.5 -62t-121.5 -22q-98 0 -160 37t-91 87t-37 97v971q9 48 40.5 100t99 90.5
t173.5 38.5h4q151 0 220 -67t91 -146v-211zM371 -68h114v-75q-20 -108 -61 -185h-94q41 123 41 260z" />
    <glyph glyph-name="uni0123" unicode="&#x123;" horiz-adv-x="743" 
d="M639 483q-6 -40 -33 -82t-84 -72t-145 -30h-115q-36 0 -65 -21t-29 -57v-4q0 -37 19.5 -57.5t74.5 -20.5h215q112 0 164.5 -45.5t52.5 -124.5v-75q0 -56 -30.5 -101t-93.5 -71.5t-156 -26.5h-97q-128 0 -186.5 45t-58.5 125v55q4 50 32 85t72 50v2q-49 12 -78 43.5
t-32 83.5v41q4 63 43 94t84 37v4q-70 40 -82 123v435q6 41 32 82.5t82.5 71.5t147.5 30h4q43 0 89 -15t73 -36h4v8q0 39 19.5 66.5t53.5 39.5h86v-106h-10q-29 0 -41 -12.5t-12 -42.5v-521zM266 427q33 -28 107 -28h4q73 0 106 28t41 67v413q-8 38 -41.5 66t-105.5 28h-4
q-74 0 -107 -28t-41 -66v-413q8 -39 41 -67zM562.5 9q-14.5 17 -40 22.5t-69.5 5.5h-146q-58 0 -93.5 -32.5t-35.5 -90.5v-14q0 -63 39 -85t119 -22h70q93 0 133.5 25.5t40.5 81.5v57q-3 35 -17.5 52zM387 1495h94q-22 -61 -35.5 -133.5t-13.5 -147.5h-115v84q25 127 70 197
z" />
    <glyph glyph-name="Hcircumflex" unicode="&#x124;" horiz-adv-x="889" 
d="M758 0h-121v645h-385v-645h-121v1393h121v-641h385v641h121v-1393zM245 1571l148 158h102l148 -158v-76h-68l-53 59l-76 86h-4l-76 -86l-53 -59h-68v76z" />
    <glyph glyph-name="hcircumflex" unicode="&#x125;" horiz-adv-x="813" 
d="M129 1475h115v-318q0 -72 -8 -158h4q43 46 104 73.5t129 27.5h4q104 0 151.5 -41t61.5 -90v-969h-115v934q-21 63 -124 63h-5q-62 0 -114.5 -29.5t-87.5 -74.5v-893h-115v1475zM-13 1612l148 158h102l148 -158v-76h-68l-53 59l-76 86h-4l-76 -86l-53 -59h-68v76z" />
    <glyph glyph-name="Hbar" unicode="&#x126;" horiz-adv-x="889" 
d="M758 1153h118v-106h-118v-1047h-121v645h-385v-645h-121v1047h-120v106h120v240h121v-240h385v240h121v-240zM637 752v295h-385v-295h385z" />
    <glyph glyph-name="hbar" unicode="&#x127;" horiz-adv-x="813" 
d="M129 1196h-103v98h103v181h115v-181h196v-98h-196v-39q0 -72 -8 -158h4q43 46 104 73.5t129 27.5h4q104 0 151.5 -41t61.5 -90v-969h-115v934q-21 63 -124 63h-5q-62 0 -114.5 -29.5t-87.5 -74.5v-893h-115v1196z" />
    <glyph glyph-name="Itilde" unicode="&#x128;" horiz-adv-x="383" 
d="M252 1393v-1393h-121v1393h121zM7.5 1667.5q30.5 18.5 73.5 18.5q28 0 51.5 -6t67.5 -21q34 -12 52 -16.5t34 -4.5q30 0 37 23v20h94v-77q-14 -31 -45 -49.5t-74 -18.5q-28 0 -52.5 6t-65.5 21q-36 12 -53.5 16t-32.5 4q-31 0 -37 -22v-21h-95v78q15 31 45.5 49.5z" />
    <glyph glyph-name="itilde" unicode="&#x129;" horiz-adv-x="373" 
d="M129 1085h115v-1085h-115v1085zM10.5 1398.5q29.5 18.5 70.5 18.5q27 0 50 -6t61 -20q31 -12 49 -16.5t33 -4.5q28 0 34 23v20h95v-78q-13 -30 -42.5 -48.5t-70.5 -18.5q-27 0 -50 6t-61 20q-31 12 -49 16.5t-33 4.5q-28 0 -34 -23v-20h-95v78q13 30 42.5 48.5z" />
    <glyph glyph-name="Imacron" unicode="&#x12a;" horiz-adv-x="383" 
d="M252 1393v-1393h-121v1393h121zM389 1663v-104h-398v104h398z" />
    <glyph glyph-name="imacron" unicode="&#x12b;" horiz-adv-x="373" 
d="M129 1085h115v-1085h-115v1085zM362 1395v-105h-353v105h353z" />
    <glyph glyph-name="Ibreve" unicode="&#x12c;" horiz-adv-x="383" 
d="M252 1393v-1393h-121v1393h121zM82 1729v-62q5 -29 27.5 -52.5t78.5 -23.5h4q56 0 79 23.5t28 52.5v62h102v-87q-4 -31 -25 -65.5t-66.5 -60t-117.5 -25.5h-4q-71 0 -116.5 25.5t-67 60t-25.5 65.5v87h103z" />
    <glyph glyph-name="ibreve" unicode="&#x12d;" horiz-adv-x="373" 
d="M129 1085h115v-1085h-115v1085zM88 1458v-74q13 -69 96 -69h4q83 0 96 69v74h103v-100q-4 -29 -24 -62t-63.5 -57.5t-111.5 -24.5h-4q-67 0 -110.5 24.5t-64 57.5t-24.5 62v100h103z" />
    <glyph glyph-name="Iogonek" unicode="&#x12e;" horiz-adv-x="383" 
d="M252 1393v-1393l-51 -41q-38 -30 -54 -56t-16 -53q0 -26 8.5 -41.5t28.5 -21.5h55v-92h-102q-42 11 -68.5 49.5t-26.5 95.5q0 54 27.5 99.5t77.5 88.5v1365h121z" />
    <glyph glyph-name="iogonek" unicode="&#x12f;" horiz-adv-x="373" 
d="M132.5 1414q18.5 16 53.5 16q36 0 54.5 -15.5t21.5 -42.5v-53q-3 -26 -21.5 -41.5t-54.5 -15.5q-35 0 -53.5 15.5t-21.5 41.5v53q3 26 21.5 42zM139 -97q-16 -26 -16 -53q0 -26 8.5 -41.5t28.5 -21.5h55v-92h-102q-42 11 -68.5 49.5t-26.5 95.5q0 56 29 102t80 89l2 2
v1052h115v-1085l-51 -41q-38 -30 -54 -56z" />
    <glyph glyph-name="Idotaccent" unicode="&#x130;" horiz-adv-x="383" 
d="M252 1393v-1393h-121v1393h121zM114 1585v53q4 27 22.5 42.5t53.5 15.5t54 -16t22 -42v-53q-3 -26 -22 -41.5t-54 -15.5q-67 0 -76 57z" />
    <glyph glyph-name="dotlessi" unicode="&#x131;" horiz-adv-x="373" 
d="M129 1085h115v-1085h-115v1085z" />
    <glyph glyph-name="IJ" unicode="&#x132;" horiz-adv-x="1155" 
d="M252 1393v-1393h-121v1393h121zM1030 1393v-1211q-8 -41 -36 -86t-87.5 -78.5t-152.5 -33.5h-4q-131 0 -190 58t-81 128v451h119v-431q14 -41 48 -72.5t104 -31.5h8q70 0 106.5 33t44.5 71v1098h-311v-192h-119v297h551z" />
    <glyph glyph-name="ij" unicode="&#x133;" horiz-adv-x="746" 
d="M129 1085h115v-1085h-115v1085zM132.5 1414q18.5 16 53.5 16q36 0 54.5 -15.5t21.5 -42.5v-53q-3 -26 -21.5 -41.5t-54.5 -15.5q-35 0 -53.5 15.5t-21.5 41.5v53q3 26 21.5 42zM617 1085v-1181q0 -80 -32.5 -136t-102.5 -73h-105v104h41q33 0 51 8t25.5 29.5t7.5 61.5
v1187h115zM505.5 1414q18.5 16 53.5 16q36 0 54.5 -15.5t21.5 -42.5v-53q-3 -26 -21.5 -41.5t-54.5 -15.5q-35 0 -53.5 15.5t-21.5 41.5v53q3 26 21.5 42z" />
    <glyph glyph-name="Jcircumflex" unicode="&#x134;" horiz-adv-x="772" 
d="M647 1393v-1211q-8 -41 -36 -86t-87.5 -78.5t-152.5 -33.5h-4q-131 0 -190 58t-81 128v451h119v-431q14 -41 48 -72.5t104 -31.5h8q70 0 106.5 33t44.5 71v1098h-311v-192h-119v297h551zM174 1571l148 158h102l148 -158v-76h-68l-53 59l-76 86h-4l-76 -86l-53 -59h-68v76
z" />
    <glyph glyph-name="jcircumflex" unicode="&#x135;" horiz-adv-x="373" 
d="M244 1085v-1181q0 -80 -32.5 -136t-102.5 -73h-105v104h41q33 0 51 8t25.5 29.5t7.5 61.5v1187h115zM-3 1272l138 203h102l137 -203v-58h-76l-108 164h-8l-109 -164h-76v58z" />
    <glyph glyph-name="uni0136" unicode="&#x136;" horiz-adv-x="784" 
d="M252 0h-121v1393h121v-416q0 -82 -1 -141.5t-1 -77.5h156l243 635h94v-68l-239 -616v-4l256 -637v-68h-103l-256 653h-149v-653zM394 -68h114v-75q-20 -108 -61 -185h-94q41 123 41 260z" />
    <glyph glyph-name="uni0137" unicode="&#x137;" horiz-adv-x="721" 
d="M377 504h-133v-504h-115v1475h115v-635l-2 -232h133l217 477h82v-77l-205 -447v-4l209 -481v-76h-84zM357 -68h114v-75q-20 -108 -61 -185h-94q41 123 41 260z" />
    <glyph glyph-name="kgreenlandic" unicode="&#x138;" horiz-adv-x="721" 
d="M377 504h-133v-504h-115v1085h115v-245l-2 -232h133l217 477h82v-77l-205 -447v-4l209 -481v-76h-84z" />
    <glyph glyph-name="Lacute" unicode="&#x139;" horiz-adv-x="653" 
d="M131 1393h121v-1287h375l-17 -106h-479v1393zM402 1729v-89l-158 -145h-107l166 234h99z" />
    <glyph glyph-name="lacute" unicode="&#x13a;" horiz-adv-x="375" 
d="M148.5 38.5q-19.5 30.5 -19.5 80.5v1356h115v-1334q0 -17 7.5 -27t18.5 -10h27v-104h-98q-31 8 -50.5 38.5zM391 1811v-89l-158 -145h-107l166 234h99z" />
    <glyph glyph-name="uni013B" unicode="&#x13b;" horiz-adv-x="653" 
d="M131 1393h121v-1287h375l-17 -106h-479v1393zM314 -68h114v-75q-20 -108 -61 -185h-94q41 123 41 260z" />
    <glyph glyph-name="uni013C" unicode="&#x13c;" horiz-adv-x="375" 
d="M148.5 38.5q-19.5 30.5 -19.5 80.5v1356h115v-1334q0 -17 7.5 -27t18.5 -10h27v-104h-98q-31 8 -50.5 38.5zM183 -68h114v-75q-20 -108 -61 -185h-94q41 123 41 260z" />
    <glyph glyph-name="Lcaron" unicode="&#x13d;" horiz-adv-x="653" 
d="M131 1393h121v-1287h375l-17 -106h-479v1393zM407 1218q13 85 13 175h111v-91q-15 -73 -36.5 -135t-43.5 -98h-78q21 64 34 149z" />
    <glyph glyph-name="lcaron" unicode="&#x13e;" horiz-adv-x="524" 
d="M148.5 38.5q-19.5 30.5 -19.5 80.5v1356h115v-1334q0 -17 7.5 -27t18.5 -10h27v-104h-98q-31 8 -50.5 38.5zM399 1300q13 85 13 175h111v-91q-15 -73 -36.5 -135t-43.5 -98h-78q21 64 34 149z" />
    <glyph glyph-name="Ldot" unicode="&#x13f;" horiz-adv-x="653" 
d="M470.5 566.5q-20.5 15.5 -24.5 43.5v58q4 28 24.5 43.5t55.5 15.5t56 -15.5t24 -43.5v-58q-3 -28 -24 -43.5t-56 -15.5t-55.5 15.5zM131 1393h121v-1287h375l-17 -106h-479v1393z" />
    <glyph glyph-name="ldot" unicode="&#x140;" horiz-adv-x="504" 
d="M382 525.5q-21 15.5 -24 43.5v58q3 28 24 43.5t56 15.5t56 -15.5t24 -43.5v-58q-3 -28 -24 -43.5t-56 -15.5t-56 15.5zM148.5 38.5q-19.5 30.5 -19.5 80.5v1356h115v-1334q0 -17 7.5 -27t18.5 -10h27v-104h-98q-31 8 -50.5 38.5z" />
    <glyph glyph-name="Lslash" unicode="&#x141;" horiz-adv-x="653" 
d="M4 707l127 67v619h121v-556l207 109h4v-104l-211 -111v-625h375l-17 -106h-479v667l-123 -65h-4v105z" />
    <glyph glyph-name="lslash" unicode="&#x142;" horiz-adv-x="375" 
d="M2 707l127 66v702h115v-642l123 64h4v-104l-127 -66v-586q0 -17 7.5 -27t18.5 -10h27v-104h-98q-31 8 -50.5 38.5t-19.5 80.5v547l-123 -64h-4v105z" />
    <glyph glyph-name="Nacute" unicode="&#x143;" horiz-adv-x="889" 
d="M131 1393h182l254 -789q31 -97 56 -191.5t39 -150.5h4q-2 34 -8.5 163.5t-12.5 330.5t-6 409v228h119v-1393h-121v55l-399 1241h-2q4 -82 9 -220t5 -294v-782h-119v1393zM649 1729v-89l-158 -145h-107l166 234h99z" />
    <glyph glyph-name="nacute" unicode="&#x144;" horiz-adv-x="813" 
d="M129 1085h82l22 -86h7q43 46 104 73.5t129 27.5h4q104 0 151.5 -41t61.5 -90v-969h-115v934q-21 63 -124 63h-5q-62 0 -114.5 -29.5t-87.5 -74.5v-893h-115v1085zM597 1475v-86l-158 -175h-107l168 261h97z" />
    <glyph glyph-name="uni0145" unicode="&#x145;" horiz-adv-x="889" 
d="M131 1393h182l254 -789q31 -97 56 -191.5t39 -150.5h4q-2 34 -8.5 163.5t-12.5 330.5t-6 409v228h119v-1393h-121v55l-399 1241h-2q4 -82 9 -220t5 -294v-782h-119v1393zM387 -68h114v-75q-20 -108 -61 -185h-94q41 123 41 260z" />
    <glyph glyph-name="uni0146" unicode="&#x146;" horiz-adv-x="813" 
d="M129 1085h82l22 -86h7q43 46 104 73.5t129 27.5h4q104 0 151.5 -41t61.5 -90v-969h-115v934q-21 63 -124 63h-5q-62 0 -114.5 -29.5t-87.5 -74.5v-893h-115v1085zM353 -68h114v-75q-20 -108 -61 -185h-94q41 123 41 260z" />
    <glyph glyph-name="Ncaron" unicode="&#x147;" horiz-adv-x="889" 
d="M131 1393h182l254 -789q31 -97 56 -191.5t39 -150.5h4q-2 34 -8.5 163.5t-12.5 330.5t-6 409v228h119v-1393h-121v55l-399 1241h-2q4 -82 9 -220t5 -294v-782h-119v1393zM313 1729l53 -60l76 -86h4l76 86l53 60h68v-76l-148 -158h-102l-148 158v76h68z" />
    <glyph glyph-name="ncaron" unicode="&#x148;" horiz-adv-x="813" 
d="M129 1085h82l22 -86h7q43 46 104 73.5t129 27.5h4q104 0 151.5 -41t61.5 -90v-969h-115v934q-21 63 -124 63h-5q-62 0 -114.5 -29.5t-87.5 -74.5v-893h-115v1085zM609 1417l-148 -203h-102l-148 203v58h76l62 -82l57 -82h8q6 9 23.5 34t34.5 48l61 82h76v-58z" />
    <glyph glyph-name="napostrophe" unicode="&#x149;" horiz-adv-x="813" 
d="M159 1300q13 85 13 175h111v-91q-15 -73 -36.5 -135t-43.5 -98h-78q21 64 34 149zM129 1085h82l22 -86h7q43 46 104 73.5t129 27.5h4q104 0 151.5 -41t61.5 -90v-969h-115v934q-21 63 -124 63h-5q-62 0 -114.5 -29.5t-87.5 -74.5v-893h-115v1085z" />
    <glyph glyph-name="Eng" unicode="&#x14a;" horiz-adv-x="889" 
d="M131 1393h182l254 -789q31 -97 56 -191.5t39 -150.5h4q-2 34 -8.5 163.5t-12.5 330.5t-6 409v228h119v-1489q0 -80 -32.5 -136t-102.5 -73h-107v104h37q33 0 50.5 8t25.5 29.5t8 61.5v157l-399 1241h-2q4 -82 9 -220t5 -294v-782h-119v1393z" />
    <glyph glyph-name="eng" unicode="&#x14b;" horiz-adv-x="813" 
d="M451 997h-5q-62 0 -114.5 -29.5t-87.5 -74.5v-893h-115v1085h82l22 -86h7q43 46 104 73.5t129 27.5h4q104 0 151.5 -41t61.5 -90v-1065q0 -80 -32.5 -136t-102.5 -73h-104v104h41q33 0 50.5 8t25 29.5t7.5 61.5v1036q-21 63 -124 63z" />
    <glyph glyph-name="Omacron" unicode="&#x14c;" horiz-adv-x="905" 
d="M159 1280.5q34 51.5 106 90t186 38.5h4q113 0 185 -38.5t106 -90t45 -100.5v-967q-11 -50 -45 -101t-106 -89.5t-185 -38.5h-4q-114 0 -186 38.5t-106 90t-44 100.5v967q10 49 44 100.5zM299 128.5q51 -42.5 152 -42.5h4q100 0 151 42t64 93v950q-13 51 -64 93.5
t-151 42.5h-4q-101 0 -152 -42.5t-63 -93.5v-950q12 -50 63 -92.5zM652 1663v-104h-398v104h398z" />
    <glyph glyph-name="omacron" unicode="&#x14d;" horiz-adv-x="803" 
d="M143.5 987q28.5 46 91.5 80.5t164 34.5h4q102 0 165 -34.5t91.5 -80.5t34.5 -90v-709q-6 -43 -34.5 -89t-91.5 -80.5t-165 -34.5h-4q-101 0 -164 34.5t-91.5 80.5t-34.5 89v709q6 44 34.5 90zM268.5 121.5q38.5 -37.5 130.5 -37.5h4q93 0 131 37.5t46 81.5v680
q-8 44 -46 81t-131 37h-4q-92 0 -130.5 -37.5t-45.5 -80.5v-680q7 -44 45.5 -81.5zM600 1395v-105h-398v105h398z" />
    <glyph glyph-name="Obreve" unicode="&#x14e;" horiz-adv-x="905" 
d="M159 1280.5q34 51.5 106 90t186 38.5h4q113 0 185 -38.5t106 -90t45 -100.5v-967q-11 -50 -45 -101t-106 -89.5t-185 -38.5h-4q-114 0 -186 38.5t-106 90t-44 100.5v967q10 49 44 100.5zM299 128.5q51 -42.5 152 -42.5h4q100 0 151 42t64 93v950q-13 51 -64 93.5
t-151 42.5h-4q-101 0 -152 -42.5t-63 -93.5v-950q12 -50 63 -92.5zM345 1729v-62q5 -29 27.5 -52.5t78.5 -23.5h4q56 0 79 23.5t28 52.5v62h102v-87q-4 -31 -25 -65.5t-66.5 -60t-117.5 -25.5h-4q-71 0 -116.5 25.5t-67 60t-25.5 65.5v87h103z" />
    <glyph glyph-name="obreve" unicode="&#x14f;" horiz-adv-x="803" 
d="M143.5 987q28.5 46 91.5 80.5t164 34.5h4q102 0 165 -34.5t91.5 -80.5t34.5 -90v-709q-6 -43 -34.5 -89t-91.5 -80.5t-165 -34.5h-4q-101 0 -164 34.5t-91.5 80.5t-34.5 89v709q6 44 34.5 90zM268.5 121.5q38.5 -37.5 130.5 -37.5h4q93 0 131 37.5t46 81.5v680
q-8 44 -46 81t-131 37h-4q-92 0 -130.5 -37.5t-45.5 -80.5v-680q7 -44 45.5 -81.5zM293 1458v-67q5 -29 27.5 -52.5t78.5 -23.5h4q56 0 79 23.5t28 52.5v67h102v-92q-4 -31 -25 -65.5t-66.5 -60.5t-117.5 -26h-4q-72 0 -117.5 26t-66.5 60.5t-25 65.5v92h103z" />
    <glyph glyph-name="Ohungarumlaut" unicode="&#x150;" horiz-adv-x="905" 
d="M159 1280.5q34 51.5 106 90t186 38.5h4q113 0 185 -38.5t106 -90t45 -100.5v-967q-11 -50 -45 -101t-106 -89.5t-185 -38.5h-4q-114 0 -186 38.5t-106 90t-44 100.5v967q10 49 44 100.5zM299 128.5q51 -42.5 152 -42.5h4q100 0 151 42t64 93v950q-13 51 -64 93.5
t-151 42.5h-4q-101 0 -152 -42.5t-63 -93.5v-950q12 -50 63 -92.5zM484 1657l-86 -162h-109l99 234h96v-72zM689 1657l-94 -162h-107l105 234h96v-72z" />
    <glyph glyph-name="ohungarumlaut" unicode="&#x151;" horiz-adv-x="803" 
d="M143.5 987q28.5 46 91.5 80.5t164 34.5h4q102 0 165 -34.5t91.5 -80.5t34.5 -90v-709q-6 -43 -34.5 -89t-91.5 -80.5t-165 -34.5h-4q-101 0 -164 34.5t-91.5 80.5t-34.5 89v709q6 44 34.5 90zM268.5 121.5q38.5 -37.5 130.5 -37.5h4q93 0 131 37.5t46 81.5v680
q-8 44 -46 81t-131 37h-4q-92 0 -130.5 -37.5t-45.5 -80.5v-680q7 -44 45.5 -81.5zM350 1214h-107l111 261h96v-72zM551 1214h-107l117 261h96v-72z" />
    <glyph glyph-name="OE" unicode="&#x152;" horiz-adv-x="1255" 
d="M159 1280.5q34 51.5 106.5 90t187.5 38.5q132 0 217 -58v42h528l-18 -107h-389v-528h337v-107h-337v-545h395v-106h-516v42q-85 -58 -217 -58q-115 0 -187.5 38.5t-106.5 90t-44 100.5v967q10 49 44 100.5zM299 128.5q51 -42.5 152 -42.5h4q100 0 150.5 42t64.5 91v955
q-14 49 -64.5 91t-150.5 42h-4q-101 0 -152 -42.5t-63 -93.5v-950q12 -50 63 -92.5z" />
    <glyph glyph-name="oe" unicode="&#x153;" horiz-adv-x="1239" 
d="M143.5 987q28.5 46 91.5 80.5t164 34.5h4q154 0 233 -85q78 85 224 85h4q99 0 160 -34.5t88.5 -81t32.5 -89.5v-403h-451v-291q7 -45 43 -82t125 -37h4q62 0 100 17.5t52 39.5v119h115v-160q-29 -51 -100 -83.5t-167 -32.5h-4q-148 0 -226 85q-79 -85 -233 -85h-4
q-101 0 -164 34.5t-91.5 80.5t-34.5 89v709q6 44 34.5 90zM268.5 121.5q38.5 -37.5 130.5 -37.5h4q93 0 131 37.5t46 81.5v680q-8 44 -46 81t-131 37h-4q-92 0 -130.5 -37.5t-45.5 -80.5v-680q7 -44 45.5 -81.5zM1030 598v285q-7 44 -43 81t-123 37h-4q-87 0 -123 -37
t-43 -81v-285h336z" />
    <glyph glyph-name="Racute" unicode="&#x154;" horiz-adv-x="813" 
d="M131 1393h299q146 0 216.5 -60t82.5 -149v-324q0 -75 -48 -136.5t-114 -102.5l193 -547v-74h-111l-203 608h-194v-608h-121v1393zM569.5 773.5q32.5 43.5 38.5 88.5v305q-13 119 -176 119h-180v-571h246q39 15 71.5 58.5zM617 1729v-89l-158 -145h-107l166 234h99z" />
    <glyph glyph-name="racute" unicode="&#x155;" horiz-adv-x="492" 
d="M461 969h-74q-70 0 -102.5 -32.5t-40.5 -64.5v-872h-115v1085h84l20 -94h5q63 94 190 94h33v-116zM451 1475v-86l-127 -175h-107l138 261h96z" />
    <glyph glyph-name="uni0156" unicode="&#x156;" horiz-adv-x="813" 
d="M131 1393h299q146 0 216.5 -60t82.5 -149v-324q0 -75 -48 -136.5t-114 -102.5l193 -547v-74h-111l-203 608h-194v-608h-121v1393zM569.5 773.5q32.5 43.5 38.5 88.5v305q-13 119 -176 119h-180v-571h246q39 15 71.5 58.5zM394 -68h114v-75q-20 -108 -61 -185h-94
q41 123 41 260z" />
    <glyph glyph-name="uni0157" unicode="&#x157;" horiz-adv-x="492" 
d="M461 969h-74q-70 0 -102.5 -32.5t-40.5 -64.5v-872h-115v1085h84l20 -94h5q63 94 190 94h33v-116zM129 -68h114v-75q-20 -108 -61 -185h-94q41 123 41 260z" />
    <glyph glyph-name="Rcaron" unicode="&#x158;" horiz-adv-x="813" 
d="M131 1393h299q146 0 216.5 -60t82.5 -149v-324q0 -75 -48 -136.5t-114 -102.5l193 -547v-74h-111l-203 608h-194v-608h-121v1393zM569.5 773.5q32.5 43.5 38.5 88.5v305q-13 119 -176 119h-180v-571h246q39 15 71.5 58.5zM281 1729l53 -60l76 -86h4l76 86l53 60h68v-76
l-148 -158h-102l-148 158v76h68z" />
    <glyph glyph-name="rcaron" unicode="&#x159;" horiz-adv-x="492" 
d="M461 969h-74q-70 0 -102.5 -32.5t-40.5 -64.5v-872h-115v1085h84l20 -94h5q63 94 190 94h33v-116zM471 1417l-139 -203h-102l-140 203v58h76l111 -164h8l111 164h75v-58z" />
    <glyph glyph-name="Sacute" unicode="&#x15a;" horiz-adv-x="795" 
d="M94 352h121v-200q25 -27 64.5 -44.5t105.5 -17.5h4q57 0 99 16t65.5 40.5t28.5 52.5v211q0 59 -14.5 97.5t-48.5 68.5t-97 61l-123 61q-90 45 -139 118t-49 153v266q8 41 40 80t94.5 65.5t153.5 26.5h4q199 0 283 -121v-235h-121v186q-16 27 -57.5 46.5t-104.5 19.5h-4
q-46 0 -82 -12t-58 -30.5t-28 -37.5v-213q0 -48 9 -83t38 -68t87 -62l122 -62q70 -36 115.5 -74.5t72.5 -102t27 -159.5v-219q-19 -75 -91.5 -134.5t-229.5 -59.5h-4q-102 0 -177 37t-106 88v241zM606 1729v-89l-158 -145h-107l166 234h99z" />
    <glyph glyph-name="sacute" unicode="&#x15b;" horiz-adv-x="698" 
d="M82 283h115v-160q13 -14 48 -23.5t91 -9.5h4q74 0 114 25t48 61v129q0 51 -9 83.5t-35.5 58t-78.5 49.5l-105 49q-58 27 -97 59.5t-62 83t-23 123.5v119q13 65 72 118.5t188 53.5h4q86 0 150 -22.5t100 -61.5v-217h-114v157q-19 18 -55.5 28.5t-84.5 10.5h-4
q-68 0 -101 -22.5t-40 -56.5v-115q0 -61 29 -95.5t100 -68.5l90 -43q56 -27 96 -57.5t67 -83t27 -129.5v-162q-15 -69 -80 -124.5t-208 -55.5h-4q-79 0 -140.5 19.5t-101.5 53.5v226zM541 1475v-86l-158 -175h-107l168 261h97z" />
    <glyph glyph-name="Scircumflex" unicode="&#x15c;" horiz-adv-x="795" 
d="M94 352h121v-200q25 -27 64.5 -44.5t105.5 -17.5h4q57 0 99 16t65.5 40.5t28.5 52.5v211q0 59 -14.5 97.5t-48.5 68.5t-97 61l-123 61q-90 45 -139 118t-49 153v266q8 41 40 80t94.5 65.5t153.5 26.5h4q199 0 283 -121v-235h-121v186q-16 27 -57.5 46.5t-104.5 19.5h-4
q-46 0 -82 -12t-58 -30.5t-28 -37.5v-213q0 -48 9 -83t38 -68t87 -62l122 -62q70 -36 115.5 -74.5t72.5 -102t27 -159.5v-219q-19 -75 -91.5 -134.5t-229.5 -59.5h-4q-102 0 -177 37t-106 88v241zM202 1571l148 158h102l148 -158v-76h-68l-53 59l-76 86h-4l-76 -86l-53 -59
h-68v76z" />
    <glyph glyph-name="scircumflex" unicode="&#x15d;" horiz-adv-x="698" 
d="M82 283h115v-160q13 -14 48 -23.5t91 -9.5h4q74 0 114 25t48 61v129q0 51 -9 83.5t-35.5 58t-78.5 49.5l-105 49q-58 27 -97 59.5t-62 83t-23 123.5v119q13 65 72 118.5t188 53.5h4q86 0 150 -22.5t100 -61.5v-217h-114v157q-19 18 -55.5 28.5t-84.5 10.5h-4
q-68 0 -101 -22.5t-40 -56.5v-115q0 -61 29 -95.5t100 -68.5l90 -43q56 -27 96 -57.5t67 -83t27 -129.5v-162q-15 -69 -80 -124.5t-208 -55.5h-4q-79 0 -140.5 19.5t-101.5 53.5v226zM155 1272l148 203h102l148 -203v-58h-76l-61 82q-17 23 -34.5 48t-23.5 34h-8l-57 -82
l-62 -82h-76v58z" />
    <glyph glyph-name="Scedilla" unicode="&#x15e;" horiz-adv-x="795" 
d="M94 352h121v-200q25 -27 64.5 -44.5t105.5 -17.5h4q57 0 99 16t65.5 40.5t28.5 52.5v211q0 59 -14.5 97.5t-48.5 68.5t-97 61l-123 61q-90 45 -139 118t-49 153v266q8 41 40 80t94.5 65.5t153.5 26.5h4q199 0 283 -121v-235h-121v186q-16 27 -57.5 46.5t-104.5 19.5h-4
q-46 0 -82 -12t-58 -30.5t-28 -37.5v-213q0 -48 9 -83t38 -68t87 -62l122 -62q70 -36 115.5 -74.5t72.5 -102t27 -159.5v-219q-16 -65 -73 -120t-176 -70q-2 -77 -25 -147.5t-61 -123.5h-89v78q27 37 43 87.5t17 103.5q-87 7 -151.5 42.5t-92.5 80.5v241z" />
    <glyph glyph-name="scedilla" unicode="&#x15f;" horiz-adv-x="698" 
d="M82 283h115v-160q13 -14 48 -23.5t91 -9.5h4q74 0 114 25t48 61v129q0 51 -9 83.5t-35.5 58t-78.5 49.5l-105 49q-58 27 -97 59.5t-62 83t-23 123.5v119q13 65 72 118.5t188 53.5h4q86 0 150 -22.5t100 -61.5v-217h-114v157q-19 18 -55.5 28.5t-84.5 10.5h-4
q-68 0 -101 -22.5t-40 -56.5v-115q0 -61 29 -95.5t100 -68.5l90 -43q56 -27 96 -57.5t67 -83t27 -129.5v-162q-14 -60 -64.5 -111.5t-159.5 -64.5q-2 -77 -25 -146t-61 -123h-89v78q26 37 42.5 87t17.5 102q-63 5 -112.5 23.5t-82.5 47.5v226z" />
    <glyph glyph-name="Scaron" unicode="&#x160;" horiz-adv-x="795" 
d="M94 352h121v-200q25 -27 64.5 -44.5t105.5 -17.5h4q57 0 99 16t65.5 40.5t28.5 52.5v211q0 59 -14.5 97.5t-48.5 68.5t-97 61l-123 61q-90 45 -139 118t-49 153v266q8 41 40 80t94.5 65.5t153.5 26.5h4q199 0 283 -121v-235h-121v186q-16 27 -57.5 46.5t-104.5 19.5h-4
q-46 0 -82 -12t-58 -30.5t-28 -37.5v-213q0 -48 9 -83t38 -68t87 -62l122 -62q70 -36 115.5 -74.5t72.5 -102t27 -159.5v-219q-19 -75 -91.5 -134.5t-229.5 -59.5h-4q-102 0 -177 37t-106 88v241zM270 1729l53 -60l76 -86h4l76 86l53 60h68v-76l-148 -158h-102l-148 158v76
h68z" />
    <glyph glyph-name="scaron" unicode="&#x161;" horiz-adv-x="698" 
d="M82 283h115v-160q13 -14 48 -23.5t91 -9.5h4q74 0 114 25t48 61v129q0 51 -9 83.5t-35.5 58t-78.5 49.5l-105 49q-58 27 -97 59.5t-62 83t-23 123.5v119q13 65 72 118.5t188 53.5h4q86 0 150 -22.5t100 -61.5v-217h-114v157q-19 18 -55.5 28.5t-84.5 10.5h-4
q-68 0 -101 -22.5t-40 -56.5v-115q0 -61 29 -95.5t100 -68.5l90 -43q56 -27 96 -57.5t67 -83t27 -129.5v-162q-15 -69 -80 -124.5t-208 -55.5h-4q-79 0 -140.5 19.5t-101.5 53.5v226zM553 1417l-148 -203h-102l-148 203v58h76l62 -82l57 -82h8q6 9 23.5 34t34.5 48l61 82h76
v-58z" />
    <glyph glyph-name="uni0162" unicode="&#x162;" horiz-adv-x="616" 
d="M369 1286v-1284v-2q0 -80 -23 -152.5t-63 -128.5h-89v78q27 38 43.5 89t16.5 104v10h-6v1286h-232v107h590l-18 -107h-219z" />
    <glyph glyph-name="uni0163" unicode="&#x163;" horiz-adv-x="485" 
d="M295 1288v-203h123v-104h-123v-799q0 -78 65 -78h48v-104h-20q0 -80 -23 -152.5t-63 -128.5h-89v78q27 38 43.5 89t16.5 104v20q-44 19 -69.5 56.5t-25.5 91.5v823h-119v104h119v203h117z" />
    <glyph glyph-name="Tcaron" unicode="&#x164;" horiz-adv-x="616" 
d="M369 1286v-1286h-121v1286h-232v107h590l-18 -107h-219zM178 1729l53 -60l76 -86h4l76 86l53 60h68v-76l-148 -158h-102l-148 158v76h68z" />
    <glyph glyph-name="tcaron" unicode="&#x165;" horiz-adv-x="485" 
d="M295 1288v-203h123v-104h-123v-799q0 -78 65 -78h48v-104h-109q-54 16 -87.5 56t-33.5 102v823h-119v104h119v203h117zM419 1300q13 85 13 175h111v-91q-15 -73 -36.5 -135t-43.5 -98h-78q21 64 34 149z" />
    <glyph glyph-name="Tbar" unicode="&#x166;" horiz-adv-x="616" 
d="M369 1286v-536h131v-107h-131v-643h-121v643h-127v107h127v536h-232v107h590l-18 -107h-219z" />
    <glyph glyph-name="tbar" unicode="&#x167;" horiz-adv-x="485" 
d="M59 637h119v344h-119v104h119v203h117v-203h123v-104h-123v-344h123v-102h-123v-353q0 -78 65 -78h48v-104h-109q-54 16 -87.5 56t-33.5 102v377h-119v102z" />
    <glyph glyph-name="Utilde" unicode="&#x168;" horiz-adv-x="889" 
d="M248 1393v-1190q13 -47 60 -82t134 -35h4q87 0 134.5 35t60.5 82v1190h121v-1200q-18 -78 -90.5 -143.5t-225.5 -65.5h-4q-106 0 -173.5 34.5t-99.5 81.5t-42 93v1200h121zM261.5 1667.5q30.5 18.5 73.5 18.5q28 0 51.5 -6t67.5 -21q34 -12 52 -16.5t34 -4.5q30 0 37 23
v20h94v-77q-14 -31 -45 -49.5t-74 -18.5q-28 0 -52.5 6t-65.5 21q-36 12 -53.5 16t-32.5 4q-31 0 -37 -22v-21h-95v78q15 31 45.5 49.5z" />
    <glyph glyph-name="utilde" unicode="&#x169;" horiz-adv-x="809" 
d="M360 88h5q62 0 113 29.5t87 75.5v892h115v-1085h-82l-23 86h-6q-44 -45 -104 -72.5t-127 -27.5h-4q-102 0 -149.5 41t-61.5 90v968h115v-933q20 -64 122 -64zM218.5 1399q30.5 18 73.5 18q28 0 52.5 -6t66.5 -20q34 -12 52 -16.5t34 -4.5q31 0 37 23v20h94v-78
q-14 -31 -45 -49t-74 -18q-28 0 -52 6t-66 20q-35 12 -53 16.5t-33 4.5q-31 0 -37 -23v-20h-95v78q15 31 45.5 49z" />
    <glyph glyph-name="Umacron" unicode="&#x16a;" horiz-adv-x="889" 
d="M248 1393v-1190q13 -47 60 -82t134 -35h4q87 0 134.5 35t60.5 82v1190h121v-1200q-18 -78 -90.5 -143.5t-225.5 -65.5h-4q-106 0 -173.5 34.5t-99.5 81.5t-42 93v1200h121zM643 1663v-104h-398v104h398z" />
    <glyph glyph-name="umacron" unicode="&#x16b;" horiz-adv-x="809" 
d="M360 88h5q62 0 113 29.5t87 75.5v892h115v-1085h-82l-23 86h-6q-44 -45 -104 -72.5t-127 -27.5h-4q-102 0 -149.5 41t-61.5 90v968h115v-933q20 -64 122 -64zM600 1395v-105h-398v105h398z" />
    <glyph glyph-name="Ubreve" unicode="&#x16c;" horiz-adv-x="889" 
d="M248 1393v-1190q13 -47 60 -82t134 -35h4q87 0 134.5 35t60.5 82v1190h121v-1200q-18 -78 -90.5 -143.5t-225.5 -65.5h-4q-106 0 -173.5 34.5t-99.5 81.5t-42 93v1200h121zM336 1729v-62q5 -29 27.5 -52.5t78.5 -23.5h4q56 0 79 23.5t28 52.5v62h102v-87
q-4 -31 -25 -65.5t-66.5 -60t-117.5 -25.5h-4q-71 0 -116.5 25.5t-67 60t-25.5 65.5v87h103z" />
    <glyph glyph-name="ubreve" unicode="&#x16d;" horiz-adv-x="809" 
d="M360 88h5q62 0 113 29.5t87 75.5v892h115v-1085h-82l-23 86h-6q-44 -45 -104 -72.5t-127 -27.5h-4q-102 0 -149.5 41t-61.5 90v968h115v-933q20 -64 122 -64zM293 1458v-67q5 -29 27.5 -52.5t78.5 -23.5h4q56 0 79 23.5t28 52.5v67h102v-92q-4 -31 -25 -65.5t-66.5 -60.5
t-117.5 -26h-4q-72 0 -117.5 26t-66.5 60.5t-25 65.5v92h103z" />
    <glyph glyph-name="Uring" unicode="&#x16e;" horiz-adv-x="889" 
d="M248 1393v-1190q13 -47 60 -82t134 -35h4q87 0 134.5 35t60.5 82v1190h121v-1200q-18 -78 -90.5 -143.5t-225.5 -65.5h-4q-106 0 -173.5 34.5t-99.5 81.5t-42 93v1200h121zM289.5 1750q17.5 29 55 51t97.5 22h4q59 0 97 -22t55.5 -51.5t21.5 -55.5v-95
q-4 -26 -21.5 -55.5t-55.5 -51.5t-97 -22h-4q-59 0 -97 22t-55.5 51.5t-22.5 55.5v95q5 27 22.5 56zM442 1559h4q42 0 59 18t23 43v53q-6 25 -23 43.5t-59 18.5h-4q-70 0 -82 -62v-53q12 -61 82 -61z" />
    <glyph glyph-name="uring" unicode="&#x16f;" horiz-adv-x="809" 
d="M360 88h5q62 0 113 29.5t87 75.5v892h115v-1085h-82l-23 86h-6q-44 -45 -104 -72.5t-127 -27.5h-4q-102 0 -149.5 41t-61.5 90v968h115v-933q20 -64 122 -64zM246.5 1485.5q17.5 29.5 55.5 51.5t97 22h4q59 0 97 -22t55.5 -51.5t21.5 -55.5v-95q-4 -26 -21.5 -55.5
t-55.5 -51.5t-97 -22h-4q-60 0 -97.5 22t-55 51t-22.5 56v95q5 26 22.5 55.5zM399 1294h4q42 0 59 18.5t23 43.5v53q-6 25 -23 43t-59 18h-4q-70 0 -82 -61v-53q12 -62 82 -62z" />
    <glyph glyph-name="Uhungarumlaut" unicode="&#x170;" horiz-adv-x="889" 
d="M248 1393v-1190q13 -47 60 -82t134 -35h4q87 0 134.5 35t60.5 82v1190h121v-1200q-18 -78 -90.5 -143.5t-225.5 -65.5h-4q-106 0 -173.5 34.5t-99.5 81.5t-42 93v1200h121zM475 1657l-86 -162h-109l99 234h96v-72zM680 1657l-94 -162h-107l105 234h96v-72z" />
    <glyph glyph-name="uhungarumlaut" unicode="&#x171;" horiz-adv-x="809" 
d="M360 88h5q62 0 113 29.5t87 75.5v892h115v-1085h-82l-23 86h-6q-44 -45 -104 -72.5t-127 -27.5h-4q-102 0 -149.5 41t-61.5 90v968h115v-933q20 -64 122 -64zM350 1214h-107l111 261h96v-72zM551 1214h-107l117 261h96v-72z" />
    <glyph glyph-name="Uogonek" unicode="&#x172;" horiz-adv-x="889" 
d="M248 1393v-1190q13 -47 60 -82t134 -35h4q87 0 134.5 35t60.5 82v1190h121v-1200q-14 -58 -59 -113.5t-135 -80.5l-50 -40q-38 -30 -54 -56t-16 -53q0 -26 8.5 -41.5t28.5 -21.5h55v-92h-102q-42 11 -68.5 49.5t-26.5 95.5q0 76 61 145q-133 9 -197 72.5t-80 135.5v1200
h121z" />
    <glyph glyph-name="uogonek" unicode="&#x173;" horiz-adv-x="809" 
d="M360 88h5q62 0 113 29.5t87 75.5v892h115v-1085l-51 -41q-38 -30 -54 -56t-16 -53q0 -26 8.5 -41.5t28.5 -21.5h55v-92h-102q-42 11 -68.5 49.5t-26.5 95.5q0 56 29 102t80 89l22 18l-10 37h-6q-44 -45 -104 -72.5t-127 -27.5h-4q-102 0 -149.5 41t-61.5 90v968h115v-933
q20 -64 122 -64z" />
    <glyph glyph-name="Wcircumflex" unicode="&#x174;" horiz-adv-x="1163" 
d="M178 1393l80 -709q18 -156 36.5 -350.5t24.5 -253.5h19q5 59 24 253.5t37 350.5l82 709h201l82 -709q18 -156 37 -350.5t24 -253.5h19q6 59 25 253.5t36 350.5l80 709h105v-84l-150 -1309h-211l-84 786q-21 203 -36 347t-19 188h-17q-4 -44 -19 -188t-36 -347l-84 -786
h-211l-149 1309v84h104zM382 1571l148 158h102l148 -158v-76h-68l-53 59l-76 86h-4l-76 -86l-53 -59h-68v76z" />
    <glyph glyph-name="wcircumflex" unicode="&#x175;" horiz-adv-x="1087" 
d="M156 1085l84 -577q18 -121 29 -215.5t15 -146t5 -64.5h26q1 13 5.5 64.5t15.5 146t29 215.5l84 577h190l84 -577q18 -121 29 -215.5t15 -146t5 -64.5h27q1 13 6 64.5t16.5 146t28.5 215.5l82 577h98v-79l-145 -1006h-199l-74 553l-59 453h-18l-60 -447l-74 -559h-198
l-146 1006v79h99zM344 1272l148 203h102l148 -203v-58h-76l-61 82q-17 23 -34.5 48t-23.5 34h-8l-57 -82l-62 -82h-76v58z" />
    <glyph glyph-name="Ycircumflex" unicode="&#x176;" horiz-adv-x="750" 
d="M147 1393l121 -510q33 -140 57 -245t31 -138h37q7 33 31 136.5t57 242.5l121 514h98v-80l-221 -934h-43v-379h-123v379h-43l-221 934v80h98zM176 1571l148 158h102l148 -158v-76h-68l-53 59l-76 86h-4l-76 -86l-53 -59h-68v76z" />
    <glyph glyph-name="ycircumflex" unicode="&#x177;" horiz-adv-x="723" 
d="M156 1085l108 -577q34 -180 53.5 -288.5t24.5 -137.5h39q5 29 24.5 137.5t53.5 288.5l108 577h99v-79l-195 -1006l-10 -117q-14 -158 -150 -188h-147v104h102q29 3 47 12.5t29 32.5t14 66l6 90h-110l-195 1006v79h99zM161 1272l148 203h102l148 -203v-58h-76l-61 82
q-17 23 -34.5 48t-23.5 34h-8l-57 -82l-62 -82h-76v58z" />
    <glyph glyph-name="Ydieresis" unicode="&#x178;" horiz-adv-x="750" 
d="M147 1393l121 -510q33 -140 57 -245t31 -138h37q7 33 31 136.5t57 242.5l121 514h98v-80l-221 -934h-43v-379h-123v379h-43l-221 934v80h98zM182 1585v53q4 27 22.5 42.5t53.5 15.5t54 -16t22 -42v-53q-3 -26 -22 -41.5t-54 -15.5q-67 0 -76 57zM438 1543.5
q-19 15.5 -22 41.5v53q3 26 22 42t54 16t53.5 -16t21.5 -42v-53q-3 -26 -21.5 -41.5t-53.5 -15.5t-54 15.5z" />
    <glyph glyph-name="Zacute" unicode="&#x179;" horiz-adv-x="656" 
d="M35 131l461 1151v6l-164 -2h-281v107h565v-129l-460 -1153v-7l161 2h299v-106h-581v131zM533 1729v-89l-158 -145h-107l166 234h99z" />
    <glyph glyph-name="zacute" unicode="&#x17a;" horiz-adv-x="596" 
d="M49 0v113l369 862v8q-11 0 -45.5 -1t-81.5 -1h-232v104h482v-116l-369 -863v-6q11 1 50.5 2.5t80.5 1.5h246v-104h-500zM490 1475v-86l-158 -175h-107l168 261h97z" />
    <glyph glyph-name="Zdotaccent" unicode="&#x17b;" horiz-adv-x="656" 
d="M35 131l461 1151v6l-164 -2h-281v107h565v-129l-460 -1153v-7l161 2h299v-106h-581v131zM252 1585v53q4 27 22.5 42.5t53.5 15.5t54 -16t22 -42v-53q-3 -26 -22 -41.5t-54 -15.5q-67 0 -76 57z" />
    <glyph glyph-name="zdotaccent" unicode="&#x17c;" horiz-adv-x="596" 
d="M49 0v113l369 862v8q-11 0 -45.5 -1t-81.5 -1h-232v104h482v-116l-369 -863v-6q11 1 50.5 2.5t80.5 1.5h246v-104h-500zM227 1317v53q9 57 76 57q35 0 54 -15.5t22 -41.5v-53q-3 -26 -22 -41.5t-54 -15.5q-67 0 -76 57z" />
    <glyph glyph-name="Zcaron" unicode="&#x17d;" horiz-adv-x="656" 
d="M35 131l461 1151v6l-164 -2h-281v107h565v-129l-460 -1153v-7l161 2h299v-106h-581v131zM197 1729l53 -60l76 -86h4l76 86l53 60h68v-76l-148 -158h-102l-148 158v76h68z" />
    <glyph glyph-name="zcaron" unicode="&#x17e;" horiz-adv-x="596" 
d="M49 0v113l369 862v8q-11 0 -45.5 -1t-81.5 -1h-232v104h482v-116l-369 -863v-6q11 1 50.5 2.5t80.5 1.5h246v-104h-500zM493 1417l-139 -203h-102l-140 203v58h76l111 -164h8l111 164h75v-58z" />
    <glyph glyph-name="uni018F" unicode="&#x18f;" horiz-adv-x="905" 
d="M115 791h555v364q-10 56 -57 104t-164 48h-7q-84 0 -134 -23t-66 -53v-156h-115v195q35 61 119.5 100t199.5 39h5q118 0 191.5 -40.5t107 -94.5t41.5 -105v-956q-11 -50 -45 -101t-106 -89.5t-185 -38.5h-4q-114 0 -186 38.5t-106 90t-44 100.5v578zM299 128.5
q51 -42.5 152 -42.5h4q100 0 151 42t64 93v467h-434v-467q12 -50 63 -92.5z" />
    <glyph glyph-name="florin" unicode="&#x192;" horiz-adv-x="440" 
d="M385 1475v-105h-57q-28 0 -47 -17.5t-19 -68.5v-444h123v-105h-123v-864q0 -72 -34.5 -118t-96.5 -58h-106v104h57q65 0 65 86v850h-122v105h122v458q0 72 35 118t97 59h106z" />
    <glyph glyph-name="uni019D" unicode="&#x19d;" horiz-adv-x="889" 
d="M313 1393l254 -789q31 -97 56 -191.5t39 -150.5h4q-2 34 -8.5 163.5t-12.5 330.5t-6 409v228h119v-1393h-121v55l-399 1241h-2q4 -82 9 -220t5 -294v-878q0 -80 -32.5 -136t-102.5 -73h-109v104h41q33 0 51 8t25.5 29.5t7.5 61.5v1495h182z" />
    <glyph glyph-name="Gcaron" unicode="&#x1e6;" horiz-adv-x="855" 
d="M743 985h-116v191q-17 51 -61 91t-134 40h-4q-90 0 -136 -42.5t-56 -93.5v-954q10 -47 55.5 -87t132.5 -40q50 0 102.5 24.5t98.5 67.5v471h-211v105h329v-758h-92l-22 72h-4q-43 -40 -100.5 -62t-121.5 -22q-98 0 -160 37t-91 87t-37 97v971q9 48 40.5 100t99 90.5
t173.5 38.5h4q151 0 220 -67t91 -146v-211zM298 1729l53 -60l76 -86h4l76 86l53 60h68v-76l-148 -158h-102l-148 158v76h68z" />
    <glyph glyph-name="gcaron" unicode="&#x1e7;" horiz-adv-x="743" 
d="M639 483q-6 -40 -33 -82t-84 -72t-145 -30h-115q-36 0 -65 -21t-29 -57v-4q0 -37 19.5 -57.5t74.5 -20.5h215q112 0 164.5 -45.5t52.5 -124.5v-75q0 -56 -30.5 -101t-93.5 -71.5t-156 -26.5h-97q-128 0 -186.5 45t-58.5 125v55q4 50 32 85t72 50v2q-49 12 -78 43.5
t-32 83.5v41q4 63 43 94t84 37v4q-70 40 -82 123v435q6 41 32 82.5t82.5 71.5t147.5 30h4q43 0 89 -15t73 -36h4v8q0 39 19.5 66.5t53.5 39.5h86v-106h-10q-29 0 -41 -12.5t-12 -42.5v-521zM266 427q33 -28 107 -28h4q73 0 106 28t41 67v413q-8 38 -41.5 66t-105.5 28h-4
q-74 0 -107 -28t-41 -66v-413q8 -39 41 -67zM562.5 9q-14.5 17 -40 22.5t-69.5 5.5h-146q-58 0 -93.5 -32.5t-35.5 -90.5v-14q0 -63 39 -85t119 -22h70q93 0 133.5 25.5t40.5 81.5v57q-3 35 -17.5 52zM574 1417l-148 -203h-102l-148 203v58h76l62 -82l57 -82h8q6 9 23.5 34
t34.5 48l61 82h76v-58z" />
    <glyph glyph-name="uni01EA" unicode="&#x1ea;" horiz-adv-x="905" 
d="M159 1280.5q34 51.5 106 90t186 38.5h4q113 0 185 -38.5t106 -90t45 -100.5v-967q-13 -61 -60.5 -121t-139.5 -89v-3l-51 -41q-38 -30 -54 -56t-16 -53q0 -26 8.5 -41.5t28.5 -21.5h55v-92h-102q-42 11 -68.5 49.5t-26.5 95.5q0 77 60 145q-104 5 -170.5 43.5t-98 88
t-41.5 96.5v967q10 49 44 100.5zM299 128.5q51 -42.5 152 -42.5h4q100 0 151 42t64 93v950q-13 51 -64 93.5t-151 42.5h-4q-101 0 -152 -42.5t-63 -93.5v-950q12 -50 63 -92.5z" />
    <glyph glyph-name="uni01EB" unicode="&#x1eb;" horiz-adv-x="803" 
d="M143.5 987q28.5 46 91.5 80.5t164 34.5h4q102 0 165 -34.5t91.5 -80.5t34.5 -90v-709q-8 -54 -48 -108.5t-124 -79.5l-51 -41q-38 -30 -54 -56t-16 -53q0 -26 8.5 -41.5t28.5 -21.5h55v-92h-102q-42 11 -68.5 49.5t-26.5 95.5q0 77 62 146q-86 7 -140 41.5t-78.5 77.5
t-30.5 83v709q6 44 34.5 90zM268.5 121.5q38.5 -37.5 130.5 -37.5h4q93 0 131 37.5t46 81.5v680q-8 44 -46 81t-131 37h-4q-92 0 -130.5 -37.5t-45.5 -80.5v-680q7 -44 45.5 -81.5z" />
    <glyph glyph-name="Aringacute" unicode="&#x1fa;" horiz-adv-x="817" 
d="M582 1847v-88l-118 -108q57 -13 86 -50t34 -73v-94q-3 -19 -14 -42.5t-32 -42.5l207 -1222v-127h-120v109l-33 208q-90 -18 -186 -18t-185 18l-33 -208v-109h-116v127l207 1221q-21 19 -32.5 42.5t-15.5 43.5v94q6 34 32.5 69.5t78.5 50.5l141 199h99zM406 1393h4
q42 0 59 18t23 43v53q-6 25 -23 43.5t-59 18.5h-4q-70 0 -82 -62v-53q12 -61 82 -61zM406 410q89 0 168 18l-80 500q-18 115 -33.5 221t-20.5 143h-65l-56 -364l-80 -501q82 -17 167 -17z" />
    <glyph glyph-name="aringacute" unicode="&#x1fb;" horiz-adv-x="766" 
d="M565 1731v-86l-92 -103q41 -18 62.5 -50.5t25.5 -61.5v-95q-4 -26 -21.5 -55.5t-55.5 -51.5t-97 -22h-4q-59 0 -97 22t-55.5 51.5t-21.5 55.5v95q7 40 42 80.5t106 47.5l112 173h96zM429.5 9q-60.5 -25 -122.5 -25h-4q-66 0 -112 21.5t-70 54t-31 67.5v291q0 92 66 138
t176 46h196v332q-6 25 -41.5 45t-103.5 20h-4q-62 0 -99 -13.5t-53 -31.5v-143h-114v190q29 38 98.5 69.5t171.5 31.5h4q125 0 183 -42t73 -95v-965h-86l-16 78h-6q-45 -44 -105.5 -69zM383 1294h4q70 0 82 62v53q-12 61 -82 61h-4q-70 0 -82 -61v-53q12 -62 82 -62zM326 88
h4q54 0 105.5 23t92.5 61v326h-213q-108 0 -108 -95v-241q10 -74 119 -74z" />
    <glyph glyph-name="AEacute" unicode="&#x1fc;" horiz-adv-x="1100" 
d="M72 127l215 1266h755l-18 -107h-389v-528h338v-107h-338v-545h395v-106h-516v305q-54 -6 -108 -6q-96 0 -185 18l-33 -208v-109h-116v127zM406 410q47 0 108 7v871h-139l-56 -360l-80 -501q82 -17 167 -17zM846 1729v-89l-158 -145h-107l166 234h99z" />
    <glyph glyph-name="aeacute" unicode="&#x1fd;" horiz-adv-x="1188" 
d="M211.5 1070.5q69.5 31.5 171.5 31.5h4q147 0 215 -68q77 68 207 68h4q99 0 160 -34.5t88 -81t33 -89.5v-403h-451v-291q7 -45 43 -82t125 -37h4q62 0 100 17.5t52 39.5v119h114v-160q-29 -51 -99.5 -83.5t-166.5 -32.5h-4q-174 0 -249 115q-55 -55 -122.5 -85t-132.5 -30
h-4q-66 0 -112 21.5t-70 54t-31 67.5v287q0 92 66 138t176 46h196v336q-6 25 -41.5 45t-103.5 20h-4q-62 0 -99 -13.5t-53 -31.5v-143h-114v190q29 38 98.5 69.5zM326 88h4q51 0 103 27.5t95 73.5v305h-213q-108 0 -108 -95v-237q10 -74 119 -74zM979 598v285q-7 44 -43 81
t-123 37h-4q-87 0 -123 -37t-43 -81v-285h336zM781 1475v-86l-158 -175h-107l168 261h97z" />
    <glyph glyph-name="Oslashacute" unicode="&#x1fe;" horiz-adv-x="905" 
d="M791 1497v-78l-54 -126q39 -51 54 -113v-967q-11 -50 -45 -101t-106 -89.5t-185 -38.5h-4q-116 0 -197 44l-55 -132h-84v77l53 127q-41 53 -53 113v967q10 49 44 100.5t106 90t186 38.5h4q115 0 196 -44l56 132h84zM610 1262q-61 45 -155 45h-4q-101 0 -152 -42.5
t-63 -93.5v-909zM451 86h4q100 0 151 42t64 93v912l-374 -1002q59 -45 155 -45zM658 1729v-89l-158 -145h-107l166 234h99z" />
    <glyph glyph-name="oslashacute" unicode="&#x1ff;" horiz-adv-x="803" 
d="M694 1190v-78l-46 -109q20 -25 31.5 -53.5t14.5 -52.5v-709q-6 -43 -34.5 -89t-91.5 -80.5t-165 -34.5h-4q-97 0 -165 35l-52 -123h-73v77l46 110q-38 48 -46 105v709q6 44 34.5 90t91.5 80.5t164 34.5h4q98 0 166 -35l52 123h73zM525 970q-45 31 -122 31h-4
q-92 0 -130.5 -37.5t-45.5 -80.5v-655zM399 84h4q93 0 131 37.5t46 81.5v654l-302 -742q45 -31 121 -31zM588 1475v-86l-158 -175h-107l168 261h97z" />
    <glyph glyph-name="uni0218" unicode="&#x218;" horiz-adv-x="795" 
d="M94 352h121v-200q25 -27 64.5 -44.5t105.5 -17.5h4q57 0 99 16t65.5 40.5t28.5 52.5v211q0 59 -14.5 97.5t-48.5 68.5t-97 61l-123 61q-90 45 -139 118t-49 153v266q8 41 40 80t94.5 65.5t153.5 26.5h4q199 0 283 -121v-235h-121v186q-16 27 -57.5 46.5t-104.5 19.5h-4
q-46 0 -82 -12t-58 -30.5t-28 -37.5v-213q0 -48 9 -83t38 -68t87 -62l122 -62q70 -36 115.5 -74.5t72.5 -102t27 -159.5v-219q-19 -75 -91.5 -134.5t-229.5 -59.5h-4q-102 0 -177 37t-106 88v241zM330 -68h114v-75q-20 -108 -61 -185h-94q41 123 41 260z" />
    <glyph glyph-name="uni0219" unicode="&#x219;" horiz-adv-x="698" 
d="M82 283h115v-160q13 -14 48 -23.5t91 -9.5h4q74 0 114 25t48 61v129q0 51 -9 83.5t-35.5 58t-78.5 49.5l-105 49q-58 27 -97 59.5t-62 83t-23 123.5v119q13 65 72 118.5t188 53.5h4q86 0 150 -22.5t100 -61.5v-217h-114v157q-19 18 -55.5 28.5t-84.5 10.5h-4
q-68 0 -101 -22.5t-40 -56.5v-115q0 -61 29 -95.5t100 -68.5l90 -43q56 -27 96 -57.5t67 -83t27 -129.5v-162q-15 -69 -80 -124.5t-208 -55.5h-4q-79 0 -140.5 19.5t-101.5 53.5v226zM269 -68h114v-75q-20 -108 -61 -185h-94q41 123 41 260z" />
    <glyph glyph-name="uni021A" unicode="&#x21a;" horiz-adv-x="616" 
d="M369 1286v-1286h-121v1286h-232v107h590l-18 -107h-219zM246 -68h114v-75q-20 -108 -61 -185h-94q41 123 41 260z" />
    <glyph glyph-name="uni021B" unicode="&#x21b;" horiz-adv-x="485" 
d="M295 1288v-203h123v-104h-123v-799q0 -78 65 -78h48v-104h-109q-54 16 -87.5 56t-33.5 102v823h-119v104h119v203h117zM265 -68h114v-75q-20 -108 -61 -185h-94q41 123 41 260z" />
    <glyph glyph-name="uni0232" unicode="&#x232;" horiz-adv-x="750" 
d="M147 1393l121 -510q33 -140 57 -245t31 -138h37q7 33 31 136.5t57 242.5l121 514h98v-80l-221 -934h-43v-379h-123v379h-43l-221 934v80h98zM574 1663v-104h-398v104h398z" />
    <glyph glyph-name="uni0233" unicode="&#x233;" horiz-adv-x="723" 
d="M156 1085l108 -577q34 -180 53.5 -288.5t24.5 -137.5h39q5 29 24.5 137.5t53.5 288.5l108 577h99v-79l-195 -1006l-10 -117q-14 -158 -150 -188h-147v104h102q29 3 47 12.5t29 32.5t14 66l6 90h-110l-195 1006v79h99zM559 1395v-105h-398v105h398z" />
    <glyph glyph-name="uni0237" unicode="&#x237;" horiz-adv-x="373" 
d="M244 1085v-1181q0 -80 -32.5 -136t-102.5 -73h-105v104h41q33 0 51 8t25.5 29.5t7.5 61.5v1187h115z" />
    <glyph glyph-name="uni0259" unicode="&#x259;" horiz-adv-x="768" 
d="M94 592h451v291q-7 44 -43 81t-125 37h-4q-63 0 -100.5 -17t-51.5 -40v-119h-115v160q29 52 100 84.5t167 32.5h4q99 0 160 -34.5t88.5 -80.5t33.5 -90v-709q-6 -43 -33.5 -89t-88 -80.5t-158.5 -34.5h-4q-99 0 -160 34.5t-88.5 80.5t-32.5 89v404zM252 121.5
q36 -37.5 123 -37.5h4q87 0 123 37.5t43 81.5v284h-336v-284q7 -44 43 -81.5z" />
    <glyph glyph-name="uni0272" unicode="&#x272;" horiz-adv-x="814" 
d="M211 1085l22 -86h7q43 46 104 73.5t129 27.5h4q104 0 151.5 -41t61.5 -90v-969h-115v934q-21 63 -124 63h-5q-62 0 -114.5 -29.5t-87.5 -74.5v-989q0 -80 -32.5 -136t-102.5 -73h-105v104h41q33 0 51 8t25.5 29.5t7.5 61.5v1187h82z" />
    <glyph glyph-name="circumflex" unicode="&#x2c6;" horiz-adv-x="520" 
d="M61 1272l148 203h102l148 -203v-58h-76l-61 82q-17 23 -34.5 48t-23.5 34h-8l-57 -82l-62 -82h-76v58z" />
    <glyph glyph-name="caron" unicode="&#x2c7;" horiz-adv-x="520" 
d="M459 1417l-148 -203h-102l-148 203v58h76l62 -82l57 -82h8q6 9 23.5 34t34.5 48l61 82h76v-58z" />
    <glyph glyph-name="breve" unicode="&#x2d8;" horiz-adv-x="524" 
d="M154 1458v-67q5 -29 27.5 -52.5t78.5 -23.5h4q56 0 79 23.5t28 52.5v67h102v-92q-4 -31 -25 -65.5t-66.5 -60.5t-117.5 -26h-4q-72 0 -117.5 26t-66.5 60.5t-25 65.5v92h103z" />
    <glyph glyph-name="dotaccent" unicode="&#x2d9;" horiz-adv-x="274" 
d="M61 1317v53q9 57 76 57q35 0 54 -15.5t22 -41.5v-53q-3 -26 -22 -41.5t-54 -15.5q-67 0 -76 57z" />
    <glyph glyph-name="ring" unicode="&#x2da;" horiz-adv-x="475" 
d="M83.5 1485.5q17.5 29.5 55.5 51.5t97 22h4q59 0 97 -22t55.5 -51.5t21.5 -55.5v-95q-4 -26 -21.5 -55.5t-55.5 -51.5t-97 -22h-4q-60 0 -97.5 22t-55 51t-22.5 56v95q5 26 22.5 55.5zM236 1294h4q42 0 59 18.5t23 43.5v53q-6 25 -23 43t-59 18h-4q-70 0 -82 -61v-53
q12 -62 82 -62z" />
    <glyph glyph-name="ogonek" unicode="&#x2db;" horiz-adv-x="348" 
d="M182 -97q-16 -26 -16 -53q0 -26 8.5 -41.5t28.5 -21.5h55v-92h-102q-42 11 -68.5 49.5t-26.5 95.5q0 56 29 102t80 89l61 51h56v-82l-51 -41q-38 -30 -54 -56z" />
    <glyph glyph-name="tilde" unicode="&#x2dc;" horiz-adv-x="578" 
d="M106.5 1399q30.5 18 73.5 18q28 0 52.5 -6t66.5 -20q34 -12 52 -16.5t34 -4.5q31 0 37 23v20h94v-78q-14 -31 -45 -49t-74 -18q-28 0 -52 6t-66 20q-35 12 -53 16.5t-33 4.5q-31 0 -37 -23v-20h-95v78q15 31 45.5 49z" />
    <glyph glyph-name="hungarumlaut" unicode="&#x2dd;" horiz-adv-x="537" 
d="M168 1214h-107l111 261h96v-72zM369 1214h-107l117 261h96v-72z" />
    <glyph glyph-name="gravecomb" unicode="&#x300;" 
d="M326 1214h-107l-158 175v86h97z" />
    <glyph glyph-name="acutecomb" unicode="&#x301;" 
d="M326 1475v-86l-158 -175h-107l168 261h97z" />
    <glyph glyph-name="uni0302" unicode="&#x302;" 
d="M61 1272l148 203h102l148 -203v-58h-76l-61 82q-17 23 -34.5 48t-23.5 34h-8l-57 -82l-62 -82h-76v58z" />
    <glyph glyph-name="tildecomb" unicode="&#x303;" 
d="M106.5 1399q30.5 18 73.5 18q28 0 52.5 -6t66.5 -20q34 -12 52 -16.5t34 -4.5q31 0 37 23v20h94v-78q-14 -31 -45 -49t-74 -18q-28 0 -52 6t-66 20q-35 12 -53 16.5t-33 4.5q-31 0 -37 -23v-20h-95v78q15 31 45.5 49z" />
    <glyph glyph-name="uni0304" unicode="&#x304;" 
d="M459 1395v-105h-398v105h398z" />
    <glyph glyph-name="uni0306" unicode="&#x306;" 
d="M154 1458v-67q5 -29 27.5 -52.5t78.5 -23.5h4q56 0 79 23.5t28 52.5v67h102v-92q-4 -31 -25 -65.5t-66.5 -60.5t-117.5 -26h-4q-72 0 -117.5 26t-66.5 60.5t-25 65.5v92h103z" />
    <glyph glyph-name="uni0307" unicode="&#x307;" 
d="M61 1317v53q9 57 76 57q35 0 54 -15.5t22 -41.5v-53q-3 -26 -22 -41.5t-54 -15.5q-67 0 -76 57z" />
    <glyph glyph-name="uni0308" unicode="&#x308;" 
d="M61 1317v53q9 57 76 57q35 0 54 -15.5t22 -41.5v-53q-3 -26 -22 -41.5t-54 -15.5q-67 0 -76 57zM317 1275.5q-19 15.5 -22 41.5v53q3 26 22 41.5t54 15.5t53.5 -15.5t21.5 -41.5v-53q-3 -26 -21.5 -41.5t-53.5 -15.5t-54 15.5z" />
    <glyph glyph-name="uni030A" unicode="&#x30a;" 
d="M83.5 1485.5q17.5 29.5 55.5 51.5t97 22h4q59 0 97 -22t55.5 -51.5t21.5 -55.5v-95q-4 -26 -21.5 -55.5t-55.5 -51.5t-97 -22h-4q-60 0 -97.5 22t-55 51t-22.5 56v95q5 26 22.5 55.5zM236 1294h4q42 0 59 18.5t23 43.5v53q-6 25 -23 43t-59 18h-4q-70 0 -82 -61v-53
q12 -62 82 -62z" />
    <glyph glyph-name="uni030B" unicode="&#x30b;" 
d="M168 1214h-107l111 261h96v-72zM369 1214h-107l117 261h96v-72z" />
    <glyph glyph-name="uni030C" unicode="&#x30c;" 
d="M459 1417l-148 -203h-102l-148 203v58h76l62 -82l57 -82h8q6 9 23.5 34t34.5 48l61 82h76v-58z" />
    <glyph glyph-name="uni0312" unicode="&#x312;" 
d="M131 1495h94q-22 -61 -35.5 -133.5t-13.5 -147.5h-115v84q25 127 70 197z" />
    <glyph glyph-name="dotbelowcomb" unicode="&#x323;" 
d="M61 -219v53q9 57 76 57q35 0 54 -15.5t22 -41.5v-53q-3 -26 -22 -41.5t-54 -15.5q-67 0 -76 57z" />
    <glyph glyph-name="uni0326" unicode="&#x326;" 
d="M111 -68h114v-75q-20 -108 -61 -185h-94q41 123 41 260z" />
    <glyph glyph-name="uni0327" unicode="&#x327;" 
d="M61 -281v78q27 38 43.5 89t16.5 104v63h115v-51q0 -81 -23 -154t-63 -129h-89z" />
    <glyph glyph-name="uni0328" unicode="&#x328;" 
d="M182 -97q-16 -26 -16 -53q0 -26 8.5 -41.5t28.5 -21.5h55v-92h-102q-42 11 -68.5 49.5t-26.5 95.5q0 56 29 102t80 89l61 51h56v-82l-51 -41q-38 -30 -54 -56z" />
    <glyph glyph-name="uni0335" unicode="&#x335;" 
d="M475 1294v-98h-414v98h414z" />
    <glyph glyph-name="uni0394" unicode="&#x394;" horiz-adv-x="715" 
d="M422 1393l258 -1393h-645l258 1393h129zM362 1227h-10l-172 -1123h355z" />
    <glyph glyph-name="uni03A9" unicode="&#x3a9;" horiz-adv-x="793" 
d="M51 104h96q42 0 63 -1t26 -1v4l-62 308l-13 66q-42 205 -72 379t-30 276v36q7 51 39 104.5t104.5 93.5t190.5 40h6q118 0 191 -40t105 -94t38 -104v-36q0 -102 -30 -276t-72 -379l-13 -66l-61 -308v-4q5 0 26 1t62 1h96v-104h-305v82l78 375q35 169 67.5 374t32.5 299v33
q-10 56 -60 100t-155 44h-6q-105 0 -155 -44t-60 -100v-33q0 -93 32.5 -297t68.5 -376l77 -375v-82h-305v104z" />
    <glyph glyph-name="uni03BC" unicode="&#x3bc;" horiz-adv-x="809" 
d="M238 1085v-933q20 -64 122 -64h5q62 0 113 29.5t87 75.5v892h115v-1085h-82l-23 86h-6q-44 -45 -104 -72.5t-127 -27.5h-4q-66 0 -113 21q17 -143 17 -232v-80h-115v1390h115z" />
    <glyph glyph-name="pi" unicode="&#x3c0;" horiz-adv-x="934" 
d="M174 981h-113v104h805v-104h-112v-799q0 -78 65 -78h47v-104h-108q-54 16 -87.5 56t-33.5 102v823h-346v-981h-117v981z" />
    <glyph glyph-name="Wgrave" unicode="&#x1e80;" horiz-adv-x="1163" 
d="M178 1393l80 -709q18 -156 36.5 -350.5t24.5 -253.5h19q5 59 24 253.5t37 350.5l82 709h201l82 -709q18 -156 37 -350.5t24 -253.5h19q6 59 25 253.5t36 350.5l80 709h105v-84l-150 -1309h-211l-84 786q-21 203 -36 347t-19 188h-17q-4 -44 -19 -188t-36 -347l-84 -786
h-211l-149 1309v84h104zM641 1495h-107l-158 145v89h99z" />
    <glyph glyph-name="wgrave" unicode="&#x1e81;" horiz-adv-x="1087" 
d="M156 1085l84 -577q18 -121 29 -215.5t15 -146t5 -64.5h26q1 13 5.5 64.5t15.5 146t29 215.5l84 577h190l84 -577q18 -121 29 -215.5t15 -146t5 -64.5h27q1 13 6 64.5t16.5 146t28.5 215.5l82 577h98v-79l-145 -1006h-199l-74 553l-59 453h-18l-60 -447l-74 -559h-198
l-146 1006v79h99zM621 1214h-107l-158 175v86h97z" />
    <glyph glyph-name="Wacute" unicode="&#x1e82;" horiz-adv-x="1163" 
d="M178 1393l80 -709q18 -156 36.5 -350.5t24.5 -253.5h19q5 59 24 253.5t37 350.5l82 709h201l82 -709q18 -156 37 -350.5t24 -253.5h19q6 59 25 253.5t36 350.5l80 709h105v-84l-150 -1309h-211l-84 786q-21 203 -36 347t-19 188h-17q-4 -44 -19 -188t-36 -347l-84 -786
h-211l-149 1309v84h104zM786 1729v-89l-158 -145h-107l166 234h99z" />
    <glyph glyph-name="wacute" unicode="&#x1e83;" horiz-adv-x="1087" 
d="M156 1085l84 -577q18 -121 29 -215.5t15 -146t5 -64.5h26q1 13 5.5 64.5t15.5 146t29 215.5l84 577h190l84 -577q18 -121 29 -215.5t15 -146t5 -64.5h27q1 13 6 64.5t16.5 146t28.5 215.5l82 577h98v-79l-145 -1006h-199l-74 553l-59 453h-18l-60 -447l-74 -559h-198
l-146 1006v79h99zM730 1475v-86l-158 -175h-107l168 261h97z" />
    <glyph glyph-name="Wdieresis" unicode="&#x1e84;" horiz-adv-x="1163" 
d="M178 1393l80 -709q18 -156 36.5 -350.5t24.5 -253.5h19q5 59 24 253.5t37 350.5l82 709h201l82 -709q18 -156 37 -350.5t24 -253.5h19q6 59 25 253.5t36 350.5l80 709h105v-84l-150 -1309h-211l-84 786q-21 203 -36 347t-19 188h-17q-4 -44 -19 -188t-36 -347l-84 -786
h-211l-149 1309v84h104zM388 1585v53q4 27 22.5 42.5t53.5 15.5t54 -16t22 -42v-53q-3 -26 -22 -41.5t-54 -15.5q-67 0 -76 57zM644 1543.5q-19 15.5 -22 41.5v53q3 26 22 42t54 16t53.5 -16t21.5 -42v-53q-3 -26 -21.5 -41.5t-53.5 -15.5t-54 15.5z" />
    <glyph glyph-name="wdieresis" unicode="&#x1e85;" horiz-adv-x="1087" 
d="M156 1085l84 -577q18 -121 29 -215.5t15 -146t5 -64.5h26q1 13 5.5 64.5t15.5 146t29 215.5l84 577h190l84 -577q18 -121 29 -215.5t15 -146t5 -64.5h27q1 13 6 64.5t16.5 146t28.5 215.5l82 577h98v-79l-145 -1006h-199l-74 553l-59 453h-18l-60 -447l-74 -559h-198
l-146 1006v79h99zM350 1317v53q9 57 76 57q35 0 54 -15.5t22 -41.5v-53q-3 -26 -22 -41.5t-54 -15.5q-67 0 -76 57zM606 1275.5q-19 15.5 -22 41.5v53q3 26 22 41.5t54 15.5t53.5 -15.5t21.5 -41.5v-53q-3 -26 -21.5 -41.5t-53.5 -15.5t-54 15.5z" />
    <glyph glyph-name="uni1E9E" unicode="&#x1e9e;" horiz-adv-x="887" 
d="M170 1286q32 51 99.5 87t174.5 36h5q169 0 244 -71t87 -164v-234q0 -80 -42 -141t-109 -84v-6q72 -22 117 -84t45 -158v-221q-10 -113 -95 -179.5t-239 -66.5h-103v106h101q103 0 159 39t56 103v213q0 66 -19 106t-54 60.5t-89 31.5h-156v107h156q67 13 109 60.5
t42 134.5v204q-8 63 -59 102.5t-151 39.5h-5q-90 0 -136.5 -39.5t-55.5 -89.5v-1178h-121v1184q7 51 39 102z" />
    <glyph glyph-name="uni1EA0" unicode="&#x1ea0;" horiz-adv-x="817" 
d="M72 127l215 1266h243l215 -1266v-127h-120v109l-33 208q-90 -18 -186 -18t-185 18l-33 -208v-109h-116v127zM406 410q89 0 168 18l-80 500q-18 115 -33.5 221t-20.5 143h-65l-56 -364l-80 -501q82 -17 167 -17zM330 -219v53q9 57 76 57q35 0 54 -15.5t22 -41.5v-53
q-3 -26 -22 -41.5t-54 -15.5q-67 0 -76 57z" />
    <glyph glyph-name="uni1EA1" unicode="&#x1ea1;" horiz-adv-x="766" 
d="M429.5 9q-60.5 -25 -122.5 -25h-4q-66 0 -112 21.5t-70 54t-31 67.5v291q0 92 66 138t176 46h196v332q-6 25 -41.5 45t-103.5 20h-4q-62 0 -99 -13.5t-53 -31.5v-143h-114v190q29 38 98.5 69.5t171.5 31.5h4q125 0 183 -42t73 -95v-965h-86l-16 78h-6q-45 -44 -105.5 -69
zM326 88h4q54 0 105.5 23t92.5 61v326h-213q-108 0 -108 -95v-241q10 -74 119 -74zM293 -219v53q9 57 76 57q35 0 54 -15.5t22 -41.5v-53q-3 -26 -22 -41.5t-54 -15.5q-67 0 -76 57z" />
    <glyph glyph-name="uni1EB8" unicode="&#x1eb8;" horiz-adv-x="717" 
d="M131 1393h528l-18 -107h-389v-528h338v-107h-338v-545h395v-106h-516v1393zM313 -219v53q9 57 76 57q35 0 54 -15.5t22 -41.5v-53q-3 -26 -22 -41.5t-54 -15.5q-67 0 -76 57z" />
    <glyph glyph-name="uni1EB9" unicode="&#x1eb9;" horiz-adv-x="768" 
d="M109 897q6 44 33.5 90t88 80.5t158.5 34.5h4q99 0 160 -34.5t88.5 -81t32.5 -89.5v-403h-451v-291q7 -45 43 -82t125 -37h4q62 0 100 17.5t52 39.5v119h115v-160q-29 -51 -100 -83.5t-167 -32.5h-4q-99 0 -160 34.5t-88.5 80.5t-33.5 89v709zM559 598v285q-7 44 -43 81
t-123 37h-4q-87 0 -123 -37t-43 -81v-285h336zM317 -219v53q9 57 76 57q35 0 54 -15.5t22 -41.5v-53q-3 -26 -22 -41.5t-54 -15.5q-67 0 -76 57z" />
    <glyph glyph-name="uni1EBC" unicode="&#x1ebc;" horiz-adv-x="717" 
d="M131 1393h528l-18 -107h-389v-528h338v-107h-338v-545h395v-106h-516v1393zM210.5 1667.5q30.5 18.5 73.5 18.5q28 0 51.5 -6t67.5 -21q34 -12 52 -16.5t34 -4.5q30 0 37 23v20h94v-77q-14 -31 -45 -49.5t-74 -18.5q-28 0 -52.5 6t-65.5 21q-36 12 -53.5 16t-32.5 4
q-31 0 -37 -22v-21h-95v78q15 31 45.5 49.5z" />
    <glyph glyph-name="uni1EBD" unicode="&#x1ebd;" horiz-adv-x="768" 
d="M109 897q6 44 33.5 90t88 80.5t158.5 34.5h4q99 0 160 -34.5t88.5 -81t32.5 -89.5v-403h-451v-291q7 -45 43 -82t125 -37h4q62 0 100 17.5t52 39.5v119h115v-160q-29 -51 -100 -83.5t-167 -32.5h-4q-99 0 -160 34.5t-88.5 80.5t-33.5 89v709zM559 598v285q-7 44 -43 81
t-123 37h-4q-87 0 -123 -37t-43 -81v-285h336zM208.5 1399q30.5 18 73.5 18q28 0 52.5 -6t66.5 -20q34 -12 52 -16.5t34 -4.5q31 0 37 23v20h94v-78q-14 -31 -45 -49t-74 -18q-28 0 -52 6t-66 20q-35 12 -53 16.5t-33 4.5q-31 0 -37 -23v-20h-95v78q15 31 45.5 49z" />
    <glyph glyph-name="uni1ECA" unicode="&#x1eca;" horiz-adv-x="383" 
d="M252 1393v-1393h-121v1393h121zM114 -219v53q9 57 76 57q35 0 54 -15.5t22 -41.5v-53q-3 -26 -22 -41.5t-54 -15.5q-67 0 -76 57z" />
    <glyph glyph-name="uni1ECB" unicode="&#x1ecb;" horiz-adv-x="373" 
d="M129 1085h115v-1085h-115v1085zM132.5 1414q18.5 16 53.5 16q36 0 54.5 -15.5t21.5 -42.5v-53q-3 -26 -21.5 -41.5t-54.5 -15.5q-35 0 -53.5 15.5t-21.5 41.5v53q3 26 21.5 42zM110 -219v53q9 57 76 57q35 0 54 -15.5t22 -41.5v-53q-3 -26 -22 -41.5t-54 -15.5
q-67 0 -76 57z" />
    <glyph glyph-name="uni1ECC" unicode="&#x1ecc;" horiz-adv-x="905" 
d="M159 1280.5q34 51.5 106 90t186 38.5h4q113 0 185 -38.5t106 -90t45 -100.5v-967q-11 -50 -45 -101t-106 -89.5t-185 -38.5h-4q-114 0 -186 38.5t-106 90t-44 100.5v967q10 49 44 100.5zM299 128.5q51 -42.5 152 -42.5h4q100 0 151 42t64 93v950q-13 51 -64 93.5
t-151 42.5h-4q-101 0 -152 -42.5t-63 -93.5v-950q12 -50 63 -92.5zM377 -219v53q9 57 76 57q35 0 54 -15.5t22 -41.5v-53q-3 -26 -22 -41.5t-54 -15.5q-67 0 -76 57z" />
    <glyph glyph-name="uni1ECD" unicode="&#x1ecd;" horiz-adv-x="803" 
d="M143.5 987q28.5 46 91.5 80.5t164 34.5h4q102 0 165 -34.5t91.5 -80.5t34.5 -90v-709q-6 -43 -34.5 -89t-91.5 -80.5t-165 -34.5h-4q-101 0 -164 34.5t-91.5 80.5t-34.5 89v709q6 44 34.5 90zM268.5 121.5q38.5 -37.5 130.5 -37.5h4q93 0 131 37.5t46 81.5v680
q-8 44 -46 81t-131 37h-4q-92 0 -130.5 -37.5t-45.5 -80.5v-680q7 -44 45.5 -81.5zM325 -219v53q9 57 76 57q35 0 54 -15.5t22 -41.5v-53q-3 -26 -22 -41.5t-54 -15.5q-67 0 -76 57z" />
    <glyph glyph-name="uni1EE4" unicode="&#x1ee4;" horiz-adv-x="889" 
d="M248 1393v-1190q13 -47 60 -82t134 -35h4q87 0 134.5 35t60.5 82v1190h121v-1200q-18 -78 -90.5 -143.5t-225.5 -65.5h-4q-106 0 -173.5 34.5t-99.5 81.5t-42 93v1200h121zM368 -219v53q9 57 76 57q35 0 54 -15.5t22 -41.5v-53q-3 -26 -22 -41.5t-54 -15.5q-67 0 -76 57z
" />
    <glyph glyph-name="uni1EE5" unicode="&#x1ee5;" horiz-adv-x="809" 
d="M360 88h5q62 0 113 29.5t87 75.5v892h115v-1085h-82l-23 86h-6q-44 -45 -104 -72.5t-127 -27.5h-4q-102 0 -149.5 41t-61.5 90v968h115v-933q20 -64 122 -64zM325 -219v53q9 57 76 57q35 0 54 -15.5t22 -41.5v-53q-3 -26 -22 -41.5t-54 -15.5q-67 0 -76 57z" />
    <glyph glyph-name="Ygrave" unicode="&#x1ef2;" horiz-adv-x="750" 
d="M147 1393l121 -510q33 -140 57 -245t31 -138h37q7 33 31 136.5t57 242.5l121 514h98v-80l-221 -934h-43v-379h-123v379h-43l-221 934v80h98zM435 1495h-107l-158 145v89h99z" />
    <glyph glyph-name="ygrave" unicode="&#x1ef3;" horiz-adv-x="723" 
d="M156 1085l108 -577q34 -180 53.5 -288.5t24.5 -137.5h39q5 29 24.5 137.5t53.5 288.5l108 577h99v-79l-195 -1006l-10 -117q-14 -158 -150 -188h-147v104h102q29 3 47 12.5t29 32.5t14 66l6 90h-110l-195 1006v79h99zM438 1214h-107l-158 175v86h97z" />
    <glyph glyph-name="uni1EF8" unicode="&#x1ef8;" horiz-adv-x="750" 
d="M147 1393l121 -510q33 -140 57 -245t31 -138h37q7 33 31 136.5t57 242.5l121 514h98v-80l-221 -934h-43v-379h-123v379h-43l-221 934v80h98zM192.5 1667.5q30.5 18.5 73.5 18.5q28 0 51.5 -6t67.5 -21q34 -12 52 -16.5t34 -4.5q30 0 37 23v20h94v-77q-14 -31 -45 -49.5
t-74 -18.5q-28 0 -52.5 6t-65.5 21q-36 12 -53.5 16t-32.5 4q-31 0 -37 -22v-21h-95v78q15 31 45.5 49.5z" />
    <glyph glyph-name="uni1EF9" unicode="&#x1ef9;" horiz-adv-x="723" 
d="M156 1085l108 -577q34 -180 53.5 -288.5t24.5 -137.5h39q5 29 24.5 137.5t53.5 288.5l108 577h99v-79l-195 -1006l-10 -117q-14 -158 -150 -188h-147v104h102q29 3 47 12.5t29 32.5t14 66l6 90h-110l-195 1006v79h99zM177.5 1399q30.5 18 73.5 18q28 0 52.5 -6t66.5 -20
q34 -12 52 -16.5t34 -4.5q31 0 37 23v20h94v-78q-14 -31 -45 -49t-74 -18q-28 0 -52 6t-66 20q-35 12 -53 16.5t-33 4.5q-31 0 -37 -23v-20h-95v78q15 31 45.5 49z" />
    <glyph glyph-name="endash" unicode="&#x2013;" horiz-adv-x="819" 
d="M819 594v-102h-819v102h819z" />
    <glyph glyph-name="emdash" unicode="&#x2014;" horiz-adv-x="1638" 
d="M1638 594v-102h-1638v102h1638z" />
    <glyph glyph-name="quoteleft" unicode="&#x2018;" horiz-adv-x="264" 
d="M191.5 1309q-13.5 -105 -13.5 -232h-112v119q18 160 67 279h94q-22 -61 -35.5 -166z" />
    <glyph glyph-name="quoteright" unicode="&#x2019;" horiz-adv-x="264" 
d="M80.5 1243q13.5 105 13.5 232h112v-119q-18 -160 -67 -279h-94q22 61 35.5 166z" />
    <glyph glyph-name="quotesinglbase" unicode="&#x201a;" horiz-adv-x="263" 
d="M64.5 -76q13.5 105 13.5 232h112v-119q-18 -160 -67 -279h-94q22 61 35.5 166z" />
    <glyph glyph-name="quotedblleft" unicode="&#x201c;" horiz-adv-x="473" 
d="M191.5 1309q-13.5 -105 -13.5 -232h-112v119q18 160 67 279h94q-22 -61 -35.5 -166zM400.5 1309q-13.5 -105 -13.5 -232h-113v119q20 167 68 279h94q-22 -61 -35.5 -166z" />
    <glyph glyph-name="quotedblright" unicode="&#x201d;" horiz-adv-x="473" 
d="M289.5 1241.5q13.5 104.5 13.5 233.5h113v-119q-20 -167 -68 -279h-94q22 60 35.5 164.5zM80.5 1241.5q13.5 104.5 13.5 233.5h113v-119q-18 -163 -68 -279h-94q22 60 35.5 164.5z" />
    <glyph glyph-name="quotedblbase" unicode="&#x201e;" horiz-adv-x="473" 
d="M273.5 -77.5q13.5 104.5 13.5 233.5h113v-119q-20 -167 -68 -279h-94q22 60 35.5 164.5zM64.5 -77.5q13.5 104.5 13.5 233.5h113v-119q-18 -163 -68 -279h-94q22 60 35.5 164.5z" />
    <glyph glyph-name="dagger" unicode="&#x2020;" horiz-adv-x="647" 
d="M49 977h82q34 0 77 -2.5t56 -3.5l4 6q-1 15 -2.5 65t-1.5 91v260h119v-260q0 -41 -1.5 -91t-2.5 -65l4 -6q13 1 56 3.5t77 2.5h82v-105h-82q-34 0 -77 3t-56 4l-4 -7q1 -15 2.5 -64.5t1.5 -90.5v-928h-119v928q0 41 1.5 90.5t2.5 64.5l-4 7q-13 -1 -56 -4t-77 -3h-82v105
z" />
    <glyph glyph-name="daggerdbl" unicode="&#x2021;" horiz-adv-x="647" 
d="M49 309h82q34 0 77 -2.5t56 -3.5l4 6q-1 15 -2.5 65t-1.5 91v252q0 41 1.5 90.5t2.5 64.5l-4 7q-13 -1 -56 -4t-77 -3h-82v105h82q34 0 77 -2.5t56 -3.5l4 6q-1 15 -2.5 65t-1.5 91v260h119v-260q0 -41 -1.5 -91t-2.5 -65l4 -6q13 1 56 3.5t77 2.5h82v-105h-82
q-34 0 -77 3t-56 4l-4 -7q1 -15 2.5 -64.5t1.5 -90.5v-252q0 -41 -1.5 -91t-2.5 -65l4 -6q13 1 56 3.5t77 2.5h82v-104h-82q-34 0 -77 2.5t-56 3.5l-4 -6q1 -15 2.5 -65t1.5 -91v-260h-119v260q0 41 1.5 91t2.5 65l-4 6q-13 -1 -56 -3.5t-77 -2.5h-82v104z" />
    <glyph glyph-name="bullet" unicode="&#x2022;" horiz-adv-x="635" 
d="M176.5 344q-51.5 33 -72.5 88v221q44 121 213 121q90 0 141.5 -33t71.5 -88v-221q-20 -55 -71.5 -88t-141.5 -33q-89 0 -140.5 33z" />
    <glyph glyph-name="ellipsis" unicode="&#x2026;" horiz-adv-x="786" 
d="M75 5.5q-21 15.5 -24 43.5v57q3 28 24 44t56 16t56 -16t24 -44v-57q-3 -28 -24 -43.5t-56 -15.5t-56 15.5zM337 5.5q-21 15.5 -24 43.5v57q3 28 24 44t56 16t56 -16t24 -44v-57q-3 -28 -24 -43.5t-56 -15.5t-56 15.5zM599 5.5q-21 15.5 -24 43.5v57q3 28 24 44t56 16
t56 -16t24 -44v-57q-3 -28 -24 -43.5t-56 -15.5t-56 15.5z" />
    <glyph glyph-name="perthousand" unicode="&#x2030;" horiz-adv-x="2041" 
d="M136.5 1358q49.5 51 162.5 51h4q113 0 162.5 -51t60.5 -111v-536q-11 -61 -60.5 -111.5t-162.5 -50.5h-4q-113 0 -162.5 50.5t-60.5 111.5v536q11 60 60.5 111zM213.5 666q27.5 -25 85.5 -25h4q58 0 85.5 25t33.5 57v512q-6 32 -33.5 57t-85.5 25h-4q-58 0 -85.5 -25
t-33.5 -57v-512q6 -32 33.5 -57zM1112 1393v-60l-709 -1333h-76v59l709 1334h76zM973.5 793q49.5 51 162.5 51h4q113 0 162.5 -51t60.5 -111v-536q-11 -61 -60.5 -111.5t-162.5 -50.5h-4q-113 0 -162.5 50.5t-60.5 111.5v536q11 60 60.5 111zM1050.5 101q27.5 -25 85.5 -25
h4q58 0 85.5 25t33.5 57v512q-6 32 -33.5 57t-85.5 25h-4q-58 0 -85.5 -25t-33.5 -57v-512q6 -32 33.5 -57zM1575.5 793q49.5 51 162.5 51h4q113 0 162.5 -51t60.5 -111v-536q-11 -61 -60.5 -111.5t-162.5 -50.5h-4q-113 0 -162.5 50.5t-60.5 111.5v536q11 60 60.5 111z
M1652.5 101q27.5 -25 85.5 -25h4q58 0 85.5 25t33.5 57v512q-6 32 -33.5 57t-85.5 25h-4q-58 0 -85.5 -25t-33.5 -57v-512q6 -32 33.5 -57z" />
    <glyph glyph-name="guilsinglleft" unicode="&#x2039;" horiz-adv-x="414" 
d="M274 889h74v-76l-180 -266v-8l180 -267v-75h-74l-208 305v82z" />
    <glyph glyph-name="guilsinglright" unicode="&#x203a;" horiz-adv-x="414" 
d="M348 502l-209 -305h-73v75l180 267v8l-180 266v76h73l209 -305v-82z" />
    <glyph glyph-name="fraction" unicode="&#x2044;" horiz-adv-x="825" 
d="M805 1393v-60l-709 -1333h-76v59l709 1334h76z" />
    <glyph glyph-name="uni2070" unicode="&#x2070;" horiz-adv-x="602" 
d="M136.5 1768q49.5 51 162.5 51h4q113 0 162.5 -51t60.5 -111v-536q-11 -61 -60.5 -111.5t-162.5 -50.5h-4q-113 0 -162.5 50.5t-60.5 111.5v536q11 60 60.5 111zM213.5 1076q27.5 -25 85.5 -25h4q58 0 85.5 25t33.5 57v512q-6 32 -33.5 57t-85.5 25h-4q-58 0 -85.5 -25
t-33.5 -57v-512q6 -32 33.5 -57z" />
    <glyph glyph-name="uni2074" unicode="&#x2074;" horiz-adv-x="551" 
d="M332 1119h-324v86l246 598h182v-592h90v-92h-90v-144h-104v144zM332 1211v223l2 289h-21q-9 -25 -44.5 -117t-82.5 -209l-75 -186h221z" />
    <glyph glyph-name="uni2075" unicode="&#x2075;" horiz-adv-x="569" 
d="M485 1803v-93h-118q-65 0 -118 1t-71 2l-6 -78l-12 -152h2q29 24 68.5 37.5t86.5 13.5q78 0 128.5 -37.5t62.5 -103.5v-264q-8 -76 -67 -123t-169 -47q-81 0 -136 32t-77 89v110h103v-84q14 -25 45 -40t76 -15q47 0 78.5 19t44.5 53v256q-10 32 -38.5 50.5t-72.5 18.5
q-38 0 -73 -14t-58 -37v-74h-98v152l26 328h393z" />
    <glyph glyph-name="uni2076" unicode="&#x2076;" horiz-adv-x="580" 
d="M315 1689q-48 -34 -87.5 -91.5t-51.5 -134.5h4q29 32 72.5 49.5t91.5 17.5q82 0 127 -39t53 -98v-264q-11 -76 -68 -123t-157 -47t-157 47t-68 123v272q0 138 66 243.5t182 158.5h81v-68q-40 -12 -88 -46zM217 1071.5q31 -20.5 82 -20.5t81.5 20.5t39.5 55.5v258
q-10 28 -39.5 42.5t-71.5 14.5q-40 0 -74 -19t-57 -46v-250q8 -35 39 -55.5z" />
    <glyph glyph-name="uni2077" unicode="&#x2077;" horiz-adv-x="471" 
d="M442 1803v-101l-188 -616v-111h-104v113l188 620v2h-315v93h419z" />
    <glyph glyph-name="uni2078" unicode="&#x2078;" horiz-adv-x="578" 
d="M80.5 1342q19.5 31 52.5 49v4q-30 20 -47.5 52.5t-17.5 74.5v148q8 66 63.5 107.5t157.5 41.5t157.5 -42t63.5 -107v-148q0 -42 -18 -74.5t-48 -52.5v-4q33 -18 52.5 -49t19.5 -70v-157q-9 -70 -66.5 -113t-160.5 -43t-160.5 42.5t-67.5 113.5v157q0 39 19.5 70z
M185.5 1466q17.5 -20 43.5 -26h119q26 6 44 26t18 48v143q-6 31 -35.5 50.5t-85.5 19.5t-86 -19.5t-35 -50.5v-143q0 -28 17.5 -48zM201 1071q32 -20 88 -20t88 20t37 52v139q0 37 -20.5 60.5t-53.5 31.5h-102q-33 -8 -53.5 -31.5t-20.5 -60.5v-139q5 -32 37 -52z" />
    <glyph glyph-name="uni2079" unicode="&#x2079;" horiz-adv-x="580" 
d="M265 1089q48 34 87 91.5t51 134.5h-4q-29 -32 -72 -49.5t-91 -17.5q-82 0 -127 38.5t-54 98.5v264q12 76 69 123t157 47t157 -47t68 -123v-272q0 -138 -66 -243.5t-182 -158.5h-82v68q41 12 89 46zM199 1351q29 -15 71 -15q41 0 75 18.5t56 46.5v250q-8 35 -39 55.5
t-81 20.5q-51 0 -81.5 -20.5t-39.5 -55.5v-258q10 -27 39 -42z" />
    <glyph glyph-name="uni2080" unicode="&#x2080;" horiz-adv-x="602" 
d="M136.5 383q49.5 51 162.5 51h4q113 0 162.5 -51t60.5 -111v-536q-11 -61 -60.5 -111.5t-162.5 -50.5h-4q-113 0 -162.5 50.5t-60.5 111.5v536q11 60 60.5 111zM213.5 -309q27.5 -25 85.5 -25h4q58 0 85.5 25t33.5 57v512q-6 32 -33.5 57t-85.5 25h-4q-58 0 -85.5 -25
t-33.5 -57v-512q6 -32 33.5 -57z" />
    <glyph glyph-name="uni2081" unicode="&#x2081;" horiz-adv-x="375" 
d="M33 358l137 60h68v-729l104 -19v-80h-307v80l104 19v612h-106v57z" />
    <glyph glyph-name="uni2082" unicode="&#x2082;" horiz-adv-x="586" 
d="M161 409q60 25 132 25q100 0 157 -39t68 -102v-121q0 -63 -21 -115t-55 -96t-98 -113l-151 -164v-4q5 0 28 1t64 1h235v-92h-454v105l155 166q80 86 117 131t56.5 89.5t19.5 98.5v94q-5 31 -37 49.5t-88 18.5q-39 0 -70 -11t-49 -30v-129h-104v166q35 46 95 71z" />
    <glyph glyph-name="uni2083" unicode="&#x2083;" horiz-adv-x="569" 
d="M57 -199h103v-90q10 -19 41 -32t80 -13q54 0 84 20.5t38 51.5v211q-9 25 -37.5 41t-70.5 16q-28 0 -53 -9t-39 -22v-16h-99v96l289 270v3q-14 -1 -56 -2t-91 -1h-183v93h431v-109l-277 -258v-2q56 37 113 37q72 0 117.5 -33.5t58.5 -93.5v-215q-8 -74 -67.5 -122
t-168.5 -48q-83 0 -137 30.5t-76 79.5v117z" />
    <glyph glyph-name="uni2084" unicode="&#x2084;" horiz-adv-x="551" 
d="M332 -266h-324v86l246 598h182v-592h90v-92h-90v-144h-104v144zM332 -174v223l2 289h-21q-9 -25 -44.5 -117t-82.5 -209l-75 -186h221z" />
    <glyph glyph-name="uni2085" unicode="&#x2085;" horiz-adv-x="569" 
d="M485 418v-93h-118q-65 0 -118 1t-71 2l-6 -78l-12 -152h2q29 24 68.5 37.5t86.5 13.5q78 0 128.5 -37.5t62.5 -103.5v-264q-8 -76 -67 -123t-169 -47q-81 0 -136 32t-77 89v110h103v-84q14 -25 45 -40t76 -15q47 0 78.5 19t44.5 53v256q-10 32 -38.5 50.5t-72.5 18.5
q-38 0 -73 -14t-58 -37v-74h-98v152l26 328h393z" />
    <glyph glyph-name="uni2086" unicode="&#x2086;" horiz-adv-x="580" 
d="M315 304q-48 -34 -87.5 -91.5t-51.5 -134.5h4q29 32 72.5 49.5t91.5 17.5q82 0 127 -39t53 -98v-264q-11 -76 -68 -123t-157 -47t-157 47t-68 123v272q0 138 66 243.5t182 158.5h81v-68q-40 -12 -88 -46zM217 -313.5q31 -20.5 82 -20.5t81.5 20.5t39.5 55.5v258
q-10 28 -39.5 42.5t-71.5 14.5q-40 0 -74 -19t-57 -46v-250q8 -35 39 -55.5z" />
    <glyph glyph-name="uni2087" unicode="&#x2087;" horiz-adv-x="471" 
d="M442 418v-101l-188 -616v-111h-104v113l188 620v2h-315v93h419z" />
    <glyph glyph-name="uni2088" unicode="&#x2088;" horiz-adv-x="578" 
d="M80.5 -43q19.5 31 52.5 49v4q-30 20 -47.5 52.5t-17.5 74.5v148q8 66 63.5 107.5t157.5 41.5t157.5 -42t63.5 -107v-148q0 -42 -18 -74.5t-48 -52.5v-4q33 -18 52.5 -49t19.5 -70v-157q-9 -70 -66.5 -113t-160.5 -43t-160.5 42.5t-67.5 113.5v157q0 39 19.5 70zM185.5 81
q17.5 -20 43.5 -26h119q26 6 44 26t18 48v143q-6 31 -35.5 50.5t-85.5 19.5t-86 -19.5t-35 -50.5v-143q0 -28 17.5 -48zM201 -314q32 -20 88 -20t88 20t37 52v139q0 37 -20.5 60.5t-53.5 31.5h-102q-33 -8 -53.5 -31.5t-20.5 -60.5v-139q5 -32 37 -52z" />
    <glyph glyph-name="uni2089" unicode="&#x2089;" horiz-adv-x="580" 
d="M265 -296q48 34 87 91.5t51 134.5h-4q-29 -32 -72 -49.5t-91 -17.5q-82 0 -127 38.5t-54 98.5v264q12 76 69 123t157 47t157 -47t68 -123v-272q0 -138 -66 -243.5t-182 -158.5h-82v68q41 12 89 46zM199 -34q29 -15 71 -15q41 0 75 18.5t56 46.5v250q-8 35 -39 55.5
t-81 20.5q-51 0 -81.5 -20.5t-39.5 -55.5v-258q10 -27 39 -42z" />
    <glyph glyph-name="Euro" unicode="&#x20ac;" horiz-adv-x="846" 
d="M264 530v-309q6 -30 27 -60.5t62.5 -52.5t103.5 -22h4q90 0 134 40.5t60 90.5v180h117v-200q-22 -79 -91.5 -146t-219.5 -67h-4q-106 0 -173.5 38.5t-99 90t-41.5 100.5v317h-118v105h118v123h-118v104h118v318q10 49 41.5 100.5t99 90t173.5 38.5h4q150 0 219.5 -67
t91.5 -146v-201h-117v181q-16 50 -60 90.5t-134 40.5h-4q-62 0 -103.5 -22t-62.5 -53t-27 -61v-309h340v-104h-340v-123h340v-105h-340z" />
    <glyph glyph-name="trademark" unicode="&#x2122;" horiz-adv-x="1067" 
d="M154 1305h-138v88h379l-14 -88h-121v-670h-106v670zM442 1393h166l56 -463l24 -203h2l25 203l55 463h166v-758h-98v326q0 78 3.5 190t4.5 147h-6l-90 -663h-121l-90 663h-7q2 -35 5.5 -147t3.5 -190v-326h-99v758z" />
    <glyph glyph-name="uni2153" unicode="&#x2153;" horiz-adv-x="1261" 
d="M33 1333l137 60h68v-729l104 -19v-80h-307v80l104 19v612h-106v57zM932 1393v-60l-709 -1333h-76v59l709 1334h76zM749 211h103v-90q10 -19 41 -32t80 -13q54 0 84 20.5t38 51.5v211q-9 25 -37.5 41t-70.5 16q-28 0 -53 -9t-39 -22v-16h-99v96l289 270v3q-14 -1 -56 -2
t-91 -1h-183v93h431v-109l-277 -258v-2q56 37 113 37q72 0 117.5 -33.5t58.5 -93.5v-215q-8 -74 -67.5 -122t-168.5 -48q-83 0 -137 30.5t-76 79.5v117z" />
    <glyph glyph-name="uni2154" unicode="&#x2154;" horiz-adv-x="1419" 
d="M161 1384q60 25 132 25q100 0 157 -39t68 -102v-121q0 -63 -21 -115t-55 -96t-98 -113l-151 -164v-4q5 0 28 1t64 1h235v-92h-454v105l155 166q80 86 117 131t56.5 89.5t19.5 98.5v94q-5 31 -37 49.5t-88 18.5q-39 0 -70 -11t-49 -30v-129h-104v166q35 46 95 71z
M1090 1393v-60l-709 -1333h-76v59l709 1334h76zM907 211h103v-90q10 -19 41 -32t80 -13q54 0 84 20.5t38 51.5v211q-9 25 -37.5 41t-70.5 16q-28 0 -53 -9t-39 -22v-16h-99v96l289 270v3q-14 -1 -56 -2t-91 -1h-183v93h431v-109l-277 -258v-2q56 37 113 37q72 0 117.5 -33.5
t58.5 -93.5v-215q-8 -74 -67.5 -122t-168.5 -48q-83 0 -137 30.5t-76 79.5v117z" />
    <glyph glyph-name="oneeighth" unicode="&#x215b;" horiz-adv-x="1221" 
d="M33 1333l137 60h68v-729l104 -19v-80h-307v80l104 19v612h-106v57zM932 1393v-60l-709 -1333h-76v59l709 1334h76zM723.5 367q19.5 31 52.5 49v4q-30 20 -47.5 52.5t-17.5 74.5v148q8 66 63.5 107.5t157.5 41.5t157.5 -42t63.5 -107v-148q0 -42 -18 -74.5t-48 -52.5v-4
q33 -18 52.5 -49t19.5 -70v-157q-9 -70 -66.5 -113t-160.5 -43t-160.5 42.5t-67.5 113.5v157q0 39 19.5 70zM828.5 491q17.5 -20 43.5 -26h119q26 6 44 26t18 48v143q-6 31 -35.5 50.5t-85.5 19.5t-86 -19.5t-35 -50.5v-143q0 -28 17.5 -48zM844 96q32 -20 88 -20t88 20
t37 52v139q0 37 -20.5 60.5t-53.5 31.5h-102q-33 -8 -53.5 -31.5t-20.5 -60.5v-139q5 -32 37 -52z" />
    <glyph glyph-name="threeeighths" unicode="&#x215c;" horiz-adv-x="1399" 
d="M57 776h103v-90q10 -19 41 -32t80 -13q54 0 84 20.5t38 51.5v211q-9 25 -37.5 41t-70.5 16q-28 0 -53 -9t-39 -22v-16h-99v96l289 270v3q-14 -1 -56 -2t-91 -1h-183v93h431v-109l-277 -258v-2q56 37 113 37q72 0 117.5 -33.5t58.5 -93.5v-215q-8 -74 -67.5 -122
t-168.5 -48q-83 0 -137 30.5t-76 79.5v117zM1110 1393v-60l-709 -1333h-76v59l709 1334h76zM901.5 367q19.5 31 52.5 49v4q-30 20 -47.5 52.5t-17.5 74.5v148q8 66 63.5 107.5t157.5 41.5t157.5 -42t63.5 -107v-148q0 -42 -18 -74.5t-48 -52.5v-4q33 -18 52.5 -49t19.5 -70
v-157q-9 -70 -66.5 -113t-160.5 -43t-160.5 42.5t-67.5 113.5v157q0 39 19.5 70zM1006.5 491q17.5 -20 43.5 -26h119q26 6 44 26t18 48v143q-6 31 -35.5 50.5t-85.5 19.5t-86 -19.5t-35 -50.5v-143q0 -28 17.5 -48zM1022 96q32 -20 88 -20t88 20t37 52v139q0 37 -20.5 60.5
t-53.5 31.5h-102q-33 -8 -53.5 -31.5t-20.5 -60.5v-139q5 -32 37 -52z" />
    <glyph glyph-name="fiveeighths" unicode="&#x215d;" horiz-adv-x="1345" 
d="M485 1393v-93h-118q-65 0 -118 1t-71 2l-6 -78l-12 -152h2q29 24 68.5 37.5t86.5 13.5q78 0 128.5 -37.5t62.5 -103.5v-264q-8 -76 -67 -123t-169 -47q-81 0 -136 32t-77 89v110h103v-84q14 -25 45 -40t76 -15q47 0 78.5 19t44.5 53v256q-10 32 -38.5 50.5t-72.5 18.5
q-38 0 -73 -14t-58 -37v-74h-98v152l26 328h393zM1057 1393v-60l-709 -1333h-76v59l709 1334h76zM847.5 367q19.5 31 52.5 49v4q-30 20 -47.5 52.5t-17.5 74.5v148q8 66 63.5 107.5t157.5 41.5t157.5 -42t63.5 -107v-148q0 -42 -18 -74.5t-48 -52.5v-4q33 -18 52.5 -49
t19.5 -70v-157q-9 -70 -66.5 -113t-160.5 -43t-160.5 42.5t-67.5 113.5v157q0 39 19.5 70zM952.5 491q17.5 -20 43.5 -26h119q26 6 44 26t18 48v143q-6 31 -35.5 50.5t-85.5 19.5t-86 -19.5t-35 -50.5v-143q0 -28 17.5 -48zM968 96q32 -20 88 -20t88 20t37 52v139
q0 37 -20.5 60.5t-53.5 31.5h-102q-33 -8 -53.5 -31.5t-20.5 -60.5v-139q5 -32 37 -52z" />
    <glyph glyph-name="seveneighths" unicode="&#x215e;" horiz-adv-x="1212" 
d="M442 1393v-101l-188 -616v-111h-104v113l188 620v2h-315v93h419zM924 1393v-60l-709 -1333h-76v59l709 1334h76zM714.5 367q19.5 31 52.5 49v4q-30 20 -47.5 52.5t-17.5 74.5v148q8 66 63.5 107.5t157.5 41.5t157.5 -42t63.5 -107v-148q0 -42 -18 -74.5t-48 -52.5v-4
q33 -18 52.5 -49t19.5 -70v-157q-9 -70 -66.5 -113t-160.5 -43t-160.5 42.5t-67.5 113.5v157q0 39 19.5 70zM819.5 491q17.5 -20 43.5 -26h119q26 6 44 26t18 48v143q-6 31 -35.5 50.5t-85.5 19.5t-86 -19.5t-35 -50.5v-143q0 -28 17.5 -48zM835 96q32 -20 88 -20t88 20
t37 52v139q0 37 -20.5 60.5t-53.5 31.5h-102q-33 -8 -53.5 -31.5t-20.5 -60.5v-139q5 -32 37 -52z" />
    <glyph glyph-name="arrowleft" unicode="&#x2190;" horiz-adv-x="1024" 
d="M373 121l-363 385v74l363 385h71v-74l-215 -227l-71 -72v-2q9 0 39.5 1t76.5 1h740v-98h-740q-46 0 -76.5 1t-39.5 1v-2l71 -72l215 -227v-74h-71z" />
    <glyph glyph-name="arrowup" unicode="&#x2191;" horiz-adv-x="1024" 
d="M860 610l-227 215l-72 72h-2q0 -9 1 -40t1 -77v-739h-98v739q0 46 1 77t1 40h-2l-72 -72l-227 -215h-74v72l385 362h74l385 -362v-72h-74z" />
    <glyph glyph-name="arrowright" unicode="&#x2192;" horiz-adv-x="1024" 
d="M580 195l215 227l71 72v2q-9 0 -39.5 -1t-76.5 -1h-740v98h740q46 0 76.5 -1t39.5 -1v2l-71 72l-215 227v74h71l363 -385v-74l-363 -385h-71v74z" />
    <glyph glyph-name="arrowdown" unicode="&#x2193;" horiz-adv-x="1024" 
d="M164 475l227 -215l72 -72h2q0 9 -1 40t-1 77v739h98v-739q0 -46 -1 -77t-1 -40h2l72 72l227 215h74v-72l-385 -362h-74l-385 362v72h74z" />
    <glyph glyph-name="arrowboth" unicode="&#x2194;" horiz-adv-x="1024" 
d="M-10 580l362 385h72v-74l-215 -227l-72 -72v-2q9 0 40 1t77 1h516q46 0 77 -1t40 -1v2l-72 72l-215 227v74h72l362 -385v-74l-362 -385h-72v74l215 227l72 72v2q-9 0 -40 -1t-77 -1h-516q-46 0 -77 1t-40 1v-2l72 -72l215 -227v-74h-72l-362 385v74z" />
    <glyph glyph-name="arrowupdn" unicode="&#x2195;" horiz-adv-x="1024" 
d="M549 1065l385 -363v-71h-74l-227 215l-72 72h-2q0 -9 1 -40t1 -77v-516q0 -46 -1 -77t-1 -40h2l72 72l227 215h74v-72l-385 -363h-74l-385 363v72h74l227 -215l72 -72h2q0 9 -1 40t-1 77v516q0 46 1 77t1 40h-2l-72 -72l-227 -215h-74v71l385 363h74z" />
    <glyph glyph-name="uni2196" unicode="&#x2196;" horiz-adv-x="1024" 
d="M764 834l-313 -9h-103v-2l84 -82l522 -522l-69 -69l-523 522q-33 33 -54 55t-27 29v-103l-11 -311l-51 -53l-51 51l16 528l52 52l528 16l51 -51z" />
    <glyph glyph-name="uni2197" unicode="&#x2197;" horiz-adv-x="1024" 
d="M754 340l-9 313v103h-2q-6 -7 -27 -29t-54 -55l-523 -522l-69 69l522 522l84 82h-103l-311 11l-53 51l51 51l528 -16l52 -52l16 -528l-51 -51z" />
    <glyph glyph-name="uni2198" unicode="&#x2198;" horiz-adv-x="1024" 
d="M260 252l313 8h103v2l-84 82l-522 522l69 70l523 -522q33 -33 54 -55t27 -29v102l11 311l51 54l51 -52l-16 -528l-52 -51l-528 -16l-51 51z" />
    <glyph glyph-name="uni2199" unicode="&#x2199;" horiz-adv-x="1024" 
d="M270 745l9 -313v-102h2q6 7 27 29t54 55l523 522l69 -70l-522 -522l-84 -82h103l311 -10l53 -51l-51 -51l-528 16l-52 51l-16 528l51 52z" />
    <glyph glyph-name="minus" unicode="&#x2212;" horiz-adv-x="901" 
d="M813 594v-102h-725v102h725z" />
    <glyph glyph-name="uni2215" unicode="&#x2215;" horiz-adv-x="532" 
d="M522 1393v-86l-422 -1307h-90v86l422 1307h90z" />
    <glyph glyph-name="approxequal" unicode="&#x2248;" horiz-adv-x="901" 
d="M702 793h111v-80q-19 -55 -66.5 -87t-117.5 -32h-2q-48 0 -93 12.5t-104 36.5q-53 20 -84 29.5t-61 9.5h-2q-34 0 -54.5 -13.5t-29.5 -33.5v-41h-111v80q20 54 67.5 86.5t116.5 32.5h2q47 0 89.5 -12t108.5 -37q51 -20 82.5 -29.5t61.5 -9.5h2q34 0 54.5 13.5t29.5 33.5
v41zM702 492h111v-80q-19 -55 -66.5 -87t-117.5 -32h-2q-48 0 -93 12.5t-104 36.5q-53 20 -84 29.5t-61 9.5h-2q-34 0 -54.5 -13.5t-29.5 -33.5v-41h-111v80q20 54 67.5 86.5t116.5 32.5h2q48 0 91.5 -12.5t106.5 -37.5q51 -20 82.5 -29.5t61.5 -9.5h2q34 0 54.5 14t29.5 34
v41z" />
    <glyph glyph-name="notequal" unicode="&#x2260;" horiz-adv-x="901" 
d="M162 195l90 137h-164v102h230l143 217h-373v103h440l131 200h80v-67l-87 -133h161v-103h-228l-142 -217h370v-102h-437l-134 -205h-80v68z" />
    <glyph glyph-name="lessequal" unicode="&#x2264;" horiz-adv-x="901" 
d="M739 913h74v-88l-242 -110l-364 -168v-8q23 -11 114 -53.5t250 -114.5l242 -111v-88h-74l-651 315v111zM813 102v-102h-725v102h725z" />
    <glyph glyph-name="greaterequal" unicode="&#x2265;" horiz-adv-x="901" 
d="M813 487l-651 -315h-74v88l242 111q159 72 250 114.5t114 53.5v8l-364 168l-242 110v88h74l651 -315v-111zM813 0h-725v102h725v-102z" />
    <glyph glyph-name="IJacute" horiz-adv-x="1155" 
d="M252 1393v-1393h-121v1393h121zM395 1729v-89l-158 -145h-107l166 234h99zM1030 1393v-1211q-8 -41 -36 -86t-87.5 -78.5t-152.5 -33.5h-4q-131 0 -190 58t-81 128v451h119v-431q14 -41 48 -72.5t104 -31.5h8q70 0 106.5 33t44.5 71v1098h-311v-192h-119v297h551z
M961 1729v-89l-158 -145h-107l166 234h99z" />
    <glyph glyph-name="i.loclTRK" horiz-adv-x="373" 
d="M129 1085h115v-1085h-115v1085zM110 1317v53q9 57 76 57q35 0 54 -15.5t22 -41.5v-53q-3 -26 -22 -41.5t-54 -15.5q-67 0 -76 57z" />
    <glyph glyph-name="ijacute" horiz-adv-x="746" 
d="M129 1085h115v-1085h-115v1085zM356 1475v-86l-127 -175h-107l138 261h96zM617 1085v-1181q0 -80 -32.5 -136t-102.5 -73h-105v104h41q33 0 51 8t25.5 29.5t7.5 61.5v1187h115zM729 1475v-86l-127 -175h-107l138 261h96z" />
    <glyph glyph-name="I.ss01" horiz-adv-x="432" 
d="M156 106v1180l-90 21v86h301v-86l-91 -21v-1180l91 -20v-86h-301v86z" />
    <glyph glyph-name="U.ss01" horiz-adv-x="893" 
d="M762 1393v-1393h-88l-19 102h-6q-53 -52 -127.5 -84t-154.5 -32h-5q-114 0 -167.5 48.5t-67.5 104.5v1254h121v-1225q9 -32 41.5 -56t93.5 -24h4q68 0 133.5 31.5t120.5 87.5v1186h121z" />
    <glyph glyph-name="Y.ss01" horiz-adv-x="750" 
d="M147 1393l121 -510q33 -140 57 -245t31 -138h37q7 33 31 136.5t57 242.5l121 514h98v-80l-221 -934h-43v-268l146 -23v-88h-414v88l145 23v268h-43l-221 934v80h98z" />
    <glyph glyph-name="Iacute.ss01" horiz-adv-x="432" 
d="M156 106v1180l-90 21v86h301v-86l-91 -21v-1180l91 -20v-86h-301v86zM420 1729v-89l-158 -145h-107l166 234h99z" />
    <glyph glyph-name="Igrave.ss01" horiz-adv-x="432" 
d="M156 106v1180l-90 21v86h301v-86l-91 -21v-1180l91 -20v-86h-301v86zM275 1495h-107l-158 145v89h99z" />
    <glyph glyph-name="Icircumflex.ss01" horiz-adv-x="432" 
d="M156 106v1180l-90 21v86h301v-86l-91 -21v-1180l91 -20v-86h-301v86zM16 1571l148 158h102l148 -158v-76h-68l-53 59l-76 86h-4l-76 -86l-53 -59h-68v76z" />
    <glyph glyph-name="Idieresis.ss01" horiz-adv-x="432" 
d="M156 106v1180l-90 21v86h301v-86l-91 -21v-1180l91 -20v-86h-301v86zM22 1585v53q4 27 22.5 42.5t53.5 15.5t54 -16t22 -42v-53q-3 -26 -22 -41.5t-54 -15.5q-67 0 -76 57zM278 1543.5q-19 15.5 -22 41.5v53q3 26 22 42t54 16t53.5 -16t21.5 -42v-53q-3 -26 -21.5 -41.5
t-53.5 -15.5t-54 15.5z" />
    <glyph glyph-name="Ibreve.ss01" horiz-adv-x="432" 
d="M156 106v1180l-90 21v86h301v-86l-91 -21v-1180l91 -20v-86h-301v86zM107 1729v-62q5 -29 27.5 -52.5t78.5 -23.5h4q56 0 79 23.5t28 52.5v62h102v-87q-4 -31 -25 -65.5t-66.5 -60t-117.5 -25.5h-4q-71 0 -116.5 25.5t-67 60t-25.5 65.5v87h103z" />
    <glyph glyph-name="Idotaccent.ss01" horiz-adv-x="432" 
d="M156 106v1180l-90 21v86h301v-86l-91 -21v-1180l91 -20v-86h-301v86zM139 1585v53q4 27 22.5 42.5t53.5 15.5t54 -16t22 -42v-53q-3 -26 -22 -41.5t-54 -15.5q-67 0 -76 57z" />
    <glyph glyph-name="uni1ECA.ss01" horiz-adv-x="432" 
d="M156 106v1180l-90 21v86h301v-86l-91 -21v-1180l91 -20v-86h-301v86zM139 -219v53q9 57 76 57q35 0 54 -15.5t22 -41.5v-53q-3 -26 -22 -41.5t-54 -15.5q-67 0 -76 57z" />
    <glyph glyph-name="Imacron.ss01" horiz-adv-x="432" 
d="M156 106v1180l-90 21v86h301v-86l-91 -21v-1180l91 -20v-86h-301v86zM414 1663v-104h-398v104h398z" />
    <glyph glyph-name="Iogonek.ss01" horiz-adv-x="432" 
d="M156 106v1180l-90 21v86h301v-86l-91 -21v-1180l91 -20v-86l-51 -41q-38 -30 -54 -56t-16 -53q0 -26 8.5 -41.5t28.5 -21.5h55v-92h-102q-42 11 -68.5 49.5t-26.5 95.5q0 85 75 160h-150v86z" />
    <glyph glyph-name="Itilde.ss01" horiz-adv-x="432" 
d="M156 106v1180l-90 21v86h301v-86l-91 -21v-1180l91 -20v-86h-301v86zM32.5 1667.5q30.5 18.5 73.5 18.5q28 0 51.5 -6t67.5 -21q34 -12 52 -16.5t34 -4.5q30 0 37 23v20h94v-77q-14 -31 -45 -49.5t-74 -18.5q-28 0 -52.5 6t-65.5 21q-36 12 -53.5 16t-32.5 4
q-31 0 -37 -22v-21h-95v78q15 31 45.5 49.5z" />
    <glyph glyph-name="IJ.ss01" horiz-adv-x="1204" 
d="M156 106v1180l-90 21v86h301v-86l-91 -21v-1180l91 -20v-86h-301v86zM1079 1393v-1211q-8 -41 -36 -86t-87.5 -78.5t-152.5 -33.5h-4q-131 0 -190 58t-81 128v451h119v-431q14 -41 48 -72.5t104 -31.5h8q70 0 106.5 33t44.5 71v1098h-311v-192h-119v297h551z" />
    <glyph glyph-name="IJacute.ss01" horiz-adv-x="1204" 
d="M156 106v1180l-90 21v86h301v-86l-91 -21v-1180l91 -20v-86h-301v86zM420 1729v-89l-158 -145h-107l166 234h99zM1079 1393v-1211q-8 -41 -36 -86t-87.5 -78.5t-152.5 -33.5h-4q-131 0 -190 58t-81 128v451h119v-431q14 -41 48 -72.5t104 -31.5h8q70 0 106.5 33t44.5 71
v1098h-311v-192h-119v297h551zM1010 1729v-89l-158 -145h-107l166 234h99z" />
    <glyph glyph-name="Uacute.ss01" horiz-adv-x="893" 
d="M762 1393v-1393h-88l-19 102h-6q-53 -52 -127.5 -84t-154.5 -32h-5q-114 0 -167.5 48.5t-67.5 104.5v1254h121v-1225q9 -32 41.5 -56t93.5 -24h4q68 0 133.5 31.5t120.5 87.5v1186h121zM649 1729v-89l-158 -145h-107l166 234h99z" />
    <glyph glyph-name="Ugrave.ss01" horiz-adv-x="893" 
d="M762 1393v-1393h-88l-19 102h-6q-53 -52 -127.5 -84t-154.5 -32h-5q-114 0 -167.5 48.5t-67.5 104.5v1254h121v-1225q9 -32 41.5 -56t93.5 -24h4q68 0 133.5 31.5t120.5 87.5v1186h121zM504 1495h-107l-158 145v89h99z" />
    <glyph glyph-name="Ucircumflex.ss01" horiz-adv-x="893" 
d="M762 1393v-1393h-88l-19 102h-6q-53 -52 -127.5 -84t-154.5 -32h-5q-114 0 -167.5 48.5t-67.5 104.5v1254h121v-1225q9 -32 41.5 -56t93.5 -24h4q68 0 133.5 31.5t120.5 87.5v1186h121zM245 1571l148 158h102l148 -158v-76h-68l-53 59l-76 86h-4l-76 -86l-53 -59h-68v76z
" />
    <glyph glyph-name="Udieresis.ss01" horiz-adv-x="893" 
d="M762 1393v-1393h-88l-19 102h-6q-53 -52 -127.5 -84t-154.5 -32h-5q-114 0 -167.5 48.5t-67.5 104.5v1254h121v-1225q9 -32 41.5 -56t93.5 -24h4q68 0 133.5 31.5t120.5 87.5v1186h121zM251 1585v53q4 27 22.5 42.5t53.5 15.5t54 -16t22 -42v-53q-3 -26 -22 -41.5
t-54 -15.5q-67 0 -76 57zM507 1543.5q-19 15.5 -22 41.5v53q3 26 22 42t54 16t53.5 -16t21.5 -42v-53q-3 -26 -21.5 -41.5t-53.5 -15.5t-54 15.5z" />
    <glyph glyph-name="Ubreve.ss01" horiz-adv-x="893" 
d="M762 1393v-1393h-88l-19 102h-6q-53 -52 -127.5 -84t-154.5 -32h-5q-114 0 -167.5 48.5t-67.5 104.5v1254h121v-1225q9 -32 41.5 -56t93.5 -24h4q68 0 133.5 31.5t120.5 87.5v1186h121zM336 1729v-62q5 -29 27.5 -52.5t78.5 -23.5h4q56 0 79 23.5t28 52.5v62h102v-87
q-4 -31 -25 -65.5t-66.5 -60t-117.5 -25.5h-4q-71 0 -116.5 25.5t-67 60t-25.5 65.5v87h103z" />
    <glyph glyph-name="uni1EE4.ss01" horiz-adv-x="893" 
d="M762 1393v-1393h-88l-19 102h-6q-53 -52 -127.5 -84t-154.5 -32h-5q-114 0 -167.5 48.5t-67.5 104.5v1254h121v-1225q9 -32 41.5 -56t93.5 -24h4q68 0 133.5 31.5t120.5 87.5v1186h121zM368 -219v53q9 57 76 57q35 0 54 -15.5t22 -41.5v-53q-3 -26 -22 -41.5t-54 -15.5
q-67 0 -76 57z" />
    <glyph glyph-name="Uhungarumlaut.ss01" horiz-adv-x="893" 
d="M762 1393v-1393h-88l-19 102h-6q-53 -52 -127.5 -84t-154.5 -32h-5q-114 0 -167.5 48.5t-67.5 104.5v1254h121v-1225q9 -32 41.5 -56t93.5 -24h4q68 0 133.5 31.5t120.5 87.5v1186h121zM475 1657l-86 -162h-109l99 234h96v-72zM680 1657l-94 -162h-107l105 234h96v-72z
" />
    <glyph glyph-name="Umacron.ss01" horiz-adv-x="893" 
d="M762 1393v-1393h-88l-19 102h-6q-53 -52 -127.5 -84t-154.5 -32h-5q-114 0 -167.5 48.5t-67.5 104.5v1254h121v-1225q9 -32 41.5 -56t93.5 -24h4q68 0 133.5 31.5t120.5 87.5v1186h121zM643 1663v-104h-398v104h398z" />
    <glyph glyph-name="Uogonek.ss01" horiz-adv-x="893" 
d="M762 1393v-1393l-51 -41q-38 -30 -54 -56t-16 -53q0 -26 8.5 -41.5t28.5 -21.5h55v-92h-102q-42 11 -68.5 49.5t-26.5 95.5q0 56 29 102t80 89l20 17l-10 54h-6q-53 -52 -127.5 -84t-154.5 -32h-5q-114 0 -167.5 48.5t-67.5 104.5v1254h121v-1225q9 -32 41.5 -56
t93.5 -24h4q68 0 133.5 31.5t120.5 87.5v1186h121z" />
    <glyph glyph-name="Uring.ss01" horiz-adv-x="893" 
d="M762 1393v-1393h-88l-19 102h-6q-53 -52 -127.5 -84t-154.5 -32h-5q-114 0 -167.5 48.5t-67.5 104.5v1254h121v-1225q9 -32 41.5 -56t93.5 -24h4q68 0 133.5 31.5t120.5 87.5v1186h121zM289.5 1750q17.5 29 55 51t97.5 22h4q59 0 97 -22t55.5 -51.5t21.5 -55.5v-95
q-4 -26 -21.5 -55.5t-55.5 -51.5t-97 -22h-4q-59 0 -97 22t-55.5 51.5t-22.5 55.5v95q5 27 22.5 56zM442 1559h4q42 0 59 18t23 43v53q-6 25 -23 43.5t-59 18.5h-4q-70 0 -82 -62v-53q12 -61 82 -61z" />
    <glyph glyph-name="Utilde.ss01" horiz-adv-x="893" 
d="M762 1393v-1393h-88l-19 102h-6q-53 -52 -127.5 -84t-154.5 -32h-5q-114 0 -167.5 48.5t-67.5 104.5v1254h121v-1225q9 -32 41.5 -56t93.5 -24h4q68 0 133.5 31.5t120.5 87.5v1186h121zM261.5 1667.5q30.5 18.5 73.5 18.5q28 0 51.5 -6t67.5 -21q34 -12 52 -16.5t34 -4.5
q30 0 37 23v20h94v-77q-14 -31 -45 -49.5t-74 -18.5q-28 0 -52.5 6t-65.5 21q-36 12 -53.5 16t-32.5 4q-31 0 -37 -22v-21h-95v78q15 31 45.5 49.5z" />
    <glyph glyph-name="Yacute.ss01" horiz-adv-x="750" 
d="M147 1393l121 -510q33 -140 57 -245t31 -138h37q7 33 31 136.5t57 242.5l121 514h98v-80l-221 -934h-43v-268l146 -23v-88h-414v88l145 23v268h-43l-221 934v80h98zM580 1729v-89l-158 -145h-107l166 234h99z" />
    <glyph glyph-name="Ydieresis.ss01" horiz-adv-x="750" 
d="M147 1393l121 -510q33 -140 57 -245t31 -138h37q7 33 31 136.5t57 242.5l121 514h98v-80l-221 -934h-43v-268l146 -23v-88h-414v88l145 23v268h-43l-221 934v80h98zM182 1585v53q4 27 22.5 42.5t53.5 15.5t54 -16t22 -42v-53q-3 -26 -22 -41.5t-54 -15.5q-67 0 -76 57z
M438 1543.5q-19 15.5 -22 41.5v53q3 26 22 42t54 16t53.5 -16t21.5 -42v-53q-3 -26 -21.5 -41.5t-53.5 -15.5t-54 15.5z" />
    <glyph glyph-name="Ycircumflex.ss01" horiz-adv-x="750" 
d="M147 1393l121 -510q33 -140 57 -245t31 -138h37q7 33 31 136.5t57 242.5l121 514h98v-80l-221 -934h-43v-268l146 -23v-88h-414v88l145 23v268h-43l-221 934v80h98zM176 1571l148 158h102l148 -158v-76h-68l-53 59l-76 86h-4l-76 -86l-53 -59h-68v76z" />
    <glyph glyph-name="Ygrave.ss01" horiz-adv-x="750" 
d="M147 1393l121 -510q33 -140 57 -245t31 -138h37q7 33 31 136.5t57 242.5l121 514h98v-80l-221 -934h-43v-268l146 -23v-88h-414v88l145 23v268h-43l-221 934v80h98zM435 1495h-107l-158 145v89h99z" />
    <glyph glyph-name="uni0232.ss01" horiz-adv-x="750" 
d="M147 1393l121 -510q33 -140 57 -245t31 -138h37q7 33 31 136.5t57 242.5l121 514h98v-80l-221 -934h-43v-268l146 -23v-88h-414v88l145 23v268h-43l-221 934v80h98zM574 1663v-104h-398v104h398z" />
    <glyph glyph-name="uni1EF8.ss01" horiz-adv-x="750" 
d="M147 1393l121 -510q33 -140 57 -245t31 -138h37q7 33 31 136.5t57 242.5l121 514h98v-80l-221 -934h-43v-268l146 -23v-88h-414v88l145 23v268h-43l-221 934v80h98zM192.5 1667.5q30.5 18.5 73.5 18.5q28 0 51.5 -6t67.5 -21q34 -12 52 -16.5t34 -4.5q30 0 37 23v20h94
v-77q-14 -31 -45 -49.5t-74 -18.5q-28 0 -52.5 6t-65.5 21q-36 12 -53.5 16t-32.5 4q-31 0 -37 -22v-21h-95v78q15 31 45.5 49.5z" />
    <glyph glyph-name="a.ss02" horiz-adv-x="807" 
d="M684 1085v-1085h-82l-31 80h-4q-42 -39 -102 -63.5t-125 -24.5h-4q-72 0 -122 25.5t-76 62.5t-29 72v780q3 34 29 71t76 63t122 26h4q66 0 125.5 -25t101.5 -63h4l39 81h74zM237.5 139.5q13.5 -18.5 45 -33t82.5 -14.5h4q56 0 107.5 25t92.5 69v711q-37 41 -88.5 67.5
t-107.5 26.5h-4q-53 0 -85.5 -14.5t-46 -33t-14.5 -32.5v-739q1 -14 14.5 -32.5z" />
    <glyph glyph-name="g.ss02" horiz-adv-x="807" 
d="M132 1003.5q26 37.5 76 63t122 25.5h4q66 0 125.5 -25t101.5 -63h4l39 81h74v-1220q-19 -75 -87.5 -131t-209.5 -56h-4q-86 0 -144 26t-89 64t-42 78v84h115v-63q12 -35 54.5 -60.5t109.5 -25.5h4q88 0 126.5 27t51.5 71v103q0 36 4 106h-6q-42 -39 -102 -63.5
t-125 -24.5h-4q-72 0 -122 25.5t-76 63t-30 73.5v770q4 34 30 71.5zM231.5 146.5q13.5 -18.5 44.5 -32.5t82 -14h4q57 0 108.5 25t92.5 70v702q-37 40 -88.5 67t-107.5 27h-5q-53 0 -85 -14.5t-45.5 -33t-14.5 -32.5v-731q1 -15 14.5 -33.5z" />
    <glyph glyph-name="i.ss02" horiz-adv-x="379" 
d="M250 0h-115v985l-80 19v81h195v-1085zM138.5 1414.5q18.5 15.5 54.5 15.5q35 0 53.5 -16t21.5 -42v-53q-3 -26 -21.5 -41.5t-53.5 -15.5q-36 0 -54.5 15.5t-21.5 41.5v53q3 27 21.5 42.5z" />
    <glyph glyph-name="j.ss02" horiz-adv-x="379" 
d="M217.5 -232q-32.5 -56 -102.5 -73h-105v104h41q33 0 51 8t25.5 29.5t7.5 61.5v1087l-80 19v81h195v-1181q0 -80 -32.5 -136zM138.5 1414.5q18.5 15.5 54.5 15.5q35 0 53.5 -16t21.5 -42v-53q-3 -26 -21.5 -41.5t-53.5 -15.5q-36 0 -54.5 15.5t-21.5 41.5v53
q3 27 21.5 42.5z" />
    <glyph glyph-name="y.ss02" horiz-adv-x="809" 
d="M567 92h-4q-41 -41 -99.5 -67.5t-125.5 -26.5h-4q-102 0 -149.5 41t-61.5 90v956h115v-921q20 -64 122 -64h5q62 0 113 29.5t87 75.5v880h115v-1200q0 -94 -74.5 -150.5t-224.5 -56.5h-4q-79 0 -145.5 17t-108.5 47v113h117v-41q22 -16 59 -24.5t80 -8.5h4q95 0 136 28
t46 89v53q0 108 2 141z" />
    <glyph glyph-name="aacute.ss02" horiz-adv-x="807" 
d="M684 1085v-1085h-82l-31 80h-4q-42 -39 -102 -63.5t-125 -24.5h-4q-72 0 -122 25.5t-76 62.5t-29 72v780q3 34 29 71t76 63t122 26h4q66 0 125.5 -25t101.5 -63h4l39 81h74zM237.5 139.5q13.5 -18.5 45 -33t82.5 -14.5h4q56 0 107.5 25t92.5 69v711q-37 41 -88.5 67.5
t-107.5 26.5h-4q-53 0 -85.5 -14.5t-46 -33t-14.5 -32.5v-739q1 -14 14.5 -32.5zM590 1475v-86l-158 -175h-107l168 261h97z" />
    <glyph glyph-name="agrave.ss02" horiz-adv-x="807" 
d="M684 1085v-1085h-82l-31 80h-4q-42 -39 -102 -63.5t-125 -24.5h-4q-72 0 -122 25.5t-76 62.5t-29 72v780q3 34 29 71t76 63t122 26h4q66 0 125.5 -25t101.5 -63h4l39 81h74zM237.5 139.5q13.5 -18.5 45 -33t82.5 -14.5h4q56 0 107.5 25t92.5 69v711q-37 41 -88.5 67.5
t-107.5 26.5h-4q-53 0 -85.5 -14.5t-46 -33t-14.5 -32.5v-739q1 -14 14.5 -32.5zM481 1214h-107l-158 175v86h97z" />
    <glyph glyph-name="acircumflex.ss02" horiz-adv-x="807" 
d="M684 1085v-1085h-82l-31 80h-4q-42 -39 -102 -63.5t-125 -24.5h-4q-72 0 -122 25.5t-76 62.5t-29 72v780q3 34 29 71t76 63t122 26h4q66 0 125.5 -25t101.5 -63h4l39 81h74zM237.5 139.5q13.5 -18.5 45 -33t82.5 -14.5h4q56 0 107.5 25t92.5 69v711q-37 41 -88.5 67.5
t-107.5 26.5h-4q-53 0 -85.5 -14.5t-46 -33t-14.5 -32.5v-739q1 -14 14.5 -32.5zM204 1272l148 203h102l148 -203v-58h-76l-61 82q-17 23 -34.5 48t-23.5 34h-8l-57 -82l-62 -82h-76v58z" />
    <glyph glyph-name="adieresis.ss02" horiz-adv-x="807" 
d="M684 1085v-1085h-82l-31 80h-4q-42 -39 -102 -63.5t-125 -24.5h-4q-72 0 -122 25.5t-76 62.5t-29 72v780q3 34 29 71t76 63t122 26h4q66 0 125.5 -25t101.5 -63h4l39 81h74zM237.5 139.5q13.5 -18.5 45 -33t82.5 -14.5h4q56 0 107.5 25t92.5 69v711q-37 41 -88.5 67.5
t-107.5 26.5h-4q-53 0 -85.5 -14.5t-46 -33t-14.5 -32.5v-739q1 -14 14.5 -32.5zM210 1317v53q9 57 76 57q35 0 54 -15.5t22 -41.5v-53q-3 -26 -22 -41.5t-54 -15.5q-67 0 -76 57zM466 1275.5q-19 15.5 -22 41.5v53q3 26 22 41.5t54 15.5t53.5 -15.5t21.5 -41.5v-53
q-3 -26 -21.5 -41.5t-53.5 -15.5t-54 15.5z" />
    <glyph glyph-name="atilde.ss02" horiz-adv-x="807" 
d="M684 1085v-1085h-82l-31 80h-4q-42 -39 -102 -63.5t-125 -24.5h-4q-72 0 -122 25.5t-76 62.5t-29 72v780q3 34 29 71t76 63t122 26h4q66 0 125.5 -25t101.5 -63h4l39 81h74zM237.5 139.5q13.5 -18.5 45 -33t82.5 -14.5h4q56 0 107.5 25t92.5 69v711q-37 41 -88.5 67.5
t-107.5 26.5h-4q-53 0 -85.5 -14.5t-46 -33t-14.5 -32.5v-739q1 -14 14.5 -32.5zM220.5 1399q30.5 18 73.5 18q28 0 52.5 -6t66.5 -20q34 -12 52 -16.5t34 -4.5q31 0 37 23v20h94v-78q-14 -31 -45 -49t-74 -18q-28 0 -52 6t-66 20q-35 12 -53 16.5t-33 4.5q-31 0 -37 -23
v-20h-95v78q15 31 45.5 49z" />
    <glyph glyph-name="aring.ss02" horiz-adv-x="807" 
d="M684 1085v-1085h-82l-31 80h-4q-42 -39 -102 -63.5t-125 -24.5h-4q-72 0 -122 25.5t-76 62.5t-29 72v780q3 34 29 71t76 63t122 26h4q66 0 125.5 -25t101.5 -63h4l39 81h74zM237.5 139.5q13.5 -18.5 45 -33t82.5 -14.5h4q56 0 107.5 25t92.5 69v711q-37 41 -88.5 67.5
t-107.5 26.5h-4q-53 0 -85.5 -14.5t-46 -33t-14.5 -32.5v-739q1 -14 14.5 -32.5zM248.5 1485.5q17.5 29.5 55.5 51.5t97 22h4q59 0 97 -22t55.5 -51.5t21.5 -55.5v-95q-4 -26 -21.5 -55.5t-55.5 -51.5t-97 -22h-4q-60 0 -97.5 22t-55 51t-22.5 56v95q5 26 22.5 55.5z
M401 1294h4q42 0 59 18.5t23 43.5v53q-6 25 -23 43t-59 18h-4q-70 0 -82 -61v-53q12 -62 82 -62z" />
    <glyph glyph-name="abreve.ss02" horiz-adv-x="807" 
d="M684 1085v-1085h-82l-31 80h-4q-42 -39 -102 -63.5t-125 -24.5h-4q-72 0 -122 25.5t-76 62.5t-29 72v780q3 34 29 71t76 63t122 26h4q66 0 125.5 -25t101.5 -63h4l39 81h74zM237.5 139.5q13.5 -18.5 45 -33t82.5 -14.5h4q56 0 107.5 25t92.5 69v711q-37 41 -88.5 67.5
t-107.5 26.5h-4q-53 0 -85.5 -14.5t-46 -33t-14.5 -32.5v-739q1 -14 14.5 -32.5zM295 1458v-67q5 -29 27.5 -52.5t78.5 -23.5h4q56 0 79 23.5t28 52.5v67h102v-92q-4 -31 -25 -65.5t-66.5 -60.5t-117.5 -26h-4q-72 0 -117.5 26t-66.5 60.5t-25 65.5v92h103z" />
    <glyph glyph-name="uni1EA1.ss02" horiz-adv-x="807" 
d="M684 1085v-1085h-82l-31 80h-4q-42 -39 -102 -63.5t-125 -24.5h-4q-72 0 -122 25.5t-76 62.5t-29 72v780q3 34 29 71t76 63t122 26h4q66 0 125.5 -25t101.5 -63h4l39 81h74zM237.5 139.5q13.5 -18.5 45 -33t82.5 -14.5h4q56 0 107.5 25t92.5 69v711q-37 41 -88.5 67.5
t-107.5 26.5h-4q-53 0 -85.5 -14.5t-46 -33t-14.5 -32.5v-739q1 -14 14.5 -32.5zM327 -219v53q9 57 76 57q35 0 54 -15.5t22 -41.5v-53q-3 -26 -22 -41.5t-54 -15.5q-67 0 -76 57z" />
    <glyph glyph-name="amacron.ss02" horiz-adv-x="807" 
d="M684 1085v-1085h-82l-31 80h-4q-42 -39 -102 -63.5t-125 -24.5h-4q-72 0 -122 25.5t-76 62.5t-29 72v780q3 34 29 71t76 63t122 26h4q66 0 125.5 -25t101.5 -63h4l39 81h74zM237.5 139.5q13.5 -18.5 45 -33t82.5 -14.5h4q56 0 107.5 25t92.5 69v711q-37 41 -88.5 67.5
t-107.5 26.5h-4q-53 0 -85.5 -14.5t-46 -33t-14.5 -32.5v-739q1 -14 14.5 -32.5zM602 1395v-105h-398v105h398z" />
    <glyph glyph-name="aogonek.ss02" horiz-adv-x="807" 
d="M684 1085v-1085l-51 -41q-38 -30 -54 -56t-16 -53q0 -26 8.5 -41.5t28.5 -21.5h55v-92h-102q-42 11 -68.5 49.5t-26.5 95.5q0 56 29 102t80 89l17 15l-13 34h-4q-42 -39 -102 -63.5t-125 -24.5h-4q-72 0 -122 25.5t-76 62.5t-29 72v780q3 34 29 71t76 63t122 26h4
q66 0 125.5 -25t101.5 -63h4l39 81h74zM237.5 139.5q13.5 -18.5 45 -33t82.5 -14.5h4q56 0 107.5 25t92.5 69v711q-37 41 -88.5 67.5t-107.5 26.5h-4q-53 0 -85.5 -14.5t-46 -33t-14.5 -32.5v-739q1 -14 14.5 -32.5z" />
    <glyph glyph-name="gbreve.ss02" horiz-adv-x="807" 
d="M132 1003.5q26 37.5 76 63t122 25.5h4q66 0 125.5 -25t101.5 -63h4l39 81h74v-1220q-19 -75 -87.5 -131t-209.5 -56h-4q-86 0 -144 26t-89 64t-42 78v84h115v-63q12 -35 54.5 -60.5t109.5 -25.5h4q88 0 126.5 27t51.5 71v103q0 36 4 106h-6q-42 -39 -102 -63.5
t-125 -24.5h-4q-72 0 -122 25.5t-76 63t-30 73.5v770q4 34 30 71.5zM231.5 146.5q13.5 -18.5 44.5 -32.5t82 -14h4q57 0 108.5 25t92.5 70v702q-37 40 -88.5 67t-107.5 27h-5q-53 0 -85 -14.5t-45.5 -33t-14.5 -32.5v-731q1 -15 14.5 -33.5zM295 1458v-67q5 -29 27.5 -52.5
t78.5 -23.5h4q56 0 79 23.5t28 52.5v67h102v-92q-4 -31 -25 -65.5t-66.5 -60.5t-117.5 -26h-4q-72 0 -117.5 26t-66.5 60.5t-25 65.5v92h103z" />
    <glyph glyph-name="gcaron.ss02" horiz-adv-x="807" 
d="M132 1003.5q26 37.5 76 63t122 25.5h4q66 0 125.5 -25t101.5 -63h4l39 81h74v-1220q-19 -75 -87.5 -131t-209.5 -56h-4q-86 0 -144 26t-89 64t-42 78v84h115v-63q12 -35 54.5 -60.5t109.5 -25.5h4q88 0 126.5 27t51.5 71v103q0 36 4 106h-6q-42 -39 -102 -63.5
t-125 -24.5h-4q-72 0 -122 25.5t-76 63t-30 73.5v770q4 34 30 71.5zM231.5 146.5q13.5 -18.5 44.5 -32.5t82 -14h4q57 0 108.5 25t92.5 70v702q-37 40 -88.5 67t-107.5 27h-5q-53 0 -85 -14.5t-45.5 -33t-14.5 -32.5v-731q1 -15 14.5 -33.5zM602 1417l-148 -203h-102
l-148 203v58h76l62 -82l57 -82h8q6 9 23.5 34t34.5 48l61 82h76v-58z" />
    <glyph glyph-name="gcircumflex.ss02" horiz-adv-x="807" 
d="M132 1003.5q26 37.5 76 63t122 25.5h4q66 0 125.5 -25t101.5 -63h4l39 81h74v-1220q-19 -75 -87.5 -131t-209.5 -56h-4q-86 0 -144 26t-89 64t-42 78v84h115v-63q12 -35 54.5 -60.5t109.5 -25.5h4q88 0 126.5 27t51.5 71v103q0 36 4 106h-6q-42 -39 -102 -63.5
t-125 -24.5h-4q-72 0 -122 25.5t-76 63t-30 73.5v770q4 34 30 71.5zM231.5 146.5q13.5 -18.5 44.5 -32.5t82 -14h4q57 0 108.5 25t92.5 70v702q-37 40 -88.5 67t-107.5 27h-5q-53 0 -85 -14.5t-45.5 -33t-14.5 -32.5v-731q1 -15 14.5 -33.5zM204 1272l148 203h102l148 -203
v-58h-76l-61 82q-17 23 -34.5 48t-23.5 34h-8l-57 -82l-62 -82h-76v58z" />
    <glyph glyph-name="uni0123.ss02" horiz-adv-x="807" 
d="M132 1003.5q26 37.5 76 63t122 25.5h4q66 0 125.5 -25t101.5 -63h4l39 81h74v-1220q-19 -75 -87.5 -131t-209.5 -56h-4q-86 0 -144 26t-89 64t-42 78v84h115v-63q12 -35 54.5 -60.5t109.5 -25.5h4q88 0 126.5 27t51.5 71v103q0 36 4 106h-6q-42 -39 -102 -63.5
t-125 -24.5h-4q-72 0 -122 25.5t-76 63t-30 73.5v770q4 34 30 71.5zM231.5 146.5q13.5 -18.5 44.5 -32.5t82 -14h4q57 0 108.5 25t92.5 70v702q-37 40 -88.5 67t-107.5 27h-5q-53 0 -85 -14.5t-45.5 -33t-14.5 -32.5v-731q1 -15 14.5 -33.5zM415 1495h94
q-22 -61 -35.5 -133.5t-13.5 -147.5h-115v84q25 127 70 197z" />
    <glyph glyph-name="gdotaccent.ss02" horiz-adv-x="807" 
d="M132 1003.5q26 37.5 76 63t122 25.5h4q66 0 125.5 -25t101.5 -63h4l39 81h74v-1220q-19 -75 -87.5 -131t-209.5 -56h-4q-86 0 -144 26t-89 64t-42 78v84h115v-63q12 -35 54.5 -60.5t109.5 -25.5h4q88 0 126.5 27t51.5 71v103q0 36 4 106h-6q-42 -39 -102 -63.5
t-125 -24.5h-4q-72 0 -122 25.5t-76 63t-30 73.5v770q4 34 30 71.5zM231.5 146.5q13.5 -18.5 44.5 -32.5t82 -14h4q57 0 108.5 25t92.5 70v702q-37 40 -88.5 67t-107.5 27h-5q-53 0 -85 -14.5t-45.5 -33t-14.5 -32.5v-731q1 -15 14.5 -33.5zM327 1317v53q9 57 76 57
q35 0 54 -15.5t22 -41.5v-53q-3 -26 -22 -41.5t-54 -15.5q-67 0 -76 57z" />
    <glyph glyph-name="dotlessi.ss02" horiz-adv-x="379" 
d="M250 0h-115v985l-80 19v81h195v-1085z" />
    <glyph glyph-name="iacute.ss02" horiz-adv-x="379" 
d="M250 0h-115v985l-80 19v81h195v-1085zM363 1475v-86l-127 -175h-107l138 261h96z" />
    <glyph glyph-name="igrave.ss02" horiz-adv-x="379" 
d="M250 0h-115v985l-80 19v81h195v-1085zM257 1214h-107l-127 175v86h97z" />
    <glyph glyph-name="icircumflex.ss02" horiz-adv-x="379" 
d="M250 0h-115v985l-80 19v81h195v-1085zM4 1272l138 203h102l137 -203v-58h-76l-108 164h-8l-109 -164h-76v58z" />
    <glyph glyph-name="idieresis.ss02" horiz-adv-x="379" 
d="M250 0h-115v985l-80 19v81h195v-1085zM8 1317v53q9 57 76 57q35 0 54 -15.5t22 -41.5v-53q-3 -26 -22 -41.5t-54 -15.5q-67 0 -76 57zM247.5 1275.5q-18.5 15.5 -21.5 41.5v53q3 26 21.5 41.5t53.5 15.5t54 -15.5t22 -41.5v-53q-3 -26 -22 -41.5t-54 -15.5t-53.5 15.5z
" />
    <glyph glyph-name="ibreve.ss02" horiz-adv-x="379" 
d="M250 0h-115v985l-80 19v81h195v-1085zM95 1458v-74q13 -69 96 -69h4q83 0 96 69v74h103v-100q-4 -29 -24 -62t-63.5 -57.5t-111.5 -24.5h-4q-67 0 -110.5 24.5t-64 57.5t-24.5 62v100h103z" />
    <glyph glyph-name="uni1ECB.ss02" horiz-adv-x="379" 
d="M250 0h-115v985l-80 19v81h195v-1085zM138.5 1414.5q18.5 15.5 54.5 15.5q35 0 53.5 -16t21.5 -42v-53q-3 -26 -21.5 -41.5t-53.5 -15.5q-36 0 -54.5 15.5t-21.5 41.5v53q3 27 21.5 42.5zM117 -219v53q9 57 76 57q35 0 54 -15.5t22 -41.5v-53q-3 -26 -22 -41.5t-54 -15.5
q-67 0 -76 57z" />
    <glyph glyph-name="imacron.ss02" horiz-adv-x="379" 
d="M250 0h-115v985l-80 19v81h195v-1085zM369 1395v-105h-353v105h353z" />
    <glyph glyph-name="iogonek.ss02" horiz-adv-x="379" 
d="M250 0l-51 -41q-38 -30 -54 -56t-16 -53q0 -26 8.5 -41.5t28.5 -21.5h55v-92h-102q-42 11 -68.5 49.5t-26.5 95.5q0 56 29 102t80 89l2 2v952l-80 19v81h195v-1085zM138.5 1414.5q18.5 15.5 54.5 15.5q35 0 53.5 -16t21.5 -42v-53q-3 -26 -21.5 -41.5t-53.5 -15.5
q-36 0 -54.5 15.5t-21.5 41.5v53q3 27 21.5 42.5z" />
    <glyph glyph-name="itilde.ss02" horiz-adv-x="379" 
d="M250 0h-115v985l-80 19v81h195v-1085zM10.5 1399q30.5 18 73.5 18q28 0 52.5 -6t66.5 -20q34 -12 52 -16.5t34 -4.5q31 0 37 23v20h94v-78q-14 -31 -45 -49t-74 -18q-28 0 -52 6t-66 20q-35 12 -53 16.5t-33 4.5q-31 0 -37 -23v-20h-95v78q15 31 45.5 49z" />
    <glyph glyph-name="ij.ss02" horiz-adv-x="758" 
d="M250 0h-115v985l-80 19v81h195v-1085zM138.5 1414.5q18.5 15.5 54.5 15.5q35 0 53.5 -16t21.5 -42v-53q-3 -26 -21.5 -41.5t-53.5 -15.5q-36 0 -54.5 15.5t-21.5 41.5v53q3 27 21.5 42.5zM596.5 -232q-32.5 -56 -102.5 -73h-105v104h41q33 0 51 8t25.5 29.5t7.5 61.5
v1087l-80 19v81h195v-1181q0 -80 -32.5 -136zM517.5 1414.5q18.5 15.5 54.5 15.5q35 0 53.5 -16t21.5 -42v-53q-3 -26 -21.5 -41.5t-53.5 -15.5q-36 0 -54.5 15.5t-21.5 41.5v53q3 27 21.5 42.5z" />
    <glyph glyph-name="ijacute.ss02" horiz-adv-x="758" 
d="M250 0h-115v985l-80 19v81h195v-1085zM363 1475v-86l-127 -175h-107l138 261h96zM596.5 -232q-32.5 -56 -102.5 -73h-105v104h41q33 0 51 8t25.5 29.5t7.5 61.5v1087l-80 19v81h195v-1181q0 -80 -32.5 -136zM742 1475v-86l-127 -175h-107l138 261h96z" />
    <glyph glyph-name="uni0237.ss02" horiz-adv-x="379" 
d="M217.5 -232q-32.5 -56 -102.5 -73h-105v104h41q33 0 51 8t25.5 29.5t7.5 61.5v1087l-80 19v81h195v-1181q0 -80 -32.5 -136z" />
    <glyph glyph-name="jcircumflex.ss02" horiz-adv-x="379" 
d="M217.5 -232q-32.5 -56 -102.5 -73h-105v104h41q33 0 51 8t25.5 29.5t7.5 61.5v1087l-80 19v81h195v-1181q0 -80 -32.5 -136zM4 1272l138 203h102l137 -203v-58h-76l-108 164h-8l-109 -164h-76v58z" />
    <glyph glyph-name="yacute.ss02" horiz-adv-x="809" 
d="M567 92h-4q-41 -41 -99.5 -67.5t-125.5 -26.5h-4q-102 0 -149.5 41t-61.5 90v956h115v-921q20 -64 122 -64h5q62 0 113 29.5t87 75.5v880h115v-1200q0 -94 -74.5 -150.5t-224.5 -56.5h-4q-79 0 -145.5 17t-108.5 47v113h117v-41q22 -16 59 -24.5t80 -8.5h4q95 0 136 28
t46 89v53q0 108 2 141zM588 1475v-86l-158 -175h-107l168 261h97z" />
    <glyph glyph-name="ygrave.ss02" horiz-adv-x="809" 
d="M567 92h-4q-41 -41 -99.5 -67.5t-125.5 -26.5h-4q-102 0 -149.5 41t-61.5 90v956h115v-921q20 -64 122 -64h5q62 0 113 29.5t87 75.5v880h115v-1200q0 -94 -74.5 -150.5t-224.5 -56.5h-4q-79 0 -145.5 17t-108.5 47v113h117v-41q22 -16 59 -24.5t80 -8.5h4q95 0 136 28
t46 89v53q0 108 2 141zM479 1214h-107l-158 175v86h97z" />
    <glyph glyph-name="ycircumflex.ss02" horiz-adv-x="809" 
d="M567 92h-4q-41 -41 -99.5 -67.5t-125.5 -26.5h-4q-102 0 -149.5 41t-61.5 90v956h115v-921q20 -64 122 -64h5q62 0 113 29.5t87 75.5v880h115v-1200q0 -94 -74.5 -150.5t-224.5 -56.5h-4q-79 0 -145.5 17t-108.5 47v113h117v-41q22 -16 59 -24.5t80 -8.5h4q95 0 136 28
t46 89v53q0 108 2 141zM202 1272l148 203h102l148 -203v-58h-76l-61 82q-17 23 -34.5 48t-23.5 34h-8l-57 -82l-62 -82h-76v58z" />
    <glyph glyph-name="uni0233.ss02" horiz-adv-x="809" 
d="M567 92h-4q-41 -41 -99.5 -67.5t-125.5 -26.5h-4q-102 0 -149.5 41t-61.5 90v956h115v-921q20 -64 122 -64h5q62 0 113 29.5t87 75.5v880h115v-1200q0 -94 -74.5 -150.5t-224.5 -56.5h-4q-79 0 -145.5 17t-108.5 47v113h117v-41q22 -16 59 -24.5t80 -8.5h4q95 0 136 28
t46 89v53q0 108 2 141zM600 1395v-105h-398v105h398z" />
    <glyph glyph-name="uni1EF9.ss02" horiz-adv-x="809" 
d="M567 92h-4q-41 -41 -99.5 -67.5t-125.5 -26.5h-4q-102 0 -149.5 41t-61.5 90v956h115v-921q20 -64 122 -64h5q62 0 113 29.5t87 75.5v880h115v-1200q0 -94 -74.5 -150.5t-224.5 -56.5h-4q-79 0 -145.5 17t-108.5 47v113h117v-41q22 -16 59 -24.5t80 -8.5h4q95 0 136 28
t46 89v53q0 108 2 141zM218.5 1399q30.5 18 73.5 18q28 0 52.5 -6t66.5 -20q34 -12 52 -16.5t34 -4.5q31 0 37 23v20h94v-78q-14 -31 -45 -49t-74 -18q-28 0 -52 6t-66 20q-35 12 -53 16.5t-33 4.5q-31 0 -37 -23v-20h-95v78q15 31 45.5 49z" />
    <glyph glyph-name="ydieresis.ss02" horiz-adv-x="809" 
d="M567 92h-4q-41 -41 -99.5 -67.5t-125.5 -26.5h-4q-102 0 -149.5 41t-61.5 90v956h115v-921q20 -64 122 -64h5q62 0 113 29.5t87 75.5v880h115v-1200q0 -94 -74.5 -150.5t-224.5 -56.5h-4q-79 0 -145.5 17t-108.5 47v113h117v-41q22 -16 59 -24.5t80 -8.5h4q95 0 136 28
t46 89v53q0 108 2 141zM208 1317v53q9 57 76 57q35 0 54 -15.5t22 -41.5v-53q-3 -26 -22 -41.5t-54 -15.5q-67 0 -76 57zM464 1275.5q-19 15.5 -22 41.5v53q3 26 22 41.5t54 15.5t53.5 -15.5t21.5 -41.5v-53q-3 -26 -21.5 -41.5t-53.5 -15.5t-54 15.5z" />
    <glyph glyph-name="hyphen.case" horiz-adv-x="580" 
d="M514 748v-102h-448v102h448z" />
    <glyph glyph-name="endash.case" horiz-adv-x="819" 
d="M819 748v-102h-819v102h819z" />
    <glyph glyph-name="emdash.case" horiz-adv-x="1638" 
d="M1638 748v-102h-1638v102h1638z" />
    <glyph glyph-name="exclamdown.case" horiz-adv-x="397" 
d="M135 0v684l23 461h82l22 -461v-684h-127zM254.5 1387q20.5 -16 24.5 -44v-57q-4 -28 -24.5 -43.5t-55.5 -15.5t-56 15.5t-24 43.5v57q3 28 24 44t56 16t55.5 -16z" />
    <glyph glyph-name="questiondown.case" horiz-adv-x="621" 
d="M468 11.5q-66 -28.5 -149 -28.5h-4q-134 0 -195 49.5t-75 118.5v207q0 68 11.5 124.5t31.5 108.5t59 138l117 258v158h121v-183l-135 -288q-47 -101 -65.5 -168t-18.5 -164v-178q9 -33 44 -55.5t105 -22.5h4q52 0 86 14t50 35v217h120v-262q-41 -50 -107 -78.5z
M377.5 1387q20.5 -16 23.5 -44v-57q-3 -28 -23.5 -43.5t-55.5 -15.5q-36 0 -56.5 15.5t-23.5 43.5v57q3 28 23.5 44t56.5 16q35 0 55.5 -16z" />
    <glyph glyph-name="guilsinglleft.case" horiz-adv-x="414" 
d="M274 1043h74v-76l-180 -266v-8l180 -267v-75h-74l-208 305v82z" />
    <glyph glyph-name="guilsinglright.case" horiz-adv-x="414" 
d="M348 655l-209 -305h-73v76l180 266v8l-180 267v75h73l209 -305v-82z" />
    <glyph glyph-name="guillemotleft.case" horiz-adv-x="729" 
d="M274 1042h74v-75l-180 -267v-8l180 -266v-76h-74l-208 305v82zM590 1042h74v-75l-181 -267v-8l181 -266v-76h-74l-209 305v82z" />
    <glyph glyph-name="guillemotright.case" horiz-adv-x="729" 
d="M664 655l-209 -305h-74v76l180 266v8l-180 267v75h74l209 -305v-82zM348 655l-209 -305h-73v76l180 266v8l-180 267v75h73l209 -305v-82z" />
    <glyph glyph-name="bullet.case" horiz-adv-x="635" 
d="M176.5 498q-51.5 33 -72.5 88v221q44 121 213 121q90 0 141.5 -33t71.5 -88v-221q-20 -55 -71.5 -88t-141.5 -33q-89 0 -140.5 33z" />
    <glyph glyph-name="periodcentered.case" horiz-adv-x="262" 
d="M75 624.5q-21 15.5 -24 43.5v57q3 28 24 44t56 16t56 -16t24 -44v-57q-3 -28 -24 -43.5t-56 -15.5t-56 15.5z" />
    <glyph glyph-name="parenleft.case" horiz-adv-x="348" 
d="M110.5 1471q41.5 52 102.5 74h125v-105h-68q-39 -6 -63.5 -39t-24.5 -80v-1251q0 -47 24.5 -80t63.5 -39h68v-104h-125q-61 21 -102.5 73t-49.5 134v1284q8 81 49.5 133z" />
    <glyph glyph-name="parenright.case" horiz-adv-x="348" 
d="M237.5 -80q-41.5 -52 -102.5 -74h-125v105h68q39 6 63.5 39t24.5 80v1251q0 47 -24.5 80t-63.5 39h-68v104h125q61 -21 102.5 -73t49.5 -134v-1284q-8 -81 -49.5 -133z" />
    <glyph glyph-name="bracketleft.case" horiz-adv-x="391" 
d="M358 1545v-105h-122v-1489h122v-104h-243v1698h243z" />
    <glyph glyph-name="bracketright.case" horiz-adv-x="391" 
d="M276 -154h-243v105h123v1489h-123v104h243v-1698z" />
    <glyph glyph-name="braceleft.case" horiz-adv-x="360" 
d="M87.5 760.5q21.5 14.5 29.5 41.5t8 73v471q6 67 40 121t89 78h78v-101q-34 -8 -58 -38.5t-30 -82.5v-454q0 -67 -24.5 -108.5t-76.5 -59.5v-10q52 -19 76.5 -60t24.5 -108v-455q6 -52 30 -82.5t58 -38.5v-100h-78q-55 24 -89 77.5t-40 121.5v471q0 46 -8 73t-29.5 41.5
t-62.5 16.5v96q41 2 62.5 16.5z" />
    <glyph glyph-name="braceright.case" horiz-adv-x="360" 
d="M273.5 630.5q-21.5 -14.5 -29.5 -41.5t-8 -73v-471q-7 -67 -41 -121t-89 -78h-77v101q34 8 58 38.5t30 82.5v454q0 67 24 108.5t76 59.5v10q-52 19 -76 60t-24 108v455q-6 52 -30 82.5t-58 38.5v100h77q55 -24 89 -77.5t41 -120.5v-472q0 -46 8 -73t29.5 -41.5
t62.5 -16.5v-96q-41 -2 -62.5 -16.5z" />
    <glyph glyph-name="at.case" horiz-adv-x="1411" 
d="M529 246.5q-46 37.5 -62 100.5v700q0 67 47.5 109t136.5 42h4q51 0 92.5 -21t69.5 -56h4l35 53h76v-729q0 -59 30 -87t93 -28q60 0 85.5 28t30.5 60v703q-18 92 -77.5 161.5t-159.5 108.5t-236 39h-4q-135 0 -231.5 -41.5t-151 -111t-71.5 -156.5v-856
q18 -93 77.5 -161.5t156.5 -105.5t226 -37h5q124 0 230.5 41t178.5 105h78v-74q-89 -79 -216.5 -124.5t-270.5 -45.5h-5q-169 0 -291.5 49t-193 136t-90.5 202v885q21 124 95 212.5t194.5 135.5t279.5 47h4q166 0 291 -47t200 -135.5t97 -210.5v-723q-5 -38 -29.5 -80.5
t-76.5 -73t-131 -30.5q-69 0 -116 22.5t-71 59.5h-2q-40 -45 -94.5 -74t-114.5 -29h-4q-72 0 -118 37.5zM752.5 329.5q38.5 21.5 64.5 57.5v635q-28 33 -65.5 54.5t-81.5 21.5h-4q-36 0 -57.5 -20t-26.5 -54v-653q23 -63 82 -63h4q46 0 84.5 21.5z" />
    <glyph glyph-name="zero.zero" horiz-adv-x="836" 
d="M195 1340.5q68 68.5 221 68.5h4q153 0 221 -68.5t84 -150.5v-987q-16 -82 -84 -150.5t-221 -68.5h-4q-153 0 -221 68.5t-84 150.5v987q16 82 84 150.5zM284.5 124q41.5 -38 131.5 -38h4q90 0 131.5 38.5t52.5 86.5v706l-373 -629v-77q12 -49 53.5 -87zM604 1105v77
q-11 48 -52.5 86.5t-131.5 38.5h-4q-90 0 -131.5 -38t-53.5 -87v-708z" />
    <glyph glyph-name="one.ss01" horiz-adv-x="483" 
d="M53 1333l164 60h88v-1287l127 -20v-86h-379v86l129 20v1158h-129v69z" />
    <glyph glyph-name="two.ss01" horiz-adv-x="741" 
d="M117.5 1305.5q28.5 42.5 89 73t155.5 30.5h5q146 0 207.5 -58t74.5 -134v-209q0 -94 -22 -172.5t-55 -141t-91 -155.5l-270 -430v-5l84 2h246v125h116v-231h-571v125l303 481q47 74 75 130t46 123.5t18 148.5v192q-4 41 -41 74t-120 33h-5q-80 0 -116 -27.5t-47 -71.5
v-225h-117v238q7 42 35.5 84.5z" />
    <glyph glyph-name="three.ss01" horiz-adv-x="762" 
d="M82 350h121v-164q3 -22 22.5 -44.5t56 -38t89.5 -15.5h4q77 0 119.5 29t52.5 73v461q-7 44 -47 64t-101 20h-4q-42 0 -79 -15t-60 -38v-29h-119v121l400 510v4l-119 -2h-193v-125h-119v232h547v-136l-211 -268q-56 -70 -103 -128t-63 -77l3 -2q28 24 69.5 40t91.5 16h4
q93 0 151 -45t73 -121v-498q-17 -74 -84.5 -132t-208.5 -58h-4q-99 0 -162 31.5t-91.5 72.5t-35.5 76v186z" />
    <glyph glyph-name="seven.ss01" horiz-adv-x="649" 
d="M600 1393v-111l-262 -1135v-147h-121v127l217 942l49 215v4h-329v-139h-119v244h565z" />
    <glyph glyph-name="six.ss03" horiz-adv-x="782" 
d="M577.5 923q53.5 -31 80.5 -75.5t34 -89.5v-568q-14 -80 -81 -143t-208 -63h-2q-142 0 -208 62t-82 142v594q0 179 97 338.5t267 272.5h80v-72q-135 -101 -220.5 -209.5t-105.5 -253.5h2q31 42 83.5 69t125.5 27h4q80 0 133.5 -31zM526.5 820q-37.5 30 -108.5 30h-4
q-66 0 -115.5 -28.5t-69.5 -76.5v-550q6 -45 48.5 -77t121.5 -32h4q77 0 119 32.5t51 76.5v553q-9 42 -46.5 72z" />
    <glyph glyph-name="nine.ss03" horiz-adv-x="782" 
d="M204.5 469q-53.5 31 -80.5 76t-34 90v567q14 81 81 144t208 63h2q142 0 208 -62t83 -143v-594q0 -178 -97.5 -338t-267.5 -272h-80v72q134 99 220 208t106 255h-2q-31 -43 -83.5 -70t-125.5 -27h-4q-80 0 -133.5 31zM255.5 573q37.5 -30 109.5 -30h4q65 0 114.5 28
t69.5 76v551q-5 44 -48 76.5t-122 32.5h-4q-77 0 -119 -32.5t-51 -76.5v-553q9 -42 46.5 -72z" />
    <glyph glyph-name="zero.zero.tf" horiz-adv-x="819" 
d="M187 1340.5q68 68.5 221 68.5h4q153 0 221 -68.5t84 -150.5v-987q-16 -82 -84 -150.5t-221 -68.5h-4q-153 0 -221 68.5t-84 150.5v987q16 82 84 150.5zM276.5 124q41.5 -38 131.5 -38h4q90 0 131.5 38.5t52.5 86.5v706l-373 -629v-77q12 -49 53.5 -87zM596 1105v77
q-11 48 -52.5 86.5t-131.5 38.5h-4q-90 0 -131.5 -38t-53.5 -87v-708z" />
    <glyph glyph-name="zero.tf" horiz-adv-x="819" 
d="M187 1340.5q68 68.5 221 68.5h4q153 0 221 -68.5t84 -150.5v-987q-16 -82 -84 -150.5t-221 -68.5h-4q-153 0 -221 68.5t-84 150.5v987q16 82 84 150.5zM276.5 124q41.5 -38 131.5 -38h4q90 0 131.5 38.5t52.5 86.5v971q-11 48 -52.5 86.5t-131.5 38.5h-4
q-90 0 -131.5 -38t-53.5 -87v-971q12 -49 53.5 -87z" />
    <glyph glyph-name="one.tf" horiz-adv-x="819" 
d="M162 1333l246 60h88v-1289l225 -14v-90h-574v90l228 14v1160h-213v69z" />
    <glyph glyph-name="two.tf" horiz-adv-x="819" 
d="M166.5 1305.5q28.5 42.5 89 73t155.5 30.5h5q146 0 207.5 -58t74.5 -134v-209q0 -94 -22 -172.5t-55 -141t-91 -155.5l-272 -430v-5q37 2 88 2h360v-106h-571v125l303 481q47 74 75 130t46 123.5t18 148.5v192q-4 41 -41 74t-120 33h-5q-80 0 -116 -27.5t-47 -71.5v-225
h-117v238q7 42 35.5 84.5z" />
    <glyph glyph-name="three.tf" horiz-adv-x="819" 
d="M117 350h121v-164q3 -22 22.5 -44.5t56 -38t89.5 -15.5h4q77 0 119.5 29t52.5 73v461q-7 44 -47 64t-101 20h-4q-42 0 -79 -15t-60 -38v-29h-119v121l400 510v4q-35 -2 -88 -2h-343v107h547v-136l-211 -268q-56 -70 -103 -128t-63 -77l3 -2q28 24 69.5 40t91.5 16h4
q93 0 151 -45t73 -121v-498q-17 -74 -84.5 -132t-208.5 -58h-4q-99 0 -162 31.5t-91.5 72.5t-35.5 76v186z" />
    <glyph glyph-name="four.tf" horiz-adv-x="819" 
d="M764 203h-127v-203h-121v203h-434v100l305 1090h250v-1084h127v-106zM516 309v533q0 99 3.5 249t4.5 197h-57q-9 -33 -36.5 -133.5t-61.5 -230.5l-162 -615h309z" />
    <glyph glyph-name="five.tf" horiz-adv-x="819" 
d="M690 1393v-107h-289q-74 0 -110 2l-9 -239q-2 -69 -5.5 -123.5t-4.5 -69.5h2q34 30 83.5 47t105.5 17h4q113 0 172 -55.5t69 -135.5v-534q-7 -52 -36.5 -99.5t-91 -79.5t-156.5 -32h-4q-146 0 -207.5 57t-75.5 125v184h121v-164q8 -41 42.5 -69.5t119.5 -28.5h4
q75 0 116 31.5t48 79.5v510q-8 48 -42 79t-100 31h-2q-52 0 -94.5 -19t-65.5 -55v-96h-120v180l22 564h504z" />
    <glyph glyph-name="six.tf" horiz-adv-x="819" 
d="M148.5 1301.5q32.5 45.5 98.5 76.5t167 31h4q89 0 150.5 -28t94.5 -69t44 -85v-187h-121v170q-12 40 -56.5 68.5t-115.5 28.5h-4q-90 0 -130.5 -30t-54.5 -79v-440h2q30 42 89 69t137 27h4q84 0 140 -31t84.5 -76t35.5 -90v-467q-8 -48 -39 -94.5t-96.5 -79t-167.5 -32.5
h-4q-149 0 -219 62t-86 142v1020q11 48 43.5 93.5zM279 118q46 -32 131 -32h4q84 0 129.5 32.5t54.5 76.5v452q-9 42 -50 72.5t-118 30.5h-4q-71 0 -124 -28t-77 -77v-450q8 -45 54 -77z" />
    <glyph glyph-name="seven.tf" horiz-adv-x="819" 
d="M741 1393v-111l-305 -1135v-147h-121v156l248 913q21 78 38 136.5t22 76.5v4h-545v107h663z" />
    <glyph glyph-name="eight.tf" horiz-adv-x="819" 
d="M127 626.5q31 51.5 80 78.5v4q-44 27 -73.5 72t-29.5 104v319q16 75 81.5 140t219.5 65h9q154 0 219.5 -65t81.5 -140v-319q0 -59 -29 -104.5t-74 -71.5v-4q49 -27 80 -78.5t31 -112.5v-319q-16 -87 -84.5 -149t-224.5 -62h-9q-156 0 -224 62t-85 149v319q0 61 31 112.5z
M243 824q18 -33 43 -49.5t48 -18.5h151q23 2 48 18.5t43 49.5t18 83v285q-21 113 -180 113h-9q-159 0 -180 -113v-285q0 -50 18 -83zM405 88h9q169 0 188 121v303q0 67 -36.5 100t-82.5 39h-147q-46 -6 -82.5 -39t-36.5 -100v-303q19 -121 188 -121z" />
    <glyph glyph-name="nine.tf" horiz-adv-x="819" 
d="M624.5 44.5q-72.5 -60.5 -218.5 -60.5h-5q-89 0 -150.5 28t-94.5 69.5t-43 84.5v186h120v-170q13 -40 57 -68t116 -28h4q90 0 130.5 30t53.5 79v440h-2q-30 -42 -88.5 -69t-136.5 -27h-5q-84 0 -140 31t-84 75.5t-36 89.5v467q15 81 85.5 144t218.5 63h4q148 0 218 -62
t87 -143v-1020q-18 -79 -90.5 -139.5zM271 673q41 -30 118 -30h4q71 0 124 28t77 77v450q-7 44 -53.5 76.5t-130.5 32.5h-4q-84 0 -130 -33t-55 -76v-453q9 -42 50 -72z" />
    <glyph glyph-name="two.tf.ss01" horiz-adv-x="819" 
d="M166.5 1305.5q28.5 42.5 89 73t155.5 30.5h5q146 0 207.5 -58t74.5 -134v-209q0 -94 -22 -172.5t-55 -141t-91 -155.5l-270 -430v-5l84 2h246v125h116v-231h-571v125l303 481q47 74 75 130t46 123.5t18 148.5v192q-4 41 -41 74t-120 33h-5q-80 0 -116 -27.5t-47 -71.5
v-225h-117v238q7 42 35.5 84.5z" />
    <glyph glyph-name="three.tf.ss01" horiz-adv-x="819" 
d="M117 350h121v-164q3 -22 22.5 -44.5t56 -38t89.5 -15.5h4q77 0 119.5 29t52.5 73v461q-7 44 -47 64t-101 20h-4q-42 0 -79 -15t-60 -38v-29h-119v121l400 510v4l-119 -2h-193v-125h-119v232h547v-136l-211 -268q-56 -70 -103 -128t-63 -77l3 -2q28 24 69.5 40t91.5 16h4
q93 0 151 -45t73 -121v-498q-17 -74 -84.5 -132t-208.5 -58h-4q-99 0 -162 31.5t-91.5 72.5t-35.5 76v186z" />
    <glyph glyph-name="seven.tf.ss01" horiz-adv-x="819" 
d="M741 1393v-111l-305 -1135v-147h-121v156l248 913l60 215v4h-426v-139h-119v244h663z" />
    <glyph glyph-name="zero.osf" horiz-adv-x="803" 
d="M568 1091.5q63 -34.5 91.5 -80.5t34.5 -89v-734q-6 -43 -34.5 -89t-91.5 -80.5t-165 -34.5h-4q-101 0 -164 34.5t-91.5 80.5t-34.5 89v734q6 43 34.5 89t91.5 80.5t164 34.5h4q102 0 165 -34.5zM534 988.5q-38 37.5 -131 37.5h-4q-92 0 -130.5 -37.5t-45.5 -81.5v-704
q7 -44 45.5 -81.5t130.5 -37.5h4q93 0 131 37.5t46 81.5v704q-8 44 -46 81.5z" />
    <glyph glyph-name="one.osf" horiz-adv-x="406" 
d="M39 1059l156 53h81v-1112h-116v987h-121v72z" />
    <glyph glyph-name="two.osf" horiz-adv-x="750" 
d="M127.5 1025q28.5 42 87.5 71.5t152 29.5h4q144 0 203.5 -56.5t72.5 -131.5v-137q0 -92 -13.5 -151.5t-51.5 -121t-119 -153.5l-238 -271v-2l105 2h332v-104h-574v113l299 348q61 71 90.5 115.5t42 89.5t12.5 110v146q-4 39 -40.5 71.5t-118.5 32.5h-4q-80 0 -115.5 -26.5
t-46.5 -69.5v-170h-115v182q7 41 35.5 83z" />
    <glyph glyph-name="three.osf" horiz-adv-x="709" 
d="M61 160h115v-164q3 -22 22.5 -44.5t56 -38t89.5 -15.5h4q78 0 120 29t52 73v379q-7 43 -47.5 63.5t-99.5 20.5h-4q-42 0 -79 -15t-61 -38v-29h-118v121l399 502v4l-119 -2h-330v104h566v-133l-211 -258q-57 -69 -103.5 -128t-62.5 -79l2 -2q66 55 160 55h4q92 0 148 -44
t71 -120v-421q-17 -73 -83 -130t-204 -57h-4q-97 0 -158 31t-89 71t-36 74v191z" />
    <glyph glyph-name="four.osf" horiz-adv-x="717" 
d="M702 63h-129v-253h-114v253h-428v99l334 948h208v-942h129v-105zM459 168v412q0 105 3.5 246.5t4.5 185.5h-31l-127 -367l-166 -477h316z" />
    <glyph glyph-name="five.osf" horiz-adv-x="725" 
d="M633 1110v-104h-266l-134 2l-10 -281q-1 -44 -4 -92t-4 -62h2q34 30 83.5 47t105.5 17h4q112 0 168 -54t67 -132v-471q-16 -72 -81.5 -129.5t-198.5 -57.5h-5q-94 0 -154 31t-87.5 71t-34.5 74v191h115v-164q3 -22 22 -44.5t54.5 -38t84.5 -15.5h5q73 0 114 29t51 73v426
q-7 48 -41 79.5t-100 31.5h-2q-53 0 -95 -19.5t-65 -54.5v-96h-121v180l23 563h504z" />
    <glyph glyph-name="six.osf" horiz-adv-x="770" 
d="M149 1216.5q31 42.5 92.5 71.5t155.5 29h4q123 0 189 -52t84 -120v-180h-115v161q-12 38 -53 64.5t-107 26.5h-4q-85 0 -122.5 -28t-49.5 -73v-411h2q29 38 83.5 64t125.5 26h4q78 0 130.5 -29t79.5 -71t34 -85v-432q-7 -46 -36 -90t-90 -74t-157 -30h-4
q-139 0 -204.5 58t-81.5 134v952q9 46 40 88.5zM273 113.5q43 -29.5 122 -29.5h4q78 0 120.5 30t49.5 70v416q-7 39 -45 67.5t-110 28.5h-4q-65 0 -115 -27t-72 -73v-412q7 -41 50 -70.5z" />
    <glyph glyph-name="seven.osf" horiz-adv-x="600" 
d="M567 1110v-121l-276 -1042v-137h-115v139l215 807l66 245v5h-447v104h557z" />
    <glyph glyph-name="eight.osf" horiz-adv-x="807" 
d="M125 580q31 51 80 77v5q-44 27 -73.5 72t-29.5 104v274q16 75 81 140t216 65h9q151 0 216 -65t81 -140v-274q0 -59 -29.5 -104t-73.5 -72v-5q49 -26 80 -77t31 -113v-272q-17 -87 -84.5 -149t-220.5 -62h-9q-153 0 -220.5 62t-84.5 149v272q0 62 31 113zM235.5 777
q18.5 -33 44 -49.5t48.5 -18.5h151q23 2 48.5 18.5t44 49.5t18.5 83v244q-21 113 -182 113h-9q-161 0 -182 -113v-244q0 -50 18.5 -83zM261.5 117.5q44.5 -33.5 137.5 -33.5h9q93 0 137.5 33.5t52.5 87.5v262q0 67 -37.5 100t-83.5 39h-147q-46 -6 -83.5 -39t-37.5 -100
v-262q8 -54 52.5 -87.5z" />
    <glyph glyph-name="nine.osf" horiz-adv-x="770" 
d="M577.5 -150q-68.5 -57 -204.5 -57h-4q-123 0 -189 52.5t-84 119.5v180h115v-161q12 -38 53 -64t107 -26h4q85 0 123 27.5t49 72.5v412h-2q-28 -39 -83 -65t-126 -26h-4q-78 0 -130.5 29t-79.5 71t-34 85v432q7 46 36 90t90 74t157 30h4q139 0 204.5 -58t82.5 -134v-952
q-16 -75 -84.5 -132zM246 442.5q38 -28.5 110 -28.5h4q66 0 115.5 27t71.5 73v412q-7 41 -50 70.5t-122 29.5h-4q-78 0 -120.5 -30t-49.5 -70v-416q7 -39 45 -67.5z" />
    <glyph glyph-name="one.osf.ss01" horiz-adv-x="479" 
d="M61 1059l156 53h82v-1012l121 -18v-82h-361v82l123 18v887h-121v72z" />
    <glyph glyph-name="two.osf.ss01" horiz-adv-x="750" 
d="M127.5 1025q28.5 42 87.5 71.5t152 29.5h4q144 0 203.5 -56.5t72.5 -131.5v-137q0 -92 -13.5 -151.5t-51.5 -121t-119 -153.5l-238 -271v-2l105 2h215v125h110v-229h-567v113l299 348q61 71 90.5 115.5t42 89.5t12.5 110v146q-4 39 -40.5 71.5t-118.5 32.5h-4
q-80 0 -115.5 -26.5t-46.5 -69.5v-170h-115v182q7 41 35.5 83z" />
    <glyph glyph-name="three.osf.ss01" horiz-adv-x="709" 
d="M61 160h115v-164q3 -22 22.5 -44.5t56 -38t89.5 -15.5h4q78 0 120 29t52 73v379q-7 43 -47.5 63.5t-99.5 20.5h-4q-42 0 -79 -15t-61 -38v-29h-118v121l399 502v4l-119 -2h-196v-125h-115v229h547v-133l-211 -258q-57 -69 -103.5 -128t-62.5 -79l2 -2q66 55 160 55h4
q92 0 148 -44t71 -120v-421q-17 -73 -83 -130t-204 -57h-4q-97 0 -158 31t-89 71t-36 74v191z" />
    <glyph glyph-name="seven.osf.ss01" horiz-adv-x="600" 
d="M567 1110v-121l-272 -1042v-137h-115v139l211 803l66 249v5h-332v-113h-115v217h557z" />
    <glyph glyph-name="six.osf.ss03" horiz-adv-x="770" 
d="M568.5 837q52.5 -29 79.5 -70.5t34 -84.5v-504q-7 -46 -36 -90t-90 -74t-157 -30h-4q-139 0 -204.5 58t-81.5 134v516q0 181 85.5 339.5t225.5 268.5h80v-71q-112 -92 -183.5 -202t-93.5 -259h2q28 43 82.5 70.5t126.5 27.5h4q78 0 130.5 -29zM524 739.5
q-38 28.5 -110 28.5h-4q-67 0 -116 -28.5t-71 -80.5v-475q7 -41 50 -70.5t122 -29.5h4q78 0 120.5 30t49.5 70v488q-7 39 -45 67.5z" />
    <glyph glyph-name="nine.osf.ss03" horiz-adv-x="770" 
d="M201.5 273q-52.5 29 -79.5 70.5t-34 84.5v504q7 46 36 90t90 74t157 30h4q139 0 204.5 -58t82.5 -134v-516q0 -181 -85.5 -339.5t-226.5 -268.5h-80v71q112 92 183.5 202t93.5 259h-2q-28 -43 -82.5 -70.5t-126.5 -27.5h-4q-78 0 -130.5 29zM246 370.5
q38 -28.5 110 -28.5h4q67 0 116 28.5t71 80.5v475q-7 41 -50 70.5t-122 29.5h-4q-78 0 -120.5 -30t-49.5 -70v-488q7 -39 45 -67.5z" />
    <glyph glyph-name="zero.dnom" horiz-adv-x="602" 
d="M136.5 793q49.5 51 162.5 51h4q113 0 162.5 -51t60.5 -111v-536q-11 -61 -60.5 -111.5t-162.5 -50.5h-4q-113 0 -162.5 50.5t-60.5 111.5v536q11 60 60.5 111zM213.5 101q27.5 -25 85.5 -25h4q58 0 85.5 25t33.5 57v512q-6 32 -33.5 57t-85.5 25h-4q-58 0 -85.5 -25
t-33.5 -57v-512q6 -32 33.5 -57z" />
    <glyph glyph-name="one.dnom" horiz-adv-x="375" 
d="M33 768l137 60h68v-729l104 -19v-80h-307v80l104 19v612h-106v57z" />
    <glyph glyph-name="two.dnom" horiz-adv-x="586" 
d="M161 819q60 25 132 25q100 0 157 -39t68 -102v-121q0 -63 -21 -115t-55 -96t-98 -113l-151 -164v-4q5 0 28 1t64 1h235v-92h-454v105l155 166q80 86 117 131t56.5 89.5t19.5 98.5v94q-5 31 -37 49.5t-88 18.5q-39 0 -70 -11t-49 -30v-129h-104v166q35 46 95 71z" />
    <glyph glyph-name="three.dnom" horiz-adv-x="569" 
d="M57 211h103v-90q10 -19 41 -32t80 -13q54 0 84 20.5t38 51.5v211q-9 25 -37.5 41t-70.5 16q-28 0 -53 -9t-39 -22v-16h-99v96l289 270v3q-14 -1 -56 -2t-91 -1h-183v93h431v-109l-277 -258v-2q56 37 113 37q72 0 117.5 -33.5t58.5 -93.5v-215q-8 -74 -67.5 -122
t-168.5 -48q-83 0 -137 30.5t-76 79.5v117z" />
    <glyph glyph-name="four.dnom" horiz-adv-x="551" 
d="M332 144h-324v86l246 598h182v-592h90v-92h-90v-144h-104v144zM332 236v223l2 289h-21q-9 -25 -44.5 -117t-82.5 -209l-75 -186h221z" />
    <glyph glyph-name="five.dnom" horiz-adv-x="569" 
d="M485 828v-93h-118q-65 0 -118 1t-71 2l-6 -78l-12 -152h2q29 24 68.5 37.5t86.5 13.5q78 0 128.5 -37.5t62.5 -103.5v-264q-8 -76 -67 -123t-169 -47q-81 0 -136 32t-77 89v110h103v-84q14 -25 45 -40t76 -15q47 0 78.5 19t44.5 53v256q-10 32 -38.5 50.5t-72.5 18.5
q-38 0 -73 -14t-58 -37v-74h-98v152l26 328h393z" />
    <glyph glyph-name="six.dnom" horiz-adv-x="580" 
d="M315 714q-48 -34 -87.5 -91.5t-51.5 -134.5h4q29 32 72.5 49.5t91.5 17.5q82 0 127 -39t53 -98v-264q-11 -76 -68 -123t-157 -47t-157 47t-68 123v272q0 138 66 243.5t182 158.5h81v-68q-40 -12 -88 -46zM217 96.5q31 -20.5 82 -20.5t81.5 20.5t39.5 55.5v258
q-10 28 -39.5 42.5t-71.5 14.5q-40 0 -74 -19t-57 -46v-250q8 -35 39 -55.5z" />
    <glyph glyph-name="seven.dnom" horiz-adv-x="471" 
d="M442 828v-101l-188 -616v-111h-104v113l188 620v2h-315v93h419z" />
    <glyph glyph-name="eight.dnom" horiz-adv-x="578" 
d="M80.5 367q19.5 31 52.5 49v4q-30 20 -47.5 52.5t-17.5 74.5v148q8 66 63.5 107.5t157.5 41.5t157.5 -42t63.5 -107v-148q0 -42 -18 -74.5t-48 -52.5v-4q33 -18 52.5 -49t19.5 -70v-157q-9 -70 -66.5 -113t-160.5 -43t-160.5 42.5t-67.5 113.5v157q0 39 19.5 70z
M185.5 491q17.5 -20 43.5 -26h119q26 6 44 26t18 48v143q-6 31 -35.5 50.5t-85.5 19.5t-86 -19.5t-35 -50.5v-143q0 -28 17.5 -48zM201 96q32 -20 88 -20t88 20t37 52v139q0 37 -20.5 60.5t-53.5 31.5h-102q-33 -8 -53.5 -31.5t-20.5 -60.5v-139q5 -32 37 -52z" />
    <glyph glyph-name="nine.dnom" horiz-adv-x="580" 
d="M265 114q48 34 87 91.5t51 134.5h-4q-29 -32 -72 -49.5t-91 -17.5q-82 0 -127 38.5t-54 98.5v264q12 76 69 123t157 47t157 -47t68 -123v-272q0 -138 -66 -243.5t-182 -158.5h-82v68q41 12 89 46zM199 376q29 -15 71 -15q41 0 75 18.5t56 46.5v250q-8 35 -39 55.5
t-81 20.5q-51 0 -81.5 -20.5t-39.5 -55.5v-258q10 -27 39 -42z" />
    <glyph glyph-name="zero.numr" horiz-adv-x="602" 
d="M136.5 1358q49.5 51 162.5 51h4q113 0 162.5 -51t60.5 -111v-536q-11 -61 -60.5 -111.5t-162.5 -50.5h-4q-113 0 -162.5 50.5t-60.5 111.5v536q11 60 60.5 111zM213.5 666q27.5 -25 85.5 -25h4q58 0 85.5 25t33.5 57v512q-6 32 -33.5 57t-85.5 25h-4q-58 0 -85.5 -25
t-33.5 -57v-512q6 -32 33.5 -57z" />
    <glyph glyph-name="one.numr" horiz-adv-x="375" 
d="M33 1333l137 60h68v-729l104 -19v-80h-307v80l104 19v612h-106v57z" />
    <glyph glyph-name="two.numr" horiz-adv-x="586" 
d="M161 1384q60 25 132 25q100 0 157 -39t68 -102v-121q0 -63 -21 -115t-55 -96t-98 -113l-151 -164v-4q5 0 28 1t64 1h235v-92h-454v105l155 166q80 86 117 131t56.5 89.5t19.5 98.5v94q-5 31 -37 49.5t-88 18.5q-39 0 -70 -11t-49 -30v-129h-104v166q35 46 95 71z" />
    <glyph glyph-name="three.numr" horiz-adv-x="569" 
d="M57 776h103v-90q10 -19 41 -32t80 -13q54 0 84 20.5t38 51.5v211q-9 25 -37.5 41t-70.5 16q-28 0 -53 -9t-39 -22v-16h-99v96l289 270v3q-14 -1 -56 -2t-91 -1h-183v93h431v-109l-277 -258v-2q56 37 113 37q72 0 117.5 -33.5t58.5 -93.5v-215q-8 -74 -67.5 -122
t-168.5 -48q-83 0 -137 30.5t-76 79.5v117z" />
    <glyph glyph-name="four.numr" horiz-adv-x="551" 
d="M332 709h-324v86l246 598h182v-592h90v-92h-90v-144h-104v144zM332 801v223l2 289h-21q-9 -25 -44.5 -117t-82.5 -209l-75 -186h221z" />
    <glyph glyph-name="five.numr" horiz-adv-x="569" 
d="M485 1393v-93h-118q-65 0 -118 1t-71 2l-6 -78l-12 -152h2q29 24 68.5 37.5t86.5 13.5q78 0 128.5 -37.5t62.5 -103.5v-264q-8 -76 -67 -123t-169 -47q-81 0 -136 32t-77 89v110h103v-84q14 -25 45 -40t76 -15q47 0 78.5 19t44.5 53v256q-10 32 -38.5 50.5t-72.5 18.5
q-38 0 -73 -14t-58 -37v-74h-98v152l26 328h393z" />
    <glyph glyph-name="six.numr" horiz-adv-x="580" 
d="M315 1279q-48 -34 -87.5 -91.5t-51.5 -134.5h4q29 32 72.5 49.5t91.5 17.5q82 0 127 -39t53 -98v-264q-11 -76 -68 -123t-157 -47t-157 47t-68 123v272q0 138 66 243.5t182 158.5h81v-68q-40 -12 -88 -46zM217 661.5q31 -20.5 82 -20.5t81.5 20.5t39.5 55.5v258
q-10 28 -39.5 42.5t-71.5 14.5q-40 0 -74 -19t-57 -46v-250q8 -35 39 -55.5z" />
    <glyph glyph-name="seven.numr" horiz-adv-x="471" 
d="M442 1393v-101l-188 -616v-111h-104v113l188 620v2h-315v93h419z" />
    <glyph glyph-name="eight.numr" horiz-adv-x="578" 
d="M80.5 932q19.5 31 52.5 49v4q-30 20 -47.5 52.5t-17.5 74.5v148q8 66 63.5 107.5t157.5 41.5t157.5 -42t63.5 -107v-148q0 -42 -18 -74.5t-48 -52.5v-4q33 -18 52.5 -49t19.5 -70v-157q-9 -70 -66.5 -113t-160.5 -43t-160.5 42.5t-67.5 113.5v157q0 39 19.5 70z
M185.5 1056q17.5 -20 43.5 -26h119q26 6 44 26t18 48v143q-6 31 -35.5 50.5t-85.5 19.5t-86 -19.5t-35 -50.5v-143q0 -28 17.5 -48zM201 661q32 -20 88 -20t88 20t37 52v139q0 37 -20.5 60.5t-53.5 31.5h-102q-33 -8 -53.5 -31.5t-20.5 -60.5v-139q5 -32 37 -52z" />
    </font>
</defs>
</svg>
