<?xml version="1.0" standalone="no"?>
<!DOCTYPE svg PUBLIC "-//W3C//DTD SVG 1.1//EN" "http://www.w3.org/Graphics/SVG/1.1/DTD/svg11.dtd" >
<svg xmlns="http://www.w3.org/2000/svg" xmlns:xlink="http://www.w3.org/1999/xlink" version="1.1">
<metadata>
Created by FontForge 20201107 at Tue Oct 10 13:36:15 2017
 By 
Copyright (c) 2017 In~igo Jerez. All rights reserved.
</metadata>
<defs>
<font id="FCBARCELONA-Semibold" horiz-adv-x="563" >
  <font-face 
    font-family="FC BARCELONA Semibold"
    font-weight="500"
    font-stretch="normal"
    units-per-em="1000"
    panose-1="0 0 6 0 0 0 0 0 0 0"
    ascent="790"
    descent="-210"
    x-height="513"
    cap-height="680"
    bbox="-161 -212 1243 1005"
    underline-thickness="0"
    underline-position="0"
    unicode-range="U+0020-FB02"
  />
<missing-glyph horiz-adv-x="500" 
d="M0 0v680h500v-680h-500zM60 620v-560h380v560h-380z" />
    <glyph glyph-name="fi" unicode="fi" horiz-adv-x="562" 
d="M382 0v426h-182v-426h-100v426h-86v87h86v62q0 51 14 83.5t31 50.5t31 24.5l14 6.5h78v-78h-3q-28 0 -46.5 -20t-18.5 -64v-65h282v-513h-100zM371 677q0 26 15.5 42t45.5 16q31 0 46.5 -16t15.5 -42v-8q0 -26 -15.5 -41.5t-46.5 -15.5q-30 0 -45.5 15.5t-15.5 41.5v8z
" />
    <glyph glyph-name="fl" unicode="fl" horiz-adv-x="564" 
d="M14 513h86v62q0 51 14 83.5t31 50.5t31 24.5l14 6.5h78v-78h-3q-28 0 -46.5 -20t-18.5 -64v-65h181v227h100v-611q0 -24 10 -34t29 -10h9v-85h-80l-10.5 4.5t-23.5 16.5t-23.5 34.5t-10.5 58.5v312h-181v-426h-100v426h-86v87z" />
    <glyph glyph-name="f_f" unicode="ff" horiz-adv-x="596" 
d="M14 513h86v65q0 51 14 82.5t31 49.5t31 24l14 6h78v-85h-4q-28 0 -46 -16.5t-18 -60.5v-65h188v65q0 51 14 82.5t31 49.5t31 24l14 6h78v-85h-4q-28 0 -46 -16.5t-18 -60.5v-65h86v-87h-86v-426h-100v426h-188v-426h-100v426h-86v87z" />
    <glyph glyph-name="f_f_i" unicode="ffi" horiz-adv-x="861" 
d="M14 513h86v65q0 51 14 82.5t31 49.5t31 24l14 6h78v-85h-4q-28 0 -46 -16.5t-18 -60.5v-65h198v62q0 51 14 83.5t31 50.5t31 24.5l14 6.5h78v-78h-3q-28 0 -46.5 -20t-18.5 -64v-65h282v-513h-100v426h-182v-426h-100v426h-198v-426h-100v426h-86v87zM669 677
q0 26 15.5 42t45.5 16q31 0 46.5 -16t15.5 -42v-8q0 -26 -15.5 -41.5t-46.5 -15.5q-30 0 -45.5 15.5t-15.5 41.5v8z" />
    <glyph glyph-name="f_f_l" unicode="ffl" horiz-adv-x="862" 
d="M14 513h86v65q0 51 14 82.5t31 49.5t31 24l14 6h78v-85h-4q-28 0 -46 -16.5t-18 -60.5v-65h198v62q0 51 14 83.5t31 50.5t31 24.5l14 6.5h78v-78h-3q-28 0 -46.5 -20t-18.5 -64v-65h181v227h100v-611q0 -24 10 -34t29 -10h9v-85h-80l-10.5 4.5t-23.5 16.5t-23.5 34.5
t-10.5 58.5v312h-181v-426h-100v426h-198v-426h-100v426h-86v87z" />
    <glyph glyph-name=".notdef" horiz-adv-x="500" 
d="M0 0v680h500v-680h-500zM60 620v-560h380v560h-380z" />
    <glyph glyph-name=".null" horiz-adv-x="0" 
 />
    <glyph glyph-name="nonmarkingreturn" horiz-adv-x="333" 
 />
    <glyph glyph-name="space" unicode=" " horiz-adv-x="211" 
 />
    <glyph glyph-name="exclam" unicode="!" horiz-adv-x="269" 
d="M193 680v-68l-19 -416h-81l-19 416v68h119zM66 68q0 29 18 47t50 18q34 0 51 -18.5t17 -46.5v-7q0 -30 -17.5 -47.5t-50.5 -17.5q-34 0 -51 18.5t-17 46.5v7z" />
    <glyph glyph-name="quotedbl" unicode="&#x22;" horiz-adv-x="366" 
d="M46 401v279h90v-279h-90zM229 401v279h90v-279h-90z" />
    <glyph glyph-name="numbersign" unicode="#" horiz-adv-x="612" 
d="M35 281h128l24 120h-115v73h130l42 206h70v-47l-32 -159h108l42 206h71v-47l-32 -159h107v-73h-122l-25 -120h110v-73h-125l-42 -208h-70v47l33 161h-110l-42 -208h-70v47l33 161h-113v73zM242 281h109l25 120h-109z" />
    <glyph glyph-name="dollar" unicode="$" horiz-adv-x="559" 
d="M79 165h76l4.5 -6.5t17 -13.5t35 -13.5t58.5 -6.5q58 0 84.5 22.5t26.5 62.5q0 28 -19.5 48.5t-64.5 34.5l-56 18q-82 26 -114.5 66t-32.5 101q0 64 38 105.5t109 52.5v182h92v-180q35 -3 61.5 -10.5t43.5 -14.5t25 -13l8 -6v-79h-78l-4 6.5t-14.5 13.5t-30 13.5
t-49.5 6.5q-57 0 -79.5 -21.5t-22.5 -53.5q0 -24 15.5 -42.5t62.5 -33.5l58 -18q81 -26 116 -67t35 -103q0 -67 -38 -112.5t-110 -58.5v-183h-92v179q-42 2 -72.5 9.5t-50 15t-29 13.5l-9.5 6v80z" />
    <glyph glyph-name="percent" unicode="%" horiz-adv-x="901" 
d="M193 270q-74 0 -111.5 40.5t-37.5 108.5v119q0 68 37.5 108.5t111.5 40.5t111.5 -40.5t37.5 -108.5v-119q0 -68 -37.5 -108.5t-111.5 -40.5zM620 680h56v-47l-395 -633h-56v47zM193 615q-36 0 -51.5 -20t-15.5 -56v-121q0 -36 15.5 -56t51.5 -20t51.5 20t15.5 56v121
q0 36 -15.5 56t-51.5 20zM708 -7q-74 0 -111.5 40.5t-37.5 108.5v119q0 68 37.5 108.5t111.5 40.5t111.5 -40.5t37.5 -108.5v-119q0 -68 -37.5 -108.5t-111.5 -40.5zM708 338q-36 0 -51.5 -20t-15.5 -56v-121q0 -36 15.5 -56t51.5 -20t51.5 20t15.5 56v121q0 36 -15.5 56
t-51.5 20z" />
    <glyph glyph-name="ampersand" unicode="&#x26;" horiz-adv-x="616" 
d="M58 173q0 62 32 102.5t79 68.5q-34 40 -52 81t-18 91q0 81 51 127.5t144 46.5t144 -45.5t51 -123.5q0 -62 -35.5 -105.5t-113.5 -80.5l-20 -9l133 -133q4 15 5.5 31.5t1.5 35.5v78h90v-77q0 -39 -6.5 -74t-19.5 -64l61 -61v-62h-70l-48 47q-32 -27 -79 -41.5t-107 -14.5
q-122 0 -172.5 52t-50.5 130zM198 517q0 -35 13 -63t47 -65l33 16q61 30 80 56t19 59q0 43 -26.5 64t-69.5 21q-45 0 -70.5 -22t-25.5 -66zM158 176q0 -46 30.5 -73.5t93.5 -27.5q38 0 69 8.5t53 26.5l-173 171q-34 -20 -53.5 -45.5t-19.5 -59.5z" />
    <glyph glyph-name="quotesingle" unicode="'" horiz-adv-x="183" 
d="M46 401v279h90v-279h-90z" />
    <glyph glyph-name="parenleft" unicode="(" horiz-adv-x="316" 
d="M70 275q0 87 17 160.5t41 130.5t50 97t45 60h78v-58q-16 -19 -38.5 -53t-43 -82.5t-35 -112.5t-14.5 -142t14 -142t35 -112.5t43.5 -82.5t38.5 -53v-58h-78q-19 20 -45 60t-50 97t-41 130.5t-17 160.5z" />
    <glyph glyph-name="parenright" unicode=")" horiz-adv-x="316" 
d="M246 275q0 -87 -17 -160.5t-41 -130.5t-50 -97t-45 -60h-78v58q16 19 38.5 53t43.5 82.5t35 112.5t14 142t-14.5 142t-35 112.5t-43 82.5t-38.5 53v58h78q19 -20 45 -60t50 -97t41 -130.5t17 -160.5z" />
    <glyph glyph-name="asterisk" unicode="*" horiz-adv-x="420" 
d="M175 695h70v-51q0 -25 -2.5 -53l-2.5 -28l1 -1l23 16t44 29l45 25l35 -61l-44 -25q-22 -13 -46.5 -24.5l-24.5 -11.5v-2l24.5 -11.5t46.5 -24.5l44 -25l-35 -61l-45 25q-21 13 -44 29l-23 16l-1 -1l2.5 -28t2.5 -53v-51h-70v51q0 25 2.5 53l2.5 28l-1 1l-23 -16t-44 -29
l-45 -25l-35 61l44 25q22 13 47 24.5l25 11.5v2l-25 11.5t-47 24.5l-44 25l35 61l45 -25q21 -13 44 -29l23 -16l1 1l-2.5 28t-2.5 53v51z" />
    <glyph glyph-name="plus" unicode="+" horiz-adv-x="600" 
d="M65 344h188v188h93v-188h189v-93h-189v-188h-93v188h-188v93z" />
    <glyph glyph-name="comma" unicode="," horiz-adv-x="219" 
d="M13 -139l7.5 20t17 54.5t17 83t7.5 105.5h103v-60q-9 -53 -21.5 -91.5t-23.5 -63t-19 -36.5l-8 -12h-80z" />
    <glyph glyph-name="hyphen" unicode="-" horiz-adv-x="381" 
d="M50 298h282v-93h-282v93z" />
    <glyph glyph-name="period" unicode="." horiz-adv-x="219" 
d="M44 66q0 28 17 44.5t48 16.5q32 0 49 -16.5t17 -44.5v-8q0 -28 -17 -45t-49 -17q-31 0 -48 17t-17 45v8z" />
    <glyph glyph-name="slash" unicode="/" horiz-adv-x="363" 
d="M274 680h78v-64l-263 -616h-78v64z" />
    <glyph glyph-name="zero" unicode="0" horiz-adv-x="582" 
d="M66 240v200q0 127 56.5 188.5t168.5 61.5t168.5 -61.5t56.5 -188.5v-200q0 -127 -56.5 -188.5t-168.5 -61.5t-168.5 61.5t-56.5 188.5zM170 236q0 -82 28 -117t93 -35t93 35t28 117v208q0 82 -28 117t-93 35t-93 -35t-28 -117v-208z" />
    <glyph glyph-name="one" unicode="1" horiz-adv-x="395" 
d="M51 577v63l135 40h75v-595l107 -12v-73h-317v73l107 12v492h-107z" />
    <glyph glyph-name="two" unicode="2" horiz-adv-x="492" 
d="M46 559v85l13 6.5t37 15t60 15t81 6.5q107 0 160 -45.5t52 -138.5q0 -60 -26 -109.5t-84 -112.5l-169 -185v-2l29.5 1t63.5 1h186v-96h-409v96l238 264q25 28 46 64t21 78q0 43 -25 69t-83 26q-34 0 -55.5 -6t-34 -13t-17 -13l-4.5 -6h-80z" />
    <glyph glyph-name="three" unicode="3" horiz-adv-x="504" 
d="M39 32l-1 85h79l6 -5t18.5 -11.5t33.5 -11.5t50 -5q69 0 101 30t32 84q0 49 -22.5 81t-85.5 32q-31 0 -49.5 -6.5l-18.5 -6.5h-71v83l204 204v2h-9.5t-23 -0.5t-28.5 -0.5h-25h-181v94h391v-99l-138 -133q-19 -18 -42.5 -38l-23.5 -20l1 -2l15.5 3.5t40.5 3.5
q76 0 122 -48t46 -143q0 -99 -61.5 -155.5t-176.5 -56.5q-42 0 -76 6.5t-57.5 13.5t-36.5 13.5z" />
    <glyph glyph-name="four" unicode="4" horiz-adv-x="534" 
d="M512 229v-90h-89v-139h-102v139h-298v91l221 450h179v-451h89zM126 229h195v209q0 21 0.5 48t1 50t1 39l0.5 16h-24l-16 -37t-41 -88z" />
    <glyph glyph-name="five" unicode="5" horiz-adv-x="525" 
d="M286 433q100 0 146.5 -57.5t46.5 -151.5q0 -105 -60 -168.5t-176 -63.5q-47 0 -83 6.5t-60 14.5t-36 14.5l-12 6.5v84h81l4.5 -5.5t17 -11.5t34 -11.5t55.5 -5.5q68 0 100 36.5t32 97.5q0 57 -25 90.5t-87 33.5q-29 0 -50.5 -6.5t-35.5 -15t-20.5 -15l-6.5 -6.5h-83v68
l25 313h355v-94h-173q-37 0 -64 1l-27 1l-8 -101q-1 -13 -2.5 -27.5t-2.5 -27t-1.5 -21l-0.5 -8.5h2l30 15t85 15z" />
    <glyph glyph-name="six" unicode="6" horiz-adv-x="530" 
d="M52 238v31q0 125 41.5 205.5t90.5 126t90.5 62.5l41.5 17h75v-80q-12 0 -44.5 -9.5t-69 -35t-69.5 -70.5t-46 -116h3l9 9t27 20t45.5 20t64.5 9q101 0 143 -60t42 -153q0 -99 -55.5 -160.5t-162.5 -61.5q-111 0 -168.5 60.5t-57.5 185.5zM154 216q0 -66 30.5 -101.5
t93.5 -35.5q60 0 88 35.5t28 96.5q0 67 -27.5 98t-80.5 31q-31 0 -56 -8t-41.5 -17.5t-25.5 -17.5l-9 -8v-73z" />
    <glyph glyph-name="seven" unicode="7" horiz-adv-x="467" 
d="M236 0h-102v81l176 441q3 8 7.5 19t8.5 21t7 17l3 7v3h-222l-8 -56h-88v147h422v-98l-192 -484q-10 -24 -11 -46.5t-1 -37.5v-14z" />
    <glyph glyph-name="eight" unicode="8" horiz-adv-x="564" 
d="M66 499q0 84 51.5 137.5t164.5 53.5t164 -53.5t51 -137.5q0 -37 -10 -66t-22.5 -48.5t-22.5 -29.5l-10 -10v-2l12 -11t25.5 -31.5t25.5 -50.5t12 -68q0 -87 -53.5 -139.5t-171.5 -52.5t-172 52.5t-54 139.5q0 38 12 68t26 50.5t26 31.5l12 11v2l-10.5 10t-22.5 29.5
t-22.5 48.5t-10.5 66zM170 496q0 -29 7 -49t16 -32t16 -17.5l7 -5.5h131l7.5 5.5t16 17.5t16 32t7.5 49q0 52 -27.5 77.5t-84.5 25.5t-84.5 -25.5t-27.5 -77.5zM404 186q1 29 -7.5 50t-19 34.5t-19 20l-8.5 6.5h-136l-9 -6.5t-19 -20t-18.5 -34.5t-7.5 -50q1 -53 31.5 -79.5
t90.5 -26.5t90.5 26.5t31.5 79.5z" />
    <glyph glyph-name="nine" unicode="9" horiz-adv-x="530" 
d="M478 442v-31q0 -125 -41.5 -205.5t-90.5 -126t-90.5 -62.5l-41.5 -17h-75v80q12 0 44.5 9.5t69 35t69.5 70.5t46 116h-3l-9 -9t-27 -20t-45.5 -20t-64.5 -9q-101 0 -143 60t-42 153q0 99 55.5 160.5t162.5 61.5q111 0 168.5 -60.5t57.5 -185.5zM244 340q31 0 56 8
t41.5 17.5t25.5 17.5l9 8v73q0 66 -30.5 101.5t-93.5 35.5q-60 0 -88 -35.5t-28 -96.5q0 -67 27.5 -98t80.5 -31z" />
    <glyph glyph-name="colon" unicode=":" horiz-adv-x="219" 
d="M44 443q0 28 17 44.5t48 16.5q32 0 49 -16.5t17 -44.5v-8q0 -28 -17 -45t-49 -17q-31 0 -48 17t-17 45v8zM44 66q0 28 17 44.5t48 16.5q32 0 49 -16.5t17 -44.5v-8q0 -28 -17 -45t-49 -17q-31 0 -48 17t-17 45v8z" />
    <glyph glyph-name="semicolon" unicode=";" horiz-adv-x="219" 
d="M44 443q0 28 17 44.5t48 16.5q32 0 49 -16.5t17 -44.5v-8q0 -28 -17 -45t-49 -17q-31 0 -48 17t-17 45v8zM13 -139l7.5 20t17 54.5t17 83t7.5 105.5h103v-60q-9 -53 -21.5 -91.5t-23.5 -63t-19 -36.5l-8 -12h-80z" />
    <glyph glyph-name="less" unicode="&#x3c;" horiz-adv-x="600" 
d="M63 342l419 167h55v-80l-217 -83q-18 -7 -39.5 -15.5t-40 -15t-30.5 -11l-12 -4.5v-4l12 -4.5t30.5 -11t40 -15t39.5 -15.5l217 -83v-80h-55l-419 167v88z" />
    <glyph glyph-name="equal" unicode="=" horiz-adv-x="600" 
d="M65 452h470v-93h-470v93zM65 236h470v-92h-470v92z" />
    <glyph glyph-name="greater" unicode="&#x3e;" horiz-adv-x="600" 
d="M537 342v-88l-419 -167h-55v80l217 83q18 7 39.5 15.5t40 15t30.5 11l12 4.5v4l-12 4.5t-30.5 11t-40 15t-39.5 15.5l-217 83v80h55z" />
    <glyph glyph-name="question" unicode="?" horiz-adv-x="393" 
d="M131 195v66l81 128q20 31 36.5 66.5t15.5 72.5q-1 34 -24 51.5t-67 17.5q-26 0 -43.5 -5t-27 -11.5t-13.5 -11.5l-4 -5h-80v82l11 6.5t33 14t54.5 14t74.5 6.5q96 0 142 -41.5t47 -117.5q1 -54 -20 -100.5t-47 -87.5l-91 -145h-78zM107 68q0 29 17.5 47t50.5 18
q34 0 51 -18.5t17 -46.5v-7q0 -30 -17.5 -47.5t-50.5 -17.5q-34 0 -51 18.5t-17 46.5v7z" />
    <glyph glyph-name="at" unicode="@" horiz-adv-x="933" 
d="M737 -25v-65l-16.5 -10.5t-49.5 -22.5t-84.5 -22.5t-120.5 -10.5q-193 0 -291 100.5t-98 281.5v60q0 177 98 277t292 100q196 0 292 -94.5t96 -264.5v-11q0 -119 -46.5 -175t-126.5 -56q-35 0 -59 9t-38 20t-20 20l-6 9h-3l-7.5 -9t-22.5 -20t-37 -20t-51 -9
q-74 0 -109 46t-35 135v24q0 89 37.5 135.5t106.5 46.5q25 0 44 -7t32 -16t19.5 -16l6.5 -7h3l12 37h69v-211q0 -36 8 -64.5t55 -28.5q36 0 56 29t20 107v31q0 135 -66.5 206.5t-229.5 71.5q-150 0 -223.5 -75t-73.5 -220v-60q0 -147 75.5 -223.5t220.5 -76.5q56 0 95.5 7.5
t64.5 17t36.5 17l11.5 7.5h63zM384 243q0 -59 19 -81.5t57 -22.5q18 0 32 5.5t23.5 12.5t14.5 12.5l5 5.5v162l-5 5.5t-14.5 12t-23.5 12t-32 5.5q-38 0 -57 -23.5t-19 -81.5v-24z" />
    <glyph glyph-name="A" unicode="A" horiz-adv-x="595" 
d="M33 0v61l177 619h175l177 -619v-61h-92l-44 160q-32 -7 -64.5 -11t-66.5 -4q-33 0 -65 3.5t-63 10.5l-44 -159h-90zM244 439l-52 -190q25 -5 50.5 -8t52.5 -3t53.5 3t52.5 9l-53 189q-7 27 -14 53.5t-12 48t-8 34.5l-3 13h-28l-3 -13t-8.5 -34.5t-12.5 -48t-15 -53.5z
" />
    <glyph glyph-name="B" unicode="B" horiz-adv-x="586" 
d="M85 0v680h228q111 0 162.5 -48t51.5 -131q0 -42 -13 -71.5t-28.5 -48t-28.5 -27l-13 -8.5v-2l14.5 -9t31.5 -28t31.5 -48.5t14.5 -69.5q0 -88 -53.5 -138.5t-163.5 -50.5h-234zM315 589h-129v-200h171l10.5 5t23.5 17t23.5 32.5t10.5 50.5q0 46 -28.5 70.5t-81.5 24.5z
M358 299h-172v-208h140q51 0 78.5 28t28.5 76q0 29 -12 49t-25.5 32t-25.5 17.5z" />
    <glyph glyph-name="C" unicode="C" horiz-adv-x="554" 
d="M60 258v164q0 134 62.5 200.5t181.5 66.5q59 0 99 -15t63.5 -33t33.5 -33l10 -15v-79h-87l-2.5 13t-14 28t-35.5 28t-66 13q-75 0 -108 -42t-33 -126v-176q0 -84 33 -126t108 -42q42 0 66 13t35.5 28t14 28l2.5 13h87v-79l-10 -15t-33.5 -33t-63.5 -33t-99 -15
q-119 0 -181.5 66.5t-62.5 200.5z" />
    <glyph glyph-name="D" unicode="D" horiz-adv-x="617" 
d="M309 0h-224v680h224q122 0 185 -64t63 -200v-152q0 -136 -63 -200t-185 -64zM305 587h-117v-494h117q74 0 111 34.5t37 123.5v178q0 89 -37 123.5t-111 34.5z" />
    <glyph glyph-name="E" unicode="E" horiz-adv-x="533" 
d="M85 0v680h406l-15 -94h-288v-197h257v-94h-257v-201h293v-94h-396z" />
    <glyph glyph-name="F" unicode="F" horiz-adv-x="494" 
d="M85 0v680h391l-15 -94h-273v-197h242v-94h-242v-295h-103z" />
    <glyph glyph-name="G" unicode="G" horiz-adv-x="599" 
d="M60 257v162q0 136 64.5 203t186.5 67q59 0 98.5 -15t63.5 -33.5t34.5 -33.5l10.5 -15v-78h-86q-2 12 -10 26.5t-22.5 27t-37 20.5t-53.5 8q-75 0 -110 -42t-35 -126v-182q0 -85 33.5 -126.5t107.5 -41.5q29 0 51.5 7.5t38 16.5t24 16.5l8.5 7.5v171h-129v92h227v-389h-78
l-13 50h-2l-10 -9t-29 -20.5t-47.5 -20.5t-65.5 -9q-109 0 -164.5 67t-55.5 199z" />
    <glyph glyph-name="H" unicode="H" horiz-adv-x="649" 
d="M564 680v-680h-103v295h-273v-295h-103v680h103v-291h273v291h103z" />
    <glyph glyph-name="I" unicode="I" horiz-adv-x="335" 
d="M49 75l67 10v510l-67 10v75h237v-75l-67 -10v-510l67 -10v-75h-237v75z" />
    <glyph glyph-name="J" unicode="J" horiz-adv-x="454" 
d="M38 105h74l13.5 -9.5t51.5 -9.5q49 0 72.5 23.5t23.5 72.5v407h-215v91h318v-489q0 -102 -53 -150t-152 -48q-63 0 -98 12l-35 12v88z" />
    <glyph glyph-name="K" unicode="K" horiz-adv-x="583" 
d="M188 296v-296h-103v680h103v-187q0 -40 -1 -72l-1 -32h66l19.5 26t49.5 63l159 202h76v-62l-220 -271v-3l21.5 -32t55 -76.5t75 -93t79.5 -80.5v-62h-82q-36 32 -77.5 82.5t-76.5 97.5t-58 81.5l-23 34.5h-62z" />
    <glyph glyph-name="L" unicode="L" horiz-adv-x="483" 
d="M85 0v680h103v-587h283l-15 -93h-371z" />
    <glyph glyph-name="M" unicode="M" horiz-adv-x="819" 
d="M85 0v680h174l107 -413q6 -24 13 -55t13.5 -59t10.5 -47l4 -19h8l4 19t10.5 47t13.5 59t13 55l107 413h171v-680h-100v378q0 22 1 58.5t1.5 71.5t1.5 60.5l1 25.5h-10l-5 -20t-11.5 -48t-14.5 -59.5t-14 -53.5l-110 -413h-129l-110 413q-6 22 -13.5 53.5t-14.5 59.5
l-12 48l-5 20h-9l0.5 -25.5t1.5 -60.5t1.5 -71.5t0.5 -58.5v-378h-100z" />
    <glyph glyph-name="N" unicode="N" horiz-adv-x="649" 
d="M85 0v680h110l215 -367q7 -12 16.5 -30.5t18.5 -36t15 -30.5l6 -13h2l-1 14.5t-1.5 36.5t-1.5 50t-1 55v321h101v-680h-101v45l-216 368q-11 19 -22 39.5t-20 36.5t-14.5 26.5l-5.5 10.5h-3l2 -38t2 -88v-400h-101z" />
    <glyph glyph-name="O" unicode="O" horiz-adv-x="628" 
d="M60 262v156q0 133 64 202.5t190 69.5q125 0 189.5 -69.5t64.5 -202.5v-156q0 -132 -64 -202t-190 -70q-125 0 -189.5 69.5t-64.5 202.5zM164 253q0 -91 37.5 -131t112.5 -40t112.5 40t37.5 131v174q0 91 -37.5 131t-112.5 40t-112.5 -40t-37.5 -131v-174z" />
    <glyph glyph-name="P" unicode="P" horiz-adv-x="566" 
d="M85 0v680h232q109 0 165.5 -53.5t56.5 -152.5q0 -60 -23 -100.5t-51 -64.5t-51 -34l-23 -10h-203v-265h-103zM188 359h172l12 5.5t25.5 18.5t25.5 36t12 57q0 49 -27.5 79.5t-84.5 30.5h-135v-227z" />
    <glyph glyph-name="Q" unicode="Q" horiz-adv-x="633" 
d="M60 262v156q0 133 64 202.5t190 69.5q125 0 189.5 -69.5t64.5 -202.5v-156q0 -87 -28 -148t-83 -92q15 -25 42.5 -60.5t65.5 -64.5v-64h-73q-24 19 -45.5 41.5t-38.5 44.5t-30 41.5t-20 31.5q-10 -1 -21.5 -1.5t-22.5 -0.5q-125 0 -189.5 69.5t-64.5 202.5zM164 253
q0 -91 37.5 -131t112.5 -40t112.5 40t37.5 131v174q0 91 -37.5 131t-112.5 40t-112.5 -40t-37.5 -131v-174z" />
    <glyph glyph-name="R" unicode="R" horiz-adv-x="591" 
d="M85 0v680h240q107 0 164 -49t57 -146q0 -58 -22.5 -96.5t-49.5 -61t-49.5 -31.5l-22.5 -9l11 -22t31 -55.5t47.5 -73t59.5 -74.5v-62h-79q-35 38 -67.5 86.5t-56.5 91t-38 71.5l-14 29h-108v-278h-103zM188 371h170l13 4t29 15.5t29 33.5t13 58q0 49 -27.5 77t-83.5 28
h-143v-216z" />
    <glyph glyph-name="S" unicode="S" horiz-adv-x="525" 
d="M47 34v87h79l5 -6t18.5 -13t37 -13t60.5 -6q72 0 101.5 28t29.5 71q0 42 -24 66.5t-73 40.5l-63 22q-95 32 -129 79t-34 112q0 89 60.5 137t164.5 48q43 0 77 -6.5t58 -14t37 -14l13 -6.5v-88h-81l-5 6t-17 13.5t-33 13.5t-53 6q-61 0 -89.5 -25.5t-28.5 -66.5
q0 -38 22.5 -60t73.5 -39l63 -22q93 -33 127.5 -78.5t35.5 -115.5q1 -93 -58.5 -145t-174.5 -52q-46 0 -83.5 6.5t-63 14t-39.5 14z" />
    <glyph glyph-name="T" unicode="T" horiz-adv-x="471" 
d="M443 587h-157v-587h-103v587h-166v93h441z" />
    <glyph glyph-name="U" unicode="U" horiz-adv-x="644" 
d="M77 225v455h103v-453q0 -81 28.5 -112.5t101.5 -31.5q32 0 59.5 8t46.5 18t29.5 18l10.5 8v545h103v-680h-82l-13 60h-3l-13.5 -10.5t-37 -23.5t-56.5 -23.5t-72 -10.5q-107 0 -156 53t-49 180z" />
    <glyph glyph-name="V" unicode="V" horiz-adv-x="580" 
d="M27 680h92l124 -440q8 -27 14.5 -53.5t11.5 -47.5t7.5 -34l2.5 -13h24l3 13t8 34t12 47.5t14 53.5l124 440h89v-62l-177 -618h-174l-175 618v62z" />
    <glyph glyph-name="W" unicode="W" horiz-adv-x="897" 
d="M37 680h92l90 -420q6 -29 11 -59.5t9 -55t6 -40.5l2 -16h15l2 16t6 40.5t8.5 55.5t10.5 60l81 419h160l81 -419q6 -29 10.5 -60t8 -55.5t5.5 -40.5l2 -16h16l2 16t6 40.5t9 55t11 59.5l90 420h89v-62l-134 -618h-162l-80 419q-6 30 -11 61t-8.5 55.5t-6 40l-2.5 15.5h-15
l-2.5 -15.5t-6 -40t-8.5 -55.5t-11 -61l-80 -419h-161l-135 618v62z" />
    <glyph glyph-name="X" unicode="X" horiz-adv-x="573" 
d="M30 0v60l159 282v6l-157 272v60h84l109 -193q18 -33 34 -64.5l16 -31.5h26l16.5 31.5t34.5 64.5l109 193h80v-60l-156 -272v-6l158 -282v-60h-83l-111 199q-7 15 -16 32t-16.5 31.5t-12.5 24.5l-5 10h-26l-5 -10t-12.5 -24.5t-16.5 -31.5t-17 -32l-111 -199h-81z" />
    <glyph glyph-name="Y" unicode="Y" horiz-adv-x="544" 
d="M144 75l74 10h1v178l-200 352v65h81l117 -214q22 -39 38 -72l16 -33h5l16 31.5t38 71.5l119 216h76v-65l-203 -352v-178l74 -10v-75h-252v75z" />
    <glyph glyph-name="Z" unicode="Z" horiz-adv-x="534" 
d="M42 0v101l246 367l30 42t26.5 38t19 27.5l7.5 10.5v3l-10 -0.5t-25 -1t-33 -1t-34 -0.5h-220v94h437v-101l-246 -367q-32 -46 -58 -81.5l-26 -35.5v-3l10 0.5t24.5 0.5t32 0.5t32.5 0.5h237v-94h-450z" />
    <glyph glyph-name="bracketleft" unicode="[" horiz-adv-x="303" 
d="M92 723h195v-90h-95v-716h95v-90h-195v896z" />
    <glyph glyph-name="backslash" unicode="\" horiz-adv-x="363" 
d="M89 680l263 -616v-64h-78l-263 616v64h78z" />
    <glyph glyph-name="bracketright" unicode="]" horiz-adv-x="303" 
d="M211 723v-896h-195v90h95v716h-95v90h195z" />
    <glyph glyph-name="asciicircum" unicode="^" horiz-adv-x="600" 
d="M256 680h88l174 -415v-55h-83l-89 224q-7 18 -14.5 38t-14 37t-11 28l-4.5 11h-4l-4.5 -11t-11 -28t-14 -37t-14.5 -38l-89 -224h-83v55z" />
    <glyph glyph-name="underscore" unicode="_" horiz-adv-x="500" 
d="M0 -79h500v-93h-500v93z" />
    <glyph glyph-name="grave" unicode="`" horiz-adv-x="216" 
d="M109 740l82 -168h-84l-82 118v50h84z" />
    <glyph glyph-name="a" unicode="a" horiz-adv-x="526" 
d="M85 399v81l11.5 6t33.5 13t55 13.5t76 6.5q99 0 144.5 -42t45.5 -122v-355h-83l-13 54h-3l-9.5 -9.5t-28.5 -21t-47 -21t-65 -9.5q-84 0 -119.5 42.5t-35.5 111.5q0 72 43 111t138 39h124v55q0 40 -23.5 59.5t-75.5 19.5q-26 0 -43.5 -5t-27 -11t-13.5 -11l-4 -5h-80z
M233 76q31 0 53.5 8t37 18t21.5 18l7 8v94h-119q-47 0 -67.5 -20t-20.5 -51q0 -39 19.5 -57t68.5 -18z" />
    <glyph glyph-name="b" unicode="b" horiz-adv-x="561" 
d="M332 518q96 0 138 -63.5t42 -179.5v-37q0 -110 -47 -176.5t-144 -66.5q-35 0 -62.5 9t-45.5 20t-27.5 20l-9.5 9h-3l-12 -53h-81v740h100v-186q0 -15 -0.5 -32t-0.5 -31.5t-0.5 -24l-0.5 -9.5h3l9.5 9.5t28 21t47 21t66.5 9.5zM180 128l7.5 -7t21.5 -16t35 -16t49 -7
q66 0 91.5 43t25.5 124v15q0 81 -21 124t-89 43q-28 0 -50.5 -7.5t-38 -17t-23.5 -17l-8 -7.5v-254z" />
    <glyph glyph-name="c" unicode="c" horiz-adv-x="470" 
d="M50 242v28q0 131 59 189.5t160 58.5q40 0 70.5 -6t50 -13.5t29.5 -13.5l10 -6v-84h-80q0 1 -4.5 6.5t-14 12t-25 11.5t-38.5 5q-63 0 -89 -38.5t-26 -124.5v-22q0 -86 26 -124.5t89 -38.5q23 0 38.5 5t25 11.5t14 12t4.5 6.5h80v-83l-10 -6t-29.5 -13.5t-50 -13.5
t-70.5 -6q-101 0 -160 58t-59 189z" />
    <glyph glyph-name="d" unicode="d" horiz-adv-x="561" 
d="M50 238v38q0 110 46.5 176t144.5 66q34 0 60 -7t44 -15.5t27 -15.5l9 -7h3l-0.5 10t-1 25t-1 32.5t-0.5 32.5v167h100v-740h-84l-13 55h-3l-9.5 -9.5t-28.5 -20.5t-47.5 -20.5t-66.5 -9.5q-96 0 -137.5 63.5t-41.5 179.5zM261 82q29 0 51.5 7.5t37.5 16.5t23 16.5l8 7.5
v264l-7.5 6t-21.5 12.5t-35 12.5t-49 6q-66 0 -91 -43t-25 -124v-15q0 -81 20.5 -124t88.5 -43z" />
    <glyph glyph-name="e" unicode="e" horiz-adv-x="520" 
d="M50 242v28q0 123 58 187t154 64q44 0 82.5 -11t66.5 -37t44 -68.5t16 -105.5q0 -30 -2.5 -54l-2.5 -24h-315v-2q0 -63 27 -101t96 -39q28 0 47 4.5t31 10.5t17 11l5 5h78v-80l-12 -6t-34.5 -13t-56 -13t-76.5 -6q-109 0 -166 64t-57 186zM151 301v-4h218l0.5 7t0.5 16
q0 61 -27.5 89.5t-80.5 28.5q-48 0 -79.5 -31.5t-31.5 -105.5z" />
    <glyph glyph-name="f" unicode="f" horiz-adv-x="308" 
d="M14 513h86v65q0 51 14 82.5t31 49.5t31 24l14 6h78v-85h-4q-28 0 -46 -16.5t-18 -60.5v-65h86v-87h-86v-426h-100v426h-86v87z" />
    <glyph glyph-name="g" unicode="g" horiz-adv-x="537" 
d="M48 -59q0 26 9.5 46.5t21.5 34.5t21.5 21.5l9.5 7.5v2l-6 4.5t-12.5 13t-12.5 22.5t-6 33q0 21 6 37.5t13.5 28t14 18l6.5 6.5v1l-8.5 8t-18 24.5t-18 41t-8.5 57.5v5q0 69 45 116t151 47q57 0 90 -9.5l33 -9.5h1q4 28 16.5 46t25.5 28.5t23 14.5l10 4h77v-84h-22
q-28 0 -39.5 -15.5t-11.5 -41.5v-101q-1 -73 -47 -119t-152 -46h-86l-8 -11t-8 -27t8 -26.5t28 -10.5h163q71 0 108 -35t37 -97q0 -74 -52 -115.5t-178 -41.5h-24q-64 0 -103.5 10t-61 26.5t-28.5 38.5t-7 47zM155 343q0 -20 5 -34.5t11 -23.5t11 -13.5l5 -4.5h68
q58 -1 83.5 21t25.5 66v60l-27 8.5t-79 8.5q-58 0 -80.5 -22t-22.5 -63v-3zM142 -42q1 -29 23.5 -44t83.5 -15h31q41 0 66 5t39 14t18.5 21.5t4.5 27.5q0 21 -13 38t-47 17h-178l-14 -15.5t-14 -48.5z" />
    <glyph glyph-name="h" unicode="h" horiz-adv-x="567" 
d="M80 0v740h100v-188q0 -16 -0.5 -33t-1 -31t-1 -23l-0.5 -9h3l10.5 10t31 22.5t51 22.5t71.5 10q69 0 108.5 -38t39.5 -116v-367h-100v355q0 39 -21 59.5t-68 20.5q-27 0 -49.5 -8t-39 -17.5t-25.5 -17.5l-9 -8v-384h-100z" />
    <glyph glyph-name="i" unicode="i" horiz-adv-x="261" 
d="M69 677q0 26 15.5 42t45.5 16q31 0 46.5 -16t15.5 -42v-8q0 -26 -15.5 -41.5t-46.5 -15.5q-30 0 -45.5 15.5t-15.5 41.5v8zM80 0v513h100v-513h-100z" />
    <glyph glyph-name="j" unicode="j" horiz-adv-x="261" 
d="M69 677q0 26 15.5 42t45.5 16q31 0 46.5 -16t15.5 -42v-8q0 -26 -15.5 -41.5t-46.5 -15.5q-30 0 -45.5 15.5t-15.5 41.5v8zM80 513h100v-498q0 -57 -14.5 -93.5t-31.5 -57.5t-31.5 -29l-14.5 -8h-76v83h6q16 0 39 15t23 75v513z" />
    <glyph glyph-name="k" unicode="k" horiz-adv-x="525" 
d="M80 0v740h100v-328q0 -34 -0.5 -65.5l-0.5 -31.5h64l7 8.5t17.5 20t22.5 25t21 23.5l110 121h71v-60l-167 -177v-4l15 -23.5t40 -56.5t57 -69t65 -61v-62h-77q-32 26 -64.5 64.5t-58 74.5t-42 61.5l-16.5 25.5h-64v-226h-100z" />
    <glyph glyph-name="l" unicode="l" horiz-adv-x="261" 
d="M226 0h-80l-10.5 4.5t-23.5 16.5t-23.5 34.5t-10.5 58.5v626h100v-611q0 -24 10 -34t29 -10h9v-85z" />
    <glyph glyph-name="m" unicode="m" horiz-adv-x="857" 
d="M80 0v513h83l13 -57h3l10 10t30 22.5t50 22.5t69 10q45 0 78 -19t48 -53h3l11.5 11.5t33.5 24.5t54 24.5t73 11.5q68 0 105 -39t37 -115v-367h-100v355q0 39 -18.5 59.5t-64.5 20.5q-26 0 -47.5 -8t-37 -17.5t-24 -17.5l-8.5 -8v-384h-100v355q0 39 -19 59.5t-65 20.5
q-25 0 -47 -8t-37 -17.5t-24 -17.5l-9 -8v-384h-100z" />
    <glyph glyph-name="n" unicode="n" horiz-adv-x="567" 
d="M80 0v513h83l13 -57h3l10.5 10t30.5 22.5t50.5 22.5t70.5 10q70 0 110.5 -38t40.5 -116v-367h-100v355q0 39 -21 59.5t-68 20.5q-26 0 -49 -8t-39 -17.5t-25.5 -17.5l-9.5 -8v-384h-100z" />
    <glyph glyph-name="o" unicode="o" horiz-adv-x="544" 
d="M50 242v28q0 118 56 184.5t166 66.5t166.5 -66.5t56.5 -184.5v-28q0 -117 -56.5 -183.5t-166.5 -66.5t-166 66.5t-56 183.5zM152 248q0 -90 28.5 -129.5t91.5 -39.5t92 39.5t29 129.5v17q0 90 -29 129.5t-92 39.5t-91.5 -39.5t-28.5 -129.5v-17z" />
    <glyph glyph-name="p" unicode="p" horiz-adv-x="561" 
d="M320 -5q-32 0 -56.5 6t-42 14t-27.5 15t-13 10h-3l0.5 -10t0.5 -25t0.5 -32.5t0.5 -32.5v-113h-100v686h84l13 -55h3l9.5 9.5t28.5 20.5t47.5 20.5t66.5 9.5q96 0 138 -63.5t42 -179.5v-38q0 -110 -47 -176t-145 -66zM180 119l7.5 -6t21.5 -12.5t35 -12.5t49 -6
q66 0 91.5 43t25.5 123v16q0 81 -21 124t-89 43q-28 0 -50.5 -7.5t-38 -16.5t-23.5 -16.5l-8 -7.5v-264z" />
    <glyph glyph-name="q" unicode="q" horiz-adv-x="561" 
d="M50 275q0 110 46.5 176.5t143.5 66.5q36 0 63 -9t45.5 -19.5t27.5 -19.5l9 -9h3l12 52h81v-686h-100v131q0 15 0.5 32t0.5 31.5t0.5 24.5l0.5 10h-3l-9.5 -9.5t-28 -21t-47 -21t-66.5 -9.5q-96 0 -137.5 63.5t-41.5 179.5v37zM261 82q29 0 51.5 7.5t37.5 17t23 17l8 7.5
v254l-7 7t-21 16t-35.5 16t-49.5 7q-66 0 -91 -43t-25 -124v-16q0 -80 20.5 -123t88.5 -43z" />
    <glyph glyph-name="r" unicode="r" horiz-adv-x="357" 
d="M80 513h83l14 -66h4q3 5 11.5 16t24.5 22t41 19.5t60 8.5h14v-96h-43q-29 0 -49 -7.5t-33 -17t-19.5 -19t-7.5 -12.5v-361h-100v513z" />
    <glyph glyph-name="s" unicode="s" horiz-adv-x="448" 
d="M48 106h74l19 -14.5t70 -14.5q49 0 70 18t21 47q0 28 -19 43.5t-62 25.5l-27 7q-78 19 -108 56t-30 96q0 63 44 106.5t140 43.5q69 0 108.5 -15l39.5 -15v-82h-74l-15.5 14t-63.5 14q-51 0 -66.5 -21t-15.5 -41q0 -30 16 -44.5t57 -24.5l27 -6q77 -19 112 -54t35 -98
q0 -75 -48.5 -114.5t-147.5 -39.5q-72 0 -114 15.5l-42 15.5v82z" />
    <glyph glyph-name="t" unicode="t" horiz-adv-x="317" 
d="M14 426v87h86v127h100v-127h86v-87h-86v-278q0 -32 14.5 -47.5t39.5 -15.5h19v-85h-86l-13.5 5t-30 20.5t-30 43.5t-13.5 73v284h-86z" />
    <glyph glyph-name="u" unicode="u" 
d="M75 513h100v-355q0 -39 21.5 -59.5t68.5 -20.5q27 0 49 8t37 17.5t23.5 17.5l8.5 8v384h100v-513h-83l-14 56h-2l-10 -10t-29.5 -22t-50 -22t-70.5 -10q-69 0 -109 38t-40 115v368z" />
    <glyph glyph-name="v" unicode="v" horiz-adv-x="506" 
d="M33 513h87l95 -299q6 -19 11.5 -41t10 -41t7 -31.5l2.5 -12.5h17l2.5 12.5t6.5 31.5t10 41t12 41l95 299h83v-60l-148 -453h-143l-148 453v60z" />
    <glyph glyph-name="w" unicode="w" horiz-adv-x="818" 
d="M161 0l-124 453v60h86l75 -291q5 -19 10 -43.5t9.5 -45.5t7 -35.5l2.5 -14.5h15l2.5 14.5t6 35.5t8.5 45t9 44l68 291h144l70 -291q5 -19 10 -43.5t9 -45.5t6.5 -35.5l2.5 -14.5h16l2.5 14.5t6.5 35.5t9 45.5t10 43.5l76 291h83v-60l-124 -453h-145l-73 305
q-6 22 -10.5 44.5t-7.5 40t-5 28.5l-2 11h-14l-1.5 -11.5t-4.5 -29t-7.5 -39.5t-9.5 -44l-71 -305h-145z" />
    <glyph glyph-name="x" unicode="x" horiz-adv-x="518" 
d="M44 513h80l92 -142q11 -18 24 -40.5l13 -22.5h18l13 22.5t24 40.5l89 142h77v-60l-125 -189v-4l131 -200v-60h-78l-95 145q-11 19 -25 43.5l-14 24.5h-18l-14 -24.5t-26 -43.5l-94 -145h-78v60l130 200v4l-124 189v60z" />
    <glyph glyph-name="y" unicode="y" horiz-adv-x="506" 
d="M113 -88h26q29 0 46 12.5t27 46.5l15 52h-47l-147 430v60h87l93 -281q6 -19 12 -40t10.5 -39t7.5 -29.5l3 -11.5h17l3 11.5t7.5 29.5t10.5 39t12 40l93 281h83v-61l-147 -429l-22 -71q-12 -42 -29 -67t-32 -37.5t-25.5 -16.5l-10.5 -4h-93v85z" />
    <glyph glyph-name="z" unicode="z" horiz-adv-x="482" 
d="M50 0v100l191 238q23 28 46.5 56.5l23.5 28.5v3l-31 -1t-65 -1h-157v89h366v-100l-192 -239q-23 -28 -46.5 -56.5l-23.5 -28.5v-2l28 1t60 1h182v-89h-382z" />
    <glyph glyph-name="braceleft" unicode="{" horiz-adv-x="288" 
d="M44 231v88q40 0 56.5 17.5t16.5 51.5v171q0 49 12 81t26.5 50.5t26.5 25.5l12 7h79v-73l-9 -2t-20.5 -10.5t-20.5 -27.5t-9 -52v-171q0 -41 -15.5 -68.5t-46.5 -41.5v-4q31 -14 46.5 -41.5t15.5 -68.5v-171q0 -33 9 -52t20.5 -27.5t20.5 -10.5l9 -2v-73h-79l-12 7
t-26.5 25.5t-26.5 50.5t-12 81v171q0 34 -16.5 51.5t-56.5 17.5z" />
    <glyph glyph-name="bar" unicode="|" horiz-adv-x="261" 
d="M83 818h95v-956h-95v956z" />
    <glyph glyph-name="braceright" unicode="}" horiz-adv-x="288" 
d="M244 231q-40 0 -56.5 -17.5t-16.5 -51.5v-171q0 -49 -12 -81t-26.5 -50.5t-26.5 -25.5l-12 -7h-79v73l9 2t20.5 10.5t20.5 27.5t9 52v171q0 41 15.5 68.5t46.5 41.5v4q-31 14 -46.5 41.5t-15.5 68.5v171q0 33 -9 52t-20.5 27.5t-20.5 10.5l-9 2v73h79l12 -7t26.5 -25.5
t26.5 -50.5t12 -81v-171q0 -34 16.5 -51.5t56.5 -17.5v-88z" />
    <glyph glyph-name="asciitilde" unicode="~" horiz-adv-x="600" 
d="M51 234v71l7.5 10.5t24 22.5t42.5 22.5t62 10.5q28 0 54 -6t49 -15l28 -10q16 -6 39.5 -13.5t48.5 -7.5q23 0 37 6.5t21.5 15t10 15l2.5 6.5h71v-71l-7.5 -10.5t-23.5 -23t-42 -23t-63 -10.5q-28 0 -53.5 6t-49.5 15l-27 10q-16 7 -40 14.5t-48 7.5t-38 -6.5t-21 -15
t-9.5 -15l-2.5 -6.5h-72z" />
    <glyph glyph-name="exclamdown" unicode="&#xa1;" horiz-adv-x="269" 
d="M66 440v7q0 28 17 46.5t51 18.5q33 0 50.5 -17.5t17.5 -47.5v-7q0 -28 -17 -46.5t-51 -18.5q-32 0 -50 18t-18 47zM193 -172h-119v68l19 416h81l19 -416v-68z" />
    <glyph glyph-name="cent" unicode="&#xa2;" horiz-adv-x="470" 
d="M50 242v28q0 111 43.5 170.5t119.5 72.5v133h99v-130q59 -6 88 -21.5l29 -15.5v-84h-80q0 1 -4.5 6.5t-14 12t-25 11.5t-38.5 5q-63 0 -89 -38.5t-26 -124.5v-22q0 -86 26 -124.5t89 -38.5q23 0 38.5 5t25 11.5t14 12t4.5 6.5h80v-83l-29 -15.5t-88 -21.5v-135h-99v138
q-76 13 -119.5 72t-43.5 170z" />
    <glyph glyph-name="sterling" unicode="&#xa3;" horiz-adv-x="505" 
d="M298 188q0 -46 -15.5 -70l-15.5 -24h207v-94h-401v94h81l7.5 4.5t16.5 14.5t16.5 26.5t7.5 40.5q0 25 -7.5 48t-15.5 42h-106v90h67q-20 50 -29.5 84.5t-9.5 71.5q0 84 55 128.5t147 44.5q44 0 76 -7.5t53 -16.5t31.5 -16.5l10.5 -7.5v-81h-82l-3.5 6t-13.5 13t-27.5 13
t-45.5 6q-49 0 -74 -23.5t-25 -64.5q0 -29 11.5 -62.5t33.5 -87.5h134v-90h-97q5 -19 9 -40t4 -42z" />
    <glyph glyph-name="currency" unicode="&#xa4;" horiz-adv-x="588" 
d="M59 82l71 71q-13 22 -20 48t-7 55t6.5 54.5t19.5 47.5l-70 72l61 61l72 -70q22 13 47.5 19.5t54.5 6.5t55 -7t48 -20l71 71l61 -61l-70 -72q13 -22 19.5 -47.5t6.5 -54.5t-7 -55t-20 -48l71 -71l-61 -61l-71 71q-22 -13 -48 -20t-55 -7t-54.5 6.5t-47.5 19.5l-72 -70z
M188 256q0 -49 28.5 -80t77.5 -31t77.5 31t28.5 80t-28.5 80t-77.5 31t-77.5 -31t-28.5 -80z" />
    <glyph glyph-name="yen" unicode="&#xa5;" horiz-adv-x="535" 
d="M219 0v130h-118v81h118v72h-118v81h118l-183 255v61h73l100 -143q28 -40 43.5 -64l15.5 -24h4l15.5 23.5t43.5 63.5l100 144h68v-61l-183 -255h118v-81h-118v-72h118v-81h-118v-130h-97z" />
    <glyph glyph-name="brokenbar" unicode="&#xa6;" horiz-adv-x="261" 
d="M83 820h95v-394h-95v394zM83 256h95v-394h-95v394z" />
    <glyph glyph-name="section" unicode="&#xa7;" horiz-adv-x="505" 
d="M68 -73h69l21 -12.5t70 -12.5q55 0 73.5 23.5t18.5 45.5q0 30 -16 49t-55 38l-75 38q-64 33 -96 72.5t-32 102.5q0 57 26 94t50 56q-21 22 -31 50t-10 65q0 62 47 108t143 46q36 0 64 -5t47 -11.5t29 -11.5l10 -5v-79h-70l-17 14t-66 14q-53 0 -71 -23.5t-18 -44.5
q0 -30 16.5 -49.5t55.5 -38.5l75 -38q64 -33 96 -72.5t32 -101.5q0 -57 -26.5 -94.5t-50.5 -56.5q21 -22 31 -49.5t10 -64.5q0 -63 -48.5 -108.5t-148.5 -45.5q-71 0 -112 14.5l-41 14.5v79zM302 140q1 -1 3 -1.5t3 -1.5q16 13 32.5 36t16.5 54t-16.5 54t-59.5 44l-83 43
q-1 1 -3.5 2t-3.5 2q-16 -14 -32 -36.5t-16 -53.5q0 -32 16.5 -54.5t59.5 -44.5z" />
    <glyph glyph-name="dieresis" unicode="&#xa8;" horiz-adv-x="329" 
d="M28 645q0 25 14.5 40t44.5 15q31 0 45 -15.5t14 -39.5v-8q0 -25 -14.5 -40t-44.5 -15q-31 0 -45 16t-14 39v8zM183 645q0 25 15 40t44 15q31 0 45 -15.5t14 -39.5v-8q0 -25 -14.5 -40t-44.5 -15t-44.5 16t-14.5 39v8z" />
    <glyph glyph-name="copyright" unicode="&#xa9;" horiz-adv-x="796" 
d="M58 340q0 163 85.5 256.5t254.5 93.5t254.5 -93.5t85.5 -256.5t-85.5 -256.5t-254.5 -93.5t-254.5 93.5t-85.5 256.5zM141 340q0 -137 66 -207t191 -70t191 70t66 207q0 138 -66 207.5t-191 69.5t-191 -69.5t-66 -207.5zM253 319v44q0 81 37 121t110 40q38 0 62.5 -9.5
t39 -21.5t20.5 -21.5l6 -9.5v-55h-69l-1 7t-7 15.5t-18 15.5t-33 7q-37 0 -52.5 -19.5t-15.5 -59.5v-64q0 -40 15.5 -59.5t52.5 -19.5q21 0 33 7t18 15.5t7 15.5l1 7h69v-55l-6 -9.5t-20.5 -21.5t-39 -21.5t-62.5 -9.5q-73 0 -110 40t-37 121z" />
    <glyph glyph-name="ordfeminine" unicode="&#xaa;" horiz-adv-x="383" 
d="M65 597v68l34.5 11.5t96.5 11.5q69 0 102 -29.5t33 -84.5v-247h-70l-10 37h-2l-6 -6.5t-18.5 -14.5t-32 -14.5t-46.5 -6.5q-55 0 -80.5 29.5t-25.5 78.5t29.5 77.5t95.5 28.5h84v26q0 28 -13.5 41.5t-50.5 13.5q-36 0 -46.5 -10l-10.5 -10h-63zM178 387q21 0 34.5 5
t22 11t11.5 11l3 5v58h-73q-27 0 -40.5 -11t-13.5 -33q0 -25 13 -35.5t43 -10.5z" />
    <glyph glyph-name="guillemotleft" unicode="&#xab;" horiz-adv-x="509" 
d="M39 278l161 192h67v-53l-101 -122q-16 -20 -24.5 -29l-8.5 -9v-6l8.5 -9t24.5 -29l101 -122v-53h-67l-161 191v49zM246 278l161 192h67v-53l-101 -122q-16 -20 -24.5 -29l-8.5 -9v-6l8.5 -9t24.5 -29l101 -122v-53h-67l-161 191v49z" />
    <glyph glyph-name="logicalnot" unicode="&#xac;" horiz-adv-x="600" 
d="M65 251v93h470v-281h-93v188h-377z" />
    <glyph glyph-name="registered" unicode="&#xae;" horiz-adv-x="622" 
d="M585 465q0 -131 -71.5 -206t-202.5 -75t-202.5 75t-71.5 206t71.5 206t202.5 75t202.5 -75t71.5 -206zM110 465q0 -111 53 -164t148 -53t148 53t53 164t-53 163.5t-148 52.5t-148 -52.5t-53 -163.5zM271 326h-63v280h123q44 0 67 -24t23 -63q0 -22 -8.5 -38t-18.5 -26.5
t-18.5 -15l-8.5 -4.5l13.5 -22t37.5 -45v-42h-47q-15 15 -27 33t-21 32.5t-14 24.5l-5 10h-33v-100zM332 481l12 9t12 28q0 15 -9.5 23t-27.5 8h-48v-68h61z" />
    <glyph glyph-name="macron" unicode="&#xaf;" horiz-adv-x="344" 
d="M28 693h288v-79h-288v79z" />
    <glyph glyph-name="degree" unicode="&#xb0;" horiz-adv-x="371" 
d="M33 540q0 66 39 109t114 43t114 -43t39 -109q0 -65 -39 -108.5t-114 -43.5t-114 43.5t-39 108.5zM118 540q0 -37 19.5 -55.5t48.5 -18.5q28 0 47.5 18.5t19.5 55.5q0 38 -19.5 56t-47.5 18q-29 0 -48.5 -18t-19.5 -56z" />
    <glyph glyph-name="plusminus" unicode="&#xb1;" horiz-adv-x="600" 
d="M65 399h188v157h93v-157h189v-92h-189v-158h-93v158h-188v92zM65 93h470v-93h-470v93z" />
    <glyph glyph-name="uni00B2" unicode="&#xb2;" horiz-adv-x="348" 
d="M306 477h-263v76l139 135q22 22 32.5 38t10.5 39q0 25 -15 37.5t-42 12.5q-36 0 -48 -11l-12 -11h-67v65l34.5 14.5t97.5 14.5t98.5 -30t35.5 -87q0 -44 -17.5 -73t-48.5 -57l-97 -91v-1l18.5 0.5t36.5 0.5h107v-72z" />
    <glyph glyph-name="uni00B3" unicode="&#xb3;" horiz-adv-x="354" 
d="M43 559h67l13.5 -10t49.5 -10q32 0 49.5 15.5t17.5 44.5q0 30 -16 42t-40 12q-21 0 -33 -5l-12 -5h-56l-1 58l123 108v1l-17 -0.5t-34 -0.5h-106v71h255v-73l-80 -72q-11 -10 -25.5 -20.5l-14.5 -10.5v-1l10.5 3t26.5 3q43 0 72 -26t29 -83q0 -60 -39.5 -95t-112.5 -35
q-60 0 -93 13.5l-33 13.5v62z" />
    <glyph glyph-name="acute" unicode="&#xb4;" horiz-adv-x="216" 
d="M107 740h84v-50l-82 -118h-84z" />
    <glyph glyph-name="uni00B5" unicode="&#xb5;" 
d="M75 513h100v-355q0 -39 21.5 -59.5t68.5 -20.5q27 0 49 8t37 17.5t23.5 17.5l8.5 8v384h100v-513h-83l-14 56h-2l-10 -10t-29.5 -22t-50 -22t-70.5 -10q-16 0 -32 2.5t-29 6.5q3 -26 5.5 -61t2.5 -63v-50h-96v686z" />
    <glyph glyph-name="paragraph" unicode="&#xb6;" horiz-adv-x="592" 
d="M238 256h-4q-99 0 -150 59t-51 153t52 153t151 59h271v-853h-93v763h-82v-763h-94v429z" />
    <glyph glyph-name="periodcentered" unicode="&#xb7;" horiz-adv-x="153" 
d="M11 276q0 28 17 44.5t49 16.5q31 0 48 -16.5t17 -44.5v-8q0 -28 -17 -45t-48 -17q-32 0 -49 17t-17 45v8z" />
    <glyph glyph-name="cedilla" unicode="&#xb8;" horiz-adv-x="181" 
d="M99 -154h-73v53l6 6.5t12.5 19t12.5 31.5t6 44v36h90v-36q0 -37 -8.5 -65.5t-18.5 -48t-18.5 -30z" />
    <glyph glyph-name="uni00B9" unicode="&#xb9;" horiz-adv-x="287" 
d="M32 477v66l75 9v249h-72v53l81 26h73v-328l75 -9v-66h-232z" />
    <glyph glyph-name="ordmasculine" unicode="&#xba;" horiz-adv-x="395" 
d="M38 495v21q0 84 40.5 129t118.5 45t119 -45t41 -129v-21q0 -85 -41 -129.5t-119 -44.5t-118.5 44.5t-40.5 129.5zM122 500q0 -56 17.5 -80t57.5 -24t58 24t18 80v11q0 56 -18 80t-58 24t-57.5 -24t-17.5 -80v-11z" />
    <glyph glyph-name="guillemotright" unicode="&#xbb;" horiz-adv-x="509" 
d="M470 278v-49l-161 -191h-67v53l101 122q16 20 24.5 29l8.5 9v6l-8.5 9t-24.5 29l-101 122v53h67zM263 278v-49l-161 -191h-67v53l101 122q16 20 24.5 29l8.5 9v6l-8.5 9t-24.5 29l-101 122v53h67z" />
    <glyph glyph-name="onequarter" unicode="&#xbc;" horiz-adv-x="796" 
d="M32 277v66l75 9v249h-72v53l81 26h73v-328l75 -9v-66h-232zM560 680h56v-47l-395 -633h-56v47zM462 76v67l119 260h132v-258h56v-69h-56v-76h-79v76h-172zM538 145h96v103v27.5t0.5 28.5t0.5 22v9h-13l-11.5 -29t-24.5 -57z" />
    <glyph glyph-name="onehalf" unicode="&#xbd;" horiz-adv-x="814" 
d="M32 277v66l75 9v249h-72v53l81 26h73v-328l75 -9v-66h-232zM560 680h56v-47l-395 -633h-56v47zM772 0h-263v76l139 135q22 22 32.5 38t10.5 39q0 25 -15 37.5t-42 12.5q-36 0 -48 -11l-12 -11h-67v65l34.5 14.5t97.5 14.5t98.5 -30t35.5 -87q0 -44 -17.5 -73t-48.5 -57
l-97 -91v-1l18.5 0.5t36.5 0.5h107v-72z" />
    <glyph glyph-name="threequarters" unicode="&#xbe;" horiz-adv-x="824" 
d="M43 359h67l13.5 -10t49.5 -10q32 0 49.5 15.5t17.5 44.5q0 30 -16 42t-40 12q-21 0 -33 -5l-12 -5h-56l-1 58l123 108v1l-17 -0.5t-34 -0.5h-106v71h255v-73l-80 -72q-11 -10 -25.5 -20.5l-14.5 -10.5v-1l10.5 3t26.5 3q43 0 72 -26t29 -83q0 -60 -39.5 -95t-112.5 -35
q-60 0 -93 13.5l-33 13.5v62zM588 680h56v-47l-395 -633h-56v47zM490 76v67l119 260h132v-258h56v-69h-56v-76h-79v76h-172zM566 145h96v103v27.5t0.5 28.5t0.5 22v9h-13l-11.5 -29t-24.5 -57z" />
    <glyph glyph-name="questiondown" unicode="&#xbf;" horiz-adv-x="393" 
d="M287 440q0 -29 -17.5 -47t-50.5 -18q-34 0 -51 18.5t-17 46.5v7q0 30 17.5 47.5t50.5 17.5q34 0 51 -18.5t17 -46.5v-7zM263 313v-66l-81 -128q-20 -31 -36.5 -66.5t-15.5 -72.5q1 -34 24 -51.5t67 -17.5q26 0 43.5 5t27 11.5t13.5 11.5l4 5h80v-82l-11 -6.5t-33 -14
t-54.5 -14t-74.5 -6.5q-96 0 -142 41.5t-47 117.5q-1 54 20 100.5t47 87.5l91 145h78z" />
    <glyph glyph-name="Agrave" unicode="&#xc0;" horiz-adv-x="595" 
d="M170 896h63l137 -93v-78l-200 99v72zM33 0v61l177 619h175l177 -619v-61h-92l-44 160q-32 -7 -64.5 -11t-66.5 -4q-33 0 -65 3.5t-63 10.5l-44 -159h-90zM244 439l-52 -190q25 -5 50.5 -8t52.5 -3t53.5 3t52.5 9l-53 189q-7 27 -14 53.5t-12 48t-8 34.5l-3 13h-28l-3 -13
t-8.5 -34.5t-12.5 -48t-15 -53.5z" />
    <glyph glyph-name="Aacute" unicode="&#xc1;" horiz-adv-x="595" 
d="M428 896v-72l-200 -99v78l137 93h63zM33 0v61l177 619h175l177 -619v-61h-92l-44 160q-32 -7 -64.5 -11t-66.5 -4q-33 0 -65 3.5t-63 10.5l-44 -159h-90zM244 439l-52 -190q25 -5 50.5 -8t52.5 -3t53.5 3t52.5 9l-53 189q-7 27 -14 53.5t-12 48t-8 34.5l-3 13h-28l-3 -13
t-8.5 -34.5t-12.5 -48t-15 -53.5z" />
    <glyph glyph-name="Acircumflex" unicode="&#xc2;" horiz-adv-x="595" 
d="M166 737v43l97 88h71l97 -88v-43h-63l-34 32q-13 13 -23 22.5l-10 9.5h-5l-9.5 -9.5l-22.5 -22.5l-35 -32h-63zM33 0v61l177 619h175l177 -619v-61h-92l-44 160q-32 -7 -64.5 -11t-66.5 -4q-33 0 -65 3.5t-63 10.5l-44 -159h-90zM244 439l-52 -190q25 -5 50.5 -8t52.5 -3
t53.5 3t52.5 9l-53 189q-7 27 -14 53.5t-12 48t-8 34.5l-3 13h-28l-3 -13t-8.5 -34.5t-12.5 -48t-15 -53.5z" />
    <glyph glyph-name="Atilde" unicode="&#xc3;" horiz-adv-x="595" 
d="M118 749v64l5.5 7t17 16t30.5 16t46 7q20 0 40.5 -4.5t36.5 -10.5l24 -8q13 -6 25.5 -9t26.5 -3q30 0 38.5 14l8.5 14h61v-63l-5.5 -7t-17 -16t-30.5 -16t-46 -7q-21 0 -41 4.5t-36 10.5l-24 8q-14 5 -26.5 8.5t-26.5 3.5q-30 0 -38.5 -14.5l-8.5 -14.5h-60zM33 0v61
l177 619h175l177 -619v-61h-92l-44 160q-32 -7 -64.5 -11t-66.5 -4q-33 0 -65 3.5t-63 10.5l-44 -159h-90zM244 439l-52 -190q25 -5 50.5 -8t52.5 -3t53.5 3t52.5 9l-53 189q-7 27 -14 53.5t-12 48t-8 34.5l-3 13h-28l-3 -13t-8.5 -34.5t-12.5 -48t-15 -53.5z" />
    <glyph glyph-name="Adieresis" unicode="&#xc4;" horiz-adv-x="595" 
d="M161 805q0 25 14.5 40t44.5 15q31 0 45 -15.5t14 -39.5v-8q0 -25 -14.5 -40t-44.5 -15q-31 0 -45 16t-14 39v8zM316 805q0 25 15 40t44 15q31 0 45 -15.5t14 -39.5v-8q0 -25 -14.5 -40t-44.5 -15t-44.5 16t-14.5 39v8zM33 0v61l177 619h175l177 -619v-61h-92l-44 160
q-32 -7 -64.5 -11t-66.5 -4q-33 0 -65 3.5t-63 10.5l-44 -159h-90zM244 439l-52 -190q25 -5 50.5 -8t52.5 -3t53.5 3t52.5 9l-53 189q-7 27 -14 53.5t-12 48t-8 34.5l-3 13h-28l-3 -13t-8.5 -34.5t-12.5 -48t-15 -53.5z" />
    <glyph glyph-name="Aring" unicode="&#xc5;" horiz-adv-x="595" 
d="M33 0v61l173 604q-10 13 -15 30.5t-5 37.5q0 51 31 81t81 30t81 -30t31 -81q0 -20 -5 -38t-15 -31l172 -603v-61h-92l-44 160q-32 -7 -64.5 -11t-66.5 -4q-33 0 -65 3.5t-63 10.5l-44 -159h-90zM252 733q0 -20 11.5 -33.5t34.5 -13.5t34.5 13.5t11.5 33.5t-11.5 33.5
t-34.5 13.5t-34.5 -13.5t-11.5 -33.5zM244 439l-52 -190q25 -5 50.5 -8t52.5 -3t53.5 3t52.5 9l-53 189q-7 27 -14 53.5t-12 48t-8 34.5l-3 13h-28l-3 -13t-8.5 -34.5t-12.5 -48t-15 -53.5z" />
    <glyph glyph-name="AE" unicode="&#xc6;" horiz-adv-x="841" 
d="M16 0v61l268 619h515l-15 -94h-288v-197h257v-94h-257v-201h293v-94h-396v164h-228l-70 -164h-79zM281 435l-75 -175h187v324h-50l-5.5 -13.5t-14 -35t-19.5 -48t-23 -52.5z" />
    <glyph glyph-name="Ccedilla" unicode="&#xc7;" horiz-adv-x="554" 
d="M60 258v164q0 134 62.5 200.5t181.5 66.5q59 0 99 -15t63.5 -33t33.5 -33l10 -15v-79h-87l-2.5 13t-14 28t-35.5 28t-66 13q-75 0 -108 -42t-33 -126v-176q0 -84 33 -126t108 -42q42 0 66 13t35.5 28t14 28l2.5 13h87v-79l-8 -12.5t-26.5 -28t-49 -31t-75.5 -21.5
q-1 -35 -9.5 -63t-18.5 -46.5t-18 -28.5l-8 -10h-73v53l6 6.5t12.5 18t12.5 29.5t6 40q-99 11 -150 77t-51 188z" />
    <glyph glyph-name="Egrave" unicode="&#xc8;" horiz-adv-x="533" 
d="M157 896h63l137 -93v-78l-200 99v72zM85 0v680h406l-15 -94h-288v-197h257v-94h-257v-201h293v-94h-396z" />
    <glyph glyph-name="Eacute" unicode="&#xc9;" horiz-adv-x="533" 
d="M417 896v-72l-200 -99v78l137 93h63zM85 0v680h406l-15 -94h-288v-197h257v-94h-257v-201h293v-94h-396z" />
    <glyph glyph-name="Ecircumflex" unicode="&#xca;" horiz-adv-x="533" 
d="M155 737v43l97 88h71l97 -88v-43h-63l-34 32q-13 13 -23 22.5l-10 9.5h-5l-9.5 -9.5l-22.5 -22.5l-35 -32h-63zM85 0v680h406l-15 -94h-288v-197h257v-94h-257v-201h293v-94h-396z" />
    <glyph glyph-name="Edieresis" unicode="&#xcb;" horiz-adv-x="533" 
d="M150 805q0 25 14.5 40t44.5 15q31 0 45 -15.5t14 -39.5v-8q0 -25 -14.5 -40t-44.5 -15q-31 0 -45 16t-14 39v8zM305 805q0 25 15 40t44 15q31 0 45 -15.5t14 -39.5v-8q0 -25 -14.5 -40t-44.5 -15t-44.5 16t-14.5 39v8zM85 0v680h406l-15 -94h-288v-197h257v-94h-257v-201
h293v-94h-396z" />
    <glyph glyph-name="Igrave" unicode="&#xcc;" horiz-adv-x="335" 
d="M43 896h63l137 -93v-78l-200 99v72zM49 75l67 10v510l-67 10v75h237v-75l-67 -10v-510l67 -10v-75h-237v75z" />
    <glyph glyph-name="Iacute" unicode="&#xcd;" horiz-adv-x="335" 
d="M293 896v-72l-200 -99v78l137 93h63zM49 75l67 10v510l-67 10v75h237v-75l-67 -10v-510l67 -10v-75h-237v75z" />
    <glyph glyph-name="Icircumflex" unicode="&#xce;" horiz-adv-x="335" 
d="M36 737v43l97 88h71l97 -88v-43h-63l-34 32q-13 13 -23 22.5l-10 9.5h-5l-9.5 -9.5l-22.5 -22.5l-35 -32h-63zM49 75l67 10v510l-67 10v75h237v-75l-67 -10v-510l67 -10v-75h-237v75z" />
    <glyph glyph-name="Idieresis" unicode="&#xcf;" horiz-adv-x="335" 
d="M31 805q0 25 14.5 40t44.5 15q31 0 45 -15.5t14 -39.5v-8q0 -25 -14.5 -40t-44.5 -15q-31 0 -45 16t-14 39v8zM186 805q0 25 15 40t44 15q31 0 45 -15.5t14 -39.5v-8q0 -25 -14.5 -40t-44.5 -15t-44.5 16t-14.5 39v8zM49 75l67 10v510l-67 10v75h237v-75l-67 -10v-510
l67 -10v-75h-237v75z" />
    <glyph glyph-name="Eth" unicode="&#xd0;" horiz-adv-x="617" 
d="M6 380h79v300h224q122 0 185 -64t63 -200v-152q0 -136 -63 -200t-185 -64h-224v301h-79v79zM305 301h-117v-208h117q74 0 111 34.5t37 123.5v178q0 89 -37 123.5t-111 34.5h-117v-207h117v-79z" />
    <glyph glyph-name="Ntilde" unicode="&#xd1;" horiz-adv-x="649" 
d="M149 749v64l5.5 7t17 16t30.5 16t46 7q20 0 40.5 -4.5t36.5 -10.5l24 -8q13 -6 25.5 -9t26.5 -3q30 0 38.5 14l8.5 14h61v-63l-5.5 -7t-17 -16t-30.5 -16t-46 -7q-21 0 -41 4.5t-36 10.5l-24 8q-14 5 -26.5 8.5t-26.5 3.5q-30 0 -38.5 -14.5l-8.5 -14.5h-60zM85 0v680
h110l215 -367q7 -12 16.5 -30.5t18.5 -36t15 -30.5l6 -13h2l-1 14.5t-1.5 36.5t-1.5 50t-1 55v321h101v-680h-101v45l-216 368q-11 19 -22 39.5t-20 36.5t-14.5 26.5l-5.5 10.5h-3l2 -38t2 -88v-400h-101z" />
    <glyph glyph-name="Ograve" unicode="&#xd2;" horiz-adv-x="628" 
d="M180 896h63l137 -93v-78l-200 99v72zM60 262v156q0 133 64 202.5t190 69.5q125 0 189.5 -69.5t64.5 -202.5v-156q0 -132 -64 -202t-190 -70q-125 0 -189.5 69.5t-64.5 202.5zM164 253q0 -91 37.5 -131t112.5 -40t112.5 40t37.5 131v174q0 91 -37.5 131t-112.5 40
t-112.5 -40t-37.5 -131v-174z" />
    <glyph glyph-name="Oacute" unicode="&#xd3;" horiz-adv-x="628" 
d="M448 896v-72l-200 -99v78l137 93h63zM60 262v156q0 133 64 202.5t190 69.5q125 0 189.5 -69.5t64.5 -202.5v-156q0 -132 -64 -202t-190 -70q-125 0 -189.5 69.5t-64.5 202.5zM164 253q0 -91 37.5 -131t112.5 -40t112.5 40t37.5 131v174q0 91 -37.5 131t-112.5 40
t-112.5 -40t-37.5 -131v-174z" />
    <glyph glyph-name="Ocircumflex" unicode="&#xd4;" horiz-adv-x="628" 
d="M182 737v43l97 88h71l97 -88v-43h-63l-34 32q-13 13 -23 22.5l-10 9.5h-5l-9.5 -9.5l-22.5 -22.5l-35 -32h-63zM60 262v156q0 133 64 202.5t190 69.5q125 0 189.5 -69.5t64.5 -202.5v-156q0 -132 -64 -202t-190 -70q-125 0 -189.5 69.5t-64.5 202.5zM164 253
q0 -91 37.5 -131t112.5 -40t112.5 40t37.5 131v174q0 91 -37.5 131t-112.5 40t-112.5 -40t-37.5 -131v-174z" />
    <glyph glyph-name="Otilde" unicode="&#xd5;" horiz-adv-x="628" 
d="M134 749v64l5.5 7t17 16t30.5 16t46 7q20 0 40.5 -4.5t36.5 -10.5l24 -8q13 -6 25.5 -9t26.5 -3q30 0 38.5 14l8.5 14h61v-63l-5.5 -7t-17 -16t-30.5 -16t-46 -7q-21 0 -41 4.5t-36 10.5l-24 8q-14 5 -26.5 8.5t-26.5 3.5q-30 0 -38.5 -14.5l-8.5 -14.5h-60zM60 262v156
q0 133 64 202.5t190 69.5q125 0 189.5 -69.5t64.5 -202.5v-156q0 -132 -64 -202t-190 -70q-125 0 -189.5 69.5t-64.5 202.5zM164 253q0 -91 37.5 -131t112.5 -40t112.5 40t37.5 131v174q0 91 -37.5 131t-112.5 40t-112.5 -40t-37.5 -131v-174z" />
    <glyph glyph-name="Odieresis" unicode="&#xd6;" horiz-adv-x="628" 
d="M177 805q0 25 14.5 40t44.5 15q31 0 45 -15.5t14 -39.5v-8q0 -25 -14.5 -40t-44.5 -15q-31 0 -45 16t-14 39v8zM332 805q0 25 15 40t44 15q31 0 45 -15.5t14 -39.5v-8q0 -25 -14.5 -40t-44.5 -15t-44.5 16t-14.5 39v8zM60 262v156q0 133 64 202.5t190 69.5
q125 0 189.5 -69.5t64.5 -202.5v-156q0 -132 -64 -202t-190 -70q-125 0 -189.5 69.5t-64.5 202.5zM164 253q0 -91 37.5 -131t112.5 -40t112.5 40t37.5 131v174q0 91 -37.5 131t-112.5 40t-112.5 -40t-37.5 -131v-174z" />
    <glyph glyph-name="multiply" unicode="&#xd7;" horiz-adv-x="578" 
d="M75 447l65 65l149 -149l149 150l65 -66l-149 -149l149 -149l-65 -66l-149 150l-149 -149l-65 65l149 149z" />
    <glyph glyph-name="Oslash" unicode="&#xd8;" horiz-adv-x="628" 
d="M60 262v156q0 133 64 202.5t190 69.5q43 0 80 -8.5t65 -24.5l44 73h61v-50l-46 -76q25 -34 37.5 -80.5t12.5 -105.5v-156q0 -132 -64 -202t-190 -70q-43 0 -80 8.5t-65 24.5l-44 -73h-61v50l46 76q-25 34 -37.5 80.5t-12.5 105.5zM164 253q0 -21 2 -39.5t6 -33.5l237 394
q-18 12 -41.5 18t-53.5 6q-75 0 -112.5 -40t-37.5 -131v-174zM464 427q0 21 -2 39.5t-6 33.5l-237 -394q18 -12 41.5 -18t53.5 -6q75 0 112.5 40t37.5 131v174z" />
    <glyph glyph-name="Ugrave" unicode="&#xd9;" horiz-adv-x="644" 
d="M180 896h63l137 -93v-78l-200 99v72zM77 225v455h103v-453q0 -81 28.5 -112.5t101.5 -31.5q32 0 59.5 8t46.5 18t29.5 18l10.5 8v545h103v-680h-82l-13 60h-3l-13.5 -10.5t-37 -23.5t-56.5 -23.5t-72 -10.5q-107 0 -156 53t-49 180z" />
    <glyph glyph-name="Uacute" unicode="&#xda;" horiz-adv-x="644" 
d="M445 896v-72l-200 -99v78l137 93h63zM77 225v455h103v-453q0 -81 28.5 -112.5t101.5 -31.5q32 0 59.5 8t46.5 18t29.5 18l10.5 8v545h103v-680h-82l-13 60h-3l-13.5 -10.5t-37 -23.5t-56.5 -23.5t-72 -10.5q-107 0 -156 53t-49 180z" />
    <glyph glyph-name="Ucircumflex" unicode="&#xdb;" horiz-adv-x="644" 
d="M188 737v43l97 88h71l97 -88v-43h-63l-34 32q-13 13 -23 22.5l-10 9.5h-5l-9.5 -9.5l-22.5 -22.5l-35 -32h-63zM77 225v455h103v-453q0 -81 28.5 -112.5t101.5 -31.5q32 0 59.5 8t46.5 18t29.5 18l10.5 8v545h103v-680h-82l-13 60h-3l-13.5 -10.5t-37 -23.5t-56.5 -23.5
t-72 -10.5q-107 0 -156 53t-49 180z" />
    <glyph glyph-name="Udieresis" unicode="&#xdc;" horiz-adv-x="644" 
d="M183 805q0 25 14.5 40t44.5 15q31 0 45 -15.5t14 -39.5v-8q0 -25 -14.5 -40t-44.5 -15q-31 0 -45 16t-14 39v8zM338 805q0 25 15 40t44 15q31 0 45 -15.5t14 -39.5v-8q0 -25 -14.5 -40t-44.5 -15t-44.5 16t-14.5 39v8zM77 225v455h103v-453q0 -81 28.5 -112.5
t101.5 -31.5q32 0 59.5 8t46.5 18t29.5 18l10.5 8v545h103v-680h-82l-13 60h-3l-13.5 -10.5t-37 -23.5t-56.5 -23.5t-72 -10.5q-107 0 -156 53t-49 180z" />
    <glyph glyph-name="Yacute" unicode="&#xdd;" horiz-adv-x="544" 
d="M424 896v-72l-200 -99v78l137 93h63zM144 75l74 10h1v178l-200 352v65h81l117 -214q22 -39 38 -72l16 -33h5l16 31.5t38 71.5l119 216h76v-65l-203 -352v-178l74 -10v-75h-252v75z" />
    <glyph glyph-name="Thorn" unicode="&#xde;" 
d="M85 680h103v-97h127q107 0 161.5 -51t54.5 -148q0 -64 -27 -105t-59 -64t-59 -31.5l-27 -8.5h-171v-175h-103v680zM188 489v-220h150l14 4t30.5 16.5t30.5 35.5t14 60q0 50 -26 77t-81 27h-132z" />
    <glyph glyph-name="germandbls" unicode="&#xdf;" horiz-adv-x="592" 
d="M285 359q0 38 17.5 64.5t43.5 50.5l28 25q20 17 28 34.5t8 43.5q0 43 -28 62.5t-74 19.5q-68 0 -99 -40t-31 -130v-662h-98v654q0 135 55 201t173 66q99 0 149.5 -45.5t50.5 -122.5q0 -57 -21 -89.5t-43 -51.5l-28 -24q-14 -13 -22.5 -24.5t-8.5 -26.5q0 -16 9 -27
t39 -27l26 -14q46 -25 72 -61.5t26 -86.5q0 -72 -46.5 -114.5t-134.5 -42.5q-73 0 -112 15.5l-39 15.5v79h67l20 -13t67 -13q39 0 59.5 18t20.5 50q0 22 -12.5 40.5t-49.5 38.5l-26 13q-43 25 -64.5 52.5t-21.5 71.5z" />
    <glyph glyph-name="agrave" unicode="&#xe0;" horiz-adv-x="526" 
d="M227 740l82 -168h-84l-82 118v50h84zM85 399v81l11.5 6t33.5 13t55 13.5t76 6.5q99 0 144.5 -42t45.5 -122v-355h-83l-13 54h-3l-9.5 -9.5t-28.5 -21t-47 -21t-65 -9.5q-84 0 -119.5 42.5t-35.5 111.5q0 72 43 111t138 39h124v55q0 40 -23.5 59.5t-75.5 19.5
q-26 0 -43.5 -5t-27 -11t-13.5 -11l-4 -5h-80zM233 76q31 0 53.5 8t37 18t21.5 18l7 8v94h-119q-47 0 -67.5 -20t-20.5 -51q0 -39 19.5 -57t68.5 -18z" />
    <glyph glyph-name="aacute" unicode="&#xe1;" horiz-adv-x="526" 
d="M296 740h84v-50l-82 -118h-84zM85 399v81l11.5 6t33.5 13t55 13.5t76 6.5q99 0 144.5 -42t45.5 -122v-355h-83l-13 54h-3l-9.5 -9.5t-28.5 -21t-47 -21t-65 -9.5q-84 0 -119.5 42.5t-35.5 111.5q0 72 43 111t138 39h124v55q0 40 -23.5 59.5t-75.5 19.5q-26 0 -43.5 -5
t-27 -11t-13.5 -11l-4 -5h-80zM233 76q31 0 53.5 8t37 18t21.5 18l7 8v94h-119q-47 0 -67.5 -20t-20.5 -51q0 -39 19.5 -57t68.5 -18z" />
    <glyph glyph-name="acircumflex" unicode="&#xe2;" horiz-adv-x="526" 
d="M115 571v44l101 125h82l101 -125v-44h-63l-43 57q-14 17 -24 31l-10 14h-4l-10 -14t-24 -31l-43 -57h-63zM85 399v81l11.5 6t33.5 13t55 13.5t76 6.5q99 0 144.5 -42t45.5 -122v-355h-83l-13 54h-3l-9.5 -9.5t-28.5 -21t-47 -21t-65 -9.5q-84 0 -119.5 42.5t-35.5 111.5
q0 72 43 111t138 39h124v55q0 40 -23.5 59.5t-75.5 19.5q-26 0 -43.5 -5t-27 -11t-13.5 -11l-4 -5h-80zM233 76q31 0 53.5 8t37 18t21.5 18l7 8v94h-119q-47 0 -67.5 -20t-20.5 -51q0 -39 19.5 -57t68.5 -18z" />
    <glyph glyph-name="atilde" unicode="&#xe3;" horiz-adv-x="526" 
d="M77 603v64l5.5 7t17 16t30.5 16t46 7q20 0 40.5 -4.5t36.5 -10.5l24 -8q13 -6 25.5 -9t26.5 -3q30 0 38.5 14l8.5 14h61v-63l-5.5 -7t-17 -16t-30.5 -16t-46 -7q-21 0 -41 4.5t-36 10.5l-24 8q-14 5 -26.5 8.5t-26.5 3.5q-30 0 -38.5 -14.5l-8.5 -14.5h-60zM85 399v81
l11.5 6t33.5 13t55 13.5t76 6.5q99 0 144.5 -42t45.5 -122v-355h-83l-13 54h-3l-9.5 -9.5t-28.5 -21t-47 -21t-65 -9.5q-84 0 -119.5 42.5t-35.5 111.5q0 72 43 111t138 39h124v55q0 40 -23.5 59.5t-75.5 19.5q-26 0 -43.5 -5t-27 -11t-13.5 -11l-4 -5h-80zM233 76
q31 0 53.5 8t37 18t21.5 18l7 8v94h-119q-47 0 -67.5 -20t-20.5 -51q0 -39 19.5 -57t68.5 -18z" />
    <glyph glyph-name="adieresis" unicode="&#xe4;" horiz-adv-x="526" 
d="M120 645q0 25 14.5 40t44.5 15q31 0 45 -15.5t14 -39.5v-8q0 -25 -14.5 -40t-44.5 -15q-31 0 -45 16t-14 39v8zM275 645q0 25 15 40t44 15q31 0 45 -15.5t14 -39.5v-8q0 -25 -14.5 -40t-44.5 -15t-44.5 16t-14.5 39v8zM85 399v81l11.5 6t33.5 13t55 13.5t76 6.5
q99 0 144.5 -42t45.5 -122v-355h-83l-13 54h-3l-9.5 -9.5t-28.5 -21t-47 -21t-65 -9.5q-84 0 -119.5 42.5t-35.5 111.5q0 72 43 111t138 39h124v55q0 40 -23.5 59.5t-75.5 19.5q-26 0 -43.5 -5t-27 -11t-13.5 -11l-4 -5h-80zM233 76q31 0 53.5 8t37 18t21.5 18l7 8v94h-119
q-47 0 -67.5 -20t-20.5 -51q0 -39 19.5 -57t68.5 -18z" />
    <glyph glyph-name="aring" unicode="&#xe5;" horiz-adv-x="526" 
d="M147 667q0 50 30.5 79.5t79.5 29.5t79.5 -29.5t30.5 -79.5q0 -49 -30.5 -78.5t-79.5 -29.5t-79.5 29.5t-30.5 78.5zM212 667q0 -19 11.5 -32.5t33.5 -13.5q23 0 34 13.5t11 32.5q0 20 -11 33.5t-34 13.5q-22 0 -33.5 -13.5t-11.5 -33.5zM85 399v81l11.5 6t33.5 13
t55 13.5t76 6.5q99 0 144.5 -42t45.5 -122v-355h-83l-13 54h-3l-9.5 -9.5t-28.5 -21t-47 -21t-65 -9.5q-84 0 -119.5 42.5t-35.5 111.5q0 72 43 111t138 39h124v55q0 40 -23.5 59.5t-75.5 19.5q-26 0 -43.5 -5t-27 -11t-13.5 -11l-4 -5h-80zM233 76q31 0 53.5 8t37 18
t21.5 18l7 8v94h-119q-47 0 -67.5 -20t-20.5 -51q0 -39 19.5 -57t68.5 -18z" />
    <glyph glyph-name="ae" unicode="&#xe6;" horiz-adv-x="820" 
d="M85 396v81l11.5 6.5t33.5 14.5t54.5 14.5t73.5 6.5q54 0 92.5 -14t60.5 -44q27 30 65.5 45t85.5 15q44 0 82.5 -11t66.5 -37t44 -68.5t16 -105.5q0 -30 -2.5 -54l-2.5 -24h-315v-2q0 -63 27 -101t96 -39q28 0 47 4.5t31 10.5t17 11l5 5h78v-80l-12 -6t-34.5 -13t-56 -13
t-76.5 -6q-60 0 -104.5 19.5t-72.5 57.5q-6 -7 -20.5 -19.5t-37 -25t-54.5 -22t-72 -9.5q-84 0 -124.5 42.5t-40.5 111.5q0 72 43.5 111t138.5 39h122v1.5v1.5v50q0 40 -25.5 60.5t-76.5 20.5q-25 0 -41.5 -5.5t-25.5 -12t-12.5 -12l-3.5 -5.5h-81zM451 301v-4h218l0.5 7
t0.5 16q0 61 -27.5 89.5t-80.5 28.5q-48 0 -79.5 -31.5t-31.5 -105.5zM235 75q50 0 81.5 21.5t47.5 40.5q-6 19 -9.5 40t-4.5 44h-117q-47 0 -67.5 -19.5t-20.5 -50.5q0 -37 20.5 -56.5t69.5 -19.5z" />
    <glyph glyph-name="ccedilla" unicode="&#xe7;" horiz-adv-x="470" 
d="M50 242v28q0 131 59 189.5t160 58.5q40 0 70.5 -6t50 -13.5t29.5 -13.5l10 -6v-84h-80q0 1 -4.5 6.5t-14 12t-25 11.5t-38.5 5q-63 0 -89 -38.5t-26 -124.5v-22q0 -86 26 -124.5t89 -38.5q23 0 38.5 5t25 11.5t14 12t4.5 6.5h80v-83l-27.5 -14.5t-81.5 -21.5
q0 -36 -8.5 -64.5t-18.5 -48t-18.5 -29.5l-8.5 -10h-73v53l6 6.5t12.5 18.5t12.5 30.5t6 42.5q-84 10 -132 68.5t-48 176.5z" />
    <glyph glyph-name="egrave" unicode="&#xe8;" horiz-adv-x="520" 
d="M234 740l82 -168h-84l-82 118v50h84zM50 242v28q0 123 58 187t154 64q44 0 82.5 -11t66.5 -37t44 -68.5t16 -105.5q0 -30 -2.5 -54l-2.5 -24h-315v-2q0 -63 27 -101t96 -39q28 0 47 4.5t31 10.5t17 11l5 5h78v-80l-12 -6t-34.5 -13t-56 -13t-76.5 -6q-109 0 -166 64
t-57 186zM151 301v-4h218l0.5 7t0.5 16q0 61 -27.5 89.5t-80.5 28.5q-48 0 -79.5 -31.5t-31.5 -105.5z" />
    <glyph glyph-name="eacute" unicode="&#xe9;" horiz-adv-x="520" 
d="M299 740h84v-50l-82 -118h-84zM50 242v28q0 123 58 187t154 64q44 0 82.5 -11t66.5 -37t44 -68.5t16 -105.5q0 -30 -2.5 -54l-2.5 -24h-315v-2q0 -63 27 -101t96 -39q28 0 47 4.5t31 10.5t17 11l5 5h78v-80l-12 -6t-34.5 -13t-56 -13t-76.5 -6q-109 0 -166 64t-57 186z
M151 301v-4h218l0.5 7t0.5 16q0 61 -27.5 89.5t-80.5 28.5q-48 0 -79.5 -31.5t-31.5 -105.5z" />
    <glyph glyph-name="ecircumflex" unicode="&#xea;" horiz-adv-x="520" 
d="M123 571v44l101 125h82l101 -125v-44h-63l-43 57q-14 17 -24 31l-10 14h-4l-10 -14t-24 -31l-43 -57h-63zM50 242v28q0 123 58 187t154 64q44 0 82.5 -11t66.5 -37t44 -68.5t16 -105.5q0 -30 -2.5 -54l-2.5 -24h-315v-2q0 -63 27 -101t96 -39q28 0 47 4.5t31 10.5t17 11
l5 5h78v-80l-12 -6t-34.5 -13t-56 -13t-76.5 -6q-109 0 -166 64t-57 186zM151 301v-4h218l0.5 7t0.5 16q0 61 -27.5 89.5t-80.5 28.5q-48 0 -79.5 -31.5t-31.5 -105.5z" />
    <glyph glyph-name="edieresis" unicode="&#xeb;" horiz-adv-x="520" 
d="M128 645q0 25 14.5 40t44.5 15q31 0 45 -15.5t14 -39.5v-8q0 -25 -14.5 -40t-44.5 -15q-31 0 -45 16t-14 39v8zM283 645q0 25 15 40t44 15q31 0 45 -15.5t14 -39.5v-8q0 -25 -14.5 -40t-44.5 -15t-44.5 16t-14.5 39v8zM50 242v28q0 123 58 187t154 64q44 0 82.5 -11
t66.5 -37t44 -68.5t16 -105.5q0 -30 -2.5 -54l-2.5 -24h-315v-2q0 -63 27 -101t96 -39q28 0 47 4.5t31 10.5t17 11l5 5h78v-80l-12 -6t-34.5 -13t-56 -13t-76.5 -6q-109 0 -166 64t-57 186zM151 301v-4h218l0.5 7t0.5 16q0 61 -27.5 89.5t-80.5 28.5q-48 0 -79.5 -31.5
t-31.5 -105.5z" />
    <glyph glyph-name="igrave" unicode="&#xec;" horiz-adv-x="261" 
d="M98 740l82 -168h-84l-82 118v50h84zM180 0h-100v513h100v-513z" />
    <glyph glyph-name="iacute" unicode="&#xed;" horiz-adv-x="261" 
d="M163 740h84v-50l-82 -118h-84zM180 0h-100v513h100v-513z" />
    <glyph glyph-name="icircumflex" unicode="&#xee;" horiz-adv-x="261" 
d="M-12 571v44l101 125h82l101 -125v-44h-63l-43 57q-14 17 -24 31l-10 14h-4l-10 -14t-24 -31l-43 -57h-63zM180 0h-100v513h100v-513z" />
    <glyph glyph-name="idieresis" unicode="&#xef;" horiz-adv-x="261" 
d="M-7 645q0 25 14.5 40t44.5 15q31 0 45 -15.5t14 -39.5v-8q0 -25 -14.5 -40t-44.5 -15q-31 0 -45 16t-14 39v8zM148 645q0 25 15 40t44 15q31 0 45 -15.5t14 -39.5v-8q0 -25 -14.5 -40t-44.5 -15t-44.5 16t-14.5 39v8zM180 0h-100v513h100v-513z" />
    <glyph glyph-name="eth" unicode="&#xf0;" horiz-adv-x="546" 
d="M224 541h-53v53l69 48q-19 12 -36.5 19.5t-32.5 9.5v69h61l24.5 -10t59.5 -35l65 45h53v-53l-62 -43q47 -51 85 -142t38 -231v-30q0 -116 -56.5 -182.5t-166.5 -66.5t-166 66.5t-56 182.5v30q0 117 54 180.5t164 63.5q37 0 61 -9.5l24 -9.5h2q-11 29 -26.5 53t-31.5 43z
M152 243q0 -89 29 -127t91 -38q63 0 92 38t29 127v20q0 89 -29.5 127t-91.5 38t-91 -38t-29 -127v-20z" />
    <glyph glyph-name="ntilde" unicode="&#xf1;" horiz-adv-x="567" 
d="M103 603v64l5.5 7t17 16t30.5 16t46 7q20 0 40.5 -4.5t36.5 -10.5l24 -8q13 -6 25.5 -9t26.5 -3q30 0 38.5 14l8.5 14h61v-63l-5.5 -7t-17 -16t-30.5 -16t-46 -7q-21 0 -41 4.5t-36 10.5l-24 8q-14 5 -26.5 8.5t-26.5 3.5q-30 0 -38.5 -14.5l-8.5 -14.5h-60zM80 0v513h83
l13 -57h3l10.5 10t30.5 22.5t50.5 22.5t70.5 10q70 0 110.5 -38t40.5 -116v-367h-100v355q0 39 -21 59.5t-68 20.5q-26 0 -49 -8t-39 -17.5t-25.5 -17.5l-9.5 -8v-384h-100z" />
    <glyph glyph-name="ograve" unicode="&#xf2;" horiz-adv-x="544" 
d="M243 740l82 -168h-84l-82 118v50h84zM50 242v28q0 118 56 184.5t166 66.5t166.5 -66.5t56.5 -184.5v-28q0 -117 -56.5 -183.5t-166.5 -66.5t-166 66.5t-56 183.5zM152 248q0 -90 28.5 -129.5t91.5 -39.5t92 39.5t29 129.5v17q0 90 -29 129.5t-92 39.5t-91.5 -39.5
t-28.5 -129.5v-17z" />
    <glyph glyph-name="oacute" unicode="&#xf3;" horiz-adv-x="544" 
d="M301 740h84v-50l-82 -118h-84zM50 242v28q0 118 56 184.5t166 66.5t166.5 -66.5t56.5 -184.5v-28q0 -117 -56.5 -183.5t-166.5 -66.5t-166 66.5t-56 183.5zM152 248q0 -90 28.5 -129.5t91.5 -39.5t92 39.5t29 129.5v17q0 90 -29 129.5t-92 39.5t-91.5 -39.5t-28.5 -129.5
v-17z" />
    <glyph glyph-name="ocircumflex" unicode="&#xf4;" horiz-adv-x="544" 
d="M130 571v44l101 125h82l101 -125v-44h-63l-43 57q-14 17 -24 31l-10 14h-4l-10 -14t-24 -31l-43 -57h-63zM50 242v28q0 118 56 184.5t166 66.5t166.5 -66.5t56.5 -184.5v-28q0 -117 -56.5 -183.5t-166.5 -66.5t-166 66.5t-56 183.5zM152 248q0 -90 28.5 -129.5
t91.5 -39.5t92 39.5t29 129.5v17q0 90 -29 129.5t-92 39.5t-91.5 -39.5t-28.5 -129.5v-17z" />
    <glyph glyph-name="otilde" unicode="&#xf5;" horiz-adv-x="544" 
d="M92 603v64l5.5 7t17 16t30.5 16t46 7q20 0 40.5 -4.5t36.5 -10.5l24 -8q13 -6 25.5 -9t26.5 -3q30 0 38.5 14l8.5 14h61v-63l-5.5 -7t-17 -16t-30.5 -16t-46 -7q-21 0 -41 4.5t-36 10.5l-24 8q-14 5 -26.5 8.5t-26.5 3.5q-30 0 -38.5 -14.5l-8.5 -14.5h-60zM50 242v28
q0 118 56 184.5t166 66.5t166.5 -66.5t56.5 -184.5v-28q0 -117 -56.5 -183.5t-166.5 -66.5t-166 66.5t-56 183.5zM152 248q0 -90 28.5 -129.5t91.5 -39.5t92 39.5t29 129.5v17q0 90 -29 129.5t-92 39.5t-91.5 -39.5t-28.5 -129.5v-17z" />
    <glyph glyph-name="odieresis" unicode="&#xf6;" horiz-adv-x="544" 
d="M135 645q0 25 14.5 40t44.5 15q31 0 45 -15.5t14 -39.5v-8q0 -25 -14.5 -40t-44.5 -15q-31 0 -45 16t-14 39v8zM290 645q0 25 15 40t44 15q31 0 45 -15.5t14 -39.5v-8q0 -25 -14.5 -40t-44.5 -15t-44.5 16t-14.5 39v8zM50 242v28q0 118 56 184.5t166 66.5t166.5 -66.5
t56.5 -184.5v-28q0 -117 -56.5 -183.5t-166.5 -66.5t-166 66.5t-56 183.5zM152 248q0 -90 28.5 -129.5t91.5 -39.5t92 39.5t29 129.5v17q0 90 -29 129.5t-92 39.5t-91.5 -39.5t-28.5 -129.5v-17z" />
    <glyph glyph-name="divide" unicode="&#xf7;" horiz-adv-x="600" 
d="M235 477q0 28 17 44.5t48 16.5q32 0 49 -16.5t17 -44.5v-8q0 -28 -17 -45t-49 -17q-31 0 -48 17t-17 45v8zM65 344h470v-93h-470v93zM235 128q0 28 17 44.5t48 16.5q32 0 49 -16.5t17 -44.5v-8q0 -28 -17 -45t-49 -17q-31 0 -48 17t-17 45v8z" />
    <glyph glyph-name="oslash" unicode="&#xf8;" horiz-adv-x="544" 
d="M50 242v28q0 118 56 184.5t166 66.5q35 0 65.5 -7.5t54.5 -20.5l46 67h54v-44l-47 -69q25 -32 37.5 -77t12.5 -100v-28q0 -117 -56.5 -183.5t-166.5 -66.5q-35 0 -65 7.5t-54 20.5l-46 -68h-54v45l47 68q-25 32 -37.5 77t-12.5 100zM152 248q0 -28 2.5 -50.5t7.5 -40.5
l178 260q-13 9 -30 13t-38 4q-63 0 -91.5 -39.5t-28.5 -129.5v-17zM393 265q0 28 -2.5 50.5t-7.5 40.5l-178 -261q13 -8 30 -12t37 -4q63 0 92 39.5t29 129.5v17z" />
    <glyph glyph-name="ugrave" unicode="&#xf9;" 
d="M244 740l82 -168h-84l-82 118v50h84zM75 513h100v-355q0 -39 21.5 -59.5t68.5 -20.5q27 0 49 8t37 17.5t23.5 17.5l8.5 8v384h100v-513h-83l-14 56h-2l-10 -10t-29.5 -22t-50 -22t-70.5 -10q-69 0 -109 38t-40 115v368z" />
    <glyph glyph-name="uacute" unicode="&#xfa;" 
d="M310 740h84v-50l-82 -118h-84zM75 513h100v-355q0 -39 21.5 -59.5t68.5 -20.5q27 0 49 8t37 17.5t23.5 17.5l8.5 8v384h100v-513h-83l-14 56h-2l-10 -10t-29.5 -22t-50 -22t-70.5 -10q-69 0 -109 38t-40 115v368z" />
    <glyph glyph-name="ucircumflex" unicode="&#xfb;" 
d="M137 571v44l101 125h82l101 -125v-44h-63l-43 57q-14 17 -24 31l-10 14h-4l-10 -14t-24 -31l-43 -57h-63zM75 513h100v-355q0 -39 21.5 -59.5t68.5 -20.5q27 0 49 8t37 17.5t23.5 17.5l8.5 8v384h100v-513h-83l-14 56h-2l-10 -10t-29.5 -22t-50 -22t-70.5 -10
q-69 0 -109 38t-40 115v368z" />
    <glyph glyph-name="udieresis" unicode="&#xfc;" 
d="M142 645q0 25 14.5 40t44.5 15q31 0 45 -15.5t14 -39.5v-8q0 -25 -14.5 -40t-44.5 -15q-31 0 -45 16t-14 39v8zM297 645q0 25 15 40t44 15q31 0 45 -15.5t14 -39.5v-8q0 -25 -14.5 -40t-44.5 -15t-44.5 16t-14.5 39v8zM75 513h100v-355q0 -39 21.5 -59.5t68.5 -20.5
q27 0 49 8t37 17.5t23.5 17.5l8.5 8v384h100v-513h-83l-14 56h-2l-10 -10t-29.5 -22t-50 -22t-70.5 -10q-69 0 -109 38t-40 115v368z" />
    <glyph glyph-name="yacute" unicode="&#xfd;" horiz-adv-x="506" 
d="M287 740h84v-50l-82 -118h-84zM113 -88h26q29 0 46 12.5t27 46.5l15 52h-47l-147 430v60h87l93 -281q6 -19 12 -40t10.5 -39t7.5 -29.5l3 -11.5h17l3 11.5t7.5 29.5t10.5 39t12 40l93 281h83v-61l-147 -429l-22 -71q-12 -42 -29 -67t-32 -37.5t-25.5 -16.5l-10.5 -4h-93
v85z" />
    <glyph glyph-name="thorn" unicode="&#xfe;" horiz-adv-x="559" 
d="M319 -8q-32 0 -56.5 6.5t-42 15t-28 16t-13.5 10.5h-4l0.5 -10t1 -25t1 -32t0.5 -32v-114h-98v913h98v-185q0 -15 -0.5 -32t-1 -31.5t-1 -24l-0.5 -9.5h4l9.5 10t28.5 21.5t47.5 21.5t66.5 10q96 0 137.5 -64.5t41.5 -180.5v-40q0 -110 -46.5 -177t-144.5 -67zM299 434
q-28 0 -51 -8t-38 -17.5t-23.5 -17.5l-8.5 -8v-263l7.5 -6.5t22 -14t35.5 -14t49 -6.5q66 0 92 44t26 124v18q0 80 -21.5 124.5t-89.5 44.5z" />
    <glyph glyph-name="ydieresis" unicode="&#xff;" horiz-adv-x="506" 
d="M117 645q0 25 14.5 40t44.5 15q31 0 45 -15.5t14 -39.5v-8q0 -25 -14.5 -40t-44.5 -15q-31 0 -45 16t-14 39v8zM272 645q0 25 15 40t44 15q31 0 45 -15.5t14 -39.5v-8q0 -25 -14.5 -40t-44.5 -15t-44.5 16t-14.5 39v8zM113 -88h26q29 0 46 12.5t27 46.5l15 52h-47
l-147 430v60h87l93 -281q6 -19 12 -40t10.5 -39t7.5 -29.5l3 -11.5h17l3 11.5t7.5 29.5t10.5 39t12 40l93 281h83v-61l-147 -429l-22 -71q-12 -42 -29 -67t-32 -37.5t-25.5 -16.5l-10.5 -4h-93v85z" />
    <glyph glyph-name="Amacron" unicode="&#x100;" horiz-adv-x="595" 
d="M153 860h288v-79h-288v79zM33 0v61l177 619h175l177 -619v-61h-92l-44 160q-32 -7 -64.5 -11t-66.5 -4q-33 0 -65 3.5t-63 10.5l-44 -159h-90zM244 439l-52 -190q25 -5 50.5 -8t52.5 -3t53.5 3t52.5 9l-53 189q-7 27 -14 53.5t-12 48t-8 34.5l-3 13h-28l-3 -13
t-8.5 -34.5t-12.5 -48t-15 -53.5z" />
    <glyph glyph-name="amacron" unicode="&#x101;" horiz-adv-x="526" 
d="M112 693h288v-79h-288v79zM85 399v81l11.5 6t33.5 13t55 13.5t76 6.5q99 0 144.5 -42t45.5 -122v-355h-83l-13 54h-3l-9.5 -9.5t-28.5 -21t-47 -21t-65 -9.5q-84 0 -119.5 42.5t-35.5 111.5q0 72 43 111t138 39h124v55q0 40 -23.5 59.5t-75.5 19.5q-26 0 -43.5 -5
t-27 -11t-13.5 -11l-4 -5h-80zM233 76q31 0 53.5 8t37 18t21.5 18l7 8v94h-119q-47 0 -67.5 -20t-20.5 -51q0 -39 19.5 -57t68.5 -18z" />
    <glyph glyph-name="Abreve" unicode="&#x102;" horiz-adv-x="595" 
d="M159 880h69l1.5 -10t8 -21.5t20.5 -21.5t40 -10t40 10t20.5 21.5t8 21.5l1.5 10h68v-54l-6 -12.5t-21.5 -28t-42.5 -28t-68 -12.5t-68 12.5t-42.5 28t-22 28l-6.5 12.5v54zM33 0v61l177 619h175l177 -619v-61h-92l-44 160q-32 -7 -64.5 -11t-66.5 -4q-33 0 -65 3.5
t-63 10.5l-44 -159h-90zM244 439l-52 -190q25 -5 50.5 -8t52.5 -3t53.5 3t52.5 9l-53 189q-7 27 -14 53.5t-12 48t-8 34.5l-3 13h-28l-3 -13t-8.5 -34.5t-12.5 -48t-15 -53.5z" />
    <glyph glyph-name="abreve" unicode="&#x103;" horiz-adv-x="526" 
d="M118 713h69l1.5 -10t8 -21.5t20.5 -21.5t40 -10t40 10t20.5 21.5t8 21.5l1.5 10h68v-54l-6 -12.5t-21.5 -28t-42.5 -28t-68 -12.5t-68 12.5t-42.5 28t-22 28l-6.5 12.5v54zM85 399v81l11.5 6t33.5 13t55 13.5t76 6.5q99 0 144.5 -42t45.5 -122v-355h-83l-13 54h-3
l-9.5 -9.5t-28.5 -21t-47 -21t-65 -9.5q-84 0 -119.5 42.5t-35.5 111.5q0 72 43 111t138 39h124v55q0 40 -23.5 59.5t-75.5 19.5q-26 0 -43.5 -5t-27 -11t-13.5 -11l-4 -5h-80zM233 76q31 0 53.5 8t37 18t21.5 18l7 8v94h-119q-47 0 -67.5 -20t-20.5 -51q0 -39 19.5 -57
t68.5 -18z" />
    <glyph glyph-name="Aogonek" unicode="&#x104;" horiz-adv-x="595" 
d="M33 0v61l177 619h175l177 -619v-61l-34 -33q-18 -16 -26.5 -27.5t-8.5 -24.5t10.5 -21.5t26.5 -8.5h18v-66h-31q-46 0 -73.5 23.5t-27.5 65.5q0 30 15.5 53t37.5 44l-43 155q-32 -7 -64.5 -11t-66.5 -4q-33 0 -65 3.5t-63 10.5l-44 -159h-90zM244 439l-52 -190
q25 -5 50.5 -8t52.5 -3t53.5 3t52.5 9l-53 189q-7 27 -14 53.5t-12 48t-8 34.5l-3 13h-28l-3 -13t-8.5 -34.5t-12.5 -48t-15 -53.5z" />
    <glyph glyph-name="aogonek" unicode="&#x105;" horiz-adv-x="526" 
d="M85 399v81l11.5 6t33.5 13t55 13.5t76 6.5q99 0 144.5 -42t45.5 -122v-355l-34 -33q-18 -16 -26.5 -27.5t-8.5 -24.5t10.5 -21.5t26.5 -8.5h18v-66h-31q-46 0 -73.5 23.5t-27.5 65.5q0 30 15.5 53.5t40.5 46.5l4 4l-10 42h-3l-9.5 -9.5t-28.5 -21t-47 -21t-65 -9.5
q-84 0 -119.5 42.5t-35.5 111.5q0 72 43 111t138 39h124v55q0 40 -23.5 59.5t-75.5 19.5q-26 0 -43.5 -5t-27 -11t-13.5 -11l-4 -5h-80zM233 76q31 0 53.5 8t37 18t21.5 18l7 8v94h-119q-47 0 -67.5 -20t-20.5 -51q0 -39 19.5 -57t68.5 -18z" />
    <glyph glyph-name="Cacute" unicode="&#x106;" horiz-adv-x="554" 
d="M429 896v-72l-200 -99v78l137 93h63zM60 258v164q0 134 62.5 200.5t181.5 66.5q59 0 99 -15t63.5 -33t33.5 -33l10 -15v-79h-87l-2.5 13t-14 28t-35.5 28t-66 13q-75 0 -108 -42t-33 -126v-176q0 -84 33 -126t108 -42q42 0 66 13t35.5 28t14 28l2.5 13h87v-79l-10 -15
t-33.5 -33t-63.5 -33t-99 -15q-119 0 -181.5 66.5t-62.5 200.5z" />
    <glyph glyph-name="cacute" unicode="&#x107;" horiz-adv-x="470" 
d="M285 740h84v-50l-82 -118h-84zM50 242v28q0 131 59 189.5t160 58.5q40 0 70.5 -6t50 -13.5t29.5 -13.5l10 -6v-84h-80q0 1 -4.5 6.5t-14 12t-25 11.5t-38.5 5q-63 0 -89 -38.5t-26 -124.5v-22q0 -86 26 -124.5t89 -38.5q23 0 38.5 5t25 11.5t14 12t4.5 6.5h80v-83l-10 -6
t-29.5 -13.5t-50 -13.5t-70.5 -6q-101 0 -160 58t-59 189z" />
    <glyph glyph-name="Ccircumflex" unicode="&#x108;" horiz-adv-x="554" 
d="M169 737v43l97 88h71l97 -88v-43h-63l-34 32q-13 13 -23 22.5l-10 9.5h-5l-9.5 -9.5l-22.5 -22.5l-35 -32h-63zM60 258v164q0 134 62.5 200.5t181.5 66.5q59 0 99 -15t63.5 -33t33.5 -33l10 -15v-79h-87l-2.5 13t-14 28t-35.5 28t-66 13q-75 0 -108 -42t-33 -126v-176
q0 -84 33 -126t108 -42q42 0 66 13t35.5 28t14 28l2.5 13h87v-79l-10 -15t-33.5 -33t-63.5 -33t-99 -15q-119 0 -181.5 66.5t-62.5 200.5z" />
    <glyph glyph-name="ccircumflex" unicode="&#x109;" horiz-adv-x="470" 
d="M123 571v44l101 125h82l101 -125v-44h-63l-43 57q-14 17 -24 31l-10 14h-4l-10 -14t-24 -31l-43 -57h-63zM50 242v28q0 131 59 189.5t160 58.5q40 0 70.5 -6t50 -13.5t29.5 -13.5l10 -6v-84h-80q0 1 -4.5 6.5t-14 12t-25 11.5t-38.5 5q-63 0 -89 -38.5t-26 -124.5v-22
q0 -86 26 -124.5t89 -38.5q23 0 38.5 5t25 11.5t14 12t4.5 6.5h80v-83l-10 -6t-29.5 -13.5t-50 -13.5t-70.5 -6q-101 0 -160 58t-59 189z" />
    <glyph glyph-name="Cdotaccent" unicode="&#x10a;" horiz-adv-x="554" 
d="M239 807q0 26 15.5 42t46.5 16q30 0 45.5 -16t15.5 -42v-8q0 -26 -15.5 -41.5t-45.5 -15.5q-31 0 -46.5 15.5t-15.5 41.5v8zM60 258v164q0 134 62.5 200.5t181.5 66.5q59 0 99 -15t63.5 -33t33.5 -33l10 -15v-79h-87l-2.5 13t-14 28t-35.5 28t-66 13q-75 0 -108 -42
t-33 -126v-176q0 -84 33 -126t108 -42q42 0 66 13t35.5 28t14 28l2.5 13h87v-79l-10 -15t-33.5 -33t-63.5 -33t-99 -15q-119 0 -181.5 66.5t-62.5 200.5z" />
    <glyph glyph-name="cdotaccent" unicode="&#x10b;" horiz-adv-x="470" 
d="M203 640q0 26 15.5 42t46.5 16q30 0 45.5 -16t15.5 -42v-8q0 -26 -15.5 -41.5t-45.5 -15.5q-31 0 -46.5 15.5t-15.5 41.5v8zM50 242v28q0 131 59 189.5t160 58.5q40 0 70.5 -6t50 -13.5t29.5 -13.5l10 -6v-84h-80q0 1 -4.5 6.5t-14 12t-25 11.5t-38.5 5q-63 0 -89 -38.5
t-26 -124.5v-22q0 -86 26 -124.5t89 -38.5q23 0 38.5 5t25 11.5t14 12t4.5 6.5h80v-83l-10 -6t-29.5 -13.5t-50 -13.5t-70.5 -6q-101 0 -160 58t-59 189z" />
    <glyph glyph-name="Ccaron" unicode="&#x10c;" horiz-adv-x="554" 
d="M169 868h63l35 -32l22.5 -22.5l9.5 -9.5h5l10 9.5t23 22.5l34 32h63v-43l-97 -88h-71l-97 88v43zM60 258v164q0 134 62.5 200.5t181.5 66.5q59 0 99 -15t63.5 -33t33.5 -33l10 -15v-79h-87l-2.5 13t-14 28t-35.5 28t-66 13q-75 0 -108 -42t-33 -126v-176q0 -84 33 -126
t108 -42q42 0 66 13t35.5 28t14 28l2.5 13h87v-79l-10 -15t-33.5 -33t-63.5 -33t-99 -15q-119 0 -181.5 66.5t-62.5 200.5z" />
    <glyph glyph-name="ccaron" unicode="&#x10d;" horiz-adv-x="470" 
d="M407 740v-44l-101 -125h-82l-101 125v44h63l43 -57q14 -17 24 -31l10 -14h4l10 14t24 31l43 57h63zM50 242v28q0 131 59 189.5t160 58.5q40 0 70.5 -6t50 -13.5t29.5 -13.5l10 -6v-84h-80q0 1 -4.5 6.5t-14 12t-25 11.5t-38.5 5q-63 0 -89 -38.5t-26 -124.5v-22
q0 -86 26 -124.5t89 -38.5q23 0 38.5 5t25 11.5t14 12t4.5 6.5h80v-83l-10 -6t-29.5 -13.5t-50 -13.5t-70.5 -6q-101 0 -160 58t-59 189z" />
    <glyph glyph-name="Dcaron" unicode="&#x10e;" horiz-adv-x="617" 
d="M165 868h63l35 -32l22.5 -22.5l9.5 -9.5h5l10 9.5t23 22.5l34 32h63v-43l-97 -88h-71l-97 88v43zM309 0h-224v680h224q122 0 185 -64t63 -200v-152q0 -136 -63 -200t-185 -64zM305 587h-117v-494h117q74 0 111 34.5t37 123.5v178q0 89 -37 123.5t-111 34.5z" />
    <glyph glyph-name="dcaron" unicode="&#x10f;" horiz-adv-x="665" 
d="M50 238v38q0 110 46.5 176t144.5 66q34 0 60 -7t44 -15.5t27 -15.5l9 -7h3l-0.5 10t-1 25t-1 32.5t-0.5 32.5v167h100v-740h-84l-13 55h-3l-9.5 -9.5t-28.5 -20.5t-47.5 -20.5t-66.5 -9.5q-96 0 -137.5 63.5t-41.5 179.5zM541 550l4.5 15.5t9.5 41.5t9.5 60.5t4.5 72.5
h101v-47q-14 -68 -30.5 -105.5l-16.5 -37.5h-82zM261 82q29 0 51.5 7.5t37.5 16.5t23 16.5l8 7.5v264l-7.5 6t-21.5 12.5t-35 12.5t-49 6q-66 0 -91 -43t-25 -124v-15q0 -81 20.5 -124t88.5 -43z" />
    <glyph glyph-name="Dcroat" unicode="&#x110;" horiz-adv-x="617" 
d="M6 380h79v300h224q122 0 185 -64t63 -200v-152q0 -136 -63 -200t-185 -64h-224v301h-79v79zM305 301h-117v-208h117q74 0 111 34.5t37 123.5v178q0 89 -37 123.5t-111 34.5h-117v-207h117v-79z" />
    <glyph glyph-name="dcroat" unicode="&#x111;" horiz-adv-x="561" 
d="M50 238v38q0 110 46.5 176t144.5 66q34 0 60 -7t44 -15.5t27 -15.5l9 -7h3l-0.5 10t-1 25t-1 32.5t-0.5 32.5v4h-134v79h134v84h100v-84h65v-79h-65v-577h-84l-13 55h-3l-9.5 -9.5t-28.5 -20.5t-47.5 -20.5t-66.5 -9.5q-96 0 -137.5 63.5t-41.5 179.5zM261 82
q29 0 51.5 7.5t37.5 16.5t23 16.5l8 7.5v264l-7.5 6t-21.5 12.5t-35 12.5t-49 6q-66 0 -91 -43t-25 -124v-15q0 -81 20.5 -124t88.5 -43z" />
    <glyph glyph-name="Emacron" unicode="&#x112;" horiz-adv-x="533" 
d="M142 860h288v-79h-288v79zM85 0v680h406l-15 -94h-288v-197h257v-94h-257v-201h293v-94h-396z" />
    <glyph glyph-name="emacron" unicode="&#x113;" horiz-adv-x="520" 
d="M120 693h288v-79h-288v79zM50 242v28q0 123 58 187t154 64q44 0 82.5 -11t66.5 -37t44 -68.5t16 -105.5q0 -30 -2.5 -54l-2.5 -24h-315v-2q0 -63 27 -101t96 -39q28 0 47 4.5t31 10.5t17 11l5 5h78v-80l-12 -6t-34.5 -13t-56 -13t-76.5 -6q-109 0 -166 64t-57 186z
M151 301v-4h218l0.5 7t0.5 16q0 61 -27.5 89.5t-80.5 28.5q-48 0 -79.5 -31.5t-31.5 -105.5z" />
    <glyph glyph-name="Ebreve" unicode="&#x114;" horiz-adv-x="533" 
d="M148 880h69l1.5 -10t8 -21.5t20.5 -21.5t40 -10t40 10t20.5 21.5t8 21.5l1.5 10h68v-54l-6 -12.5t-21.5 -28t-42.5 -28t-68 -12.5t-68 12.5t-42.5 28t-22 28l-6.5 12.5v54zM85 0v680h406l-15 -94h-288v-197h257v-94h-257v-201h293v-94h-396z" />
    <glyph glyph-name="ebreve" unicode="&#x115;" horiz-adv-x="520" 
d="M126 713h69l1.5 -10t8 -21.5t20.5 -21.5t40 -10t40 10t20.5 21.5t8 21.5l1.5 10h68v-54l-6 -12.5t-21.5 -28t-42.5 -28t-68 -12.5t-68 12.5t-42.5 28t-22 28l-6.5 12.5v54zM50 242v28q0 123 58 187t154 64q44 0 82.5 -11t66.5 -37t44 -68.5t16 -105.5q0 -30 -2.5 -54
l-2.5 -24h-315v-2q0 -63 27 -101t96 -39q28 0 47 4.5t31 10.5t17 11l5 5h78v-80l-12 -6t-34.5 -13t-56 -13t-76.5 -6q-109 0 -166 64t-57 186zM151 301v-4h218l0.5 7t0.5 16q0 61 -27.5 89.5t-80.5 28.5q-48 0 -79.5 -31.5t-31.5 -105.5z" />
    <glyph glyph-name="Edotaccent" unicode="&#x116;" horiz-adv-x="533" 
d="M225 807q0 26 15.5 42t46.5 16q30 0 45.5 -16t15.5 -42v-8q0 -26 -15.5 -41.5t-45.5 -15.5q-31 0 -46.5 15.5t-15.5 41.5v8zM85 0v680h406l-15 -94h-288v-197h257v-94h-257v-201h293v-94h-396z" />
    <glyph glyph-name="edotaccent" unicode="&#x117;" horiz-adv-x="520" 
d="M203 640q0 26 15.5 42t46.5 16q30 0 45.5 -16t15.5 -42v-8q0 -26 -15.5 -41.5t-45.5 -15.5q-31 0 -46.5 15.5t-15.5 41.5v8zM50 242v28q0 123 58 187t154 64q44 0 82.5 -11t66.5 -37t44 -68.5t16 -105.5q0 -30 -2.5 -54l-2.5 -24h-315v-2q0 -63 27 -101t96 -39
q28 0 47 4.5t31 10.5t17 11l5 5h78v-80l-12 -6t-34.5 -13t-56 -13t-76.5 -6q-109 0 -166 64t-57 186zM151 301v-4h218l0.5 7t0.5 16q0 61 -27.5 89.5t-80.5 28.5q-48 0 -79.5 -31.5t-31.5 -105.5z" />
    <glyph glyph-name="Eogonek" unicode="&#x118;" horiz-adv-x="533" 
d="M85 0v680h406l-15 -94h-288v-197h257v-94h-257v-201h293v-94l-34 -33q-18 -16 -26.5 -27.5t-8.5 -24.5t10.5 -21.5t26.5 -8.5h18v-66h-31q-46 0 -73.5 23.5t-27.5 65.5q0 28 13 49.5t35 42.5h-298z" />
    <glyph glyph-name="eogonek" unicode="&#x119;" horiz-adv-x="520" 
d="M50 242v28q0 123 58 187t154 64q44 0 82.5 -11t66.5 -37t44 -68.5t16 -105.5q0 -30 -2.5 -54l-2.5 -24h-315v-2q0 -63 27 -101t96 -39q28 0 47 4.5t31 10.5t17 11l5 5h78v-80l-23 -10.5t-66 -19.5l-34 -33q-18 -16 -26.5 -27.5t-8.5 -24.5t10.5 -21.5t26.5 -8.5h18v-66
h-31q-46 0 -73.5 23.5t-27.5 65.5q0 25 11 45t29 39q-101 5 -154 69t-53 181zM151 301v-4h218l0.5 7t0.5 16q0 61 -27.5 89.5t-80.5 28.5q-48 0 -79.5 -31.5t-31.5 -105.5z" />
    <glyph glyph-name="Ecaron" unicode="&#x11a;" horiz-adv-x="533" 
d="M155 868h63l35 -32l22.5 -22.5l9.5 -9.5h5l10 9.5t23 22.5l34 32h63v-43l-97 -88h-71l-97 88v43zM85 0v680h406l-15 -94h-288v-197h257v-94h-257v-201h293v-94h-396z" />
    <glyph glyph-name="ecaron" unicode="&#x11b;" horiz-adv-x="520" 
d="M407 740v-44l-101 -125h-82l-101 125v44h63l43 -57q14 -17 24 -31l10 -14h4l10 14t24 31l43 57h63zM50 242v28q0 123 58 187t154 64q44 0 82.5 -11t66.5 -37t44 -68.5t16 -105.5q0 -30 -2.5 -54l-2.5 -24h-315v-2q0 -63 27 -101t96 -39q28 0 47 4.5t31 10.5t17 11l5 5h78
v-80l-12 -6t-34.5 -13t-56 -13t-76.5 -6q-109 0 -166 64t-57 186zM151 301v-4h218l0.5 7t0.5 16q0 61 -27.5 89.5t-80.5 28.5q-48 0 -79.5 -31.5t-31.5 -105.5z" />
    <glyph glyph-name="Gcircumflex" unicode="&#x11c;" horiz-adv-x="599" 
d="M171 737v43l97 88h71l97 -88v-43h-63l-34 32q-13 13 -23 22.5l-10 9.5h-5l-9.5 -9.5l-22.5 -22.5l-35 -32h-63zM60 257v162q0 136 64.5 203t186.5 67q59 0 98.5 -15t63.5 -33.5t34.5 -33.5l10.5 -15v-78h-86q-2 12 -10 26.5t-22.5 27t-37 20.5t-53.5 8q-75 0 -110 -42
t-35 -126v-182q0 -85 33.5 -126.5t107.5 -41.5q29 0 51.5 7.5t38 16.5t24 16.5l8.5 7.5v171h-129v92h227v-389h-78l-13 50h-2l-10 -9t-29 -20.5t-47.5 -20.5t-65.5 -9q-109 0 -164.5 67t-55.5 199z" />
    <glyph glyph-name="gcircumflex" unicode="&#x11d;" horiz-adv-x="537" 
d="M114 571v44l101 125h82l101 -125v-44h-63l-43 57q-14 17 -24 31l-10 14h-4l-10 -14t-24 -31l-43 -57h-63zM48 -59q0 26 9.5 46.5t21.5 34.5t21.5 21.5l9.5 7.5v2l-6 4.5t-12.5 13t-12.5 22.5t-6 33q0 21 6 37.5t13.5 28t14 18l6.5 6.5v1l-8.5 8t-18 24.5t-18 41
t-8.5 57.5v5q0 69 45 116t151 47q57 0 90 -9.5l33 -9.5h1q4 28 16.5 46t25.5 28.5t23 14.5l10 4h77v-84h-22q-28 0 -39.5 -15.5t-11.5 -41.5v-101q-1 -73 -47 -119t-152 -46h-86l-8 -11t-8 -27t8 -26.5t28 -10.5h163q71 0 108 -35t37 -97q0 -74 -52 -115.5t-178 -41.5h-24
q-64 0 -103.5 10t-61 26.5t-28.5 38.5t-7 47zM155 343q0 -20 5 -34.5t11 -23.5t11 -13.5l5 -4.5h68q58 -1 83.5 21t25.5 66v60l-27 8.5t-79 8.5q-58 0 -80.5 -22t-22.5 -63v-3zM142 -42q1 -29 23.5 -44t83.5 -15h31q41 0 66 5t39 14t18.5 21.5t4.5 27.5q0 21 -13 38t-47 17
h-178l-14 -15.5t-14 -48.5z" />
    <glyph glyph-name="Gbreve" unicode="&#x11e;" horiz-adv-x="599" 
d="M164 880h69l1.5 -10t8 -21.5t20.5 -21.5t40 -10t40 10t20.5 21.5t8 21.5l1.5 10h68v-54l-6 -12.5t-21.5 -28t-42.5 -28t-68 -12.5t-68 12.5t-42.5 28t-22 28l-6.5 12.5v54zM60 257v162q0 136 64.5 203t186.5 67q59 0 98.5 -15t63.5 -33.5t34.5 -33.5l10.5 -15v-78h-86
q-2 12 -10 26.5t-22.5 27t-37 20.5t-53.5 8q-75 0 -110 -42t-35 -126v-182q0 -85 33.5 -126.5t107.5 -41.5q29 0 51.5 7.5t38 16.5t24 16.5l8.5 7.5v171h-129v92h227v-389h-78l-13 50h-2l-10 -9t-29 -20.5t-47.5 -20.5t-65.5 -9q-109 0 -164.5 67t-55.5 199z" />
    <glyph glyph-name="gbreve" unicode="&#x11f;" horiz-adv-x="537" 
d="M117 713h69l1.5 -10t8 -21.5t20.5 -21.5t40 -10t40 10t20.5 21.5t8 21.5l1.5 10h68v-54l-6 -12.5t-21.5 -28t-42.5 -28t-68 -12.5t-68 12.5t-42.5 28t-22 28l-6.5 12.5v54zM48 -59q0 26 9.5 46.5t21.5 34.5t21.5 21.5l9.5 7.5v2l-6 4.5t-12.5 13t-12.5 22.5t-6 33
q0 21 6 37.5t13.5 28t14 18l6.5 6.5v1l-8.5 8t-18 24.5t-18 41t-8.5 57.5v5q0 69 45 116t151 47q57 0 90 -9.5l33 -9.5h1q4 28 16.5 46t25.5 28.5t23 14.5l10 4h77v-84h-22q-28 0 -39.5 -15.5t-11.5 -41.5v-101q-1 -73 -47 -119t-152 -46h-86l-8 -11t-8 -27t8 -26.5
t28 -10.5h163q71 0 108 -35t37 -97q0 -74 -52 -115.5t-178 -41.5h-24q-64 0 -103.5 10t-61 26.5t-28.5 38.5t-7 47zM155 343q0 -20 5 -34.5t11 -23.5t11 -13.5l5 -4.5h68q58 -1 83.5 21t25.5 66v60l-27 8.5t-79 8.5q-58 0 -80.5 -22t-22.5 -63v-3zM142 -42q1 -29 23.5 -44
t83.5 -15h31q41 0 66 5t39 14t18.5 21.5t4.5 27.5q0 21 -13 38t-47 17h-178l-14 -15.5t-14 -48.5z" />
    <glyph glyph-name="Gdotaccent" unicode="&#x120;" horiz-adv-x="599" 
d="M241 807q0 26 15.5 42t46.5 16q30 0 45.5 -16t15.5 -42v-8q0 -26 -15.5 -41.5t-45.5 -15.5q-31 0 -46.5 15.5t-15.5 41.5v8zM60 257v162q0 136 64.5 203t186.5 67q59 0 98.5 -15t63.5 -33.5t34.5 -33.5l10.5 -15v-78h-86q-2 12 -10 26.5t-22.5 27t-37 20.5t-53.5 8
q-75 0 -110 -42t-35 -126v-182q0 -85 33.5 -126.5t107.5 -41.5q29 0 51.5 7.5t38 16.5t24 16.5l8.5 7.5v171h-129v92h227v-389h-78l-13 50h-2l-10 -9t-29 -20.5t-47.5 -20.5t-65.5 -9q-109 0 -164.5 67t-55.5 199z" />
    <glyph glyph-name="gdotaccent" unicode="&#x121;" horiz-adv-x="537" 
d="M194 640q0 26 15.5 42t46.5 16q30 0 45.5 -16t15.5 -42v-8q0 -26 -15.5 -41.5t-45.5 -15.5q-31 0 -46.5 15.5t-15.5 41.5v8zM48 -59q0 26 9.5 46.5t21.5 34.5t21.5 21.5l9.5 7.5v2l-6 4.5t-12.5 13t-12.5 22.5t-6 33q0 21 6 37.5t13.5 28t14 18l6.5 6.5v1l-8.5 8
t-18 24.5t-18 41t-8.5 57.5v5q0 69 45 116t151 47q57 0 90 -9.5l33 -9.5h1q4 28 16.5 46t25.5 28.5t23 14.5l10 4h77v-84h-22q-28 0 -39.5 -15.5t-11.5 -41.5v-101q-1 -73 -47 -119t-152 -46h-86l-8 -11t-8 -27t8 -26.5t28 -10.5h163q71 0 108 -35t37 -97q0 -74 -52 -115.5
t-178 -41.5h-24q-64 0 -103.5 10t-61 26.5t-28.5 38.5t-7 47zM155 343q0 -20 5 -34.5t11 -23.5t11 -13.5l5 -4.5h68q58 -1 83.5 21t25.5 66v60l-27 8.5t-79 8.5q-58 0 -80.5 -22t-22.5 -63v-3zM142 -42q1 -29 23.5 -44t83.5 -15h31q41 0 66 5t39 14t18.5 21.5t4.5 27.5
q0 21 -13 38t-47 17h-178l-14 -15.5t-14 -48.5z" />
    <glyph glyph-name="uni0122" unicode="&#x122;" horiz-adv-x="599" 
d="M60 257v162q0 136 64.5 203t186.5 67q59 0 98.5 -15t63.5 -33.5t34.5 -33.5l10.5 -15v-78h-86q-2 12 -10 26.5t-22.5 27t-37 20.5t-53.5 8q-75 0 -110 -42t-35 -126v-182q0 -85 33.5 -126.5t107.5 -41.5q29 0 51.5 7.5t38 16.5t24 16.5l8.5 7.5v171h-129v92h227v-389h-78
l-13 50h-2l-10 -9t-29 -20.5t-47.5 -20.5t-65.5 -9q-109 0 -164.5 67t-55.5 199zM196 -212l6.5 14.5t13.5 39t13.5 58.5t6.5 72h103v-43q-17 -73 -40 -107l-23 -34h-80z" />
    <glyph glyph-name="uni0123" unicode="&#x123;" horiz-adv-x="537" 
d="M341 752l-6.5 -14t-14.5 -38t-14.5 -57.5t-6.5 -71.5h-103v40q8 37 19.5 63.5t21.5 43.5t17 25.5l7 8.5h80zM48 -59q0 26 9.5 46.5t21.5 34.5t21.5 21.5l9.5 7.5v2l-6 4.5t-12.5 13t-12.5 22.5t-6 33q0 21 6 37.5t13.5 28t14 18l6.5 6.5v1l-8.5 8t-18 24.5t-18 41
t-8.5 57.5v5q0 69 45 116t151 47q57 0 90 -9.5l33 -9.5h1q4 28 16.5 46t25.5 28.5t23 14.5l10 4h77v-84h-22q-28 0 -39.5 -15.5t-11.5 -41.5v-101q-1 -73 -47 -119t-152 -46h-86l-8 -11t-8 -27t8 -26.5t28 -10.5h163q71 0 108 -35t37 -97q0 -74 -52 -115.5t-178 -41.5h-24
q-64 0 -103.5 10t-61 26.5t-28.5 38.5t-7 47zM155 343q0 -20 5 -34.5t11 -23.5t11 -13.5l5 -4.5h68q58 -1 83.5 21t25.5 66v60l-27 8.5t-79 8.5q-58 0 -80.5 -22t-22.5 -63v-3zM142 -42q1 -29 23.5 -44t83.5 -15h31q41 0 66 5t39 14t18.5 21.5t4.5 27.5q0 21 -13 38t-47 17
h-178l-14 -15.5t-14 -48.5z" />
    <glyph glyph-name="Hcircumflex" unicode="&#x124;" horiz-adv-x="649" 
d="M193 737v43l97 88h71l97 -88v-43h-63l-34 32q-13 13 -23 22.5l-10 9.5h-5l-9.5 -9.5l-22.5 -22.5l-35 -32h-63zM564 680v-680h-103v295h-273v-295h-103v680h103v-291h273v291h103z" />
    <glyph glyph-name="hcircumflex" unicode="&#x125;" horiz-adv-x="567" 
d="M-4 772v43l97 88h71l97 -88v-43h-63l-34 32q-13 13 -23 22.5l-10 9.5h-5l-9.5 -9.5l-22.5 -22.5l-35 -32h-63zM80 0v740h100v-188q0 -16 -0.5 -33t-1 -31t-1 -23l-0.5 -9h3l10.5 10t31 22.5t51 22.5t71.5 10q69 0 108.5 -38t39.5 -116v-367h-100v355q0 39 -21 59.5
t-68 20.5q-27 0 -49.5 -8t-39 -17.5t-25.5 -17.5l-9 -8v-384h-100z" />
    <glyph glyph-name="Hbar" unicode="&#x126;" horiz-adv-x="649" 
d="M11 589h74v91h103v-91h273v91h103v-91h74v-86h-74v-503h-103v295h-273v-295h-103v503h-74v86zM188 389h273v114h-273v-114z" />
    <glyph glyph-name="hbar" unicode="&#x127;" horiz-adv-x="567" 
d="M80 0v592h-69v79h69v69h100v-69h130v-79h-130v-40q0 -16 -0.5 -33t-1 -31t-1 -23l-0.5 -9h3l10.5 10t31 22.5t51 22.5t71.5 10q69 0 108.5 -38t39.5 -116v-367h-100v355q0 39 -21 59.5t-68 20.5q-27 0 -49.5 -8t-39 -17.5t-25.5 -17.5l-9 -8v-384h-100z" />
    <glyph glyph-name="Itilde" unicode="&#x128;" horiz-adv-x="335" 
d="M-12 749v64l5.5 7t17 16t30.5 16t46 7q20 0 40.5 -4.5t36.5 -10.5l24 -8q13 -6 25.5 -9t26.5 -3q30 0 38.5 14l8.5 14h61v-63l-5.5 -7t-17 -16t-30.5 -16t-46 -7q-21 0 -41 4.5t-36 10.5l-24 8q-14 5 -26.5 8.5t-26.5 3.5q-30 0 -38.5 -14.5l-8.5 -14.5h-60zM49 75l67 10
v510l-67 10v75h237v-75l-67 -10v-510l67 -10v-75h-237v75z" />
    <glyph glyph-name="itilde" unicode="&#x129;" horiz-adv-x="261" 
d="M-50 603v64l5.5 7t17 16t30.5 16t46 7q20 0 40.5 -4.5t36.5 -10.5l24 -8q13 -6 25.5 -9t26.5 -3q30 0 38.5 14l8.5 14h61v-63l-5.5 -7t-17 -16t-30.5 -16t-46 -7q-21 0 -41 4.5t-36 10.5l-24 8q-14 5 -26.5 8.5t-26.5 3.5q-30 0 -38.5 -14.5l-8.5 -14.5h-60zM180 0h-100
v513h100v-513z" />
    <glyph glyph-name="Imacron" unicode="&#x12a;" horiz-adv-x="335" 
d="M23 860h288v-79h-288v79zM49 75l67 10v510l-67 10v75h237v-75l-67 -10v-510l67 -10v-75h-237v75z" />
    <glyph glyph-name="imacron" unicode="&#x12b;" horiz-adv-x="261" 
d="M-15 693h288v-79h-288v79zM180 0h-100v513h100v-513z" />
    <glyph glyph-name="Ibreve" unicode="&#x12c;" horiz-adv-x="335" 
d="M29 880h69l1.5 -10t8 -21.5t20.5 -21.5t40 -10t40 10t20.5 21.5t8 21.5l1.5 10h68v-54l-6 -12.5t-21.5 -28t-42.5 -28t-68 -12.5t-68 12.5t-42.5 28t-22 28l-6.5 12.5v54zM49 75l67 10v510l-67 10v75h237v-75l-67 -10v-510l67 -10v-75h-237v75z" />
    <glyph glyph-name="ibreve" unicode="&#x12d;" horiz-adv-x="261" 
d="M-9 713h69l1.5 -10t8 -21.5t20.5 -21.5t40 -10t40 10t20.5 21.5t8 21.5l1.5 10h68v-54l-6 -12.5t-21.5 -28t-42.5 -28t-68 -12.5t-68 12.5t-42.5 28t-22 28l-6.5 12.5v54zM180 0h-100v513h100v-513z" />
    <glyph glyph-name="Iogonek" unicode="&#x12e;" horiz-adv-x="335" 
d="M49 75l67 10v510l-67 10v75h237v-75l-67 -10v-510l67 -10v-75l-34 -33q-18 -16 -26.5 -27.5t-8.5 -24.5t10.5 -21.5t26.5 -8.5h18v-66h-31q-46 0 -73.5 23.5t-27.5 65.5q0 28 13 49.5t35 42.5h-139v75z" />
    <glyph glyph-name="iogonek" unicode="&#x12f;" horiz-adv-x="261" 
d="M68 640q0 26 15.5 42t46.5 16q30 0 45.5 -16t15.5 -42v-8q0 -26 -15.5 -41.5t-45.5 -15.5q-31 0 -46.5 15.5t-15.5 41.5v8zM180 0l-34 -33q-18 -16 -26.5 -27.5t-8.5 -24.5t10.5 -21.5t26.5 -8.5h18v-66h-31q-46 0 -73.5 23.5t-27.5 65.5q0 28 13 49.5t35 42.5h-2v513
h100v-513z" />
    <glyph glyph-name="Idotaccent" unicode="&#x130;" horiz-adv-x="335" 
d="M106 807q0 26 15.5 42t46.5 16q30 0 45.5 -16t15.5 -42v-8q0 -26 -15.5 -41.5t-45.5 -15.5q-31 0 -46.5 15.5t-15.5 41.5v8zM49 75l67 10v510l-67 10v75h237v-75l-67 -10v-510l67 -10v-75h-237v75z" />
    <glyph glyph-name="dotlessi" unicode="&#x131;" horiz-adv-x="261" 
d="M180 0h-100v513h100v-513z" />
    <glyph glyph-name="IJ" unicode="&#x132;" horiz-adv-x="789" 
d="M49 75l67 10v510l-67 10v75h237v-75l-67 -10v-510l67 -10v-75h-237v75zM373 105h74l13.5 -9.5t51.5 -9.5q49 0 72.5 23.5t23.5 72.5v407h-215v91h318v-489q0 -102 -53 -150t-152 -48q-63 0 -98 12l-35 12v88z" />
    <glyph glyph-name="ij" unicode="&#x133;" horiz-adv-x="522" 
d="M69 677q0 26 15.5 42t45.5 16q31 0 46.5 -16t15.5 -42v-8q0 -26 -15.5 -41.5t-46.5 -15.5q-30 0 -45.5 15.5t-15.5 41.5v8zM330 677q0 26 15.5 42t45.5 16q31 0 46.5 -16t15.5 -42v-8q0 -26 -15.5 -41.5t-46.5 -15.5q-30 0 -45.5 15.5t-15.5 41.5v8zM80 0v513h100v-513
h-100zM341 513h100v-498q0 -57 -14.5 -93.5t-31.5 -57.5t-31.5 -29l-14.5 -8h-76v83h6q16 0 39 15t23 75v513z" />
    <glyph glyph-name="Jcircumflex" unicode="&#x134;" horiz-adv-x="454" 
d="M84 737v43l97 88h71l97 -88v-43h-63l-34 32q-13 13 -23 22.5l-10 9.5h-5l-9.5 -9.5l-22.5 -22.5l-35 -32h-63zM38 105h74l13.5 -9.5t51.5 -9.5q49 0 72.5 23.5t23.5 72.5v407h-215v91h318v-489q0 -102 -53 -150t-152 -48q-63 0 -98 12l-35 12v88z" />
    <glyph glyph-name="jcircumflex" unicode="&#x135;" horiz-adv-x="262" 
d="M-11 571v44l101 125h82l101 -125v-44h-63l-43 57q-14 17 -24 31l-10 14h-4l-10 -14t-24 -31l-43 -57h-63zM82 513h100v-498q0 -57 -14.5 -93.5t-32 -57.5t-32 -29l-14.5 -8h-75v83h5q16 0 39.5 15t23.5 75v513z" />
    <glyph glyph-name="uni0136" unicode="&#x136;" horiz-adv-x="583" 
d="M188 296v-296h-103v680h103v-187q0 -40 -1 -72l-1 -32h66l19.5 26t49.5 63l159 202h76v-62l-220 -271v-3l21.5 -32t55 -76.5t75 -93t79.5 -80.5v-62h-82q-36 32 -77.5 82.5t-76.5 97.5t-58 81.5l-23 34.5h-62zM228 -212l6.5 14.5t13.5 39t13.5 58.5t6.5 72h103v-43
q-17 -73 -40 -107l-23 -34h-80z" />
    <glyph glyph-name="uni0137" unicode="&#x137;" horiz-adv-x="525" 
d="M80 0v740h100v-328q0 -34 -0.5 -65.5l-0.5 -31.5h64l7 8.5t17.5 20t22.5 25t21 23.5l110 121h71v-60l-167 -177v-4l15 -23.5t40 -56.5t57 -69t65 -61v-62h-77q-32 26 -64.5 64.5t-58 74.5t-42 61.5l-16.5 25.5h-64v-226h-100zM194 -212l6.5 14.5t13.5 39t13.5 58.5
t6.5 72h103v-43q-17 -73 -40 -107l-23 -34h-80z" />
    <glyph glyph-name="kgreenlandic" unicode="&#x138;" horiz-adv-x="529" 
d="M80 0v513h100v-107q0 -34 -0.5 -65l-0.5 -31h57l22 25.5t41 44.5l123 133h71v-60l-174 -183v-3l16.5 -22.5t43 -54t60 -67t66.5 -61.5v-62h-78q-32 26 -66 63.5t-62 72t-46 59l-18 24.5h-55v-219h-100z" />
    <glyph glyph-name="Lacute" unicode="&#x139;" horiz-adv-x="483" 
d="M291 896v-72l-200 -99v78l137 93h63zM85 0v680h103v-587h283l-15 -93h-371z" />
    <glyph glyph-name="lacute" unicode="&#x13a;" horiz-adv-x="261" 
d="M278 956v-72l-200 -99v78l137 93h63zM226 0h-80l-10.5 4.5t-23.5 16.5t-23.5 34.5t-10.5 58.5v626h100v-611q0 -24 10 -34t29 -10h9v-85z" />
    <glyph glyph-name="uni013B" unicode="&#x13b;" horiz-adv-x="483" 
d="M85 0v680h103v-587h283l-15 -93h-371zM185 -212l6.5 14.5t13.5 39t13.5 58.5t6.5 72h103v-43q-17 -73 -40 -107l-23 -34h-80z" />
    <glyph glyph-name="uni013C" unicode="&#x13c;" horiz-adv-x="261" 
d="M226 0h-80l-10.5 4.5t-23.5 16.5t-23.5 34.5t-10.5 58.5v626h100v-611q0 -24 10 -34t29 -10h9v-85zM82 -212l6.5 14.5t13.5 39t13.5 58.5t6.5 72h103v-43q-17 -73 -40 -107l-23 -34h-80z" />
    <glyph glyph-name="Lcaron" unicode="&#x13d;" horiz-adv-x="483" 
d="M85 0v680h103v-587h283l-15 -93h-371zM300 490l4.5 15.5t9.5 41.5t9.5 60.5t4.5 72.5h101v-47q-14 -68 -30.5 -105.5l-16.5 -37.5h-82z" />
    <glyph glyph-name="lcaron" unicode="&#x13e;" horiz-adv-x="362" 
d="M226 0h-80l-10.5 4.5t-23.5 16.5t-23.5 34.5t-10.5 58.5v626h100v-611q0 -24 10 -34t29 -10h9v-85zM238 550l4.5 15.5t9.5 41.5t9.5 60.5t4.5 72.5h101v-47q-14 -68 -30.5 -105.5l-16.5 -37.5h-82z" />
    <glyph glyph-name="Ldot" unicode="&#x13f;" horiz-adv-x="510" 
d="M85 0v680h103v-587h283l-15 -93h-371zM352 345q0 28 17 44.5t49 16.5q31 0 48 -16.5t17 -44.5v-8q0 -28 -17 -45t-48 -17q-32 0 -49 17t-17 45v8z" />
    <glyph glyph-name="ldot" unicode="&#x140;" horiz-adv-x="365" 
d="M226 0h-80l-10.5 4.5t-23.5 16.5t-23.5 34.5t-10.5 58.5v626h100v-611q0 -24 10 -34t29 -10h9v-85zM246 344q0 28 17 44.5t49 16.5q31 0 48 -16.5t17 -44.5v-8q0 -28 -17 -45t-48 -17q-32 0 -49 17t-17 45v8z" />
    <glyph glyph-name="Lslash" unicode="&#x141;" horiz-adv-x="497" 
d="M99 0v291l-43 -22h-50v67l93 48v296h103v-243l70 36h51v-66l-121 -63v-251h283l-15 -93h-371z" />
    <glyph glyph-name="lslash" unicode="&#x142;" horiz-adv-x="272" 
d="M232 0h-80l-10.5 4.5t-23.5 16.5t-23.5 34.5t-10.5 58.5v205l-32 -20h-50v59l82 51v331h100v-269l32 20h50v-58l-82 -51v-253q0 -24 10 -34t29 -10h9v-85z" />
    <glyph glyph-name="Nacute" unicode="&#x143;" horiz-adv-x="649" 
d="M457 896v-72l-200 -99v78l137 93h63zM85 0v680h110l215 -367q7 -12 16.5 -30.5t18.5 -36t15 -30.5l6 -13h2l-1 14.5t-1.5 36.5t-1.5 50t-1 55v321h101v-680h-101v45l-216 368q-11 19 -22 39.5t-20 36.5t-14.5 26.5l-5.5 10.5h-3l2 -38t2 -88v-400h-101z" />
    <glyph glyph-name="nacute" unicode="&#x144;" horiz-adv-x="567" 
d="M316 740h84v-50l-82 -118h-84zM80 0v513h83l13 -57h3l10.5 10t30.5 22.5t50.5 22.5t70.5 10q70 0 110.5 -38t40.5 -116v-367h-100v355q0 39 -21 59.5t-68 20.5q-26 0 -49 -8t-39 -17.5t-25.5 -17.5l-9.5 -8v-384h-100z" />
    <glyph glyph-name="uni0145" unicode="&#x145;" horiz-adv-x="649" 
d="M85 0v680h110l215 -367q7 -12 16.5 -30.5t18.5 -36t15 -30.5l6 -13h2l-1 14.5t-1.5 36.5t-1.5 50t-1 55v321h101v-680h-101v45l-216 368q-11 19 -22 39.5t-20 36.5t-14.5 26.5l-5.5 10.5h-3l2 -38t2 -88v-400h-101zM242 -212l6.5 14.5t13.5 39t13.5 58.5t6.5 72h103v-43
q-17 -73 -40 -107l-23 -34h-80z" />
    <glyph glyph-name="uni0146" unicode="&#x146;" horiz-adv-x="567" 
d="M80 0v513h83l13 -57h3l10.5 10t30.5 22.5t50.5 22.5t70.5 10q70 0 110.5 -38t40.5 -116v-367h-100v355q0 39 -21 59.5t-68 20.5q-26 0 -49 -8t-39 -17.5t-25.5 -17.5l-9.5 -8v-384h-100zM200 -212l6.5 14.5t13.5 39t13.5 58.5t6.5 72h103v-43q-17 -73 -40 -107l-23 -34
h-80z" />
    <glyph glyph-name="Ncaron" unicode="&#x147;" horiz-adv-x="649" 
d="M197 868h63l35 -32l22.5 -22.5l9.5 -9.5h5l10 9.5t23 22.5l34 32h63v-43l-97 -88h-71l-97 88v43zM85 0v680h110l215 -367q7 -12 16.5 -30.5t18.5 -36t15 -30.5l6 -13h2l-1 14.5t-1.5 36.5t-1.5 50t-1 55v321h101v-680h-101v45l-216 368q-11 19 -22 39.5t-20 36.5
t-14.5 26.5l-5.5 10.5h-3l2 -38t2 -88v-400h-101z" />
    <glyph glyph-name="ncaron" unicode="&#x148;" horiz-adv-x="567" 
d="M425 740v-44l-101 -125h-82l-101 125v44h63l43 -57q14 -17 24 -31l10 -14h4l10 14t24 31l43 57h63zM80 0v513h83l13 -57h3l10.5 10t30.5 22.5t50.5 22.5t70.5 10q70 0 110.5 -38t40.5 -116v-367h-100v355q0 39 -21 59.5t-68 20.5q-26 0 -49 -8t-39 -17.5t-25.5 -17.5
l-9.5 -8v-384h-100z" />
    <glyph glyph-name="napostrophe" unicode="&#x149;" horiz-adv-x="567" 
d="M80 560l4.5 15.5t9.5 41.5t9.5 60.5t4.5 72.5h101v-47q-14 -68 -30.5 -105.5l-16.5 -37.5h-82zM80 0v513h83l13 -57h3l10.5 10t30.5 22.5t50.5 22.5t70.5 10q70 0 110.5 -38t40.5 -116v-367h-100v355q0 39 -21 59.5t-68 20.5q-26 0 -49 -8t-39 -17.5t-25.5 -17.5l-9.5 -8
v-384h-100z" />
    <glyph glyph-name="Eng" unicode="&#x14a;" horiz-adv-x="649" 
d="M85 0v680h110l215 -367q7 -12 16.5 -30.5t18.5 -36t15 -30.5l6 -13h2l-1 14.5t-1.5 36.5t-1.5 50t-1 55v321h101v-691q0 -51 -14 -82.5t-31 -49.5t-31 -24l-14 -6h-79v85h4q28 0 46 16.5t18 60.5v56l-216 368q-11 19 -22 39.5t-20 36.5t-14.5 26.5l-5.5 10.5h-3l2 -38
t2 -88v-400h-101z" />
    <glyph glyph-name="eng" unicode="&#x14b;" horiz-adv-x="567" 
d="M80 0v513h83l13 -57h3l10.5 10t30.5 22.5t50.5 22.5t70.5 10q70 0 110.5 -38t40.5 -116v-379q0 -50 -14 -82t-31 -49.5t-31 -23.5l-14 -6h-78v85h4q28 0 46 16.5t18 60.5v366q0 39 -21 59.5t-68 20.5q-26 0 -49 -8t-39 -17.5t-25.5 -17.5l-9.5 -8v-384h-100z" />
    <glyph glyph-name="Omacron" unicode="&#x14c;" horiz-adv-x="628" 
d="M169 860h288v-79h-288v79zM60 262v156q0 133 64 202.5t190 69.5q125 0 189.5 -69.5t64.5 -202.5v-156q0 -132 -64 -202t-190 -70q-125 0 -189.5 69.5t-64.5 202.5zM164 253q0 -91 37.5 -131t112.5 -40t112.5 40t37.5 131v174q0 91 -37.5 131t-112.5 40t-112.5 -40
t-37.5 -131v-174z" />
    <glyph glyph-name="omacron" unicode="&#x14d;" horiz-adv-x="544" 
d="M127 693h288v-79h-288v79zM50 242v28q0 118 56 184.5t166 66.5t166.5 -66.5t56.5 -184.5v-28q0 -117 -56.5 -183.5t-166.5 -66.5t-166 66.5t-56 183.5zM152 248q0 -90 28.5 -129.5t91.5 -39.5t92 39.5t29 129.5v17q0 90 -29 129.5t-92 39.5t-91.5 -39.5t-28.5 -129.5v-17
z" />
    <glyph glyph-name="Obreve" unicode="&#x14e;" horiz-adv-x="628" 
d="M175 880h69l1.5 -10t8 -21.5t20.5 -21.5t40 -10t40 10t20.5 21.5t8 21.5l1.5 10h68v-54l-6 -12.5t-21.5 -28t-42.5 -28t-68 -12.5t-68 12.5t-42.5 28t-22 28l-6.5 12.5v54zM60 262v156q0 133 64 202.5t190 69.5q125 0 189.5 -69.5t64.5 -202.5v-156q0 -132 -64 -202
t-190 -70q-125 0 -189.5 69.5t-64.5 202.5zM164 253q0 -91 37.5 -131t112.5 -40t112.5 40t37.5 131v174q0 91 -37.5 131t-112.5 40t-112.5 -40t-37.5 -131v-174z" />
    <glyph glyph-name="obreve" unicode="&#x14f;" horiz-adv-x="544" 
d="M133 713h69l1.5 -10t8 -21.5t20.5 -21.5t40 -10t40 10t20.5 21.5t8 21.5l1.5 10h68v-54l-6 -12.5t-21.5 -28t-42.5 -28t-68 -12.5t-68 12.5t-42.5 28t-22 28l-6.5 12.5v54zM50 242v28q0 118 56 184.5t166 66.5t166.5 -66.5t56.5 -184.5v-28q0 -117 -56.5 -183.5
t-166.5 -66.5t-166 66.5t-56 183.5zM152 248q0 -90 28.5 -129.5t91.5 -39.5t92 39.5t29 129.5v17q0 90 -29 129.5t-92 39.5t-91.5 -39.5t-28.5 -129.5v-17z" />
    <glyph glyph-name="Ohungarumlaut" unicode="&#x150;" horiz-adv-x="628" 
d="M356 830l-74 -91h-83l82 144h75v-53zM512 830l-74 -91h-83l82 144h75v-53zM60 262v156q0 133 64 202.5t190 69.5q125 0 189.5 -69.5t64.5 -202.5v-156q0 -132 -64 -202t-190 -70q-125 0 -189.5 69.5t-64.5 202.5zM164 253q0 -91 37.5 -131t112.5 -40t112.5 40t37.5 131
v174q0 91 -37.5 131t-112.5 40t-112.5 -40t-37.5 -131v-174z" />
    <glyph glyph-name="ohungarumlaut" unicode="&#x151;" horiz-adv-x="544" 
d="M310 663l-74 -91h-83l82 144h75v-53zM466 663l-74 -91h-83l82 144h75v-53zM50 242v28q0 118 56 184.5t166 66.5t166.5 -66.5t56.5 -184.5v-28q0 -117 -56.5 -183.5t-166.5 -66.5t-166 66.5t-56 183.5zM152 248q0 -90 28.5 -129.5t91.5 -39.5t92 39.5t29 129.5v17
q0 90 -29 129.5t-92 39.5t-91.5 -39.5t-28.5 -129.5v-17z" />
    <glyph glyph-name="OE" unicode="&#x152;" horiz-adv-x="911" 
d="M60 265v150q0 134 64 204.5t183 70.5q50 0 89.5 -13.5t67.5 -38.5v42h406l-15 -94h-288v-197h257v-94h-257v-201h293v-94h-396v42q-28 -25 -67.5 -38.5t-89.5 -13.5q-119 0 -183 70.5t-64 204.5zM164 253q0 -91 37.5 -131t112.5 -40t112.5 40t37.5 131v174
q0 91 -37.5 131t-112.5 40t-112.5 -40t-37.5 -131v-174z" />
    <glyph glyph-name="oe" unicode="&#x153;" horiz-adv-x="863" 
d="M50 242v28q0 118 56 184.5t166 66.5q57 0 100.5 -18.5t71.5 -53.5q28 36 69 54t92 18q44 0 82.5 -11t66.5 -37t44 -68.5t16 -105.5q0 -30 -2.5 -54l-2.5 -24h-314q-1 -2 -1 -4.5v-3.5q1 -60 29 -96.5t94 -37.5q28 0 47 4.5t31 10.5t17 11l5 5h78v-80l-12 -6t-34.5 -13
t-56 -13t-76.5 -6q-57 0 -101 18t-72 54q-28 -35 -71 -53.5t-100 -18.5q-110 0 -166 66.5t-56 183.5zM494 301v-1v-3h218l0.5 7t0.5 16q0 61 -27.5 89.5t-80.5 28.5q-48 0 -79.5 -31.5t-31.5 -105.5zM152 248q0 -90 28.5 -129.5t91.5 -39.5t92 39.5t29 129.5v17
q0 90 -29 129.5t-92 39.5t-91.5 -39.5t-28.5 -129.5v-17z" />
    <glyph glyph-name="Racute" unicode="&#x154;" horiz-adv-x="591" 
d="M407 896v-72l-200 -99v78l137 93h63zM85 0v680h240q107 0 164 -49t57 -146q0 -58 -22.5 -96.5t-49.5 -61t-49.5 -31.5l-22.5 -9l11 -22t31 -55.5t47.5 -73t59.5 -74.5v-62h-79q-35 38 -67.5 86.5t-56.5 91t-38 71.5l-14 29h-108v-278h-103zM188 371h170l13 4t29 15.5
t29 33.5t13 58q0 49 -27.5 77t-83.5 28h-143v-216z" />
    <glyph glyph-name="racute" unicode="&#x155;" horiz-adv-x="357" 
d="M232 740h84v-50l-82 -118h-84zM80 513h83l14 -66h4q3 5 11.5 16t24.5 22t41 19.5t60 8.5h14v-96h-43q-29 0 -49 -7.5t-33 -17t-19.5 -19t-7.5 -12.5v-361h-100v513z" />
    <glyph glyph-name="uni0156" unicode="&#x156;" horiz-adv-x="591" 
d="M85 0v680h240q107 0 164 -49t57 -146q0 -58 -22.5 -96.5t-49.5 -61t-49.5 -31.5l-22.5 -9l11 -22t31 -55.5t47.5 -73t59.5 -74.5v-62h-79q-35 38 -67.5 86.5t-56.5 91t-38 71.5l-14 29h-108v-278h-103zM188 371h170l13 4t29 15.5t29 33.5t13 58q0 49 -27.5 77t-83.5 28
h-143v-216zM224 -212l6.5 14.5t13.5 39t13.5 58.5t6.5 72h103v-43q-17 -73 -40 -107l-23 -34h-80z" />
    <glyph glyph-name="uni0157" unicode="&#x157;" horiz-adv-x="357" 
d="M80 513h83l14 -66h4q3 5 11.5 16t24.5 22t41 19.5t60 8.5h14v-96h-43q-29 0 -49 -7.5t-33 -17t-19.5 -19t-7.5 -12.5v-361h-100v513zM39 -212l6.5 14.5t13.5 39t13.5 58.5t6.5 72h103v-43q-17 -73 -40 -107l-23 -34h-80z" />
    <glyph glyph-name="Rcaron" unicode="&#x158;" horiz-adv-x="591" 
d="M145 868h63l35 -32l22.5 -22.5l9.5 -9.5h5l10 9.5t23 22.5l34 32h63v-43l-97 -88h-71l-97 88v43zM85 0v680h240q107 0 164 -49t57 -146q0 -58 -22.5 -96.5t-49.5 -61t-49.5 -31.5l-22.5 -9l11 -22t31 -55.5t47.5 -73t59.5 -74.5v-62h-79q-35 38 -67.5 86.5t-56.5 91
t-38 71.5l-14 29h-108v-278h-103zM188 371h170l13 4t29 15.5t29 33.5t13 58q0 49 -27.5 77t-83.5 28h-143v-216z" />
    <glyph glyph-name="rcaron" unicode="&#x159;" horiz-adv-x="357" 
d="M347 740v-44l-101 -125h-82l-101 125v44h63l43 -57q14 -17 24 -31l10 -14h4l10 14t24 31l43 57h63zM80 513h83l14 -66h4q3 5 11.5 16t24.5 22t41 19.5t60 8.5h14v-96h-43q-29 0 -49 -7.5t-33 -17t-19.5 -19t-7.5 -12.5v-361h-100v513z" />
    <glyph glyph-name="Sacute" unicode="&#x15a;" horiz-adv-x="525" 
d="M400 896v-72l-200 -99v78l137 93h63zM47 34v87h79l5 -6t18.5 -13t37 -13t60.5 -6q72 0 101.5 28t29.5 71q0 42 -24 66.5t-73 40.5l-63 22q-95 32 -129 79t-34 112q0 89 60.5 137t164.5 48q43 0 77 -6.5t58 -14t37 -14l13 -6.5v-88h-81l-5 6t-17 13.5t-33 13.5t-53 6
q-61 0 -89.5 -25.5t-28.5 -66.5q0 -38 22.5 -60t73.5 -39l63 -22q93 -33 127.5 -78.5t35.5 -115.5q1 -93 -58.5 -145t-174.5 -52q-46 0 -83.5 6.5t-63 14t-39.5 14z" />
    <glyph glyph-name="sacute" unicode="&#x15b;" horiz-adv-x="448" 
d="M258 740h84v-50l-82 -118h-84zM48 106h74l19 -14.5t70 -14.5q49 0 70 18t21 47q0 28 -19 43.5t-62 25.5l-27 7q-78 19 -108 56t-30 96q0 63 44 106.5t140 43.5q69 0 108.5 -15l39.5 -15v-82h-74l-15.5 14t-63.5 14q-51 0 -66.5 -21t-15.5 -41q0 -30 16 -44.5t57 -24.5
l27 -6q77 -19 112 -54t35 -98q0 -75 -48.5 -114.5t-147.5 -39.5q-72 0 -114 15.5l-42 15.5v82z" />
    <glyph glyph-name="Scircumflex" unicode="&#x15c;" horiz-adv-x="525" 
d="M140 737v43l97 88h71l97 -88v-43h-63l-34 32q-13 13 -23 22.5l-10 9.5h-5l-9.5 -9.5l-22.5 -22.5l-35 -32h-63zM47 34v87h79l5 -6t18.5 -13t37 -13t60.5 -6q72 0 101.5 28t29.5 71q0 42 -24 66.5t-73 40.5l-63 22q-95 32 -129 79t-34 112q0 89 60.5 137t164.5 48
q43 0 77 -6.5t58 -14t37 -14l13 -6.5v-88h-81l-5 6t-17 13.5t-33 13.5t-53 6q-61 0 -89.5 -25.5t-28.5 -66.5q0 -38 22.5 -60t73.5 -39l63 -22q93 -33 127.5 -78.5t35.5 -115.5q1 -93 -58.5 -145t-174.5 -52q-46 0 -83.5 6.5t-63 14t-39.5 14z" />
    <glyph glyph-name="scircumflex" unicode="&#x15d;" horiz-adv-x="448" 
d="M81 571v44l101 125h82l101 -125v-44h-63l-43 57q-14 17 -24 31l-10 14h-4l-10 -14t-24 -31l-43 -57h-63zM48 106h74l19 -14.5t70 -14.5q49 0 70 18t21 47q0 28 -19 43.5t-62 25.5l-27 7q-78 19 -108 56t-30 96q0 63 44 106.5t140 43.5q69 0 108.5 -15l39.5 -15v-82h-74
l-15.5 14t-63.5 14q-51 0 -66.5 -21t-15.5 -41q0 -30 16 -44.5t57 -24.5l27 -6q77 -19 112 -54t35 -98q0 -75 -48.5 -114.5t-147.5 -39.5q-72 0 -114 15.5l-42 15.5v82z" />
    <glyph glyph-name="Scedilla" unicode="&#x15e;" horiz-adv-x="525" 
d="M47 34v87h79l5 -6t18.5 -13t37 -13t60.5 -6q72 0 101.5 28t29.5 71q0 42 -24 66.5t-73 40.5l-63 22q-95 32 -129 79t-34 112q0 89 60.5 137t164.5 48q43 0 77 -6.5t58 -14t37 -14l13 -6.5v-88h-81l-5 6t-17 13.5t-33 13.5t-53 6q-61 0 -89.5 -25.5t-28.5 -66.5
q0 -38 22.5 -60t73.5 -39l63 -22q93 -33 127.5 -78.5t35.5 -115.5q1 -78 -41.5 -128t-124.5 -64q0 -36 -8.5 -64.5t-18.5 -48t-18.5 -29.5l-8.5 -10h-73v53l6 6.5t12.5 18t12.5 29.5t6 40q-41 2 -74 8.5t-56 14t-35 13z" />
    <glyph glyph-name="scedilla" unicode="&#x15f;" horiz-adv-x="448" 
d="M48 106h74l19 -14.5t70 -14.5q49 0 70 18t21 47q0 28 -19 43.5t-62 25.5l-27 7q-78 19 -108 56t-30 96q0 63 44 106.5t140 43.5q69 0 108.5 -15l39.5 -15v-82h-74l-15.5 14t-63.5 14q-51 0 -66.5 -21t-15.5 -41q0 -30 16 -44.5t57 -24.5l27 -6q77 -19 112 -54t35 -98
q0 -57 -29 -94t-86 -51v-2q0 -37 -8.5 -65.5t-18.5 -48t-18.5 -30l-8.5 -10.5h-73v53l6 6.5t12.5 18t12.5 29.5t6 40q-68 1 -107.5 16l-39.5 15v82z" />
    <glyph glyph-name="Scaron" unicode="&#x160;" horiz-adv-x="525" 
d="M140 868h63l35 -32l22.5 -22.5l9.5 -9.5h5l10 9.5t23 22.5l34 32h63v-43l-97 -88h-71l-97 88v43zM47 34v87h79l5 -6t18.5 -13t37 -13t60.5 -6q72 0 101.5 28t29.5 71q0 42 -24 66.5t-73 40.5l-63 22q-95 32 -129 79t-34 112q0 89 60.5 137t164.5 48q43 0 77 -6.5t58 -14
t37 -14l13 -6.5v-88h-81l-5 6t-17 13.5t-33 13.5t-53 6q-61 0 -89.5 -25.5t-28.5 -66.5q0 -38 22.5 -60t73.5 -39l63 -22q93 -33 127.5 -78.5t35.5 -115.5q1 -93 -58.5 -145t-174.5 -52q-46 0 -83.5 6.5t-63 14t-39.5 14z" />
    <glyph glyph-name="scaron" unicode="&#x161;" horiz-adv-x="448" 
d="M365 740v-44l-101 -125h-82l-101 125v44h63l43 -57q14 -17 24 -31l10 -14h4l10 14t24 31l43 57h63zM48 106h74l19 -14.5t70 -14.5q49 0 70 18t21 47q0 28 -19 43.5t-62 25.5l-27 7q-78 19 -108 56t-30 96q0 63 44 106.5t140 43.5q69 0 108.5 -15l39.5 -15v-82h-74
l-15.5 14t-63.5 14q-51 0 -66.5 -21t-15.5 -41q0 -30 16 -44.5t57 -24.5l27 -6q77 -19 112 -54t35 -98q0 -75 -48.5 -114.5t-147.5 -39.5q-72 0 -114 15.5l-42 15.5v82z" />
    <glyph glyph-name="uni0162" unicode="&#x162;" horiz-adv-x="471" 
d="M232 -154h-73v53l6 6.5t12.5 19t12.5 31.5t6 44h-13v587h-166v93h441l-15 -93h-157v-587q0 -37 -8.5 -65.5t-18.5 -48t-18.5 -30z" />
    <glyph glyph-name="uni0163" unicode="&#x163;" horiz-adv-x="317" 
d="M219 -154h-73v53l6 6.5t12.5 19t12.5 31.5t6 44v1q-6 2 -20 9.5t-28 23.5t-24.5 42.5t-10.5 65.5v284h-86v87h86v127h100v-127h86v-87h-86v-278q0 -32 14.5 -47.5t39.5 -15.5h19v-85q0 -37 -8.5 -65.5t-18.5 -48t-18.5 -30z" />
    <glyph glyph-name="Tcaron" unicode="&#x164;" horiz-adv-x="471" 
d="M100 868h63l35 -32l22.5 -22.5l9.5 -9.5h5l10 9.5t23 22.5l34 32h63v-43l-97 -88h-71l-97 88v43zM443 587h-157v-587h-103v587h-166v93h441z" />
    <glyph glyph-name="tcaron" unicode="&#x165;" horiz-adv-x="378" 
d="M264 550l4.5 15.5t9.5 41.5t9.5 60.5t4.5 72.5h101v-47q-14 -68 -30.5 -105.5l-16.5 -37.5h-82zM14 426v87h86v127h100v-127h86v-87h-86v-278q0 -32 14.5 -47.5t39.5 -15.5h19v-85h-86l-13.5 5t-30 20.5t-30 43.5t-13.5 73v284h-86z" />
    <glyph glyph-name="Tbar" unicode="&#x166;" horiz-adv-x="471" 
d="M85 379h98v208h-166v93h441l-15 -93h-157v-208h98v-79h-98v-300h-103v300h-98v79z" />
    <glyph glyph-name="tbar" unicode="&#x167;" horiz-adv-x="339" 
d="M25 327h86v99h-86v87h86v127h100v-127h86v-87h-86v-99h86v-79h-86v-100q0 -32 14.5 -47.5t39.5 -15.5h19v-85h-86l-13.5 5t-30 20.5t-30 43.5t-13.5 73v106h-86v79z" />
    <glyph glyph-name="Utilde" unicode="&#x168;" horiz-adv-x="644" 
d="M140 749v64l5.5 7t17 16t30.5 16t46 7q20 0 40.5 -4.5t36.5 -10.5l24 -8q13 -6 25.5 -9t26.5 -3q30 0 38.5 14l8.5 14h61v-63l-5.5 -7t-17 -16t-30.5 -16t-46 -7q-21 0 -41 4.5t-36 10.5l-24 8q-14 5 -26.5 8.5t-26.5 3.5q-30 0 -38.5 -14.5l-8.5 -14.5h-60zM77 225v455
h103v-453q0 -81 28.5 -112.5t101.5 -31.5q32 0 59.5 8t46.5 18t29.5 18l10.5 8v545h103v-680h-82l-13 60h-3l-13.5 -10.5t-37 -23.5t-56.5 -23.5t-72 -10.5q-107 0 -156 53t-49 180z" />
    <glyph glyph-name="utilde" unicode="&#x169;" 
d="M99 603v64l5.5 7t17 16t30.5 16t46 7q20 0 40.5 -4.5t36.5 -10.5l24 -8q13 -6 25.5 -9t26.5 -3q30 0 38.5 14l8.5 14h61v-63l-5.5 -7t-17 -16t-30.5 -16t-46 -7q-21 0 -41 4.5t-36 10.5l-24 8q-14 5 -26.5 8.5t-26.5 3.5q-30 0 -38.5 -14.5l-8.5 -14.5h-60zM75 513h100
v-355q0 -39 21.5 -59.5t68.5 -20.5q27 0 49 8t37 17.5t23.5 17.5l8.5 8v384h100v-513h-83l-14 56h-2l-10 -10t-29.5 -22t-50 -22t-70.5 -10q-69 0 -109 38t-40 115v368z" />
    <glyph glyph-name="Umacron" unicode="&#x16a;" horiz-adv-x="644" 
d="M175 860h288v-79h-288v79zM77 225v455h103v-453q0 -81 28.5 -112.5t101.5 -31.5q32 0 59.5 8t46.5 18t29.5 18l10.5 8v545h103v-680h-82l-13 60h-3l-13.5 -10.5t-37 -23.5t-56.5 -23.5t-72 -10.5q-107 0 -156 53t-49 180z" />
    <glyph glyph-name="umacron" unicode="&#x16b;" 
d="M134 693h288v-79h-288v79zM75 513h100v-355q0 -39 21.5 -59.5t68.5 -20.5q27 0 49 8t37 17.5t23.5 17.5l8.5 8v384h100v-513h-83l-14 56h-2l-10 -10t-29.5 -22t-50 -22t-70.5 -10q-69 0 -109 38t-40 115v368z" />
    <glyph glyph-name="Ubreve" unicode="&#x16c;" horiz-adv-x="644" 
d="M181 880h69l1.5 -10t8 -21.5t20.5 -21.5t40 -10t40 10t20.5 21.5t8 21.5l1.5 10h68v-54l-6 -12.5t-21.5 -28t-42.5 -28t-68 -12.5t-68 12.5t-42.5 28t-22 28l-6.5 12.5v54zM77 225v455h103v-453q0 -81 28.5 -112.5t101.5 -31.5q32 0 59.5 8t46.5 18t29.5 18l10.5 8v545
h103v-680h-82l-13 60h-3l-13.5 -10.5t-37 -23.5t-56.5 -23.5t-72 -10.5q-107 0 -156 53t-49 180z" />
    <glyph glyph-name="ubreve" unicode="&#x16d;" 
d="M140 713h69l1.5 -10t8 -21.5t20.5 -21.5t40 -10t40 10t20.5 21.5t8 21.5l1.5 10h68v-54l-6 -12.5t-21.5 -28t-42.5 -28t-68 -12.5t-68 12.5t-42.5 28t-22 28l-6.5 12.5v54zM75 513h100v-355q0 -39 21.5 -59.5t68.5 -20.5q27 0 49 8t37 17.5t23.5 17.5l8.5 8v384h100v-513
h-83l-14 56h-2l-10 -10t-29.5 -22t-50 -22t-70.5 -10q-69 0 -109 38t-40 115v368z" />
    <glyph glyph-name="Uring" unicode="&#x16e;" horiz-adv-x="644" 
d="M208 819q0 51 31 81t81 30t81 -30t31 -81t-31 -81t-81 -30t-81 30t-31 81zM274 819q0 -20 11.5 -33.5t34.5 -13.5t34.5 13.5t11.5 33.5t-11.5 33.5t-34.5 13.5t-34.5 -13.5t-11.5 -33.5zM77 225v455h103v-453q0 -81 28.5 -112.5t101.5 -31.5q32 0 59.5 8t46.5 18t29.5 18
l10.5 8v545h103v-680h-82l-13 60h-3l-13.5 -10.5t-37 -23.5t-56.5 -23.5t-72 -10.5q-107 0 -156 53t-49 180z" />
    <glyph glyph-name="uring" unicode="&#x16f;" 
d="M169 667q0 50 30.5 79.5t79.5 29.5t79.5 -29.5t30.5 -79.5q0 -49 -30.5 -78.5t-79.5 -29.5t-79.5 29.5t-30.5 78.5zM234 667q0 -19 11.5 -32.5t33.5 -13.5q23 0 34 13.5t11 32.5q0 20 -11 33.5t-34 13.5q-22 0 -33.5 -13.5t-11.5 -33.5zM75 513h100v-355
q0 -39 21.5 -59.5t68.5 -20.5q27 0 49 8t37 17.5t23.5 17.5l8.5 8v384h100v-513h-83l-14 56h-2l-10 -10t-29.5 -22t-50 -22t-70.5 -10q-69 0 -109 38t-40 115v368z" />
    <glyph glyph-name="Uhungarumlaut" unicode="&#x170;" horiz-adv-x="644" 
d="M353 830l-74 -91h-83l82 144h75v-53zM509 830l-74 -91h-83l82 144h75v-53zM77 225v455h103v-453q0 -81 28.5 -112.5t101.5 -31.5q32 0 59.5 8t46.5 18t29.5 18l10.5 8v545h103v-680h-82l-13 60h-3l-13.5 -10.5t-37 -23.5t-56.5 -23.5t-72 -10.5q-107 0 -156 53t-49 180z
" />
    <glyph glyph-name="uhungarumlaut" unicode="&#x171;" 
d="M287 663l-74 -91h-83l82 144h75v-53zM443 663l-74 -91h-83l82 144h75v-53zM75 513h100v-355q0 -39 21.5 -59.5t68.5 -20.5q27 0 49 8t37 17.5t23.5 17.5l8.5 8v384h100v-513h-83l-14 56h-2l-10 -10t-29.5 -22t-50 -22t-70.5 -10q-69 0 -109 38t-40 115v368z" />
    <glyph glyph-name="Uogonek" unicode="&#x172;" horiz-adv-x="644" 
d="M77 225v455h103v-453q0 -81 28.5 -112.5t101.5 -31.5q32 0 59.5 8t46.5 18t29.5 18l10.5 8v545h103v-680l-34 -33q-18 -16 -26.5 -27.5t-8.5 -24.5t10.5 -21.5t26.5 -8.5h18v-66h-31q-46 0 -73.5 23.5t-27.5 65.5q0 30 15.5 53.5t40.5 46.5l5 5l-10 47h-3l-13.5 -10.5
t-37 -23.5t-56.5 -23.5t-72 -10.5q-107 0 -156 53t-49 180z" />
    <glyph glyph-name="uogonek" unicode="&#x173;" 
d="M483 0l-34 -33q-18 -16 -26.5 -27.5t-8.5 -24.5t10.5 -21.5t26.5 -8.5h18v-66h-31q-46 0 -73.5 23.5t-27.5 65.5q0 30 15.5 53.5t40.5 46.5l4 4l-11 44h-2l-10 -10t-29.5 -22t-50 -22t-70.5 -10q-69 0 -109 38t-40 115v368h100v-355q0 -39 21.5 -59.5t68.5 -20.5
q27 0 49 8t37 17.5t23.5 17.5l8.5 8v384h100v-513z" />
    <glyph glyph-name="Wcircumflex" unicode="&#x174;" horiz-adv-x="897" 
d="M316 737v43l97 88h71l97 -88v-43h-63l-34 32q-13 13 -23 22.5l-10 9.5h-5l-9.5 -9.5l-22.5 -22.5l-35 -32h-63zM37 680h92l90 -420q6 -29 11 -59.5t9 -55t6 -40.5l2 -16h15l2 16t6 40.5t8.5 55.5t10.5 60l81 419h160l81 -419q6 -29 10.5 -60t8 -55.5t5.5 -40.5l2 -16h16
l2 16t6 40.5t9 55t11 59.5l90 420h89v-62l-134 -618h-162l-80 419q-6 30 -11 61t-8.5 55.5t-6 40l-2.5 15.5h-15l-2.5 -15.5t-6 -40t-8.5 -55.5t-11 -61l-80 -419h-161l-135 618v62z" />
    <glyph glyph-name="wcircumflex" unicode="&#x175;" horiz-adv-x="818" 
d="M267 571v44l101 125h82l101 -125v-44h-63l-43 57q-14 17 -24 31l-10 14h-4l-10 -14t-24 -31l-43 -57h-63zM161 0l-124 453v60h86l75 -291q5 -19 10 -43.5t9.5 -45.5t7 -35.5l2.5 -14.5h15l2.5 14.5t6 35.5t8.5 45t9 44l68 291h144l70 -291q5 -19 10 -43.5t9 -45.5
t6.5 -35.5l2.5 -14.5h16l2.5 14.5t6.5 35.5t9 45.5t10 43.5l76 291h83v-60l-124 -453h-145l-73 305q-6 22 -10.5 44.5t-7.5 40t-5 28.5l-2 11h-14l-1.5 -11.5t-4.5 -29t-7.5 -39.5t-9.5 -44l-71 -305h-145z" />
    <glyph glyph-name="Ycircumflex" unicode="&#x176;" horiz-adv-x="544" 
d="M141 737v43l97 88h71l97 -88v-43h-63l-34 32q-13 13 -23 22.5l-10 9.5h-5l-9.5 -9.5l-22.5 -22.5l-35 -32h-63zM144 75l74 10h1v178l-200 352v65h81l117 -214q22 -39 38 -72l16 -33h5l16 31.5t38 71.5l119 216h76v-65l-203 -352v-178l74 -10v-75h-252v75z" />
    <glyph glyph-name="ycircumflex" unicode="&#x177;" horiz-adv-x="506" 
d="M112 571v44l101 125h82l101 -125v-44h-63l-43 57q-14 17 -24 31l-10 14h-4l-10 -14t-24 -31l-43 -57h-63zM113 -88h26q29 0 46 12.5t27 46.5l15 52h-47l-147 430v60h87l93 -281q6 -19 12 -40t10.5 -39t7.5 -29.5l3 -11.5h17l3 11.5t7.5 29.5t10.5 39t12 40l93 281h83v-61
l-147 -429l-22 -71q-12 -42 -29 -67t-32 -37.5t-25.5 -16.5l-10.5 -4h-93v85z" />
    <glyph glyph-name="Ydieresis" unicode="&#x178;" horiz-adv-x="544" 
d="M136 805q0 25 14.5 40t44.5 15q31 0 45 -15.5t14 -39.5v-8q0 -25 -14.5 -40t-44.5 -15q-31 0 -45 16t-14 39v8zM291 805q0 25 15 40t44 15q31 0 45 -15.5t14 -39.5v-8q0 -25 -14.5 -40t-44.5 -15t-44.5 16t-14.5 39v8zM144 75l74 10h1v178l-200 352v65h81l117 -214
q22 -39 38 -72l16 -33h5l16 31.5t38 71.5l119 216h76v-65l-203 -352v-178l74 -10v-75h-252v75z" />
    <glyph glyph-name="Zacute" unicode="&#x179;" horiz-adv-x="534" 
d="M392 896v-72l-200 -99v78l137 93h63zM42 0v101l246 367l30 42t26.5 38t19 27.5l7.5 10.5v3l-10 -0.5t-25 -1t-33 -1t-34 -0.5h-220v94h437v-101l-246 -367q-32 -46 -58 -81.5l-26 -35.5v-3l10 0.5t24.5 0.5t32 0.5t32.5 0.5h237v-94h-450z" />
    <glyph glyph-name="zacute" unicode="&#x17a;" horiz-adv-x="482" 
d="M265 740h84v-50l-82 -118h-84zM50 0v100l191 238q23 28 46.5 56.5l23.5 28.5v3l-31 -1t-65 -1h-157v89h366v-100l-192 -239q-23 -28 -46.5 -56.5l-23.5 -28.5v-2l28 1t60 1h182v-89h-382z" />
    <glyph glyph-name="Zdotaccent" unicode="&#x17b;" horiz-adv-x="534" 
d="M201 807q0 26 15.5 42t46.5 16q30 0 45.5 -16t15.5 -42v-8q0 -26 -15.5 -41.5t-45.5 -15.5q-31 0 -46.5 15.5t-15.5 41.5v8zM42 0v101l246 367l30 42t26.5 38t19 27.5l7.5 10.5v3l-10 -0.5t-25 -1t-33 -1t-34 -0.5h-220v94h437v-101l-246 -367q-32 -46 -58 -81.5
l-26 -35.5v-3l10 0.5t24.5 0.5t32 0.5t32.5 0.5h237v-94h-450z" />
    <glyph glyph-name="zdotaccent" unicode="&#x17c;" horiz-adv-x="482" 
d="M170 640q0 26 15.5 42t46.5 16q30 0 45.5 -16t15.5 -42v-8q0 -26 -15.5 -41.5t-45.5 -15.5q-31 0 -46.5 15.5t-15.5 41.5v8zM50 0v100l191 238q23 28 46.5 56.5l23.5 28.5v3l-31 -1t-65 -1h-157v89h366v-100l-192 -239q-23 -28 -46.5 -56.5l-23.5 -28.5v-2l28 1t60 1h182
v-89h-382z" />
    <glyph glyph-name="Zcaron" unicode="&#x17d;" horiz-adv-x="534" 
d="M131 868h63l35 -32l22.5 -22.5l9.5 -9.5h5l10 9.5t23 22.5l34 32h63v-43l-97 -88h-71l-97 88v43zM42 0v101l246 367l30 42t26.5 38t19 27.5l7.5 10.5v3l-10 -0.5t-25 -1t-33 -1t-34 -0.5h-220v94h437v-101l-246 -367q-32 -46 -58 -81.5l-26 -35.5v-3l10 0.5t24.5 0.5
t32 0.5t32.5 0.5h237v-94h-450z" />
    <glyph glyph-name="zcaron" unicode="&#x17e;" horiz-adv-x="482" 
d="M374 740v-44l-101 -125h-82l-101 125v44h63l43 -57q14 -17 24 -31l10 -14h4l10 14t24 31l43 57h63zM50 0v100l191 238q23 28 46.5 56.5l23.5 28.5v3l-31 -1t-65 -1h-157v89h366v-100l-192 -239q-23 -28 -46.5 -56.5l-23.5 -28.5v-2l28 1t60 1h182v-89h-382z" />
    <glyph glyph-name="uni018F" unicode="&#x18f;" horiz-adv-x="593" 
d="M70 389h359v39q0 91 -36.5 130.5t-111.5 39.5q-57 0 -90 -13.5l-33 -13.5h-79l1 75l16.5 7t44.5 15t65 15t78 7q126 0 187.5 -69t61.5 -202v-157q0 -130 -56 -201t-180 -71q-125 0 -180.5 70t-55.5 201q0 22 1.5 44.5t3 41t3 30.5zM297 82q75 0 103.5 41.5t28.5 129.5v42
h-263l-0.5 -13.5t-0.5 -29.5q0 -88 28.5 -129t103.5 -41z" />
    <glyph glyph-name="florin" unicode="&#x192;" horiz-adv-x="419" 
d="M69 432h101l32 150q11 53 31 84.5t39 48t33 21l14 4.5h89v-85h-24q-33 0 -54 -19.5t-31 -64.5l-29 -139h87v-83h-105l-69 -327q-14 -65 -35 -103.5t-40 -59t-33 -26.5l-14 -6h-83v84h13q28 0 52.5 21.5t40.5 96.5l68 320h-83v83z" />
    <glyph glyph-name="uni019D" unicode="&#x19d;" horiz-adv-x="649" 
d="M182 526l2 -38t2 -88v-411q0 -51 -14 -82.5t-31 -49.5t-31 -24l-14 -6h-79v85h4q28 0 46 16.5t18 60.5v691h110l215 -367q7 -12 16.5 -30.5t18.5 -36t15 -30.5l6 -13h2l-1 14.5t-1.5 36.5t-1.5 50t-1 55v321h101v-680h-101v45l-216 368q-11 19 -22 39.5t-20 36.5
t-14.5 26.5l-5.5 10.5h-3z" />
    <glyph glyph-name="Gcaron" unicode="&#x1e6;" horiz-adv-x="599" 
d="M171 868h63l35 -32l22.5 -22.5l9.5 -9.5h5l10 9.5t23 22.5l34 32h63v-43l-97 -88h-71l-97 88v43zM60 257v162q0 136 64.5 203t186.5 67q59 0 98.5 -15t63.5 -33.5t34.5 -33.5l10.5 -15v-78h-86q-2 12 -10 26.5t-22.5 27t-37 20.5t-53.5 8q-75 0 -110 -42t-35 -126v-182
q0 -85 33.5 -126.5t107.5 -41.5q29 0 51.5 7.5t38 16.5t24 16.5l8.5 7.5v171h-129v92h227v-389h-78l-13 50h-2l-10 -9t-29 -20.5t-47.5 -20.5t-65.5 -9q-109 0 -164.5 67t-55.5 199z" />
    <glyph glyph-name="gcaron" unicode="&#x1e7;" horiz-adv-x="537" 
d="M398 740v-44l-101 -125h-82l-101 125v44h63l43 -57q14 -17 24 -31l10 -14h4l10 14t24 31l43 57h63zM48 -59q0 26 9.5 46.5t21.5 34.5t21.5 21.5l9.5 7.5v2l-6 4.5t-12.5 13t-12.5 22.5t-6 33q0 21 6 37.5t13.5 28t14 18l6.5 6.5v1l-8.5 8t-18 24.5t-18 41t-8.5 57.5v5
q0 69 45 116t151 47q57 0 90 -9.5l33 -9.5h1q4 28 16.5 46t25.5 28.5t23 14.5l10 4h77v-84h-22q-28 0 -39.5 -15.5t-11.5 -41.5v-101q-1 -73 -47 -119t-152 -46h-86l-8 -11t-8 -27t8 -26.5t28 -10.5h163q71 0 108 -35t37 -97q0 -74 -52 -115.5t-178 -41.5h-24
q-64 0 -103.5 10t-61 26.5t-28.5 38.5t-7 47zM155 343q0 -20 5 -34.5t11 -23.5t11 -13.5l5 -4.5h68q58 -1 83.5 21t25.5 66v60l-27 8.5t-79 8.5q-58 0 -80.5 -22t-22.5 -63v-3zM142 -42q1 -29 23.5 -44t83.5 -15h31q41 0 66 5t39 14t18.5 21.5t4.5 27.5q0 21 -13 38t-47 17
h-178l-14 -15.5t-14 -48.5z" />
    <glyph glyph-name="uni01EA" unicode="&#x1ea;" horiz-adv-x="628" 
d="M60 262v156q0 133 64 202.5t190 69.5q125 0 189.5 -69.5t64.5 -202.5v-156q0 -107 -42 -174t-126 -88l-34 -33q-18 -16 -26.5 -27.5t-8.5 -24.5t10.5 -21.5t26.5 -8.5h18v-66h-31q-46 0 -73.5 23.5t-27.5 65.5q0 24 10.5 44t27.5 39q-114 5 -173 74.5t-59 196.5zM164 253
q0 -91 37.5 -131t112.5 -40t112.5 40t37.5 131v174q0 91 -37.5 131t-112.5 40t-112.5 -40t-37.5 -131v-174z" />
    <glyph glyph-name="uni01EB" unicode="&#x1eb;" horiz-adv-x="544" 
d="M50 242v28q0 118 56 184.5t166 66.5t166.5 -66.5t56.5 -184.5v-28q0 -97 -39 -160t-114 -82l-34 -33q-18 -16 -26.5 -27.5t-8.5 -24.5t10.5 -21.5t26.5 -8.5h18v-66h-31q-46 0 -73.5 23.5t-27.5 65.5q0 25 11.5 46t30.5 40q-93 10 -140.5 75.5t-47.5 172.5zM152 248
q0 -90 28.5 -129.5t91.5 -39.5t92 39.5t29 129.5v17q0 90 -29 129.5t-92 39.5t-91.5 -39.5t-28.5 -129.5v-17z" />
    <glyph glyph-name="Aringacute" unicode="&#x1fa;" horiz-adv-x="595" 
d="M403 1005v-72l-200 -99v78l137 93h63zM33 0v61l172 603q-10 13 -15 31t-5 38q0 51 31 81t81 30t81 -30t31 -81q0 -20 -5 -37.5t-15 -30.5l173 -604v-61h-92l-44 160q-32 -7 -64.5 -11t-66.5 -4q-33 0 -65 3.5t-63 10.5l-44 -159h-90zM251 733q0 -20 11.5 -33.5
t34.5 -13.5t34.5 13.5t11.5 33.5t-11.5 33.5t-34.5 13.5t-34.5 -13.5t-11.5 -33.5zM244 439l-52 -190q25 -5 50.5 -8t52.5 -3t53.5 3t52.5 9l-53 189q-7 27 -14 53.5t-12 48t-8 34.5l-3 13h-28l-3 -13t-8.5 -34.5t-12.5 -48t-15 -53.5z" />
    <glyph glyph-name="aringacute" unicode="&#x1fb;" horiz-adv-x="526" 
d="M360 924v-72l-200 -99v78l137 93h63zM145 652q0 50 30.5 79.5t79.5 29.5t79.5 -29.5t30.5 -79.5q0 -49 -30.5 -79t-79.5 -30t-79.5 30t-30.5 79zM210 652q0 -19 11.5 -32.5t33.5 -13.5q23 0 34 13.5t11 32.5q0 20 -11 33.5t-34 13.5q-22 0 -33.5 -13.5t-11.5 -33.5z
M85 399v81l11.5 6t33.5 13t55 13.5t76 6.5q99 0 144.5 -42t45.5 -122v-355h-83l-13 54h-3l-9.5 -9.5t-28.5 -21t-47 -21t-65 -9.5q-84 0 -119.5 42.5t-35.5 111.5q0 72 43 111t138 39h124v55q0 40 -23.5 59.5t-75.5 19.5q-26 0 -43.5 -5t-27 -11t-13.5 -11l-4 -5h-80z
M233 76q31 0 53.5 8t37 18t21.5 18l7 8v94h-119q-47 0 -67.5 -20t-20.5 -51q0 -39 19.5 -57t68.5 -18z" />
    <glyph glyph-name="AEacute" unicode="&#x1fc;" horiz-adv-x="841" 
d="M606 896v-72l-200 -99v78l137 93h63zM16 0v61l268 619h515l-15 -94h-288v-197h257v-94h-257v-201h293v-94h-396v164h-228l-70 -164h-79zM281 435l-75 -175h187v324h-50l-5.5 -13.5t-14 -35t-19.5 -48t-23 -52.5z" />
    <glyph glyph-name="aeacute" unicode="&#x1fd;" horiz-adv-x="820" 
d="M439 740h84v-50l-82 -118h-84zM85 396v81l11.5 6.5t33.5 14.5t54.5 14.5t73.5 6.5q54 0 92.5 -14t60.5 -44q27 30 65.5 45t85.5 15q44 0 82.5 -11t66.5 -37t44 -68.5t16 -105.5q0 -30 -2.5 -54l-2.5 -24h-315v-2q0 -63 27 -101t96 -39q28 0 47 4.5t31 10.5t17 11l5 5h78
v-80l-12 -6t-34.5 -13t-56 -13t-76.5 -6q-60 0 -104.5 19.5t-72.5 57.5q-6 -7 -20.5 -19.5t-37 -25t-54.5 -22t-72 -9.5q-84 0 -124.5 42.5t-40.5 111.5q0 72 43.5 111t138.5 39h122v1.5v1.5v50q0 40 -25.5 60.5t-76.5 20.5q-25 0 -41.5 -5.5t-25.5 -12t-12.5 -12l-3.5 -5.5
h-81zM451 301v-4h218l0.5 7t0.5 16q0 61 -27.5 89.5t-80.5 28.5q-48 0 -79.5 -31.5t-31.5 -105.5zM235 75q50 0 81.5 21.5t47.5 40.5q-6 19 -9.5 40t-4.5 44h-117q-47 0 -67.5 -19.5t-20.5 -50.5q0 -37 20.5 -56.5t69.5 -19.5z" />
    <glyph glyph-name="Oslashacute" unicode="&#x1fe;" horiz-adv-x="628" 
d="M448 896v-72l-200 -99v78l137 93h63zM60 262v156q0 133 64 202.5t190 69.5q43 0 80 -8.5t65 -24.5l44 73h61v-50l-46 -76q25 -34 37.5 -80.5t12.5 -105.5v-156q0 -132 -64 -202t-190 -70q-43 0 -80 8.5t-65 24.5l-44 -73h-61v50l46 76q-25 34 -37.5 80.5t-12.5 105.5z
M164 253q0 -21 2 -39.5t6 -33.5l237 394q-18 12 -41.5 18t-53.5 6q-75 0 -112.5 -40t-37.5 -131v-174zM464 427q0 21 -2 39.5t-6 33.5l-237 -394q18 -12 41.5 -18t53.5 -6q75 0 112.5 40t37.5 131v174z" />
    <glyph glyph-name="oslashacute" unicode="&#x1ff;" horiz-adv-x="544" 
d="M301 740h84v-50l-82 -118h-84zM50 242v28q0 118 56 184.5t166 66.5q35 0 65.5 -7.5t54.5 -20.5l46 67h54v-44l-47 -69q25 -32 37.5 -77t12.5 -100v-28q0 -117 -56.5 -183.5t-166.5 -66.5q-35 0 -65 7.5t-54 20.5l-46 -68h-54v45l47 68q-25 32 -37.5 77t-12.5 100z
M152 248q0 -28 2.5 -50.5t7.5 -40.5l178 260q-13 9 -30 13t-38 4q-63 0 -91.5 -39.5t-28.5 -129.5v-17zM393 265q0 28 -2.5 50.5t-7.5 40.5l-178 -261q13 -8 30 -12t37 -4q63 0 92 39.5t29 129.5v17z" />
    <glyph glyph-name="uni0218" unicode="&#x218;" horiz-adv-x="525" 
d="M47 34v87h79l5 -6t18.5 -13t37 -13t60.5 -6q72 0 101.5 28t29.5 71q0 42 -24 66.5t-73 40.5l-63 22q-95 32 -129 79t-34 112q0 89 60.5 137t164.5 48q43 0 77 -6.5t58 -14t37 -14l13 -6.5v-88h-81l-5 6t-17 13.5t-33 13.5t-53 6q-61 0 -89.5 -25.5t-28.5 -66.5
q0 -38 22.5 -60t73.5 -39l63 -22q93 -33 127.5 -78.5t35.5 -115.5q1 -93 -58.5 -145t-174.5 -52q-46 0 -83.5 6.5t-63 14t-39.5 14zM170 -212l6.5 14.5t13.5 39t13.5 58.5t6.5 72h103v-43q-17 -73 -40 -107l-23 -34h-80z" />
    <glyph glyph-name="uni0219" unicode="&#x219;" horiz-adv-x="448" 
d="M48 106h74l19 -14.5t70 -14.5q49 0 70 18t21 47q0 28 -19 43.5t-62 25.5l-27 7q-78 19 -108 56t-30 96q0 63 44 106.5t140 43.5q69 0 108.5 -15l39.5 -15v-82h-74l-15.5 14t-63.5 14q-51 0 -66.5 -21t-15.5 -41q0 -30 16 -44.5t57 -24.5l27 -6q77 -19 112 -54t35 -98
q0 -75 -48.5 -114.5t-147.5 -39.5q-72 0 -114 15.5l-42 15.5v82zM141 -212l6.5 14.5t13.5 39t13.5 58.5t6.5 72h103v-43q-17 -73 -40 -107l-23 -34h-80z" />
    <glyph glyph-name="uni021A" unicode="&#x21a;" horiz-adv-x="471" 
d="M443 587h-157v-587h-103v587h-166v93h441zM142 -212l6.5 14.5t13.5 39t13.5 58.5t6.5 72h103v-43q-17 -73 -40 -107l-23 -34h-80z" />
    <glyph glyph-name="uni021B" unicode="&#x21b;" horiz-adv-x="317" 
d="M14 426v87h86v127h100v-127h86v-87h-86v-278q0 -32 14.5 -47.5t39.5 -15.5h19v-85h-86l-13.5 5t-30 20.5t-30 43.5t-13.5 73v284h-86zM122 -212l6.5 14.5t13.5 39t13.5 58.5t6.5 72h103v-43q-17 -73 -40 -107l-23 -34h-80z" />
    <glyph glyph-name="uni0232" unicode="&#x232;" horiz-adv-x="544" 
d="M128 860h288v-79h-288v79zM144 75l74 10h1v178l-200 352v65h81l117 -214q22 -39 38 -72l16 -33h5l16 31.5t38 71.5l119 216h76v-65l-203 -352v-178l74 -10v-75h-252v75z" />
    <glyph glyph-name="uni0233" unicode="&#x233;" horiz-adv-x="506" 
d="M109 693h288v-79h-288v79zM113 -88h26q29 0 46 12.5t27 46.5l15 52h-47l-147 430v60h87l93 -281q6 -19 12 -40t10.5 -39t7.5 -29.5l3 -11.5h17l3 11.5t7.5 29.5t10.5 39t12 40l93 281h83v-61l-147 -429l-22 -71q-12 -42 -29 -67t-32 -37.5t-25.5 -16.5l-10.5 -4h-93v85z
" />
    <glyph glyph-name="uni0237" unicode="&#x237;" horiz-adv-x="262" 
d="M82 513h100v-498q0 -57 -14.5 -93.5t-32 -57.5t-32 -29l-14.5 -8h-75v83h5q16 0 39.5 15t23.5 75v513z" />
    <glyph glyph-name="uni0259" unicode="&#x259;" horiz-adv-x="520" 
d="M470 271v-28q0 -123 -58 -187t-154 -64q-44 0 -82.5 11t-66.5 37t-44 68.5t-16 105.5q0 30 2.5 54l2.5 24h315v2q0 63 -27 101t-96 39q-28 0 -47 -4.5t-31 -10.5t-17 -11l-5 -5h-78v80l12 6t34.5 13t56 13t76.5 6q109 0 166 -64t57 -186zM258 75q48 0 79.5 31.5
t31.5 105.5v4h-218l-0.5 -7t-0.5 -16q0 -61 27.5 -89.5t80.5 -28.5z" />
    <glyph glyph-name="uni0272" unicode="&#x272;" horiz-adv-x="567" 
d="M392 0v355q0 39 -21 59.5t-68 20.5q-26 0 -49 -8t-39 -17.5t-25.5 -17.5l-9.5 -8v-395q0 -51 -14 -82.5t-31 -49t-31 -23.5l-14 -6h-78v84h5q28 0 45.5 17t17.5 61v523h83l13 -57h3l10.5 10t30.5 22.5t50.5 22.5t70.5 10q70 0 110.5 -38t40.5 -116v-367h-100z" />
    <glyph glyph-name="circumflex" unicode="&#x2c6;" horiz-adv-x="354" 
d="M35 571v44l101 125h82l101 -125v-44h-63l-43 57q-14 17 -24 31l-10 14h-4l-10 -14t-24 -31l-43 -57h-63z" />
    <glyph glyph-name="caron" unicode="&#x2c7;" horiz-adv-x="354" 
d="M319 740v-44l-101 -125h-82l-101 125v44h63l43 -57q14 -17 24 -31l10 -14h4l10 14t24 31l43 57h63z" />
    <glyph glyph-name="breve" unicode="&#x2d8;" horiz-adv-x="336" 
d="M29 713h69l1.5 -10t8 -21.5t20.5 -21.5t40 -10t40 10t20.5 21.5t8 21.5l1.5 10h68v-54l-6 -12.5t-21.5 -28t-42.5 -28t-68 -12.5t-68 12.5t-42.5 28t-22 28l-6.5 12.5v54z" />
    <glyph glyph-name="dotaccent" unicode="&#x2d9;" horiz-adv-x="167" 
d="M22 640q0 26 15.5 42t46.5 16q30 0 45.5 -16t15.5 -42v-8q0 -26 -15.5 -41.5t-45.5 -15.5q-31 0 -46.5 15.5t-15.5 41.5v8z" />
    <glyph glyph-name="ring" unicode="&#x2da;" horiz-adv-x="289" 
d="M34 667q0 50 30.5 79.5t79.5 29.5t79.5 -29.5t30.5 -79.5q0 -49 -30.5 -78.5t-79.5 -29.5t-79.5 29.5t-30.5 78.5zM99 667q0 -19 11.5 -32.5t33.5 -13.5q23 0 34 13.5t11 32.5q0 20 -11 33.5t-34 13.5q-22 0 -33.5 -13.5t-11.5 -33.5z" />
    <glyph glyph-name="ogonek" unicode="&#x2db;" horiz-adv-x="202" 
d="M174 0l-34 -33q-18 -16 -26.5 -27.5t-8.5 -24.5t10.5 -21.5t26.5 -8.5h18v-66h-31q-46 0 -73.5 23.5t-27.5 65.5q0 30 15.5 53.5t40.5 46.5l32 29h58v-37z" />
    <glyph glyph-name="tilde" unicode="&#x2dc;" horiz-adv-x="406" 
d="M23 603v64l5.5 7t17 16t30.5 16t46 7q20 0 40.5 -4.5t36.5 -10.5l24 -8q13 -6 25.5 -9t26.5 -3q30 0 38.5 14l8.5 14h61v-63l-5.5 -7t-17 -16t-30.5 -16t-46 -7q-21 0 -41 4.5t-36 10.5l-24 8q-14 5 -26.5 8.5t-26.5 3.5q-30 0 -38.5 -14.5l-8.5 -14.5h-60z" />
    <glyph glyph-name="hungarumlaut" unicode="&#x2dd;" horiz-adv-x="341" 
d="M170 663l-74 -91h-83l82 144h75v-53zM326 663l-74 -91h-83l82 144h75v-53z" />
    <glyph glyph-name="gravecomb" unicode="&#x300;" horiz-adv-x="216" 
d="M109 740l82 -168h-84l-82 118v50h84z" />
    <glyph glyph-name="acutecomb" unicode="&#x301;" horiz-adv-x="216" 
d="M107 740h84v-50l-82 -118h-84z" />
    <glyph glyph-name="uni0302" unicode="&#x302;" horiz-adv-x="354" 
d="M35 571v44l101 125h82l101 -125v-44h-63l-43 57q-14 17 -24 31l-10 14h-4l-10 -14t-24 -31l-43 -57h-63z" />
    <glyph glyph-name="tildecomb" unicode="&#x303;" horiz-adv-x="406" 
d="M23 603v64l5.5 7t17 16t30.5 16t46 7q20 0 40.5 -4.5t36.5 -10.5l24 -8q13 -6 25.5 -9t26.5 -3q30 0 38.5 14l8.5 14h61v-63l-5.5 -7t-17 -16t-30.5 -16t-46 -7q-21 0 -41 4.5t-36 10.5l-24 8q-14 5 -26.5 8.5t-26.5 3.5q-30 0 -38.5 -14.5l-8.5 -14.5h-60z" />
    <glyph glyph-name="uni0304" unicode="&#x304;" horiz-adv-x="344" 
d="M28 693h288v-79h-288v79z" />
    <glyph glyph-name="uni0306" unicode="&#x306;" horiz-adv-x="336" 
d="M29 713h69l1.5 -10t8 -21.5t20.5 -21.5t40 -10t40 10t20.5 21.5t8 21.5l1.5 10h68v-54l-6 -12.5t-21.5 -28t-42.5 -28t-68 -12.5t-68 12.5t-42.5 28t-22 28l-6.5 12.5v54z" />
    <glyph glyph-name="uni0307" unicode="&#x307;" horiz-adv-x="167" 
d="M22 640q0 26 15.5 42t46.5 16q30 0 45.5 -16t15.5 -42v-8q0 -26 -15.5 -41.5t-45.5 -15.5q-31 0 -46.5 15.5t-15.5 41.5v8z" />
    <glyph glyph-name="uni0308" unicode="&#x308;" horiz-adv-x="329" 
d="M28 645q0 25 14.5 40t44.5 15q31 0 45 -15.5t14 -39.5v-8q0 -25 -14.5 -40t-44.5 -15q-31 0 -45 16t-14 39v8zM183 645q0 25 15 40t44 15q31 0 45 -15.5t14 -39.5v-8q0 -25 -14.5 -40t-44.5 -15t-44.5 16t-14.5 39v8z" />
    <glyph glyph-name="uni030A" unicode="&#x30a;" horiz-adv-x="289" 
d="M34 667q0 50 30.5 79.5t79.5 29.5t79.5 -29.5t30.5 -79.5q0 -49 -30.5 -78.5t-79.5 -29.5t-79.5 29.5t-30.5 78.5zM99 667q0 -19 11.5 -32.5t33.5 -13.5q23 0 34 13.5t11 32.5q0 20 -11 33.5t-34 13.5q-22 0 -33.5 -13.5t-11.5 -33.5z" />
    <glyph glyph-name="uni030B" unicode="&#x30b;" horiz-adv-x="341" 
d="M170 663l-74 -91h-83l82 144h75v-53zM326 663l-74 -91h-83l82 144h75v-53z" />
    <glyph glyph-name="uni030C" unicode="&#x30c;" horiz-adv-x="354" 
d="M319 740v-44l-101 -125h-82l-101 125v44h63l43 -57q14 -17 24 -31l10 -14h4l10 14t24 31l43 57h63z" />
    <glyph glyph-name="dotbelowcomb" unicode="&#x323;" horiz-adv-x="167" 
d="M22 -129q0 26 15.5 42t46.5 16q30 0 45.5 -16t15.5 -42v-8q0 -26 -15.5 -41.5t-45.5 -15.5q-31 0 -46.5 15.5t-15.5 41.5v8z" />
    <glyph glyph-name="uni0326" unicode="&#x326;" horiz-adv-x="237" 
d="M32 -212l6.5 14.5t13.5 39t13.5 58.5t6.5 72h103v-43q-17 -73 -40 -107l-23 -34h-80z" />
    <glyph glyph-name="uni0327" unicode="&#x327;" horiz-adv-x="181" 
d="M99 -154h-73v53l6 6.5t12.5 19t12.5 31.5t6 44v36h90v-36q0 -37 -8.5 -65.5t-18.5 -48t-18.5 -30z" />
    <glyph glyph-name="uni0328" unicode="&#x328;" horiz-adv-x="202" 
d="M174 0l-34 -33q-18 -16 -26.5 -27.5t-8.5 -24.5t10.5 -21.5t26.5 -8.5h18v-66h-31q-46 0 -73.5 23.5t-27.5 65.5q0 30 15.5 53.5t40.5 46.5l32 29h58v-37z" />
    <glyph glyph-name="uni0335" unicode="&#x335;" horiz-adv-x="335" 
d="M18 380h299v-79h-299v79z" />
    <glyph glyph-name="uni0337" unicode="&#x337;" horiz-adv-x="282" 
d="M9 299v59l214 133h50v-58l-214 -134h-50z" />
    <glyph glyph-name="uni0338" unicode="&#x338;" horiz-adv-x="439" 
d="M385 560h54v-44l-385 -564h-54v45z" />
    <glyph glyph-name="uni0394" unicode="&#x394;" horiz-adv-x="600" 
d="M359 680l216 -680h-550l216 680h118zM268 434l-106 -341h276l-106 341q-13 45 -21.5 75.5l-8.5 30.5h-4l-8.5 -30.5t-21.5 -75.5z" />
    <glyph glyph-name="uni03A9" unicode="&#x3a9;" horiz-adv-x="600" 
d="M275 127v-127h-232v91h62q38 0 59 -0.5l21 -0.5v2l-38 61q-14 23 -30.5 54t-30 67.5t-22.5 79.5t-9 90v14q0 59 18 103t50.5 72.5t77.5 42.5t99 14t99 -14t77.5 -42.5t50.5 -72.5t18 -103v-14q0 -47 -9 -90t-22.5 -79.5t-30 -67.5t-30.5 -54l-38 -61v-2l21 0.5t59 0.5h62
v-91h-232v127l50 87q22 39 44 100.5t22 130.5v8q0 75 -36 110t-105 35t-105 -35t-36 -110v-8q0 -69 22 -130.5t44 -100.5z" />
    <glyph glyph-name="pi" unicode="&#x3c0;" horiz-adv-x="600" 
d="M126 0v424h-90v89h526v-89h-90v-262q0 -46 15.5 -61.5t43.5 -15.5h5v-85h-77l-13.5 5t-30 20.5t-30 45t-13.5 76.5v277h-146v-424h-100z" />
    <glyph glyph-name="Wgrave" unicode="&#x1e80;" horiz-adv-x="897" 
d="M324 896h63l137 -93v-78l-200 99v72zM37 680h92l90 -420q6 -29 11 -59.5t9 -55t6 -40.5l2 -16h15l2 16t6 40.5t8.5 55.5t10.5 60l81 419h160l81 -419q6 -29 10.5 -60t8 -55.5t5.5 -40.5l2 -16h16l2 16t6 40.5t9 55t11 59.5l90 420h89v-62l-134 -618h-162l-80 419
q-6 30 -11 61t-8.5 55.5t-6 40l-2.5 15.5h-15l-2.5 -15.5t-6 -40t-8.5 -55.5t-11 -61l-80 -419h-161l-135 618v62z" />
    <glyph glyph-name="wgrave" unicode="&#x1e81;" horiz-adv-x="818" 
d="M380 740l82 -168h-84l-82 118v50h84zM161 0l-124 453v60h86l75 -291q5 -19 10 -43.5t9.5 -45.5t7 -35.5l2.5 -14.5h15l2.5 14.5t6 35.5t8.5 45t9 44l68 291h144l70 -291q5 -19 10 -43.5t9 -45.5t6.5 -35.5l2.5 -14.5h16l2.5 14.5t6.5 35.5t9 45.5t10 43.5l76 291h83v-60
l-124 -453h-145l-73 305q-6 22 -10.5 44.5t-7.5 40t-5 28.5l-2 11h-14l-1.5 -11.5t-4.5 -29t-7.5 -39.5t-9.5 -44l-71 -305h-145z" />
    <glyph glyph-name="Wacute" unicode="&#x1e82;" horiz-adv-x="897" 
d="M572 896v-72l-200 -99v78l137 93h63zM37 680h92l90 -420q6 -29 11 -59.5t9 -55t6 -40.5l2 -16h15l2 16t6 40.5t8.5 55.5t10.5 60l81 419h160l81 -419q6 -29 10.5 -60t8 -55.5t5.5 -40.5l2 -16h16l2 16t6 40.5t9 55t11 59.5l90 420h89v-62l-134 -618h-162l-80 419
q-6 30 -11 61t-8.5 55.5t-6 40l-2.5 15.5h-15l-2.5 -15.5t-6 -40t-8.5 -55.5t-11 -61l-80 -419h-161l-135 618v62z" />
    <glyph glyph-name="wacute" unicode="&#x1e83;" horiz-adv-x="818" 
d="M439 740h84v-50l-82 -118h-84zM161 0l-124 453v60h86l75 -291q5 -19 10 -43.5t9.5 -45.5t7 -35.5l2.5 -14.5h15l2.5 14.5t6 35.5t8.5 45t9 44l68 291h144l70 -291q5 -19 10 -43.5t9 -45.5t6.5 -35.5l2.5 -14.5h16l2.5 14.5t6.5 35.5t9 45.5t10 43.5l76 291h83v-60
l-124 -453h-145l-73 305q-6 22 -10.5 44.5t-7.5 40t-5 28.5l-2 11h-14l-1.5 -11.5t-4.5 -29t-7.5 -39.5t-9.5 -44l-71 -305h-145z" />
    <glyph glyph-name="Wdieresis" unicode="&#x1e84;" horiz-adv-x="897" 
d="M311 805q0 25 14.5 40t44.5 15q31 0 45 -15.5t14 -39.5v-8q0 -25 -14.5 -40t-44.5 -15q-31 0 -45 16t-14 39v8zM466 805q0 25 15 40t44 15q31 0 45 -15.5t14 -39.5v-8q0 -25 -14.5 -40t-44.5 -15t-44.5 16t-14.5 39v8zM37 680h92l90 -420q6 -29 11 -59.5t9 -55t6 -40.5
l2 -16h15l2 16t6 40.5t8.5 55.5t10.5 60l81 419h160l81 -419q6 -29 10.5 -60t8 -55.5t5.5 -40.5l2 -16h16l2 16t6 40.5t9 55t11 59.5l90 420h89v-62l-134 -618h-162l-80 419q-6 30 -11 61t-8.5 55.5t-6 40l-2.5 15.5h-15l-2.5 -15.5t-6 -40t-8.5 -55.5t-11 -61l-80 -419
h-161l-135 618v62z" />
    <glyph glyph-name="wdieresis" unicode="&#x1e85;" horiz-adv-x="818" 
d="M272 645q0 25 14.5 40t44.5 15q31 0 45 -15.5t14 -39.5v-8q0 -25 -14.5 -40t-44.5 -15q-31 0 -45 16t-14 39v8zM427 645q0 25 15 40t44 15q31 0 45 -15.5t14 -39.5v-8q0 -25 -14.5 -40t-44.5 -15t-44.5 16t-14.5 39v8zM161 0l-124 453v60h86l75 -291q5 -19 10 -43.5
t9.5 -45.5t7 -35.5l2.5 -14.5h15l2.5 14.5t6 35.5t8.5 45t9 44l68 291h144l70 -291q5 -19 10 -43.5t9 -45.5t6.5 -35.5l2.5 -14.5h16l2.5 14.5t6.5 35.5t9 45.5t10 43.5l76 291h83v-60l-124 -453h-145l-73 305q-6 22 -10.5 44.5t-7.5 40t-5 28.5l-2 11h-14l-1.5 -11.5
t-4.5 -29t-7.5 -39.5t-9.5 -44l-71 -305h-145z" />
    <glyph glyph-name="uni1E9E" unicode="&#x1e9e;" horiz-adv-x="624" 
d="M85 0v484q0 58 13.5 96t38.5 60.5t62.5 31t85.5 8.5h267v-106l-151 -191v-5l52 -29q57 -32 90.5 -70t33.5 -111q0 -30 -9 -61t-31 -55.5t-60.5 -40.5t-96.5 -16q-69 0 -104 10l-35 10v89h78l14 -9.5t56 -9.5q43 0 64 21.5t21 58.5q0 43 -23 63t-52 36l-105 58v80l146 184
h-158q-51 0 -72.5 -19.5t-21.5 -73.5v-493h-103z" />
    <glyph glyph-name="uni1EA0" unicode="&#x1ea0;" horiz-adv-x="595" 
d="M33 0v61l177 619h175l177 -619v-61h-92l-44 160q-32 -7 -64.5 -11t-66.5 -4q-33 0 -65 3.5t-63 10.5l-44 -159h-90zM244 439l-52 -190q25 -5 50.5 -8t52.5 -3t53.5 3t52.5 9l-53 189q-7 27 -14 53.5t-12 48t-8 34.5l-3 13h-28l-3 -13t-8.5 -34.5t-12.5 -48t-15 -53.5z
M236 -129q0 26 15.5 42t46.5 16q30 0 45.5 -16t15.5 -42v-8q0 -26 -15.5 -41.5t-45.5 -15.5q-31 0 -46.5 15.5t-15.5 41.5v8z" />
    <glyph glyph-name="uni1EA1" unicode="&#x1ea1;" horiz-adv-x="526" 
d="M85 399v81l11.5 6t33.5 13t55 13.5t76 6.5q99 0 144.5 -42t45.5 -122v-355h-83l-13 54h-3l-9.5 -9.5t-28.5 -21t-47 -21t-65 -9.5q-84 0 -119.5 42.5t-35.5 111.5q0 72 43 111t138 39h124v55q0 40 -23.5 59.5t-75.5 19.5q-26 0 -43.5 -5t-27 -11t-13.5 -11l-4 -5h-80z
M233 76q31 0 53.5 8t37 18t21.5 18l7 8v94h-119q-47 0 -67.5 -20t-20.5 -51q0 -39 19.5 -57t68.5 -18zM197 -129q0 26 15.5 42t46.5 16q30 0 45.5 -16t15.5 -42v-8q0 -26 -15.5 -41.5t-45.5 -15.5q-31 0 -46.5 15.5t-15.5 41.5v8z" />
    <glyph glyph-name="uni1EB8" unicode="&#x1eb8;" horiz-adv-x="533" 
d="M85 0v680h406l-15 -94h-288v-197h257v-94h-257v-201h293v-94h-396zM231 -129q0 26 15.5 42t46.5 16q30 0 45.5 -16t15.5 -42v-8q0 -26 -15.5 -41.5t-45.5 -15.5q-31 0 -46.5 15.5t-15.5 41.5v8z" />
    <glyph glyph-name="uni1EB9" unicode="&#x1eb9;" horiz-adv-x="520" 
d="M50 242v28q0 123 58 187t154 64q44 0 82.5 -11t66.5 -37t44 -68.5t16 -105.5q0 -30 -2.5 -54l-2.5 -24h-315v-2q0 -63 27 -101t96 -39q28 0 47 4.5t31 10.5t17 11l5 5h78v-80l-12 -6t-34.5 -13t-56 -13t-76.5 -6q-109 0 -166 64t-57 186zM151 301v-4h218l0.5 7t0.5 16
q0 61 -27.5 89.5t-80.5 28.5q-48 0 -79.5 -31.5t-31.5 -105.5zM206 -129q0 26 15.5 42t46.5 16q30 0 45.5 -16t15.5 -42v-8q0 -26 -15.5 -41.5t-45.5 -15.5q-31 0 -46.5 15.5t-15.5 41.5v8z" />
    <glyph glyph-name="uni1EBC" unicode="&#x1ebc;" horiz-adv-x="533" 
d="M107 749v64l5.5 7t17 16t30.5 16t46 7q20 0 40.5 -4.5t36.5 -10.5l24 -8q13 -6 25.5 -9t26.5 -3q30 0 38.5 14l8.5 14h61v-63l-5.5 -7t-17 -16t-30.5 -16t-46 -7q-21 0 -41 4.5t-36 10.5l-24 8q-14 5 -26.5 8.5t-26.5 3.5q-30 0 -38.5 -14.5l-8.5 -14.5h-60zM85 0v680
h406l-15 -94h-288v-197h257v-94h-257v-201h293v-94h-396z" />
    <glyph glyph-name="uni1EBD" unicode="&#x1ebd;" horiz-adv-x="520" 
d="M85 603v64l5.5 7t17 16t30.5 16t46 7q20 0 40.5 -4.5t36.5 -10.5l24 -8q13 -6 25.5 -9t26.5 -3q30 0 38.5 14l8.5 14h61v-63l-5.5 -7t-17 -16t-30.5 -16t-46 -7q-21 0 -41 4.5t-36 10.5l-24 8q-14 5 -26.5 8.5t-26.5 3.5q-30 0 -38.5 -14.5l-8.5 -14.5h-60zM50 242v28
q0 123 58 187t154 64q44 0 82.5 -11t66.5 -37t44 -68.5t16 -105.5q0 -30 -2.5 -54l-2.5 -24h-315v-2q0 -63 27 -101t96 -39q28 0 47 4.5t31 10.5t17 11l5 5h78v-80l-12 -6t-34.5 -13t-56 -13t-76.5 -6q-109 0 -166 64t-57 186zM151 301v-4h218l0.5 7t0.5 16q0 61 -27.5 89.5
t-80.5 28.5q-48 0 -79.5 -31.5t-31.5 -105.5z" />
    <glyph glyph-name="uni1ECA" unicode="&#x1eca;" horiz-adv-x="335" 
d="M49 75l67 10v510l-67 10v75h237v-75l-67 -10v-510l67 -10v-75h-237v75zM106 -129q0 26 15.5 42t46.5 16q30 0 45.5 -16t15.5 -42v-8q0 -26 -15.5 -41.5t-45.5 -15.5q-31 0 -46.5 15.5t-15.5 41.5v8z" />
    <glyph glyph-name="uni1ECB" unicode="&#x1ecb;" horiz-adv-x="261" 
d="M69 677q0 26 15.5 42t45.5 16q31 0 46.5 -16t15.5 -42v-8q0 -26 -15.5 -41.5t-46.5 -15.5q-30 0 -45.5 15.5t-15.5 41.5v8zM80 0v513h100v-513h-100zM68 -129q0 26 15.5 42t46.5 16q30 0 45.5 -16t15.5 -42v-8q0 -26 -15.5 -41.5t-45.5 -15.5q-31 0 -46.5 15.5
t-15.5 41.5v8z" />
    <glyph glyph-name="uni1ECC" unicode="&#x1ecc;" horiz-adv-x="628" 
d="M60 262v156q0 133 64 202.5t190 69.5q125 0 189.5 -69.5t64.5 -202.5v-156q0 -132 -64 -202t-190 -70q-125 0 -189.5 69.5t-64.5 202.5zM164 253q0 -91 37.5 -131t112.5 -40t112.5 40t37.5 131v174q0 91 -37.5 131t-112.5 40t-112.5 -40t-37.5 -131v-174zM252 -129
q0 26 15.5 42t46.5 16q30 0 45.5 -16t15.5 -42v-8q0 -26 -15.5 -41.5t-45.5 -15.5q-31 0 -46.5 15.5t-15.5 41.5v8z" />
    <glyph glyph-name="uni1ECD" unicode="&#x1ecd;" horiz-adv-x="544" 
d="M50 242v28q0 118 56 184.5t166 66.5t166.5 -66.5t56.5 -184.5v-28q0 -117 -56.5 -183.5t-166.5 -66.5t-166 66.5t-56 183.5zM152 248q0 -90 28.5 -129.5t91.5 -39.5t92 39.5t29 129.5v17q0 90 -29 129.5t-92 39.5t-91.5 -39.5t-28.5 -129.5v-17zM210 -129q0 26 15.5 42
t46.5 16q30 0 45.5 -16t15.5 -42v-8q0 -26 -15.5 -41.5t-45.5 -15.5q-31 0 -46.5 15.5t-15.5 41.5v8z" />
    <glyph glyph-name="uni1EE4" unicode="&#x1ee4;" horiz-adv-x="644" 
d="M77 225v455h103v-453q0 -81 28.5 -112.5t101.5 -31.5q32 0 59.5 8t46.5 18t29.5 18l10.5 8v545h103v-680h-82l-13 60h-3l-13.5 -10.5t-37 -23.5t-56.5 -23.5t-72 -10.5q-107 0 -156 53t-49 180zM259 -129q0 26 15.5 42t46.5 16q30 0 45.5 -16t15.5 -42v-8
q0 -26 -15.5 -41.5t-45.5 -15.5q-31 0 -46.5 15.5t-15.5 41.5v8z" />
    <glyph glyph-name="uni1EE5" unicode="&#x1ee5;" 
d="M75 513h100v-355q0 -39 21.5 -59.5t68.5 -20.5q27 0 49 8t37 17.5t23.5 17.5l8.5 8v384h100v-513h-83l-14 56h-2l-10 -10t-29.5 -22t-50 -22t-70.5 -10q-69 0 -109 38t-40 115v368zM220 -129q0 26 15.5 42t46.5 16q30 0 45.5 -16t15.5 -42v-8q0 -26 -15.5 -41.5
t-45.5 -15.5q-31 0 -46.5 15.5t-15.5 41.5v8z" />
    <glyph glyph-name="Ygrave" unicode="&#x1ef2;" horiz-adv-x="544" 
d="M118 896h63l137 -93v-78l-200 99v72zM144 75l74 10h1v178l-200 352v65h81l117 -214q22 -39 38 -72l16 -33h5l16 31.5t38 71.5l119 216h76v-65l-203 -352v-178l74 -10v-75h-252v75z" />
    <glyph glyph-name="ygrave" unicode="&#x1ef3;" horiz-adv-x="506" 
d="M225 740l82 -168h-84l-82 118v50h84zM113 -88h26q29 0 46 12.5t27 46.5l15 52h-47l-147 430v60h87l93 -281q6 -19 12 -40t10.5 -39t7.5 -29.5l3 -11.5h17l3 11.5t7.5 29.5t10.5 39t12 40l93 281h83v-61l-147 -429l-22 -71q-12 -42 -29 -67t-32 -37.5t-25.5 -16.5
l-10.5 -4h-93v85z" />
    <glyph glyph-name="uni1EF8" unicode="&#x1ef8;" horiz-adv-x="544" 
d="M93 749v64l5.5 7t17 16t30.5 16t46 7q20 0 40.5 -4.5t36.5 -10.5l24 -8q13 -6 25.5 -9t26.5 -3q30 0 38.5 14l8.5 14h61v-63l-5.5 -7t-17 -16t-30.5 -16t-46 -7q-21 0 -41 4.5t-36 10.5l-24 8q-14 5 -26.5 8.5t-26.5 3.5q-30 0 -38.5 -14.5l-8.5 -14.5h-60zM144 75l74 10
h1v178l-200 352v65h81l117 -214q22 -39 38 -72l16 -33h5l16 31.5t38 71.5l119 216h76v-65l-203 -352v-178l74 -10v-75h-252v75z" />
    <glyph glyph-name="uni1EF9" unicode="&#x1ef9;" horiz-adv-x="506" 
d="M74 603v64l5.5 7t17 16t30.5 16t46 7q20 0 40.5 -4.5t36.5 -10.5l24 -8q13 -6 25.5 -9t26.5 -3q30 0 38.5 14l8.5 14h61v-63l-5.5 -7t-17 -16t-30.5 -16t-46 -7q-21 0 -41 4.5t-36 10.5l-24 8q-14 5 -26.5 8.5t-26.5 3.5q-30 0 -38.5 -14.5l-8.5 -14.5h-60zM113 -88h26
q29 0 46 12.5t27 46.5l15 52h-47l-147 430v60h87l93 -281q6 -19 12 -40t10.5 -39t7.5 -29.5l3 -11.5h17l3 11.5t7.5 29.5t10.5 39t12 40l93 281h83v-61l-147 -429l-22 -71q-12 -42 -29 -67t-32 -37.5t-25.5 -16.5l-10.5 -4h-93v85z" />
    <glyph glyph-name="endash" unicode="&#x2013;" horiz-adv-x="500" 
d="M0 298h500v-93h-500v93z" />
    <glyph glyph-name="emdash" unicode="&#x2014;" horiz-adv-x="1000" 
d="M0 298h1000v-93h-1000v93z" />
    <glyph glyph-name="quoteleft" unicode="&#x2018;" horiz-adv-x="228" 
d="M215 744l-7.5 -20t-17 -54.5t-17 -83t-7.5 -105.5h-103v60q9 53 21.5 91.5t23.5 63t19 36.5l8 12h80z" />
    <glyph glyph-name="quoteright" unicode="&#x2019;" horiz-adv-x="228" 
d="M13 477l7.5 20t17 54.5t17 83t7.5 105.5h103v-60q-9 -53 -21.5 -91.5t-23.5 -63t-19 -36.5l-8 -12h-80z" />
    <glyph glyph-name="quotesinglbase" unicode="&#x201a;" horiz-adv-x="219" 
d="M13 -139l7.5 20t17 54.5t17 83t7.5 105.5h103v-60q-9 -53 -21.5 -91.5t-23.5 -63t-19 -36.5l-8 -12h-80z" />
    <glyph glyph-name="quotedblleft" unicode="&#x201c;" horiz-adv-x="411" 
d="M215 744l-7.5 -20t-17 -54.5t-17 -83t-7.5 -105.5h-103v60q9 53 21.5 91.5t23.5 63t19 36.5l8 12h80zM398 744l-7.5 -20t-17 -54.5t-17 -83t-7.5 -105.5h-103v60q9 53 21.5 91.5t23.5 63t19 36.5l8 12h80z" />
    <glyph glyph-name="quotedblright" unicode="&#x201d;" horiz-adv-x="411" 
d="M13 477l7.5 20t17 54.5t17 83t7.5 105.5h103v-60q-9 -53 -21.5 -91.5t-23.5 -63t-19 -36.5l-8 -12h-80zM196 477l7.5 20t17 54.5t17 83t7.5 105.5h103v-60q-9 -53 -21.5 -91.5t-23.5 -63t-19 -36.5l-8 -12h-80z" />
    <glyph glyph-name="quotedblbase" unicode="&#x201e;" horiz-adv-x="402" 
d="M13 -139l7.5 20t17 54.5t17 83t7.5 105.5h103v-60q-9 -53 -21.5 -91.5t-23.5 -63t-19 -36.5l-8 -12h-80zM196 -139l7.5 20t17 54.5t17 83t7.5 105.5h103v-60q-9 -53 -21.5 -91.5t-23.5 -63t-19 -36.5l-8 -12h-80z" />
    <glyph glyph-name="dagger" unicode="&#x2020;" horiz-adv-x="467" 
d="M21 406v94h84q24 0 51.5 -1.5l27.5 -1.5l2 2l-1.5 27.5t-1.5 51.5v102h101v-102q0 -24 -1.5 -51.5l-1.5 -27.5l2 -2l27.5 1.5t51.5 1.5h84v-94h-84q-24 0 -51.5 1.5l-27.5 1.5l-2 -2l1.5 -27.5t1.5 -51.5v-429h-101v429q0 24 1.5 51.5l1.5 27.5l-2 2l-27.5 -1.5
t-51.5 -1.5h-84z" />
    <glyph glyph-name="daggerdbl" unicode="&#x2021;" horiz-adv-x="467" 
d="M21 79v94h84q24 0 51.5 -1.5l27.5 -1.5l2 2l-1.5 27.5t-1.5 51.5v77q0 24 1.5 51.5l1.5 27.5l-2 2l-27.5 -1.5t-51.5 -1.5h-84v94h84q24 0 51.5 -1.5l27.5 -1.5l2 2l-1.5 27.5t-1.5 51.5v102h101v-102q0 -24 -1.5 -51.5l-1.5 -27.5l2 -2l27.5 1.5t51.5 1.5h84v-94h-84
q-24 0 -51.5 1.5l-27.5 1.5l-2 -2l1.5 -27.5t1.5 -51.5v-77q0 -24 -1.5 -51.5l-1.5 -27.5l2 -2l27.5 1.5t51.5 1.5h84v-94h-84q-24 0 -51.5 1.5l-27.5 1.5l-2 -2l1.5 -27.5t1.5 -51.5v-102h-101v102q0 24 1.5 51.5l1.5 27.5l-2 2l-27.5 -1.5t-51.5 -1.5h-84z" />
    <glyph glyph-name="bullet" unicode="&#x2022;" horiz-adv-x="428" 
d="M77 255q0 63 36.5 101.5t100.5 37.5q64 0 100.5 -38t36.5 -101t-36.5 -101t-100.5 -38t-100.5 38t-36.5 101z" />
    <glyph glyph-name="ellipsis" unicode="&#x2026;" horiz-adv-x="657" 
d="M44 66q0 28 17 44.5t48 16.5q32 0 49 -16.5t17 -44.5v-8q0 -28 -17 -45t-49 -17q-31 0 -48 17t-17 45v8zM263 66q0 28 17 44.5t48 16.5q32 0 49 -16.5t17 -44.5v-8q0 -28 -17 -45t-49 -17q-31 0 -48 17t-17 45v8zM482 66q0 28 17 44.5t48 16.5q32 0 49 -16.5t17 -44.5v-8
q0 -28 -17 -45t-49 -17q-31 0 -48 17t-17 45v8z" />
    <glyph glyph-name="perthousand" unicode="&#x2030;" horiz-adv-x="1287" 
d="M193 270q-74 0 -111.5 40.5t-37.5 108.5v119q0 68 37.5 108.5t111.5 40.5t111.5 -40.5t37.5 -108.5v-119q0 -68 -37.5 -108.5t-111.5 -40.5zM620 680h56v-47l-395 -633h-56v47zM193 615q-36 0 -51.5 -20t-15.5 -56v-121q0 -36 15.5 -56t51.5 -20t51.5 20t15.5 56v121
q0 36 -15.5 56t-51.5 20zM708 -7q-74 0 -111.5 40.5t-37.5 108.5v119q0 68 37.5 108.5t111.5 40.5t111.5 -40.5t37.5 -108.5v-119q0 -68 -37.5 -108.5t-111.5 -40.5zM1094 -7q-74 0 -111.5 40.5t-37.5 108.5v119q0 68 37.5 108.5t111.5 40.5t111.5 -40.5t37.5 -108.5v-119
q0 -68 -37.5 -108.5t-111.5 -40.5zM708 338q-36 0 -51.5 -20t-15.5 -56v-121q0 -36 15.5 -56t51.5 -20t51.5 20t15.5 56v121q0 36 -15.5 56t-51.5 20zM1094 338q-36 0 -51.5 -20t-15.5 -56v-121q0 -36 15.5 -56t51.5 -20t51.5 20t15.5 56v121q0 36 -15.5 56t-51.5 20z" />
    <glyph glyph-name="guilsinglleft" unicode="&#x2039;" horiz-adv-x="302" 
d="M39 278l161 192h67v-53l-101 -122q-16 -20 -24.5 -29l-8.5 -9v-6l8.5 -9t24.5 -29l101 -122v-53h-67l-161 191v49z" />
    <glyph glyph-name="guilsinglright" unicode="&#x203a;" horiz-adv-x="302" 
d="M263 278v-49l-161 -191h-67v53l101 122q16 20 24.5 29l8.5 9v6l-8.5 9t-24.5 29l-101 122v53h67z" />
    <glyph glyph-name="fraction" unicode="&#x2044;" horiz-adv-x="129" 
d="M234 680h56v-47l-395 -633h-56v47z" />
    <glyph glyph-name="uni2070" unicode="&#x2070;" horiz-adv-x="386" 
d="M193 470q-74 0 -111.5 40.5t-37.5 108.5v119q0 68 37.5 108.5t111.5 40.5t111.5 -40.5t37.5 -108.5v-119q0 -68 -37.5 -108.5t-111.5 -40.5zM193 815q-36 0 -51.5 -20t-15.5 -56v-121q0 -36 15.5 -56t51.5 -20t51.5 20t15.5 56v121q0 36 -15.5 56t-51.5 20z" />
    <glyph glyph-name="uni2074" unicode="&#x2074;" horiz-adv-x="363" 
d="M29 553v67l119 260h132v-258h56v-69h-56v-76h-79v76h-172zM105 622h96v103v27.5t0.5 28.5t0.5 22v9h-13l-11.5 -29t-24.5 -57z" />
    <glyph glyph-name="uni2075" unicode="&#x2075;" horiz-adv-x="347" 
d="M40 500v62h69l12.5 -11.5t45.5 -11.5q34 0 51 16.5t17 50.5q0 26 -14.5 43t-46.5 17q-30 0 -45.5 -12.5l-15.5 -12.5h-63v53l21 186h228v-71h-114q-15 0 -31.5 0.5l-16.5 0.5l-5 -45q-1 -17 -3.5 -32.5l-2.5 -15.5h2l19.5 8.5t54.5 8.5q52 0 83.5 -32.5t30.5 -92.5
t-35.5 -99.5t-112.5 -39.5q-62 0 -95 15z" />
    <glyph glyph-name="uni2076" unicode="&#x2076;" horiz-adv-x="351" 
d="M257 813q-11 0 -29.5 -5t-38.5 -17.5t-38 -34t-28 -54.5h2l23 15.5t65 15.5q56 0 81.5 -33t25.5 -93q0 -69 -38.5 -103t-103.5 -34t-104.5 33.5t-39.5 114.5v15q0 76 25.5 124.5t55.5 75.5t55.5 37l25.5 10h61v-67zM117 617q0 -43 16.5 -60.5t47.5 -17.5q29 0 44 18.5
t14 50.5q-1 30 -15 45.5t-40 15.5q-32 0 -49.5 -12.5l-17.5 -12.5v-27z" />
    <glyph glyph-name="uni2077" unicode="&#x2077;" horiz-adv-x="312" 
d="M17 771v109h271v-81l-103 -252q-5 -11 -6 -24.5t-1 -22.5v-23h-82v67l83 201q7 18 16.5 39.5l9.5 21.5v3h-111l-4 -38h-73z" />
    <glyph glyph-name="uni2078" unicode="&#x2078;" horiz-adv-x="371" 
d="M186 470q-72 0 -108 30t-36 83q0 24 6.5 42t14.5 30.5t14.5 18.5l6.5 6v2l-6 6t-12.5 17.5t-12.5 28.5t-6 39q0 49 34.5 81.5t104.5 32.5t104 -32.5t34 -81.5q0 -22 -6 -39t-12.5 -28.5t-12.5 -17.5l-6 -6v-2l6.5 -6t14.5 -18.5t14.5 -30.5t6.5 -42q0 -53 -35.5 -83
t-107.5 -30zM125 767q0 -28 12 -41l12 -13h74l11.5 13t11.5 41q0 26 -16 39.5t-44 13.5q-29 0 -45 -13.5t-16 -39.5zM186 537q34 0 50 14.5t16 38.5q0 31 -14 44l-14 13h-76l-14 -13t-14 -44q0 -24 16 -38.5t50 -14.5z" />
    <glyph glyph-name="uni2079" unicode="&#x2079;" horiz-adv-x="351" 
d="M94 544q11 0 29.5 5t38.5 17.5t38 34t28 54.5h-2l-23 -15.5t-65 -15.5q-56 0 -81.5 33t-25.5 93q0 69 38.5 103t103.5 34t104.5 -33.5t39.5 -114.5v-15q0 -76 -25.5 -124.5t-55.5 -75.5t-55.5 -37l-25.5 -10h-61v67zM112 749q1 -30 15 -45.5t40 -15.5q32 0 49.5 12.5
l17.5 12.5v27q0 43 -16.5 60.5t-47.5 17.5q-29 0 -44 -18.5t-14 -50.5z" />
    <glyph glyph-name="uni2080" unicode="&#x2080;" horiz-adv-x="386" 
d="M193 -207q-74 0 -111.5 40.5t-37.5 108.5v119q0 68 37.5 108.5t111.5 40.5t111.5 -40.5t37.5 -108.5v-119q0 -68 -37.5 -108.5t-111.5 -40.5zM193 138q-36 0 -51.5 -20t-15.5 -56v-121q0 -36 15.5 -56t51.5 -20t51.5 20t15.5 56v121q0 36 -15.5 56t-51.5 20z" />
    <glyph glyph-name="uni2081" unicode="&#x2081;" horiz-adv-x="287" 
d="M35 124v53l81 26h73v-328l75 -9v-66h-232v66l75 9v249h-72z" />
    <glyph glyph-name="uni2082" unicode="&#x2082;" horiz-adv-x="348" 
d="M306 -200h-263v76l139 135q22 22 32.5 38t10.5 39q0 25 -15 37.5t-42 12.5q-36 0 -48 -11l-12 -11h-67v65l34.5 14.5t97.5 14.5t98.5 -30t35.5 -87q0 -44 -17.5 -73t-48.5 -57l-97 -91v-1l18.5 0.5t36.5 0.5h107v-72z" />
    <glyph glyph-name="uni2083" unicode="&#x2083;" horiz-adv-x="354" 
d="M43 -118h67l13.5 -10t49.5 -10q32 0 49.5 15.5t17.5 44.5q0 30 -16 42t-40 12q-21 0 -33 -5l-12 -5h-56l-1 58l123 108v1l-17 -0.5t-34 -0.5h-106v71h255v-73l-80 -72q-11 -10 -25.5 -20.5l-14.5 -10.5v-1l10.5 3t26.5 3q43 0 72 -26t29 -83q0 -60 -39.5 -95t-112.5 -35
q-60 0 -93 13.5l-33 13.5v62z" />
    <glyph glyph-name="uni2084" unicode="&#x2084;" horiz-adv-x="363" 
d="M29 -124v67l119 260h132v-258h56v-69h-56v-76h-79v76h-172zM105 -55h96v103v27.5t0.5 28.5t0.5 22v9h-13l-11.5 -29t-24.5 -57z" />
    <glyph glyph-name="uni2085" unicode="&#x2085;" horiz-adv-x="347" 
d="M40 -177v62h69l12.5 -11.5t45.5 -11.5q34 0 51 16.5t17 50.5q0 26 -14.5 43t-46.5 17q-30 0 -45.5 -12.5l-15.5 -12.5h-63v53l21 186h228v-71h-114q-15 0 -31.5 0.5l-16.5 0.5l-5 -45q-1 -17 -3.5 -32.5l-2.5 -15.5h2l19.5 8.5t54.5 8.5q52 0 83.5 -32.5t30.5 -92.5
t-35.5 -99.5t-112.5 -39.5q-62 0 -95 15z" />
    <glyph glyph-name="uni2086" unicode="&#x2086;" horiz-adv-x="351" 
d="M257 136q-11 0 -29.5 -5t-38.5 -17.5t-38 -34t-28 -54.5h2l23 15.5t65 15.5q56 0 81.5 -33t25.5 -93q0 -69 -38.5 -103t-103.5 -34t-104.5 33.5t-39.5 114.5v15q0 76 25.5 124.5t55.5 75.5t55.5 37l25.5 10h61v-67zM117 -60q0 -43 16.5 -60.5t47.5 -17.5q29 0 44 18.5
t14 50.5q-1 30 -15 45.5t-40 15.5q-32 0 -49.5 -12.5l-17.5 -12.5v-27z" />
    <glyph glyph-name="uni2087" unicode="&#x2087;" horiz-adv-x="312" 
d="M17 94v109h271v-81l-103 -252q-5 -11 -6 -24.5t-1 -22.5v-23h-82v67l83 201q7 18 16.5 39.5l9.5 21.5v3h-111l-4 -38h-73z" />
    <glyph glyph-name="uni2088" unicode="&#x2088;" horiz-adv-x="371" 
d="M186 -207q-72 0 -108 30t-36 83q0 24 6.5 42t14.5 30.5t14.5 18.5l6.5 6v2l-6 6t-12.5 17.5t-12.5 28.5t-6 39q0 49 34.5 81.5t104.5 32.5t104 -32.5t34 -81.5q0 -22 -6 -39t-12.5 -28.5t-12.5 -17.5l-6 -6v-2l6.5 -6t14.5 -18.5t14.5 -30.5t6.5 -42q0 -53 -35.5 -83
t-107.5 -30zM125 90q0 -28 12 -41l12 -13h74l11.5 13t11.5 41q0 26 -16 39.5t-44 13.5q-29 0 -45 -13.5t-16 -39.5zM186 -140q34 0 50 14.5t16 38.5q0 31 -14 44l-14 13h-76l-14 -13t-14 -44q0 -24 16 -38.5t50 -14.5z" />
    <glyph glyph-name="uni2089" unicode="&#x2089;" horiz-adv-x="351" 
d="M94 -133q11 0 29.5 5t38.5 17.5t38 34t28 54.5h-2l-23 -15.5t-65 -15.5q-56 0 -81.5 33t-25.5 93q0 69 38.5 103t103.5 34t104.5 -33.5t39.5 -114.5v-15q0 -76 -25.5 -124.5t-55.5 -75.5t-55.5 -37l-25.5 -10h-61v67zM112 72q1 -30 15 -45.5t40 -15.5q32 0 49.5 12.5
l17.5 12.5v27q0 43 -16.5 60.5t-47.5 17.5q-29 0 -44 -18.5t-14 -50.5z" />
    <glyph glyph-name="Euro" unicode="&#x20ac;" horiz-adv-x="555" 
d="M379 222h-161q3 -72 30 -105t93 -33q36 0 57 10t31.5 21.5t13.5 21.5l3 10h81v-78l-9.5 -12t-32 -27t-58.5 -27t-88 -12q-114 0 -167 60.5t-57 170.5h-81v79h81v78h-81v79h81q4 110 57 170.5t167 60.5q52 0 88 -12t58.5 -27t32 -27l9.5 -12v-78h-81l-3 10t-13.5 21.5
t-31.5 21.5t-57 10q-66 0 -93 -33t-30 -105h161v-79h-161v-78h161v-79z" />
    <glyph glyph-name="trademark" unicode="&#x2122;" horiz-adv-x="752" 
d="M123 310v296h-90v74h258l-12 -74h-75v-296h-81zM334 310v370h118l39 -128q10 -36 15 -54.5l5 -18.5h2l5.5 18.5t15.5 54.5l39 128h118v-370h-79v179q0 14 0.5 32.5t0.5 35t0.5 28l0.5 11.5h-2l-63 -204h-74l-62 204h-3l0.5 -11.5t0.5 -28t0.5 -35t0.5 -32.5v-179h-78z
" />
    <glyph glyph-name="uni2153" unicode="&#x2153;" horiz-adv-x="809" 
d="M32 277v66l75 9v249h-72v53l81 26h73v-328l75 -9v-66h-232zM560 680h56v-47l-395 -633h-56v47zM498 82h67l13.5 -10t49.5 -10q32 0 49.5 15.5t17.5 44.5q0 30 -16 42t-40 12q-21 0 -33 -5l-12 -5h-56l-1 58l123 108v1l-17 -0.5t-34 -0.5h-106v71h255v-73l-80 -72
q-11 -10 -25.5 -20.5l-14.5 -10.5v-1l10.5 3t26.5 3q43 0 72 -26t29 -83q0 -60 -39.5 -95t-112.5 -35q-60 0 -93 13.5l-33 13.5v62z" />
    <glyph glyph-name="uni2154" unicode="&#x2154;" horiz-adv-x="836" 
d="M306 277h-263v76l139 135q22 22 32.5 38t10.5 39q0 25 -15 37.5t-42 12.5q-36 0 -48 -11l-12 -11h-67v65l34.5 14.5t97.5 14.5t98.5 -30t35.5 -87q0 -44 -17.5 -73t-48.5 -57l-97 -91v-1l18.5 0.5t36.5 0.5h107v-72zM587 680h56v-47l-395 -633h-56v47zM525 82h67
l13.5 -10t49.5 -10q32 0 49.5 15.5t17.5 44.5q0 30 -16 42t-40 12q-21 0 -33 -5l-12 -5h-56l-1 58l123 108v1l-17 -0.5t-34 -0.5h-106v71h255v-73l-80 -72q-11 -10 -25.5 -20.5l-14.5 -10.5v-1l10.5 3t26.5 3q43 0 72 -26t29 -83q0 -60 -39.5 -95t-112.5 -35q-60 0 -93 13.5
l-33 13.5v62z" />
    <glyph glyph-name="oneeighth" unicode="&#x215b;" horiz-adv-x="826" 
d="M32 277v66l75 9v249h-72v53l81 26h73v-328l75 -9v-66h-232zM560 680h56v-47l-395 -633h-56v47zM641 -7q-72 0 -108 30t-36 83q0 24 6.5 42t14.5 30.5t14.5 18.5l6.5 6v2l-6 6t-12.5 17.5t-12.5 28.5t-6 39q0 49 34.5 81.5t104.5 32.5t104 -32.5t34 -81.5q0 -22 -6 -39
t-12.5 -28.5t-12.5 -17.5l-6 -6v-2l6.5 -6t14.5 -18.5t14.5 -30.5t6.5 -42q0 -53 -35.5 -83t-107.5 -30zM580 290q0 -28 12 -41l12 -13h74l11.5 13t11.5 41q0 26 -16 39.5t-44 13.5q-29 0 -45 -13.5t-16 -39.5zM641 60q34 0 50 14.5t16 38.5q0 31 -14 44l-14 13h-76l-14 -13
t-14 -44q0 -24 16 -38.5t50 -14.5z" />
    <glyph glyph-name="threeeighths" unicode="&#x215c;" horiz-adv-x="854" 
d="M43 359h67l13.5 -10t49.5 -10q32 0 49.5 15.5t17.5 44.5q0 30 -16 42t-40 12q-21 0 -33 -5l-12 -5h-56l-1 58l123 108v1l-17 -0.5t-34 -0.5h-106v71h255v-73l-80 -72q-11 -10 -25.5 -20.5l-14.5 -10.5v-1l10.5 3t26.5 3q43 0 72 -26t29 -83q0 -60 -39.5 -95t-112.5 -35
q-60 0 -93 13.5l-33 13.5v62zM588 680h56v-47l-395 -633h-56v47zM669 -7q-72 0 -108 30t-36 83q0 24 6.5 42t14.5 30.5t14.5 18.5l6.5 6v2l-6 6t-12.5 17.5t-12.5 28.5t-6 39q0 49 34.5 81.5t104.5 32.5t104 -32.5t34 -81.5q0 -22 -6 -39t-12.5 -28.5t-12.5 -17.5l-6 -6v-2
l6.5 -6t14.5 -18.5t14.5 -30.5t6.5 -42q0 -53 -35.5 -83t-107.5 -30zM608 290q0 -28 12 -41l12 -13h74l11.5 13t11.5 41q0 26 -16 39.5t-44 13.5q-29 0 -45 -13.5t-16 -39.5zM669 60q34 0 50 14.5t16 38.5q0 31 -14 44l-14 13h-76l-14 -13t-14 -44q0 -24 16 -38.5t50 -14.5z
" />
    <glyph glyph-name="fiveeighths" unicode="&#x215d;" horiz-adv-x="847" 
d="M40 300v62h69l12.5 -11.5t45.5 -11.5q34 0 51 16.5t17 50.5q0 26 -14.5 43t-46.5 17q-30 0 -45.5 -12.5l-15.5 -12.5h-63v53l21 186h228v-71h-114q-15 0 -31.5 0.5l-16.5 0.5l-5 -45q-1 -17 -3.5 -32.5l-2.5 -15.5h2l19.5 8.5t54.5 8.5q52 0 83.5 -32.5t30.5 -92.5
t-35.5 -99.5t-112.5 -39.5q-62 0 -95 15zM581 680h56v-47l-395 -633h-56v47zM662 -7q-72 0 -108 30t-36 83q0 24 6.5 42t14.5 30.5t14.5 18.5l6.5 6v2l-6 6t-12.5 17.5t-12.5 28.5t-6 39q0 49 34.5 81.5t104.5 32.5t104 -32.5t34 -81.5q0 -22 -6 -39t-12.5 -28.5
t-12.5 -17.5l-6 -6v-2l6.5 -6t14.5 -18.5t14.5 -30.5t6.5 -42q0 -53 -35.5 -83t-107.5 -30zM601 290q0 -28 12 -41l12 -13h74l11.5 13t11.5 41q0 26 -16 39.5t-44 13.5q-29 0 -45 -13.5t-16 -39.5zM662 60q34 0 50 14.5t16 38.5q0 31 -14 44l-14 13h-76l-14 -13t-14 -44
q0 -24 16 -38.5t50 -14.5z" />
    <glyph glyph-name="seveneighths" unicode="&#x215e;" horiz-adv-x="796" 
d="M17 571v109h271v-81l-103 -252q-5 -11 -6 -24.5t-1 -22.5v-23h-82v67l83 201q7 18 16.5 39.5l9.5 21.5v3h-111l-4 -38h-73zM530 680h56v-47l-395 -633h-56v47zM611 -7q-72 0 -108 30t-36 83q0 24 6.5 42t14.5 30.5t14.5 18.5l6.5 6v2l-6 6t-12.5 17.5t-12.5 28.5t-6 39
q0 49 34.5 81.5t104.5 32.5t104 -32.5t34 -81.5q0 -22 -6 -39t-12.5 -28.5t-12.5 -17.5l-6 -6v-2l6.5 -6t14.5 -18.5t14.5 -30.5t6.5 -42q0 -53 -35.5 -83t-107.5 -30zM550 290q0 -28 12 -41l12 -13h74l11.5 13t11.5 41q0 26 -16 39.5t-44 13.5q-29 0 -45 -13.5t-16 -39.5z
M611 60q34 0 50 14.5t16 38.5q0 31 -14 44l-14 13h-76l-14 -13t-14 -44q0 -24 16 -38.5t50 -14.5z" />
    <glyph glyph-name="minus" unicode="&#x2212;" horiz-adv-x="600" 
d="M65 344h470v-93h-470v93z" />
    <glyph glyph-name="notequal" unicode="&#x2260;" horiz-adv-x="600" 
d="M119 28v54l38 62h-92v92h148l75 123h-223v93h279l71 116h66v-53l-38 -63h92v-93h-149l-75 -123h224v-92h-280l-71 -116h-65z" />
    <glyph glyph-name="lessequal" unicode="&#x2264;" horiz-adv-x="600" 
d="M274 30h-72l-178 194v55l178 194h72v-60l-82 -84q-8 -9 -19.5 -20l-11.5 -11v-1l19.5 0.5t53.5 0.5h342v-93h-342q-34 0 -53.5 0.5l-19.5 0.5v-1l11.5 -11t19.5 -20l82 -84v-60z" />
    <glyph glyph-name="greaterequal" unicode="&#x2265;" horiz-adv-x="600" 
d="M326 30v60l82 84q8 9 19.5 20l11.5 11v1l-19.5 -0.5t-53.5 -0.5h-342v93h342q34 0 53.5 -0.5l19.5 -0.5v1l-11.5 11t-19.5 20l-82 84v60h72l178 -194v-55l-178 -194h-72z" />
    <glyph glyph-name="zero.slash" horiz-adv-x="582" 
d="M66 240v200q0 127 56.5 188.5t168.5 61.5t168.5 -61.5t56.5 -188.5v-200q0 -127 -56.5 -188.5t-168.5 -61.5t-168.5 61.5t-56.5 188.5zM170 236v-11.5v-9.5l211 350q-14 16 -36.5 23.5t-53.5 7.5q-65 0 -93 -35t-28 -117v-208zM412 444v10.5v9.5l-211 -349
q15 -16 37 -23.5t53 -7.5q65 0 93 35t28 117v208z" />
    <glyph glyph-name="IJacute" horiz-adv-x="789" 
d="M293 896v-72l-200 -99v78l137 93h63zM664 896v-72l-200 -99v78l137 93h63zM49 75l67 10v510l-67 10v75h237v-75l-67 -10v-510l67 -10v-75h-237v75zM373 105h74l13.5 -9.5t51.5 -9.5q49 0 72.5 23.5t23.5 72.5v407h-215v91h318v-489q0 -102 -53 -150t-152 -48
q-63 0 -98 12l-35 12v88z" />
    <glyph glyph-name="i.loclTRK" horiz-adv-x="261" 
d="M68 640q0 26 15.5 42t46.5 16q30 0 45.5 -16t15.5 -42v-8q0 -26 -15.5 -41.5t-45.5 -15.5q-31 0 -46.5 15.5t-15.5 41.5v8zM180 0h-100v513h100v-513z" />
    <glyph glyph-name="ijacute" horiz-adv-x="523" 
d="M163 740h84v-50l-82 -118h-84zM426 740h84v-50l-82 -118h-84zM180 0h-100v513h100v-513zM343 513h100v-498q0 -57 -14.5 -93.5t-32 -57.5t-32 -29l-14.5 -8h-75v83h5q16 0 39.5 15t23.5 75v513z" />
    <glyph glyph-name="guilsinglleft.case" horiz-adv-x="302" 
d="M39 343l161 192h67v-53l-101 -122q-16 -20 -24.5 -29l-8.5 -9v-6l8.5 -9t24.5 -29l101 -122v-53h-67l-161 191v49z" />
    <glyph glyph-name="guilsinglright.case" horiz-adv-x="302" 
d="M263 343v-49l-161 -191h-67v53l101 122q16 20 24.5 29l8.5 9v6l-8.5 9t-24.5 29l-101 122v53h67z" />
    <glyph glyph-name="guillemotleft.case" horiz-adv-x="509" 
d="M39 343l161 192h67v-53l-101 -122q-16 -20 -24.5 -29l-8.5 -9v-6l8.5 -9t24.5 -29l101 -122v-53h-67l-161 191v49zM246 343l161 192h67v-53l-101 -122q-16 -20 -24.5 -29l-8.5 -9v-6l8.5 -9t24.5 -29l101 -122v-53h-67l-161 191v49z" />
    <glyph glyph-name="guillemotright.case" horiz-adv-x="509" 
d="M475 343v-49l-161 -191h-67v53l101 122q16 20 24.5 29l8.5 9v6l-8.5 9t-24.5 29l-101 122v53h67zM268 343v-49l-161 -191h-67v53l101 122q16 20 24.5 29l8.5 9v6l-8.5 9t-24.5 29l-101 122v53h67z" />
    <glyph glyph-name="exclamdown.case" horiz-adv-x="269" 
d="M66 612v7q0 28 17 46.5t51 18.5q33 0 50.5 -17.5t17.5 -47.5v-7q0 -28 -17 -46.5t-51 -18.5q-32 0 -50 18t-18 47zM193 0h-119v68l19 416h81l19 -416v-68z" />
    <glyph glyph-name="questiondown.case" horiz-adv-x="393" 
d="M287 612q0 -29 -17.5 -47t-50.5 -18q-34 0 -51 18.5t-17 46.5v7q0 30 17.5 47.5t50.5 17.5q34 0 51 -18.5t17 -46.5v-7zM263 485v-66l-81 -128q-20 -31 -36.5 -66.5t-15.5 -72.5q1 -34 24 -51.5t67 -17.5q26 0 43.5 5t27 11.5t13.5 11.5l4 5h80v-82l-11 -6.5t-33 -14
t-54.5 -14t-74.5 -6.5q-96 0 -142 41.5t-47 117.5q-1 54 20 100.5t47 87.5l91 145h78z" />
    <glyph glyph-name="braceleft.case" horiz-adv-x="288" 
d="M44 296v88q40 0 56.5 17.5t16.5 51.5v171q0 49 12 81t26.5 50.5t26.5 25.5l12 7h79v-73l-9 -2t-20.5 -10.5t-20.5 -27.5t-9 -52v-171q0 -41 -15.5 -68.5t-46.5 -41.5v-4q31 -14 46.5 -41.5t15.5 -68.5v-171q0 -33 9 -52t20.5 -27.5t20.5 -10.5l9 -2v-73h-79l-12 7
t-26.5 25.5t-26.5 50.5t-12 81v171q0 34 -16.5 51.5t-56.5 17.5z" />
    <glyph glyph-name="braceright.case" horiz-adv-x="288" 
d="M244 296q-40 0 -56.5 -17.5t-16.5 -51.5v-171q0 -49 -12 -81t-26.5 -50.5t-26.5 -25.5l-12 -7h-79v73l9 2t20.5 10.5t20.5 27.5t9 52v171q0 41 15.5 68.5t46.5 41.5v4q-31 14 -46.5 41.5t-15.5 68.5v171q0 33 -9 52t-20.5 27.5t-20.5 10.5l-9 2v73h79l12 -7t26.5 -25.5
t26.5 -50.5t12 -81v-171q0 -34 16.5 -51.5t56.5 -17.5v-88z" />
    <glyph glyph-name="bracketleft.case" horiz-adv-x="303" 
d="M92 788h195v-90h-95v-716h95v-90h-195v896z" />
    <glyph glyph-name="bracketright.case" horiz-adv-x="303" 
d="M211 788v-896h-195v90h95v716h-95v90h195z" />
    <glyph glyph-name="parenleft.case" horiz-adv-x="316" 
d="M70 340q0 87 17 160.5t41 130.5t50 97t45 60h78v-58q-16 -19 -38.5 -53t-43 -82.5t-35 -112.5t-14.5 -142t14 -142t35 -112.5t43.5 -82.5t38.5 -53v-58h-78q-19 20 -45 60t-50 97t-41 130.5t-17 160.5z" />
    <glyph glyph-name="parenright.case" horiz-adv-x="316" 
d="M246 340q0 -87 -17 -160.5t-41 -130.5t-50 -97t-45 -60h-78v58q16 19 38.5 53t43.5 82.5t35 112.5t14 142t-14.5 142t-35 112.5t-43 82.5t-38.5 53v58h78q19 -20 45 -60t50 -97t41 -130.5t17 -160.5z" />
    <glyph glyph-name="emdash.case" horiz-adv-x="1000" 
d="M0 363h1000v-93h-1000v93z" />
    <glyph glyph-name="endash.case" horiz-adv-x="500" 
d="M0 363h500v-93h-500v93z" />
    <glyph glyph-name="hyphen.case" horiz-adv-x="381" 
d="M50 363h282v-93h-282v93z" />
    <glyph glyph-name="at.case" horiz-adv-x="933" 
d="M737 40v-65l-16.5 -10.5t-49.5 -22.5t-84.5 -22.5t-120.5 -10.5q-193 0 -291 100.5t-98 281.5v60q0 177 98 277t292 100q196 0 292 -94.5t96 -264.5v-11q0 -119 -46.5 -175t-126.5 -56q-35 0 -59 9t-38 20t-20 20l-6 9h-3l-7.5 -9t-22.5 -20t-37 -20t-51 -9
q-74 0 -109 46t-35 135v24q0 89 37.5 135.5t106.5 46.5q25 0 44 -7t32 -16t19.5 -16l6.5 -7h3l12 37h69v-211q0 -36 8 -64.5t55 -28.5q36 0 56 29t20 107v31q0 135 -66.5 206.5t-229.5 71.5q-150 0 -223.5 -75t-73.5 -220v-60q0 -147 75.5 -223.5t220.5 -76.5q56 0 95.5 7.5
t64.5 17t36.5 17l11.5 7.5h63zM384 308q0 -59 19 -81.5t57 -22.5q18 0 32 5.5t23.5 12.5t14.5 12.5l5 5.5v162l-5 5.5t-14.5 12t-23.5 12t-32 5.5q-38 0 -57 -23.5t-19 -81.5v-24z" />
    <glyph glyph-name="zero.osf" horiz-adv-x="560" 
d="M51 232v69q0 112 58 176.5t171 64.5t171 -64.5t58 -176.5v-69q0 -112 -58 -176.5t-171 -64.5t-171 64.5t-58 176.5zM153 224q0 -73 33 -109.5t94 -36.5t94 36.5t33 109.5v85q0 73 -33 109.5t-94 36.5t-94 -36.5t-33 -109.5v-85z" />
    <glyph glyph-name="one.osf" horiz-adv-x="376" 
d="M61 431v61l117 41h73v-449l84 -10v-74h-269v74l84 10v347h-89z" />
    <glyph glyph-name="two.osf" horiz-adv-x="481" 
d="M48 417v78l11 7.5t34 16.5t58 16.5t82 7.5q90 0 142 -41t52 -122q0 -40 -18 -82.5t-81 -91.5l-89 -68q-28 -22 -45.5 -35l-17.5 -13v-2l29.5 0.5t72.5 0.5h159v-89h-393v99l217 172q40 32 52 56t12 49q0 36 -23 57.5t-77 21.5q-32 0 -51.5 -6t-30.5 -13t-14.5 -13
l-3.5 -6h-77z" />
    <glyph glyph-name="three.osf" horiz-adv-x="492" 
d="M41 -3h79l22 -14.5t72 -14.5q66 0 97 31t31 82q0 55 -29 76.5t-73 21.5q-31 0 -50.5 -8l-19.5 -8h-69v80l195 200v2l-31 -0.5t-65 -0.5h-152v89h370v-94l-131 -133q-21 -21 -44.5 -39l-23.5 -18l1 -1l16 5t44 5q26 0 55.5 -7.5t53.5 -26.5t39.5 -53t15.5 -86
q0 -99 -62.5 -151t-172.5 -52q-41 0 -73 5.5t-53 11.5t-31.5 11.5l-10.5 5.5v81z" />
    <glyph glyph-name="four.osf" horiz-adv-x="530" 
d="M508 125v-87h-86v-146h-101v146h-294v82l227 413h168v-408h86zM134 125h187v167q0 21 0.5 47.5t1 49.5t1 38.5l0.5 15.5h-17l-19 -37.5t-48 -90.5z" />
    <glyph glyph-name="five.osf" horiz-adv-x="505" 
d="M60 -7h79l21 -12t67 -12q64 0 99 34t35 92q0 49 -24 81t-83 32q-26 0 -45 -6t-31.5 -13.5t-18.5 -13.5l-6 -6h-80v66l21 298h341v-88h-169q-35 0 -59 0.5l-24 0.5l-7 -119q-1 -24 -3.5 -42l-2.5 -18l1 -1l29 14.5t82 14.5q93 0 137 -54t44 -141q0 -96 -61.5 -157
t-179.5 -61q-77 0 -119.5 15.5l-42.5 15.5v80z" />
    <glyph glyph-name="six.osf" horiz-adv-x="521" 
d="M51 236v34q0 110 36.5 182t80.5 114t80.5 58.5l36.5 16.5h78v-76q-8 0 -37 -9t-62 -33t-63.5 -66t-42.5 -108h3l9 9.5t27 21t45.5 21t64.5 9.5q99 0 141 -56.5t42 -146.5q0 -95 -55.5 -156t-161.5 -61q-110 0 -166 61t-56 185zM153 214q0 -66 29.5 -101.5t90.5 -35.5
q59 0 87 35t28 92q0 63 -26.5 91t-80.5 28q-32 0 -56 -10t-40 -21.5t-24 -21.5l-8 -10v-46z" />
    <glyph glyph-name="seven.osf" horiz-adv-x="449" 
d="M24 533h396v-101l-174 -437q-8 -22 -10.5 -45.5t-2.5 -39.5v-18h-99v78l164 410l25 60v3h-207l-8 -55h-84v145z" />
    <glyph glyph-name="eight.osf" horiz-adv-x="557" 
d="M74 474q0 36 11.5 68.5t35.5 57t63 38.5t94 14t94.5 -14t63.5 -38.5t35.5 -57t11.5 -68.5q0 -35 -9 -62t-19 -45t-19 -27.5l-9 -9.5v-4l11 -9t24.5 -28t24.5 -48t11 -68q0 -81 -51 -131t-169 -50q-117 0 -168 50t-51 131q0 39 11 68t24 48t24 28l11 9v4l-8.5 9.5
t-19 27.5t-19 45t-8.5 62zM173 472q0 -28 6.5 -47t15 -31t15 -17l6.5 -5h125l6.5 5t15 17t15 31t6.5 47q0 46 -26 70t-80 24t-79.5 -24t-25.5 -70zM399 181q0 29 -9 49.5t-20.5 32.5t-20.5 17l-9 5h-124l-9 -5t-20 -17t-20 -32.5t-9 -49.5q0 -51 30 -77t90 -26t90.5 26
t30.5 77z" />
    <glyph glyph-name="nine.osf" horiz-adv-x="521" 
d="M470 297v-34q0 -110 -36.5 -182t-80.5 -114t-80.5 -58.5l-36.5 -16.5h-78v76q8 0 37 9t62 33t63.5 66t42.5 108h-3l-9 -9.5t-27 -21t-45.5 -21t-64.5 -9.5q-99 0 -141 56.5t-42 146.5q0 95 55.5 156t161.5 61q110 0 166 -61t56 -185zM240 210q32 0 56 10t40 21.5t24 21.5
l8 10v46q0 66 -29.5 101.5t-90.5 35.5q-59 0 -87 -35t-28 -92q0 -63 26.5 -91t80.5 -28z" />
    <glyph glyph-name="zero.slash.tf" horiz-adv-x="560" 
d="M55 240v200q0 127 56.5 188.5t168.5 61.5t168.5 -61.5t56.5 -188.5v-200q0 -127 -56.5 -188.5t-168.5 -61.5t-168.5 61.5t-56.5 188.5zM159 236v-10.5v-9.5l211 349q-15 16 -37 23.5t-53 7.5q-65 0 -93 -35t-28 -117v-208zM401 444v11.5t-1 10.5l-210 -350
q14 -16 36.5 -24t53.5 -8q65 0 93 35t28 117v208z" />
    <glyph glyph-name="zero.tf" horiz-adv-x="560" 
d="M55 240v200q0 127 56.5 188.5t168.5 61.5t168.5 -61.5t56.5 -188.5v-200q0 -127 -56.5 -188.5t-168.5 -61.5t-168.5 61.5t-56.5 188.5zM159 236q0 -82 28 -117t93 -35t93 35t28 117v208q0 82 -28 117t-93 35t-93 -35t-28 -117v-208z" />
    <glyph glyph-name="one.tf" horiz-adv-x="560" 
d="M90 577v65l182 38h75v-595l160 -12v-73h-422v73l159 12v492h-154z" />
    <glyph glyph-name="two.tf" horiz-adv-x="560" 
d="M68 559v85l14.5 6.5t41 15t64 15t83.5 6.5q107 0 162.5 -45.5t55.5 -138.5q0 -64 -23.5 -113t-84.5 -109l-187 -185v-2l9.5 0.5t24.5 0.5t33 0.5t34 0.5h197v-96h-429v96l258 264q25 26 44.5 58.5t19.5 82.5q0 45 -28.5 70.5t-88.5 25.5q-34 0 -56.5 -6t-36.5 -13
t-20 -13l-6 -6h-81z" />
    <glyph glyph-name="three.tf" horiz-adv-x="560" 
d="M61 32l-1 85h79l7.5 -5t22 -11.5t37 -11.5t51.5 -5q76 0 109.5 30t33.5 84q0 49 -24.5 81t-93.5 32q-31 0 -52 -6.5l-21 -6.5h-71v86l220 201v2h-11.5t-26.5 -0.5t-32 -0.5h-27h-190v94h410v-100l-141 -133q-9 -9 -21.5 -19t-23.5 -18.5t-19 -14l-8 -5.5l1 -2l15.5 3.5
t40.5 3.5q84 0 130.5 -48t46.5 -143q0 -99 -64.5 -155.5t-183.5 -56.5q-44 0 -79.5 6.5t-60.5 13.5t-39 13.5z" />
    <glyph glyph-name="four.tf" horiz-adv-x="560" 
d="M542 230v-91h-95v-139h-102v139h-319v91l242 450h179v-450h95zM132 230h213v208q0 21 0.5 47.5t1 49.5t1 38.5l0.5 15.5h-25l-17 -34.5t-44 -83.5z" />
    <glyph glyph-name="five.tf" horiz-adv-x="560" 
d="M304 433q107 0 154.5 -57.5t47.5 -151.5q0 -105 -62.5 -168.5t-182.5 -63.5q-47 0 -84.5 6.5t-64 15t-40.5 15l-14 6.5v83h82l6 -5.5t20 -11.5t37.5 -11.5t57.5 -5.5q69 0 105.5 36.5t36.5 97.5q0 57 -28 90.5t-94 33.5q-31 0 -54.5 -6.5t-38.5 -15t-22.5 -15l-7.5 -6.5
h-83v68l24 313h375v-94h-182q-37 0 -69 1l-32 1l-8 -101q-1 -13 -2.5 -27.5t-2.5 -27t-2 -21l-1 -8.5h2l36 15t91 15z" />
    <glyph glyph-name="six.tf" horiz-adv-x="560" 
d="M55 238v39q0 125 45.5 204t100 123t100 60l45.5 16h71v-79q-10 0 -46.5 -10.5t-78.5 -37t-79 -73t-48 -118.5h3l10 9.5t29 21.5t48 21.5t67 9.5q52 0 89 -16t59.5 -44.5t33 -67.5t10.5 -85q0 -98 -56.5 -158.5t-169.5 -60.5t-173 60.5t-60 185.5zM157 216
q0 -66 33.5 -101.5t97.5 -35.5q66 0 95 34.5t29 94.5q0 66 -29.5 97.5t-86.5 31.5q-35 0 -61 -8.5t-43.5 -19t-26 -19l-8.5 -8.5v-66z" />
    <glyph glyph-name="seven.tf" horiz-adv-x="560" 
d="M282 0h-101v75l202 441q3 7 8 18.5l10 23t9 20l4 8.5v3h-276l-8 -56h-85v147h470v-112l-222 -491q-7 -16 -9 -31.5t-2 -33.5v-12z" />
    <glyph glyph-name="eight.tf" horiz-adv-x="560" 
d="M57 499q0 84 50 137.5t173 53.5q119 0 171 -53.5t52 -137.5q0 -38 -10.5 -67t-23 -48t-23 -29l-10.5 -10v-2l12 -11t26.5 -31.5t26.5 -51t12 -70.5q0 -87 -54.5 -138t-178.5 -51q-128 0 -180.5 51t-52.5 138q0 40 12 70.5t26.5 51t26.5 31.5l12 11v2l-10.5 10t-23 29
t-23 48t-10.5 67zM160 496q0 -29 7.5 -49t16.5 -32t16.5 -17.5l7.5 -5.5h143l7.5 5.5t17 17.5t17 32t7.5 49q0 52 -28.5 77.5t-91.5 25.5q-67 0 -93.5 -25.5t-26.5 -77.5zM410 186q1 29 -8 50t-20 34.5t-20 20l-9 6.5h-146l-9 -6.5t-20 -20t-20 -34.5t-8 -50q2 -53 31 -79.5
t99 -26.5q66 0 97 26.5t33 79.5z" />
    <glyph glyph-name="nine.tf" horiz-adv-x="560" 
d="M505 442v-39q0 -125 -45.5 -204t-100 -123t-100 -60l-45.5 -16h-71v79q10 0 46.5 10.5t78.5 37t79 73t48 118.5h-3l-10 -9.5t-29 -21.5t-48 -21.5t-67 -9.5q-52 0 -89 16t-59.5 44.5t-33 67.5t-10.5 85q0 98 56.5 158.5t169.5 60.5t173 -60.5t60 -185.5zM264 343
q35 0 61 8.5t43.5 19t26 19l8.5 8.5v66q0 66 -33.5 101.5t-97.5 35.5q-66 0 -95 -34.5t-29 -94.5q0 -66 29.5 -97.5t86.5 -31.5z" />
    <glyph glyph-name="zero.ss02" horiz-adv-x="582" 
d="M66 240v200q0 127 56.5 188.5t168.5 61.5t168.5 -61.5t56.5 -188.5v-200q0 -127 -56.5 -188.5t-168.5 -61.5t-168.5 61.5t-56.5 188.5zM170 236q0 -82 28 -117t93 -35t93 35t28 117v208q0 82 -28 117t-93 35t-93 -35t-28 -117v-208z" />
    <glyph glyph-name="one.ss02" horiz-adv-x="395" 
d="M51 577v63l135 40h75v-595l107 -12v-73h-317v73l107 12v492h-107z" />
    <glyph glyph-name="two.ss02" horiz-adv-x="499" 
d="M55 558v87l12 6.5t35.5 14.5t59.5 14.5t83 6.5q106 0 159 -46.5t53 -136.5q0 -63 -25 -109.5t-94 -92.5l-95 -64q-37 -25 -64 -56t-27 -75v-15l30.5 1t64.5 1h211v-94h-411v75q0 81 32.5 136t104.5 104l95 64q40 27 57 54t17 67q0 46 -27.5 71.5t-86.5 25.5q-31 0 -51 -6
t-31.5 -13.5t-16 -13.5l-4.5 -6h-81z" />
    <glyph glyph-name="three.ss02" horiz-adv-x="527" 
d="M56 557v87l11.5 6.5t35 15t59.5 15t83 6.5q109 0 163.5 -48t54.5 -135q0 -39 -13 -69t-28 -49.5t-28 -30l-13 -10.5v-3l13.5 -8.5t29.5 -27t29.5 -47.5t13.5 -69q0 -95 -58 -146t-168 -51q-49 0 -85.5 7.5t-60.5 16.5t-35.5 16.5l-11.5 7.5v81h81l4.5 -6t16.5 -13.5
t34.5 -13.5t58.5 -6q61 0 90.5 30t29.5 79q0 29 -11.5 49t-24.5 32t-24.5 17l-11.5 5h-161v94h161l10.5 6t23.5 19.5t23.5 34t10.5 48.5q0 48 -28.5 74t-85.5 26q-32 0 -53 -6.5t-33 -13.5t-17 -13.5l-5 -6.5h-81z" />
    <glyph glyph-name="four.ss02" horiz-adv-x="534" 
d="M512 229v-90h-89v-139h-102v139h-298v91l221 450h179v-451h89zM126 229h195v209q0 21 0.5 48t1 50t1 39l0.5 16h-24l-16 -37t-41 -88z" />
    <glyph glyph-name="five.ss02" horiz-adv-x="525" 
d="M286 433q100 0 146.5 -57.5t46.5 -151.5q0 -105 -60 -168.5t-176 -63.5q-47 0 -83 6.5t-60 14.5t-36 14.5l-12 6.5v84h81l4.5 -5.5t17 -11.5t34 -11.5t55.5 -5.5q68 0 100 36.5t32 97.5q0 57 -25 90.5t-87 33.5q-29 0 -50.5 -6.5t-35.5 -15t-20.5 -15l-6.5 -6.5h-83v68
l25 313h355v-94h-173q-37 0 -64 1l-27 1l-8 -101q-1 -13 -2.5 -27.5t-2.5 -27t-1.5 -21l-0.5 -8.5h2l30 15t85 15z" />
    <glyph glyph-name="six.ss02" horiz-adv-x="542" 
d="M473 558h-81l-4 6t-14.5 13.5t-29.5 13.5t-48 6q-63 0 -94.5 -33t-31.5 -108v-35q0 -20 -0.5 -35.5l-0.5 -15.5h2l8.5 9t25.5 19t43 19t60 9q102 0 145.5 -56t43.5 -159q0 -106 -52 -163.5t-161 -57.5q-116 0 -167 60t-51 194v193q0 131 60 192t173 61q43 0 76 -7.5
t54.5 -16.5t32.5 -16.5l11 -7.5v-84zM170 229q-1 -82 27 -113.5t86 -31.5t84.5 30t26.5 95q0 64 -24.5 95t-81.5 31q-31 0 -53 -8.5t-36.5 -18t-21.5 -18l-7 -8.5v-53z" />
    <glyph glyph-name="seven.ss02" horiz-adv-x="476" 
d="M304 261q-27 -45 -37 -96t-10 -113v-52h-103v59q0 67 14 125.5t51 120.5l53 89q27 43 44.5 79.5t17.5 83.5v29h-212l-8 -51h-86v145h407l1 -86q0 -40 -4 -69t-13 -55t-23.5 -53t-36.5 -63z" />
    <glyph glyph-name="eight.ss02" horiz-adv-x="564" 
d="M66 499q0 84 51.5 137.5t164.5 53.5t164 -53.5t51 -137.5q0 -37 -10 -66t-22.5 -48.5t-22.5 -29.5l-10 -10v-2l12 -11t25.5 -31.5t25.5 -50.5t12 -68q0 -87 -53.5 -139.5t-171.5 -52.5t-172 52.5t-54 139.5q0 38 12 68t26 50.5t26 31.5l12 11v2l-10.5 10t-22.5 29.5
t-22.5 48.5t-10.5 66zM170 496q0 -29 7 -49t16 -32t16 -17.5l7 -5.5h131l7.5 5.5t16 17.5t16 32t7.5 49q0 52 -27.5 77.5t-84.5 25.5t-84.5 -25.5t-27.5 -77.5zM404 186q1 29 -7.5 50t-19 34.5t-19 20l-8.5 6.5h-136l-9 -6.5t-19 -20t-18.5 -34.5t-7.5 -50q1 -53 31.5 -79.5
t90.5 -26.5t90.5 26.5t31.5 79.5z" />
    <glyph glyph-name="nine.ss02" horiz-adv-x="542" 
d="M54 122h81l4 -6t14.5 -13.5t29.5 -13.5t48 -6q63 0 94.5 33t31.5 108v35q0 20 0.5 35.5l0.5 15.5h-2l-8.5 -9t-25.5 -19t-43 -19t-60 -9q-102 0 -145.5 56t-43.5 159q0 106 52 163.5t161 57.5q116 0 167 -60t51 -194v-193q0 -131 -60 -192t-173 -61q-43 0 -76 7.5
t-54.5 16.5t-32.5 16.5l-11 7.5v84zM133 471q0 -64 24.5 -95t81.5 -31q31 0 53 8.5t36.5 18t21.5 18l7 8.5v53q1 82 -27 113.5t-86 31.5t-84.5 -30t-26.5 -95z" />
    <glyph glyph-name="zero.dnom" horiz-adv-x="386" 
d="M193 -7q-74 0 -111.5 40.5t-37.5 108.5v119q0 68 37.5 108.5t111.5 40.5t111.5 -40.5t37.5 -108.5v-119q0 -68 -37.5 -108.5t-111.5 -40.5zM193 338q-36 0 -51.5 -20t-15.5 -56v-121q0 -36 15.5 -56t51.5 -20t51.5 20t15.5 56v121q0 36 -15.5 56t-51.5 20z" />
    <glyph glyph-name="one.dnom" horiz-adv-x="287" 
d="M32 0v66l75 9v249h-72v53l81 26h73v-328l75 -9v-66h-232z" />
    <glyph glyph-name="two.dnom" horiz-adv-x="348" 
d="M306 0h-263v76l139 135q22 22 32.5 38t10.5 39q0 25 -15 37.5t-42 12.5q-36 0 -48 -11l-12 -11h-67v65l34.5 14.5t97.5 14.5t98.5 -30t35.5 -87q0 -44 -17.5 -73t-48.5 -57l-97 -91v-1l18.5 0.5t36.5 0.5h107v-72z" />
    <glyph glyph-name="three.dnom" horiz-adv-x="354" 
d="M43 82h67l13.5 -10t49.5 -10q32 0 49.5 15.5t17.5 44.5q0 30 -16 42t-40 12q-21 0 -33 -5l-12 -5h-56l-1 58l123 108v1l-17 -0.5t-34 -0.5h-106v71h255v-73l-80 -72q-11 -10 -25.5 -20.5l-14.5 -10.5v-1l10.5 3t26.5 3q43 0 72 -26t29 -83q0 -60 -39.5 -95t-112.5 -35
q-60 0 -93 13.5l-33 13.5v62z" />
    <glyph glyph-name="four.dnom" horiz-adv-x="363" 
d="M29 76v67l119 260h132v-258h56v-69h-56v-76h-79v76h-172zM105 145h96v103v27.5t0.5 28.5t0.5 22v9h-13l-11.5 -29t-24.5 -57z" />
    <glyph glyph-name="five.dnom" horiz-adv-x="347" 
d="M40 23v62h69l12.5 -11.5t45.5 -11.5q34 0 51 16.5t17 50.5q0 26 -14.5 43t-46.5 17q-30 0 -45.5 -12.5l-15.5 -12.5h-63v53l21 186h228v-71h-114q-15 0 -31.5 0.5l-16.5 0.5l-5 -45q-1 -17 -3.5 -32.5l-2.5 -15.5h2l19.5 8.5t54.5 8.5q52 0 83.5 -32.5t30.5 -92.5
t-35.5 -99.5t-112.5 -39.5q-62 0 -95 15z" />
    <glyph glyph-name="six.dnom" horiz-adv-x="351" 
d="M257 336q-11 0 -29.5 -5t-38.5 -17.5t-38 -34t-28 -54.5h2l23 15.5t65 15.5q56 0 81.5 -33t25.5 -93q0 -69 -38.5 -103t-103.5 -34t-104.5 33.5t-39.5 114.5v15q0 76 25.5 124.5t55.5 75.5t55.5 37l25.5 10h61v-67zM117 140q0 -43 16.5 -60.5t47.5 -17.5q29 0 44 18.5
t14 50.5q-1 30 -15 45.5t-40 15.5q-32 0 -49.5 -12.5l-17.5 -12.5v-27z" />
    <glyph glyph-name="seven.dnom" horiz-adv-x="312" 
d="M17 294v109h271v-81l-103 -252q-5 -11 -6 -24.5t-1 -22.5v-23h-82v67l83 201q7 18 16.5 39.5l9.5 21.5v3h-111l-4 -38h-73z" />
    <glyph glyph-name="eight.dnom" horiz-adv-x="371" 
d="M186 -7q-72 0 -108 30t-36 83q0 24 6.5 42t14.5 30.5t14.5 18.5l6.5 6v2l-6 6t-12.5 17.5t-12.5 28.5t-6 39q0 49 34.5 81.5t104.5 32.5t104 -32.5t34 -81.5q0 -22 -6 -39t-12.5 -28.5t-12.5 -17.5l-6 -6v-2l6.5 -6t14.5 -18.5t14.5 -30.5t6.5 -42q0 -53 -35.5 -83
t-107.5 -30zM125 290q0 -28 12 -41l12 -13h74l11.5 13t11.5 41q0 26 -16 39.5t-44 13.5q-29 0 -45 -13.5t-16 -39.5zM186 60q34 0 50 14.5t16 38.5q0 31 -14 44l-14 13h-76l-14 -13t-14 -44q0 -24 16 -38.5t50 -14.5z" />
    <glyph glyph-name="nine.dnom" horiz-adv-x="351" 
d="M94 67q11 0 29.5 5t38.5 17.5t38 34t28 54.5h-2l-23 -15.5t-65 -15.5q-56 0 -81.5 33t-25.5 93q0 69 38.5 103t103.5 34t104.5 -33.5t39.5 -114.5v-15q0 -76 -25.5 -124.5t-55.5 -75.5t-55.5 -37l-25.5 -10h-61v67zM112 272q1 -30 15 -45.5t40 -15.5q32 0 49.5 12.5
l17.5 12.5v27q0 43 -16.5 60.5t-47.5 17.5q-29 0 -44 -18.5t-14 -50.5z" />
    <glyph glyph-name="zero.numr" horiz-adv-x="386" 
d="M193 270q-74 0 -111.5 40.5t-37.5 108.5v119q0 68 37.5 108.5t111.5 40.5t111.5 -40.5t37.5 -108.5v-119q0 -68 -37.5 -108.5t-111.5 -40.5zM193 615q-36 0 -51.5 -20t-15.5 -56v-121q0 -36 15.5 -56t51.5 -20t51.5 20t15.5 56v121q0 36 -15.5 56t-51.5 20z" />
    <glyph glyph-name="one.numr" horiz-adv-x="287" 
d="M32 277v66l75 9v249h-72v53l81 26h73v-328l75 -9v-66h-232z" />
    <glyph glyph-name="two.numr" horiz-adv-x="348" 
d="M306 277h-263v76l139 135q22 22 32.5 38t10.5 39q0 25 -15 37.5t-42 12.5q-36 0 -48 -11l-12 -11h-67v65l34.5 14.5t97.5 14.5t98.5 -30t35.5 -87q0 -44 -17.5 -73t-48.5 -57l-97 -91v-1l18.5 0.5t36.5 0.5h107v-72z" />
    <glyph glyph-name="three.numr" horiz-adv-x="354" 
d="M43 359h67l13.5 -10t49.5 -10q32 0 49.5 15.5t17.5 44.5q0 30 -16 42t-40 12q-21 0 -33 -5l-12 -5h-56l-1 58l123 108v1l-17 -0.5t-34 -0.5h-106v71h255v-73l-80 -72q-11 -10 -25.5 -20.5l-14.5 -10.5v-1l10.5 3t26.5 3q43 0 72 -26t29 -83q0 -60 -39.5 -95t-112.5 -35
q-60 0 -93 13.5l-33 13.5v62z" />
    <glyph glyph-name="four.numr" horiz-adv-x="363" 
d="M29 353v67l119 260h132v-258h56v-69h-56v-76h-79v76h-172zM105 422h96v103v27.5t0.5 28.5t0.5 22v9h-13l-11.5 -29t-24.5 -57z" />
    <glyph glyph-name="five.numr" horiz-adv-x="347" 
d="M40 300v62h69l12.5 -11.5t45.5 -11.5q34 0 51 16.5t17 50.5q0 26 -14.5 43t-46.5 17q-30 0 -45.5 -12.5l-15.5 -12.5h-63v53l21 186h228v-71h-114q-15 0 -31.5 0.5l-16.5 0.5l-5 -45q-1 -17 -3.5 -32.5l-2.5 -15.5h2l19.5 8.5t54.5 8.5q52 0 83.5 -32.5t30.5 -92.5
t-35.5 -99.5t-112.5 -39.5q-62 0 -95 15z" />
    <glyph glyph-name="six.numr" horiz-adv-x="351" 
d="M257 613q-11 0 -29.5 -5t-38.5 -17.5t-38 -34t-28 -54.5h2l23 15.5t65 15.5q56 0 81.5 -33t25.5 -93q0 -69 -38.5 -103t-103.5 -34t-104.5 33.5t-39.5 114.5v15q0 76 25.5 124.5t55.5 75.5t55.5 37l25.5 10h61v-67zM117 417q0 -43 16.5 -60.5t47.5 -17.5q29 0 44 18.5
t14 50.5q-1 30 -15 45.5t-40 15.5q-32 0 -49.5 -12.5l-17.5 -12.5v-27z" />
    <glyph glyph-name="seven.numr" horiz-adv-x="312" 
d="M17 571v109h271v-81l-103 -252q-5 -11 -6 -24.5t-1 -22.5v-23h-82v67l83 201q7 18 16.5 39.5l9.5 21.5v3h-111l-4 -38h-73z" />
    <glyph glyph-name="eight.numr" horiz-adv-x="371" 
d="M186 270q-72 0 -108 30t-36 83q0 24 6.5 42t14.5 30.5t14.5 18.5l6.5 6v2l-6 6t-12.5 17.5t-12.5 28.5t-6 39q0 49 34.5 81.5t104.5 32.5t104 -32.5t34 -81.5q0 -22 -6 -39t-12.5 -28.5t-12.5 -17.5l-6 -6v-2l6.5 -6t14.5 -18.5t14.5 -30.5t6.5 -42q0 -53 -35.5 -83
t-107.5 -30zM125 567q0 -28 12 -41l12 -13h74l11.5 13t11.5 41q0 26 -16 39.5t-44 13.5q-29 0 -45 -13.5t-16 -39.5zM186 337q34 0 50 14.5t16 38.5q0 31 -14 44l-14 13h-76l-14 -13t-14 -44q0 -24 16 -38.5t50 -14.5z" />
    <glyph glyph-name="nine.numr" horiz-adv-x="351" 
d="M94 344q11 0 29.5 5t38.5 17.5t38 34t28 54.5h-2l-23 -15.5t-65 -15.5q-56 0 -81.5 33t-25.5 93q0 69 38.5 103t103.5 34t104.5 -33.5t39.5 -114.5v-15q0 -76 -25.5 -124.5t-55.5 -75.5t-55.5 -37l-25.5 -10h-61v67zM112 549q1 -30 15 -45.5t40 -15.5q32 0 49.5 12.5
l17.5 12.5v27q0 43 -16.5 60.5t-47.5 17.5q-29 0 -44 -18.5t-14 -50.5z" />
    <glyph glyph-name="M.alt" horiz-adv-x="752" 
d="M85 0v680h126l105 -243q12 -27 22.5 -52.5t18.5 -45t12.5 -31.5l4.5 -12h4l4.5 12t12.5 31.5t18.5 45t22.5 52.5l105 243h126v-680h-100v374q0 23 1 53t2.5 56.5t2.5 44.5l1 18h-3l-4.5 -12t-12 -30t-16.5 -40t-18 -43l-101 -234h-86l-101 234q-9 21 -18 43t-16.5 40
t-12 30l-4.5 12h-3l1 -18t2.5 -44.5t2.5 -56.5t1 -53v-374h-100z" />
    <glyph glyph-name="a.alt" horiz-adv-x="561" 
d="M50 237v40q0 110 46.5 175.5t144.5 65.5q34 0 61 -8.5t45.5 -18t27.5 -17.5l9 -8h3l13 47h81v-513h-84l-13 55h-3l-9.5 -9.5t-28.5 -20.5t-47.5 -20.5t-66.5 -9.5q-96 0 -137.5 63t-41.5 179zM261 82q29 0 51.5 7.5t37.5 16.5t23 16.5l8 7.5v259l-7.5 6.5t-21.5 14.5
t-35 14.5t-49 6.5q-66 0 -91 -43.5t-25 -122.5v-17q0 -81 20.5 -123.5t88.5 -42.5z" />
    <glyph glyph-name="aacute.alt" horiz-adv-x="561" 
d="M308 740h84v-50l-82 -118h-84zM50 237v40q0 110 46.5 175.5t144.5 65.5q34 0 61 -8.5t45.5 -18t27.5 -17.5l9 -8h3l13 47h81v-513h-84l-13 55h-3l-9.5 -9.5t-28.5 -20.5t-47.5 -20.5t-66.5 -9.5q-96 0 -137.5 63t-41.5 179zM261 82q29 0 51.5 7.5t37.5 16.5t23 16.5
l8 7.5v259l-7.5 6.5t-21.5 14.5t-35 14.5t-49 6.5q-66 0 -91 -43.5t-25 -122.5v-17q0 -81 20.5 -123.5t88.5 -42.5z" />
    <glyph glyph-name="abreve.alt" horiz-adv-x="561" 
d="M135 713h69l1.5 -10t8 -21.5t20.5 -21.5t40 -10t40 10t20.5 21.5t8 21.5l1.5 10h68v-54l-6 -12.5t-21.5 -28t-42.5 -28t-68 -12.5t-68 12.5t-42.5 28t-22 28l-6.5 12.5v54zM50 237v40q0 110 46.5 175.5t144.5 65.5q34 0 61 -8.5t45.5 -18t27.5 -17.5l9 -8h3l13 47h81
v-513h-84l-13 55h-3l-9.5 -9.5t-28.5 -20.5t-47.5 -20.5t-66.5 -9.5q-96 0 -137.5 63t-41.5 179zM261 82q29 0 51.5 7.5t37.5 16.5t23 16.5l8 7.5v259l-7.5 6.5t-21.5 14.5t-35 14.5t-49 6.5q-66 0 -91 -43.5t-25 -122.5v-17q0 -81 20.5 -123.5t88.5 -42.5z" />
    <glyph glyph-name="acircumflex.alt" horiz-adv-x="561" 
d="M132 571v44l101 125h82l101 -125v-44h-63l-43 57q-14 17 -24 31l-10 14h-4l-10 -14t-24 -31l-43 -57h-63zM50 237v40q0 110 46.5 175.5t144.5 65.5q34 0 61 -8.5t45.5 -18t27.5 -17.5l9 -8h3l13 47h81v-513h-84l-13 55h-3l-9.5 -9.5t-28.5 -20.5t-47.5 -20.5t-66.5 -9.5
q-96 0 -137.5 63t-41.5 179zM261 82q29 0 51.5 7.5t37.5 16.5t23 16.5l8 7.5v259l-7.5 6.5t-21.5 14.5t-35 14.5t-49 6.5q-66 0 -91 -43.5t-25 -122.5v-17q0 -81 20.5 -123.5t88.5 -42.5z" />
    <glyph glyph-name="adieresis.alt" horiz-adv-x="561" 
d="M137 645q0 25 14.5 40t44.5 15q31 0 45 -15.5t14 -39.5v-8q0 -25 -14.5 -40t-44.5 -15q-31 0 -45 16t-14 39v8zM292 645q0 25 15 40t44 15q31 0 45 -15.5t14 -39.5v-8q0 -25 -14.5 -40t-44.5 -15t-44.5 16t-14.5 39v8zM50 237v40q0 110 46.5 175.5t144.5 65.5
q34 0 61 -8.5t45.5 -18t27.5 -17.5l9 -8h3l13 47h81v-513h-84l-13 55h-3l-9.5 -9.5t-28.5 -20.5t-47.5 -20.5t-66.5 -9.5q-96 0 -137.5 63t-41.5 179zM261 82q29 0 51.5 7.5t37.5 16.5t23 16.5l8 7.5v259l-7.5 6.5t-21.5 14.5t-35 14.5t-49 6.5q-66 0 -91 -43.5t-25 -122.5
v-17q0 -81 20.5 -123.5t88.5 -42.5z" />
    <glyph glyph-name="uni1EA1.alt" horiz-adv-x="561" 
d="M50 237v40q0 110 46.5 175.5t144.5 65.5q34 0 61 -8.5t45.5 -18t27.5 -17.5l9 -8h3l13 47h81v-513h-84l-13 55h-3l-9.5 -9.5t-28.5 -20.5t-47.5 -20.5t-66.5 -9.5q-96 0 -137.5 63t-41.5 179zM261 82q29 0 51.5 7.5t37.5 16.5t23 16.5l8 7.5v259l-7.5 6.5t-21.5 14.5
t-35 14.5t-49 6.5q-66 0 -91 -43.5t-25 -122.5v-17q0 -81 20.5 -123.5t88.5 -42.5zM213 -129q0 26 15.5 42t46.5 16q30 0 45.5 -16t15.5 -42v-8q0 -26 -15.5 -41.5t-45.5 -15.5q-31 0 -46.5 15.5t-15.5 41.5v8z" />
    <glyph glyph-name="agrave.alt" horiz-adv-x="561" 
d="M256 740l82 -168h-84l-82 118v50h84zM50 237v40q0 110 46.5 175.5t144.5 65.5q34 0 61 -8.5t45.5 -18t27.5 -17.5l9 -8h3l13 47h81v-513h-84l-13 55h-3l-9.5 -9.5t-28.5 -20.5t-47.5 -20.5t-66.5 -9.5q-96 0 -137.5 63t-41.5 179zM261 82q29 0 51.5 7.5t37.5 16.5
t23 16.5l8 7.5v259l-7.5 6.5t-21.5 14.5t-35 14.5t-49 6.5q-66 0 -91 -43.5t-25 -122.5v-17q0 -81 20.5 -123.5t88.5 -42.5z" />
    <glyph glyph-name="amacron.alt" horiz-adv-x="561" 
d="M129 693h288v-79h-288v79zM50 237v40q0 110 46.5 175.5t144.5 65.5q34 0 61 -8.5t45.5 -18t27.5 -17.5l9 -8h3l13 47h81v-513h-84l-13 55h-3l-9.5 -9.5t-28.5 -20.5t-47.5 -20.5t-66.5 -9.5q-96 0 -137.5 63t-41.5 179zM261 82q29 0 51.5 7.5t37.5 16.5t23 16.5l8 7.5
v259l-7.5 6.5t-21.5 14.5t-35 14.5t-49 6.5q-66 0 -91 -43.5t-25 -122.5v-17q0 -81 20.5 -123.5t88.5 -42.5z" />
    <glyph glyph-name="aogonek.alt" horiz-adv-x="561" 
d="M50 237v40q0 110 46.5 175.5t144.5 65.5q34 0 61 -8.5t45.5 -18t27.5 -17.5l9 -8h3l13 47h81v-513l-34 -33q-18 -16 -26.5 -27.5t-8.5 -24.5t10.5 -21.5t26.5 -8.5h18v-66h-31q-46 0 -73.5 23.5t-27.5 65.5q0 30 15.5 53.5t40.5 46.5l3 3l-10 44h-3l-9.5 -9.5
t-28.5 -20.5t-47.5 -20.5t-66.5 -9.5q-96 0 -137.5 63t-41.5 179zM261 82q29 0 51.5 7.5t37.5 16.5t23 16.5l8 7.5v259l-7.5 6.5t-21.5 14.5t-35 14.5t-49 6.5q-66 0 -91 -43.5t-25 -122.5v-17q0 -81 20.5 -123.5t88.5 -42.5z" />
    <glyph glyph-name="aring.alt" horiz-adv-x="561" 
d="M164 667q0 50 30.5 79.5t79.5 29.5t79.5 -29.5t30.5 -79.5q0 -49 -30.5 -78.5t-79.5 -29.5t-79.5 29.5t-30.5 78.5zM229 667q0 -19 11.5 -32.5t33.5 -13.5q23 0 34 13.5t11 32.5q0 20 -11 33.5t-34 13.5q-22 0 -33.5 -13.5t-11.5 -33.5zM50 237v40q0 110 46.5 175.5
t144.5 65.5q34 0 61 -8.5t45.5 -18t27.5 -17.5l9 -8h3l13 47h81v-513h-84l-13 55h-3l-9.5 -9.5t-28.5 -20.5t-47.5 -20.5t-66.5 -9.5q-96 0 -137.5 63t-41.5 179zM261 82q29 0 51.5 7.5t37.5 16.5t23 16.5l8 7.5v259l-7.5 6.5t-21.5 14.5t-35 14.5t-49 6.5q-66 0 -91 -43.5
t-25 -122.5v-17q0 -81 20.5 -123.5t88.5 -42.5z" />
    <glyph glyph-name="atilde.alt" horiz-adv-x="561" 
d="M94 603v64l5.5 7t17 16t30.5 16t46 7q20 0 40.5 -4.5t36.5 -10.5l24 -8q13 -6 25.5 -9t26.5 -3q30 0 38.5 14l8.5 14h61v-63l-5.5 -7t-17 -16t-30.5 -16t-46 -7q-21 0 -41 4.5t-36 10.5l-24 8q-14 5 -26.5 8.5t-26.5 3.5q-30 0 -38.5 -14.5l-8.5 -14.5h-60zM50 237v40
q0 110 46.5 175.5t144.5 65.5q34 0 61 -8.5t45.5 -18t27.5 -17.5l9 -8h3l13 47h81v-513h-84l-13 55h-3l-9.5 -9.5t-28.5 -20.5t-47.5 -20.5t-66.5 -9.5q-96 0 -137.5 63t-41.5 179zM261 82q29 0 51.5 7.5t37.5 16.5t23 16.5l8 7.5v259l-7.5 6.5t-21.5 14.5t-35 14.5t-49 6.5
q-66 0 -91 -43.5t-25 -122.5v-17q0 -81 20.5 -123.5t88.5 -42.5z" />
    <glyph glyph-name="g.alt" horiz-adv-x="558" 
d="M106 -152v79h64l22.5 -9t64.5 -9q60 0 91 24.5t31 75.5v13q0 25 0.5 40.5l0.5 15.5h-3l-9.5 -9t-28 -20.5t-46.5 -20.5t-65 -9q-95 0 -136.5 59t-41.5 174v32q0 110 45.5 172t142.5 62q35 0 62 -8t45 -17.5t27.5 -17.5l9.5 -8h3l12 46h81v-486q0 -101 -59 -153t-162 -52
q-73 0 -112 13zM152 262q0 -80 20.5 -118.5t86.5 -38.5q29 0 51 7.5t37 16.5t23 16.5l8 7.5v239l-7 6t-21 13.5t-34.5 13.5t-48.5 6q-66 0 -90.5 -39t-24.5 -119v-11z" />
    <glyph glyph-name="gbreve.alt" horiz-adv-x="558" 
d="M135 713h69l1.5 -10t8 -21.5t20.5 -21.5t40 -10t40 10t20.5 21.5t8 21.5l1.5 10h68v-54l-6 -12.5t-21.5 -28t-42.5 -28t-68 -12.5t-68 12.5t-42.5 28t-22 28l-6.5 12.5v54zM106 -152v79h64l22.5 -9t64.5 -9q60 0 91 24.5t31 75.5v13q0 25 0.5 40.5l0.5 15.5h-3l-9.5 -9
t-28 -20.5t-46.5 -20.5t-65 -9q-95 0 -136.5 59t-41.5 174v32q0 110 45.5 172t142.5 62q35 0 62 -8t45 -17.5t27.5 -17.5l9.5 -8h3l12 46h81v-486q0 -101 -59 -153t-162 -52q-73 0 -112 13zM152 262q0 -80 20.5 -118.5t86.5 -38.5q29 0 51 7.5t37 16.5t23 16.5l8 7.5v239
l-7 6t-21 13.5t-34.5 13.5t-48.5 6q-66 0 -90.5 -39t-24.5 -119v-11z" />
    <glyph glyph-name="gcaron.alt" horiz-adv-x="558" 
d="M416 740v-44l-101 -125h-82l-101 125v44h63l43 -57q14 -17 24 -31l10 -14h4l10 14t24 31l43 57h63zM106 -152v79h64l22.5 -9t64.5 -9q60 0 91 24.5t31 75.5v13q0 25 0.5 40.5l0.5 15.5h-3l-9.5 -9t-28 -20.5t-46.5 -20.5t-65 -9q-95 0 -136.5 59t-41.5 174v32
q0 110 45.5 172t142.5 62q35 0 62 -8t45 -17.5t27.5 -17.5l9.5 -8h3l12 46h81v-486q0 -101 -59 -153t-162 -52q-73 0 -112 13zM152 262q0 -80 20.5 -118.5t86.5 -38.5q29 0 51 7.5t37 16.5t23 16.5l8 7.5v239l-7 6t-21 13.5t-34.5 13.5t-48.5 6q-66 0 -90.5 -39t-24.5 -119
v-11z" />
    <glyph glyph-name="gcircumflex.alt" horiz-adv-x="558" 
d="M132 571v44l101 125h82l101 -125v-44h-63l-43 57q-14 17 -24 31l-10 14h-4l-10 -14t-24 -31l-43 -57h-63zM106 -152v79h64l22.5 -9t64.5 -9q60 0 91 24.5t31 75.5v13q0 25 0.5 40.5l0.5 15.5h-3l-9.5 -9t-28 -20.5t-46.5 -20.5t-65 -9q-95 0 -136.5 59t-41.5 174v32
q0 110 45.5 172t142.5 62q35 0 62 -8t45 -17.5t27.5 -17.5l9.5 -8h3l12 46h81v-486q0 -101 -59 -153t-162 -52q-73 0 -112 13zM152 262q0 -80 20.5 -118.5t86.5 -38.5q29 0 51 7.5t37 16.5t23 16.5l8 7.5v239l-7 6t-21 13.5t-34.5 13.5t-48.5 6q-66 0 -90.5 -39t-24.5 -119
v-11z" />
    <glyph glyph-name="uni0123.alt" horiz-adv-x="558" 
d="M364 752l-6.5 -14t-14.5 -38t-14.5 -57.5t-6.5 -71.5h-103v40q8 37 19.5 63.5t21.5 43.5t17 25.5l7 8.5h80zM106 -152v79h64l22.5 -9t64.5 -9q60 0 91 24.5t31 75.5v13q0 25 0.5 40.5l0.5 15.5h-3l-9.5 -9t-28 -20.5t-46.5 -20.5t-65 -9q-95 0 -136.5 59t-41.5 174v32
q0 110 45.5 172t142.5 62q35 0 62 -8t45 -17.5t27.5 -17.5l9.5 -8h3l12 46h81v-486q0 -101 -59 -153t-162 -52q-73 0 -112 13zM152 262q0 -80 20.5 -118.5t86.5 -38.5q29 0 51 7.5t37 16.5t23 16.5l8 7.5v239l-7 6t-21 13.5t-34.5 13.5t-48.5 6q-66 0 -90.5 -39t-24.5 -119
v-11z" />
    <glyph glyph-name="gdotaccent.alt" horiz-adv-x="558" 
d="M212 640q0 26 15.5 42t46.5 16q30 0 45.5 -16t15.5 -42v-8q0 -26 -15.5 -41.5t-45.5 -15.5q-31 0 -46.5 15.5t-15.5 41.5v8zM106 -152v79h64l22.5 -9t64.5 -9q60 0 91 24.5t31 75.5v13q0 25 0.5 40.5l0.5 15.5h-3l-9.5 -9t-28 -20.5t-46.5 -20.5t-65 -9q-95 0 -136.5 59
t-41.5 174v32q0 110 45.5 172t142.5 62q35 0 62 -8t45 -17.5t27.5 -17.5l9.5 -8h3l12 46h81v-486q0 -101 -59 -153t-162 -52q-73 0 -112 13zM152 262q0 -80 20.5 -118.5t86.5 -38.5q29 0 51 7.5t37 16.5t23 16.5l8 7.5v239l-7 6t-21 13.5t-34.5 13.5t-48.5 6
q-66 0 -90.5 -39t-24.5 -119v-11z" />
    <glyph glyph-name="i.alt" horiz-adv-x="273" 
d="M82 677q0 26 15 42t46 16t46.5 -16t15.5 -42v-8q0 -26 -15.5 -41.5t-46.5 -15.5t-46 15.5t-15 41.5v8zM193 513v-513h-100v427l-62 10v76h162z" />
    <glyph glyph-name="dotlessi.alt" horiz-adv-x="274" 
d="M193 513v-513h-100v427l-62 10v76h162z" />
    <glyph glyph-name="iacute.alt" horiz-adv-x="274" 
d="M148 740h84v-50l-82 -118h-84zM193 513v-513h-100v427l-62 10v76h162z" />
    <glyph glyph-name="ibreve.alt" horiz-adv-x="274" 
d="M-24 713h69l1.5 -10t8 -21.5t20.5 -21.5t40 -10t40 10t20.5 21.5t8 21.5l1.5 10h68v-54l-6 -12.5t-21.5 -28t-42.5 -28t-68 -12.5t-68 12.5t-42.5 28t-22 28l-6.5 12.5v54zM193 513v-513h-100v427l-62 10v76h162z" />
    <glyph glyph-name="icircumflex.alt" horiz-adv-x="274" 
d="M-27 571v44l101 125h82l101 -125v-44h-63l-43 57q-14 17 -24 31l-10 14h-4l-10 -14t-24 -31l-43 -57h-63zM193 513v-513h-100v427l-62 10v76h162z" />
    <glyph glyph-name="idieresis.alt" horiz-adv-x="274" 
d="M-22 645q0 25 14.5 40t44.5 15q31 0 45 -15.5t14 -39.5v-8q0 -25 -14.5 -40t-44.5 -15q-31 0 -45 16t-14 39v8zM133 645q0 25 15 40t44 15q31 0 45 -15.5t14 -39.5v-8q0 -25 -14.5 -40t-44.5 -15t-44.5 16t-14.5 39v8zM193 513v-513h-100v427l-62 10v76h162z" />
    <glyph glyph-name="uni1ECB.alt" horiz-adv-x="273" 
d="M82 677q0 26 15 42t46 16t46.5 -16t15.5 -42v-8q0 -26 -15.5 -41.5t-46.5 -15.5t-46 15.5t-15 41.5v8zM193 513v-513h-100v427l-62 10v76h162zM81 -129q0 26 15.5 42t46.5 16q30 0 45.5 -16t15.5 -42v-8q0 -26 -15.5 -41.5t-45.5 -15.5q-31 0 -46.5 15.5t-15.5 41.5v8z
" />
    <glyph glyph-name="igrave.alt" horiz-adv-x="274" 
d="M83 740l82 -168h-84l-82 118v50h84zM193 513v-513h-100v427l-62 10v76h162z" />
    <glyph glyph-name="imacron.alt" horiz-adv-x="274" 
d="M-30 693h288v-79h-288v79zM193 513v-513h-100v427l-62 10v76h162z" />
    <glyph glyph-name="iogonek.alt" horiz-adv-x="274" 
d="M53 640q0 26 15.5 42t46.5 16q30 0 45.5 -16t15.5 -42v-8q0 -26 -15.5 -41.5t-45.5 -15.5q-31 0 -46.5 15.5t-15.5 41.5v8zM193 0l-34 -33q-18 -16 -26.5 -27.5t-8.5 -24.5t10.5 -21.5t26.5 -8.5h18v-66h-31q-46 0 -73.5 23.5t-27.5 65.5q0 28 13 49.5t35 42.5h-2v427
l-62 10v76h162v-513z" />
    <glyph glyph-name="itilde.alt" horiz-adv-x="274" 
d="M-65 603v64l5.5 7t17 16t30.5 16t46 7q20 0 40.5 -4.5t36.5 -10.5l24 -8q13 -6 25.5 -9t26.5 -3q30 0 38.5 14l8.5 14h61v-63l-5.5 -7t-17 -16t-30.5 -16t-46 -7q-21 0 -41 4.5t-36 10.5l-24 8q-14 5 -26.5 8.5t-26.5 3.5q-30 0 -38.5 -14.5l-8.5 -14.5h-60zM193 513
v-513h-100v427l-62 10v76h162z" />
    <glyph glyph-name="j.alt" horiz-adv-x="273" 
d="M82 669v8q0 26 15.5 42t46.5 16q30 0 45.5 -16t15.5 -42v-8q0 -26 -15.5 -41.5t-45.5 -15.5q-31 0 -46.5 15.5t-15.5 41.5zM26 -173v82h5q16 0 39.5 17t23.5 79v422l-62 10v76h162v-498q0 -57 -14.5 -93.5t-32 -57.5t-32 -29l-14.5 -8h-75z" />
    <glyph glyph-name="uni0237.alt" horiz-adv-x="274" 
d="M26 -173v82h5q16 0 39.5 17t23.5 79v422l-62 10v76h162v-498q0 -57 -14.5 -93.5t-32 -57.5t-32 -29l-14.5 -8h-75z" />
    <glyph glyph-name="jcircumflex.alt" horiz-adv-x="274" 
d="M-27 571v44l101 125h82l101 -125v-44h-63l-43 57q-14 17 -24 31l-10 14h-4l-10 -14t-24 -31l-43 -57h-63zM26 -173v82h5q16 0 39.5 17t23.5 79v422l-62 10v76h162v-498q0 -57 -14.5 -93.5t-32 -57.5t-32 -29l-14.5 -8h-75z" />
    <glyph glyph-name="y.alt" 
d="M114 -150v77h64l21.5 -9t64.5 -9q60 0 90 27t30 76v10q0 25 1 42l1 17h-3l-9.5 -10t-29.5 -22t-50 -22t-70 -10q-69 0 -109 38t-40 115v343h100v-330q0 -39 21.5 -59.5t68.5 -20.5q27 0 49 8t37 17t23.5 17l8.5 8v360h100v-486q0 -99 -58 -152t-162 -53q-75 0 -112 14z
" />
    <glyph glyph-name="yacute.alt" 
d="M315 740h84v-50l-82 -118h-84zM114 -150v77h64l21.5 -9t64.5 -9q60 0 90 27t30 76v10q0 25 1 42l1 17h-3l-9.5 -10t-29.5 -22t-50 -22t-70 -10q-69 0 -109 38t-40 115v343h100v-330q0 -39 21.5 -59.5t68.5 -20.5q27 0 49 8t37 17t23.5 17l8.5 8v360h100v-486
q0 -99 -58 -152t-162 -53q-75 0 -112 14z" />
    <glyph glyph-name="ycircumflex.alt" 
d="M140 571v44l101 125h82l101 -125v-44h-63l-43 57q-14 17 -24 31l-10 14h-4l-10 -14t-24 -31l-43 -57h-63zM114 -150v77h64l21.5 -9t64.5 -9q60 0 90 27t30 76v10q0 25 1 42l1 17h-3l-9.5 -10t-29.5 -22t-50 -22t-70 -10q-69 0 -109 38t-40 115v343h100v-330
q0 -39 21.5 -59.5t68.5 -20.5q27 0 49 8t37 17t23.5 17l8.5 8v360h100v-486q0 -99 -58 -152t-162 -53q-75 0 -112 14z" />
    <glyph glyph-name="ydieresis.alt" 
d="M145 645q0 25 14.5 40t44.5 15q31 0 45 -15.5t14 -39.5v-8q0 -25 -14.5 -40t-44.5 -15q-31 0 -45 16t-14 39v8zM300 645q0 25 15 40t44 15q31 0 45 -15.5t14 -39.5v-8q0 -25 -14.5 -40t-44.5 -15t-44.5 16t-14.5 39v8zM114 -150v77h64l21.5 -9t64.5 -9q60 0 90 27t30 76
v10q0 25 1 42l1 17h-3l-9.5 -10t-29.5 -22t-50 -22t-70 -10q-69 0 -109 38t-40 115v343h100v-330q0 -39 21.5 -59.5t68.5 -20.5q27 0 49 8t37 17t23.5 17l8.5 8v360h100v-486q0 -99 -58 -152t-162 -53q-75 0 -112 14z" />
    <glyph glyph-name="ygrave.alt" 
d="M249 740l82 -168h-84l-82 118v50h84zM114 -150v77h64l21.5 -9t64.5 -9q60 0 90 27t30 76v10q0 25 1 42l1 17h-3l-9.5 -10t-29.5 -22t-50 -22t-70 -10q-69 0 -109 38t-40 115v343h100v-330q0 -39 21.5 -59.5t68.5 -20.5q27 0 49 8t37 17t23.5 17l8.5 8v360h100v-486
q0 -99 -58 -152t-162 -53q-75 0 -112 14z" />
    <glyph glyph-name="uni0233.alt" 
d="M137 693h288v-79h-288v79zM114 -150v77h64l21.5 -9t64.5 -9q60 0 90 27t30 76v10q0 25 1 42l1 17h-3l-9.5 -10t-29.5 -22t-50 -22t-70 -10q-69 0 -109 38t-40 115v343h100v-330q0 -39 21.5 -59.5t68.5 -20.5q27 0 49 8t37 17t23.5 17l8.5 8v360h100v-486q0 -99 -58 -152
t-162 -53q-75 0 -112 14z" />
    <glyph glyph-name="uni1EF9.alt" 
d="M102 603v64l5.5 7t17 16t30.5 16t46 7q20 0 40.5 -4.5t36.5 -10.5l24 -8q13 -6 25.5 -9t26.5 -3q30 0 38.5 14l8.5 14h61v-63l-5.5 -7t-17 -16t-30.5 -16t-46 -7q-21 0 -41 4.5t-36 10.5l-24 8q-14 5 -26.5 8.5t-26.5 3.5q-30 0 -38.5 -14.5l-8.5 -14.5h-60zM114 -150v77
h64l21.5 -9t64.5 -9q60 0 90 27t30 76v10q0 25 1 42l1 17h-3l-9.5 -10t-29.5 -22t-50 -22t-70 -10q-69 0 -109 38t-40 115v343h100v-330q0 -39 21.5 -59.5t68.5 -20.5q27 0 49 8t37 17t23.5 17l8.5 8v360h100v-486q0 -99 -58 -152t-162 -53q-75 0 -112 14z" />
    <glyph glyph-name="caroncomb.alt" horiz-adv-x="241" 
d="M47 550l4.5 15.5t9.5 41.5t9.5 60.5t4.5 72.5h101v-47q-14 -68 -30.5 -105.5l-16.5 -37.5h-82z" />
    <glyph glyph-name="uni0326.alt" horiz-adv-x="237" 
d="M207 752l-6.5 -14t-14.5 -38t-14.5 -57.5t-6.5 -71.5h-103v40q8 37 19.5 63.5t21.5 43.5t17 25.5l7 8.5h80z" />
    <glyph glyph-name="uni0308.case" horiz-adv-x="329" 
d="M28 805q0 25 14.5 40t44.5 15q31 0 45 -15.5t14 -39.5v-8q0 -25 -14.5 -40t-44.5 -15q-31 0 -45 16t-14 39v8zM183 805q0 25 15 40t44 15q31 0 45 -15.5t14 -39.5v-8q0 -25 -14.5 -40t-44.5 -15t-44.5 16t-14.5 39v8z" />
    <glyph glyph-name="gravecomb.case" horiz-adv-x="270" 
d="M35 896h63l137 -93v-78l-200 99v72z" />
    <glyph glyph-name="acutecomb.case" horiz-adv-x="270" 
d="M235 896v-72l-200 -99v78l137 93h63z" />
    <glyph glyph-name="uni0302.case" horiz-adv-x="335" 
d="M35 737v43l97 88h71l97 -88v-43h-63l-34 32q-13 13 -23 22.5l-10 9.5h-5l-9.5 -9.5l-22.5 -22.5l-35 -32h-63z" />
    <glyph glyph-name="uni030C.case" horiz-adv-x="316" 
d="M26 868h63l35 -32l22.5 -22.5l9.5 -9.5h5l10 9.5t23 22.5l34 32h63v-43l-97 -88h-71l-97 88v43z" />
    <glyph glyph-name="uni030A.case" horiz-adv-x="268" 
d="M22 733q0 51 31 81t81 30t81 -30t31 -81t-31 -81t-81 -30t-81 30t-31 81zM88 733q0 -20 11.5 -33.5t34.5 -13.5t34.5 13.5t11.5 33.5t-11.5 33.5t-34.5 13.5t-34.5 -13.5t-11.5 -33.5z" />
    <glyph glyph-name="tildecomb.case" horiz-adv-x="406" 
d="M23 749v64l5.5 7t17 16t30.5 16t46 7q20 0 40.5 -4.5t36.5 -10.5l24 -8q13 -6 25.5 -9t26.5 -3q30 0 38.5 14l8.5 14h61v-63l-5.5 -7t-17 -16t-30.5 -16t-46 -7q-21 0 -41 4.5t-36 10.5l-24 8q-14 5 -26.5 8.5t-26.5 3.5q-30 0 -38.5 -14.5l-8.5 -14.5h-60z" />
    <glyph glyph-name="uni0336.case" horiz-adv-x="667" 
d="M20 589h627v-86h-627v86z" />
    <glyph glyph-name="uni0338.case" horiz-adv-x="520" 
d="M449 730h61v-50l-439 -730h-61v50z" />
    </font>
</defs>
</svg>
