<?xml version="1.0" standalone="no"?>
<!DOCTYPE svg PUBLIC "-//W3C//DTD SVG 1.1//EN" "http://www.w3.org/Graphics/SVG/1.1/DTD/svg11.dtd" >
<svg xmlns="http://www.w3.org/2000/svg" xmlns:xlink="http://www.w3.org/1999/xlink" version="1.1">
<metadata>
Created by FontForge 20201107 at Tue Oct 10 13:36:14 2017
 By 
Copyright (c) 2017 In~igo Jerez. All rights reserved.
</metadata>
<defs>
<font id="FCBARCELONA-Extrabold" horiz-adv-x="571" >
  <font-face 
    font-family="FC BARCELONA Extrabold"
    font-weight="800"
    font-stretch="normal"
    units-per-em="1000"
    panose-1="0 0 9 0 0 0 0 0 0 0"
    ascent="790"
    descent="-210"
    x-height="523"
    cap-height="680"
    bbox="-150 -252 1332 1067"
    underline-thickness="0"
    underline-position="0"
    unicode-range="U+0020-FB02"
  />
<missing-glyph horiz-adv-x="500" 
d="M0 0v680h500v-680h-500zM60 620v-560h380v560h-380z" />
    <glyph glyph-name="fi" unicode="fi" horiz-adv-x="602" 
d="M368 678q0 41 25 63.5t71 22.5t70.5 -22.5t24.5 -63.5v-12q0 -41 -24.5 -63.5t-70.5 -22.5t-71 22.5t-25 63.5v12zM378 0v390h-129v-390h-172v390h-69v133h69v30q0 54 14.5 90t31.5 57.5t31.5 30.5l14.5 9h135v-127h-4q-23 0 -37 -15.5t-14 -43.5v-31h301v-523h-172z" />
    <glyph glyph-name="fl" unicode="fl" horiz-adv-x="605" 
d="M8 523h69v30q0 54 14.5 90t31.5 57.5t31.5 30.5l14.5 9h135v-127h-4q-23 0 -37 -15.5t-14 -43.5v-31h126v217h172v-563q0 -22 9.5 -31t26.5 -9h7v-137h-130l-13.5 5.5t-29 22t-29 47t-13.5 80.5v235h-126v-390h-172v390h-69v133z" />
    <glyph glyph-name="f_f" unicode="ff" horiz-adv-x="651" 
d="M8 523h69v33q0 59 14.5 95.5t31.5 56t31.5 26l14.5 6.5h135v-134h-7q-23 0 -35.5 -11t-12.5 -39v-33h146v33q0 59 14.5 95.5t31.5 56t31.5 26l14.5 6.5h135v-134h-7q-23 0 -35.5 -11t-12.5 -39v-33h68v-133h-68v-390h-172v390h-146v-390h-172v390h-69v133z" />
    <glyph glyph-name="f_f_i" unicode="ffi" horiz-adv-x="920" 
d="M686 678q0 41 25 63.5t71 22.5t70.5 -22.5t24.5 -63.5v-12q0 -41 -24.5 -63.5t-70.5 -22.5t-71 22.5t-25 63.5v12zM8 523h69v33q0 59 14.5 95.5t31.5 56t31.5 26l14.5 6.5h135v-134h-7q-23 0 -35.5 -11t-12.5 -39v-33h146v30q0 54 14.5 90t31.5 57.5t31.5 30.5l14.5 9
h135v-127h-4q-23 0 -37 -15.5t-14 -43.5v-31h301v-523h-172v390h-129v-390h-172v390h-146v-390h-172v390h-69v133z" />
    <glyph glyph-name="f_f_l" unicode="ffl" horiz-adv-x="923" 
d="M8 523h69v33q0 59 14.5 95.5t31.5 56t31.5 26l14.5 6.5h135v-134h-7q-23 0 -35.5 -11t-12.5 -39v-33h146v30q0 54 14.5 90t31.5 57.5t31.5 30.5l14.5 9h135v-127h-4q-23 0 -37 -15.5t-14 -43.5v-31h126v217h172v-563q0 -22 9.5 -31t26.5 -9h7v-137h-130l-13.5 5.5t-29 22
t-29 47t-13.5 80.5v235h-126v-390h-172v390h-146v-390h-172v390h-69v133z" />
    <glyph glyph-name=".notdef" horiz-adv-x="500" 
d="M0 0v680h500v-680h-500zM60 620v-560h380v560h-380z" />
    <glyph glyph-name=".null" horiz-adv-x="0" 
 />
    <glyph glyph-name="nonmarkingreturn" horiz-adv-x="333" 
 />
    <glyph glyph-name="space" unicode=" " horiz-adv-x="195" 
 />
    <glyph glyph-name="exclam" unicode="!" horiz-adv-x="279" 
d="M236 680v-101l-25 -346h-144l-25 346v101h194zM38 98q0 45 26.5 71t75.5 26q51 0 76.5 -27t25.5 -70v-9q0 -44 -26.5 -70.5t-75.5 -26.5q-50 0 -76 27t-26 70v9z" />
    <glyph glyph-name="quotedbl" unicode="&#x22;" horiz-adv-x="454" 
d="M44 370v310h140v-310h-140zM271 370v310h140v-310h-140z" />
    <glyph glyph-name="numbersign" unicode="#" horiz-adv-x="680" 
d="M42 292h125l19 98h-111v117h135l35 173h111v-72l-20 -101h82l35 173h111v-72l-20 -101h95v-117h-119l-20 -98h106v-116h-129l-36 -176h-110v72l21 104h-83l-36 -176h-111v72l21 104h-101v116zM292 292h83l20 98h-83z" />
    <glyph glyph-name="dollar" unicode="$" horiz-adv-x="546" 
d="M55 204h124l2.5 -6t11.5 -12.5t25.5 -12.5t44.5 -6q34 0 51.5 13.5t17.5 34.5q0 18 -14.5 29t-53.5 24l-58 20q-67 22 -105 61t-38 115q0 66 36.5 111t108.5 60v183h137v-180q61 -7 94 -20.5l33 -13.5v-127h-125l-1.5 6t-8 12.5t-20 12.5t-37.5 6q-31 0 -46 -12.5
t-15 -30.5t14 -27.5t51 -22.5l59 -21q68 -23 108 -62.5t40 -111.5q0 -66 -34.5 -114.5t-112.5 -64.5v-185h-137v180q-74 6 -113 20.5l-39 14.5v127z" />
    <glyph glyph-name="percent" unicode="%" horiz-adv-x="960" 
d="M201 261q-75 0 -122.5 41t-47.5 120v107q0 78 47.5 119t122.5 41t123 -41t48 -119v-107q0 -79 -48 -120t-123 -41zM621 680h87v-78l-369 -602h-87v78zM201 582q-21 0 -31 -12.5t-10 -34.5v-120q0 -22 10 -34.5t31 -12.5t31.5 12.5t10.5 34.5v120q0 22 -10.5 34.5
t-31.5 12.5zM759 -10q-75 0 -122.5 41t-47.5 120v107q0 78 47.5 119t122.5 41t123 -41t48 -119v-107q0 -79 -48 -120t-123 -41zM759 311q-21 0 -31 -12.5t-10 -34.5v-120q0 -22 10 -34.5t31 -12.5t31.5 12.5t10.5 34.5v120q0 22 -10.5 34.5t-31.5 12.5z" />
    <glyph glyph-name="ampersand" unicode="&#x26;" horiz-adv-x="628" 
d="M38 186q0 60 25.5 102.5t68.5 70.5q-27 35 -38.5 70t-11.5 78q0 92 59.5 137.5t158.5 45.5t158.5 -45t59.5 -133q0 -73 -42 -114.5t-111 -72.5l80 -78q1 6 1 12.5v13.5v65h133v-69q0 -35 -6 -68t-18 -62l45 -44v-95h-105l-33 32q-34 -20 -79.5 -31.5t-101.5 -11.5
q-127 0 -185 51t-58 146zM235 506q0 -23 8.5 -42t25.5 -41l6 3q55 23 72.5 40t17.5 42q0 28 -17 42.5t-48 14.5q-33 0 -49 -16.5t-16 -42.5zM193 195q0 -39 24 -58t71 -19q22 0 40.5 2.5t34.5 7.5l-137 132q-18 -13 -25.5 -30t-7.5 -35z" />
    <glyph glyph-name="quotesingle" unicode="'" horiz-adv-x="227" 
d="M44 370v310h140v-310h-140z" />
    <glyph glyph-name="parenleft" unicode="(" horiz-adv-x="340" 
d="M51 275q1 137 42 251t119 197h121v-96q-58 -70 -89.5 -153.5t-32.5 -198.5q0 -115 32 -198t90 -154v-96h-121q-78 83 -120 197t-41 251z" />
    <glyph glyph-name="parenright" unicode=")" horiz-adv-x="340" 
d="M290 275q1 -137 -41 -251t-120 -197h-121v96q58 71 90 154t32 198q-1 115 -32.5 198.5t-89.5 153.5v96h121q78 -83 119 -197t42 -251z" />
    <glyph glyph-name="asterisk" unicode="*" horiz-adv-x="457" 
d="M178 726h101v-47q0 -31 -3.5 -61.5l-3.5 -30.5l1 -1l25 18.5t52 34.5l40 23l51 -88l-40 -23q-27 -16 -55.5 -28l-28.5 -12v-2l28.5 -11.5t55.5 -27.5l40 -24l-51 -87l-40 23q-27 15 -52 33.5l-25 18.5l-1 -1l3.5 -30.5t3.5 -61.5v-46h-101v46q0 31 3.5 61.5l3.5 30.5
l-1 1l-25 -18.5t-51 -33.5l-41 -23l-50 87l40 24q26 16 54.5 27.5l28.5 11.5v2l-28.5 12t-54.5 28l-40 23l50 88l41 -23q26 -16 51 -34.5l25 -18.5l1 1l-3.5 30.5t-3.5 61.5v47z" />
    <glyph glyph-name="plus" unicode="+" horiz-adv-x="600" 
d="M53 373h172v173h150v-173h173v-150h-173v-172h-150v172h-172v150z" />
    <glyph glyph-name="comma" unicode="," horiz-adv-x="249" 
d="M2 -148l7 24.5t15 67t15 101.5t7 127h159v-104q-9 -54 -22.5 -95t-26 -67.5t-21.5 -40l-9 -13.5h-124z" />
    <glyph glyph-name="hyphen" unicode="-" horiz-adv-x="369" 
d="M44 325h282v-150h-282v150z" />
    <glyph glyph-name="period" unicode="." horiz-adv-x="249" 
d="M29 95q0 42 25 66t71 24t71 -24t25 -66v-12q0 -42 -25 -66.5t-71 -24.5t-71 24.5t-25 66.5v12z" />
    <glyph glyph-name="slash" unicode="/" horiz-adv-x="403" 
d="M259 680h133v-105l-249 -575h-132v105z" />
    <glyph glyph-name="zero" unicode="0" horiz-adv-x="581" 
d="M44 238v205q0 124 61 187t186 63q124 0 185 -63t61 -187v-205q0 -124 -61 -187.5t-185 -63.5q-125 0 -186 63.5t-61 187.5zM222 222q0 -40 14.5 -59.5t54.5 -19.5q39 0 53.5 19.5t14.5 59.5v237q0 39 -14.5 58.5t-53.5 19.5q-40 0 -54.5 -19.5t-14.5 -58.5v-237z" />
    <glyph glyph-name="one" unicode="1" horiz-adv-x="416" 
d="M41 523v104l118 53h150v-545l87 -16v-119h-352v119l87 16v388h-90z" />
    <glyph glyph-name="two" unicode="2" horiz-adv-x="508" 
d="M30 504v142l15 6.5t42.5 14t67.5 14t90 6.5q124 0 180 -48t56 -145q-1 -69 -29.5 -119t-84.5 -102l-121 -115v-2l26 1t57 1h145v-158h-444v160l223 226q22 22 38 46t16 52q0 29 -17 44.5t-54 15.5q-24 0 -38 -6.5t-21.5 -13.5t-9.5 -13.5l-2 -6.5h-135z" />
    <glyph glyph-name="three" unicode="3" horiz-adv-x="524" 
d="M33 29v137h135l13.5 -15t61.5 -15q43 0 62.5 17.5t19.5 48.5q0 28 -16.5 46.5t-53.5 18.5q-28 0 -41.5 -6l-13.5 -6h-103v133l161 135v2h-8.5t-21 -0.5t-27.5 -0.5h-28h-130v156h427v-157l-106 -84q-10 -8 -22.5 -17t-23.5 -17t-18.5 -13.5l-7.5 -5.5l1 -2l14 3t36 3
q30 0 58 -10.5t49 -32t34 -56t13 -81.5q0 -107 -65 -163t-193 -56q-47 0 -85 6t-65 13t-41.5 13z" />
    <glyph glyph-name="four" unicode="4" horiz-adv-x="562" 
d="M548 263v-145h-80v-118h-167v118h-280v146l183 416h264v-417h80zM179 263h122v84q0 21 0.5 53t1.5 61.5t1.5 50.5l0.5 21h-14l-15 -40t-37 -91z" />
    <glyph glyph-name="five" unicode="5" horiz-adv-x="537" 
d="M320 440q100 0 143 -57.5t43 -148.5q0 -114 -60 -178.5t-191 -64.5q-51 0 -91 6.5t-67.5 14.5t-42 14.5l-14.5 6.5v138h135l2.5 -5t10 -11.5t23 -11.5t40.5 -5q46 0 64.5 23.5t18.5 62.5t-17.5 59t-55.5 20q-21 0 -36 -5.5t-24.5 -11.5t-14 -11.5l-4.5 -5.5h-127v100
l25 311h393v-156h-170q-25 0 -51 0.5l-26 0.5l-5 -55q-1 -18 -3 -36.5l-2 -18.5l2 -1l25.5 13t76.5 13z" />
    <glyph glyph-name="six" unicode="6" horiz-adv-x="545" 
d="M36 245v38q0 116 38.5 193.5t84 122t84 63l38.5 18.5h138v-136q-13 0 -40 -6t-56.5 -23.5t-57 -48.5t-40.5 -80h3l6.5 8.5t21.5 18t39 18t59 8.5q93 0 132.5 -57.5t39.5 -154.5q0 -122 -65 -180t-182 -58q-120 0 -181.5 64t-61.5 192zM212 219q0 -46 16.5 -68t53.5 -22
q35 0 52 22t17 73t-16 69.5t-48 18.5q-38 0 -56.5 -15.5l-18.5 -15.5v-62z" />
    <glyph glyph-name="seven" unicode="7" horiz-adv-x="496" 
d="M302 0h-177v118l137 332q5 12 11 26t11.5 26t9 20l3.5 8v3h-128l-8 -51h-147v198h458v-168l-147 -358q-16 -45 -19.5 -81t-3.5 -62v-11z" />
    <glyph glyph-name="eight" unicode="8" horiz-adv-x="572" 
d="M48 498q0 91 58 143t180 52t180 -52t58 -143q0 -38 -10 -67t-21.5 -47.5t-21.5 -28l-10 -9.5v-4l11.5 -10t25 -29t25 -48t11.5 -67q0 -94 -60 -147.5t-188 -53.5t-188 53.5t-60 147.5q0 38 11.5 67t25.5 48t25.5 29l11.5 10v4l-10 9.5t-22 28t-22 47.5t-10 67zM215 485
q0 -39 15.5 -54l15.5 -15h80l15.5 15t15.5 54q0 34 -17 51.5t-54 17.5t-54 -17.5t-17 -51.5zM363 201q0 19 -5.5 33t-11.5 22.5t-11.5 13l-5.5 4.5h-86l-5.5 -4.5t-11.5 -13t-11.5 -22.5t-5.5 -33q0 -37 20 -55.5t57 -18.5t57 18.5t20 55.5z" />
    <glyph glyph-name="nine" unicode="9" horiz-adv-x="545" 
d="M509 435v-38q0 -116 -38.5 -193.5t-84 -122t-84 -63l-38.5 -18.5h-138v136q13 0 40 6t56.5 23.5t57 48.5t40.5 80h-3l-6.5 -8.5t-21.5 -18t-39 -18t-59 -8.5q-93 0 -132.5 57.5t-39.5 154.5q0 122 65 180t182 58q120 0 181.5 -64t61.5 -192zM258 368q38 0 56.5 15.5
l18.5 15.5v62q0 46 -16.5 68t-53.5 22q-35 0 -52 -22t-17 -73t16 -69.5t48 -18.5z" />
    <glyph glyph-name="colon" unicode=":" horiz-adv-x="249" 
d="M29 428q0 42 25 66t71 24t71 -24t25 -66v-12q0 -42 -25 -66.5t-71 -24.5t-71 24.5t-25 66.5v12zM29 95q0 42 25 66t71 24t71 -24t25 -66v-12q0 -42 -25 -66.5t-71 -24.5t-71 24.5t-25 66.5v12z" />
    <glyph glyph-name="semicolon" unicode=";" horiz-adv-x="249" 
d="M29 428q0 42 25 66t71 24t71 -24t25 -66v-12q0 -42 -25 -66.5t-71 -24.5t-71 24.5t-25 66.5v12zM2 -148l7 24.5t15 67t15 101.5t7 127h159v-104q-9 -54 -22.5 -95t-26 -67.5t-21.5 -40l-9 -13.5h-124z" />
    <glyph glyph-name="less" unicode="&#x3c;" horiz-adv-x="600" 
d="M44 360l423 168h90v-124l-168 -62q-15 -6 -36.5 -13t-41 -13.5t-33.5 -11l-14 -4.5v-4l14 -4.5t33.5 -11t41 -13.5t36.5 -13l168 -62v-124h-90l-423 168v124z" />
    <glyph glyph-name="equal" unicode="=" horiz-adv-x="600" 
d="M53 493h495v-150h-495v150zM53 254h495v-150h-495v150z" />
    <glyph glyph-name="greater" unicode="&#x3e;" horiz-adv-x="600" 
d="M556 360v-124l-423 -168h-90v124l168 62q15 6 36.5 13t41 13.5t33.5 11l14 4.5v4l-14 4.5t-33.5 11t-41 13.5t-36.5 13l-168 62v124h90z" />
    <glyph glyph-name="question" unicode="?" horiz-adv-x="430" 
d="M120 231v105l73 86q22 22 33.5 43.5t11.5 40.5t-12 28t-35 9q-17 0 -27 -5t-15.5 -11.5t-7 -11.5l-1.5 -5h-134v136l13 6.5t37.5 14t61 14t83.5 6.5q113 0 161.5 -45.5t48.5 -133.5q0 -49 -19.5 -93.5t-49.5 -79.5l-81 -104h-141zM97 98q0 45 26.5 71t75.5 26
q51 0 76.5 -27t25.5 -70v-9q0 -44 -26.5 -70.5t-75.5 -26.5t-75.5 27t-26.5 70v9z" />
    <glyph glyph-name="at" unicode="@" horiz-adv-x="903" 
d="M738 3v-91l-17.5 -10.5t-53.5 -23.5t-90.5 -23.5t-127.5 -10.5q-195 0 -296.5 96.5t-101.5 284.5v58q0 184 104 282t304 98q196 0 294.5 -91.5t98.5 -271.5v-16q0 -120 -51.5 -173.5t-135.5 -53.5q-37 0 -62 9t-40.5 19.5t-22 19.5l-6.5 9h-4l-8 -9t-23.5 -19.5
t-37.5 -19.5t-50 -9q-76 0 -109 48.5t-33 138.5v25q0 92 35.5 139.5t106.5 47.5q26 0 46 -7t33 -15t19.5 -15l6.5 -7h4l14 36h95v-213q0 -37 8 -56.5t37 -19.5q25 0 37.5 21t12.5 77v42q0 132 -62 191t-203 59q-133 0 -206 -61.5t-73 -204.5v-58q0 -145 74 -206t199 -61
q55 0 92 7t59 15.5t31.5 15.5l9.5 7h93zM395 244q0 -48 13 -65.5t41 -17.5q30 0 43.5 15l13.5 15v135l-13.5 14.5t-42.5 14.5q-28 0 -41.5 -18t-13.5 -67v-26z" />
    <glyph glyph-name="A" unicode="A" horiz-adv-x="622" 
d="M25 0v93l146 587h280l146 -587v-93h-154l-29 124q-25 -4 -51.5 -6.5t-52.5 -2.5t-52 2.5t-51 6.5l-29 -124h-153zM263 366l-23 -101q17 -2 34.5 -3.5t35.5 -1.5t35.5 1.5t34.5 3.5l-24 101q-4 19 -10.5 47.5t-12 54.5t-9.5 44.5l-4 18.5h-26l-3 -18.5t-7.5 -44.5
t-10 -54.5t-10.5 -47.5z" />
    <glyph glyph-name="B" unicode="B" horiz-adv-x="590" 
d="M57 0v680h272q122 0 172.5 -50t50.5 -134q0 -39 -12.5 -67.5t-27.5 -47t-27.5 -27.5l-12.5 -9v-3l13.5 -9.5t30 -28t30 -47t13.5 -66.5q0 -88 -53.5 -139.5t-169.5 -51.5h-279zM321 540h-98v-129h120l6.5 3.5t13.5 12t13.5 21t6.5 30.5q0 23 -15 42.5t-47 19.5zM344 279
h-121v-138h103q32 0 48 21t16 49q0 18 -7 31t-16 21t-16 12z" />
    <glyph glyph-name="C" unicode="C" horiz-adv-x="548" 
d="M40 254v173q0 135 68 198.5t193 63.5q56 0 96.5 -10t67 -22.5t39 -22.5l12.5 -10v-145h-140l-1.5 8.5t-8.5 19t-21.5 19t-39.5 8.5q-51 0 -69 -26t-18 -75v-185q0 -49 18 -75t69 -26q25 0 39.5 8.5t21.5 18.5t8.5 18.5l1.5 8.5h140v-144l-12.5 -10.5t-39 -22.5t-67 -22.5
t-96.5 -10.5q-125 0 -193 64t-68 199z" />
    <glyph glyph-name="D" unicode="D" horiz-adv-x="618" 
d="M57 0v680h263q120 0 189 -60t69 -196v-167q0 -136 -69 -196.5t-189 -60.5h-263zM311 529h-76v-377h76q44 0 66.5 21t22.5 69v196q0 49 -22.5 70t-66.5 21z" />
    <glyph glyph-name="E" unicode="E" horiz-adv-x="541" 
d="M57 0v680h455l-21 -150h-261v-117h238v-145h-238v-118h272v-150h-445z" />
    <glyph glyph-name="F" unicode="F" horiz-adv-x="508" 
d="M57 0v680h440l-21 -150h-246v-117h223v-145h-223v-268h-173z" />
    <glyph glyph-name="G" unicode="G" horiz-adv-x="600" 
d="M40 240v188q0 136 72.5 198.5t198.5 62.5q57 0 99.5 -10.5t70.5 -22.5t42 -22.5l14 -10.5v-144h-140l-2.5 8.5t-11 19t-24.5 19t-44 8.5q-51 0 -74 -26t-23 -75v-197q0 -56 25 -80t73 -24q40 0 60 14.5l20 14.5v103h-83v132h235v-396h-126l-17 44h-2l-9 -8t-27 -17.5
t-45.5 -17.5t-62.5 -8q-99 0 -159 61t-60 186z" />
    <glyph glyph-name="H" unicode="H" horiz-adv-x="650" 
d="M593 680v-680h-178v263h-180v-263h-178v680h178v-263h180v263h178z" />
    <glyph glyph-name="I" unicode="I" horiz-adv-x="362" 
d="M30 120l62 15v410l-62 15v120h302v-120l-62 -15v-410h1l61 -15v-120h-302v120z" />
    <glyph glyph-name="J" unicode="J" horiz-adv-x="483" 
d="M27 167h127l8 -10.5t39 -10.5q27 0 39 12.5t12 41.5v325h-199v155h377v-474q0 -101 -53.5 -157.5t-181.5 -56.5q-82 0 -125 14l-43 14v147z" />
    <glyph glyph-name="K" unicode="K" horiz-adv-x="614" 
d="M235 268v-268h-178v680h178v-136v-42t-0.5 -40.5t-0.5 -30.5v-12h41l19.5 31t44.5 67l115 163h136v-100l-165 -229v-3l16 -27.5t40.5 -66.5t55.5 -82t60 -72v-100h-139q-29 30 -61.5 75.5t-59.5 88.5t-45 73.5l-18 30.5h-39z" />
    <glyph glyph-name="L" unicode="L" horiz-adv-x="483" 
d="M57 0v680h178v-530h241l-24 -150h-395z" />
    <glyph glyph-name="M" unicode="M" horiz-adv-x="854" 
d="M57 0v680h267l67 -312q5 -26 11 -61t10.5 -66.5t7.5 -53.5l3 -22h8l3 22t8 53.5t10.5 66.5t11.5 61l66 312h267v-680h-165v251q0 31 1.5 78.5t2.5 92.5t2.5 77.5l1.5 32.5h-10l-5 -25l-12 -60t-15 -72.5t-13 -61.5l-68 -313h-180l-68 313q-5 24 -12.5 61.5l-14.5 72.5
l-12 60l-5 25h-10l1 -32.5t2.5 -77.5t2.5 -92.5t1 -78.5v-251h-165z" />
    <glyph glyph-name="N" unicode="N" horiz-adv-x="647" 
d="M57 0v680h163l154 -283q7 -12 15 -29t14.5 -31.5t11 -25l4.5 -10.5h2l-0.5 12t-1.5 30.5t-1.5 41t-0.5 43.5v252h173v-680h-174v61l-133 243q-7 15 -16.5 32.5t-17 33t-13 25.5l-5.5 10h-3l0.5 -16.5t0.5 -40.5t0.5 -52.5t0.5 -52.5v-243h-173z" />
    <glyph glyph-name="O" unicode="O" horiz-adv-x="629" 
d="M40 257v166q0 130 71.5 200t203.5 70q131 0 202.5 -70t71.5 -200v-166q0 -128 -71.5 -199t-202.5 -71t-203 70.5t-72 199.5zM218 245q0 -51 23.5 -77t73.5 -26t73 26t23 77v191q0 51 -23 77t-73 26t-73.5 -26t-23.5 -77v-191z" />
    <glyph glyph-name="P" unicode="P" horiz-adv-x="586" 
d="M57 0v680h278q116 0 175.5 -57.5t59.5 -163.5q0 -65 -24.5 -108.5t-54 -69t-54 -36l-24.5 -10.5h-179v-235h-177zM234 383h113l7.5 4t17 13.5t17 24.5t7.5 37q0 35 -19.5 52.5t-56.5 17.5h-86v-149z" />
    <glyph glyph-name="Q" unicode="Q" horiz-adv-x="629" 
d="M40 257v166q0 130 71.5 200t203.5 70q131 0 202.5 -70t71.5 -200v-166q0 -77 -26.5 -134t-75.5 -91q14 -22 36 -49t52 -49v-101h-112q-23 19 -43.5 41t-36.5 43t-28.5 39.5t-19.5 30.5h-10h-10q-131 0 -203 70.5t-72 199.5zM218 245q0 -51 23.5 -77t73.5 -26t73 26t23 77
v191q0 51 -23 77t-73 26t-73.5 -26t-23.5 -77v-191z" />
    <glyph glyph-name="R" unicode="R" horiz-adv-x="598" 
d="M57 0v680h278q124 0 179.5 -57.5t55.5 -158.5q0 -52 -19 -89.5t-41 -61t-41 -34.5l-19 -11l9.5 -17.5t25.5 -43t37.5 -54.5t44.5 -52v-101h-133q-29 32 -56 73.5t-48 78t-33.5 62l-12.5 25.5h-52v-239h-175zM232 385h115l7.5 3.5t17 12.5t17 23.5t7.5 36.5
q0 32 -18.5 51.5t-53.5 19.5h-92v-147z" />
    <glyph glyph-name="S" unicode="S" horiz-adv-x="536" 
d="M32 31v146h134l3 -6.5t12.5 -13.5t27 -13.5t45.5 -6.5q43 0 63 14.5t20 39.5q0 21 -15 36.5t-58 29.5l-68 23q-79 28 -121 72.5t-42 133.5q0 96 63 148.5t188 52.5q47 0 86 -6.5t66 -14t41.5 -14l14.5 -6.5v-146h-135l-2 6.5t-10 15t-24 15t-42 6.5q-39 0 -57.5 -15
t-18.5 -38q0 -21 14.5 -33t59.5 -28l67 -23q92 -32 127.5 -78t35.5 -124q0 -96 -57.5 -153.5t-197.5 -57.5q-52 0 -93 6t-69 13t-43 13z" />
    <glyph glyph-name="T" unicode="T" horiz-adv-x="516" 
d="M491 527h-144v-527h-178v527h-155v153h496z" />
    <glyph glyph-name="U" unicode="U" horiz-adv-x="649" 
d="M53 226v454h178v-446q0 -50 20.5 -71t67.5 -21q22 0 39.5 5t29.5 11t18.5 11l6.5 5v506h179v-680h-141l-19 65h-4l-11.5 -11.5t-33.5 -25t-54 -25t-72 -11.5q-104 0 -154 54t-50 180z" />
    <glyph glyph-name="V" unicode="V" horiz-adv-x="607" 
d="M22 680h156l86 -356q6 -22 11.5 -52t10 -57t7.5 -45.5l3 -18.5h18l3 18.5t7.5 45.5t10.5 57t11 52l86 356h153v-100l-149 -580h-266l-148 580v100z" />
    <glyph glyph-name="W" unicode="W" horiz-adv-x="934" 
d="M29 680h154l60 -324q4 -25 9 -60.5t8.5 -68t6 -55l2.5 -22.5h13l1.5 22.5t4.5 55t6.5 68t7.5 60.5l46 324h240l46 -324q4 -25 7.5 -60.5t6.5 -68t4.5 -55l1.5 -22.5h13l2.5 22.5t6 55t8.5 68t9 60.5l60 324h153v-99l-114 -581h-249l-43 300q-5 38 -10 79t-8.5 74.5t-6 55
l-2.5 21.5h-11l-2.5 -21.5t-6 -55t-8.5 -74.5t-10 -79l-43 -300h-249l-114 581v99z" />
    <glyph glyph-name="X" unicode="X" horiz-adv-x="611" 
d="M19 0v99l132 243v8l-129 232v98h145l67 -126q11 -21 22.5 -44t20.5 -42t15 -31.5l6 -12.5h18l6 12.5t15 31.5t20.5 42t22.5 44l67 126h142v-98l-128 -232v-8l131 -243v-99h-146l-67 131q-12 24 -23.5 48t-20.5 43t-14.5 31.5l-5.5 12.5h-19l-5.5 -12.5t-15 -31.5t-21 -43
t-23.5 -48l-68 -131h-144z" />
    <glyph glyph-name="Y" unicode="Y" horiz-adv-x="568" 
d="M126 120l68 15h1v123l-180 313v109h135l87 -166q8 -15 16.5 -32t15 -30.5t10.5 -22.5l4 -9h5l14 30.5t31 61.5l89 168h132v-109l-183 -313v-123l67 -15v-120h-312v120z" />
    <glyph glyph-name="Z" unicode="Z" horiz-adv-x="547" 
d="M31 0v161l192 250q33 44 59.5 78l26.5 34v3h-10.5t-25 -0.5t-32 -0.5h-30.5h-175v155h475v-160l-191 -250q-32 -43 -60.5 -77.5l-28.5 -34.5v-3h9.5t24 0.5t31.5 0.5h32h188v-156h-485z" />
    <glyph glyph-name="bracketleft" unicode="[" horiz-adv-x="316" 
d="M55 723h253v-148h-92v-600h92v-148h-253v896z" />
    <glyph glyph-name="backslash" unicode="\" horiz-adv-x="403" 
d="M144 680l248 -575v-105h-132l-249 575v105h133z" />
    <glyph glyph-name="bracketright" unicode="]" horiz-adv-x="316" 
d="M261 723v-896h-253v148h92v600h-92v148h253z" />
    <glyph glyph-name="asciicircum" unicode="^" horiz-adv-x="600" 
d="M238 680h125l181 -407v-89h-130l-75 181q-5 12 -11.5 29t-12 32.5t-9.5 26.5l-4 11h-4l-4 -11t-9.5 -26.5t-12 -32.5t-11.5 -29l-73 -181h-132v89z" />
    <glyph glyph-name="underscore" unicode="_" horiz-adv-x="500" 
d="M0 -22h500v-150h-500v150z" />
    <glyph glyph-name="grave" unicode="`" horiz-adv-x="278" 
d="M164 740l82 -170h-133l-82 98v72h133z" />
    <glyph glyph-name="a" unicode="a" horiz-adv-x="537" 
d="M63 360v129l13.5 6.5t39.5 14t64 14t87 6.5q112 0 166.5 -43t54.5 -136v-351h-138l-18 50h-4l-8.5 -9t-26 -20t-43.5 -20t-61 -9q-87 0 -124.5 43t-37.5 118q0 84 51 120t137 36h107v31q0 25 -14 38.5t-51 13.5q-21 0 -33 -5t-18 -11t-8 -11l-2 -5h-133zM245 117
q43 0 60 14l17 14v67h-77q-28 0 -42 -13.5t-14 -33.5q0 -24 12.5 -36t43.5 -12z" />
    <glyph glyph-name="b" unicode="b" 
d="M364 528q98 0 136 -63t38 -175v-52q0 -50 -9 -94.5t-30.5 -77.5t-56.5 -52t-87 -19q-34 0 -59 8.5t-42 18.5t-25.5 18.5l-8.5 8.5h-4l-19 -49h-144v740h172v-171q0 -15 -0.5 -32t-1.5 -31.5t-1.5 -24l-0.5 -9.5h4l8.5 9t25.5 19t43.5 19t61.5 9zM225 149l18 -11t50 -11
q47 0 59 32.5t12 75.5v61q0 41 -10 71t-56 30q-35 0 -54 -13l-19 -13v-222z" />
    <glyph glyph-name="c" unicode="c" horiz-adv-x="481" 
d="M33 243v37q0 134 64 192t173 58q43 0 77 -6t57 -12.5t35.5 -12.5l12.5 -6v-145h-133q-1 10 -11 25t-39 15q-31 0 -46.5 -19.5t-15.5 -75.5v-63q0 -56 15.5 -75.5t46.5 -19.5q29 0 39 15t11 25h133v-145l-12.5 -6t-35.5 -13t-57 -13t-77 -6q-109 0 -173 58.5t-64 192.5z
" />
    <glyph glyph-name="d" unicode="d" 
d="M33 234v52q0 50 9 94.5t30.5 77t57 51.5t88.5 19q31 0 55.5 -7t41 -15t24.5 -15l8 -7h3l-0.5 10t-1.5 24.5t-1.5 31.5t-0.5 32v158h172v-740h-147l-21 52h-4l-8.5 -9t-25.5 -19.5t-43.5 -19.5t-61.5 -9q-98 0 -136 63.5t-38 175.5zM207 228q0 -41 10 -71t56 -30
q35 0 54 12.5l19 12.5v228l-18.5 8t-50.5 8q-47 0 -58.5 -32.5t-11.5 -75.5v-60z" />
    <glyph glyph-name="e" unicode="e" horiz-adv-x="537" 
d="M33 248v28q0 127 63.5 192.5t175.5 65.5q104 0 169.5 -54t65.5 -184q0 -39 -2.5 -62l-2.5 -23h-299v-5q0 -41 19 -61.5t60 -21.5q21 0 35.5 5t23.5 11t12.5 11l3.5 5h129v-123l-14 -6.5t-40 -14t-64 -14t-86 -6.5q-123 0 -186 65t-63 192zM203 318v-8h138l0.5 5.5
t0.5 15.5q0 38 -18.5 55.5t-50.5 17.5q-34 0 -52 -20.5t-18 -65.5z" />
    <glyph glyph-name="f" unicode="f" horiz-adv-x="333" 
d="M8 523h69v33q0 59 14.5 95.5t31.5 56t31.5 26l14.5 6.5h135v-134h-7q-23 0 -35.5 -11t-12.5 -39v-33h68v-133h-68v-390h-172v390h-69v133z" />
    <glyph glyph-name="g" unicode="g" horiz-adv-x="525" 
d="M28 -64q0 26 9.5 46t21.5 33t21.5 20l9.5 7v2l-6.5 4t-14.5 12.5t-15 24t-7 37.5q0 21 6.5 38t14.5 29.5t14.5 19.5l6.5 7v1l-8.5 8t-18 25t-18 42.5t-8.5 59.5v9q0 75 47.5 120.5t162.5 45.5q47 0 75 -5.5l28 -5.5h1q4 29 16 47.5t24.5 29.5t22 15l9.5 4h106v-129h-21
q-19 0 -28 -11t-9 -31v-85q0 -78 -44 -126t-158 -48h-83l-4 -7t-4 -18q0 -8 4.5 -16t15.5 -8h162q77 0 115.5 -37t38.5 -102q0 -37 -9.5 -69.5t-36 -55.5t-74.5 -36.5t-125 -13.5h-29q-66 0 -107.5 8.5t-64 24t-31 37t-8.5 47.5zM187 350q0 -24 9.5 -35l9.5 -11h44
q40 0 54.5 13t14.5 40v38l-16 5t-51 5t-50 -13t-15 -40v-2zM175 -28q0 -19 14.5 -29.5t59.5 -10.5h27q54 0 70 12t16 32q0 15 -10 24.5t-29 9.5h-134l-7.5 -10.5t-6.5 -27.5z" />
    <glyph glyph-name="h" unicode="h" horiz-adv-x="574" 
d="M53 0v740h172v-174q0 -13 -0.5 -30.5t-1.5 -33t-1.5 -26l-0.5 -10.5h3l9 10.5t27.5 22.5t46.5 22.5t65 10.5q76 0 114.5 -39.5t38.5 -130.5v-362h-172v331q0 33 -13.5 47.5t-44.5 14.5t-50.5 -12.5l-19.5 -12.5v-368h-172z" />
    <glyph glyph-name="i" unicode="i" horiz-adv-x="277" 
d="M43 678q0 41 25 63.5t71 22.5t70.5 -22.5t24.5 -63.5v-12q0 -41 -24.5 -63.5t-70.5 -22.5t-71 22.5t-25 63.5v12zM53 0v523h172v-523h-172z" />
    <glyph glyph-name="j" unicode="j" horiz-adv-x="277" 
d="M43 678q0 41 25 63.5t71 22.5t70.5 -22.5t24.5 -63.5v-12q0 -41 -24.5 -63.5t-70.5 -22.5t-71 22.5t-25 63.5v12zM53 523h172v-495q0 -59 -15 -98t-33 -62t-33 -32l-15 -9h-130v132h5q18 0 33.5 11.5t15.5 48.5v504z" />
    <glyph glyph-name="k" unicode="k" horiz-adv-x="555" 
d="M53 0v740h172v-264q0 -59 -1.5 -98l-1.5 -39h39l6.5 9t17 22.5t23 30t23.5 30.5l77 92h121v-104l-122 -143v-4l10 -18t27.5 -43.5t41.5 -54.5t51 -51v-105h-134q-26 24 -51.5 58t-45 65t-31.5 52.5l-12 21.5h-38v-197h-172z" />
    <glyph glyph-name="l" unicode="l" horiz-adv-x="283" 
d="M268 0h-130l-13.5 5.5t-29 22t-29 47t-13.5 80.5v585h172v-563q0 -22 9.5 -31t26.5 -9h7v-137z" />
    <glyph glyph-name="m" unicode="m" horiz-adv-x="860" 
d="M53 0v523h142l20 -57h3l9.5 10.5t28.5 22.5t47 22.5t65 10.5q49 0 81.5 -17t49.5 -53h3l10.5 11t31 24t50 24t67.5 11q75 0 112.5 -40t37.5 -130v-362h-172v331q0 33 -12.5 47.5t-43.5 14.5q-28 0 -46.5 -12.5l-18.5 -12.5v-368h-172v331q0 33 -12.5 47.5t-43.5 14.5
q-28 0 -46.5 -12.5l-18.5 -12.5v-368h-172z" />
    <glyph glyph-name="n" unicode="n" horiz-adv-x="574" 
d="M53 0v523h142l20 -57h3l10 10.5t29 22.5t48 22.5t67 10.5q76 0 114.5 -39.5t38.5 -130.5v-362h-172v331q0 33 -13.5 47.5t-44.5 14.5q-30 0 -50 -12.5l-20 -12.5v-368h-172z" />
    <glyph glyph-name="o" unicode="o" horiz-adv-x="557" 
d="M33 246v32q0 123 64 190.5t181 67.5q118 0 182 -67.5t64 -190.5v-32q0 -124 -64.5 -191.5t-181.5 -67.5t-181 67.5t-64 191.5zM207 239q0 -62 15 -89t56 -27t56.5 26.5t15.5 89.5v45q0 63 -15.5 90t-56.5 27t-56 -27.5t-15 -89.5v-45z" />
    <glyph glyph-name="p" unicode="p" 
d="M353 -5q-29 0 -52 6t-39 14t-25.5 15t-12.5 10h-3l0.5 -10t1.5 -25t1.5 -32t0.5 -32v-114h-172v696h147l21 -51h4l8.5 9t25.5 19t43.5 19t61.5 9q98 0 136 -63t38 -176v-51q0 -50 -9 -94.5t-30.5 -77.5t-57 -52t-88.5 -19zM225 143l18.5 -8t50.5 -8q47 0 58.5 32.5
t11.5 75.5v61q0 41 -10 71t-56 30q-35 0 -54 -12.5l-19 -12.5v-229z" />
    <glyph glyph-name="q" unicode="q" 
d="M33 285q0 51 9 95.5t30.5 77t56.5 51.5t87 19q34 0 59 -8.5t42 -18t25.5 -18l8.5 -8.5h4l19 48h144v-696h-172v127q0 15 0.5 32t1.5 31.5t1.5 24.5l0.5 10h-4l-8.5 -9t-25.5 -19.5t-43.5 -19.5t-61.5 -9q-99 0 -136.5 63.5t-37.5 175.5v51zM207 227q0 -40 10 -70.5
t56 -30.5q35 0 54 13l19 13v223l-18 11t-50 11q-47 0 -59 -33t-12 -76v-61z" />
    <glyph glyph-name="r" unicode="r" horiz-adv-x="386" 
d="M53 523h142l23 -70h4q4 6 12 17.5t22.5 23t37 20.5t54.5 9h27v-164h-69q-49 0 -64 -16.5t-17 -23.5v-319h-172v523z" />
    <glyph glyph-name="s" unicode="s" horiz-adv-x="453" 
d="M28 151h122l2 -5t8.5 -11t19 -11t33.5 -5q32 0 45 8.5t13 25.5q0 16 -11 24t-40 14l-37 8q-80 18 -114 57.5t-34 111.5q0 73 50.5 118.5t160.5 45.5q38 0 69 -5t52.5 -11t33 -11l11.5 -5v-126h-121l-8.5 15t-45.5 15q-26 0 -37 -9.5t-11 -24.5q0 -17 11.5 -25t39.5 -14
l38 -8q78 -17 113 -53t35 -110q0 -86 -56 -127.5t-162 -41.5q-43 0 -76.5 5t-56.5 11.5t-35 11.5l-12 5v127z" />
    <glyph glyph-name="t" unicode="t" horiz-adv-x="336" 
d="M8 390v133h68v127h172v-127h67v-133h-67v-205q0 -25 11 -36.5t33 -11.5h17v-137h-136l-15 6t-33.5 23t-33.5 49t-15 84v228h-68z" />
    <glyph glyph-name="u" unicode="u" 
d="M49 523h172v-331q0 -33 14 -47t45 -14t48.5 12.5l17.5 12.5v367h172v-523h-142l-20 57h-3l-9 -10.5t-27.5 -22.5t-47 -22.5t-66.5 -10.5q-76 0 -115 40t-39 130v362z" />
    <glyph glyph-name="v" unicode="v" horiz-adv-x="527" 
d="M22 523h147l63 -225q6 -20 10.5 -47.5t8.5 -52.5t6 -43l2 -18h12l2.5 18t6 43t8.5 52.5t10 47.5l63 225h144v-106l-125 -417h-234l-124 417v106z" />
    <glyph glyph-name="w" unicode="w" horiz-adv-x="861" 
d="M136 0l-109 417v106h139l49 -217q4 -20 9 -49.5t8.5 -57t6 -47.5l2.5 -20h10l2.5 19.5t6 47t8 57.5t8.5 50l43 217h220l44 -217q4 -20 9 -49.5t9.5 -57t7.5 -47.5l3 -20h9l2 20t6 47.5t8.5 57t9.5 49.5l52 217h136v-106l-109 -417h-223l-47 237q-5 25 -9.5 52t-8 50
t-5.5 38l-2 15h-9l-1.5 -15.5t-3.5 -38.5t-6 -50.5t-8 -50.5l-45 -237h-222z" />
    <glyph glyph-name="x" unicode="x" horiz-adv-x="548" 
d="M31 523h138l65 -112q6 -9 12 -21t11 -22.5t8.5 -18l3.5 -7.5h15l3 7.5t8 18t11 22.5t12 21l63 112h136v-102l-96 -151v-4l102 -164v-102h-138l-68 115q-6 9 -12 22t-11.5 24t-9 19l-3.5 8h-15l-3.5 -8t-9 -19l-12 -24t-12.5 -22l-68 -115h-136v102l102 164v4l-96 151v102
z" />
    <glyph glyph-name="y" unicode="y" horiz-adv-x="527" 
d="M112 -38h41q23 0 38 9t20 33l8 31h-72l-125 382v106h146l62 -201q6 -19 11.5 -44t9.5 -47.5t6.5 -37.5l2.5 -15h12l2.5 15t6 37.5t9 47.5t11.5 44l61 201h143v-107l-125 -381l-12 -47q-12 -53 -31.5 -85t-37 -49t-30.5 -22l-13 -5h-144v135z" />
    <glyph glyph-name="z" unicode="z" horiz-adv-x="494" 
d="M35 0v151l139 148q30 30 58 56l28 26v5l-28 -1.5t-62 -1.5h-129v140h411v-150l-137 -148q-29 -31 -57.5 -57.5l-28.5 -26.5v-3l25 1.5t59 1.5h146v-141h-424z" />
    <glyph glyph-name="braceleft" unicode="{" horiz-adv-x="317" 
d="M32 213v124q40 0 54 17t14 51v163q0 47 12.5 77.5t28 47.5t28 23.5l12.5 6.5h128v-119l-8 -0.5t-17 -6t-17 -18t-8 -36.5v-156q0 -42 -15 -68.5t-46 -41.5v-4q31 -15 46 -41.5t15 -68.5v-156q0 -24 8 -36.5t17 -18t17 -6l8 -0.5v-119h-128l-12.5 6.5t-28 23.5t-28 47.5
t-12.5 77.5v163q0 34 -14 51t-54 17z" />
    <glyph glyph-name="bar" unicode="|" horiz-adv-x="271" 
d="M61 818h150v-956h-150v956z" />
    <glyph glyph-name="braceright" unicode="}" horiz-adv-x="317" 
d="M285 213q-40 0 -54 -17t-14 -51v-163q0 -47 -12.5 -77.5t-28 -47.5t-28 -23.5l-12.5 -6.5h-128v119l8 0.5t17 6t17 18t8 36.5v156q0 42 15 68.5t46 41.5v4q-31 15 -46 41.5t-15 68.5v156q0 24 -8 36.5t-17 18t-17 6l-8 0.5v119h128l12.5 -6.5t28 -23.5t28 -47.5
t12.5 -77.5v-163q0 -34 14 -51t54 -17v-124z" />
    <glyph glyph-name="asciitilde" unicode="~" horiz-adv-x="600" 
d="M22 201v116l9 12.5t28 27t49 27.5t72 13q35 0 63 -7t50 -15l28 -10q18 -7 37.5 -12.5t36.5 -5.5q21 0 33 7t18 16t7.5 16l1.5 7h123v-115l-9 -12.5t-28 -27t-49 -27.5t-72 -13q-35 -1 -63 6t-50 15l-28 11q-18 7 -37.5 12t-36.5 5q-21 0 -33 -7t-18 -16t-7.5 -16l-1.5 -7
h-123z" />
    <glyph glyph-name="exclamdown" unicode="&#xa1;" horiz-adv-x="279" 
d="M38 420v9q0 43 26 70t76 27q49 0 75.5 -26.5t26.5 -70.5v-9q0 -43 -25.5 -70t-76.5 -27q-49 0 -75.5 26t-26.5 71zM236 -162h-194v101l25 346h144l25 -346v-101z" />
    <glyph glyph-name="cent" unicode="&#xa2;" horiz-adv-x="481" 
d="M33 243v37q0 108 42 166.5t117 75.5v135h149v-132q53 -7 82 -19.5l29 -12.5v-145h-133q-1 10 -11 25t-39 15q-31 0 -46.5 -19.5t-15.5 -75.5v-63q0 -56 15.5 -75.5t46.5 -19.5q29 0 39 15t11 25h133v-145l-29 -13t-82 -20v-137h-149v140q-75 18 -117 76.5t-42 166.5z" />
    <glyph glyph-name="sterling" unicode="&#xa3;" horiz-adv-x="526" 
d="M331 223q0 -35 -11 -58l-11 -23h192v-142h-444v142h87l5.5 4.5t12 13t12 22t5.5 31.5q0 13 -2 24.5t-5 22.5h-115v127h59q-15 32 -22.5 59.5t-7.5 63.5q0 85 58.5 132t159.5 47q50 0 87.5 -6.5t61.5 -15t36 -15l12 -6.5v-138h-130l-1.5 5.5t-7.5 12.5t-18.5 12.5
t-33.5 5.5q-29 0 -44.5 -14.5t-15.5 -40.5q0 -21 8.5 -42.5t22.5 -52.5l3 -7h140v-127h-95q1 -10 1.5 -19t0.5 -18z" />
    <glyph glyph-name="currency" unicode="&#xa4;" horiz-adv-x="635" 
d="M37 90l88 89q-11 22 -17 48t-6 54t6 54.5t17 48.5l-88 89l87 87l89 -88q22 12 49 18t56 6t55.5 -6t49.5 -18l88 88l87 -87l-88 -88q12 -22 18 -48.5t6 -55.5q0 -28 -6 -54.5t-17 -48.5l87 -88l-87 -87l-88 87q-22 -11 -49 -17.5t-56 -6.5t-56 6.5t-50 17.5l-88 -87z
M225 281q0 -43 24.5 -70t68.5 -26t68 27t24 69t-24 69.5t-68 26.5q-44 1 -68.5 -26t-24.5 -70z" />
    <glyph glyph-name="yen" unicode="&#xa5;" horiz-adv-x="549" 
d="M197 0v98h-116v113h116v44h-116v113h103l-156 219v93h125l71 -109q23 -37 36.5 -60l13.5 -23h6l14 23t36 59l72 110h120v-93l-156 -219h103v-113h-116v-44h116v-113h-116v-98h-156z" />
    <glyph glyph-name="brokenbar" unicode="&#xa6;" horiz-adv-x="271" 
d="M61 820h150v-406h-150v406zM61 269h150v-407h-150v407z" />
    <glyph glyph-name="section" unicode="&#xa7;" horiz-adv-x="507" 
d="M62 -29h116l12.5 -13t49.5 -13q25 0 39.5 11t14.5 28q0 19 -13.5 31.5t-41.5 24.5l-60 28q-68 30 -108.5 71.5t-40.5 116.5q0 51 20 88t44 60q-17 21 -26.5 49t-8.5 66q1 78 54 124.5t160 46.5q40 0 71 -5t52 -11t31.5 -11l10.5 -5l-1 -124h-116l-9.5 14t-46.5 14
q-25 0 -38.5 -11t-13.5 -28q0 -19 13.5 -31t41.5 -25l60 -28q68 -30 108.5 -71.5t40.5 -115.5q0 -51 -20 -88t-44 -61q17 -21 26.5 -49t8.5 -66q-1 -78 -55.5 -124.5t-163.5 -46.5q-79 0 -123.5 15l-44.5 15zM249 200l52 -25q10 10 17 24.5t7 30.5q0 26 -14.5 43.5
t-52.5 33.5l-52 25q-10 -10 -17 -24.5t-7 -30.5q0 -25 14.5 -42.5t52.5 -34.5z" />
    <glyph glyph-name="dieresis" unicode="&#xa8;" horiz-adv-x="369" 
d="M25 653q0 32 18.5 50.5t55.5 18.5q40 0 56.5 -20t16.5 -49v-9q0 -31 -18 -49.5t-55 -18.5q-40 0 -57 19.5t-17 48.5v9zM197 653q0 32 18.5 50.5t55.5 18.5q40 0 56.5 -20t16.5 -49v-9q0 -31 -18 -49.5t-55 -18.5q-40 0 -57 19.5t-17 48.5v9z" />
    <glyph glyph-name="copyright" unicode="&#xa9;" horiz-adv-x="763" 
d="M35 340q0 165 85.5 259.5t261.5 94.5q175 0 260.5 -94.5t85.5 -259.5t-85.5 -259.5t-260.5 -94.5q-177 0 -262 94.5t-85 259.5zM147 340q0 -126 60 -188.5t175 -62.5t175 62.5t60 188.5t-60 189t-175 63t-175 -63t-60 -189zM229 321v42q0 83 40.5 124t115.5 41
q37 0 63 -8.5t42.5 -18.5t23.5 -18.5l7 -8.5v-79h-93l-0.5 5t-4.5 11.5t-12.5 11.5t-24.5 5q-27 0 -37.5 -14.5t-10.5 -45.5v-51q0 -31 10.5 -45.5t37.5 -14.5q16 0 24.5 5t12.5 11.5t4.5 11.5l0.5 5h93v-80l-7 -8.5t-23.5 -18t-42.5 -18t-63 -8.5q-75 0 -115.5 40.5
t-40.5 123.5z" />
    <glyph glyph-name="ordfeminine" unicode="&#xaa;" horiz-adv-x="394" 
d="M54 570v94l38 12.5t107 12.5q79 0 116.5 -30t37.5 -94v-242h-101l-13 33h-3l-6 -6t-18 -12.5t-29.5 -12.5t-41.5 -6q-56 0 -83 28t-27 82q0 58 35 82.5t94 24.5h72v17q0 17 -8.5 26.5t-34.5 9.5t-32.5 -9.5l-6.5 -9.5h-96zM190 405q27 0 34.5 8.5l7.5 8.5v45h-46
q-18 0 -27 -8.5t-9 -21.5q0 -15 9 -23.5t31 -8.5z" />
    <glyph glyph-name="guillemotleft" unicode="&#xab;" horiz-adv-x="574" 
d="M31 288l167 190h102v-82l-89 -99q-19 -21 -27.5 -29.5l-8.5 -8.5v-9l8.5 -9t27.5 -29l89 -100v-82h-102l-167 189v69zM279 288l167 190h102v-82l-89 -99q-19 -21 -27.5 -29.5l-8.5 -8.5v-9l8.5 -9t27.5 -29l89 -100v-82h-102l-167 189v69z" />
    <glyph glyph-name="logicalnot" unicode="&#xac;" horiz-adv-x="597" 
d="M53 223v150h491v-322h-150v172h-341z" />
    <glyph glyph-name="registered" unicode="&#xae;" horiz-adv-x="616" 
d="M592 465q0 -135 -74.5 -211.5t-209.5 -76.5q-134 0 -208.5 76.5t-74.5 211.5q0 136 74.5 212.5t208.5 76.5q135 0 209.5 -76.5t74.5 -212.5zM125 465q0 -109 47 -153t136 -44q90 0 137 44t47 153t-47 152.5t-137 43.5q-89 0 -136 -43.5t-47 -152.5zM282 325h-86v281h142
q45 0 69 -27.5t24 -65.5q0 -22 -7.5 -38.5t-16 -27t-16 -16l-7.5 -5.5l8.5 -13.5t30.5 -35.5v-52h-60q-29 31 -44 58.5l-15 27.5h-22v-86zM325 484l9 6t9 21q0 12 -8 17.5t-20 5.5h-33v-50h43z" />
    <glyph glyph-name="macron" unicode="&#xaf;" horiz-adv-x="327" 
d="M14 724h299v-120h-299v120z" />
    <glyph glyph-name="degree" unicode="&#xb0;" horiz-adv-x="403" 
d="M30 525q0 74 44.5 122t128.5 48t127.5 -48t43.5 -122q0 -73 -43.5 -121t-127.5 -48t-128.5 48t-44.5 121zM152 525q0 -28 14 -41t36 -13t36 13t14 41t-14 41.5t-36 13.5t-36 -13.5t-14 -41.5z" />
    <glyph glyph-name="plusminus" unicode="&#xb1;" horiz-adv-x="600" 
d="M53 481h172v140h150v-140h173v-150h-173v-140h-150v140h-172v150zM53 150h495v-150h-495v150z" />
    <glyph glyph-name="uni00B2" unicode="&#xb2;" horiz-adv-x="362" 
d="M327 470h-294l-1 119l148 124q16 13 22.5 22.5t6.5 19.5q0 11 -8 19.5t-29 8.5q-31 0 -38.5 -12t-7.5 -11h-95v98l40 15.5t113 15.5q72 0 110.5 -32.5t38.5 -88.5q0 -48 -18.5 -76.5t-56.5 -57.5l-76 -62v-1l16 0.5t33 0.5h96v-102z" />
    <glyph glyph-name="uni00B3" unicode="&#xb3;" horiz-adv-x="355" 
d="M29 583h95l8 -11t37 -11q22 0 31.5 10t9.5 27q0 20 -12 28t-26 8q-16 0 -24.5 -3.5l-8.5 -3.5h-68v76l98 75v1l-14.5 -0.5t-33.5 -0.5h-86v102h280v-110l-63 -50q-10 -7 -22 -14.5l-12 -7.5v-1l6.5 1.5t19.5 1.5q42 0 65.5 -27.5t23.5 -78.5q0 -60 -40.5 -96.5
t-124.5 -36.5q-63 0 -101 12.5l-38 12.5v97z" />
    <glyph glyph-name="acute" unicode="&#xb4;" horiz-adv-x="278" 
d="M114 740h133v-72l-82 -98h-133z" />
    <glyph glyph-name="uni00B5" unicode="&#xb5;" 
d="M49 523h172v-331q0 -33 14 -47t45 -14t48.5 12.5l17.5 12.5v367h172v-523h-142l-20 57h-3l-9 -10.5t-27.5 -22.5t-47 -22.5t-66.5 -10.5h-6h-6q6 -26 11 -59t5 -63v-42h-158v696z" />
    <glyph glyph-name="paragraph" unicode="&#xb6;" horiz-adv-x="624" 
d="M232 256h-4q-99 0 -152.5 59.5t-53.5 152.5q0 94 55.5 153t154.5 59h335v-853h-139v719h-57v-719h-139v429z" />
    <glyph glyph-name="periodcentered" unicode="&#xb7;" horiz-adv-x="214" 
d="M11 292q0 42 25 66t71 24t71 -24t25 -66v-12q0 -42 -25 -66t-71 -24t-71 24t-25 66v12z" />
    <glyph glyph-name="cedilla" unicode="&#xb8;" horiz-adv-x="205" 
d="M134 -154h-113v82l5 4.5t11 13.5t11 23.5t5 33.5v29h134v-36q0 -35 -8.5 -63t-18 -47t-18 -29.5z" />
    <glyph glyph-name="uni00B9" unicode="&#xb9;" horiz-adv-x="317" 
d="M33 470v92l66 10v200h-65v74l74 34h120v-308l66 -10v-92h-261z" />
    <glyph glyph-name="ordmasculine" unicode="&#xba;" horiz-adv-x="394" 
d="M28 493v22q0 87 44 131t125 44t125 -44t44 -131v-22q0 -88 -44 -132t-125 -44t-125 44t-44 132zM153 489q0 -40 9.5 -55.5t34.5 -15.5q24 0 34 15.5t10 55.5v29q0 40 -10 55.5t-34 15.5q-25 0 -34.5 -15.5t-9.5 -55.5v-29z" />
    <glyph glyph-name="guillemotright" unicode="&#xbb;" horiz-adv-x="574" 
d="M543 288v-69l-167 -189h-102v82l89 100q19 20 27.5 29l8.5 9v9l-8.5 8.5t-27.5 29.5l-89 99v82h102zM295 288v-69l-167 -189h-102v82l89 100q19 20 27.5 29l8.5 9v9l-8.5 8.5t-27.5 29.5l-89 99v82h102z" />
    <glyph glyph-name="onequarter" unicode="&#xbc;" horiz-adv-x="853" 
d="M33 270v92l66 10v200h-65v74l74 34h120v-308l66 -10v-92h-261zM566 680h87v-78l-369 -602h-87v78zM498 65v93l107 252h183v-246h48v-99h-48v-65h-116v65h-174zM606 162h66v72v26.5t0.5 27t0.5 20.5v8h-6l-9 -24t-20 -52z" />
    <glyph glyph-name="onehalf" unicode="&#xbd;" horiz-adv-x="882" 
d="M33 270v92l66 10v200h-65v74l74 34h120v-308l66 -10v-92h-261zM566 680h87v-78l-369 -602h-87v78zM847 0h-294l-1 119l148 124q16 13 22.5 22.5t6.5 19.5q0 11 -8 19.5t-29 8.5q-31 0 -38.5 -12t-7.5 -11h-95v98l40 15.5t113 15.5q72 0 110.5 -32.5t38.5 -88.5
q0 -48 -18.5 -76.5t-56.5 -57.5l-76 -62v-1l16 0.5t33 0.5h96v-102z" />
    <glyph glyph-name="threequarters" unicode="&#xbe;" horiz-adv-x="864" 
d="M29 383h95l8 -11t37 -11q22 0 31.5 10t9.5 27q0 20 -12 28t-26 8q-16 0 -24.5 -3.5l-8.5 -3.5h-68v76l98 75v1l-14.5 -0.5t-33.5 -0.5h-86v102h280v-110l-63 -50q-10 -7 -22 -14.5l-12 -7.5v-1l6.5 1.5t19.5 1.5q42 0 65.5 -27.5t23.5 -78.5q0 -60 -40.5 -96.5
t-124.5 -36.5q-63 0 -101 12.5l-38 12.5v97zM577 680h87v-78l-369 -602h-87v78zM509 65v93l107 252h183v-246h48v-99h-48v-65h-116v65h-174zM617 162h66v72v26.5t0.5 27t0.5 20.5v8h-6l-9 -24t-20 -52z" />
    <glyph glyph-name="questiondown" unicode="&#xbf;" horiz-adv-x="430" 
d="M333 420q0 -45 -26.5 -71t-75.5 -26q-51 0 -76.5 27t-25.5 70v9q0 44 26.5 70.5t75.5 26.5t75.5 -27t26.5 -70v-9zM310 287v-105l-73 -86q-22 -22 -33.5 -43.5t-11.5 -40.5t12 -28t35 -9q17 0 27 5t15.5 11.5t7 11.5l1.5 5h134v-136l-13 -6.5t-37.5 -14t-61 -14
t-83.5 -6.5q-113 0 -161.5 45.5t-48.5 133.5q0 49 19.5 93.5t49.5 79.5l81 104h141z" />
    <glyph glyph-name="Agrave" unicode="&#xc0;" horiz-adv-x="622" 
d="M154 918h111l144 -102v-107l-255 110v99zM25 0v93l146 587h280l146 -587v-93h-154l-29 124q-25 -4 -51.5 -6.5t-52.5 -2.5t-52 2.5t-51 6.5l-29 -124h-153zM263 366l-23 -101q17 -2 34.5 -3.5t35.5 -1.5t35.5 1.5t34.5 3.5l-24 101q-4 19 -10.5 47.5t-12 54.5t-9.5 44.5
l-4 18.5h-26l-3 -18.5t-7.5 -44.5t-10 -54.5t-10.5 -47.5z" />
    <glyph glyph-name="Aacute" unicode="&#xc1;" horiz-adv-x="622" 
d="M458 918v-99l-255 -110v107l144 102h111zM25 0v93l146 587h280l146 -587v-93h-154l-29 124q-25 -4 -51.5 -6.5t-52.5 -2.5t-52 2.5t-51 6.5l-29 -124h-153zM263 366l-23 -101q17 -2 34.5 -3.5t35.5 -1.5t35.5 1.5t34.5 3.5l-24 101q-4 19 -10.5 47.5t-12 54.5t-9.5 44.5
l-4 18.5h-26l-3 -18.5t-7.5 -44.5t-10 -54.5t-10.5 -47.5z" />
    <glyph glyph-name="Acircumflex" unicode="&#xc2;" horiz-adv-x="622" 
d="M160 727v68l99 78h105l98 -78v-68h-87l-35 30q-10 8 -18 15.5l-8 7.5h-5l-8 -7.5t-18 -15.5l-35 -30h-88zM25 0v93l146 587h280l146 -587v-93h-154l-29 124q-25 -4 -51.5 -6.5t-52.5 -2.5t-52 2.5t-51 6.5l-29 -124h-153zM263 366l-23 -101q17 -2 34.5 -3.5t35.5 -1.5
t35.5 1.5t34.5 3.5l-24 101q-4 19 -10.5 47.5t-12 54.5t-9.5 44.5l-4 18.5h-26l-3 -18.5t-7.5 -44.5t-10 -54.5t-10.5 -47.5z" />
    <glyph glyph-name="Atilde" unicode="&#xc3;" horiz-adv-x="622" 
d="M109 741v100l6.5 8t20 17t36 17t53.5 8q24 0 43 -4t35 -9l25 -7q13 -4 22.5 -7t25.5 -3q27 0 35.5 14l8.5 14h93v-100l-6.5 -8t-20 -17t-36 -17t-53.5 -8q-24 0 -43 4t-35 9l-25 7q-13 4 -22.5 7t-25.5 3q-27 0 -35.5 -14l-8.5 -14h-93zM25 0v93l146 587h280l146 -587
v-93h-154l-29 124q-25 -4 -51.5 -6.5t-52.5 -2.5t-52 2.5t-51 6.5l-29 -124h-153zM263 366l-23 -101q17 -2 34.5 -3.5t35.5 -1.5t35.5 1.5t34.5 3.5l-24 101q-4 19 -10.5 47.5t-12 54.5t-9.5 44.5l-4 18.5h-26l-3 -18.5t-7.5 -44.5t-10 -54.5t-10.5 -47.5z" />
    <glyph glyph-name="Adieresis" unicode="&#xc4;" horiz-adv-x="622" 
d="M151 819q0 32 18.5 50.5t55.5 18.5q40 0 56.5 -20t16.5 -49v-9q0 -31 -18 -49.5t-55 -18.5q-40 0 -57 19.5t-17 48.5v9zM323 819q0 32 18.5 50.5t55.5 18.5q40 0 56.5 -20t16.5 -49v-9q0 -31 -18 -49.5t-55 -18.5q-40 0 -57 19.5t-17 48.5v9zM25 0v93l146 587h280
l146 -587v-93h-154l-29 124q-25 -4 -51.5 -6.5t-52.5 -2.5t-52 2.5t-51 6.5l-29 -124h-153zM263 366l-23 -101q17 -2 34.5 -3.5t35.5 -1.5t35.5 1.5t34.5 3.5l-24 101q-4 19 -10.5 47.5t-12 54.5t-9.5 44.5l-4 18.5h-26l-3 -18.5t-7.5 -44.5t-10 -54.5t-10.5 -47.5z" />
    <glyph glyph-name="Aring" unicode="&#xc5;" horiz-adv-x="622" 
d="M25 0v93l146 587q-4 11 -6 24t-2 27q0 66 41 105t107 39t107.5 -39t41.5 -105q0 -14 -2.5 -27.5t-6.5 -25.5l146 -585v-93h-154l-29 124q-25 -4 -51.5 -6.5t-52.5 -2.5t-52 2.5t-51 6.5l-29 -124h-153zM267 731q0 -19 10.5 -31t33.5 -12t33.5 12t10.5 31t-10.5 31.5
t-33.5 12.5t-33.5 -12.5t-10.5 -31.5zM263 366l-23 -101q17 -2 34.5 -3.5t35.5 -1.5t35.5 1.5t34.5 3.5l-24 101q-4 19 -10.5 47.5t-12 54.5t-9.5 44.5l-4 18.5h-26l-3 -18.5t-7.5 -44.5t-10 -54.5t-10.5 -47.5z" />
    <glyph glyph-name="AE" unicode="&#xc6;" horiz-adv-x="875" 
d="M16 0v93l247 587h584l-21 -150h-261v-117h238v-145h-238v-118h272v-150h-445v147h-182l-62 -147h-132zM301 362l-29 -68h120v234h-29l-5.5 -15.5t-14 -39.5t-19.5 -53.5t-23 -57.5z" />
    <glyph glyph-name="Ccedilla" unicode="&#xc7;" horiz-adv-x="548" 
d="M40 254v173q0 135 68 198.5t193 63.5q56 0 96.5 -10t67 -22.5t39 -22.5l12.5 -10v-145h-140l-1.5 8.5t-8.5 19t-21.5 19t-39.5 8.5q-51 0 -69 -26t-18 -75v-185q0 -49 18 -75t69 -26q25 0 39.5 8.5t21.5 18.5t8.5 18.5l1.5 8.5h140v-144l-8.5 -7t-25.5 -17t-44 -20
t-63 -16v-1q0 -35 -8.5 -63t-18 -47t-18 -29.5l-8.5 -10.5h-113v82l5 4.5t11 12.5t11 21t5 29q-96 14 -148.5 77.5t-52.5 181.5z" />
    <glyph glyph-name="Egrave" unicode="&#xc8;" horiz-adv-x="541" 
d="M105 918h111l144 -102v-107l-255 110v99zM57 0v680h455l-21 -150h-261v-117h238v-145h-238v-118h272v-150h-445z" />
    <glyph glyph-name="Eacute" unicode="&#xc9;" horiz-adv-x="541" 
d="M451 918v-99l-255 -110v107l144 102h111zM57 0v680h455l-21 -150h-261v-117h238v-145h-238v-118h272v-150h-445z" />
    <glyph glyph-name="Ecircumflex" unicode="&#xca;" horiz-adv-x="541" 
d="M131 727v68l99 78h105l98 -78v-68h-87l-35 30q-10 8 -18 15.5l-8 7.5h-5l-8 -7.5t-18 -15.5l-35 -30h-88zM57 0v680h455l-21 -150h-261v-117h238v-145h-238v-118h272v-150h-445z" />
    <glyph glyph-name="Edieresis" unicode="&#xcb;" horiz-adv-x="541" 
d="M122 819q0 32 18.5 50.5t55.5 18.5q40 0 56.5 -20t16.5 -49v-9q0 -31 -18 -49.5t-55 -18.5q-40 0 -57 19.5t-17 48.5v9zM294 819q0 32 18.5 50.5t55.5 18.5q40 0 56.5 -20t16.5 -49v-9q0 -31 -18 -49.5t-55 -18.5q-40 0 -57 19.5t-17 48.5v9zM57 0v680h455l-21 -150h-261
v-117h238v-145h-238v-118h272v-150h-445z" />
    <glyph glyph-name="Igrave" unicode="&#xcc;" horiz-adv-x="362" 
d="M29 918h111l144 -102v-107l-255 110v99zM30 120l62 15v410l-62 15v120h302v-120l-62 -15v-410h1l61 -15v-120h-302v120z" />
    <glyph glyph-name="Iacute" unicode="&#xcd;" horiz-adv-x="362" 
d="M322 918v-99l-255 -110v107l144 102h111zM30 120l62 15v410l-62 15v120h302v-120l-62 -15v-410h1l61 -15v-120h-302v120z" />
    <glyph glyph-name="Icircumflex" unicode="&#xce;" horiz-adv-x="362" 
d="M30 727v68l99 78h105l98 -78v-68h-87l-35 30q-10 8 -18 15.5l-8 7.5h-5l-8 -7.5t-18 -15.5l-35 -30h-88zM30 120l62 15v410l-62 15v120h302v-120l-62 -15v-410h1l61 -15v-120h-302v120z" />
    <glyph glyph-name="Idieresis" unicode="&#xcf;" horiz-adv-x="362" 
d="M21 819q0 32 18.5 50.5t55.5 18.5q40 0 56.5 -20t16.5 -49v-9q0 -31 -18 -49.5t-55 -18.5q-40 0 -57 19.5t-17 48.5v9zM193 819q0 32 18.5 50.5t55.5 18.5q40 0 56.5 -20t16.5 -49v-9q0 -31 -18 -49.5t-55 -18.5q-40 0 -57 19.5t-17 48.5v9zM30 120l62 15v410l-62 15v120
h302v-120l-62 -15v-410h1l61 -15v-120h-302v120z" />
    <glyph glyph-name="Eth" unicode="&#xd0;" horiz-adv-x="618" 
d="M-10 398h67v282h263q120 0 189 -60t69 -196v-167q0 -136 -69 -196.5t-189 -60.5h-263v283h-67v115zM319 283h-84v-131h76q44 0 66.5 21t22.5 69v196q0 49 -22.5 70t-66.5 21h-76v-131h84v-115z" />
    <glyph glyph-name="Ntilde" unicode="&#xd1;" horiz-adv-x="647" 
d="M123 741v100l6.5 8t20 17t36 17t53.5 8q24 0 43 -4t35 -9l25 -7q13 -4 22.5 -7t25.5 -3q27 0 35.5 14l8.5 14h93v-100l-6.5 -8t-20 -17t-36 -17t-53.5 -8q-24 0 -43 4t-35 9l-25 7q-13 4 -22.5 7t-25.5 3q-27 0 -35.5 -14l-8.5 -14h-93zM57 0v680h163l154 -283
q7 -12 15 -29t14.5 -31.5t11 -25l4.5 -10.5h2l-0.5 12t-1.5 30.5t-1.5 41t-0.5 43.5v252h173v-680h-174v61l-133 243q-7 15 -16.5 32.5t-17 33t-13 25.5l-5.5 10h-3l0.5 -16.5t0.5 -40.5t0.5 -52.5t0.5 -52.5v-243h-173z" />
    <glyph glyph-name="Ograve" unicode="&#xd2;" horiz-adv-x="629" 
d="M141 918h111l144 -102v-107l-255 110v99zM40 257v166q0 130 71.5 200t203.5 70q131 0 202.5 -70t71.5 -200v-166q0 -128 -71.5 -199t-202.5 -71t-203 70.5t-72 199.5zM218 245q0 -51 23.5 -77t73.5 -26t73 26t23 77v191q0 51 -23 77t-73 26t-73.5 -26t-23.5 -77v-191z
" />
    <glyph glyph-name="Oacute" unicode="&#xd3;" horiz-adv-x="629" 
d="M478 918v-99l-255 -110v107l144 102h111zM40 257v166q0 130 71.5 200t203.5 70q131 0 202.5 -70t71.5 -200v-166q0 -128 -71.5 -199t-202.5 -71t-203 70.5t-72 199.5zM218 245q0 -51 23.5 -77t73.5 -26t73 26t23 77v191q0 51 -23 77t-73 26t-73.5 -26t-23.5 -77v-191z
" />
    <glyph glyph-name="Ocircumflex" unicode="&#xd4;" horiz-adv-x="629" 
d="M164 727v68l99 78h105l98 -78v-68h-87l-35 30q-10 8 -18 15.5l-8 7.5h-5l-8 -7.5t-18 -15.5l-35 -30h-88zM40 257v166q0 130 71.5 200t203.5 70q131 0 202.5 -70t71.5 -200v-166q0 -128 -71.5 -199t-202.5 -71t-203 70.5t-72 199.5zM218 245q0 -51 23.5 -77t73.5 -26
t73 26t23 77v191q0 51 -23 77t-73 26t-73.5 -26t-23.5 -77v-191z" />
    <glyph glyph-name="Otilde" unicode="&#xd5;" horiz-adv-x="629" 
d="M113 741v100l6.5 8t20 17t36 17t53.5 8q24 0 43 -4t35 -9l25 -7q13 -4 22.5 -7t25.5 -3q27 0 35.5 14l8.5 14h93v-100l-6.5 -8t-20 -17t-36 -17t-53.5 -8q-24 0 -43 4t-35 9l-25 7q-13 4 -22.5 7t-25.5 3q-27 0 -35.5 -14l-8.5 -14h-93zM40 257v166q0 130 71.5 200
t203.5 70q131 0 202.5 -70t71.5 -200v-166q0 -128 -71.5 -199t-202.5 -71t-203 70.5t-72 199.5zM218 245q0 -51 23.5 -77t73.5 -26t73 26t23 77v191q0 51 -23 77t-73 26t-73.5 -26t-23.5 -77v-191z" />
    <glyph glyph-name="Odieresis" unicode="&#xd6;" horiz-adv-x="629" 
d="M155 819q0 32 18.5 50.5t55.5 18.5q40 0 56.5 -20t16.5 -49v-9q0 -31 -18 -49.5t-55 -18.5q-40 0 -57 19.5t-17 48.5v9zM327 819q0 32 18.5 50.5t55.5 18.5q40 0 56.5 -20t16.5 -49v-9q0 -31 -18 -49.5t-55 -18.5q-40 0 -57 19.5t-17 48.5v9zM40 257v166q0 130 71.5 200
t203.5 70q131 0 202.5 -70t71.5 -200v-166q0 -128 -71.5 -199t-202.5 -71t-203 70.5t-72 199.5zM218 245q0 -51 23.5 -77t73.5 -26t73 26t23 77v191q0 51 -23 77t-73 26t-73.5 -26t-23.5 -77v-191z" />
    <glyph glyph-name="multiply" unicode="&#xd7;" horiz-adv-x="577" 
d="M53 427l106 106l130 -129l129 129l106 -106l-129 -129l129 -130l-106 -106l-129 130l-130 -130l-106 106l130 130z" />
    <glyph glyph-name="Oslash" unicode="&#xd8;" horiz-adv-x="629" 
d="M40 257v166q0 130 71.5 200t203.5 70q41 0 77 -7t65 -21l40 65h79v-61l-40 -66q26 -33 39.5 -78.5t13.5 -101.5v-166q0 -128 -71.5 -199t-202.5 -71q-41 0 -77 7.5t-65 20.5l-40 -65h-79v62l40 65q-26 34 -40 79t-14 101zM218 436v-158l153 249q-10 6 -24.5 9t-31.5 3
q-50 0 -73.5 -26t-23.5 -77zM411 245v156l-152 -247q10 -6 24.5 -9t31.5 -3q50 0 73 26t23 77z" />
    <glyph glyph-name="Ugrave" unicode="&#xd9;" horiz-adv-x="649" 
d="M133 918h111l144 -102v-107l-255 110v99zM53 226v454h178v-446q0 -50 20.5 -71t67.5 -21q22 0 39.5 5t29.5 11t18.5 11l6.5 5v506h179v-680h-141l-19 65h-4l-11.5 -11.5t-33.5 -25t-54 -25t-72 -11.5q-104 0 -154 54t-50 180z" />
    <glyph glyph-name="Uacute" unicode="&#xda;" horiz-adv-x="649" 
d="M485 918v-99l-255 -110v107l144 102h111zM53 226v454h178v-446q0 -50 20.5 -71t67.5 -21q22 0 39.5 5t29.5 11t18.5 11l6.5 5v506h179v-680h-141l-19 65h-4l-11.5 -11.5t-33.5 -25t-54 -25t-72 -11.5q-104 0 -154 54t-50 180z" />
    <glyph glyph-name="Ucircumflex" unicode="&#xdb;" horiz-adv-x="649" 
d="M172 727v68l99 78h105l98 -78v-68h-87l-35 30q-10 8 -18 15.5l-8 7.5h-5l-8 -7.5t-18 -15.5l-35 -30h-88zM53 226v454h178v-446q0 -50 20.5 -71t67.5 -21q22 0 39.5 5t29.5 11t18.5 11l6.5 5v506h179v-680h-141l-19 65h-4l-11.5 -11.5t-33.5 -25t-54 -25t-72 -11.5
q-104 0 -154 54t-50 180z" />
    <glyph glyph-name="Udieresis" unicode="&#xdc;" horiz-adv-x="649" 
d="M163 819q0 32 18.5 50.5t55.5 18.5q40 0 56.5 -20t16.5 -49v-9q0 -31 -18 -49.5t-55 -18.5q-40 0 -57 19.5t-17 48.5v9zM335 819q0 32 18.5 50.5t55.5 18.5q40 0 56.5 -20t16.5 -49v-9q0 -31 -18 -49.5t-55 -18.5q-40 0 -57 19.5t-17 48.5v9zM53 226v454h178v-446
q0 -50 20.5 -71t67.5 -21q22 0 39.5 5t29.5 11t18.5 11l6.5 5v506h179v-680h-141l-19 65h-4l-11.5 -11.5t-33.5 -25t-54 -25t-72 -11.5q-104 0 -154 54t-50 180z" />
    <glyph glyph-name="Yacute" unicode="&#xdd;" horiz-adv-x="568" 
d="M468 918v-99l-255 -110v107l144 102h111zM126 120l68 15h1v123l-180 313v109h135l87 -166q8 -15 16.5 -32t15 -30.5t10.5 -22.5l4 -9h5l14 30.5t31 61.5l89 168h132v-109l-183 -313v-123l67 -15v-120h-312v120z" />
    <glyph glyph-name="Thorn" unicode="&#xde;" horiz-adv-x="590" 
d="M57 680h177v-83h109q113 0 169.5 -57.5t56.5 -164.5q0 -68 -28 -111t-62 -67.5t-62 -33.5l-28 -9h-155v-154h-177v680zM234 449v-147h104l9 3t19 11t19 23t9 40q0 36 -18 53t-52 17h-90z" />
    <glyph glyph-name="germandbls" unicode="&#xdf;" horiz-adv-x="634" 
d="M294 358q0 46 18 75.5t40 52.5l19 17q19 18 24.5 30.5t5.5 28.5q0 25 -18.5 39.5t-58.5 14.5q-55 0 -78 -32t-23 -95v-662h-170v642q0 139 64.5 211.5t207.5 72.5q131 0 185.5 -53t54.5 -133q0 -60 -21.5 -90.5t-41.5 -49.5l-18 -16q-10 -10 -16.5 -19.5t-6.5 -23.5
q0 -15 9 -24t28 -19l31 -19q39 -23 63.5 -59t24.5 -92q0 -79 -50.5 -123.5t-155.5 -44.5q-75 0 -114 12.5l-39 12.5v124h103l11 -10t39 -10q22 0 35 9t13 28q0 12 -8 23t-35 26l-31 19q-32 19 -61.5 50t-29.5 87z" />
    <glyph glyph-name="agrave" unicode="&#xe0;" horiz-adv-x="537" 
d="M268 740l82 -170h-133l-82 98v72h133zM63 360v129l13.5 6.5t39.5 14t64 14t87 6.5q112 0 166.5 -43t54.5 -136v-351h-138l-18 50h-4l-8.5 -9t-26 -20t-43.5 -20t-61 -9q-87 0 -124.5 43t-37.5 118q0 84 51 120t137 36h107v31q0 25 -14 38.5t-51 13.5q-21 0 -33 -5
t-18 -11t-8 -11l-2 -5h-133zM245 117q43 0 60 14l17 14v67h-77q-28 0 -42 -13.5t-14 -33.5q0 -24 12.5 -36t43.5 -12z" />
    <glyph glyph-name="aacute" unicode="&#xe1;" horiz-adv-x="537" 
d="M267 740h133v-72l-82 -98h-133zM63 360v129l13.5 6.5t39.5 14t64 14t87 6.5q112 0 166.5 -43t54.5 -136v-351h-138l-18 50h-4l-8.5 -9t-26 -20t-43.5 -20t-61 -9q-87 0 -124.5 43t-37.5 118q0 84 51 120t137 36h107v31q0 25 -14 38.5t-51 13.5q-21 0 -33 -5t-18 -11
t-8 -11l-2 -5h-133zM245 117q43 0 60 14l17 14v67h-77q-28 0 -42 -13.5t-14 -33.5q0 -24 12.5 -36t43.5 -12z" />
    <glyph glyph-name="acircumflex" unicode="&#xe2;" horiz-adv-x="537" 
d="M115 566v70l95 104h111l94 -104v-70h-88l-34 42q-10 11 -18 22l-8 11h-4l-8.5 -11.5t-17.5 -21.5l-34 -42h-88zM63 360v129l13.5 6.5t39.5 14t64 14t87 6.5q112 0 166.5 -43t54.5 -136v-351h-138l-18 50h-4l-8.5 -9t-26 -20t-43.5 -20t-61 -9q-87 0 -124.5 43t-37.5 118
q0 84 51 120t137 36h107v31q0 25 -14 38.5t-51 13.5q-21 0 -33 -5t-18 -11t-8 -11l-2 -5h-133zM245 117q43 0 60 14l17 14v67h-77q-28 0 -42 -13.5t-14 -33.5q0 -24 12.5 -36t43.5 -12z" />
    <glyph glyph-name="atilde" unicode="&#xe3;" horiz-adv-x="537" 
d="M63 584v100l6.5 8t20 17t36 17t53.5 8q24 0 43 -4t35 -9l25 -7q13 -4 22.5 -7t25.5 -3q27 0 35.5 14l8.5 14h93v-100l-6.5 -8t-20 -17t-36 -17t-53.5 -8q-24 0 -43 4t-35 9l-25 7q-13 4 -22.5 7t-25.5 3q-27 0 -35.5 -14l-8.5 -14h-93zM63 360v129l13.5 6.5t39.5 14
t64 14t87 6.5q112 0 166.5 -43t54.5 -136v-351h-138l-18 50h-4l-8.5 -9t-26 -20t-43.5 -20t-61 -9q-87 0 -124.5 43t-37.5 118q0 84 51 120t137 36h107v31q0 25 -14 38.5t-51 13.5q-21 0 -33 -5t-18 -11t-8 -11l-2 -5h-133zM245 117q43 0 60 14l17 14v67h-77
q-28 0 -42 -13.5t-14 -33.5q0 -24 12.5 -36t43.5 -12z" />
    <glyph glyph-name="adieresis" unicode="&#xe4;" horiz-adv-x="537" 
d="M105 653q0 32 18.5 50.5t55.5 18.5q40 0 56.5 -20t16.5 -49v-9q0 -31 -18 -49.5t-55 -18.5q-40 0 -57 19.5t-17 48.5v9zM277 653q0 32 18.5 50.5t55.5 18.5q40 0 56.5 -20t16.5 -49v-9q0 -31 -18 -49.5t-55 -18.5q-40 0 -57 19.5t-17 48.5v9zM63 360v129l13.5 6.5
t39.5 14t64 14t87 6.5q112 0 166.5 -43t54.5 -136v-351h-138l-18 50h-4l-8.5 -9t-26 -20t-43.5 -20t-61 -9q-87 0 -124.5 43t-37.5 118q0 84 51 120t137 36h107v31q0 25 -14 38.5t-51 13.5q-21 0 -33 -5t-18 -11t-8 -11l-2 -5h-133zM245 117q43 0 60 14l17 14v67h-77
q-28 0 -42 -13.5t-14 -33.5q0 -24 12.5 -36t43.5 -12z" />
    <glyph glyph-name="aring" unicode="&#xe5;" horiz-adv-x="537" 
d="M140 677q0 55 34.5 87.5t90.5 32.5q55 0 89.5 -32.5t34.5 -87.5t-34.5 -87.5t-89.5 -32.5q-56 0 -90.5 32.5t-34.5 87.5zM229 677q0 -15 8.5 -25t27.5 -10t27 10t8 25q0 16 -8 26t-27 10t-27.5 -10t-8.5 -26zM63 360v129l13.5 6.5t39.5 14t64 14t87 6.5q112 0 166.5 -43
t54.5 -136v-351h-138l-18 50h-4l-8.5 -9t-26 -20t-43.5 -20t-61 -9q-87 0 -124.5 43t-37.5 118q0 84 51 120t137 36h107v31q0 25 -14 38.5t-51 13.5q-21 0 -33 -5t-18 -11t-8 -11l-2 -5h-133zM245 117q43 0 60 14l17 14v67h-77q-28 0 -42 -13.5t-14 -33.5q0 -24 12.5 -36
t43.5 -12z" />
    <glyph glyph-name="ae" unicode="&#xe6;" horiz-adv-x="826" 
d="M63 358v130l13.5 6.5t39.5 15t64 15t87 6.5q48 0 85.5 -8t64.5 -27q28 19 64.5 28.5t79.5 9.5q104 0 169.5 -54t65.5 -184q0 -39 -2.5 -62l-2.5 -23h-299v-5q0 -41 19 -61.5t60 -21.5q21 0 35.5 5t23.5 11t12.5 11l3.5 5h129v-123l-14 -6.5t-40 -14t-64 -14t-86 -6.5
q-64 0 -112 17.5t-79 52.5q-7 -7 -21 -19t-35 -23t-50 -19t-65 -8q-93 0 -137.5 44.5t-44.5 116.5q0 84 52.5 120t138.5 36h105q0 2 0.5 4.5t0.5 4.5v21q0 25 -16 39t-55 14q-19 0 -30 -5.5t-17 -11.5t-7.5 -11.5l-1.5 -5.5h-134zM492 318v-8h138l0.5 5.5t0.5 15.5
q0 38 -18.5 55.5t-50.5 17.5q-34 0 -52 -20.5t-18 -65.5zM251 115q27 0 48 8.5t37 19.5q-4 15 -7.5 32t-4.5 35h-78q-28 0 -42 -13.5t-14 -33.5q0 -22 14 -35t47 -13z" />
    <glyph glyph-name="ccedilla" unicode="&#xe7;" horiz-adv-x="481" 
d="M33 243v37q0 134 64 192t173 58q43 0 77 -6t57 -12.5t35.5 -12.5l12.5 -6v-145h-133q-1 10 -11 25t-39 15q-31 0 -46.5 -19.5t-15.5 -75.5v-63q0 -56 15.5 -75.5t46.5 -19.5q29 0 39 15t11 25h133v-145l-27 -12t-77 -20v-2q0 -35 -8.5 -63t-18 -47t-18 -29.5l-8.5 -10.5
h-113v82l5 4.5t11 13t11 21t5 29.5q-84 13 -132.5 72t-48.5 175z" />
    <glyph glyph-name="egrave" unicode="&#xe8;" horiz-adv-x="537" 
d="M262 740l82 -170h-133l-82 98v72h133zM33 248v28q0 127 63.5 192.5t175.5 65.5q104 0 169.5 -54t65.5 -184q0 -39 -2.5 -62l-2.5 -23h-299v-5q0 -41 19 -61.5t60 -21.5q21 0 35.5 5t23.5 11t12.5 11l3.5 5h129v-123l-14 -6.5t-40 -14t-64 -14t-86 -6.5q-123 0 -186 65
t-63 192zM203 318v-8h138l0.5 5.5t0.5 15.5q0 38 -18.5 55.5t-50.5 17.5q-34 0 -52 -20.5t-18 -65.5z" />
    <glyph glyph-name="eacute" unicode="&#xe9;" horiz-adv-x="537" 
d="M274 740h133v-72l-82 -98h-133zM33 248v28q0 127 63.5 192.5t175.5 65.5q104 0 169.5 -54t65.5 -184q0 -39 -2.5 -62l-2.5 -23h-299v-5q0 -41 19 -61.5t60 -21.5q21 0 35.5 5t23.5 11t12.5 11l3.5 5h129v-123l-14 -6.5t-40 -14t-64 -14t-86 -6.5q-123 0 -186 65t-63 192z
M203 318v-8h138l0.5 5.5t0.5 15.5q0 38 -18.5 55.5t-50.5 17.5q-34 0 -52 -20.5t-18 -65.5z" />
    <glyph glyph-name="ecircumflex" unicode="&#xea;" horiz-adv-x="537" 
d="M121 566v70l95 104h111l94 -104v-70h-88l-34 42q-10 11 -18 22l-8 11h-4l-8.5 -11.5t-17.5 -21.5l-34 -42h-88zM33 248v28q0 127 63.5 192.5t175.5 65.5q104 0 169.5 -54t65.5 -184q0 -39 -2.5 -62l-2.5 -23h-299v-5q0 -41 19 -61.5t60 -21.5q21 0 35.5 5t23.5 11
t12.5 11l3.5 5h129v-123l-14 -6.5t-40 -14t-64 -14t-86 -6.5q-123 0 -186 65t-63 192zM203 318v-8h138l0.5 5.5t0.5 15.5q0 38 -18.5 55.5t-50.5 17.5q-34 0 -52 -20.5t-18 -65.5z" />
    <glyph glyph-name="edieresis" unicode="&#xeb;" horiz-adv-x="537" 
d="M111 653q0 32 18.5 50.5t55.5 18.5q40 0 56.5 -20t16.5 -49v-9q0 -31 -18 -49.5t-55 -18.5q-40 0 -57 19.5t-17 48.5v9zM283 653q0 32 18.5 50.5t55.5 18.5q40 0 56.5 -20t16.5 -49v-9q0 -31 -18 -49.5t-55 -18.5q-40 0 -57 19.5t-17 48.5v9zM33 248v28q0 127 63.5 192.5
t175.5 65.5q104 0 169.5 -54t65.5 -184q0 -39 -2.5 -62l-2.5 -23h-299v-5q0 -41 19 -61.5t60 -21.5q21 0 35.5 5t23.5 11t12.5 11l3.5 5h129v-123l-14 -6.5t-40 -14t-64 -14t-86 -6.5q-123 0 -186 65t-63 192zM203 318v-8h138l0.5 5.5t0.5 15.5q0 38 -18.5 55.5t-50.5 17.5
q-34 0 -52 -20.5t-18 -65.5z" />
    <glyph glyph-name="igrave" unicode="&#xec;" horiz-adv-x="277" 
d="M133 740l82 -170h-133l-82 98v72h133zM225 0h-172v523h172v-523z" />
    <glyph glyph-name="iacute" unicode="&#xed;" horiz-adv-x="277" 
d="M143 740h133v-72l-82 -98h-133zM225 0h-172v523h172v-523z" />
    <glyph glyph-name="icircumflex" unicode="&#xee;" horiz-adv-x="277" 
d="M-11 566v70l95 104h111l94 -104v-70h-88l-34 42q-10 11 -18 22l-8 11h-4l-8.5 -11.5t-17.5 -21.5l-34 -42h-88zM225 0h-172v523h172v-523z" />
    <glyph glyph-name="idieresis" unicode="&#xef;" horiz-adv-x="277" 
d="M-21 653q0 32 18.5 50.5t55.5 18.5q40 0 56.5 -20t16.5 -49v-9q0 -31 -18 -49.5t-55 -18.5q-40 0 -57 19.5t-17 48.5v9zM151 653q0 32 18.5 50.5t55.5 18.5q40 0 56.5 -20t16.5 -49v-9q0 -31 -18 -49.5t-55 -18.5q-40 0 -57 19.5t-17 48.5v9zM225 0h-172v523h172v-523z
" />
    <glyph glyph-name="eth" unicode="&#xf0;" horiz-adv-x="557" 
d="M218 521h-65v66l57 35q-13 4 -27.5 7t-29.5 4v107h107l23 -8.5t57 -30.5l67 41h64v-66l-61 -37q45 -51 79.5 -137t34.5 -219v-37q0 -124 -64.5 -191.5t-181.5 -67.5t-181 67.5t-64 191.5v29q0 115 58.5 174.5t161.5 59.5q40 0 61.5 -10l21.5 -10h2q-8 22 -20 41.5
t-27 35.5zM207 227q0 -63 15.5 -89t55.5 -26q41 0 56.5 26t15.5 89v45q0 63 -16 88.5t-56 25.5t-55.5 -26t-15.5 -88v-45z" />
    <glyph glyph-name="ntilde" unicode="&#xf1;" horiz-adv-x="574" 
d="M84 584v100l6.5 8t20 17t36 17t53.5 8q24 0 43 -4t35 -9l25 -7q13 -4 22.5 -7t25.5 -3q27 0 35.5 14l8.5 14h93v-100l-6.5 -8t-20 -17t-36 -17t-53.5 -8q-24 0 -43 4t-35 9l-25 7q-13 4 -22.5 7t-25.5 3q-27 0 -35.5 -14l-8.5 -14h-93zM53 0v523h142l20 -57h3l10 10.5
t29 22.5t48 22.5t67 10.5q76 0 114.5 -39.5t38.5 -130.5v-362h-172v331q0 33 -13.5 47.5t-44.5 14.5q-30 0 -50 -12.5l-20 -12.5v-368h-172z" />
    <glyph glyph-name="ograve" unicode="&#xf2;" horiz-adv-x="557" 
d="M278 740l82 -170h-133l-82 98v72h133zM33 246v32q0 123 64 190.5t181 67.5q118 0 182 -67.5t64 -190.5v-32q0 -124 -64.5 -191.5t-181.5 -67.5t-181 67.5t-64 191.5zM207 239q0 -62 15 -89t56 -27t56.5 26.5t15.5 89.5v45q0 63 -15.5 90t-56.5 27t-56 -27.5t-15 -89.5
v-45z" />
    <glyph glyph-name="oacute" unicode="&#xf3;" horiz-adv-x="557" 
d="M278 740h133v-72l-82 -98h-133zM33 246v32q0 123 64 190.5t181 67.5q118 0 182 -67.5t64 -190.5v-32q0 -124 -64.5 -191.5t-181.5 -67.5t-181 67.5t-64 191.5zM207 239q0 -62 15 -89t56 -27t56.5 26.5t15.5 89.5v45q0 63 -15.5 90t-56.5 27t-56 -27.5t-15 -89.5v-45z" />
    <glyph glyph-name="ocircumflex" unicode="&#xf4;" horiz-adv-x="557" 
d="M128 566v70l95 104h111l94 -104v-70h-88l-34 42q-10 11 -18 22l-8 11h-4l-8.5 -11.5t-17.5 -21.5l-34 -42h-88zM33 246v32q0 123 64 190.5t181 67.5q118 0 182 -67.5t64 -190.5v-32q0 -124 -64.5 -191.5t-181.5 -67.5t-181 67.5t-64 191.5zM207 239q0 -62 15 -89t56 -27
t56.5 26.5t15.5 89.5v45q0 63 -15.5 90t-56.5 27t-56 -27.5t-15 -89.5v-45z" />
    <glyph glyph-name="otilde" unicode="&#xf5;" horiz-adv-x="557" 
d="M76 584v100l6.5 8t20 17t36 17t53.5 8q24 0 43 -4t35 -9l25 -7q13 -4 22.5 -7t25.5 -3q27 0 35.5 14l8.5 14h93v-100l-6.5 -8t-20 -17t-36 -17t-53.5 -8q-24 0 -43 4t-35 9l-25 7q-13 4 -22.5 7t-25.5 3q-27 0 -35.5 -14l-8.5 -14h-93zM33 246v32q0 123 64 190.5
t181 67.5q118 0 182 -67.5t64 -190.5v-32q0 -124 -64.5 -191.5t-181.5 -67.5t-181 67.5t-64 191.5zM207 239q0 -62 15 -89t56 -27t56.5 26.5t15.5 89.5v45q0 63 -15.5 90t-56.5 27t-56 -27.5t-15 -89.5v-45z" />
    <glyph glyph-name="odieresis" unicode="&#xf6;" horiz-adv-x="557" 
d="M118 653q0 32 18.5 50.5t55.5 18.5q40 0 56.5 -20t16.5 -49v-9q0 -31 -18 -49.5t-55 -18.5q-40 0 -57 19.5t-17 48.5v9zM290 653q0 32 18.5 50.5t55.5 18.5q40 0 56.5 -20t16.5 -49v-9q0 -31 -18 -49.5t-55 -18.5q-40 0 -57 19.5t-17 48.5v9zM33 246v32q0 123 64 190.5
t181 67.5q118 0 182 -67.5t64 -190.5v-32q0 -124 -64.5 -191.5t-181.5 -67.5t-181 67.5t-64 191.5zM207 239q0 -62 15 -89t56 -27t56.5 26.5t15.5 89.5v45q0 63 -15.5 90t-56.5 27t-56 -27.5t-15 -89.5v-45z" />
    <glyph glyph-name="divide" unicode="&#xf7;" horiz-adv-x="600" 
d="M213 498q0 39 23 61t66 22t65.5 -22t22.5 -61v-11q0 -39 -22.5 -61.5t-65.5 -22.5t-66 22.5t-23 61.5v11zM53 373h495v-150h-495v150zM213 113q0 39 23 61t66 22t65.5 -22t22.5 -61v-11q0 -39 -22.5 -61.5t-65.5 -22.5t-66 22.5t-23 61.5v11z" />
    <glyph glyph-name="oslash" unicode="&#xf8;" horiz-adv-x="557" 
d="M33 246v32q0 123 64 190.5t181 67.5q35 0 66 -6t57 -18l37 54h63v-51l-36 -52q29 -32 44 -79t15 -106v-32q0 -124 -64.5 -191.5t-181.5 -67.5q-35 0 -66 6t-56 19l-38 -55h-63v51l36 52q-28 33 -43 80t-15 106zM207 239v-1v-8l111 161q-7 5 -17 7.5t-23 2.5
q-41 0 -56 -27.5t-15 -89.5v-45zM350 284v1.5v9.5l-112 -163q7 -4 17 -6.5t23 -2.5q41 0 56.5 26.5t15.5 89.5v45z" />
    <glyph glyph-name="ugrave" unicode="&#xf9;" 
d="M269 740l82 -170h-133l-82 98v72h133zM49 523h172v-331q0 -33 14 -47t45 -14t48.5 12.5l17.5 12.5v367h172v-523h-142l-20 57h-3l-9 -10.5t-27.5 -22.5t-47 -22.5t-66.5 -10.5q-76 0 -115 40t-39 130v362z" />
    <glyph glyph-name="uacute" unicode="&#xfa;" 
d="M291 740h133v-72l-82 -98h-133zM49 523h172v-331q0 -33 14 -47t45 -14t48.5 12.5l17.5 12.5v367h172v-523h-142l-20 57h-3l-9 -10.5t-27.5 -22.5t-47 -22.5t-66.5 -10.5q-76 0 -115 40t-39 130v362z" />
    <glyph glyph-name="ucircumflex" unicode="&#xfb;" 
d="M134 566v70l95 104h111l94 -104v-70h-88l-34 42q-10 11 -18 22l-8 11h-4l-8.5 -11.5t-17.5 -21.5l-34 -42h-88zM49 523h172v-331q0 -33 14 -47t45 -14t48.5 12.5l17.5 12.5v367h172v-523h-142l-20 57h-3l-9 -10.5t-27.5 -22.5t-47 -22.5t-66.5 -10.5q-76 0 -115 40
t-39 130v362z" />
    <glyph glyph-name="udieresis" unicode="&#xfc;" 
d="M124 653q0 32 18.5 50.5t55.5 18.5q40 0 56.5 -20t16.5 -49v-9q0 -31 -18 -49.5t-55 -18.5q-40 0 -57 19.5t-17 48.5v9zM296 653q0 32 18.5 50.5t55.5 18.5q40 0 56.5 -20t16.5 -49v-9q0 -31 -18 -49.5t-55 -18.5q-40 0 -57 19.5t-17 48.5v9zM49 523h172v-331
q0 -33 14 -47t45 -14t48.5 12.5l17.5 12.5v367h172v-523h-142l-20 57h-3l-9 -10.5t-27.5 -22.5t-47 -22.5t-66.5 -10.5q-76 0 -115 40t-39 130v362z" />
    <glyph glyph-name="yacute" unicode="&#xfd;" horiz-adv-x="527" 
d="M274 740h133v-72l-82 -98h-133zM112 -38h41q23 0 38 9t20 33l8 31h-72l-125 382v106h146l62 -201q6 -19 11.5 -44t9.5 -47.5t6.5 -37.5l2.5 -15h12l2.5 15t6 37.5t9 47.5t11.5 44l61 201h143v-107l-125 -381l-12 -47q-12 -53 -31.5 -85t-37 -49t-30.5 -22l-13 -5h-144
v135z" />
    <glyph glyph-name="thorn" unicode="&#xfe;" horiz-adv-x="569" 
d="M352 -9q-29 0 -52 6.5t-39.5 15t-26 16.5t-12.5 11h-3l0.5 -10t1.5 -25t1.5 -32t0.5 -32v-114h-170v913h170v-171q0 -16 -0.5 -33t-1.5 -31t-1.5 -23.5l-0.5 -9.5h4l8.5 9.5t26 20.5t44 20.5t61.5 9.5q98 0 135.5 -65t37.5 -178v-51q0 -50 -9 -95.5t-30 -79t-56.5 -53
t-88.5 -19.5zM297 400q-35 0 -54.5 -13.5l-19.5 -13.5v-231l19 -9t51 -9q47 0 59 33.5t12 76.5v63q0 40 -10.5 71.5t-56.5 31.5z" />
    <glyph glyph-name="ydieresis" unicode="&#xff;" horiz-adv-x="527" 
d="M105 653q0 32 18.5 50.5t55.5 18.5q40 0 56.5 -20t16.5 -49v-9q0 -31 -18 -49.5t-55 -18.5q-40 0 -57 19.5t-17 48.5v9zM277 653q0 32 18.5 50.5t55.5 18.5q40 0 56.5 -20t16.5 -49v-9q0 -31 -18 -49.5t-55 -18.5q-40 0 -57 19.5t-17 48.5v9zM112 -38h41q23 0 38 9t20 33
l8 31h-72l-125 382v106h146l62 -201q6 -19 11.5 -44t9.5 -47.5t6.5 -37.5l2.5 -15h12l2.5 15t6 37.5t9 47.5t11.5 44l61 201h143v-107l-125 -381l-12 -47q-12 -53 -31.5 -85t-37 -49t-30.5 -22l-13 -5h-144v135z" />
    <glyph glyph-name="Amacron" unicode="&#x100;" horiz-adv-x="622" 
d="M161 881h299v-120h-299v120zM25 0v93l146 587h280l146 -587v-93h-154l-29 124q-25 -4 -51.5 -6.5t-52.5 -2.5t-52 2.5t-51 6.5l-29 -124h-153zM263 366l-23 -101q17 -2 34.5 -3.5t35.5 -1.5t35.5 1.5t34.5 3.5l-24 101q-4 19 -10.5 47.5t-12 54.5t-9.5 44.5l-4 18.5h-26
l-3 -18.5t-7.5 -44.5t-10 -54.5t-10.5 -47.5z" />
    <glyph glyph-name="amacron" unicode="&#x101;" horiz-adv-x="537" 
d="M115 724h299v-120h-299v120zM63 360v129l13.5 6.5t39.5 14t64 14t87 6.5q112 0 166.5 -43t54.5 -136v-351h-138l-18 50h-4l-8.5 -9t-26 -20t-43.5 -20t-61 -9q-87 0 -124.5 43t-37.5 118q0 84 51 120t137 36h107v31q0 25 -14 38.5t-51 13.5q-21 0 -33 -5t-18 -11t-8 -11
l-2 -5h-133zM245 117q43 0 60 14l17 14v67h-77q-28 0 -42 -13.5t-14 -33.5q0 -24 12.5 -36t43.5 -12z" />
    <glyph glyph-name="Abreve" unicode="&#x102;" horiz-adv-x="622" 
d="M158 886h93l1 -9t6.5 -20t17.5 -20t35 -9q22 0 34.5 9t17.5 20t6 20l1 9h93v-83l-7 -12.5t-24 -27.5t-46.5 -27.5t-74.5 -12.5t-75 12.5t-47 27.5t-24 27.5l-7 12.5v83zM25 0v93l146 587h280l146 -587v-93h-154l-29 124q-25 -4 -51.5 -6.5t-52.5 -2.5t-52 2.5t-51 6.5
l-29 -124h-153zM263 366l-23 -101q17 -2 34.5 -3.5t35.5 -1.5t35.5 1.5t34.5 3.5l-24 101q-4 19 -10.5 47.5t-12 54.5t-9.5 44.5l-4 18.5h-26l-3 -18.5t-7.5 -44.5t-10 -54.5t-10.5 -47.5z" />
    <glyph glyph-name="abreve" unicode="&#x103;" horiz-adv-x="537" 
d="M112 729h93l1 -9t6.5 -20t17.5 -20t35 -9q22 0 34.5 9t17.5 20t6 20l1 9h93v-83l-7 -12.5t-24 -27.5t-46.5 -27.5t-74.5 -12.5t-75 12.5t-47 27.5t-24 27.5l-7 12.5v83zM63 360v129l13.5 6.5t39.5 14t64 14t87 6.5q112 0 166.5 -43t54.5 -136v-351h-138l-18 50h-4
l-8.5 -9t-26 -20t-43.5 -20t-61 -9q-87 0 -124.5 43t-37.5 118q0 84 51 120t137 36h107v31q0 25 -14 38.5t-51 13.5q-21 0 -33 -5t-18 -11t-8 -11l-2 -5h-133zM245 117q43 0 60 14l17 14v67h-77q-28 0 -42 -13.5t-14 -33.5q0 -24 12.5 -36t43.5 -12z" />
    <glyph glyph-name="Aogonek" unicode="&#x104;" horiz-adv-x="622" 
d="M25 0v93l146 587h280l146 -587v-93l-34 -26q-18 -13 -27.5 -23.5t-9.5 -22.5q0 -13 10 -20t26 -7h19v-82h-67q-49 0 -78.5 26.5t-29.5 69.5q0 26 10 46t29 39h-2l-29 124q-25 -4 -51.5 -6.5t-52.5 -2.5t-52 2.5t-51 6.5l-29 -124h-153zM263 366l-23 -101q17 -2 34.5 -3.5
t35.5 -1.5t35.5 1.5t34.5 3.5l-24 101q-4 19 -10.5 47.5t-12 54.5t-9.5 44.5l-4 18.5h-26l-3 -18.5t-7.5 -44.5t-10 -54.5t-10.5 -47.5z" />
    <glyph glyph-name="aogonek" unicode="&#x105;" horiz-adv-x="537" 
d="M63 360v129l13.5 6.5t39.5 14t64 14t87 6.5q112 0 166.5 -43t54.5 -136v-351l-34 -26q-18 -13 -27.5 -23.5t-9.5 -22.5q0 -13 10 -20t26 -7h19v-82h-67q-49 0 -78.5 26.5t-29.5 69.5q0 29 12 51t37 44l-14 40h-4l-8.5 -9t-26 -20t-43.5 -20t-61 -9q-87 0 -124.5 43
t-37.5 118q0 84 51 120t137 36h107v31q0 25 -14 38.5t-51 13.5q-21 0 -33 -5t-18 -11t-8 -11l-2 -5h-133zM245 117q43 0 60 14l17 14v67h-77q-28 0 -42 -13.5t-14 -33.5q0 -24 12.5 -36t43.5 -12z" />
    <glyph glyph-name="Cacute" unicode="&#x106;" horiz-adv-x="548" 
d="M461 918v-99l-255 -110v107l144 102h111zM40 254v173q0 135 68 198.5t193 63.5q56 0 96.5 -10t67 -22.5t39 -22.5l12.5 -10v-145h-140l-1.5 8.5t-8.5 19t-21.5 19t-39.5 8.5q-51 0 -69 -26t-18 -75v-185q0 -49 18 -75t69 -26q25 0 39.5 8.5t21.5 18.5t8.5 18.5l1.5 8.5
h140v-144l-12.5 -10.5t-39 -22.5t-67 -22.5t-96.5 -10.5q-125 0 -193 64t-68 199z" />
    <glyph glyph-name="cacute" unicode="&#x107;" horiz-adv-x="481" 
d="M262 740h133v-72l-82 -98h-133zM33 243v37q0 134 64 192t173 58q43 0 77 -6t57 -12.5t35.5 -12.5l12.5 -6v-145h-133q-1 10 -11 25t-39 15q-31 0 -46.5 -19.5t-15.5 -75.5v-63q0 -56 15.5 -75.5t46.5 -19.5q29 0 39 15t11 25h133v-145l-12.5 -6t-35.5 -13t-57 -13t-77 -6
q-109 0 -173 58.5t-64 192.5z" />
    <glyph glyph-name="Ccircumflex" unicode="&#x108;" horiz-adv-x="548" 
d="M149 727v68l99 78h105l98 -78v-68h-87l-35 30q-10 8 -18 15.5l-8 7.5h-5l-8 -7.5t-18 -15.5l-35 -30h-88zM40 254v173q0 135 68 198.5t193 63.5q56 0 96.5 -10t67 -22.5t39 -22.5l12.5 -10v-145h-140l-1.5 8.5t-8.5 19t-21.5 19t-39.5 8.5q-51 0 -69 -26t-18 -75v-185
q0 -49 18 -75t69 -26q25 0 39.5 8.5t21.5 18.5t8.5 18.5l1.5 8.5h140v-144l-12.5 -10.5t-39 -22.5t-67 -22.5t-96.5 -10.5q-125 0 -193 64t-68 199z" />
    <glyph glyph-name="ccircumflex" unicode="&#x109;" horiz-adv-x="481" 
d="M117 566v70l95 104h111l94 -104v-70h-88l-34 42q-10 11 -18 22l-8 11h-4l-8.5 -11.5t-17.5 -21.5l-34 -42h-88zM33 243v37q0 134 64 192t173 58q43 0 77 -6t57 -12.5t35.5 -12.5l12.5 -6v-145h-133q-1 10 -11 25t-39 15q-31 0 -46.5 -19.5t-15.5 -75.5v-63
q0 -56 15.5 -75.5t46.5 -19.5q29 0 39 15t11 25h133v-145l-12.5 -6t-35.5 -13t-57 -13t-77 -6q-109 0 -173 58.5t-64 192.5z" />
    <glyph glyph-name="Cdotaccent" unicode="&#x10a;" horiz-adv-x="548" 
d="M205 819q0 40 24.5 62.5t70.5 22.5q45 0 69.5 -22.5t24.5 -62.5v-12q0 -41 -24.5 -63t-69.5 -22q-46 0 -70.5 22t-24.5 63v12zM40 254v173q0 135 68 198.5t193 63.5q56 0 96.5 -10t67 -22.5t39 -22.5l12.5 -10v-145h-140l-1.5 8.5t-8.5 19t-21.5 19t-39.5 8.5
q-51 0 -69 -26t-18 -75v-185q0 -49 18 -75t69 -26q25 0 39.5 8.5t21.5 18.5t8.5 18.5l1.5 8.5h140v-144l-12.5 -10.5t-39 -22.5t-67 -22.5t-96.5 -10.5q-125 0 -193 64t-68 199z" />
    <glyph glyph-name="cdotaccent" unicode="&#x10b;" horiz-adv-x="481" 
d="M172 662q0 40 24.5 62.5t70.5 22.5q45 0 69.5 -22.5t24.5 -62.5v-12q0 -41 -24.5 -63t-69.5 -22q-46 0 -70.5 22t-24.5 63v12zM33 243v37q0 134 64 192t173 58q43 0 77 -6t57 -12.5t35.5 -12.5l12.5 -6v-145h-133q-1 10 -11 25t-39 15q-31 0 -46.5 -19.5t-15.5 -75.5v-63
q0 -56 15.5 -75.5t46.5 -19.5q29 0 39 15t11 25h133v-145l-12.5 -6t-35.5 -13t-57 -13t-77 -6q-109 0 -173 58.5t-64 192.5z" />
    <glyph glyph-name="Ccaron" unicode="&#x10c;" horiz-adv-x="548" 
d="M148 872h88l35 -30q10 -8 18 -15.5l8 -7.5h5l8 7.5t18 15.5l35 30h87v-68l-98 -78h-105l-99 78v68zM40 254v173q0 135 68 198.5t193 63.5q56 0 96.5 -10t67 -22.5t39 -22.5l12.5 -10v-145h-140l-1.5 8.5t-8.5 19t-21.5 19t-39.5 8.5q-51 0 -69 -26t-18 -75v-185
q0 -49 18 -75t69 -26q25 0 39.5 8.5t21.5 18.5t8.5 18.5l1.5 8.5h140v-144l-12.5 -10.5t-39 -22.5t-67 -22.5t-96.5 -10.5q-125 0 -193 64t-68 199z" />
    <glyph glyph-name="ccaron" unicode="&#x10d;" horiz-adv-x="481" 
d="M417 740v-70l-95 -104h-111l-94 104v70h88l34 -42q10 -11 18 -22l8 -11h4l8.5 11.5t17.5 21.5l34 42h88zM33 243v37q0 134 64 192t173 58q43 0 77 -6t57 -12.5t35.5 -12.5l12.5 -6v-145h-133q-1 10 -11 25t-39 15q-31 0 -46.5 -19.5t-15.5 -75.5v-63q0 -56 15.5 -75.5
t46.5 -19.5q29 0 39 15t11 25h133v-145l-12.5 -6t-35.5 -13t-57 -13t-77 -6q-109 0 -173 58.5t-64 192.5z" />
    <glyph glyph-name="Dcaron" unicode="&#x10e;" horiz-adv-x="618" 
d="M146 872h88l35 -30q10 -8 18 -15.5l8 -7.5h5l8 7.5t18 15.5l35 30h87v-68l-98 -78h-105l-99 78v68zM57 0v680h263q120 0 189 -60t69 -196v-167q0 -136 -69 -196.5t-189 -60.5h-263zM311 529h-76v-377h76q44 0 66.5 21t22.5 69v196q0 49 -22.5 70t-66.5 21z" />
    <glyph glyph-name="dcaron" unicode="&#x10f;" horiz-adv-x="754" 
d="M33 234v52q0 50 9 94.5t30.5 77t57 51.5t88.5 19q31 0 55.5 -7t41 -15t24.5 -15l8 -7h3l-0.5 10t-1.5 24.5t-1.5 31.5t-0.5 32v158h172v-740h-147l-21 52h-4l-8.5 -9t-25.5 -19.5t-43.5 -19.5t-61.5 -9q-98 0 -136 63.5t-38 175.5zM570 549l4 16.5t9.5 43.5t9.5 61.5
t4 69.5h150v-57q-7 -32 -17 -57t-19.5 -42t-16.5 -26l-7 -9h-117zM207 228q0 -41 10 -71t56 -30q35 0 54 12.5l19 12.5v228l-18.5 8t-50.5 8q-47 0 -58.5 -32.5t-11.5 -75.5v-60z" />
    <glyph glyph-name="Dcroat" unicode="&#x110;" horiz-adv-x="618" 
d="M-10 398h67v282h263q120 0 189 -60t69 -196v-167q0 -136 -69 -196.5t-189 -60.5h-263v283h-67v115zM319 283h-84v-131h76q44 0 66.5 21t22.5 69v196q0 49 -22.5 70t-66.5 21h-76v-131h84v-115z" />
    <glyph glyph-name="dcroat" unicode="&#x111;" 
d="M33 234v52q0 50 9 94.5t30.5 77t57 51.5t88.5 19q31 0 55.5 -7t41 -15t24.5 -15l8 -7h3l-1.5 26.5t-2.5 54.5h-112v115h112v60h172v-60h45v-115h-45v-565h-147l-21 52h-4l-8.5 -9t-25.5 -19.5t-43.5 -19.5t-61.5 -9q-98 0 -136 63.5t-38 175.5zM207 228q0 -41 10 -71
t56 -30q35 0 54 12.5l19 12.5v228l-18.5 8t-50.5 8q-47 0 -58.5 -32.5t-11.5 -75.5v-60z" />
    <glyph glyph-name="Emacron" unicode="&#x112;" horiz-adv-x="541" 
d="M132 881h299v-120h-299v120zM57 0v680h455l-21 -150h-261v-117h238v-145h-238v-118h272v-150h-445z" />
    <glyph glyph-name="emacron" unicode="&#x113;" horiz-adv-x="537" 
d="M121 724h299v-120h-299v120zM33 248v28q0 127 63.5 192.5t175.5 65.5q104 0 169.5 -54t65.5 -184q0 -39 -2.5 -62l-2.5 -23h-299v-5q0 -41 19 -61.5t60 -21.5q21 0 35.5 5t23.5 11t12.5 11l3.5 5h129v-123l-14 -6.5t-40 -14t-64 -14t-86 -6.5q-123 0 -186 65t-63 192z
M203 318v-8h138l0.5 5.5t0.5 15.5q0 38 -18.5 55.5t-50.5 17.5q-34 0 -52 -20.5t-18 -65.5z" />
    <glyph glyph-name="Ebreve" unicode="&#x114;" horiz-adv-x="541" 
d="M129 886h93l1 -9t6.5 -20t17.5 -20t35 -9q22 0 34.5 9t17.5 20t6 20l1 9h93v-83l-7 -12.5t-24 -27.5t-46.5 -27.5t-74.5 -12.5t-75 12.5t-47 27.5t-24 27.5l-7 12.5v83zM57 0v680h455l-21 -150h-261v-117h238v-145h-238v-118h272v-150h-445z" />
    <glyph glyph-name="ebreve" unicode="&#x115;" horiz-adv-x="537" 
d="M118 729h93l1 -9t6.5 -20t17.5 -20t35 -9q22 0 34.5 9t17.5 20t6 20l1 9h93v-83l-7 -12.5t-24 -27.5t-46.5 -27.5t-74.5 -12.5t-75 12.5t-47 27.5t-24 27.5l-7 12.5v83zM33 248v28q0 127 63.5 192.5t175.5 65.5q104 0 169.5 -54t65.5 -184q0 -39 -2.5 -62l-2.5 -23h-299
v-5q0 -41 19 -61.5t60 -21.5q21 0 35.5 5t23.5 11t12.5 11l3.5 5h129v-123l-14 -6.5t-40 -14t-64 -14t-86 -6.5q-123 0 -186 65t-63 192zM203 318v-8h138l0.5 5.5t0.5 15.5q0 38 -18.5 55.5t-50.5 17.5q-34 0 -52 -20.5t-18 -65.5z" />
    <glyph glyph-name="Edotaccent" unicode="&#x116;" horiz-adv-x="541" 
d="M187 819q0 40 24.5 62.5t70.5 22.5q45 0 69.5 -22.5t24.5 -62.5v-12q0 -41 -24.5 -63t-69.5 -22q-46 0 -70.5 22t-24.5 63v12zM57 0v680h455l-21 -150h-261v-117h238v-145h-238v-118h272v-150h-445z" />
    <glyph glyph-name="edotaccent" unicode="&#x117;" horiz-adv-x="537" 
d="M176 662q0 40 24.5 62.5t70.5 22.5q45 0 69.5 -22.5t24.5 -62.5v-12q0 -41 -24.5 -63t-69.5 -22q-46 0 -70.5 22t-24.5 63v12zM33 248v28q0 127 63.5 192.5t175.5 65.5q104 0 169.5 -54t65.5 -184q0 -39 -2.5 -62l-2.5 -23h-299v-5q0 -41 19 -61.5t60 -21.5q21 0 35.5 5
t23.5 11t12.5 11l3.5 5h129v-123l-14 -6.5t-40 -14t-64 -14t-86 -6.5q-123 0 -186 65t-63 192zM203 318v-8h138l0.5 5.5t0.5 15.5q0 38 -18.5 55.5t-50.5 17.5q-34 0 -52 -20.5t-18 -65.5z" />
    <glyph glyph-name="Eogonek" unicode="&#x118;" horiz-adv-x="541" 
d="M57 0v680h455l-21 -150h-261v-117h238v-145h-238v-118h272v-150l-34 -26q-18 -13 -27.5 -23.5t-9.5 -22.5q0 -13 10 -20t26 -7h19v-82h-67q-49 0 -78.5 26.5t-29.5 69.5q0 26 10 46t29 39h-293z" />
    <glyph glyph-name="eogonek" unicode="&#x119;" horiz-adv-x="537" 
d="M33 248v28q0 127 63.5 192.5t175.5 65.5q104 0 169.5 -54t65.5 -184q0 -39 -2.5 -62l-2.5 -23h-299v-5q0 -41 19 -61.5t60 -21.5q21 0 35.5 5t23.5 11t12.5 11l3.5 5h129v-123l-27 -11.5t-76 -20.5l-34 -26q-18 -13 -27.5 -23.5t-9.5 -22.5q0 -13 10 -20t26 -7h19v-82
h-67q-49 0 -78.5 26.5t-29.5 69.5q0 25 8.5 43.5t25.5 36.5q-96 13 -144.5 77t-48.5 176zM203 318v-8h138l0.5 5.5t0.5 15.5q0 38 -18.5 55.5t-50.5 17.5q-34 0 -52 -20.5t-18 -65.5z" />
    <glyph glyph-name="Ecaron" unicode="&#x11a;" horiz-adv-x="541" 
d="M130 872h88l35 -30q10 -8 18 -15.5l8 -7.5h5l8 7.5t18 15.5l35 30h87v-68l-98 -78h-105l-99 78v68zM57 0v680h455l-21 -150h-261v-117h238v-145h-238v-118h272v-150h-445z" />
    <glyph glyph-name="ecaron" unicode="&#x11b;" horiz-adv-x="537" 
d="M421 740v-70l-95 -104h-111l-94 104v70h88l34 -42q10 -11 18 -22l8 -11h4l8.5 11.5t17.5 21.5l34 42h88zM33 248v28q0 127 63.5 192.5t175.5 65.5q104 0 169.5 -54t65.5 -184q0 -39 -2.5 -62l-2.5 -23h-299v-5q0 -41 19 -61.5t60 -21.5q21 0 35.5 5t23.5 11t12.5 11
l3.5 5h129v-123l-14 -6.5t-40 -14t-64 -14t-86 -6.5q-123 0 -186 65t-63 192zM203 318v-8h138l0.5 5.5t0.5 15.5q0 38 -18.5 55.5t-50.5 17.5q-34 0 -52 -20.5t-18 -65.5z" />
    <glyph glyph-name="Gcircumflex" unicode="&#x11c;" horiz-adv-x="600" 
d="M149 727v68l99 78h105l98 -78v-68h-87l-35 30q-10 8 -18 15.5l-8 7.5h-5l-8 -7.5t-18 -15.5l-35 -30h-88zM40 240v188q0 136 72.5 198.5t198.5 62.5q57 0 99.5 -10.5t70.5 -22.5t42 -22.5l14 -10.5v-144h-140l-2.5 8.5t-11 19t-24.5 19t-44 8.5q-51 0 -74 -26t-23 -75
v-197q0 -56 25 -80t73 -24q40 0 60 14.5l20 14.5v103h-83v132h235v-396h-126l-17 44h-2l-9 -8t-27 -17.5t-45.5 -17.5t-62.5 -8q-99 0 -159 61t-60 186z" />
    <glyph glyph-name="gcircumflex" unicode="&#x11d;" horiz-adv-x="525" 
d="M28 -64q0 26 9.5 46t21.5 33t21.5 20l9.5 7v2l-6.5 4t-14.5 12.5t-15 24t-7 37.5q0 21 6.5 38t14.5 29.5t14.5 19.5l6.5 7v1l-8.5 8t-18 25t-18 42.5t-8.5 59.5v9q0 75 47.5 120.5t162.5 45.5q47 0 75 -5.5l28 -5.5h1q2 16 6.5 28t10.5 22h-59l-34 42q-10 11 -18 22
l-8 11h-4l-8.5 -11.5t-17.5 -21.5l-34 -42h-88v70l95 104h111l94 -104v-38q10 7 18 10.5l8 3.5h106v-129h-21q-19 0 -28 -11t-9 -31v-85q0 -78 -44 -126t-158 -48h-83l-4 -7t-4 -18q0 -8 4.5 -16t15.5 -8h162q77 0 115.5 -37t38.5 -102q0 -37 -9.5 -69.5t-36 -55.5
t-74.5 -36.5t-125 -13.5h-29q-66 0 -107.5 8.5t-64 24t-31 37t-8.5 47.5zM187 350q0 -24 9.5 -35l9.5 -11h44q40 0 54.5 13t14.5 40v38l-16 5t-51 5t-50 -13t-15 -40v-2zM175 -28q0 -19 14.5 -29.5t59.5 -10.5h27q54 0 70 12t16 32q0 15 -10 24.5t-29 9.5h-134l-7.5 -10.5
t-6.5 -27.5z" />
    <glyph glyph-name="Gbreve" unicode="&#x11e;" horiz-adv-x="600" 
d="M147 886h93l1 -9t6.5 -20t17.5 -20t35 -9q22 0 34.5 9t17.5 20t6 20l1 9h93v-83l-7 -12.5t-24 -27.5t-46.5 -27.5t-74.5 -12.5t-75 12.5t-47 27.5t-24 27.5l-7 12.5v83zM40 240v188q0 136 72.5 198.5t198.5 62.5q57 0 99.5 -10.5t70.5 -22.5t42 -22.5l14 -10.5v-144h-140
l-2.5 8.5t-11 19t-24.5 19t-44 8.5q-51 0 -74 -26t-23 -75v-197q0 -56 25 -80t73 -24q40 0 60 14.5l20 14.5v103h-83v132h235v-396h-126l-17 44h-2l-9 -8t-27 -17.5t-45.5 -17.5t-62.5 -8q-99 0 -159 61t-60 186z" />
    <glyph glyph-name="gbreve" unicode="&#x11f;" horiz-adv-x="525" 
d="M93 729h93l1 -9t6.5 -20t17.5 -20t35 -9q22 0 34.5 9t17.5 20t6 20l1 9h93v-83l-7 -12.5t-24 -27.5t-46.5 -27.5t-74.5 -12.5t-75 12.5t-47 27.5t-24 27.5l-7 12.5v83zM28 -64q0 26 9.5 46t21.5 33t21.5 20l9.5 7v2l-6.5 4t-14.5 12.5t-15 24t-7 37.5q0 21 6.5 38
t14.5 29.5t14.5 19.5l6.5 7v1l-8.5 8t-18 25t-18 42.5t-8.5 59.5v9q0 75 47.5 120.5t162.5 45.5q47 0 75 -5.5l28 -5.5h1q4 29 16 47.5t24.5 29.5t22 15l9.5 4h106v-129h-21q-19 0 -28 -11t-9 -31v-85q0 -78 -44 -126t-158 -48h-83l-4 -7t-4 -18q0 -8 4.5 -16t15.5 -8h162
q77 0 115.5 -37t38.5 -102q0 -37 -9.5 -69.5t-36 -55.5t-74.5 -36.5t-125 -13.5h-29q-66 0 -107.5 8.5t-64 24t-31 37t-8.5 47.5zM187 350q0 -24 9.5 -35l9.5 -11h44q40 0 54.5 13t14.5 40v38l-16 5t-51 5t-50 -13t-15 -40v-2zM175 -28q0 -19 14.5 -29.5t59.5 -10.5h27
q54 0 70 12t16 32q0 15 -10 24.5t-29 9.5h-134l-7.5 -10.5t-6.5 -27.5z" />
    <glyph glyph-name="Gdotaccent" unicode="&#x120;" horiz-adv-x="600" 
d="M205 819q0 40 24.5 62.5t70.5 22.5q45 0 69.5 -22.5t24.5 -62.5v-12q0 -41 -24.5 -63t-69.5 -22q-46 0 -70.5 22t-24.5 63v12zM40 240v188q0 136 72.5 198.5t198.5 62.5q57 0 99.5 -10.5t70.5 -22.5t42 -22.5l14 -10.5v-144h-140l-2.5 8.5t-11 19t-24.5 19t-44 8.5
q-51 0 -74 -26t-23 -75v-197q0 -56 25 -80t73 -24q40 0 60 14.5l20 14.5v103h-83v132h235v-396h-126l-17 44h-2l-9 -8t-27 -17.5t-45.5 -17.5t-62.5 -8q-99 0 -159 61t-60 186z" />
    <glyph glyph-name="gdotaccent" unicode="&#x121;" horiz-adv-x="525" 
d="M151 662q0 40 24.5 62.5t70.5 22.5q45 0 69.5 -22.5t24.5 -62.5v-12q0 -41 -24.5 -63t-69.5 -22q-46 0 -70.5 22t-24.5 63v12zM28 -64q0 26 9.5 46t21.5 33t21.5 20l9.5 7v2l-6.5 4t-14.5 12.5t-15 24t-7 37.5q0 21 6.5 38t14.5 29.5t14.5 19.5l6.5 7v1l-8.5 8t-18 25
t-18 42.5t-8.5 59.5v9q0 75 47.5 120.5t162.5 45.5q47 0 75 -5.5l28 -5.5h1q4 29 16 47.5t24.5 29.5t22 15l9.5 4h106v-129h-21q-19 0 -28 -11t-9 -31v-85q0 -78 -44 -126t-158 -48h-83l-4 -7t-4 -18q0 -8 4.5 -16t15.5 -8h162q77 0 115.5 -37t38.5 -102q0 -37 -9.5 -69.5
t-36 -55.5t-74.5 -36.5t-125 -13.5h-29q-66 0 -107.5 8.5t-64 24t-31 37t-8.5 47.5zM187 350q0 -24 9.5 -35l9.5 -11h44q40 0 54.5 13t14.5 40v38l-16 5t-51 5t-50 -13t-15 -40v-2zM175 -28q0 -19 14.5 -29.5t59.5 -10.5h27q54 0 70 12t16 32q0 15 -10 24.5t-29 9.5h-134
l-7.5 -10.5t-6.5 -27.5z" />
    <glyph glyph-name="uni0122" unicode="&#x122;" horiz-adv-x="600" 
d="M40 240v188q0 136 72.5 198.5t198.5 62.5q57 0 99.5 -10.5t70.5 -22.5t42 -22.5l14 -10.5v-144h-140l-2.5 8.5t-11 19t-24.5 19t-44 8.5q-51 0 -74 -26t-23 -75v-197q0 -56 25 -80t73 -24q40 0 60 14.5l20 14.5v103h-83v132h235v-396h-126l-17 44h-2l-9 -8t-27 -17.5
t-45.5 -17.5t-62.5 -8q-99 0 -159 61t-60 186zM177 -252l6 17.5t12.5 47.5t12.5 71t6 87h162v-74q-9 -37 -22 -65t-24.5 -46.5t-19.5 -28l-8 -9.5h-125z" />
    <glyph glyph-name="uni0123" unicode="&#x123;" horiz-adv-x="525" 
d="M360 787l-6 -16.5t-13 -45.5t-13 -69t-6 -87h-150v69q9 37 22 65t24 46.5t19 28l8 9.5h115zM28 -64q0 26 9.5 46t21.5 33t21.5 20l9.5 7v2l-6.5 4t-14.5 12.5t-15 24t-7 37.5q0 21 6.5 38t14.5 29.5t14.5 19.5l6.5 7v1l-8.5 8t-18 25t-18 42.5t-8.5 59.5v9
q0 75 47.5 120.5t162.5 45.5q47 0 75 -5.5l28 -5.5h1q4 29 16 47.5t24.5 29.5t22 15l9.5 4h106v-129h-21q-19 0 -28 -11t-9 -31v-85q0 -78 -44 -126t-158 -48h-83l-4 -7t-4 -18q0 -8 4.5 -16t15.5 -8h162q77 0 115.5 -37t38.5 -102q0 -37 -9.5 -69.5t-36 -55.5t-74.5 -36.5
t-125 -13.5h-29q-66 0 -107.5 8.5t-64 24t-31 37t-8.5 47.5zM187 350q0 -24 9.5 -35l9.5 -11h44q40 0 54.5 13t14.5 40v38l-16 5t-51 5t-50 -13t-15 -40v-2zM175 -28q0 -19 14.5 -29.5t59.5 -10.5h27q54 0 70 12t16 32q0 15 -10 24.5t-29 9.5h-134l-7.5 -10.5t-6.5 -27.5z
" />
    <glyph glyph-name="Hcircumflex" unicode="&#x124;" horiz-adv-x="650" 
d="M174 727v68l99 78h105l98 -78v-68h-87l-35 30q-10 8 -18 15.5l-8 7.5h-5l-8 -7.5t-18 -15.5l-35 -30h-88zM593 680v-680h-178v263h-180v-263h-178v680h178v-263h180v263h178z" />
    <glyph glyph-name="hcircumflex" unicode="&#x125;" horiz-adv-x="574" 
d="M-14 778v68l99 78h105l98 -78v-68h-87l-35 30q-10 8 -18 15.5l-8 7.5h-5l-8 -7.5t-18 -15.5l-35 -30h-88zM53 0v740h172v-174q0 -13 -0.5 -30.5t-1.5 -33t-1.5 -26l-0.5 -10.5h3l9 10.5t27.5 22.5t46.5 22.5t65 10.5q76 0 114.5 -39.5t38.5 -130.5v-362h-172v331
q0 33 -13.5 47.5t-44.5 14.5t-50.5 -12.5l-19.5 -12.5v-368h-172z" />
    <glyph glyph-name="Hbar" unicode="&#x126;" horiz-adv-x="650" 
d="M-16 616h73v64h178v-64h180v64h178v-64h73v-133h-73v-483h-178v263h-180v-263h-178v483h-73v133zM235 417h180v66h-180v-66z" />
    <glyph glyph-name="hbar" unicode="&#x127;" horiz-adv-x="574" 
d="M53 0v569h-51v115h51v56h172v-56h106v-115h-106v-3q0 -13 -0.5 -30.5t-1.5 -33t-1.5 -26l-0.5 -10.5h3l9 10.5t27.5 22.5t46.5 22.5t65 10.5q76 0 114.5 -39.5t38.5 -130.5v-362h-172v331q0 33 -13.5 47.5t-44.5 14.5t-50.5 -12.5l-19.5 -12.5v-368h-172z" />
    <glyph glyph-name="Itilde" unicode="&#x128;" horiz-adv-x="362" 
d="M-21 741v100l6.5 8t20 17t36 17t53.5 8q24 0 43 -4t35 -9l25 -7q13 -4 22.5 -7t25.5 -3q27 0 35.5 14l8.5 14h93v-100l-6.5 -8t-20 -17t-36 -17t-53.5 -8q-24 0 -43 4t-35 9l-25 7q-13 4 -22.5 7t-25.5 3q-27 0 -35.5 -14l-8.5 -14h-93zM30 120l62 15v410l-62 15v120h302
v-120l-62 -15v-410h1l61 -15v-120h-302v120z" />
    <glyph glyph-name="itilde" unicode="&#x129;" horiz-adv-x="277" 
d="M-63 584v100l6.5 8t20 17t36 17t53.5 8q24 0 43 -4t35 -9l25 -7q13 -4 22.5 -7t25.5 -3q27 0 35.5 14l8.5 14h93v-100l-6.5 -8t-20 -17t-36 -17t-53.5 -8q-24 0 -43 4t-35 9l-25 7q-13 4 -22.5 7t-25.5 3q-27 0 -35.5 -14l-8.5 -14h-93zM225 0h-172v523h172v-523z" />
    <glyph glyph-name="Imacron" unicode="&#x12a;" horiz-adv-x="362" 
d="M31 881h299v-120h-299v120zM30 120l62 15v410l-62 15v120h302v-120l-62 -15v-410h1l61 -15v-120h-302v120z" />
    <glyph glyph-name="imacron" unicode="&#x12b;" horiz-adv-x="277" 
d="M-11 724h299v-120h-299v120zM225 0h-172v523h172v-523z" />
    <glyph glyph-name="Ibreve" unicode="&#x12c;" horiz-adv-x="362" 
d="M28 886h93l1 -9t6.5 -20t17.5 -20t35 -9q22 0 34.5 9t17.5 20t6 20l1 9h93v-83l-7 -12.5t-24 -27.5t-46.5 -27.5t-74.5 -12.5t-75 12.5t-47 27.5t-24 27.5l-7 12.5v83zM30 120l62 15v410l-62 15v120h302v-120l-62 -15v-410h1l61 -15v-120h-302v120z" />
    <glyph glyph-name="ibreve" unicode="&#x12d;" horiz-adv-x="277" 
d="M-14 729h93l1 -9t6.5 -20t17.5 -20t35 -9q22 0 34.5 9t17.5 20t6 20l1 9h93v-83l-7 -12.5t-24 -27.5t-46.5 -27.5t-74.5 -12.5t-75 12.5t-47 27.5t-24 27.5l-7 12.5v83zM225 0h-172v523h172v-523z" />
    <glyph glyph-name="Iogonek" unicode="&#x12e;" horiz-adv-x="362" 
d="M30 120l62 15v410l-62 15v120h302v-120l-62 -15v-410h1l61 -15v-120l-34 -26q-18 -13 -27.5 -23.5t-9.5 -22.5q0 -13 10 -20t26 -7h19v-82h-67q-49 0 -78.5 26.5t-29.5 69.5q0 26 10 46t29 39h-150v120z" />
    <glyph glyph-name="iogonek" unicode="&#x12f;" horiz-adv-x="277" 
d="M44 662q0 40 24.5 62.5t70.5 22.5q45 0 69.5 -22.5t24.5 -62.5v-12q0 -41 -24.5 -63t-69.5 -22q-46 0 -70.5 22t-24.5 63v12zM225 0l-34 -26q-18 -13 -27.5 -23.5t-9.5 -22.5q0 -13 10 -20t26 -7h19v-82h-67q-49 0 -78.5 26.5t-29.5 69.5q0 26 10 46t29 39h-20v523h172
v-523z" />
    <glyph glyph-name="Idotaccent" unicode="&#x130;" horiz-adv-x="362" 
d="M86 819q0 40 24.5 62.5t70.5 22.5q45 0 69.5 -22.5t24.5 -62.5v-12q0 -41 -24.5 -63t-69.5 -22q-46 0 -70.5 22t-24.5 63v12zM30 120l62 15v410l-62 15v120h302v-120l-62 -15v-410h1l61 -15v-120h-302v120z" />
    <glyph glyph-name="dotlessi" unicode="&#x131;" horiz-adv-x="277" 
d="M225 0h-172v523h172v-523z" />
    <glyph glyph-name="IJ" unicode="&#x132;" horiz-adv-x="845" 
d="M30 120l62 15v410l-62 15v120h302v-120l-62 -15v-410h1l61 -15v-120h-302v120zM389 167h127l8 -10.5t39 -10.5q27 0 39 12.5t12 41.5v325h-199v155h377v-474q0 -101 -53.5 -157.5t-181.5 -56.5q-82 0 -125 14l-43 14v147z" />
    <glyph glyph-name="ij" unicode="&#x133;" horiz-adv-x="554" 
d="M43 678q0 41 25 63.5t71 22.5t70.5 -22.5t24.5 -63.5v-12q0 -41 -24.5 -63.5t-70.5 -22.5t-71 22.5t-25 63.5v12zM320 678q0 41 25 63.5t71 22.5t70.5 -22.5t24.5 -63.5v-12q0 -41 -24.5 -63.5t-70.5 -22.5t-71 22.5t-25 63.5v12zM53 0v523h172v-523h-172zM330 523h172
v-495q0 -59 -15 -98t-33 -62t-33 -32l-15 -9h-130v132h5q18 0 33.5 11.5t15.5 48.5v504z" />
    <glyph glyph-name="Jcircumflex" unicode="&#x134;" horiz-adv-x="483" 
d="M88 727v68l99 78h105l98 -78v-68h-87l-35 30q-10 8 -18 15.5l-8 7.5h-5l-8 -7.5t-18 -15.5l-35 -30h-88zM27 167h127l8 -10.5t39 -10.5q27 0 39 12.5t12 41.5v325h-199v155h377v-474q0 -101 -53.5 -157.5t-181.5 -56.5q-82 0 -125 14l-43 14v147z" />
    <glyph glyph-name="jcircumflex" unicode="&#x135;" horiz-adv-x="277" 
d="M-11 566v70l95 104h111l94 -104v-70h-88l-34 42q-10 11 -18 22l-8 11h-4l-8.5 -11.5t-17.5 -21.5l-34 -42h-88zM53 523h172v-495q0 -59 -15 -98t-33 -62t-33 -32l-15 -9h-130v132h5q18 0 33.5 11.5t15.5 48.5v504z" />
    <glyph glyph-name="uni0136" unicode="&#x136;" horiz-adv-x="614" 
d="M235 268v-268h-178v680h178v-136v-42t-0.5 -40.5t-0.5 -30.5v-12h41l19.5 31t44.5 67l115 163h136v-100l-165 -229v-3l16 -27.5t40.5 -66.5t55.5 -82t60 -72v-100h-139q-29 30 -61.5 75.5t-59.5 88.5t-45 73.5l-18 30.5h-39zM207 -252l6 17.5t12.5 47.5t12.5 71t6 87h162
v-74q-9 -37 -22 -65t-24.5 -46.5t-19.5 -28l-8 -9.5h-125z" />
    <glyph glyph-name="uni0137" unicode="&#x137;" horiz-adv-x="555" 
d="M53 0v740h172v-264q0 -59 -1.5 -98l-1.5 -39h39l6.5 9t17 22.5t23 30t23.5 30.5l77 92h121v-104l-122 -143v-4l10 -18t27.5 -43.5t41.5 -54.5t51 -51v-105h-134q-26 24 -51.5 58t-45 65t-31.5 52.5l-12 21.5h-38v-197h-172zM180 -252l6 17.5t12.5 47.5t12.5 71t6 87h162
v-74q-9 -37 -22 -65t-24.5 -46.5t-19.5 -28l-8 -9.5h-125z" />
    <glyph glyph-name="kgreenlandic" unicode="&#x138;" horiz-adv-x="559" 
d="M53 0v523h172v-55q0 -53 -1.5 -91l-1.5 -38h34l7 9t18 22.5t24 30t25 30.5l80 92h121v-104l-129 -140v-3l11.5 -18.5t30.5 -45t44.5 -56t52.5 -52.5v-104h-135q-26 24 -53 58t-48 65t-34 52.5l-13 21.5h-33v-197h-172z" />
    <glyph glyph-name="Lacute" unicode="&#x139;" horiz-adv-x="483" 
d="M316 918v-99l-255 -110v107l144 102h111zM57 0v680h178v-530h241l-24 -150h-395z" />
    <glyph glyph-name="lacute" unicode="&#x13a;" horiz-adv-x="283" 
d="M308 978v-99l-255 -110v107l144 102h111zM268 0h-130l-13.5 5.5t-29 22t-29 47t-13.5 80.5v585h172v-563q0 -22 9.5 -31t26.5 -9h7v-137z" />
    <glyph glyph-name="uni013B" unicode="&#x13b;" horiz-adv-x="483" 
d="M57 0v680h178v-530h241l-24 -150h-395zM144 -252l6 17.5t12.5 47.5t12.5 71t6 87h162v-74q-9 -37 -22 -65t-24.5 -46.5t-19.5 -28l-8 -9.5h-125z" />
    <glyph glyph-name="uni013C" unicode="&#x13c;" horiz-adv-x="283" 
d="M268 0h-130l-13.5 5.5t-29 22t-29 47t-13.5 80.5v585h172v-563q0 -22 9.5 -31t26.5 -9h7v-137zM69 -252l6 17.5t12.5 47.5t12.5 71t6 87h162v-74q-9 -37 -22 -65t-24.5 -46.5t-19.5 -28l-8 -9.5h-125z" />
    <glyph glyph-name="Lcaron" unicode="&#x13d;" horiz-adv-x="489" 
d="M57 0v680h178v-530h241l-24 -150h-395zM298 489l4 16.5t9.5 43.5t9.5 61.5t4 69.5h150v-57q-7 -32 -17 -57t-19.5 -42t-16.5 -26l-7 -9h-117z" />
    <glyph glyph-name="lcaron" unicode="&#x13e;" horiz-adv-x="461" 
d="M268 0h-130l-13.5 5.5t-29 22t-29 47t-13.5 80.5v585h172v-563q0 -22 9.5 -31t26.5 -9h7v-137zM277 549l4 16.5t9.5 43.5t9.5 61.5t4 69.5h150v-57q-7 -32 -17 -57t-19.5 -42t-16.5 -26l-7 -9h-117z" />
    <glyph glyph-name="Ldot" unicode="&#x13f;" horiz-adv-x="530" 
d="M57 0v680h178v-530h241l-24 -150h-395zM326 361q0 42 25 66t71 24t71 -24t25 -66v-12q0 -42 -25 -66t-71 -24t-71 24t-25 66v12z" />
    <glyph glyph-name="ldot" unicode="&#x140;" horiz-adv-x="454" 
d="M268 0h-130l-13.5 5.5t-29 22t-29 47t-13.5 80.5v585h172v-563q0 -22 9.5 -31t26.5 -9h7v-137zM271 359q0 42 25 66t71 24t71 -24t25 -66v-12q0 -42 -25 -66t-71 -24t-71 24t-25 66v12z" />
    <glyph glyph-name="Lslash" unicode="&#x141;" horiz-adv-x="515" 
d="M89 0v250l-19 -11h-79v93l98 54v294h178v-195l38 21h78v-93l-116 -64v-199h241l-24 -150h-395z" />
    <glyph glyph-name="lslash" unicode="&#x142;" horiz-adv-x="337" 
d="M0 266v92l83 50v332h172v-230l11 7h71v-92l-82 -49v-199q0 -22 9.5 -31t26.5 -9h7v-137h-130l-13.5 5.5t-29 22t-29 47t-13.5 80.5v118l-11 -7h-72z" />
    <glyph glyph-name="Nacute" unicode="&#x143;" horiz-adv-x="647" 
d="M489 918v-99l-255 -110v107l144 102h111zM57 0v680h163l154 -283q7 -12 15 -29t14.5 -31.5t11 -25l4.5 -10.5h2l-0.5 12t-1.5 30.5t-1.5 41t-0.5 43.5v252h173v-680h-174v61l-133 243q-7 15 -16.5 32.5t-17 33t-13 25.5l-5.5 10h-3l0.5 -16.5t0.5 -40.5t0.5 -52.5
t0.5 -52.5v-243h-173z" />
    <glyph glyph-name="nacute" unicode="&#x144;" horiz-adv-x="574" 
d="M292 740h133v-72l-82 -98h-133zM53 0v523h142l20 -57h3l10 10.5t29 22.5t48 22.5t67 10.5q76 0 114.5 -39.5t38.5 -130.5v-362h-172v331q0 33 -13.5 47.5t-44.5 14.5q-30 0 -50 -12.5l-20 -12.5v-368h-172z" />
    <glyph glyph-name="uni0145" unicode="&#x145;" horiz-adv-x="647" 
d="M57 0v680h163l154 -283q7 -12 15 -29t14.5 -31.5t11 -25l4.5 -10.5h2l-0.5 12t-1.5 30.5t-1.5 41t-0.5 43.5v252h173v-680h-174v61l-133 243q-7 15 -16.5 32.5t-17 33t-13 25.5l-5.5 10h-3l0.5 -16.5t0.5 -40.5t0.5 -52.5t0.5 -52.5v-243h-173zM213 -252l6 17.5
t12.5 47.5t12.5 71t6 87h162v-74q-9 -37 -22 -65t-24.5 -46.5t-19.5 -28l-8 -9.5h-125z" />
    <glyph glyph-name="uni0146" unicode="&#x146;" horiz-adv-x="574" 
d="M53 0v523h142l20 -57h3l10 10.5t29 22.5t48 22.5t67 10.5q76 0 114.5 -39.5t38.5 -130.5v-362h-172v331q0 33 -13.5 47.5t-44.5 14.5q-30 0 -50 -12.5l-20 -12.5v-368h-172zM180 -252l6 17.5t12.5 47.5t12.5 71t6 87h162v-74q-9 -37 -22 -65t-24.5 -46.5t-19.5 -28
l-8 -9.5h-125z" />
    <glyph glyph-name="Ncaron" unicode="&#x147;" horiz-adv-x="647" 
d="M173 872h88l35 -30q10 -8 18 -15.5l8 -7.5h5l8 7.5t18 15.5l35 30h87v-68l-98 -78h-105l-99 78v68zM57 0v680h163l154 -283q7 -12 15 -29t14.5 -31.5t11 -25l4.5 -10.5h2l-0.5 12t-1.5 30.5t-1.5 41t-0.5 43.5v252h173v-680h-174v61l-133 243q-7 15 -16.5 32.5t-17 33
t-13 25.5l-5.5 10h-3l0.5 -16.5t0.5 -40.5t0.5 -52.5t0.5 -52.5v-243h-173z" />
    <glyph glyph-name="ncaron" unicode="&#x148;" horiz-adv-x="574" 
d="M436 740v-70l-95 -104h-111l-94 104v70h88l34 -42q10 -11 18 -22l8 -11h4l8.5 11.5t17.5 21.5l34 42h88zM53 0v523h142l20 -57h3l10 10.5t29 22.5t48 22.5t67 10.5q76 0 114.5 -39.5t38.5 -130.5v-362h-172v331q0 33 -13.5 47.5t-44.5 14.5q-30 0 -50 -12.5l-20 -12.5
v-368h-172z" />
    <glyph glyph-name="napostrophe" unicode="&#x149;" horiz-adv-x="574" 
d="M54 569l4 16.5t9.5 43.5t9.5 61.5t4 69.5h150v-57q-7 -32 -17 -57t-19.5 -42t-16.5 -26l-7 -9h-117zM53 0v523h142l20 -57h3l10 10.5t29 22.5t48 22.5t67 10.5q76 0 114.5 -39.5t38.5 -130.5v-362h-172v331q0 33 -13.5 47.5t-44.5 14.5q-30 0 -50 -12.5l-20 -12.5v-368
h-172z" />
    <glyph glyph-name="Eng" unicode="&#x14a;" horiz-adv-x="647" 
d="M57 0v680h163l154 -283q7 -12 15 -29t14.5 -31.5t11 -25l4.5 -10.5h2l-0.5 12t-1.5 30.5t-1.5 41t-0.5 43.5v252h173v-681q0 -55 -14.5 -89t-31.5 -52.5t-31.5 -24.5l-14.5 -6h-137v124h7q23 0 35.5 11t12.5 40v59l-133 243q-7 15 -16.5 32.5t-17 33t-13 25.5l-5.5 10h-3
l0.5 -16.5t0.5 -40.5t0.5 -52.5t0.5 -52.5v-243h-173z" />
    <glyph glyph-name="eng" unicode="&#x14b;" horiz-adv-x="574" 
d="M53 0v523h142l20 -57h3l10 10.5t29 22.5t48 22.5t67 10.5q76 0 114.5 -39.5t38.5 -130.5v-362q0 -55 -14.5 -89.5t-31 -52.5t-31 -24.5l-14.5 -6.5h-136v126h8q22 0 34.5 10.5t12.5 38.5v329q0 33 -13.5 47.5t-44.5 14.5q-30 0 -50 -12.5l-20 -12.5v-368h-172z" />
    <glyph glyph-name="Omacron" unicode="&#x14c;" horiz-adv-x="629" 
d="M165 881h299v-120h-299v120zM40 257v166q0 130 71.5 200t203.5 70q131 0 202.5 -70t71.5 -200v-166q0 -128 -71.5 -199t-202.5 -71t-203 70.5t-72 199.5zM218 245q0 -51 23.5 -77t73.5 -26t73 26t23 77v191q0 51 -23 77t-73 26t-73.5 -26t-23.5 -77v-191z" />
    <glyph glyph-name="omacron" unicode="&#x14d;" horiz-adv-x="557" 
d="M128 724h299v-120h-299v120zM33 246v32q0 123 64 190.5t181 67.5q118 0 182 -67.5t64 -190.5v-32q0 -124 -64.5 -191.5t-181.5 -67.5t-181 67.5t-64 191.5zM207 239q0 -62 15 -89t56 -27t56.5 26.5t15.5 89.5v45q0 63 -15.5 90t-56.5 27t-56 -27.5t-15 -89.5v-45z" />
    <glyph glyph-name="Obreve" unicode="&#x14e;" horiz-adv-x="629" 
d="M162 886h93l1 -9t6.5 -20t17.5 -20t35 -9q22 0 34.5 9t17.5 20t6 20l1 9h93v-83l-7 -12.5t-24 -27.5t-46.5 -27.5t-74.5 -12.5t-75 12.5t-47 27.5t-24 27.5l-7 12.5v83zM40 257v166q0 130 71.5 200t203.5 70q131 0 202.5 -70t71.5 -200v-166q0 -128 -71.5 -199
t-202.5 -71t-203 70.5t-72 199.5zM218 245q0 -51 23.5 -77t73.5 -26t73 26t23 77v191q0 51 -23 77t-73 26t-73.5 -26t-23.5 -77v-191z" />
    <glyph glyph-name="obreve" unicode="&#x14f;" horiz-adv-x="557" 
d="M125 729h93l1 -9t6.5 -20t17.5 -20t35 -9q22 0 34.5 9t17.5 20t6 20l1 9h93v-83l-7 -12.5t-24 -27.5t-46.5 -27.5t-74.5 -12.5t-75 12.5t-47 27.5t-24 27.5l-7 12.5v83zM33 246v32q0 123 64 190.5t181 67.5q118 0 182 -67.5t64 -190.5v-32q0 -124 -64.5 -191.5
t-181.5 -67.5t-181 67.5t-64 191.5zM207 239q0 -62 15 -89t56 -27t56.5 26.5t15.5 89.5v45q0 63 -15.5 90t-56.5 27t-56 -27.5t-15 -89.5v-45z" />
    <glyph glyph-name="Ohungarumlaut" unicode="&#x150;" horiz-adv-x="629" 
d="M363 818l-83 -91h-121l88 161h116v-70zM555 818l-83 -91h-120l88 161h115v-70zM40 257v166q0 130 71.5 200t203.5 70q131 0 202.5 -70t71.5 -200v-166q0 -128 -71.5 -199t-202.5 -71t-203 70.5t-72 199.5zM218 245q0 -51 23.5 -77t73.5 -26t73 26t23 77v191q0 51 -23 77
t-73 26t-73.5 -26t-23.5 -77v-191z" />
    <glyph glyph-name="ohungarumlaut" unicode="&#x151;" horiz-adv-x="557" 
d="M317 661l-83 -91h-121l88 161h116v-70zM509 661l-83 -91h-120l88 161h115v-70zM33 246v32q0 123 64 190.5t181 67.5q118 0 182 -67.5t64 -190.5v-32q0 -124 -64.5 -191.5t-181.5 -67.5t-181 67.5t-64 191.5zM207 239q0 -62 15 -89t56 -27t56.5 26.5t15.5 89.5v45
q0 63 -15.5 90t-56.5 27t-56 -27.5t-15 -89.5v-45z" />
    <glyph glyph-name="OE" unicode="&#x152;" horiz-adv-x="895" 
d="M40 257v166q0 130 71.5 200t195.5 70q28 0 54.5 -4.5t49.5 -12.5v4h455l-21 -150h-261v-117h238v-145h-238v-118h272v-150h-445v6q-23 -9 -49.5 -14t-54.5 -5q-122 0 -194.5 70.5t-72.5 199.5zM218 245q0 -51 23.5 -77t73.5 -26t73 26t23 77v191q0 51 -23 77t-73 26
t-73.5 -26t-23.5 -77v-191z" />
    <glyph glyph-name="oe" unicode="&#x153;" horiz-adv-x="858" 
d="M33 246v32q0 123 64 190.5t181 67.5q49 0 89.5 -12t71.5 -36q29 23 68 34.5t86 11.5q104 0 169.5 -54t65.5 -184q0 -39 -2.5 -62l-2.5 -23h-299v-5q0 -41 19 -61.5t60 -21.5q21 0 35.5 5t23.5 11t12.5 11l3.5 5h129v-123l-14 -6.5t-40 -14t-64 -14t-86 -6.5
q-51 0 -92 11.5t-71 33.5q-31 -24 -71.5 -36.5t-90.5 -12.5q-117 0 -181 67.5t-64 191.5zM524 318v-8h138l0.5 5.5t0.5 15.5q0 38 -18.5 55.5t-50.5 17.5q-34 0 -52 -20.5t-18 -65.5zM207 239q0 -62 15 -89t56 -27t56.5 26.5t15.5 89.5v45q0 63 -15.5 90t-56.5 27t-56 -27.5
t-15 -89.5v-45z" />
    <glyph glyph-name="Racute" unicode="&#x154;" horiz-adv-x="598" 
d="M437 918v-99l-255 -110v107l144 102h111zM57 0v680h278q124 0 179.5 -57.5t55.5 -158.5q0 -52 -19 -89.5t-41 -61t-41 -34.5l-19 -11l9.5 -17.5t25.5 -43t37.5 -54.5t44.5 -52v-101h-133q-29 32 -56 73.5t-48 78t-33.5 62l-12.5 25.5h-52v-239h-175zM232 385h115l7.5 3.5
t17 12.5t17 23.5t7.5 36.5q0 32 -18.5 51.5t-53.5 19.5h-92v-147z" />
    <glyph glyph-name="racute" unicode="&#x155;" horiz-adv-x="386" 
d="M218 740h133v-72l-82 -98h-133zM53 523h142l23 -70h4q4 6 12 17.5t22.5 23t37 20.5t54.5 9h27v-164h-69q-49 0 -64 -16.5t-17 -23.5v-319h-172v523z" />
    <glyph glyph-name="uni0156" unicode="&#x156;" horiz-adv-x="598" 
d="M57 0v680h278q124 0 179.5 -57.5t55.5 -158.5q0 -52 -19 -89.5t-41 -61t-41 -34.5l-19 -11l9.5 -17.5t25.5 -43t37.5 -54.5t44.5 -52v-101h-133q-29 32 -56 73.5t-48 78t-33.5 62l-12.5 25.5h-52v-239h-175zM232 385h115l7.5 3.5t17 12.5t17 23.5t7.5 36.5
q0 32 -18.5 51.5t-53.5 19.5h-92v-147zM203 -252l6 17.5t12.5 47.5t12.5 71t6 87h162v-74q-9 -37 -22 -65t-24.5 -46.5t-19.5 -28l-8 -9.5h-125z" />
    <glyph glyph-name="uni0157" unicode="&#x157;" horiz-adv-x="386" 
d="M53 523h142l23 -70h4q4 6 12 17.5t22.5 23t37 20.5t54.5 9h27v-164h-69q-49 0 -64 -16.5t-17 -23.5v-319h-172v523zM24 -252l6 17.5t12.5 47.5t12.5 71t6 87h162v-74q-9 -37 -22 -65t-24.5 -46.5t-19.5 -28l-8 -9.5h-125z" />
    <glyph glyph-name="Rcaron" unicode="&#x158;" horiz-adv-x="598" 
d="M129 872h88l35 -30q10 -8 18 -15.5l8 -7.5h5l8 7.5t18 15.5l35 30h87v-68l-98 -78h-105l-99 78v68zM57 0v680h278q124 0 179.5 -57.5t55.5 -158.5q0 -52 -19 -89.5t-41 -61t-41 -34.5l-19 -11l9.5 -17.5t25.5 -43t37.5 -54.5t44.5 -52v-101h-133q-29 32 -56 73.5t-48 78
t-33.5 62l-12.5 25.5h-52v-239h-175zM232 385h115l7.5 3.5t17 12.5t17 23.5t7.5 36.5q0 32 -18.5 51.5t-53.5 19.5h-92v-147z" />
    <glyph glyph-name="rcaron" unicode="&#x159;" horiz-adv-x="386" 
d="M368 740v-70l-95 -104h-111l-94 104v70h88l34 -42q10 -11 18 -22l8 -11h4l8.5 11.5t17.5 21.5l34 42h88zM53 523h142l23 -70h4q4 6 12 17.5t22.5 23t37 20.5t54.5 9h27v-164h-69q-49 0 -64 -16.5t-17 -23.5v-319h-172v523z" />
    <glyph glyph-name="Sacute" unicode="&#x15a;" horiz-adv-x="536" 
d="M426 918v-99l-255 -110v107l144 102h111zM32 31v146h134l3 -6.5t12.5 -13.5t27 -13.5t45.5 -6.5q43 0 63 14.5t20 39.5q0 21 -15 36.5t-58 29.5l-68 23q-79 28 -121 72.5t-42 133.5q0 96 63 148.5t188 52.5q47 0 86 -6.5t66 -14t41.5 -14l14.5 -6.5v-146h-135l-2 6.5
t-10 15t-24 15t-42 6.5q-39 0 -57.5 -15t-18.5 -38q0 -21 14.5 -33t59.5 -28l67 -23q92 -32 127.5 -78t35.5 -124q0 -96 -57.5 -153.5t-197.5 -57.5q-52 0 -93 6t-69 13t-43 13z" />
    <glyph glyph-name="sacute" unicode="&#x15b;" horiz-adv-x="453" 
d="M229 740h133v-72l-82 -98h-133zM28 151h122l2 -5t8.5 -11t19 -11t33.5 -5q32 0 45 8.5t13 25.5q0 16 -11 24t-40 14l-37 8q-80 18 -114 57.5t-34 111.5q0 73 50.5 118.5t160.5 45.5q38 0 69 -5t52.5 -11t33 -11l11.5 -5v-126h-121l-8.5 15t-45.5 15q-26 0 -37 -9.5
t-11 -24.5q0 -17 11.5 -25t39.5 -14l38 -8q78 -17 113 -53t35 -110q0 -86 -56 -127.5t-162 -41.5q-43 0 -76.5 5t-56.5 11.5t-35 11.5l-12 5v127z" />
    <glyph glyph-name="Scircumflex" unicode="&#x15c;" horiz-adv-x="536" 
d="M118 727v68l99 78h105l98 -78v-68h-87l-35 30q-10 8 -18 15.5l-8 7.5h-5l-8 -7.5t-18 -15.5l-35 -30h-88zM32 31v146h134l3 -6.5t12.5 -13.5t27 -13.5t45.5 -6.5q43 0 63 14.5t20 39.5q0 21 -15 36.5t-58 29.5l-68 23q-79 28 -121 72.5t-42 133.5q0 96 63 148.5t188 52.5
q47 0 86 -6.5t66 -14t41.5 -14l14.5 -6.5v-146h-135l-2 6.5t-10 15t-24 15t-42 6.5q-39 0 -57.5 -15t-18.5 -38q0 -21 14.5 -33t59.5 -28l67 -23q92 -32 127.5 -78t35.5 -124q0 -96 -57.5 -153.5t-197.5 -57.5q-52 0 -93 6t-69 13t-43 13z" />
    <glyph glyph-name="scircumflex" unicode="&#x15d;" horiz-adv-x="453" 
d="M77 566v70l95 104h111l94 -104v-70h-88l-34 42q-10 11 -18 22l-8 11h-4l-8.5 -11.5t-17.5 -21.5l-34 -42h-88zM28 151h122l2 -5t8.5 -11t19 -11t33.5 -5q32 0 45 8.5t13 25.5q0 16 -11 24t-40 14l-37 8q-80 18 -114 57.5t-34 111.5q0 73 50.5 118.5t160.5 45.5
q38 0 69 -5t52.5 -11t33 -11l11.5 -5v-126h-121l-8.5 15t-45.5 15q-26 0 -37 -9.5t-11 -24.5q0 -17 11.5 -25t39.5 -14l38 -8q78 -17 113 -53t35 -110q0 -86 -56 -127.5t-162 -41.5q-43 0 -76.5 5t-56.5 11.5t-35 11.5l-12 5v127z" />
    <glyph glyph-name="Scedilla" unicode="&#x15e;" horiz-adv-x="536" 
d="M32 31v146h134l3 -6.5t12.5 -13.5t27 -13.5t45.5 -6.5q43 0 63 14.5t20 39.5q0 21 -15 36.5t-58 29.5l-68 23q-79 28 -121 72.5t-42 133.5q0 96 63 148.5t188 52.5q47 0 86 -6.5t66 -14t41.5 -14l14.5 -6.5v-146h-135l-2 6.5t-10 15t-24 15t-42 6.5q-39 0 -57.5 -15
t-18.5 -38q0 -21 14.5 -33t59.5 -28l67 -23q92 -32 127.5 -78t35.5 -124t-38.5 -132t-128.5 -71v-5q0 -35 -8.5 -63t-18 -47t-18 -29.5l-8.5 -10.5h-113v82l5 4.5t11 12.5t11 20.5t5 28.5q-83 5 -128.5 21z" />
    <glyph glyph-name="scedilla" unicode="&#x15f;" horiz-adv-x="453" 
d="M28 151h122l2 -5t8.5 -11t19 -11t33.5 -5q32 0 45 8.5t13 25.5q0 16 -11 24t-40 14l-37 8q-80 18 -114 57.5t-34 111.5q0 73 50.5 118.5t160.5 45.5q38 0 69 -5t52.5 -11t33 -11l11.5 -5v-126h-121l-8.5 15t-45.5 15q-26 0 -37 -9.5t-11 -24.5q0 -17 11.5 -25t39.5 -14
l38 -8q78 -17 113 -53t35 -110q0 -62 -29.5 -101.5t-86.5 -55.5v-7q0 -35 -8.5 -63t-18 -47t-18 -29.5l-8.5 -10.5h-113v82l14 15.5t17 48.5q-69 4 -108 18l-39 14v127z" />
    <glyph glyph-name="Scaron" unicode="&#x160;" horiz-adv-x="536" 
d="M117 872h88l35 -30q10 -8 18 -15.5l8 -7.5h5l8 7.5t18 15.5l35 30h87v-68l-98 -78h-105l-99 78v68zM32 31v146h134l3 -6.5t12.5 -13.5t27 -13.5t45.5 -6.5q43 0 63 14.5t20 39.5q0 21 -15 36.5t-58 29.5l-68 23q-79 28 -121 72.5t-42 133.5q0 96 63 148.5t188 52.5
q47 0 86 -6.5t66 -14t41.5 -14l14.5 -6.5v-146h-135l-2 6.5t-10 15t-24 15t-42 6.5q-39 0 -57.5 -15t-18.5 -38q0 -21 14.5 -33t59.5 -28l67 -23q92 -32 127.5 -78t35.5 -124q0 -96 -57.5 -153.5t-197.5 -57.5q-52 0 -93 6t-69 13t-43 13z" />
    <glyph glyph-name="scaron" unicode="&#x161;" horiz-adv-x="453" 
d="M377 740v-70l-95 -104h-111l-94 104v70h88l34 -42q10 -11 18 -22l8 -11h4l8.5 11.5t17.5 21.5l34 42h88zM28 151h122l2 -5t8.5 -11t19 -11t33.5 -5q32 0 45 8.5t13 25.5q0 16 -11 24t-40 14l-37 8q-80 18 -114 57.5t-34 111.5q0 73 50.5 118.5t160.5 45.5q38 0 69 -5
t52.5 -11t33 -11l11.5 -5v-126h-121l-8.5 15t-45.5 15q-26 0 -37 -9.5t-11 -24.5q0 -17 11.5 -25t39.5 -14l38 -8q78 -17 113 -53t35 -110q0 -86 -56 -127.5t-162 -41.5q-43 0 -76.5 5t-56.5 11.5t-35 11.5l-12 5v127z" />
    <glyph glyph-name="uni0162" unicode="&#x162;" horiz-adv-x="516" 
d="M294 -154h-113v82l5 4.5t11 13t11 22.5t5 32h-44v527h-155v153h496l-19 -153h-144v-531q0 -35 -8.5 -63t-18 -47t-18 -29.5z" />
    <glyph glyph-name="uni0163" unicode="&#x163;" horiz-adv-x="336" 
d="M256 -154h-113v82l5 4.5t11 13t11 22.5t5 32h-2l-15 6t-33.5 23t-33.5 49t-15 84v228h-68v133h68v127h172v-127h67v-133h-67v-205q0 -25 11 -36.5t33 -11.5h17v-141q0 -35 -8.5 -63t-18 -47t-18 -29.5z" />
    <glyph glyph-name="Tcaron" unicode="&#x164;" horiz-adv-x="516" 
d="M103 872h88l35 -30q10 -8 18 -15.5l8 -7.5h5l8 7.5t18 15.5l35 30h87v-68l-98 -78h-105l-99 78v68zM491 527h-144v-527h-178v527h-155v153h496z" />
    <glyph glyph-name="tcaron" unicode="&#x165;" horiz-adv-x="497" 
d="M314 549l4 16.5t9.5 43.5t9.5 61.5t4 69.5h150v-57q-7 -32 -17 -57t-19.5 -42t-16.5 -26l-7 -9h-117zM8 390v133h68v127h172v-127h67v-133h-67v-205q0 -25 11 -36.5t33 -11.5h17v-137h-136l-15 6t-33.5 23t-33.5 49t-15 84v228h-68z" />
    <glyph glyph-name="Tbar" unicode="&#x166;" horiz-adv-x="516" 
d="M91 398h78v129h-155v153h496l-19 -153h-144v-129h73v-115h-73v-283h-178v283h-78v115z" />
    <glyph glyph-name="tbar" unicode="&#x167;" horiz-adv-x="358" 
d="M20 341h67v49h-68v133h68v127h172v-127h67v-133h-67v-49h69v-115h-69v-41q0 -25 11 -36.5t33 -11.5h17v-137h-136l-15 6t-33.5 23t-33.5 49t-15 84v64h-67v115z" />
    <glyph glyph-name="Utilde" unicode="&#x168;" horiz-adv-x="649" 
d="M121 741v100l6.5 8t20 17t36 17t53.5 8q24 0 43 -4t35 -9l25 -7q13 -4 22.5 -7t25.5 -3q27 0 35.5 14l8.5 14h93v-100l-6.5 -8t-20 -17t-36 -17t-53.5 -8q-24 0 -43 4t-35 9l-25 7q-13 4 -22.5 7t-25.5 3q-27 0 -35.5 -14l-8.5 -14h-93zM53 226v454h178v-446
q0 -50 20.5 -71t67.5 -21q22 0 39.5 5t29.5 11t18.5 11l6.5 5v506h179v-680h-141l-19 65h-4l-11.5 -11.5t-33.5 -25t-54 -25t-72 -11.5q-104 0 -154 54t-50 180z" />
    <glyph glyph-name="utilde" unicode="&#x169;" 
d="M82 584v100l6.5 8t20 17t36 17t53.5 8q24 0 43 -4t35 -9l25 -7q13 -4 22.5 -7t25.5 -3q27 0 35.5 14l8.5 14h93v-100l-6.5 -8t-20 -17t-36 -17t-53.5 -8q-24 0 -43 4t-35 9l-25 7q-13 4 -22.5 7t-25.5 3q-27 0 -35.5 -14l-8.5 -14h-93zM49 523h172v-331q0 -33 14 -47
t45 -14t48.5 12.5l17.5 12.5v367h172v-523h-142l-20 57h-3l-9 -10.5t-27.5 -22.5t-47 -22.5t-66.5 -10.5q-76 0 -115 40t-39 130v362z" />
    <glyph glyph-name="Umacron" unicode="&#x16a;" horiz-adv-x="649" 
d="M173 881h299v-120h-299v120zM53 226v454h178v-446q0 -50 20.5 -71t67.5 -21q22 0 39.5 5t29.5 11t18.5 11l6.5 5v506h179v-680h-141l-19 65h-4l-11.5 -11.5t-33.5 -25t-54 -25t-72 -11.5q-104 0 -154 54t-50 180z" />
    <glyph glyph-name="umacron" unicode="&#x16b;" 
d="M134 724h299v-120h-299v120zM49 523h172v-331q0 -33 14 -47t45 -14t48.5 12.5l17.5 12.5v367h172v-523h-142l-20 57h-3l-9 -10.5t-27.5 -22.5t-47 -22.5t-66.5 -10.5q-76 0 -115 40t-39 130v362z" />
    <glyph glyph-name="Ubreve" unicode="&#x16c;" horiz-adv-x="649" 
d="M170 886h93l1 -9t6.5 -20t17.5 -20t35 -9q22 0 34.5 9t17.5 20t6 20l1 9h93v-83l-7 -12.5t-24 -27.5t-46.5 -27.5t-74.5 -12.5t-75 12.5t-47 27.5t-24 27.5l-7 12.5v83zM53 226v454h178v-446q0 -50 20.5 -71t67.5 -21q22 0 39.5 5t29.5 11t18.5 11l6.5 5v506h179v-680
h-141l-19 65h-4l-11.5 -11.5t-33.5 -25t-54 -25t-72 -11.5q-104 0 -154 54t-50 180z" />
    <glyph glyph-name="ubreve" unicode="&#x16d;" 
d="M131 729h93l1 -9t6.5 -20t17.5 -20t35 -9q22 0 34.5 9t17.5 20t6 20l1 9h93v-83l-7 -12.5t-24 -27.5t-46.5 -27.5t-74.5 -12.5t-75 12.5t-47 27.5t-24 27.5l-7 12.5v83zM49 523h172v-331q0 -33 14 -47t45 -14t48.5 12.5l17.5 12.5v367h172v-523h-142l-20 57h-3l-9 -10.5
t-27.5 -22.5t-47 -22.5t-66.5 -10.5q-76 0 -115 40t-39 130v362z" />
    <glyph glyph-name="Uring" unicode="&#x16e;" horiz-adv-x="649" 
d="M175 846q0 66 41 105t107 39t107.5 -39t41.5 -105q0 -65 -41.5 -104t-107.5 -39t-107 39t-41 104zM279 846q0 -19 10.5 -31t33.5 -12t33.5 12t10.5 31t-10.5 31.5t-33.5 12.5t-33.5 -12.5t-10.5 -31.5zM53 226v454h178v-446q0 -50 20.5 -71t67.5 -21q22 0 39.5 5t29.5 11
t18.5 11l6.5 5v506h179v-680h-141l-19 65h-4l-11.5 -11.5t-33.5 -25t-54 -25t-72 -11.5q-104 0 -154 54t-50 180z" />
    <glyph glyph-name="uring" unicode="&#x16f;" 
d="M159 677q0 55 34.5 87.5t90.5 32.5q55 0 89.5 -32.5t34.5 -87.5t-34.5 -87.5t-89.5 -32.5q-56 0 -90.5 32.5t-34.5 87.5zM248 677q0 -15 8.5 -25t27.5 -10t27 10t8 25q0 16 -8 26t-27 10t-27.5 -10t-8.5 -26zM49 523h172v-331q0 -33 14 -47t45 -14t48.5 12.5l17.5 12.5
v367h172v-523h-142l-20 57h-3l-9 -10.5t-27.5 -22.5t-47 -22.5t-66.5 -10.5q-76 0 -115 40t-39 130v362z" />
    <glyph glyph-name="Uhungarumlaut" unicode="&#x170;" horiz-adv-x="649" 
d="M370 818l-83 -91h-121l88 161h116v-70zM562 818l-83 -91h-120l88 161h115v-70zM53 226v454h178v-446q0 -50 20.5 -71t67.5 -21q22 0 39.5 5t29.5 11t18.5 11l6.5 5v506h179v-680h-141l-19 65h-4l-11.5 -11.5t-33.5 -25t-54 -25t-72 -11.5q-104 0 -154 54t-50 180z" />
    <glyph glyph-name="uhungarumlaut" unicode="&#x171;" 
d="M297 661l-83 -91h-121l88 161h116v-70zM489 661l-83 -91h-120l88 161h115v-70zM49 523h172v-331q0 -33 14 -47t45 -14t48.5 12.5l17.5 12.5v367h172v-523h-142l-20 57h-3l-9 -10.5t-27.5 -22.5t-47 -22.5t-66.5 -10.5q-76 0 -115 40t-39 130v362z" />
    <glyph glyph-name="Uogonek" unicode="&#x172;" horiz-adv-x="649" 
d="M53 226v454h178v-446q0 -50 20.5 -71t67.5 -21q22 0 39.5 5t29.5 11t18.5 11l6.5 5v506h179v-680l-34 -26q-18 -13 -27.5 -23.5t-9.5 -22.5q0 -13 10 -20t26 -7h19v-82h-67q-49 0 -78.5 26.5t-29.5 69.5q0 29 11.5 50t36.5 43l-17 57h-4l-11.5 -11.5t-33.5 -25t-54 -25
t-72 -11.5q-104 0 -154 54t-50 180z" />
    <glyph glyph-name="uogonek" unicode="&#x173;" 
d="M518 0l-34 -26q-18 -13 -27.5 -23.5t-9.5 -22.5q0 -13 10 -20t26 -7h19v-82h-67q-49 0 -78.5 26.5t-29.5 69.5q0 28 11.5 49t35.5 43l-18 50h-3l-9 -10.5t-27.5 -22.5t-47 -22.5t-66.5 -10.5q-76 0 -115 40t-39 130v362h172v-331q0 -33 14 -47t45 -14t48.5 12.5
l17.5 12.5v367h172v-523z" />
    <glyph glyph-name="Wcircumflex" unicode="&#x174;" horiz-adv-x="934" 
d="M316 727v68l99 78h105l98 -78v-68h-87l-35 30q-10 8 -18 15.5l-8 7.5h-5l-8 -7.5t-18 -15.5l-35 -30h-88zM29 680h154l60 -324q4 -25 9 -60.5t8.5 -68t6 -55l2.5 -22.5h13l1.5 22.5t4.5 55t6.5 68t7.5 60.5l46 324h240l46 -324q4 -25 7.5 -60.5t6.5 -68t4.5 -55
l1.5 -22.5h13l2.5 22.5t6 55t8.5 68t9 60.5l60 324h153v-99l-114 -581h-249l-43 300q-5 38 -10 79t-8.5 74.5t-6 55l-2.5 21.5h-11l-2.5 -21.5t-6 -55t-8.5 -74.5t-10 -79l-43 -300h-249l-114 581v99z" />
    <glyph glyph-name="wcircumflex" unicode="&#x175;" horiz-adv-x="861" 
d="M281 566v70l95 104h111l94 -104v-70h-88l-34 42q-10 11 -18 22l-8 11h-4l-8.5 -11.5t-17.5 -21.5l-34 -42h-88zM136 0l-109 417v106h139l49 -217q4 -20 9 -49.5t8.5 -57t6 -47.5l2.5 -20h10l2.5 19.5t6 47t8 57.5t8.5 50l43 217h220l44 -217q4 -20 9 -49.5t9.5 -57
t7.5 -47.5l3 -20h9l2 20t6 47.5t8.5 57t9.5 49.5l52 217h136v-106l-109 -417h-223l-47 237q-5 25 -9.5 52t-8 50t-5.5 38l-2 15h-9l-1.5 -15.5t-3.5 -38.5t-6 -50.5t-8 -50.5l-45 -237h-222z" />
    <glyph glyph-name="Ycircumflex" unicode="&#x176;" horiz-adv-x="568" 
d="M134 727v68l99 78h105l98 -78v-68h-87l-35 30q-10 8 -18 15.5l-8 7.5h-5l-8 -7.5t-18 -15.5l-35 -30h-88zM126 120l68 15h1v123l-180 313v109h135l87 -166q8 -15 16.5 -32t15 -30.5t10.5 -22.5l4 -9h5l14 30.5t31 61.5l89 168h132v-109l-183 -313v-123l67 -15v-120h-312
v120z" />
    <glyph glyph-name="ycircumflex" unicode="&#x177;" horiz-adv-x="527" 
d="M115 566v70l95 104h111l94 -104v-70h-88l-34 42q-10 11 -18 22l-8 11h-4l-8.5 -11.5t-17.5 -21.5l-34 -42h-88zM112 -38h41q23 0 38 9t20 33l8 31h-72l-125 382v106h146l62 -201q6 -19 11.5 -44t9.5 -47.5t6.5 -37.5l2.5 -15h12l2.5 15t6 37.5t9 47.5t11.5 44l61 201h143
v-107l-125 -381l-12 -47q-12 -53 -31.5 -85t-37 -49t-30.5 -22l-13 -5h-144v135z" />
    <glyph glyph-name="Ydieresis" unicode="&#x178;" horiz-adv-x="568" 
d="M125 819q0 32 18.5 50.5t55.5 18.5q40 0 56.5 -20t16.5 -49v-9q0 -31 -18 -49.5t-55 -18.5q-40 0 -57 19.5t-17 48.5v9zM297 819q0 32 18.5 50.5t55.5 18.5q40 0 56.5 -20t16.5 -49v-9q0 -31 -18 -49.5t-55 -18.5q-40 0 -57 19.5t-17 48.5v9zM126 120l68 15h1v123
l-180 313v109h135l87 -166q8 -15 16.5 -32t15 -30.5t10.5 -22.5l4 -9h5l14 30.5t31 61.5l89 168h132v-109l-183 -313v-123l67 -15v-120h-312v120z" />
    <glyph glyph-name="Zacute" unicode="&#x179;" horiz-adv-x="547" 
d="M434 918v-99l-255 -110v107l144 102h111zM31 0v161l192 250q33 44 59.5 78l26.5 34v3h-10.5t-25 -0.5t-32 -0.5h-30.5h-175v155h475v-160l-191 -250q-32 -43 -60.5 -77.5l-28.5 -34.5v-3h9.5t24 0.5t31.5 0.5h32h188v-156h-485z" />
    <glyph glyph-name="zacute" unicode="&#x17a;" horiz-adv-x="494" 
d="M247 740h133v-72l-82 -98h-133zM35 0v151l139 148q30 30 58 56l28 26v5l-28 -1.5t-62 -1.5h-129v140h411v-150l-137 -148q-29 -31 -57.5 -57.5l-28.5 -26.5v-3l25 1.5t59 1.5h146v-141h-424z" />
    <glyph glyph-name="Zdotaccent" unicode="&#x17b;" horiz-adv-x="547" 
d="M179 819q0 40 24.5 62.5t70.5 22.5q45 0 69.5 -22.5t24.5 -62.5v-12q0 -41 -24.5 -63t-69.5 -22q-46 0 -70.5 22t-24.5 63v12zM31 0v161l192 250q33 44 59.5 78l26.5 34v3h-10.5t-25 -0.5t-32 -0.5h-30.5h-175v155h475v-160l-191 -250q-32 -43 -60.5 -77.5l-28.5 -34.5
v-3h9.5t24 0.5t31.5 0.5h32h188v-156h-485z" />
    <glyph glyph-name="zdotaccent" unicode="&#x17c;" horiz-adv-x="494" 
d="M145 662q0 40 24.5 62.5t70.5 22.5q45 0 69.5 -22.5t24.5 -62.5v-12q0 -41 -24.5 -63t-69.5 -22q-46 0 -70.5 22t-24.5 63v12zM35 0v151l139 148q30 30 58 56l28 26v5l-28 -1.5t-62 -1.5h-129v140h411v-150l-137 -148q-29 -31 -57.5 -57.5l-28.5 -26.5v-3l25 1.5t59 1.5
h146v-141h-424z" />
    <glyph glyph-name="Zcaron" unicode="&#x17d;" horiz-adv-x="547" 
d="M122 872h88l35 -30q10 -8 18 -15.5l8 -7.5h5l8 7.5t18 15.5l35 30h87v-68l-98 -78h-105l-99 78v68zM31 0v161l192 250q33 44 59.5 78l26.5 34v3h-10.5t-25 -0.5t-32 -0.5h-30.5h-175v155h475v-160l-191 -250q-32 -43 -60.5 -77.5l-28.5 -34.5v-3h9.5t24 0.5t31.5 0.5h32
h188v-156h-485z" />
    <glyph glyph-name="zcaron" unicode="&#x17e;" horiz-adv-x="494" 
d="M390 740v-70l-95 -104h-111l-94 104v70h88l34 -42q10 -11 18 -22l8 -11h4l8.5 11.5t17.5 21.5l34 42h88zM35 0v151l139 148q30 30 58 56l28 26v5l-28 -1.5t-62 -1.5h-129v140h411v-150l-137 -148q-29 -31 -57.5 -57.5l-28.5 -26.5v-3l25 1.5t59 1.5h146v-141h-424z" />
    <glyph glyph-name="uni018F" unicode="&#x18f;" horiz-adv-x="605" 
d="M57 414l332 1v23q0 51 -24.5 76t-77.5 25q-47 0 -69 -11l-22 -11h-121l1 133l17 6.5t46.5 15t69.5 15t86 6.5q131 0 200.5 -67t69.5 -196v-173q0 -128 -65 -199t-195 -71t-194 70t-64 199q0 68 5 113zM306 141q49 0 66 26.5t17 76.5v26h-165l-0.5 -8.5t-0.5 -18.5
q0 -50 17 -76t66 -26z" />
    <glyph glyph-name="florin" unicode="&#x192;" horiz-adv-x="458" 
d="M63 449h103l21 101q13 62 34.5 100t41.5 57.5t35 26l15 6.5h134v-134h-17q-38 0 -57 -20t-26 -57l-17 -80h82v-130h-109l-59 -278q-14 -67 -36 -109t-42.5 -65.5t-35.5 -31.5l-15 -8h-132v133h5q38 0 60 19t35 82l55 258h-75v130z" />
    <glyph glyph-name="uni019D" unicode="&#x19d;" horiz-adv-x="647" 
d="M228 405l0.5 -16.5t0.5 -40.5t0.5 -52.5t0.5 -52.5v-244q0 -55 -14.5 -89t-31.5 -52.5t-31.5 -24.5l-14.5 -6h-136v124h8q22 0 34.5 11t12.5 40v678h163l154 -283q7 -12 15 -29t14.5 -31.5t11 -25l4.5 -10.5h2l-0.5 12t-1.5 30.5t-1.5 41t-0.5 43.5v252h173v-680h-174v61
l-133 243q-7 15 -16.5 32.5t-17 33t-13 25.5l-5.5 10h-3z" />
    <glyph glyph-name="Gcaron" unicode="&#x1e6;" horiz-adv-x="600" 
d="M148 872h88l35 -30q10 -8 18 -15.5l8 -7.5h5l8 7.5t18 15.5l35 30h87v-68l-98 -78h-105l-99 78v68zM40 240v188q0 136 72.5 198.5t198.5 62.5q57 0 99.5 -10.5t70.5 -22.5t42 -22.5l14 -10.5v-144h-140l-2.5 8.5t-11 19t-24.5 19t-44 8.5q-51 0 -74 -26t-23 -75v-197
q0 -56 25 -80t73 -24q40 0 60 14.5l20 14.5v103h-83v132h235v-396h-126l-17 44h-2l-9 -8t-27 -17.5t-45.5 -17.5t-62.5 -8q-99 0 -159 61t-60 186z" />
    <glyph glyph-name="gcaron" unicode="&#x1e7;" horiz-adv-x="525" 
d="M396 740v-70l-95 -104h-111l-94 104v70h88l34 -42q10 -11 18 -22l8 -11h4l8.5 11.5t17.5 21.5l34 42h88zM28 -64q0 26 9.5 46t21.5 33t21.5 20l9.5 7v2l-6.5 4t-14.5 12.5t-15 24t-7 37.5q0 21 6.5 38t14.5 29.5t14.5 19.5l6.5 7v1l-8.5 8t-18 25t-18 42.5t-8.5 59.5v9
q0 75 47.5 120.5t162.5 45.5q47 0 75 -5.5l28 -5.5h1q4 29 16 47.5t24.5 29.5t22 15l9.5 4h106v-129h-21q-19 0 -28 -11t-9 -31v-85q0 -78 -44 -126t-158 -48h-83l-4 -7t-4 -18q0 -8 4.5 -16t15.5 -8h162q77 0 115.5 -37t38.5 -102q0 -37 -9.5 -69.5t-36 -55.5t-74.5 -36.5
t-125 -13.5h-29q-66 0 -107.5 8.5t-64 24t-31 37t-8.5 47.5zM187 350q0 -24 9.5 -35l9.5 -11h44q40 0 54.5 13t14.5 40v38l-16 5t-51 5t-50 -13t-15 -40v-2zM175 -28q0 -19 14.5 -29.5t59.5 -10.5h27q54 0 70 12t16 32q0 15 -10 24.5t-29 9.5h-134l-7.5 -10.5t-6.5 -27.5z
" />
    <glyph glyph-name="uni01EA" unicode="&#x1ea;" horiz-adv-x="629" 
d="M40 257v166q0 130 71.5 200t203.5 70q131 0 202.5 -70t71.5 -200v-166q0 -101 -45.5 -167.5t-129.5 -89.5l-33 -26q-18 -13 -27.5 -23.5t-9.5 -22.5q0 -13 10 -20t26 -7h19v-82h-67q-49 0 -78.5 26.5t-29.5 69.5q0 23 7.5 41.5t23.5 34.5q-103 16 -159 84.5t-56 181.5z
M218 245q0 -51 23.5 -77t73.5 -26t73 26t23 77v191q0 51 -23 77t-73 26t-73.5 -26t-23.5 -77v-191z" />
    <glyph glyph-name="uni01EB" unicode="&#x1eb;" horiz-adv-x="557" 
d="M33 246v32q0 123 64 190.5t181 67.5q118 0 182 -67.5t64 -190.5v-32q0 -98 -40.5 -161.5t-115.5 -85.5l-33 -25q-18 -13 -27.5 -23.5t-9.5 -22.5q0 -13 10 -20t26 -7h19v-82h-67q-49 0 -78.5 26.5t-29.5 69.5q0 24 8.5 42.5t24.5 36.5q-86 17 -132 82t-46 170zM207 239
q0 -62 15 -89t56 -27t56.5 26.5t15.5 89.5v45q0 63 -15.5 90t-56.5 27t-56 -27.5t-15 -89.5v-45z" />
    <glyph glyph-name="Aringacute" unicode="&#x1fa;" horiz-adv-x="622" 
d="M443 1067v-99l-255 -109v107l144 101h111zM25 0v93l146 587q-4 11 -6 24t-2 27q0 66 41 105t107 39t107.5 -39t41.5 -105q0 -14 -2.5 -27.5t-6.5 -25.5l146 -585v-93h-154l-29 124q-25 -4 -51.5 -6.5t-52.5 -2.5t-52 2.5t-51 6.5l-29 -124h-153zM267 731q0 -19 10.5 -31
t33.5 -12t33.5 12t10.5 31t-10.5 31.5t-33.5 12.5t-33.5 -12.5t-10.5 -31.5zM263 366l-23 -101q17 -2 34.5 -3.5t35.5 -1.5t35.5 1.5t34.5 3.5l-24 101q-4 19 -10.5 47.5t-12 54.5t-9.5 44.5l-4 18.5h-26l-3 -18.5t-7.5 -44.5t-10 -54.5t-10.5 -47.5z" />
    <glyph glyph-name="aringacute" unicode="&#x1fb;" horiz-adv-x="537" 
d="M400 975v-99l-255 -110v107l144 102h111zM144 666q0 54 34 86.5t89 32.5q54 0 88.5 -32.5t34.5 -86.5t-34.5 -86.5t-88.5 -32.5q-55 0 -89 32.5t-34 86.5zM232 666q0 -16 8 -25.5t27 -9.5q18 0 26.5 9.5t8.5 25.5q0 15 -8.5 25t-26.5 10q-19 0 -27 -10t-8 -25zM63 360
v129l13.5 6.5t39.5 14t64 14t87 6.5q112 0 166.5 -43t54.5 -136v-351h-138l-18 50h-4l-8.5 -9t-26 -20t-43.5 -20t-61 -9q-87 0 -124.5 43t-37.5 118q0 84 51 120t137 36h107v31q0 25 -14 38.5t-51 13.5q-21 0 -33 -5t-18 -11t-8 -11l-2 -5h-133zM245 117q43 0 60 14l17 14
v67h-77q-28 0 -42 -13.5t-14 -33.5q0 -24 12.5 -36t43.5 -12z" />
    <glyph glyph-name="AEacute" unicode="&#x1fc;" horiz-adv-x="875" 
d="M654 918v-99l-255 -110v107l144 102h111zM16 0v93l247 587h584l-21 -150h-261v-117h238v-145h-238v-118h272v-150h-445v147h-182l-62 -147h-132zM301 362l-29 -68h120v234h-29l-5.5 -15.5t-14 -39.5t-19.5 -53.5t-23 -57.5z" />
    <glyph glyph-name="aeacute" unicode="&#x1fd;" horiz-adv-x="826" 
d="M416 740h133v-72l-82 -98h-133zM63 358v130l13.5 6.5t39.5 15t64 15t87 6.5q48 0 85.5 -8t64.5 -27q28 19 64.5 28.5t79.5 9.5q104 0 169.5 -54t65.5 -184q0 -39 -2.5 -62l-2.5 -23h-299v-5q0 -41 19 -61.5t60 -21.5q21 0 35.5 5t23.5 11t12.5 11l3.5 5h129v-123
l-14 -6.5t-40 -14t-64 -14t-86 -6.5q-64 0 -112 17.5t-79 52.5q-7 -7 -21 -19t-35 -23t-50 -19t-65 -8q-93 0 -137.5 44.5t-44.5 116.5q0 84 52.5 120t138.5 36h105q0 2 0.5 4.5t0.5 4.5v21q0 25 -16 39t-55 14q-19 0 -30 -5.5t-17 -11.5t-7.5 -11.5l-1.5 -5.5h-134z
M492 318v-8h138l0.5 5.5t0.5 15.5q0 38 -18.5 55.5t-50.5 17.5q-34 0 -52 -20.5t-18 -65.5zM251 115q27 0 48 8.5t37 19.5q-4 15 -7.5 32t-4.5 35h-78q-28 0 -42 -13.5t-14 -33.5q0 -22 14 -35t47 -13z" />
    <glyph glyph-name="Oslashacute" unicode="&#x1fe;" horiz-adv-x="629" 
d="M478 918v-99l-255 -110v107l144 102h111zM40 257v166q0 130 71.5 200t203.5 70q41 0 77 -7t65 -21l40 65h79v-61l-40 -66q26 -33 39.5 -78.5t13.5 -101.5v-166q0 -128 -71.5 -199t-202.5 -71q-41 0 -77 7.5t-65 20.5l-40 -65h-79v62l40 65q-26 34 -40 79t-14 101z
M218 436v-158l153 249q-10 6 -24.5 9t-31.5 3q-50 0 -73.5 -26t-23.5 -77zM411 245v156l-152 -247q10 -6 24.5 -9t31.5 -3q50 0 73 26t23 77z" />
    <glyph glyph-name="oslashacute" unicode="&#x1ff;" horiz-adv-x="557" 
d="M278 740h133v-72l-82 -98h-133zM33 246v32q0 123 64 190.5t181 67.5q35 0 66 -6t57 -18l37 54h63v-51l-36 -52q29 -32 44 -79t15 -106v-32q0 -124 -64.5 -191.5t-181.5 -67.5q-35 0 -66 6t-56 19l-38 -55h-63v51l36 52q-28 33 -43 80t-15 106zM207 239v-1v-8l111 161
q-7 5 -17 7.5t-23 2.5q-41 0 -56 -27.5t-15 -89.5v-45zM350 284v1.5v9.5l-112 -163q7 -4 17 -6.5t23 -2.5q41 0 56.5 26.5t15.5 89.5v45z" />
    <glyph glyph-name="uni0218" unicode="&#x218;" horiz-adv-x="536" 
d="M32 31v146h134l3 -6.5t12.5 -13.5t27 -13.5t45.5 -6.5q43 0 63 14.5t20 39.5q0 21 -15 36.5t-58 29.5l-68 23q-79 28 -121 72.5t-42 133.5q0 96 63 148.5t188 52.5q47 0 86 -6.5t66 -14t41.5 -14l14.5 -6.5v-146h-135l-2 6.5t-10 15t-24 15t-42 6.5q-39 0 -57.5 -15
t-18.5 -38q0 -21 14.5 -33t59.5 -28l67 -23q92 -32 127.5 -78t35.5 -124q0 -96 -57.5 -153.5t-197.5 -57.5q-52 0 -93 6t-69 13t-43 13zM146 -252l6 17.5t12.5 47.5t12.5 71t6 87h162v-74q-9 -37 -22 -65t-24.5 -46.5t-19.5 -28l-8 -9.5h-125z" />
    <glyph glyph-name="uni0219" unicode="&#x219;" horiz-adv-x="453" 
d="M28 151h122l2 -5t8.5 -11t19 -11t33.5 -5q32 0 45 8.5t13 25.5q0 16 -11 24t-40 14l-37 8q-80 18 -114 57.5t-34 111.5q0 73 50.5 118.5t160.5 45.5q38 0 69 -5t52.5 -11t33 -11l11.5 -5v-126h-121l-8.5 15t-45.5 15q-26 0 -37 -9.5t-11 -24.5q0 -17 11.5 -25t39.5 -14
l38 -8q78 -17 113 -53t35 -110q0 -86 -56 -127.5t-162 -41.5q-43 0 -76.5 5t-56.5 11.5t-35 11.5l-12 5v127zM116 -252l6 17.5t12.5 47.5t12.5 71t6 87h162v-74q-9 -37 -22 -65t-24.5 -46.5t-19.5 -28l-8 -9.5h-125z" />
    <glyph glyph-name="uni021A" unicode="&#x21a;" horiz-adv-x="516" 
d="M491 527h-144v-527h-178v527h-155v153h496zM153 -252l6 17.5t12.5 47.5t12.5 71t6 87h162v-74q-9 -37 -22 -65t-24.5 -46.5t-19.5 -28l-8 -9.5h-125z" />
    <glyph glyph-name="uni021B" unicode="&#x21b;" horiz-adv-x="336" 
d="M8 390v133h68v127h172v-127h67v-133h-67v-205q0 -25 11 -36.5t33 -11.5h17v-137h-136l-15 6t-33.5 23t-33.5 49t-15 84v228h-68zM111 -252l6 17.5t12.5 47.5t12.5 71t6 87h162v-74q-9 -37 -22 -65t-24.5 -46.5t-19.5 -28l-8 -9.5h-125z" />
    <glyph glyph-name="uni0232" unicode="&#x232;" horiz-adv-x="568" 
d="M135 881h299v-120h-299v120zM126 120l68 15h1v123l-180 313v109h135l87 -166q8 -15 16.5 -32t15 -30.5t10.5 -22.5l4 -9h5l14 30.5t31 61.5l89 168h132v-109l-183 -313v-123l67 -15v-120h-312v120z" />
    <glyph glyph-name="uni0233" unicode="&#x233;" horiz-adv-x="527" 
d="M115 724h299v-120h-299v120zM112 -38h41q23 0 38 9t20 33l8 31h-72l-125 382v106h146l62 -201q6 -19 11.5 -44t9.5 -47.5t6.5 -37.5l2.5 -15h12l2.5 15t6 37.5t9 47.5t11.5 44l61 201h143v-107l-125 -381l-12 -47q-12 -53 -31.5 -85t-37 -49t-30.5 -22l-13 -5h-144v135z
" />
    <glyph glyph-name="uni0237" unicode="&#x237;" horiz-adv-x="277" 
d="M53 523h172v-495q0 -59 -15 -98t-33 -62t-33 -32l-15 -9h-130v132h5q18 0 33.5 11.5t15.5 48.5v504z" />
    <glyph glyph-name="uni0259" unicode="&#x259;" horiz-adv-x="537" 
d="M504 277v-28q0 -127 -63.5 -192.5t-175.5 -65.5q-104 0 -169.5 54t-65.5 184q0 39 2.5 62l2.5 23h299v5q0 41 -19 61.5t-60 21.5q-21 0 -35.5 -5t-23.5 -11t-12.5 -11l-3.5 -5h-129v123l14 6.5t40 14t64 14t86 6.5q123 0 186 -65t63 -192zM264 121q34 0 52 20.5t18 65.5
v8h-138l-0.5 -5.5t-0.5 -15.5q0 -38 18.5 -55.5t50.5 -17.5z" />
    <glyph glyph-name="uni0272" unicode="&#x272;" horiz-adv-x="574" 
d="M353 0v331q0 33 -13.5 47.5t-44.5 14.5q-30 0 -50 -12.5l-20 -12.5v-368q0 -55 -14.5 -89.5t-31 -52.5t-31 -24.5l-14.5 -6.5h-136v126h8q22 0 34.5 10.5t12.5 38.5v521h142l20 -57h3l10 10.5t29 22.5t48 22.5t67 10.5q76 0 114.5 -39.5t38.5 -130.5v-362h-172z" />
    <glyph glyph-name="circumflex" unicode="&#x2c6;" horiz-adv-x="358" 
d="M29 566v70l95 104h111l94 -104v-70h-88l-34 42q-10 11 -18 22l-8 11h-4l-8.5 -11.5t-17.5 -21.5l-34 -42h-88z" />
    <glyph glyph-name="caron" unicode="&#x2c7;" horiz-adv-x="358" 
d="M329 740v-70l-95 -104h-111l-94 104v70h88l34 -42q10 -11 18 -22l8 -11h4l8.5 11.5t17.5 21.5l34 42h88z" />
    <glyph glyph-name="breve" unicode="&#x2d8;" horiz-adv-x="351" 
d="M23 729h93l1 -9t6.5 -20t17.5 -20t35 -9q22 0 34.5 9t17.5 20t6 20l1 9h93v-83l-7 -12.5t-24 -27.5t-46.5 -27.5t-74.5 -12.5t-75 12.5t-47 27.5t-24 27.5l-7 12.5v83z" />
    <glyph glyph-name="dotaccent" unicode="&#x2d9;" horiz-adv-x="239" 
d="M25 662q0 40 24.5 62.5t70.5 22.5q45 0 69.5 -22.5t24.5 -62.5v-12q0 -41 -24.5 -63t-69.5 -22q-46 0 -70.5 22t-24.5 63v12z" />
    <glyph glyph-name="ring" unicode="&#x2da;" horiz-adv-x="299" 
d="M25 677q0 55 34.5 87.5t90.5 32.5q55 0 89.5 -32.5t34.5 -87.5t-34.5 -87.5t-89.5 -32.5q-56 0 -90.5 32.5t-34.5 87.5zM114 677q0 -15 8.5 -25t27.5 -10t27 10t8 25q0 16 -8 26t-27 10t-27.5 -10t-8.5 -26z" />
    <glyph glyph-name="ogonek" unicode="&#x2db;" horiz-adv-x="214" 
d="M194 0l-34 -26q-18 -13 -27.5 -23.5t-9.5 -22.5q0 -13 10 -20t26 -7h19v-82h-67q-49 0 -78.5 26.5t-29.5 69.5q0 34 16 57.5t49 50.5l35 28h91v-51z" />
    <glyph glyph-name="tilde" unicode="&#x2dc;" horiz-adv-x="422" 
d="M9 584v100l6.5 8t20 17t36 17t53.5 8q24 0 43 -4t35 -9l25 -7q13 -4 22.5 -7t25.5 -3q27 0 35.5 14l8.5 14h93v-100l-6.5 -8t-20 -17t-36 -17t-53.5 -8q-24 0 -43 4t-35 9l-25 7q-13 4 -22.5 7t-25.5 3q-27 0 -35.5 -14l-8.5 -14h-93z" />
    <glyph glyph-name="hungarumlaut" unicode="&#x2dd;" horiz-adv-x="425" 
d="M214 661l-83 -91h-121l88 161h116v-70zM406 661l-83 -91h-120l88 161h115v-70z" />
    <glyph glyph-name="gravecomb" unicode="&#x300;" horiz-adv-x="278" 
d="M164 740l82 -170h-133l-82 98v72h133z" />
    <glyph glyph-name="acutecomb" unicode="&#x301;" horiz-adv-x="278" 
d="M114 740h133v-72l-82 -98h-133z" />
    <glyph glyph-name="uni0302" unicode="&#x302;" horiz-adv-x="358" 
d="M29 566v70l95 104h111l94 -104v-70h-88l-34 42q-10 11 -18 22l-8 11h-4l-8.5 -11.5t-17.5 -21.5l-34 -42h-88z" />
    <glyph glyph-name="tildecomb" unicode="&#x303;" horiz-adv-x="422" 
d="M9 584v100l6.5 8t20 17t36 17t53.5 8q24 0 43 -4t35 -9l25 -7q13 -4 22.5 -7t25.5 -3q27 0 35.5 14l8.5 14h93v-100l-6.5 -8t-20 -17t-36 -17t-53.5 -8q-24 0 -43 4t-35 9l-25 7q-13 4 -22.5 7t-25.5 3q-27 0 -35.5 -14l-8.5 -14h-93z" />
    <glyph glyph-name="uni0304" unicode="&#x304;" horiz-adv-x="327" 
d="M14 724h299v-120h-299v120z" />
    <glyph glyph-name="uni0306" unicode="&#x306;" horiz-adv-x="351" 
d="M23 729h93l1 -9t6.5 -20t17.5 -20t35 -9q22 0 34.5 9t17.5 20t6 20l1 9h93v-83l-7 -12.5t-24 -27.5t-46.5 -27.5t-74.5 -12.5t-75 12.5t-47 27.5t-24 27.5l-7 12.5v83z" />
    <glyph glyph-name="uni0307" unicode="&#x307;" horiz-adv-x="239" 
d="M25 662q0 40 24.5 62.5t70.5 22.5q45 0 69.5 -22.5t24.5 -62.5v-12q0 -41 -24.5 -63t-69.5 -22q-46 0 -70.5 22t-24.5 63v12z" />
    <glyph glyph-name="uni0308" unicode="&#x308;" horiz-adv-x="369" 
d="M25 653q0 32 18.5 50.5t55.5 18.5q40 0 56.5 -20t16.5 -49v-9q0 -31 -18 -49.5t-55 -18.5q-40 0 -57 19.5t-17 48.5v9zM197 653q0 32 18.5 50.5t55.5 18.5q40 0 56.5 -20t16.5 -49v-9q0 -31 -18 -49.5t-55 -18.5q-40 0 -57 19.5t-17 48.5v9z" />
    <glyph glyph-name="uni030A" unicode="&#x30a;" horiz-adv-x="299" 
d="M25 677q0 55 34.5 87.5t90.5 32.5q55 0 89.5 -32.5t34.5 -87.5t-34.5 -87.5t-89.5 -32.5q-56 0 -90.5 32.5t-34.5 87.5zM114 677q0 -15 8.5 -25t27.5 -10t27 10t8 25q0 16 -8 26t-27 10t-27.5 -10t-8.5 -26z" />
    <glyph glyph-name="uni030B" unicode="&#x30b;" horiz-adv-x="425" 
d="M214 661l-83 -91h-121l88 161h116v-70zM406 661l-83 -91h-120l88 161h115v-70z" />
    <glyph glyph-name="uni030C" unicode="&#x30c;" horiz-adv-x="358" 
d="M329 740v-70l-95 -104h-111l-94 104v70h88l34 -42q10 -11 18 -22l8 -11h4l8.5 11.5t17.5 21.5l34 42h88z" />
    <glyph glyph-name="dotbelowcomb" unicode="&#x323;" horiz-adv-x="239" 
d="M25 -135q0 40 24.5 62.5t70.5 22.5q45 0 69.5 -22.5t24.5 -62.5v-12q0 -41 -24.5 -63t-69.5 -22q-46 0 -70.5 22t-24.5 63v12z" />
    <glyph glyph-name="uni0326" unicode="&#x326;" horiz-adv-x="269" 
d="M19 -252l6 17.5t12.5 47.5t12.5 71t6 87h162v-74q-9 -37 -22 -65t-24.5 -46.5t-19.5 -28l-8 -9.5h-125z" />
    <glyph glyph-name="uni0327" unicode="&#x327;" horiz-adv-x="205" 
d="M134 -154h-113v82l5 4.5t11 13.5t11 23.5t5 33.5v29h134v-36q0 -35 -8.5 -63t-18 -47t-18 -29.5z" />
    <glyph glyph-name="uni0328" unicode="&#x328;" horiz-adv-x="214" 
d="M194 0l-34 -26q-18 -13 -27.5 -23.5t-9.5 -22.5q0 -13 10 -20t26 -7h19v-82h-67q-49 0 -78.5 26.5t-29.5 69.5q0 34 16 57.5t49 50.5l35 28h91v-51z" />
    <glyph glyph-name="uni0335" unicode="&#x335;" horiz-adv-x="356" 
d="M14 398h329v-115h-329v115z" />
    <glyph glyph-name="uni0337" unicode="&#x337;" horiz-adv-x="338" 
d="M5 266v92l266 159h71v-92l-265 -159h-72z" />
    <glyph glyph-name="uni0338" unicode="&#x338;" horiz-adv-x="446" 
d="M383 561h63v-51l-383 -558h-63v51z" />
    <glyph glyph-name="uni0394" unicode="&#x394;" horiz-adv-x="600" 
d="M408 680l177 -680h-570l177 680h216zM268 367l-54 -224h172l-54 224q-6 23 -11 46.5t-9 42t-6.5 30.5l-2.5 12h-6l-2.5 -12t-6.5 -30.5t-9 -42t-11 -46.5z" />
    <glyph glyph-name="uni03A9" unicode="&#x3a9;" horiz-adv-x="600" 
d="M281 220v-220h-251v148h45q40 0 55.5 -0.5l15.5 -0.5v2l-18 34q-28 52 -54 119t-26 151v11q0 59 19 102t53 70.5t80 40.5t100 13t100.5 -13t80 -40.5t53 -70.5t19.5 -102v-11q0 -84 -26.5 -151t-54.5 -119l-18 -34v-2l16 0.5t56 0.5h45v-148h-252v220l26 57
q14 33 26 76.5t12 88.5v5q0 49 -22.5 69.5t-60.5 20.5t-60.5 -20.5t-22.5 -69.5v-5q0 -45 12 -88.5t27 -76.5z" />
    <glyph glyph-name="pi" unicode="&#x3c0;" horiz-adv-x="600" 
d="M100 0v383h-73v140h543v-140h-73v-198q0 -28 11.5 -39.5t33.5 -11.5h8v-134h-125l-14 6t-30.5 23.5t-30.5 50.5t-14 87v216h-75v-383h-161z" />
    <glyph glyph-name="Wgrave" unicode="&#x1e80;" horiz-adv-x="934" 
d="M313 918h111l144 -102v-107l-255 110v99zM29 680h154l60 -324q4 -25 9 -60.5t8.5 -68t6 -55l2.5 -22.5h13l1.5 22.5t4.5 55t6.5 68t7.5 60.5l46 324h240l46 -324q4 -25 7.5 -60.5t6.5 -68t4.5 -55l1.5 -22.5h13l2.5 22.5t6 55t8.5 68t9 60.5l60 324h153v-99l-114 -581
h-249l-43 300q-5 38 -10 79t-8.5 74.5t-6 55l-2.5 21.5h-11l-2.5 -21.5t-6 -55t-8.5 -74.5t-10 -79l-43 -300h-249l-114 581v99z" />
    <glyph glyph-name="wgrave" unicode="&#x1e81;" horiz-adv-x="861" 
d="M429 740l82 -170h-133l-82 98v72h133zM136 0l-109 417v106h139l49 -217q4 -20 9 -49.5t8.5 -57t6 -47.5l2.5 -20h10l2.5 19.5t6 47t8 57.5t8.5 50l43 217h220l44 -217q4 -20 9 -49.5t9.5 -57t7.5 -47.5l3 -20h9l2 20t6 47.5t8.5 57t9.5 49.5l52 217h136v-106l-109 -417
h-223l-47 237q-5 25 -9.5 52t-8 50t-5.5 38l-2 15h-9l-1.5 -15.5t-3.5 -38.5t-6 -50.5t-8 -50.5l-45 -237h-222z" />
    <glyph glyph-name="Wacute" unicode="&#x1e82;" horiz-adv-x="934" 
d="M612 918v-99l-255 -110v107l144 102h111zM29 680h154l60 -324q4 -25 9 -60.5t8.5 -68t6 -55l2.5 -22.5h13l1.5 22.5t4.5 55t6.5 68t7.5 60.5l46 324h240l46 -324q4 -25 7.5 -60.5t6.5 -68t4.5 -55l1.5 -22.5h13l2.5 22.5t6 55t8.5 68t9 60.5l60 324h153v-99l-114 -581
h-249l-43 300q-5 38 -10 79t-8.5 74.5t-6 55l-2.5 21.5h-11l-2.5 -21.5t-6 -55t-8.5 -74.5t-10 -79l-43 -300h-249l-114 581v99z" />
    <glyph glyph-name="wacute" unicode="&#x1e83;" horiz-adv-x="861" 
d="M431 740h133v-72l-82 -98h-133zM136 0l-109 417v106h139l49 -217q4 -20 9 -49.5t8.5 -57t6 -47.5l2.5 -20h10l2.5 19.5t6 47t8 57.5t8.5 50l43 217h220l44 -217q4 -20 9 -49.5t9.5 -57t7.5 -47.5l3 -20h9l2 20t6 47.5t8.5 57t9.5 49.5l52 217h136v-106l-109 -417h-223
l-47 237q-5 25 -9.5 52t-8 50t-5.5 38l-2 15h-9l-1.5 -15.5t-3.5 -38.5t-6 -50.5t-8 -50.5l-45 -237h-222z" />
    <glyph glyph-name="Wdieresis" unicode="&#x1e84;" horiz-adv-x="934" 
d="M307 819q0 32 18.5 50.5t55.5 18.5q40 0 56.5 -20t16.5 -49v-9q0 -31 -18 -49.5t-55 -18.5q-40 0 -57 19.5t-17 48.5v9zM479 819q0 32 18.5 50.5t55.5 18.5q40 0 56.5 -20t16.5 -49v-9q0 -31 -18 -49.5t-55 -18.5q-40 0 -57 19.5t-17 48.5v9zM29 680h154l60 -324
q4 -25 9 -60.5t8.5 -68t6 -55l2.5 -22.5h13l1.5 22.5t4.5 55t6.5 68t7.5 60.5l46 324h240l46 -324q4 -25 7.5 -60.5t6.5 -68t4.5 -55l1.5 -22.5h13l2.5 22.5t6 55t8.5 68t9 60.5l60 324h153v-99l-114 -581h-249l-43 300q-5 38 -10 79t-8.5 74.5t-6 55l-2.5 21.5h-11
l-2.5 -21.5t-6 -55t-8.5 -74.5t-10 -79l-43 -300h-249l-114 581v99z" />
    <glyph glyph-name="wdieresis" unicode="&#x1e85;" horiz-adv-x="861" 
d="M271 653q0 32 18.5 50.5t55.5 18.5q40 0 56.5 -20t16.5 -49v-9q0 -31 -18 -49.5t-55 -18.5q-40 0 -57 19.5t-17 48.5v9zM443 653q0 32 18.5 50.5t55.5 18.5q40 0 56.5 -20t16.5 -49v-9q0 -31 -18 -49.5t-55 -18.5q-40 0 -57 19.5t-17 48.5v9zM136 0l-109 417v106h139
l49 -217q4 -20 9 -49.5t8.5 -57t6 -47.5l2.5 -20h10l2.5 19.5t6 47t8 57.5t8.5 50l43 217h220l44 -217q4 -20 9 -49.5t9.5 -57t7.5 -47.5l3 -20h9l2 20t6 47.5t8.5 57t9.5 49.5l52 217h136v-106l-109 -417h-223l-47 237q-5 25 -9.5 52t-8 50t-5.5 38l-2 15h-9l-1.5 -15.5
t-3.5 -38.5t-6 -50.5t-8 -50.5l-45 -237h-222z" />
    <glyph glyph-name="uni1E9E" unicode="&#x1e9e;" horiz-adv-x="654" 
d="M57 0v465q0 61 17.5 102.5t47.5 66.5t71.5 35.5t88.5 10.5h303v-172l-106 -122v-7l40 -23q58 -33 84 -72t26 -103q0 -35 -9 -68.5t-33 -59t-64.5 -41.5t-103.5 -16q-69 0 -108 9.5l-39 9.5v144h114l6 -8.5t31 -8.5q19 0 30 8.5t11 27.5t-12.5 30t-38.5 25l-110 62v118
l98 114h-99q-33 0 -50 -15.5t-17 -49.5v-462h-178z" />
    <glyph glyph-name="uni1EA0" unicode="&#x1ea0;" horiz-adv-x="622" 
d="M25 0v93l146 587h280l146 -587v-93h-154l-29 124q-25 -4 -51.5 -6.5t-52.5 -2.5t-52 2.5t-51 6.5l-29 -124h-153zM263 366l-23 -101q17 -2 34.5 -3.5t35.5 -1.5t35.5 1.5t34.5 3.5l-24 101q-4 19 -10.5 47.5t-12 54.5t-9.5 44.5l-4 18.5h-26l-3 -18.5t-7.5 -44.5
t-10 -54.5t-10.5 -47.5zM216 -135q0 40 24.5 62.5t70.5 22.5q45 0 69.5 -22.5t24.5 -62.5v-12q0 -41 -24.5 -63t-69.5 -22q-46 0 -70.5 22t-24.5 63v12z" />
    <glyph glyph-name="uni1EA1" unicode="&#x1ea1;" horiz-adv-x="537" 
d="M63 360v129l13.5 6.5t39.5 14t64 14t87 6.5q112 0 166.5 -43t54.5 -136v-351h-138l-18 50h-4l-8.5 -9t-26 -20t-43.5 -20t-61 -9q-87 0 -124.5 43t-37.5 118q0 84 51 120t137 36h107v31q0 25 -14 38.5t-51 13.5q-21 0 -33 -5t-18 -11t-8 -11l-2 -5h-133zM245 117
q43 0 60 14l17 14v67h-77q-28 0 -42 -13.5t-14 -33.5q0 -24 12.5 -36t43.5 -12zM173 -135q0 40 24.5 62.5t70.5 22.5q45 0 69.5 -22.5t24.5 -62.5v-12q0 -41 -24.5 -63t-69.5 -22q-46 0 -70.5 22t-24.5 63v12z" />
    <glyph glyph-name="uni1EB8" unicode="&#x1eb8;" horiz-adv-x="541" 
d="M57 0v680h455l-21 -150h-261v-117h238v-145h-238v-118h272v-150h-445zM187 -135q0 40 24.5 62.5t70.5 22.5q45 0 69.5 -22.5t24.5 -62.5v-12q0 -41 -24.5 -63t-69.5 -22q-46 0 -70.5 22t-24.5 63v12z" />
    <glyph glyph-name="uni1EB9" unicode="&#x1eb9;" horiz-adv-x="537" 
d="M33 248v28q0 127 63.5 192.5t175.5 65.5q104 0 169.5 -54t65.5 -184q0 -39 -2.5 -62l-2.5 -23h-299v-5q0 -41 19 -61.5t60 -21.5q21 0 35.5 5t23.5 11t12.5 11l3.5 5h129v-123l-14 -6.5t-40 -14t-64 -14t-86 -6.5q-123 0 -186 65t-63 192zM203 318v-8h138l0.5 5.5
t0.5 15.5q0 38 -18.5 55.5t-50.5 17.5q-34 0 -52 -20.5t-18 -65.5zM186 -135q0 40 24.5 62.5t70.5 22.5q45 0 69.5 -22.5t24.5 -62.5v-12q0 -41 -24.5 -63t-69.5 -22q-46 0 -70.5 22t-24.5 63v12z" />
    <glyph glyph-name="uni1EBC" unicode="&#x1ebc;" horiz-adv-x="541" 
d="M80 741v100l6.5 8t20 17t36 17t53.5 8q24 0 43 -4t35 -9l25 -7q13 -4 22.5 -7t25.5 -3q27 0 35.5 14l8.5 14h93v-100l-6.5 -8t-20 -17t-36 -17t-53.5 -8q-24 0 -43 4t-35 9l-25 7q-13 4 -22.5 7t-25.5 3q-27 0 -35.5 -14l-8.5 -14h-93zM57 0v680h455l-21 -150h-261v-117
h238v-145h-238v-118h272v-150h-445z" />
    <glyph glyph-name="uni1EBD" unicode="&#x1ebd;" horiz-adv-x="537" 
d="M69 584v100l6.5 8t20 17t36 17t53.5 8q24 0 43 -4t35 -9l25 -7q13 -4 22.5 -7t25.5 -3q27 0 35.5 14l8.5 14h93v-100l-6.5 -8t-20 -17t-36 -17t-53.5 -8q-24 0 -43 4t-35 9l-25 7q-13 4 -22.5 7t-25.5 3q-27 0 -35.5 -14l-8.5 -14h-93zM33 248v28q0 127 63.5 192.5
t175.5 65.5q104 0 169.5 -54t65.5 -184q0 -39 -2.5 -62l-2.5 -23h-299v-5q0 -41 19 -61.5t60 -21.5q21 0 35.5 5t23.5 11t12.5 11l3.5 5h129v-123l-14 -6.5t-40 -14t-64 -14t-86 -6.5q-123 0 -186 65t-63 192zM203 318v-8h138l0.5 5.5t0.5 15.5q0 38 -18.5 55.5t-50.5 17.5
q-34 0 -52 -20.5t-18 -65.5z" />
    <glyph glyph-name="uni1ECA" unicode="&#x1eca;" horiz-adv-x="362" 
d="M30 120l62 15v410l-62 15v120h302v-120l-62 -15v-410h1l61 -15v-120h-302v120zM86 -135q0 40 24.5 62.5t70.5 22.5q45 0 69.5 -22.5t24.5 -62.5v-12q0 -41 -24.5 -63t-69.5 -22q-46 0 -70.5 22t-24.5 63v12z" />
    <glyph glyph-name="uni1ECB" unicode="&#x1ecb;" horiz-adv-x="277" 
d="M43 678q0 41 25 63.5t71 22.5t70.5 -22.5t24.5 -63.5v-12q0 -41 -24.5 -63.5t-70.5 -22.5t-71 22.5t-25 63.5v12zM53 0v523h172v-523h-172zM44 -135q0 40 24.5 62.5t70.5 22.5q45 0 69.5 -22.5t24.5 -62.5v-12q0 -41 -24.5 -63t-69.5 -22q-46 0 -70.5 22t-24.5 63v12z
" />
    <glyph glyph-name="uni1ECC" unicode="&#x1ecc;" horiz-adv-x="629" 
d="M40 257v166q0 130 71.5 200t203.5 70q131 0 202.5 -70t71.5 -200v-166q0 -128 -71.5 -199t-202.5 -71t-203 70.5t-72 199.5zM218 245q0 -51 23.5 -77t73.5 -26t73 26t23 77v191q0 51 -23 77t-73 26t-73.5 -26t-23.5 -77v-191zM220 -135q0 40 24.5 62.5t70.5 22.5
q45 0 69.5 -22.5t24.5 -62.5v-12q0 -41 -24.5 -63t-69.5 -22q-46 0 -70.5 22t-24.5 63v12z" />
    <glyph glyph-name="uni1ECD" unicode="&#x1ecd;" horiz-adv-x="557" 
d="M33 246v32q0 123 64 190.5t181 67.5q118 0 182 -67.5t64 -190.5v-32q0 -124 -64.5 -191.5t-181.5 -67.5t-181 67.5t-64 191.5zM207 239q0 -62 15 -89t56 -27t56.5 26.5t15.5 89.5v45q0 63 -15.5 90t-56.5 27t-56 -27.5t-15 -89.5v-45zM183 -135q0 40 24.5 62.5t70.5 22.5
q45 0 69.5 -22.5t24.5 -62.5v-12q0 -41 -24.5 -63t-69.5 -22q-46 0 -70.5 22t-24.5 63v12z" />
    <glyph glyph-name="uni1EE4" unicode="&#x1ee4;" horiz-adv-x="649" 
d="M53 226v454h178v-446q0 -50 20.5 -71t67.5 -21q22 0 39.5 5t29.5 11t18.5 11l6.5 5v506h179v-680h-141l-19 65h-4l-11.5 -11.5t-33.5 -25t-54 -25t-72 -11.5q-104 0 -154 54t-50 180zM229 -135q0 40 24.5 62.5t70.5 22.5q45 0 69.5 -22.5t24.5 -62.5v-12q0 -41 -24.5 -63
t-69.5 -22q-46 0 -70.5 22t-24.5 63v12z" />
    <glyph glyph-name="uni1EE5" unicode="&#x1ee5;" 
d="M49 523h172v-331q0 -33 14 -47t45 -14t48.5 12.5l17.5 12.5v367h172v-523h-142l-20 57h-3l-9 -10.5t-27.5 -22.5t-47 -22.5t-66.5 -10.5q-76 0 -115 40t-39 130v362zM191 -135q0 40 24.5 62.5t70.5 22.5q45 0 69.5 -22.5t24.5 -62.5v-12q0 -41 -24.5 -63t-69.5 -22
q-46 0 -70.5 22t-24.5 63v12z" />
    <glyph glyph-name="Ygrave" unicode="&#x1ef2;" horiz-adv-x="568" 
d="M89 918h111l144 -102v-107l-255 110v99zM126 120l68 15h1v123l-180 313v109h135l87 -166q8 -15 16.5 -32t15 -30.5t10.5 -22.5l4 -9h5l14 30.5t31 61.5l89 168h132v-109l-183 -313v-123l67 -15v-120h-312v120z" />
    <glyph glyph-name="ygrave" unicode="&#x1ef3;" horiz-adv-x="527" 
d="M255 740l82 -170h-133l-82 98v72h133zM112 -38h41q23 0 38 9t20 33l8 31h-72l-125 382v106h146l62 -201q6 -19 11.5 -44t9.5 -47.5t6.5 -37.5l2.5 -15h12l2.5 15t6 37.5t9 47.5t11.5 44l61 201h143v-107l-125 -381l-12 -47q-12 -53 -31.5 -85t-37 -49t-30.5 -22l-13 -5
h-144v135z" />
    <glyph glyph-name="uni1EF8" unicode="&#x1ef8;" horiz-adv-x="568" 
d="M83 741v100l6.5 8t20 17t36 17t53.5 8q24 0 43 -4t35 -9l25 -7q13 -4 22.5 -7t25.5 -3q27 0 35.5 14l8.5 14h93v-100l-6.5 -8t-20 -17t-36 -17t-53.5 -8q-24 0 -43 4t-35 9l-25 7q-13 4 -22.5 7t-25.5 3q-27 0 -35.5 -14l-8.5 -14h-93zM126 120l68 15h1v123l-180 313v109
h135l87 -166q8 -15 16.5 -32t15 -30.5t10.5 -22.5l4 -9h5l14 30.5t31 61.5l89 168h132v-109l-183 -313v-123l67 -15v-120h-312v120z" />
    <glyph glyph-name="uni1EF9" unicode="&#x1ef9;" horiz-adv-x="527" 
d="M63 584v100l6.5 8t20 17t36 17t53.5 8q24 0 43 -4t35 -9l25 -7q13 -4 22.5 -7t25.5 -3q27 0 35.5 14l8.5 14h93v-100l-6.5 -8t-20 -17t-36 -17t-53.5 -8q-24 0 -43 4t-35 9l-25 7q-13 4 -22.5 7t-25.5 3q-27 0 -35.5 -14l-8.5 -14h-93zM112 -38h41q23 0 38 9t20 33l8 31
h-72l-125 382v106h146l62 -201q6 -19 11.5 -44t9.5 -47.5t6.5 -37.5l2.5 -15h12l2.5 15t6 37.5t9 47.5t11.5 44l61 201h143v-107l-125 -381l-12 -47q-12 -53 -31.5 -85t-37 -49t-30.5 -22l-13 -5h-144v135z" />
    <glyph glyph-name="endash" unicode="&#x2013;" horiz-adv-x="500" 
d="M0 325h500v-150h-500v150z" />
    <glyph glyph-name="emdash" unicode="&#x2014;" horiz-adv-x="1000" 
d="M0 325h1000v-150h-1000v150z" />
    <glyph glyph-name="quoteleft" unicode="&#x2018;" horiz-adv-x="270" 
d="M268 741l-7 -24.5t-15 -67t-15 -101.5t-7 -127h-159v104q9 54 22.5 95t26 67.5t21.5 40l9 13.5h124z" />
    <glyph glyph-name="quoteright" unicode="&#x2019;" horiz-adv-x="270" 
d="M2 420l7 24.5t15 67t15 101.5t7 127h159v-104q-9 -54 -22.5 -95t-26 -67.5t-21.5 -40l-9 -13.5h-124z" />
    <glyph glyph-name="quotesinglbase" unicode="&#x201a;" horiz-adv-x="249" 
d="M2 -148l7 24.5t15 67t15 101.5t7 127h159v-104q-9 -54 -22.5 -95t-26 -67.5t-21.5 -40l-9 -13.5h-124z" />
    <glyph glyph-name="quotedblleft" unicode="&#x201c;" horiz-adv-x="502" 
d="M268 741l-7 -24.5t-15 -67t-15 -101.5t-7 -127h-159v104q9 54 22.5 95t26 67.5t21.5 40l9 13.5h124zM500 741l-7 -24.5t-15 -67t-15 -101.5t-7 -127h-159v104q9 54 22.5 95t26 67.5t21.5 40l9 13.5h124z" />
    <glyph glyph-name="quotedblright" unicode="&#x201d;" horiz-adv-x="503" 
d="M2 420l7 24.5t15 67t15 101.5t7 127h159v-104q-9 -54 -22.5 -95t-26 -67.5t-21.5 -40l-9 -13.5h-124zM235 420l7 24.5t15 67t15 101.5t7 127h159v-104q-9 -54 -22.5 -95t-26 -67.5t-21.5 -40l-9 -13.5h-124z" />
    <glyph glyph-name="quotedblbase" unicode="&#x201e;" horiz-adv-x="482" 
d="M2 -148l7 24.5t15 67t15 101.5t7 127h159v-104q-9 -54 -22.5 -95t-26 -67.5t-21.5 -40l-9 -13.5h-124zM235 -148l7 24.5t15 67t15 101.5t7 127h159v-104q-9 -54 -22.5 -95t-26 -67.5t-21.5 -40l-9 -13.5h-124z" />
    <glyph glyph-name="dagger" unicode="&#x2020;" horiz-adv-x="512" 
d="M18 373v143h78q14 0 29.5 -1t28 -2.5t21 -2.5l8.5 -1l3 4l-2.5 27t-2.5 60v80h150v-80q0 -33 -2.5 -60l-2.5 -27l3 -4l8.5 1t21 2.5t28 2.5t29.5 1h78v-143h-78q-14 0 -29.5 1.5t-28 2.5t-21 2.5l-8.5 1.5l-3 -5l2.5 -25t2.5 -49v-403h-150v403q0 24 2.5 49l2.5 25l-3 5
l-8.5 -1.5t-21 -2.5t-28 -2.5t-29.5 -1.5h-78z" />
    <glyph glyph-name="daggerdbl" unicode="&#x2021;" horiz-adv-x="512" 
d="M18 63v143h78q14 0 29.5 -1t28 -2.5t21 -2.5l8.5 -1l3 4l-2.5 25.5t-2.5 49.5v24q0 24 2.5 49l2.5 25l-3 5l-8.5 -1.5t-21 -2.5t-28 -2.5t-29.5 -1.5h-78v143h78q14 0 29.5 -1t28 -2.5t21 -2.5l8.5 -1l3 4l-2.5 27t-2.5 60v80h150v-80q0 -33 -2.5 -60l-2.5 -27l3 -4
l8.5 1t21 2.5t28 2.5t29.5 1h78v-143h-78q-14 0 -29.5 1.5t-28 2.5t-21 2.5l-8.5 1.5l-3 -5l2.5 -25t2.5 -49v-24q0 -24 -2.5 -49.5l-2.5 -25.5l3 -4l8.5 1t21 2.5t28 2.5t29.5 1h78v-143h-78q-14 0 -29.5 1.5t-28 2.5t-21 2.5l-8.5 1.5l-3 -5l2.5 -26.5t2.5 -60.5v-80h-150
v80q0 34 2.5 60.5l2.5 26.5l-3 5l-8.5 -1.5t-21 -2.5t-28 -2.5t-29.5 -1.5h-78z" />
    <glyph glyph-name="bullet" unicode="&#x2022;" horiz-adv-x="430" 
d="M47 259q0 78 44.5 125.5t123.5 46.5t124 -47.5t45 -124.5t-45 -124t-124 -46t-123.5 46t-44.5 124z" />
    <glyph glyph-name="ellipsis" unicode="&#x2026;" horiz-adv-x="747" 
d="M29 95q0 42 25 66t71 24t71 -24t25 -66v-12q0 -42 -25 -66.5t-71 -24.5t-71 24.5t-25 66.5v12zM278 95q0 42 25 66t71 24t71 -24t25 -66v-12q0 -42 -25 -66.5t-71 -24.5t-71 24.5t-25 66.5v12zM527 95q0 42 25 66t71 24t71 -24t25 -66v-12q0 -42 -25 -66.5t-71 -24.5
t-71 24.5t-25 66.5v12z" />
    <glyph glyph-name="perthousand" unicode="&#x2030;" horiz-adv-x="1362" 
d="M201 261q-75 0 -122.5 41t-47.5 120v107q0 78 47.5 119t122.5 41t123 -41t48 -119v-107q0 -79 -48 -120t-123 -41zM621 680h87v-78l-369 -602h-87v78zM201 582q-21 0 -31 -12.5t-10 -34.5v-120q0 -22 10 -34.5t31 -12.5t31.5 12.5t10.5 34.5v120q0 22 -10.5 34.5
t-31.5 12.5zM759 -10q-75 0 -122.5 41t-47.5 120v107q0 78 47.5 119t122.5 41t123 -41t48 -119v-107q0 -79 -48 -120t-123 -41zM1161 -10q-75 0 -122.5 41t-47.5 120v107q0 78 47.5 119t122.5 41t123 -41t48 -119v-107q0 -79 -48 -120t-123 -41zM759 311q-21 0 -31 -12.5
t-10 -34.5v-120q0 -22 10 -34.5t31 -12.5t31.5 12.5t10.5 34.5v120q0 22 -10.5 34.5t-31.5 12.5zM1161 311q-21 0 -31 -12.5t-10 -34.5v-120q0 -22 10 -34.5t31 -12.5t31.5 12.5t10.5 34.5v120q0 22 -10.5 34.5t-31.5 12.5z" />
    <glyph glyph-name="guilsinglleft" unicode="&#x2039;" horiz-adv-x="326" 
d="M31 288l167 190h102v-82l-89 -99q-19 -21 -27.5 -29.5l-8.5 -8.5v-9l8.5 -9t27.5 -29l89 -100v-82h-102l-167 189v69z" />
    <glyph glyph-name="guilsinglright" unicode="&#x203a;" horiz-adv-x="326" 
d="M295 288v-69l-167 -189h-102v82l89 100q19 20 27.5 29l8.5 9v9l-8.5 8.5t-27.5 29.5l-89 99v82h102z" />
    <glyph glyph-name="fraction" unicode="&#x2044;" horiz-adv-x="156" 
d="M219 680h87v-78l-369 -602h-87v78z" />
    <glyph glyph-name="uni2070" unicode="&#x2070;" horiz-adv-x="402" 
d="M201 461q-75 0 -122.5 41t-47.5 120v107q0 78 47.5 119t122.5 41t123 -41t48 -119v-107q0 -79 -48 -120t-123 -41zM201 782q-21 0 -31 -12.5t-10 -34.5v-120q0 -22 10 -34.5t31 -12.5t31.5 12.5t10.5 34.5v120q0 22 -10.5 34.5t-31.5 12.5z" />
    <glyph glyph-name="uni2074" unicode="&#x2074;" horiz-adv-x="372" 
d="M17 535v93l107 252h183v-246h48v-99h-48v-65h-116v65h-174zM125 632h66v72v26.5t0.5 27t0.5 20.5v8h-6l-9 -24t-20 -52z" />
    <glyph glyph-name="uni2075" unicode="&#x2075;" horiz-adv-x="360" 
d="M34 489v97h95l8 -12.5t36 -12.5q23 0 33 11t10 30q0 18 -10.5 28t-31.5 10q-22 0 -32.5 -8.5l-10.5 -8.5h-90v71l23 186h256v-102h-110q-10 0 -27.5 0.5l-17.5 0.5l-4 -28q-1 -12 -2.5 -20.5l-1.5 -8.5l1 -1l17.5 7.5t52.5 7.5q51 0 81.5 -34t29.5 -94q-1 -64 -38 -105.5
t-124 -41.5q-66 0 -104.5 14z" />
    <glyph glyph-name="uni2076" unicode="&#x2076;" horiz-adv-x="362" 
d="M284 785q-12 0 -30 -4t-35.5 -14t-33 -25.5t-22.5 -37.5h2l19 13t58 13q54 0 79.5 -32.5t25.5 -92.5q0 -78 -45.5 -111t-114.5 -33q-66 0 -113.5 33t-47.5 120v19q0 75 26.5 123t58 75.5t58 38l26.5 10.5h89v-95zM151 608q0 -22 9 -35t29 -13q19 0 28 12.5t9 34.5
q0 21 -9.5 31t-25.5 10q-20 0 -30 -8l-10 -8v-24z" />
    <glyph glyph-name="uni2077" unicode="&#x2077;" horiz-adv-x="335" 
d="M10 742v138h306v-118l-91 -208q-4 -10 -6.5 -26t-2.5 -27v-31h-129l-1 91l70 151q10 21 19.5 41l9.5 20v2h-58l-6 -33h-111z" />
    <glyph glyph-name="uni2078" unicode="&#x2078;" horiz-adv-x="380" 
d="M349 579q0 -57 -37 -88t-121 -31t-121.5 31t-37.5 88q0 24 6.5 41.5t14.5 29t14.5 17.5l6.5 6v3l-6 6t-13 18t-13 29.5t-6 39.5q0 54 37 87.5t118 33.5q80 0 117 -33.5t37 -87.5q0 -22 -6 -39.5t-13 -29.5t-13 -18l-6 -6v-3l6.5 -6t14.5 -17.5t14.5 -29t6.5 -41.5z
M151 758q0 -18 8.5 -27.5l8.5 -9.5h45l8.5 9.5t8.5 27.5q0 15 -10 24.5t-29 9.5q-20 0 -30 -9.5t-10 -24.5zM149 592q0 -15 10 -24.5t32 -9.5t31.5 9.5t9.5 24.5q0 19 -9.5 27.5l-9.5 8.5h-45l-9.5 -8t-9.5 -28z" />
    <glyph glyph-name="uni2079" unicode="&#x2079;" horiz-adv-x="362" 
d="M78 565q12 0 30 4t35.5 14t33 25.5t22.5 37.5h-2l-19 -13t-58 -13q-54 0 -79.5 32.5t-25.5 92.5q0 78 45.5 111t114.5 33q66 0 113.5 -33t47.5 -120v-19q0 -75 -26.5 -123t-58 -75.5t-58 -38l-26.5 -10.5h-89v95zM171 702q20 0 30 8l10 8v24q0 22 -9 35t-29 13
q-19 0 -28 -12.5t-9 -34.5q0 -21 9.5 -31t25.5 -10z" />
    <glyph glyph-name="uni2080" unicode="&#x2080;" horiz-adv-x="402" 
d="M201 -210q-75 0 -122.5 41t-47.5 120v107q0 78 47.5 119t122.5 41t123 -41t48 -119v-107q0 -79 -48 -120t-123 -41zM201 111q-21 0 -31 -12.5t-10 -34.5v-120q0 -22 10 -34.5t31 -12.5t31.5 12.5t10.5 34.5v120q0 22 -10.5 34.5t-31.5 12.5z" />
    <glyph glyph-name="uni2081" unicode="&#x2081;" horiz-adv-x="317" 
d="M34 102v74l74 34h120v-308l66 -10v-92h-261v92l66 10v200h-65z" />
    <glyph glyph-name="uni2082" unicode="&#x2082;" horiz-adv-x="362" 
d="M327 -200h-294l-1 119l148 124q16 13 22.5 22.5t6.5 19.5q0 11 -8 19.5t-29 8.5q-31 0 -38.5 -12t-7.5 -11h-95v98l40 15.5t113 15.5q72 0 110.5 -32.5t38.5 -88.5q0 -48 -18.5 -76.5t-56.5 -57.5l-76 -62v-1l16 0.5t33 0.5h96v-102z" />
    <glyph glyph-name="uni2083" unicode="&#x2083;" horiz-adv-x="355" 
d="M29 -87h95l8 -11t37 -11q22 0 31.5 10t9.5 27q0 20 -12 28t-26 8q-16 0 -24.5 -3.5l-8.5 -3.5h-68v76l98 75v1l-14.5 -0.5t-33.5 -0.5h-86v102h280v-110l-63 -50q-10 -7 -22 -14.5l-12 -7.5v-1l6.5 1.5t19.5 1.5q42 0 65.5 -27.5t23.5 -78.5q0 -60 -40.5 -96.5
t-124.5 -36.5q-63 0 -101 12.5l-38 12.5v97z" />
    <glyph glyph-name="uni2084" unicode="&#x2084;" horiz-adv-x="372" 
d="M17 -135v93l107 252h183v-246h48v-99h-48v-65h-116v65h-174zM125 -38h66v72v26.5t0.5 27t0.5 20.5v8h-6l-9 -24t-20 -52z" />
    <glyph glyph-name="uni2085" unicode="&#x2085;" horiz-adv-x="360" 
d="M34 -183v97h95l8 -12.5t36 -12.5q23 0 33 11t10 30q0 18 -10.5 28t-31.5 10q-22 0 -32.5 -8.5l-10.5 -8.5h-90v71l23 186h256v-102h-110q-10 0 -27.5 0.5l-17.5 0.5l-4 -28q-1 -12 -2.5 -20.5l-1.5 -8.5l1 -1l17.5 7.5t52.5 7.5q51 0 81.5 -34t29.5 -94
q-1 -64 -38 -105.5t-124 -41.5q-66 0 -104.5 14z" />
    <glyph glyph-name="uni2086" unicode="&#x2086;" horiz-adv-x="362" 
d="M284 114q-12 0 -30 -4t-35.5 -14t-33 -25.5t-22.5 -37.5h2l19 13t58 13q54 0 79.5 -32.5t25.5 -92.5q0 -78 -45.5 -111t-114.5 -33q-66 0 -113.5 33t-47.5 120v19q0 75 26.5 123t58 75.5t58 38l26.5 10.5h89v-95zM151 -63q0 -22 9 -35t29 -13q19 0 28 12.5t9 34.5
q0 21 -9.5 31t-25.5 10q-20 0 -30 -8l-10 -8v-24z" />
    <glyph glyph-name="uni2087" unicode="&#x2087;" horiz-adv-x="335" 
d="M10 72v138h306v-118l-91 -208q-4 -10 -6.5 -26t-2.5 -27v-31h-129l-1 91l70 151q10 21 19.5 41l9.5 20v2h-58l-6 -33h-111z" />
    <glyph glyph-name="uni2088" unicode="&#x2088;" horiz-adv-x="380" 
d="M349 -89q0 -57 -37 -88t-121 -31t-121.5 31t-37.5 88q0 24 6.5 41.5t14.5 29t14.5 17.5l6.5 6v3l-6 6t-13 18t-13 29.5t-6 39.5q0 54 37 87.5t118 33.5q80 0 117 -33.5t37 -87.5q0 -22 -6 -39.5t-13 -29.5t-13 -18l-6 -6v-3l6.5 -6t14.5 -17.5t14.5 -29t6.5 -41.5z
M151 90q0 -18 8.5 -27.5l8.5 -9.5h45l8.5 9.5t8.5 27.5q0 15 -10 24.5t-29 9.5q-20 0 -30 -9.5t-10 -24.5zM149 -76q0 -15 10 -24.5t32 -9.5t31.5 9.5t9.5 24.5q0 19 -9.5 27.5l-9.5 8.5h-45l-9.5 -8t-9.5 -28z" />
    <glyph glyph-name="uni2089" unicode="&#x2089;" horiz-adv-x="362" 
d="M78 -105q12 0 30 4t35.5 14t33 25.5t22.5 37.5h-2l-19 -13t-58 -13q-54 0 -79.5 32.5t-25.5 92.5q0 78 45.5 111t114.5 33q66 0 113.5 -33t47.5 -120v-19q0 -75 -26.5 -123t-58 -75.5t-58 -38l-26.5 -10.5h-89v95zM171 32q20 0 30 8l10 8v24q0 22 -9 35t-29 13
q-19 0 -28 -12.5t-9 -34.5q0 -21 9.5 -31t25.5 -10z" />
    <glyph glyph-name="Euro" unicode="&#x20ac;" horiz-adv-x="562" 
d="M400 219h-130q2 -43 17.5 -62.5t56.5 -19.5q22 0 34.5 6t19 13t8 13l1.5 6h133v-127l-11.5 -9t-36 -19.5t-62 -19.5t-89.5 -9q-116 0 -176 54t-65 174h-71v99h71v45h-71v98h71q5 121 65 174.5t176 53.5q52 0 89.5 -9t62 -19t36 -19l11.5 -9v-127h-133l-1.5 6t-8 13
t-19 13t-34.5 6q-41 0 -56.5 -19.5t-17.5 -63.5h130v-98h-130v-45h130v-99z" />
    <glyph glyph-name="trademark" unicode="&#x2122;" horiz-adv-x="806" 
d="M120 301v277h-87v102h295l-14 -102h-74v-277h-120zM361 301v379h153l28 -107q9 -34 15 -58l6 -24h3l6 24t15 58l28 107h152v-379h-110v116q0 20 0.5 42.5t1 41.5t1 31.5l0.5 12.5h-3l-43 -163h-100l-43 163h-3l0.5 -12.5t1.5 -31.5t1.5 -41.5t0.5 -42.5v-116h-111z" />
    <glyph glyph-name="uni2153" unicode="&#x2153;" horiz-adv-x="869" 
d="M33 270v92l66 10v200h-65v74l74 34h120v-308l66 -10v-92h-261zM566 680h87v-78l-369 -602h-87v78zM543 113h95l8 -11t37 -11q22 0 31.5 10t9.5 27q0 20 -12 28t-26 8q-16 0 -24.5 -3.5l-8.5 -3.5h-68v76l98 75v1l-14.5 -0.5t-33.5 -0.5h-86v102h280v-110l-63 -50
q-10 -7 -22 -14.5l-12 -7.5v-1l6.5 1.5t19.5 1.5q42 0 65.5 -27.5t23.5 -78.5q0 -60 -40.5 -96.5t-124.5 -36.5q-63 0 -101 12.5l-38 12.5v97z" />
    <glyph glyph-name="uni2154" unicode="&#x2154;" horiz-adv-x="895" 
d="M327 270h-294l-1 119l148 124q16 13 22.5 22.5t6.5 19.5q0 11 -8 19.5t-29 8.5q-31 0 -38.5 -12t-7.5 -11h-95v98l40 15.5t113 15.5q72 0 110.5 -32.5t38.5 -88.5q0 -48 -18.5 -76.5t-56.5 -57.5l-76 -62v-1l16 0.5t33 0.5h96v-102zM592 680h87v-78l-369 -602h-87v78z
M569 113h95l8 -11t37 -11q22 0 31.5 10t9.5 27q0 20 -12 28t-26 8q-16 0 -24.5 -3.5l-8.5 -3.5h-68v76l98 75v1l-14.5 -0.5t-33.5 -0.5h-86v102h280v-110l-63 -50q-10 -7 -22 -14.5l-12 -7.5v-1l6.5 1.5t19.5 1.5q42 0 65.5 -27.5t23.5 -78.5q0 -60 -40.5 -96.5
t-124.5 -36.5q-63 0 -101 12.5l-38 12.5v97z" />
    <glyph glyph-name="oneeighth" unicode="&#x215b;" horiz-adv-x="883" 
d="M33 270v92l66 10v200h-65v74l74 34h120v-308l66 -10v-92h-261zM566 680h87v-78l-369 -602h-87v78zM852 111q0 -57 -37 -88t-121 -31t-121.5 31t-37.5 88q0 24 6.5 41.5t14.5 29t14.5 17.5l6.5 6v3l-6 6t-13 18t-13 29.5t-6 39.5q0 54 37 87.5t118 33.5q80 0 117 -33.5
t37 -87.5q0 -22 -6 -39.5t-13 -29.5t-13 -18l-6 -6v-3l6.5 -6t14.5 -17.5t14.5 -29t6.5 -41.5zM654 290q0 -18 8.5 -27.5l8.5 -9.5h45l8.5 9.5t8.5 27.5q0 15 -10 24.5t-29 9.5q-20 0 -30 -9.5t-10 -24.5zM652 124q0 -15 10 -24.5t32 -9.5t31.5 9.5t9.5 24.5q0 19 -9.5 27.5
l-9.5 8.5h-45l-9.5 -8t-9.5 -28z" />
    <glyph glyph-name="threeeighths" unicode="&#x215c;" horiz-adv-x="894" 
d="M29 383h95l8 -11t37 -11q22 0 31.5 10t9.5 27q0 20 -12 28t-26 8q-16 0 -24.5 -3.5l-8.5 -3.5h-68v76l98 75v1l-14.5 -0.5t-33.5 -0.5h-86v102h280v-110l-63 -50q-10 -7 -22 -14.5l-12 -7.5v-1l6.5 1.5t19.5 1.5q42 0 65.5 -27.5t23.5 -78.5q0 -60 -40.5 -96.5
t-124.5 -36.5q-63 0 -101 12.5l-38 12.5v97zM577 680h87v-78l-369 -602h-87v78zM863 111q0 -57 -37 -88t-121 -31t-121.5 31t-37.5 88q0 24 6.5 41.5t14.5 29t14.5 17.5l6.5 6v3l-6 6t-13 18t-13 29.5t-6 39.5q0 54 37 87.5t118 33.5q80 0 117 -33.5t37 -87.5
q0 -22 -6 -39.5t-13 -29.5t-13 -18l-6 -6v-3l6.5 -6t14.5 -17.5t14.5 -29t6.5 -41.5zM665 290q0 -18 8.5 -27.5l8.5 -9.5h45l8.5 9.5t8.5 27.5q0 15 -10 24.5t-29 9.5q-20 0 -30 -9.5t-10 -24.5zM663 124q0 -15 10 -24.5t32 -9.5t31.5 9.5t9.5 24.5q0 19 -9.5 27.5l-9.5 8.5
h-45l-9.5 -8t-9.5 -28z" />
    <glyph glyph-name="fiveeighths" unicode="&#x215d;" horiz-adv-x="896" 
d="M34 289v97h95l8 -12.5t36 -12.5q23 0 33 11t10 30q0 18 -10.5 28t-31.5 10q-22 0 -32.5 -8.5l-10.5 -8.5h-90v71l23 186h256v-102h-110q-10 0 -27.5 0.5l-17.5 0.5l-4 -28q-1 -12 -2.5 -20.5l-1.5 -8.5l1 -1l17.5 7.5t52.5 7.5q51 0 81.5 -34t29.5 -94q-1 -64 -38 -105.5
t-124 -41.5q-66 0 -104.5 14zM579 680h87v-78l-369 -602h-87v78zM865 111q0 -57 -37 -88t-121 -31t-121.5 31t-37.5 88q0 24 6.5 41.5t14.5 29t14.5 17.5l6.5 6v3l-6 6t-13 18t-13 29.5t-6 39.5q0 54 37 87.5t118 33.5q80 0 117 -33.5t37 -87.5q0 -22 -6 -39.5t-13 -29.5
t-13 -18l-6 -6v-3l6.5 -6t14.5 -17.5t14.5 -29t6.5 -41.5zM667 290q0 -18 8.5 -27.5l8.5 -9.5h45l8.5 9.5t8.5 27.5q0 15 -10 24.5t-29 9.5q-20 0 -30 -9.5t-10 -24.5zM665 124q0 -15 10 -24.5t32 -9.5t31.5 9.5t9.5 24.5q0 19 -9.5 27.5l-9.5 8.5h-45l-9.5 -8t-9.5 -28z
" />
    <glyph glyph-name="seveneighths" unicode="&#x215e;" horiz-adv-x="849" 
d="M10 542v138h306v-118l-91 -208q-4 -10 -6.5 -26t-2.5 -27v-31h-129l-1 91l70 151q10 21 19.5 41l9.5 20v2h-58l-6 -33h-111zM532 680h87v-78l-369 -602h-87v78zM818 111q0 -57 -37 -88t-121 -31t-121.5 31t-37.5 88q0 24 6.5 41.5t14.5 29t14.5 17.5l6.5 6v3l-6 6t-13 18
t-13 29.5t-6 39.5q0 54 37 87.5t118 33.5q80 0 117 -33.5t37 -87.5q0 -22 -6 -39.5t-13 -29.5t-13 -18l-6 -6v-3l6.5 -6t14.5 -17.5t14.5 -29t6.5 -41.5zM620 290q0 -18 8.5 -27.5l8.5 -9.5h45l8.5 9.5t8.5 27.5q0 15 -10 24.5t-29 9.5q-20 0 -30 -9.5t-10 -24.5zM618 124
q0 -15 10 -24.5t32 -9.5t31.5 9.5t9.5 24.5q0 19 -9.5 27.5l-9.5 8.5h-45l-9.5 -8t-9.5 -28z" />
    <glyph glyph-name="minus" unicode="&#x2212;" horiz-adv-x="600" 
d="M53 373h495v-150h-495v150z" />
    <glyph glyph-name="notequal" unicode="&#x2260;" horiz-adv-x="600" 
d="M91 -14v72l27 46h-65v150h154l53 89h-207v150h295l70 118h92v-72l-27 -46h65v-150h-154l-53 -89h207v-150h-295l-70 -118h-92z" />
    <glyph glyph-name="lessequal" unicode="&#x2264;" horiz-adv-x="600" 
d="M302 22h-119l-158 184v88l158 184h119v-84l-47 -46q-7 -7 -15 -14.5l-8 -7.5v-2l24.5 0.5t56.5 0.5h264v-150h-264q-32 0 -57 0.5l-25 0.5v-2l9 -8t16 -15l46 -45v-84z" />
    <glyph glyph-name="greaterequal" unicode="&#x2265;" horiz-adv-x="600" 
d="M299 22v84l46 45q7 7 16 15l9 8v2l-25 -0.5t-57 -0.5h-264v150h264q32 0 56.5 -0.5l24.5 -0.5v2l-8 7.5t-15 14.5l-47 46v84h119l158 -184v-88l-158 -184h-119z" />
    <glyph glyph-name="zero.slash" horiz-adv-x="581" 
d="M44 238v205q0 124 61 187t186 63q124 0 185 -63t61 -187v-205q0 -124 -61 -187.5t-185 -63.5q-125 0 -186 63.5t-61 187.5zM222 459v-136l121 197q-8 8 -20.5 12.5t-31.5 4.5q-40 0 -54.5 -19.5t-14.5 -58.5zM359 222v134l-120 -196q7 -8 20 -12.5t32 -4.5
q39 0 53.5 19.5t14.5 59.5z" />
    <glyph glyph-name="IJacute" horiz-adv-x="845" 
d="M322 918v-99l-255 -110v107l144 102h111zM746 918v-99l-255 -110v107l144 102h111zM30 120l62 15v410l-62 15v120h302v-120l-62 -15v-410h1l61 -15v-120h-302v120zM389 167h127l8 -10.5t39 -10.5q27 0 39 12.5t12 41.5v325h-199v155h377v-474q0 -101 -53.5 -157.5
t-181.5 -56.5q-82 0 -125 14l-43 14v147z" />
    <glyph glyph-name="i.loclTRK" horiz-adv-x="277" 
d="M44 662q0 40 24.5 62.5t70.5 22.5q45 0 69.5 -22.5t24.5 -62.5v-12q0 -41 -24.5 -63t-69.5 -22q-46 0 -70.5 22t-24.5 63v12zM225 0h-172v523h172v-523z" />
    <glyph glyph-name="ijacute" horiz-adv-x="554" 
d="M143 740h133v-72l-82 -98h-133zM420 740h133v-72l-82 -98h-133zM225 0h-172v523h172v-523zM330 523h172v-495q0 -59 -15 -98t-33 -62t-33 -32l-15 -9h-130v132h5q18 0 33.5 11.5t15.5 48.5v504z" />
    <glyph glyph-name="guilsinglleft.case" horiz-adv-x="326" 
d="M31 353l167 190h102v-82l-89 -99q-19 -21 -27.5 -29.5l-8.5 -8.5v-9l8.5 -9t27.5 -29l89 -100v-82h-102l-167 189v69z" />
    <glyph glyph-name="guilsinglright.case" horiz-adv-x="326" 
d="M295 353v-69l-167 -189h-102v82l89 100q19 20 27.5 29l8.5 9v9l-8.5 8.5t-27.5 29.5l-89 99v82h102z" />
    <glyph glyph-name="guillemotleft.case" horiz-adv-x="574" 
d="M31 353l167 190h102v-82l-89 -99q-19 -21 -27.5 -29.5l-8.5 -8.5v-9l8.5 -9t27.5 -29l89 -100v-82h-102l-167 189v69zM279 353l167 190h102v-82l-89 -99q-19 -21 -27.5 -29.5l-8.5 -8.5v-9l8.5 -9t27.5 -29l89 -100v-82h-102l-167 189v69z" />
    <glyph glyph-name="guillemotright.case" horiz-adv-x="574" 
d="M548 353v-69l-167 -189h-102v82l89 100q19 20 27.5 29l8.5 9v9l-8.5 8.5t-27.5 29.5l-89 99v82h102zM300 353v-69l-167 -189h-102v82l89 100q19 20 27.5 29l8.5 9v9l-8.5 8.5t-27.5 29.5l-89 99v82h102z" />
    <glyph glyph-name="exclamdown.case" horiz-adv-x="279" 
d="M38 582v9q0 43 26 70t76 27q49 0 75.5 -26.5t26.5 -70.5v-9q0 -43 -25.5 -70t-76.5 -27q-49 0 -75.5 26t-26.5 71zM236 0h-194v101l25 346h144l25 -346v-101z" />
    <glyph glyph-name="questiondown.case" horiz-adv-x="430" 
d="M333 582q0 -45 -26.5 -71t-75.5 -26q-51 0 -76.5 27t-25.5 70v9q0 44 26.5 70.5t75.5 26.5t75.5 -27t26.5 -70v-9zM310 449v-105l-73 -86q-22 -22 -33.5 -43.5t-11.5 -40.5t12 -28t35 -9q17 0 27 5t15.5 11.5t7 11.5l1.5 5h134v-136l-13 -6.5t-37.5 -14t-61 -14
t-83.5 -6.5q-113 0 -161.5 45.5t-48.5 133.5q0 49 19.5 93.5t49.5 79.5l81 104h141z" />
    <glyph glyph-name="braceleft.case" horiz-adv-x="317" 
d="M32 278v124q40 0 54 17t14 51v163q0 47 12.5 77.5t28 47.5t28 23.5l12.5 6.5h128v-119l-8 -0.5t-17 -6t-17 -18t-8 -36.5v-156q0 -42 -15 -68.5t-46 -41.5v-4q31 -15 46 -41.5t15 -68.5v-156q0 -24 8 -36.5t17 -18t17 -6l8 -0.5v-119h-128l-12.5 6.5t-28 23.5t-28 47.5
t-12.5 77.5v163q0 34 -14 51t-54 17z" />
    <glyph glyph-name="braceright.case" horiz-adv-x="317" 
d="M285 278q-40 0 -54 -17t-14 -51v-163q0 -47 -12.5 -77.5t-28 -47.5t-28 -23.5l-12.5 -6.5h-128v119l8 0.5t17 6t17 18t8 36.5v156q0 42 15 68.5t46 41.5v4q-31 15 -46 41.5t-15 68.5v156q0 24 -8 36.5t-17 18t-17 6l-8 0.5v119h128l12.5 -6.5t28 -23.5t28 -47.5
t12.5 -77.5v-163q0 -34 14 -51t54 -17v-124z" />
    <glyph glyph-name="bracketleft.case" horiz-adv-x="316" 
d="M55 788h253v-148h-92v-600h92v-148h-253v896z" />
    <glyph glyph-name="bracketright.case" horiz-adv-x="316" 
d="M261 788v-896h-253v148h92v600h-92v148h253z" />
    <glyph glyph-name="parenleft.case" horiz-adv-x="340" 
d="M51 340q1 137 42 251t119 197h121v-96q-58 -70 -89.5 -153.5t-32.5 -198.5q0 -115 32 -198t90 -154v-96h-121q-78 83 -120 197t-41 251z" />
    <glyph glyph-name="parenright.case" horiz-adv-x="340" 
d="M290 340q1 -137 -41 -251t-120 -197h-121v96q58 71 90 154t32 198q-1 115 -32.5 198.5t-89.5 153.5v96h121q78 -83 119 -197t42 -251z" />
    <glyph glyph-name="emdash.case" horiz-adv-x="1000" 
d="M0 390h1000v-150h-1000v150z" />
    <glyph glyph-name="endash.case" horiz-adv-x="500" 
d="M0 390h500v-150h-500v150z" />
    <glyph glyph-name="hyphen.case" horiz-adv-x="369" 
d="M44 390h282v-150h-282v150z" />
    <glyph glyph-name="at.case" horiz-adv-x="903" 
d="M738 68v-91l-17.5 -10.5t-53.5 -23.5t-90.5 -23.5t-127.5 -10.5q-195 0 -296.5 96.5t-101.5 284.5v58q0 184 104 282t304 98q196 0 294.5 -91.5t98.5 -271.5v-16q0 -120 -51.5 -173.5t-135.5 -53.5q-37 0 -62 9t-40.5 19.5t-22 19.5l-6.5 9h-4l-8 -9t-23.5 -19.5
t-37.5 -19.5t-50 -9q-76 0 -109 48.5t-33 138.5v25q0 92 35.5 139.5t106.5 47.5q26 0 46 -7t33 -15t19.5 -15l6.5 -7h4l14 36h95v-213q0 -37 8 -56.5t37 -19.5q25 0 37.5 21t12.5 77v42q0 132 -62 191t-203 59q-133 0 -206 -61.5t-73 -204.5v-58q0 -145 74 -206t199 -61
q55 0 92 7t59 15.5t31.5 15.5l9.5 7h93zM395 309q0 -48 13 -65.5t41 -17.5q30 0 43.5 15l13.5 15v135l-13.5 14.5t-42.5 14.5q-28 0 -41.5 -18t-13.5 -67v-26z" />
    <glyph glyph-name="zero.osf" horiz-adv-x="574" 
d="M36 238v68q0 125 67.5 187.5t183.5 62.5t183.5 -62.5t67.5 -187.5v-68q0 -125 -67.5 -188t-183.5 -63t-183.5 63t-67.5 188zM210 224q0 -51 19.5 -74t57.5 -23q39 0 58 23t19 74v96q0 51 -19 73.5t-58 22.5q-38 0 -57.5 -23t-19.5 -73v-96z" />
    <glyph glyph-name="one.osf" horiz-adv-x="414" 
d="M47 390v99l111 54h146v-410l76 -15v-118h-324v118l76 15v257h-85z" />
    <glyph glyph-name="two.osf" horiz-adv-x="506" 
d="M36 376l-1 132l14.5 7.5t42 16.5t66.5 16.5t87 7.5q107 0 164 -43t57 -124q0 -49 -20 -92.5t-89 -86.5l-54 -36q-24 -16 -42 -25l-18 -9v-2l28.5 1.5t71.5 1.5h130v-141l-438 -1v162l221 147q27 19 36 32t9 31q0 19 -15.5 31.5t-53.5 12.5q-25 0 -39 -6t-20.5 -13.5
t-8 -13.5l-1.5 -6h-127z" />
    <glyph glyph-name="three.osf" horiz-adv-x="494" 
d="M33 41h132l14 -12t54 -12q46 0 61 22.5t15 47.5q0 29 -18 45.5t-53 16.5q-24 0 -38 -5.5l-14 -5.5h-98v129l160 135v2h-8.5t-21 -0.5t-26.5 -0.5h-24h-133v140h409v-146l-109 -91q-20 -16 -44 -30.5l-24 -14.5l1 -2l14 4t36 4q31 0 59.5 -9.5t50 -29.5t34.5 -52.5
t13 -78.5q0 -99 -62 -158.5t-193 -59.5q-85 0 -136 14.5l-51 14.5v133z" />
    <glyph glyph-name="four.osf" horiz-adv-x="559" 
d="M550 162v-138h-82v-132h-165v132h-285v135l197 384h253v-381h82zM177 162h126v63q0 21 0.5 52t1.5 59.5t1.5 48.5l0.5 20h-10l-6 -13t-15.5 -33t-21.5 -44.5t-24 -48.5z" />
    <glyph glyph-name="five.osf" horiz-adv-x="507" 
d="M42 40h132l12 -10t45 -10q44 0 66 20t22 59q0 32 -17.5 52t-54.5 20q-43 0 -57.5 -14.5l-14.5 -14.5h-125v99l21 302h386v-139h-156q-35 0 -56.5 0.5l-21.5 0.5l-5 -65q-1 -22 -3 -37l-2 -15l1 -1l23 10t67 10q93 0 137 -54t44 -143q0 -104 -65.5 -167.5t-195.5 -63.5
q-78 0 -130 14l-52 14v133z" />
    <glyph glyph-name="six.osf" horiz-adv-x="542" 
d="M36 243v46q0 107 37 177.5t80.5 111t80.5 57l37 16.5h133v-124q-7 0 -31.5 -5t-53.5 -21t-56.5 -45t-40.5 -77h3l6.5 7t21.5 16t39 16t59 7q99 0 137 -60t38 -151q0 -106 -65 -166.5t-181 -60.5q-120 0 -182 64t-62 192zM212 213q0 -46 17 -68t54 -22q35 0 52.5 22
t17.5 68t-16.5 64t-48.5 18q-19 0 -33.5 -6t-24 -12.5t-14 -12.5l-4.5 -6v-45z" />
    <glyph glyph-name="seven.osf" horiz-adv-x="472" 
d="M13 543h444v-156l-142 -342q-17 -42 -18.5 -80t-1.5 -59v-14h-172v115l136 326q8 19 18.5 43l10.5 24v3h-123l-8 -52h-144v192z" />
    <glyph glyph-name="eight.osf" horiz-adv-x="566" 
d="M54 486q0 81 53.5 136t175.5 55t175.5 -55t53.5 -136q0 -37 -8.5 -64.5t-18 -46t-18 -28l-8.5 -9.5v-4l10.5 -9.5t23 -29t23 -49t10.5 -68.5q0 -87 -57.5 -138t-185.5 -51t-185 51t-57 138q0 39 10.5 68.5t22.5 49t22.5 29l10.5 9.5v4l-8.5 9.5t-18 28t-18 46t-8.5 64.5z
M215 474q0 -40 14.5 -55.5l14.5 -15.5h79l14 15.5t14 55.5q0 33 -16 51t-52 18q-35 0 -51.5 -18t-16.5 -51zM361 197q0 19 -5.5 33t-12.5 22.5t-12.5 13l-5.5 4.5h-84l-5.5 -4.5t-12 -13t-12 -22.5t-5.5 -33q0 -37 20 -55.5t57 -18.5q38 0 58 18.5t20 55.5z" />
    <glyph glyph-name="nine.osf" horiz-adv-x="539" 
d="M506 301v-46q0 -107 -37 -177.5t-80.5 -111t-80.5 -57l-37 -16.5h-133v124q7 0 31.5 5t53.5 21t56.5 45t40.5 77h-3l-6.5 -7t-21.5 -16t-39 -16t-59 -7q-99 0 -137 60t-38 151q0 106 65 166.5t181 60.5q120 0 182 -64t62 -192zM254 249q19 0 33.5 6t24 12.5t14 12.5
l4.5 6v45q0 46 -17 68t-54 22q-35 0 -52.5 -22t-17.5 -68t16.5 -64t48.5 -18z" />
    <glyph glyph-name="zero.slash.tf" horiz-adv-x="560" 
d="M33 238v205q0 124 61 187t186 63q124 0 185 -63t61 -187v-205q0 -124 -61 -187.5t-185 -63.5q-125 0 -186 63.5t-61 187.5zM211 459v-136l121 196q-7 9 -20 13.5t-32 4.5q-40 0 -54.5 -19.5t-14.5 -58.5zM348 222v134l-120 -196q7 -8 20 -12.5t32 -4.5q39 0 53.5 19.5
t14.5 59.5z" />
    <glyph glyph-name="zero.tf" horiz-adv-x="560" 
d="M33 238v205q0 124 61 187t186 63q124 0 185 -63t61 -187v-205q0 -124 -61 -187.5t-185 -63.5q-125 0 -186 63.5t-61 187.5zM211 222q0 -40 14.5 -59.5t54.5 -19.5q39 0 53.5 19.5t14.5 59.5v237q0 39 -14.5 58.5t-53.5 19.5q-40 0 -54.5 -19.5t-14.5 -58.5v-237z" />
    <glyph glyph-name="one.tf" horiz-adv-x="560" 
d="M64 522v105l167 53h150v-543l141 -17v-120h-461v120l142 17v385h-139z" />
    <glyph glyph-name="two.tf" horiz-adv-x="560" 
d="M51 504v142l16 6.5t45.5 14t70.5 14t90 6.5q126 0 182.5 -48.5t56.5 -145.5q0 -69 -28 -119t-85 -101l-131 -115v-2l30.5 1t61.5 1h145v-158h-454v160l234 226q22 21 37.5 42t15.5 54q0 31 -18.5 46.5t-57.5 15.5q-24 0 -39 -6.5t-23 -13.5t-11 -13.5l-3 -6.5h-135z" />
    <glyph glyph-name="three.tf" horiz-adv-x="560" 
d="M50 29v137h134l17 -15t65 -15q45 0 66 17.5t21 48.5q0 28 -17.5 46.5t-57.5 18.5q-28 0 -44.5 -6l-16.5 -6h-104v134l171 134v2h-9.5t-23 -0.5t-29 -0.5h-27.5h-135v156h438v-158l-106 -84q-10 -8 -23 -17t-25 -17t-20.5 -13l-8.5 -5l1 -2l14.5 2.5t36.5 2.5
q32 0 60.5 -10t50 -31.5t34.5 -56t13 -81.5q0 -111 -69.5 -165t-193.5 -54q-49 0 -88.5 6t-66.5 13t-42 13z" />
    <glyph glyph-name="four.tf" horiz-adv-x="560" 
d="M557 264v-146h-80v-118h-167v118h-290v146l193 416h264v-416h80zM180 264h130v93q0 21 0.5 51.5t1.5 57.5t1.5 46.5l0.5 19.5h-14l-14.5 -37.5t-38.5 -87.5z" />
    <glyph glyph-name="five.tf" horiz-adv-x="560" 
d="M329 440q106 0 150 -57.5t44 -148.5q0 -114 -62 -178.5t-199 -64.5q-51 0 -92 6.5t-69 14.5t-43.5 14.5l-15.5 6.5v143h135l3 -6t12 -13t25 -13t41 -6q43 0 68 23.5t25 62.5t-22.5 59t-60.5 20q-23 0 -39 -5.5t-26 -11.5t-14.5 -11.5l-4.5 -5.5h-127v100l25 311h408v-156
h-180h-26.5t-27 0.5t-20.5 0.5h-8l-5 -55q-1 -18 -3 -36.5l-2 -18.5l2 -1l28.5 13t80.5 13z" />
    <glyph glyph-name="six.tf" horiz-adv-x="560" 
d="M33 245v45q0 118 42 194t92.5 119.5t92.5 60l42 16.5h132v-136q-11 0 -41 -5.5t-64 -22.5t-64 -48.5t-42 -81.5h3l7.5 8.5t23 18t40 18t59.5 8.5q93 0 134.5 -57.5t41.5 -154.5q0 -122 -65.5 -180t-186.5 -58q-122 0 -184.5 64t-62.5 192zM208 219q0 -46 17.5 -68
t57.5 -22q39 0 57 22t18 73t-19 69.5t-50 18.5q-46 0 -63.5 -15.5l-17.5 -15.5v-62z" />
    <glyph glyph-name="seven.tf" horiz-adv-x="560" 
d="M340 0h-176v112l149 331q5 12 12 27t13 28t10 22.5l4 9.5v3h-167l-7 -51h-146v198h493v-176l-168 -383q-12 -32 -14.5 -55t-2.5 -53v-13z" />
    <glyph glyph-name="eight.tf" horiz-adv-x="560" 
d="M40 498q0 91 57.5 143t182.5 52q122 0 181.5 -52t59.5 -143q0 -39 -10.5 -68t-22.5 -47.5t-22.5 -27.5l-10.5 -9v-4l12 -9.5t26 -29t26 -49t12 -69.5q0 -94 -61.5 -146t-189.5 -52q-132 0 -191 52t-59 146q0 40 12 69.5t25.5 49t25.5 29l12 9.5v4l-10 9t-22.5 27.5
t-22.5 47.5t-10 68zM207 485q0 -19 5 -32.5t11 -21.5t11 -11.5l5 -3.5h81l5.5 3.5t11.5 11.5t11.5 21.5t5.5 32.5q0 34 -18.5 51.5t-55.5 17.5q-40 0 -56.5 -17.5t-16.5 -51.5zM360 201q0 19 -5.5 33t-12.5 22.5t-12.5 13l-5.5 4.5h-87l-5.5 -4.5t-12.5 -13t-12.5 -22.5
t-5.5 -33q0 -37 19 -55.5t60 -18.5q37 0 58.5 18.5t21.5 55.5z" />
    <glyph glyph-name="nine.tf" horiz-adv-x="560" 
d="M527 435v-45q0 -118 -42 -194t-92.5 -119.5t-92.5 -60l-42 -16.5h-132v136q11 0 41 5.5t64 22.5t64 48.5t42 81.5h-3l-7.5 -8.5t-23 -18t-40 -18t-59.5 -8.5q-93 0 -134.5 57.5t-41.5 154.5q0 122 65.5 180t186.5 58q122 0 184.5 -64t62.5 -192zM271 368q46 0 63.5 15.5
l17.5 15.5v62q0 46 -17.5 68t-57.5 22q-39 0 -57 -22t-18 -73t19 -69.5t50 -18.5z" />
    <glyph glyph-name="zero.ss02" horiz-adv-x="581" 
d="M44 238v205q0 124 61 187t186 63q124 0 185 -63t61 -187v-205q0 -124 -61 -187.5t-185 -63.5q-125 0 -186 63.5t-61 187.5zM222 222q0 -40 14.5 -59.5t54.5 -19.5q39 0 53.5 19.5t14.5 59.5v237q0 39 -14.5 58.5t-53.5 19.5q-40 0 -54.5 -19.5t-14.5 -58.5v-237z" />
    <glyph glyph-name="one.ss02" horiz-adv-x="416" 
d="M41 523v104l118 53h150v-545l87 -16v-119h-352v119l87 16v388h-90z" />
    <glyph glyph-name="two.ss02" horiz-adv-x="519" 
d="M44 500v143l14 7t41 15t67 15t90 7q126 0 183 -48t57 -145q0 -69 -29 -117t-101 -90l-90 -53q-29 -17 -45 -34t-16 -38v-8l9 0.5t23 0.5t30.5 0.5t32.5 0.5h177v-156h-452v108q0 83 31 145.5t110 106.5l90 51q31 18 44.5 34.5t13.5 40.5q0 26 -17 42t-56 16
q-25 0 -39.5 -7t-21.5 -15t-9 -15l-2 -7h-135z" />
    <glyph glyph-name="three.ss02" horiz-adv-x="535" 
d="M40 500v142l14.5 7.5t41 16.5t66 16.5t88.5 7.5q128 0 186 -50.5t58 -140.5q0 -39 -12.5 -68.5t-28 -49t-28 -29l-12.5 -9.5v-3l13 -8.5t28.5 -26.5t28.5 -46.5t13 -68.5q0 -95 -61.5 -147t-188.5 -52q-49 0 -88.5 7t-67 15.5t-42.5 16l-15 7.5v139h135l2 -6.5t9.5 -14
t23 -14t41.5 -6.5q43 0 61.5 20t18.5 50q0 18 -8 29.5t-17.5 18t-17.5 8.5l-8 2h-153v154h152l7.5 3.5t17 11t17 20t7.5 30.5q0 30 -18 46.5t-56 16.5q-24 0 -38.5 -7t-22 -15.5t-10 -15.5l-2.5 -7h-134z" />
    <glyph glyph-name="four.ss02" horiz-adv-x="562" 
d="M548 263v-145h-80v-118h-167v118h-280v146l183 416h264v-417h80zM179 263h122v84q0 21 0.5 53t1.5 61.5t1.5 50.5l0.5 21h-14l-15 -40t-37 -91z" />
    <glyph glyph-name="five.ss02" horiz-adv-x="537" 
d="M320 440q100 0 143 -57.5t43 -148.5q0 -114 -60 -178.5t-191 -64.5q-51 0 -91 6.5t-67.5 14.5t-42 14.5l-14.5 6.5v138h135l2.5 -5t10 -11.5t23 -11.5t40.5 -5q46 0 64.5 23.5t18.5 62.5t-17.5 59t-55.5 20q-21 0 -36 -5.5t-24.5 -11.5t-14 -11.5l-4.5 -5.5h-127v100
l25 311h393v-156h-170q-25 0 -51 0.5l-26 0.5l-5 -55q-1 -18 -3 -36.5l-2 -18.5l2 -1l25.5 13t76.5 13z" />
    <glyph glyph-name="six.ss02" horiz-adv-x="554" 
d="M498 500l-137 1l-1.5 6.5t-8.5 14.5t-20 14.5t-35 6.5q-39 0 -56.5 -19t-17.5 -56v-34q0 -19 -0.5 -32.5l-0.5 -13.5h2l7.5 7.5t22 16.5t37.5 16.5t54 7.5q98 0 139 -55.5t41 -159.5q0 -118 -59.5 -176t-178.5 -58q-124 0 -183 59.5t-59 190.5v210q0 126 67.5 185.5
t183.5 59.5q49 0 87 -8.5t63.5 -18t39 -18l13.5 -8.5v-139zM222 207q0 -45 20.5 -59.5t45.5 -14.5q37 0 52.5 21.5t15.5 67.5q0 40 -14.5 61t-51.5 21q-31 0 -48 -12.5t-19 -15.5z" />
    <glyph glyph-name="seven.ss02" horiz-adv-x="491" 
d="M355 247q-25 -41 -34.5 -84.5t-9.5 -95.5v-67h-178v64q0 63 13.5 122.5t52.5 120.5l42 66q28 45 41 70.5t13 64.5v21h-127l-11 -45h-139v196h453l1 -123q0 -37 -2.5 -65.5t-10.5 -54.5t-22.5 -54.5t-38.5 -66.5z" />
    <glyph glyph-name="eight.ss02" horiz-adv-x="572" 
d="M48 498q0 91 58 143t180 52t180 -52t58 -143q0 -38 -10 -67t-21.5 -47.5t-21.5 -28l-10 -9.5v-4l11.5 -10t25 -29t25 -48t11.5 -67q0 -94 -60 -147.5t-188 -53.5t-188 53.5t-60 147.5q0 38 11.5 67t25.5 48t25.5 29l11.5 10v4l-10 9.5t-22 28t-22 47.5t-10 67zM215 485
q0 -39 15.5 -54l15.5 -15h80l15.5 15t15.5 54q0 34 -17 51.5t-54 17.5t-54 -17.5t-17 -51.5zM363 201q0 19 -5.5 33t-11.5 22.5t-11.5 13l-5.5 4.5h-86l-5.5 -4.5t-11.5 -13t-11.5 -22.5t-5.5 -33q0 -37 20 -55.5t57 -18.5t57 18.5t20 55.5z" />
    <glyph glyph-name="nine.ss02" horiz-adv-x="557" 
d="M51 179l137 -1l1.5 -6.5t8.5 -14.5t20 -14.5t35 -6.5q39 0 56.5 19t17.5 56v34q0 19 0.5 32.5l0.5 13.5h-2l-7.5 -7.5t-22 -16.5t-37.5 -16.5t-54 -7.5q-98 0 -139 55.5t-41 159.5q0 118 59.5 176t178.5 58q124 0 183 -59.5t59 -190.5v-210q0 -126 -67.5 -185.5
t-183.5 -59.5q-49 0 -87 8.5t-63.5 18t-39 18l-13.5 8.5v139zM193 457q0 -40 14.5 -61t51.5 -21q31 0 48 12.5t19 15.5l1 69q0 45 -20.5 59.5t-45.5 14.5q-37 0 -52.5 -21.5t-15.5 -67.5z" />
    <glyph glyph-name="zero.dnom" horiz-adv-x="402" 
d="M201 -10q-75 0 -122.5 41t-47.5 120v107q0 78 47.5 119t122.5 41t123 -41t48 -119v-107q0 -79 -48 -120t-123 -41zM201 311q-21 0 -31 -12.5t-10 -34.5v-120q0 -22 10 -34.5t31 -12.5t31.5 12.5t10.5 34.5v120q0 22 -10.5 34.5t-31.5 12.5z" />
    <glyph glyph-name="one.dnom" horiz-adv-x="317" 
d="M33 0v92l66 10v200h-65v74l74 34h120v-308l66 -10v-92h-261z" />
    <glyph glyph-name="two.dnom" horiz-adv-x="362" 
d="M327 0h-294l-1 119l148 124q16 13 22.5 22.5t6.5 19.5q0 11 -8 19.5t-29 8.5q-31 0 -38.5 -12t-7.5 -11h-95v98l40 15.5t113 15.5q72 0 110.5 -32.5t38.5 -88.5q0 -48 -18.5 -76.5t-56.5 -57.5l-76 -62v-1l16 0.5t33 0.5h96v-102z" />
    <glyph glyph-name="three.dnom" horiz-adv-x="355" 
d="M29 113h95l8 -11t37 -11q22 0 31.5 10t9.5 27q0 20 -12 28t-26 8q-16 0 -24.5 -3.5l-8.5 -3.5h-68v76l98 75v1l-14.5 -0.5t-33.5 -0.5h-86v102h280v-110l-63 -50q-10 -7 -22 -14.5l-12 -7.5v-1l6.5 1.5t19.5 1.5q42 0 65.5 -27.5t23.5 -78.5q0 -60 -40.5 -96.5
t-124.5 -36.5q-63 0 -101 12.5l-38 12.5v97z" />
    <glyph glyph-name="four.dnom" horiz-adv-x="372" 
d="M17 65v93l107 252h183v-246h48v-99h-48v-65h-116v65h-174zM125 162h66v72v26.5t0.5 27t0.5 20.5v8h-6l-9 -24t-20 -52z" />
    <glyph glyph-name="five.dnom" horiz-adv-x="360" 
d="M34 18v97h95l8 -12.5t36 -12.5q23 0 33 11t10 30q0 18 -10.5 28t-31.5 10q-22 0 -32.5 -8.5l-10.5 -8.5h-90v71l23 186h256v-102h-110q-10 0 -27.5 0.5l-17.5 0.5l-4 -28q-1 -12 -2.5 -20.5l-1.5 -8.5l1 -1l17.5 7.5t52.5 7.5q51 0 81.5 -34t29.5 -94q-1 -64 -38 -105.5
t-124 -41.5q-66 0 -104.5 14z" />
    <glyph glyph-name="six.dnom" horiz-adv-x="362" 
d="M284 314q-12 0 -30 -4t-35.5 -14t-33 -25.5t-22.5 -37.5h2l19 13t58 13q54 0 79.5 -32.5t25.5 -92.5q0 -78 -45.5 -111t-114.5 -33q-66 0 -113.5 33t-47.5 120v19q0 75 26.5 123t58 75.5t58 38l26.5 10.5h89v-95zM151 137q0 -22 9 -35t29 -13q19 0 28 12.5t9 34.5
q0 21 -9.5 31t-25.5 10q-20 0 -30 -8l-10 -8v-24z" />
    <glyph glyph-name="seven.dnom" horiz-adv-x="335" 
d="M10 272v138h306v-118l-91 -208q-4 -10 -6.5 -26t-2.5 -27v-31h-129l-1 91l70 151q10 21 19.5 41l9.5 20v2h-58l-6 -33h-111z" />
    <glyph glyph-name="eight.dnom" horiz-adv-x="380" 
d="M349 111q0 -57 -37 -88t-121 -31t-121.5 31t-37.5 88q0 24 6.5 41.5t14.5 29t14.5 17.5l6.5 6v3l-6 6t-13 18t-13 29.5t-6 39.5q0 54 37 87.5t118 33.5q80 0 117 -33.5t37 -87.5q0 -22 -6 -39.5t-13 -29.5t-13 -18l-6 -6v-3l6.5 -6t14.5 -17.5t14.5 -29t6.5 -41.5z
M151 290q0 -18 8.5 -27.5l8.5 -9.5h45l8.5 9.5t8.5 27.5q0 15 -10 24.5t-29 9.5q-20 0 -30 -9.5t-10 -24.5zM149 124q0 -15 10 -24.5t32 -9.5t31.5 9.5t9.5 24.5q0 19 -9.5 27.5l-9.5 8.5h-45l-9.5 -8t-9.5 -28z" />
    <glyph glyph-name="nine.dnom" horiz-adv-x="362" 
d="M78 95q12 0 30 4t35.5 14t33 25.5t22.5 37.5h-2l-19 -13t-58 -13q-54 0 -79.5 32.5t-25.5 92.5q0 78 45.5 111t114.5 33q66 0 113.5 -33t47.5 -120v-19q0 -75 -26.5 -123t-58 -75.5t-58 -38l-26.5 -10.5h-89v95zM171 232q20 0 30 8l10 8v24q0 22 -9 35t-29 13
q-19 0 -28 -12.5t-9 -34.5q0 -21 9.5 -31t25.5 -10z" />
    <glyph glyph-name="zero.numr" horiz-adv-x="402" 
d="M201 261q-75 0 -122.5 41t-47.5 120v107q0 78 47.5 119t122.5 41t123 -41t48 -119v-107q0 -79 -48 -120t-123 -41zM201 582q-21 0 -31 -12.5t-10 -34.5v-120q0 -22 10 -34.5t31 -12.5t31.5 12.5t10.5 34.5v120q0 22 -10.5 34.5t-31.5 12.5z" />
    <glyph glyph-name="one.numr" horiz-adv-x="317" 
d="M33 270v92l66 10v200h-65v74l74 34h120v-308l66 -10v-92h-261z" />
    <glyph glyph-name="two.numr" horiz-adv-x="362" 
d="M327 270h-294l-1 119l148 124q16 13 22.5 22.5t6.5 19.5q0 11 -8 19.5t-29 8.5q-31 0 -38.5 -12t-7.5 -11h-95v98l40 15.5t113 15.5q72 0 110.5 -32.5t38.5 -88.5q0 -48 -18.5 -76.5t-56.5 -57.5l-76 -62v-1l16 0.5t33 0.5h96v-102z" />
    <glyph glyph-name="three.numr" horiz-adv-x="355" 
d="M29 383h95l8 -11t37 -11q22 0 31.5 10t9.5 27q0 20 -12 28t-26 8q-16 0 -24.5 -3.5l-8.5 -3.5h-68v76l98 75v1l-14.5 -0.5t-33.5 -0.5h-86v102h280v-110l-63 -50q-10 -7 -22 -14.5l-12 -7.5v-1l6.5 1.5t19.5 1.5q42 0 65.5 -27.5t23.5 -78.5q0 -60 -40.5 -96.5
t-124.5 -36.5q-63 0 -101 12.5l-38 12.5v97z" />
    <glyph glyph-name="four.numr" horiz-adv-x="372" 
d="M17 335v93l107 252h183v-246h48v-99h-48v-65h-116v65h-174zM125 432h66v72v26.5t0.5 27t0.5 20.5v8h-6l-9 -24t-20 -52z" />
    <glyph glyph-name="five.numr" horiz-adv-x="360" 
d="M34 289v97h95l8 -12.5t36 -12.5q23 0 33 11t10 30q0 18 -10.5 28t-31.5 10q-22 0 -32.5 -8.5l-10.5 -8.5h-90v71l23 186h256v-102h-110q-10 0 -27.5 0.5l-17.5 0.5l-4 -28q-1 -12 -2.5 -20.5l-1.5 -8.5l1 -1l17.5 7.5t52.5 7.5q51 0 81.5 -34t29.5 -94q-1 -64 -38 -105.5
t-124 -41.5q-66 0 -104.5 14z" />
    <glyph glyph-name="six.numr" horiz-adv-x="362" 
d="M284 585q-12 0 -30 -4t-35.5 -14t-33 -25.5t-22.5 -37.5h2l19 13t58 13q54 0 79.5 -32.5t25.5 -92.5q0 -78 -45.5 -111t-114.5 -33q-66 0 -113.5 33t-47.5 120v19q0 75 26.5 123t58 75.5t58 38l26.5 10.5h89v-95zM151 408q0 -22 9 -35t29 -13q19 0 28 12.5t9 34.5
q0 21 -9.5 31t-25.5 10q-20 0 -30 -8l-10 -8v-24z" />
    <glyph glyph-name="seven.numr" horiz-adv-x="335" 
d="M10 542v138h306v-118l-91 -208q-4 -10 -6.5 -26t-2.5 -27v-31h-129l-1 91l70 151q10 21 19.5 41l9.5 20v2h-58l-6 -33h-111z" />
    <glyph glyph-name="eight.numr" horiz-adv-x="380" 
d="M349 379q0 -57 -37 -88t-121 -31t-121.5 31t-37.5 88q0 24 6.5 41.5t14.5 29t14.5 17.5l6.5 6v3l-6 6t-13 18t-13 29.5t-6 39.5q0 54 37 87.5t118 33.5q80 0 117 -33.5t37 -87.5q0 -22 -6 -39.5t-13 -29.5t-13 -18l-6 -6v-3l6.5 -6t14.5 -17.5t14.5 -29t6.5 -41.5z
M151 558q0 -18 8.5 -27.5l8.5 -9.5h45l8.5 9.5t8.5 27.5q0 15 -10 24.5t-29 9.5q-20 0 -30 -9.5t-10 -24.5zM149 392q0 -15 10 -24.5t32 -9.5t31.5 9.5t9.5 24.5q0 19 -9.5 27.5l-9.5 8.5h-45l-9.5 -8t-9.5 -28z" />
    <glyph glyph-name="nine.numr" horiz-adv-x="362" 
d="M78 365q12 0 30 4t35.5 14t33 25.5t22.5 37.5h-2l-19 -13t-58 -13q-54 0 -79.5 32.5t-25.5 92.5q0 78 45.5 111t114.5 33q66 0 113.5 -33t47.5 -120v-19q0 -75 -26.5 -123t-58 -75.5t-58 -38l-26.5 -10.5h-89v95zM171 502q20 0 30 8l10 8v24q0 22 -9 35t-29 13
q-19 0 -28 -12.5t-9 -34.5q0 -21 9.5 -31t25.5 -10z" />
    <glyph glyph-name="M.alt" horiz-adv-x="759" 
d="M57 0v680h197l77 -197q20 -52 33 -92l13 -40h5l13 40t33 92l77 197h197v-680h-165v204q0 33 1 75.5t2 79.5t2 62.5l1 25.5h-2l-5 -15.5t-12.5 -37t-16 -45t-15.5 -40.5l-51 -123h-123l-51 123q-7 17 -15.5 40.5t-16 45t-12.5 37l-5 15.5h-2l1 -25.5t2 -62.5t2 -79.5
t1 -75.5v-204h-165z" />
    <glyph glyph-name="a.alt" 
d="M33 234v52q0 50 9 94.5t30.5 77.5t57 52t88.5 19q32 0 57 -8.5t42 -18.5t25.5 -18l8.5 -8h4l19 47h144v-523h-147l-21 52h-4l-8.5 -9t-25.5 -19.5t-43.5 -19.5t-61.5 -9q-98 0 -136 63.5t-38 175.5zM273 127q35 0 54 12.5l19 12.5v224l-18.5 10t-50.5 10
q-47 0 -58.5 -33.5t-11.5 -74.5v-60q0 -41 10 -71t56 -30z" />
    <glyph glyph-name="aacute.alt" 
d="M295 740h133v-72l-82 -98h-133zM33 234v52q0 50 9 94.5t30.5 77.5t57 52t88.5 19q32 0 57 -8.5t42 -18.5t25.5 -18l8.5 -8h4l19 47h144v-523h-147l-21 52h-4l-8.5 -9t-25.5 -19.5t-43.5 -19.5t-61.5 -9q-98 0 -136 63.5t-38 175.5zM273 127q35 0 54 12.5l19 12.5v224
l-18.5 10t-50.5 10q-47 0 -58.5 -33.5t-11.5 -74.5v-60q0 -41 10 -71t56 -30z" />
    <glyph glyph-name="abreve.alt" 
d="M134 729h93l1 -9t6.5 -20t17.5 -20t35 -9q22 0 34.5 9t17.5 20t6 20l1 9h93v-83l-7 -12.5t-24 -27.5t-46.5 -27.5t-74.5 -12.5t-75 12.5t-47 27.5t-24 27.5l-7 12.5v83zM33 234v52q0 50 9 94.5t30.5 77.5t57 52t88.5 19q32 0 57 -8.5t42 -18.5t25.5 -18l8.5 -8h4l19 47
h144v-523h-147l-21 52h-4l-8.5 -9t-25.5 -19.5t-43.5 -19.5t-61.5 -9q-98 0 -136 63.5t-38 175.5zM273 127q35 0 54 12.5l19 12.5v224l-18.5 10t-50.5 10q-47 0 -58.5 -33.5t-11.5 -74.5v-60q0 -41 10 -71t56 -30z" />
    <glyph glyph-name="acircumflex.alt" 
d="M137 566v70l95 104h111l94 -104v-70h-88l-34 42q-10 11 -18 22l-8 11h-4l-8.5 -11.5t-17.5 -21.5l-34 -42h-88zM33 234v52q0 50 9 94.5t30.5 77.5t57 52t88.5 19q32 0 57 -8.5t42 -18.5t25.5 -18l8.5 -8h4l19 47h144v-523h-147l-21 52h-4l-8.5 -9t-25.5 -19.5
t-43.5 -19.5t-61.5 -9q-98 0 -136 63.5t-38 175.5zM273 127q35 0 54 12.5l19 12.5v224l-18.5 10t-50.5 10q-47 0 -58.5 -33.5t-11.5 -74.5v-60q0 -41 10 -71t56 -30z" />
    <glyph glyph-name="adieresis.alt" 
d="M127 653q0 32 18.5 50.5t55.5 18.5q40 0 56.5 -20t16.5 -49v-9q0 -31 -18 -49.5t-55 -18.5q-40 0 -57 19.5t-17 48.5v9zM299 653q0 32 18.5 50.5t55.5 18.5q40 0 56.5 -20t16.5 -49v-9q0 -31 -18 -49.5t-55 -18.5q-40 0 -57 19.5t-17 48.5v9zM33 234v52q0 50 9 94.5
t30.5 77.5t57 52t88.5 19q32 0 57 -8.5t42 -18.5t25.5 -18l8.5 -8h4l19 47h144v-523h-147l-21 52h-4l-8.5 -9t-25.5 -19.5t-43.5 -19.5t-61.5 -9q-98 0 -136 63.5t-38 175.5zM273 127q35 0 54 12.5l19 12.5v224l-18.5 10t-50.5 10q-47 0 -58.5 -33.5t-11.5 -74.5v-60
q0 -41 10 -71t56 -30z" />
    <glyph glyph-name="uni1EA1.alt" 
d="M33 234v52q0 50 9 94.5t30.5 77.5t57 52t88.5 19q32 0 57 -8.5t42 -18.5t25.5 -18l8.5 -8h4l19 47h144v-523h-147l-21 52h-4l-8.5 -9t-25.5 -19.5t-43.5 -19.5t-61.5 -9q-98 0 -136 63.5t-38 175.5zM273 127q35 0 54 12.5l19 12.5v224l-18.5 10t-50.5 10
q-47 0 -58.5 -33.5t-11.5 -74.5v-60q0 -41 10 -71t56 -30zM192 -135q0 40 24.5 62.5t70.5 22.5q45 0 69.5 -22.5t24.5 -62.5v-12q0 -41 -24.5 -63t-69.5 -22q-46 0 -70.5 22t-24.5 63v12z" />
    <glyph glyph-name="agrave.alt" 
d="M286 740l82 -170h-133l-82 98v72h133zM33 234v52q0 50 9 94.5t30.5 77.5t57 52t88.5 19q32 0 57 -8.5t42 -18.5t25.5 -18l8.5 -8h4l19 47h144v-523h-147l-21 52h-4l-8.5 -9t-25.5 -19.5t-43.5 -19.5t-61.5 -9q-98 0 -136 63.5t-38 175.5zM273 127q35 0 54 12.5l19 12.5
v224l-18.5 10t-50.5 10q-47 0 -58.5 -33.5t-11.5 -74.5v-60q0 -41 10 -71t56 -30z" />
    <glyph glyph-name="amacron.alt" 
d="M137 724h299v-120h-299v120zM33 234v52q0 50 9 94.5t30.5 77.5t57 52t88.5 19q32 0 57 -8.5t42 -18.5t25.5 -18l8.5 -8h4l19 47h144v-523h-147l-21 52h-4l-8.5 -9t-25.5 -19.5t-43.5 -19.5t-61.5 -9q-98 0 -136 63.5t-38 175.5zM273 127q35 0 54 12.5l19 12.5v224
l-18.5 10t-50.5 10q-47 0 -58.5 -33.5t-11.5 -74.5v-60q0 -41 10 -71t56 -30z" />
    <glyph glyph-name="aogonek.alt" 
d="M33 234v52q0 50 9 94.5t30.5 77.5t57 52t88.5 19q32 0 57 -8.5t42 -18.5t25.5 -18l8.5 -8h4l19 47h144v-523l-34 -26q-18 -13 -27.5 -23.5t-9.5 -22.5q0 -13 10 -20t26 -7h19v-82h-67q-49 0 -78.5 26.5t-29.5 69.5q0 28 10.5 48t32.5 40l-20 49h-4l-8.5 -9t-25.5 -19.5
t-43.5 -19.5t-61.5 -9q-98 0 -136 63.5t-38 175.5zM273 127q35 0 54 12.5l19 12.5v224l-18.5 10t-50.5 10q-47 0 -58.5 -33.5t-11.5 -74.5v-60q0 -41 10 -71t56 -30z" />
    <glyph glyph-name="aring.alt" 
d="M162 677q0 55 34.5 87.5t90.5 32.5q55 0 89.5 -32.5t34.5 -87.5t-34.5 -87.5t-89.5 -32.5q-56 0 -90.5 32.5t-34.5 87.5zM251 677q0 -15 8.5 -25t27.5 -10t27 10t8 25q0 16 -8 26t-27 10t-27.5 -10t-8.5 -26zM33 234v52q0 50 9 94.5t30.5 77.5t57 52t88.5 19
q32 0 57 -8.5t42 -18.5t25.5 -18l8.5 -8h4l19 47h144v-523h-147l-21 52h-4l-8.5 -9t-25.5 -19.5t-43.5 -19.5t-61.5 -9q-98 0 -136 63.5t-38 175.5zM273 127q35 0 54 12.5l19 12.5v224l-18.5 10t-50.5 10q-47 0 -58.5 -33.5t-11.5 -74.5v-60q0 -41 10 -71t56 -30z" />
    <glyph glyph-name="atilde.alt" 
d="M85 584v100l6.5 8t20 17t36 17t53.5 8q24 0 43 -4t35 -9l25 -7q13 -4 22.5 -7t25.5 -3q27 0 35.5 14l8.5 14h93v-100l-6.5 -8t-20 -17t-36 -17t-53.5 -8q-24 0 -43 4t-35 9l-25 7q-13 4 -22.5 7t-25.5 3q-27 0 -35.5 -14l-8.5 -14h-93zM33 234v52q0 50 9 94.5t30.5 77.5
t57 52t88.5 19q32 0 57 -8.5t42 -18.5t25.5 -18l8.5 -8h4l19 47h144v-523h-147l-21 52h-4l-8.5 -9t-25.5 -19.5t-43.5 -19.5t-61.5 -9q-98 0 -136 63.5t-38 175.5zM273 127q35 0 54 12.5l19 12.5v224l-18.5 10t-50.5 10q-47 0 -58.5 -33.5t-11.5 -74.5v-60q0 -41 10 -71
t56 -30z" />
    <glyph glyph-name="g.alt" horiz-adv-x="568" 
d="M92 -155v131h112l12.5 -9t47.5 -9q43 0 62 17t19 52v8q0 20 1 36l1 16h-4l-8.5 -9t-25.5 -19.5t-43 -19.5t-61 -9q-96 0 -134 61.5t-38 172.5v33q0 50 9 92.5t29.5 73.5t56 48.5t87.5 17.5q33 0 58 -8t41.5 -17t25 -17l8.5 -8h4l19 44h144v-453q0 -115 -56.5 -181
t-194.5 -66q-78 0 -125 11zM271 161q35 0 53.5 12.5l18.5 12.5v194l-17.5 9t-49.5 9q-46 0 -57.5 -29t-11.5 -71v-44q0 -40 10.5 -66.5t53.5 -26.5z" />
    <glyph glyph-name="gbreve.alt" horiz-adv-x="568" 
d="M134 729h93l1 -9t6.5 -20t17.5 -20t35 -9q22 0 34.5 9t17.5 20t6 20l1 9h93v-83l-7 -12.5t-24 -27.5t-46.5 -27.5t-74.5 -12.5t-75 12.5t-47 27.5t-24 27.5l-7 12.5v83zM92 -155v131h112l12.5 -9t47.5 -9q43 0 62 17t19 52v8q0 20 1 36l1 16h-4l-8.5 -9t-25.5 -19.5
t-43 -19.5t-61 -9q-96 0 -134 61.5t-38 172.5v33q0 50 9 92.5t29.5 73.5t56 48.5t87.5 17.5q33 0 58 -8t41.5 -17t25 -17l8.5 -8h4l19 44h144v-453q0 -115 -56.5 -181t-194.5 -66q-78 0 -125 11zM271 161q35 0 53.5 12.5l18.5 12.5v194l-17.5 9t-49.5 9q-46 0 -57.5 -29
t-11.5 -71v-44q0 -40 10.5 -66.5t53.5 -26.5z" />
    <glyph glyph-name="gcaron.alt" horiz-adv-x="568" 
d="M437 740v-70l-95 -104h-111l-94 104v70h88l34 -42q10 -11 18 -22l8 -11h4l8.5 11.5t17.5 21.5l34 42h88zM92 -155v131h112l12.5 -9t47.5 -9q43 0 62 17t19 52v8q0 20 1 36l1 16h-4l-8.5 -9t-25.5 -19.5t-43 -19.5t-61 -9q-96 0 -134 61.5t-38 172.5v33q0 50 9 92.5
t29.5 73.5t56 48.5t87.5 17.5q33 0 58 -8t41.5 -17t25 -17l8.5 -8h4l19 44h144v-453q0 -115 -56.5 -181t-194.5 -66q-78 0 -125 11zM271 161q35 0 53.5 12.5l18.5 12.5v194l-17.5 9t-49.5 9q-46 0 -57.5 -29t-11.5 -71v-44q0 -40 10.5 -66.5t53.5 -26.5z" />
    <glyph glyph-name="gcircumflex.alt" horiz-adv-x="568" 
d="M137 566v70l95 104h111l94 -104v-70h-88l-34 42q-10 11 -18 22l-8 11h-4l-8.5 -11.5t-17.5 -21.5l-34 -42h-88zM92 -155v131h112l12.5 -9t47.5 -9q43 0 62 17t19 52v8q0 20 1 36l1 16h-4l-8.5 -9t-25.5 -19.5t-43 -19.5t-61 -9q-96 0 -134 61.5t-38 172.5v33q0 50 9 92.5
t29.5 73.5t56 48.5t87.5 17.5q33 0 58 -8t41.5 -17t25 -17l8.5 -8h4l19 44h144v-453q0 -115 -56.5 -181t-194.5 -66q-78 0 -125 11zM271 161q35 0 53.5 12.5l18.5 12.5v194l-17.5 9t-49.5 9q-46 0 -57.5 -29t-11.5 -71v-44q0 -40 10.5 -66.5t53.5 -26.5z" />
    <glyph glyph-name="uni0123.alt" horiz-adv-x="568" 
d="M392 787l-6 -16.5t-13 -45.5t-13 -69t-6 -87h-150v69q9 37 22 65t24 46.5t19 28l8 9.5h115zM92 -155v131h112l12.5 -9t47.5 -9q43 0 62 17t19 52v8q0 20 1 36l1 16h-4l-8.5 -9t-25.5 -19.5t-43 -19.5t-61 -9q-96 0 -134 61.5t-38 172.5v33q0 50 9 92.5t29.5 73.5t56 48.5
t87.5 17.5q33 0 58 -8t41.5 -17t25 -17l8.5 -8h4l19 44h144v-453q0 -115 -56.5 -181t-194.5 -66q-78 0 -125 11zM271 161q35 0 53.5 12.5l18.5 12.5v194l-17.5 9t-49.5 9q-46 0 -57.5 -29t-11.5 -71v-44q0 -40 10.5 -66.5t53.5 -26.5z" />
    <glyph glyph-name="gdotaccent.alt" horiz-adv-x="568" 
d="M192 662q0 40 24.5 62.5t70.5 22.5q45 0 69.5 -22.5t24.5 -62.5v-12q0 -41 -24.5 -63t-69.5 -22q-46 0 -70.5 22t-24.5 63v12zM92 -155v131h112l12.5 -9t47.5 -9q43 0 62 17t19 52v8q0 20 1 36l1 16h-4l-8.5 -9t-25.5 -19.5t-43 -19.5t-61 -9q-96 0 -134 61.5t-38 172.5
v33q0 50 9 92.5t29.5 73.5t56 48.5t87.5 17.5q33 0 58 -8t41.5 -17t25 -17l8.5 -8h4l19 44h144v-453q0 -115 -56.5 -181t-194.5 -66q-78 0 -125 11zM271 161q35 0 53.5 12.5l18.5 12.5v194l-17.5 9t-49.5 9q-46 0 -57.5 -29t-11.5 -71v-44q0 -40 10.5 -66.5t53.5 -26.5z" />
    <glyph glyph-name="i.alt" horiz-adv-x="289" 
d="M56 678q0 41 25 63.5t71 22.5t70.5 -22.5t24.5 -63.5v-12q0 -41 -24.5 -63.5t-70.5 -22.5t-71 22.5t-25 63.5v12zM238 523v-523h-172v384l-53 9v130h225z" />
    <glyph glyph-name="dotlessi.alt" horiz-adv-x="290" 
d="M238 523v-523h-172v384l-53 9v130h225z" />
    <glyph glyph-name="iacute.alt" horiz-adv-x="290" 
d="M132 740h133v-72l-82 -98h-133zM238 523v-523h-172v384l-53 9v130h225z" />
    <glyph glyph-name="ibreve.alt" horiz-adv-x="290" 
d="M-25 729h93l1 -9t6.5 -20t17.5 -20t35 -9q22 0 34.5 9t17.5 20t6 20l1 9h93v-83l-7 -12.5t-24 -27.5t-46.5 -27.5t-74.5 -12.5t-75 12.5t-47 27.5t-24 27.5l-7 12.5v83zM238 523v-523h-172v384l-53 9v130h225z" />
    <glyph glyph-name="icircumflex.alt" horiz-adv-x="290" 
d="M-22 566v70l95 104h111l94 -104v-70h-88l-34 42q-10 11 -18 22l-8 11h-4l-8.5 -11.5t-17.5 -21.5l-34 -42h-88zM238 523v-523h-172v384l-53 9v130h225z" />
    <glyph glyph-name="idieresis.alt" horiz-adv-x="290" 
d="M-32 653q0 32 18.5 50.5t55.5 18.5q40 0 56.5 -20t16.5 -49v-9q0 -31 -18 -49.5t-55 -18.5q-40 0 -57 19.5t-17 48.5v9zM140 653q0 32 18.5 50.5t55.5 18.5q40 0 56.5 -20t16.5 -49v-9q0 -31 -18 -49.5t-55 -18.5q-40 0 -57 19.5t-17 48.5v9zM238 523v-523h-172v384
l-53 9v130h225z" />
    <glyph glyph-name="uni1ECB.alt" horiz-adv-x="289" 
d="M56 678q0 41 25 63.5t71 22.5t70.5 -22.5t24.5 -63.5v-12q0 -41 -24.5 -63.5t-70.5 -22.5t-71 22.5t-25 63.5v12zM238 523v-523h-172v384l-53 9v130h225zM57 -135q0 40 24.5 62.5t70.5 22.5q45 0 69.5 -22.5t24.5 -62.5v-12q0 -41 -24.5 -63t-69.5 -22q-46 0 -70.5 22
t-24.5 63v12z" />
    <glyph glyph-name="igrave.alt" horiz-adv-x="290" 
d="M122 740l82 -170h-133l-82 98v72h133zM238 523v-523h-172v384l-53 9v130h225z" />
    <glyph glyph-name="imacron.alt" horiz-adv-x="290" 
d="M-22 724h299v-120h-299v120zM238 523v-523h-172v384l-53 9v130h225z" />
    <glyph glyph-name="iogonek.alt" horiz-adv-x="290" 
d="M33 662q0 40 24.5 62.5t70.5 22.5q45 0 69.5 -22.5t24.5 -62.5v-12q0 -41 -24.5 -63t-69.5 -22q-46 0 -70.5 22t-24.5 63v12zM238 0l-34 -26q-18 -13 -27.5 -23.5t-9.5 -22.5q0 -13 10 -20t26 -7h19v-82h-67q-49 0 -78.5 26.5t-29.5 69.5q0 26 10 46t29 39h-20v384l-53 9
v130h225v-523z" />
    <glyph glyph-name="itilde.alt" horiz-adv-x="290" 
d="M-74 584v100l6.5 8t20 17t36 17t53.5 8q24 0 43 -4t35 -9l25 -7q13 -4 22.5 -7t25.5 -3q27 0 35.5 14l8.5 14h93v-100l-6.5 -8t-20 -17t-36 -17t-53.5 -8q-24 0 -43 4t-35 9l-25 7q-13 4 -22.5 7t-25.5 3q-27 0 -35.5 -14l-8.5 -14h-93zM238 523v-523h-172v384l-53 9v130
h225z" />
    <glyph glyph-name="j.alt" horiz-adv-x="289" 
d="M56 666v12q0 41 25 63.5t71 22.5t70.5 -22.5t24.5 -63.5v-12q0 -41 -24.5 -63.5t-70.5 -22.5t-71 22.5t-25 63.5zM12 -173v130h5q18 0 33.5 13.5t15.5 53.5v360l-53 9v130h225v-495q0 -59 -15 -98t-33 -62t-33 -32l-15 -9h-130z" />
    <glyph glyph-name="uni0237.alt" horiz-adv-x="286" 
d="M12 -173v130h5q18 0 33.5 13.5t15.5 53.5v360l-53 9v130h225v-495q0 -59 -15 -98t-33 -62t-33 -32l-15 -9h-130z" />
    <glyph glyph-name="jcircumflex.alt" horiz-adv-x="286" 
d="M-22 566v70l95 104h111l94 -104v-70h-88l-34 42q-10 11 -18 22l-8 11h-4l-8.5 -11.5t-17.5 -21.5l-34 -42h-88zM12 -173v130h5q18 0 33.5 13.5t15.5 53.5v360l-53 9v130h225v-495q0 -59 -15 -98t-33 -62t-33 -32l-15 -9h-130z" />
    <glyph glyph-name="y.alt" horiz-adv-x="569" 
d="M89 -152v129h111l12.5 -9.5t50.5 -9.5q44 0 64 18t20 54v5q0 20 1 37l1 17h-3l-9 -10t-26.5 -21.5t-44.5 -21.5t-63 -10q-76 0 -115 40t-39 130v327h172v-296q0 -33 14 -47t45 -14t48.5 12.5l17.5 12.5v332h172v-453q0 -115 -58.5 -181t-198.5 -66q-82 0 -127 12.5z" />
    <glyph glyph-name="yacute.alt" horiz-adv-x="569" 
d="M293 740h133v-72l-82 -98h-133zM89 -152v129h111l12.5 -9.5t50.5 -9.5q44 0 64 18t20 54v5q0 20 1 37l1 17h-3l-9 -10t-26.5 -21.5t-44.5 -21.5t-63 -10q-76 0 -115 40t-39 130v327h172v-296q0 -33 14 -47t45 -14t48.5 12.5l17.5 12.5v332h172v-453q0 -115 -58.5 -181
t-198.5 -66q-82 0 -127 12.5z" />
    <glyph glyph-name="ycircumflex.alt" horiz-adv-x="569" 
d="M135 566v70l95 104h111l94 -104v-70h-88l-34 42q-10 11 -18 22l-8 11h-4l-8.5 -11.5t-17.5 -21.5l-34 -42h-88zM89 -152v129h111l12.5 -9.5t50.5 -9.5q44 0 64 18t20 54v5q0 20 1 37l1 17h-3l-9 -10t-26.5 -21.5t-44.5 -21.5t-63 -10q-76 0 -115 40t-39 130v327h172v-296
q0 -33 14 -47t45 -14t48.5 12.5l17.5 12.5v332h172v-453q0 -115 -58.5 -181t-198.5 -66q-82 0 -127 12.5z" />
    <glyph glyph-name="ydieresis.alt" horiz-adv-x="569" 
d="M125 653q0 32 18.5 50.5t55.5 18.5q40 0 56.5 -20t16.5 -49v-9q0 -31 -18 -49.5t-55 -18.5q-40 0 -57 19.5t-17 48.5v9zM297 653q0 32 18.5 50.5t55.5 18.5q40 0 56.5 -20t16.5 -49v-9q0 -31 -18 -49.5t-55 -18.5q-40 0 -57 19.5t-17 48.5v9zM89 -152v129h111l12.5 -9.5
t50.5 -9.5q44 0 64 18t20 54v5q0 20 1 37l1 17h-3l-9 -10t-26.5 -21.5t-44.5 -21.5t-63 -10q-76 0 -115 40t-39 130v327h172v-296q0 -33 14 -47t45 -14t48.5 12.5l17.5 12.5v332h172v-453q0 -115 -58.5 -181t-198.5 -66q-82 0 -127 12.5z" />
    <glyph glyph-name="ygrave.alt" horiz-adv-x="569" 
d="M274 740l82 -170h-133l-82 98v72h133zM89 -152v129h111l12.5 -9.5t50.5 -9.5q44 0 64 18t20 54v5q0 20 1 37l1 17h-3l-9 -10t-26.5 -21.5t-44.5 -21.5t-63 -10q-76 0 -115 40t-39 130v327h172v-296q0 -33 14 -47t45 -14t48.5 12.5l17.5 12.5v332h172v-453
q0 -115 -58.5 -181t-198.5 -66q-82 0 -127 12.5z" />
    <glyph glyph-name="uni0233.alt" horiz-adv-x="569" 
d="M135 724h299v-120h-299v120zM89 -152v129h111l12.5 -9.5t50.5 -9.5q44 0 64 18t20 54v5q0 20 1 37l1 17h-3l-9 -10t-26.5 -21.5t-44.5 -21.5t-63 -10q-76 0 -115 40t-39 130v327h172v-296q0 -33 14 -47t45 -14t48.5 12.5l17.5 12.5v332h172v-453q0 -115 -58.5 -181
t-198.5 -66q-82 0 -127 12.5z" />
    <glyph glyph-name="uni1EF9.alt" horiz-adv-x="569" 
d="M83 584v100l6.5 8t20 17t36 17t53.5 8q24 0 43 -4t35 -9l25 -7q13 -4 22.5 -7t25.5 -3q27 0 35.5 14l8.5 14h93v-100l-6.5 -8t-20 -17t-36 -17t-53.5 -8q-24 0 -43 4t-35 9l-25 7q-13 4 -22.5 7t-25.5 3q-27 0 -35.5 -14l-8.5 -14h-93zM89 -152v129h111l12.5 -9.5
t50.5 -9.5q44 0 64 18t20 54v5q0 20 1 37l1 17h-3l-9 -10t-26.5 -21.5t-44.5 -21.5t-63 -10q-76 0 -115 40t-39 130v327h172v-296q0 -33 14 -47t45 -14t48.5 12.5l17.5 12.5v332h172v-453q0 -115 -58.5 -181t-198.5 -66q-82 0 -127 12.5z" />
    <glyph glyph-name="caroncomb.alt" horiz-adv-x="273" 
d="M41 549l4 16.5t9.5 43.5t9.5 61.5t4 69.5h150v-57q-7 -32 -17 -57t-19.5 -42t-16.5 -26l-7 -9h-117z" />
    <glyph glyph-name="uni0326.alt" horiz-adv-x="269" 
d="M240 787l-6 -16.5t-13 -45.5t-13 -69t-6 -87h-150v69q9 37 22 65t24 46.5t19 28l8 9.5h115z" />
    <glyph glyph-name="uni0308.case" horiz-adv-x="369" 
d="M25 819q0 32 18.5 50.5t55.5 18.5q40 0 56.5 -20t16.5 -49v-9q0 -31 -18 -49.5t-55 -18.5q-40 0 -57 19.5t-17 48.5v9zM197 819q0 32 18.5 50.5t55.5 18.5q40 0 56.5 -20t16.5 -49v-9q0 -31 -18 -49.5t-55 -18.5q-40 0 -57 19.5t-17 48.5v9z" />
    <glyph glyph-name="gravecomb.case" horiz-adv-x="345" 
d="M45 918h111l144 -102v-107l-255 110v99z" />
    <glyph glyph-name="acutecomb.case" horiz-adv-x="345" 
d="M300 918v-99l-255 -110v107l144 102h111z" />
    <glyph glyph-name="uni0302.case" horiz-adv-x="360" 
d="M29 727v68l99 78h105l98 -78v-68h-87l-35 30q-10 8 -18 15.5l-8 7.5h-5l-8 -7.5t-18 -15.5l-35 -30h-88z" />
    <glyph glyph-name="uni030C.case" horiz-adv-x="355" 
d="M26 872h88l35 -30q10 -8 18 -15.5l8 -7.5h5l8 7.5t18 15.5l35 30h87v-68l-98 -78h-105l-99 78v68z" />
    <glyph glyph-name="uni030A.case" horiz-adv-x="324" 
d="M14 731q0 66 41 105t107 39t107.5 -39t41.5 -105q0 -65 -41.5 -104t-107.5 -39t-107 39t-41 104zM118 731q0 -19 10.5 -31t33.5 -12t33.5 12t10.5 31t-10.5 31.5t-33.5 12.5t-33.5 -12.5t-10.5 -31.5z" />
    <glyph glyph-name="tildecomb.case" horiz-adv-x="422" 
d="M9 741v100l6.5 8t20 17t36 17t53.5 8q24 0 43 -4t35 -9l25 -7q13 -4 22.5 -7t25.5 -3q27 0 35.5 14l8.5 14h93v-100l-6.5 -8t-20 -17t-36 -17t-53.5 -8q-24 0 -43 4t-35 9l-25 7q-13 4 -22.5 7t-25.5 3q-27 0 -35.5 -14l-8.5 -14h-93z" />
    <glyph glyph-name="uni0336.case" horiz-adv-x="722" 
d="M20 616h682v-133h-682v133z" />
    <glyph glyph-name="uni0338.case" horiz-adv-x="542" 
d="M453 730h79v-61l-443 -719h-79v62z" />
    </font>
</defs>
</svg>
